<svg width="59" height="59" viewBox="0 0 59 59" fill="none" xmlns="http://www.w3.org/2000/svg">
<path d="M20.3303 19.0966C20.4629 16.8597 21.335 14.7394 22.7988 13.0956C24.2625 11.4518 26.2277 10.3858 28.3608 10.0784C30.6622 9.81131 32.9763 10.4502 34.848 11.8693C36.7197 13.2883 38.0134 15.385 38.4747 17.7467C38.778 19.3218 38.6832 20.9518 38.1995 22.4772C37.7157 24.0027 36.8597 25.3712 35.7151 26.449C35.5633 26.6213 35.3977 26.7792 35.2046 26.9659C35.8255 27.1957 36.4326 27.3824 36.9983 27.6409C37.2881 27.7701 37.3571 27.6409 37.4812 27.4255C38.5053 26.2837 39.7995 25.4419 41.2343 24.9842C40.3804 24.1888 39.7265 23.188 39.3297 22.0691C38.9329 20.9502 38.8051 19.7473 38.9576 18.5652C39.1751 16.7447 40.0539 15.0799 41.4137 13.9125C42.7353 12.7226 44.435 12.087 46.1821 12.1295C47.9291 12.1719 49.5985 12.8894 50.8653 14.1423C51.5824 14.8358 52.1544 15.6758 52.5456 16.6098C52.9367 17.5437 53.1386 18.5516 53.1386 19.5704C53.1386 20.5893 52.9367 21.5972 52.5456 22.5311C52.1544 23.4651 51.5824 24.3051 50.8653 24.9986C52.6251 25.5768 54.1558 26.7363 55.2255 28.3014C56.2317 29.7354 56.773 31.4656 56.7708 33.2413C56.7708 34.4907 56.7708 35.74 56.7708 36.9893C56.7873 37.2358 56.7298 37.4815 56.6062 37.6925C56.4826 37.9034 56.299 38.0692 56.0809 38.1669C54.0143 39.2608 51.7996 40.021 49.5131 40.4214H49.044C48.8879 40.4639 48.7248 40.4703 48.5661 40.4401C48.4074 40.41 48.257 40.3439 48.1254 40.2467C47.9939 40.1495 47.8844 40.0235 47.8047 39.8775C47.725 39.7316 47.6771 39.5692 47.6642 39.4018C47.6488 39.0926 47.7497 38.7893 47.9454 38.5561C48.1411 38.323 48.4163 38.1782 48.7128 38.1525C50.227 37.9125 51.709 37.4883 53.1282 36.8888C54.3976 36.3431 54.4114 36.3575 54.4114 34.9645C54.4667 33.8828 54.3972 32.798 54.2044 31.7335C53.8955 30.3721 53.1564 29.1581 52.1057 28.2858C51.0549 27.4136 49.7533 26.9336 48.4093 26.9228C46.6431 26.9228 44.877 26.9228 43.1246 26.9228C42.3406 26.9382 41.5682 27.1222 40.8558 27.4632C40.1434 27.8043 39.5066 28.295 38.9852 28.9046C40.8291 30.341 42.1829 32.3539 42.8487 34.6486C43.1832 35.8716 43.3413 37.1396 43.3178 38.411C43.3178 39.847 43.3178 41.1968 43.3178 42.5898C43.3443 42.8583 43.2894 43.1287 43.1607 43.3631C43.032 43.5974 42.836 43.784 42.6003 43.8966C37.7126 46.5794 32.1782 47.7174 26.6774 47.1707C23.0069 46.8106 19.4372 45.7185 16.1633 43.954C15.929 43.8667 15.7256 43.7074 15.5802 43.4971C15.4348 43.2868 15.3543 43.0355 15.3492 42.7765C15.432 40.7804 15.2527 38.77 15.4458 36.7739C15.5678 35.2714 15.9861 33.8111 16.6746 32.4843C17.363 31.1575 18.3069 29.9927 19.4473 29.0625L19.6956 28.8328C18.8985 27.8326 17.772 27.1773 16.5359 26.9946C14.1146 26.6428 11.658 26.6428 9.23673 26.9946C7.85199 27.255 6.60001 28.0158 5.7014 29.1428C4.80279 30.2698 4.31522 31.6907 4.32465 33.1552C4.32465 34.0311 4.32465 34.9071 4.32465 35.7687C4.30823 35.9174 4.34191 36.0674 4.41992 36.1931C4.49793 36.3188 4.61543 36.4124 4.75238 36.458C6.39687 37.2317 8.13186 37.7772 9.91284 38.0807C10.6993 38.2099 11.1547 38.7125 11.0719 39.3587C11.0576 39.5246 11.0083 39.6851 10.9277 39.829C10.847 39.9728 10.737 40.0964 10.6053 40.191C10.4736 40.2855 10.3235 40.3488 10.1656 40.3762C10.0078 40.4036 9.84614 40.3945 9.69207 40.3496C7.2993 40.0026 4.98049 39.2354 2.83446 38.0807C2.68457 38.0224 2.55339 37.9215 2.45583 37.7895C2.35826 37.6575 2.29824 37.4997 2.28255 37.334C2.18341 35.5438 2.21568 33.7483 2.37912 31.9633C2.58982 30.4157 3.20981 28.9595 4.16984 27.7575C5.12986 26.5555 6.3921 25.655 7.81554 25.1565L8.17429 24.9842C6.96232 23.8269 6.17542 22.2665 5.9488 20.571C5.72219 18.8755 6.07 17.1508 6.93247 15.6932C7.70918 14.367 8.86529 13.327 10.2387 12.7192C11.612 12.1115 13.1337 11.9663 14.5904 12.3042C16.0598 12.6789 17.3806 13.5203 18.3697 14.7117C19.3587 15.9032 19.9668 17.3855 20.1096 18.953C20.1829 20.0762 20.0112 21.2021 19.6074 22.2466C19.2036 23.291 18.5781 24.2269 17.7777 24.9842C19.2252 25.4461 20.5295 26.2982 21.5583 27.4542C21.6687 27.5834 21.7377 27.7701 21.9999 27.6552C22.5932 27.4111 23.2003 27.1957 23.835 26.9516C22.6991 26.0208 21.7898 24.8246 21.1809 23.4599C20.572 22.0951 20.2806 20.6003 20.3303 19.0966ZM17.7777 39.33C17.7777 40.1342 17.7777 40.924 17.7777 41.7282C17.7551 41.887 17.7889 42.0489 17.8727 42.1837C17.9565 42.3185 18.0846 42.4169 18.233 42.4605C21.7452 44.2216 25.5936 45.1362 29.4922 45.1362C33.3908 45.1362 37.2392 44.2216 40.7514 42.4605C40.9108 42.4166 41.0493 42.3135 41.1408 42.1707C41.2323 42.0279 41.2704 41.8552 41.2481 41.6851C41.2481 40.3352 41.2481 38.9997 41.2481 37.6499C41.2065 35.5519 40.4449 33.5386 39.1011 31.9741C37.7573 30.4097 35.92 29.3972 33.9214 29.12C31.2362 28.8878 28.5381 28.8638 25.8495 29.0482C24.4264 29.1141 23.0436 29.5611 21.835 30.346C20.6264 31.1309 19.6329 32.2271 18.9505 33.5285C18.0081 35.2957 17.5993 37.3175 17.7777 39.33ZM29.506 12.3042C27.6895 12.348 25.9591 13.1186 24.6743 14.4557C23.3895 15.7928 22.6491 17.5938 22.607 19.4843C22.6457 21.3759 23.385 23.1789 24.6705 24.5168C25.956 25.8547 27.6884 26.6241 29.506 26.6644C31.3369 26.6426 33.0882 25.8817 34.3907 24.5423C35.6931 23.2028 36.445 21.3894 36.4878 19.4843C36.4447 17.5718 35.6871 15.752 34.3758 14.4114C33.0645 13.0708 31.3027 12.3149 29.4646 12.3042H29.506ZM50.8515 19.4843C50.8518 18.1443 50.348 16.8575 49.448 15.8993C48.5479 14.9411 47.3232 14.3877 46.036 14.3577C44.7256 14.3384 43.461 14.8589 42.5177 15.8057C41.5743 16.7525 41.0287 18.0489 40.9997 19.4125C40.9991 20.7528 41.5001 22.0407 42.3965 23.0031C43.2929 23.9655 44.5142 24.5267 45.8014 24.5678C46.4481 24.583 47.0914 24.4648 47.6939 24.2199C48.2965 23.975 48.8465 23.6084 49.3122 23.1411C49.7779 22.6738 50.15 22.1151 50.4071 21.4973C50.6642 20.8796 50.8012 20.2149 50.8101 19.5417L50.8515 19.4843ZM8.07771 19.4843C8.08864 20.8376 8.61477 22.1313 9.54075 23.0815C10.4667 24.0317 11.717 24.5611 13.0174 24.5534C14.3047 24.5385 15.5353 23.9996 16.4456 23.0522C17.356 22.1048 17.8737 20.8241 17.8881 19.4843C17.8845 18.1283 17.3662 16.8287 16.4462 15.8685C15.5262 14.9083 14.2789 14.3653 12.976 14.3577C11.6719 14.3766 10.4283 14.933 9.51786 15.9048C8.60738 16.8766 8.10436 18.1845 8.1191 19.5417L8.07771 19.4843Z" fill="#EF4D24"/>
</svg>
