<svg width="55" height="33" viewBox="0 0 55 33" fill="none" xmlns="http://www.w3.org/2000/svg">
<path d="M54.2731 30.3251L54.2504 30.351L54.2295 30.3842C54.0795 30.6226 53.8562 30.8057 53.5933 30.9062C53.3304 31.0068 53.042 31.0192 52.7714 30.9417L52.7614 30.9389L52.7513 30.9364C52.4674 30.8678 52.2134 30.709 52.0272 30.4838C51.8411 30.2587 51.7328 29.9792 51.7187 29.6873L51.7181 29.6746L51.7168 29.6621C51.6322 28.8099 51.2831 28.0056 50.7185 27.3619C50.1538 26.7182 49.4019 26.2675 48.5682 26.0728L48.5657 26.0723C48.1401 25.9752 47.7027 25.9407 47.2672 25.9697H44.0799C43.4573 25.9446 42.8358 26.0425 42.2509 26.2578L42.2509 26.2578L42.2484 26.2587C42.0713 26.3249 41.8821 26.3529 41.6934 26.3407C41.5047 26.3286 41.3206 26.2765 41.1535 26.188C40.9863 26.0995 40.8397 25.9766 40.7235 25.8273C40.6072 25.6781 40.5239 25.5058 40.479 25.3219L40.4765 25.3119L40.4737 25.3021C40.4202 25.1167 40.4059 24.9222 40.4316 24.731C40.4573 24.5397 40.5225 24.356 40.6231 24.1913C40.7236 24.0267 40.8572 23.8848 41.0155 23.7746C41.1738 23.6645 41.3532 23.5884 41.5424 23.5514L41.5424 23.5514L41.549 23.5501C43.8477 23.0679 46.213 22.9914 48.538 23.3241L48.5495 23.3258L48.5611 23.3269C49.9246 23.4576 51.2134 24.0104 52.2481 24.9084C53.2683 25.7937 53.9914 26.9712 54.32 28.2808C54.3216 28.3542 54.33 28.4715 54.3704 28.587C54.3977 28.665 54.4382 28.7402 54.4928 28.8074L54.4567 30.0801C54.4223 30.1135 54.3952 30.146 54.3743 30.1732C54.3401 30.2181 54.3096 30.2673 54.2946 30.2914C54.2927 30.2945 54.291 30.2973 54.2896 30.2995C54.2794 30.3157 54.2745 30.323 54.2731 30.3251Z" stroke="#EF4C23"/>
<path d="M27.5005 17.6855H27.4998C25.7528 17.6855 24.046 17.1794 22.5955 16.2326C21.1453 15.2859 20.0172 13.9417 19.3523 12.3715C18.6874 10.8015 18.5149 9.07495 18.856 7.40988C19.1972 5.74472 20.0371 4.21412 21.2714 3.01254C22.5058 1.81083 24.0792 0.992394 25.793 0.662643C27.5068 0.332883 29.2822 0.507038 30.8939 1.16257C32.5055 1.81807 33.8796 2.92482 34.8438 4.34088C35.8079 5.75679 36.3191 7.41881 36.3143 9.11657L36.3143 9.11729C36.3127 10.2423 36.0841 11.3564 35.6413 12.3959C35.1985 13.4354 34.5499 14.3804 33.732 15.1766C32.9141 15.9729 31.9429 16.6046 30.8735 17.0353C29.8042 17.466 28.658 17.687 27.5005 17.6855ZM27.544 3.18764V3.18761H27.5386H27.5038C25.9222 3.16272 24.3919 3.74608 23.2439 4.81523C22.0946 5.88556 21.4209 7.35715 21.3725 8.91249C21.3218 10.4892 21.915 12.0187 23.0178 13.165C24.1201 14.3109 25.641 14.98 27.2451 15.0292C28.8492 15.0784 30.4097 14.5037 31.583 13.428C32.7565 12.3522 33.4467 10.8629 33.4976 9.28659C33.5259 8.49992 33.3927 7.71591 33.1062 6.98079C32.8196 6.2454 32.3856 5.57419 31.8302 5.00637C31.2749 4.43857 30.6095 3.98559 29.8735 3.67349C29.1376 3.36141 28.3456 3.19632 27.544 3.18764Z" stroke="#EF4C23"/>
<path d="M9.00401 19.4587L9.00233 19.4587C7.64369 19.4407 6.32142 19.0172 5.20514 18.2425C4.08887 17.4678 3.2295 16.3773 2.73729 15.1109C2.24508 13.8445 2.14247 12.4599 2.44262 11.1347C2.74278 9.80957 3.43201 8.60432 4.4219 7.67357C5.41179 6.74283 6.6572 6.12905 7.99834 5.91097C9.33948 5.6929 10.7152 5.88047 11.949 6.44964C13.1828 7.0188 14.2184 7.9436 14.923 9.10538C15.6275 10.2672 15.9689 11.6129 15.9033 12.9701L15.9032 12.9717C15.8238 14.7383 15.0586 16.4042 13.7703 17.6155C12.482 18.8269 10.7721 19.4881 9.00401 19.4587ZM13.2 12.6656C13.2285 12.1172 13.1467 11.5686 12.9593 11.0523C12.7684 10.5267 12.4721 10.0456 12.0886 9.6387C11.7051 9.23176 11.2424 8.90753 10.729 8.68592C10.2156 8.4643 9.66234 8.34998 9.10315 8.34998C8.54396 8.34998 7.99067 8.4643 7.47727 8.68592C6.96387 8.90753 6.5012 9.23176 6.11768 9.6387C5.73415 10.0456 5.43787 10.5267 5.24704 11.0523C5.05958 11.5686 4.97775 12.1172 5.0063 12.6656C4.97775 13.2139 5.05958 13.7625 5.24704 14.2789C5.43787 14.8045 5.73415 15.2855 6.11768 15.6924C6.5012 16.0994 6.96387 16.4236 7.47727 16.6452C7.99067 16.8668 8.54396 16.9812 9.10315 16.9812C9.66234 16.9812 10.2156 16.8668 10.729 16.6452C11.2424 16.4236 11.7051 16.0994 12.0886 15.6924C12.4721 15.2855 12.7684 14.8045 12.9593 14.2789C13.1467 13.7625 13.2285 13.2139 13.2 12.6656Z" stroke="#EF4C23"/>
<path d="M50.0032 12.6158H50.0032L49.5032 12.6284H50.0032V12.6278V12.6158ZM39.0887 12.6175C39.0933 11.2705 39.4969 9.95495 40.2484 8.83701C41 7.71907 42.0658 6.84879 43.3115 6.33598C44.5571 5.82317 45.9267 5.69081 47.2475 5.95561C48.5683 6.22041 49.7811 6.8705 50.7328 7.82384C51.6845 8.77719 52.3325 9.99107 52.595 11.3123C52.8575 12.6336 52.7228 14.003 52.2078 15.2477C51.6929 16.4925 50.8207 17.5568 49.7015 18.3064C48.5823 19.056 47.2661 19.4573 45.919 19.4597C45.0206 19.4612 44.1307 19.2852 43.3006 18.9418C42.4704 18.5983 41.7163 18.0942 41.0816 17.4584C40.4468 16.8226 39.944 16.0676 39.602 15.2368C39.26 14.4061 39.0856 13.5159 39.0887 12.6175Z" stroke="#EF4C23"/>
<path d="M36.229 27.8941L36.2271 27.8908C35.7245 27.0352 35.0165 26.3103 34.1644 25.7757C33.3124 25.2412 32.3406 24.9121 31.3309 24.8151L31.3303 24.815C28.7554 24.5706 26.1617 24.5706 23.5867 24.815L23.5791 24.8158L23.5715 24.8167C22.1382 24.9972 20.8041 25.6281 19.7774 26.6152C18.7504 27.6026 18.0885 28.8914 17.899 30.2827L17.8961 30.304L17.895 30.3255C17.8811 30.6067 17.777 30.8792 17.5939 31.1053C17.4106 31.3317 17.1564 31.5009 16.8644 31.5863L16.8644 31.5861L16.8532 31.5897C16.6036 31.6691 16.3338 31.6717 16.0825 31.597C15.8313 31.5223 15.614 31.3751 15.4588 31.1794L15.453 31.1721L15.4469 31.165C15.3138 31.0094 15.2207 30.828 15.1733 30.6352C15.1259 30.4425 15.1252 30.2421 15.171 30.0491L15.1755 30.0304L15.1785 30.0114C15.517 27.8652 16.6408 25.9012 18.3537 24.474C20.0666 23.0469 22.2557 22.2513 24.5283 22.2339H24.5386H24.5507H24.5629H24.5751H24.5873H24.5994H24.6116H24.6238H24.636H24.6481H24.6603H24.6725H24.6847H24.6968H24.709H24.7212H24.7334H24.7455H24.7577H24.7699H24.7821H24.7943H24.8064H24.8186H24.8308H24.843H24.8551H24.8673H24.8795H24.8917H24.9038H24.916H24.9282H24.9404H24.9525H24.9647H24.9769H24.9891H25.0012H25.0134H25.0256H25.0378H25.0499H25.0621H25.0743H25.0865H25.0986H25.1108H25.123H25.1352H25.1473H25.1595H25.1717H25.1839H25.1961H25.2082H25.2204H25.2326H25.2448H25.2569H25.2691H25.2813H25.2935H25.3056H25.3178H25.33H25.3422H25.3543H25.3665H25.3787H25.3909H25.403H25.4152H25.4274H25.4396H25.4517H25.4639H25.4761H25.4883H25.5004H25.5126H25.5248H25.537H25.5491H25.5613H25.5735H25.5857H25.5978H25.61H25.6222H25.6344H25.6466H25.6587H25.6709H25.6831H25.6953H25.7074H25.7196H25.7318H25.744H25.7561H25.7683H25.7805H25.7927H25.8048H25.817H25.8292H25.8414H25.8535H25.8657H25.8779H25.8901H25.9022H25.9144H25.9266H25.9388H25.9509H25.9631H25.9753H25.9875H25.9997H26.0118H26.024H26.0362H26.0484H26.0605H26.0727H26.0849H26.0971H26.1092H26.1214H26.1336H26.1458H26.1579H26.1701H26.1823H26.1945H26.2066H26.2188H26.231H26.2432H26.2553H26.2675H26.2797H26.2919H26.304H26.3162H26.3284H26.3406H26.3527H26.3649H26.3771H26.3893H26.4014H26.4136H26.4258H26.438H26.4502H26.4623H26.4745H26.4867H26.4989H26.511H26.5232H26.5354H26.5476H26.5597H26.5719H26.5841H26.5963H26.6084H26.6206H26.6328H26.645H26.6571H26.6693H26.6815H26.6937H26.7058H26.718H26.7302H26.7424H26.7545H26.7667H26.7789H26.7911H26.8032H26.8154H26.8276H26.8398H26.852H26.8641H26.8763H26.8885H26.9007H26.9128H26.925H26.9372H26.9494H26.9615H26.9737H26.9859H26.9981H27.0102H27.0224H27.0346H27.0468H27.0589H27.0711H27.0833H27.0955H27.1076H27.1198H27.132H27.1442H27.1563H27.1685H27.1807H27.1929H27.205H27.2172H27.2294H27.2416H27.2538H27.2659H27.2781H27.2903H27.3025H27.3146H27.3268H27.339H27.3512H27.3633H27.3755H27.3877H27.3999H27.412H27.4242H27.4364H27.4486H27.4607H27.4729H27.4851H27.4973H27.5094H27.5216H27.5338H27.546H27.5581H27.5703H27.5825H27.5947H27.6068H27.619H27.6312H27.6434H27.6556H27.6677H27.6799H27.6921H27.7043H27.7164H27.7286H27.7408H27.753H27.7651H27.7773H27.7895H27.8017H27.8138H27.826H27.8382H27.8504H27.8625H27.8747H27.8869H27.8991H27.9112H27.9234H27.9356H27.9478H27.9599H27.9721H27.9843H27.9965H28.0086H28.0208H28.033H28.0452H28.0574H28.0695H28.0817H28.0939H28.1061H28.1182H28.1304H28.1426H28.1548H28.1669H28.1791H28.1913H28.2035H28.2156H28.2278H28.24H28.2522H28.2643H28.2765H28.2887H28.3009H28.313H28.3252H28.3374H28.3496H28.3617H28.3739H28.3861H28.3983H28.4104H28.4226H28.4348H28.447H28.4592H28.4713H28.4835H28.4957H28.5079H28.52H28.5322H28.5444H28.5566H28.5687H28.5809H28.5931H28.6053H28.6174H28.6296H28.6418H28.654H28.6661H28.6783H28.6905H28.7027H28.7148H28.727H28.7392H28.7514H28.7635H28.7757H28.7879H28.8001H28.8122H28.8244H28.8366H28.8488H28.861H28.8731H28.8853H28.8975H28.9097H28.9218H28.934H28.9462H28.9584H28.9705H28.9827H28.9949H29.0071H29.0192H29.0314H29.0436H29.0558H29.0679H29.0801H29.0923H29.1045H29.1166H29.1288H29.141H29.1532H29.1653H29.1775H29.1897H29.2019H29.214H29.2262H29.2384H29.2506H29.2628H29.2749H29.2871H29.2993H29.3115H29.3236H29.3358H29.348H29.3602H29.3723H29.3845H29.3967H29.4089H29.421H29.4332H29.4454H29.4576H29.4697H29.4819H29.4941H29.5063H29.5184H29.5306H29.5428H29.555H29.5671H29.5793H29.5915H29.6037H29.6158H29.628H29.6402H29.6524H29.6645H29.6767H29.6889H29.7011H29.7133H29.7254H29.7376H29.7498H29.762H29.7741H29.7863H29.7985H29.8107H29.8228H29.835H29.8472H29.8594H29.8715H29.8837H29.8959H29.9081H29.9202H29.9324H29.9446H29.9568H29.9689H29.9811H29.9933H30.0055H30.0176H30.0298H30.042H30.0542H30.0663H30.0785H30.0907H30.1029H30.1151H30.1272H30.1394H30.1516H30.1638H30.1759H30.1881H30.2003H30.2125H30.2246H30.2368H30.249H30.2612H30.2733H30.2855H30.2977H30.3099H30.322H30.3342H30.3464H30.3586H30.3707H30.3829H30.3951H30.4073H30.4194H30.4316H30.4438H30.456H30.4682H30.4803H30.4925H30.5047H30.5169H30.529H30.5412H30.5534H30.5656H30.5777H30.5899H30.6021H30.6143H30.6264H30.6386H30.6508H30.663H30.6751H30.6873H30.6995H30.7117H30.7238H30.736H30.7482H30.7522C33.0746 22.311 35.2838 23.2045 36.9617 24.7406C38.6394 26.2764 39.6689 28.3469 39.8612 30.5578C39.8778 30.8583 39.7806 31.1571 39.5831 31.3985C39.3856 31.6399 39.1003 31.8079 38.778 31.8663C38.4181 31.9142 38.0544 31.826 37.764 31.6237C37.475 31.4224 37.283 31.1257 37.2206 30.7987C37.0843 29.778 36.7476 28.7923 36.229 27.8941Z" stroke="#EF4C23"/>
<path d="M8.84326 23.1576L8.87777 23.1601L8.91229 23.1578C10.4419 23.0558 11.9782 23.1661 13.4784 23.4857C13.6651 23.5304 13.8413 23.613 13.9964 23.7289C14.1529 23.8457 14.2847 23.994 14.3834 24.165C14.4822 24.336 14.5456 24.5259 14.5697 24.7231C14.5937 24.9197 14.5781 25.1192 14.5237 25.3093C14.4723 25.4828 14.3872 25.6437 14.2737 25.7826C14.1599 25.9219 14.02 26.0363 13.8625 26.1192C13.7051 26.202 13.5331 26.2518 13.3567 26.2659C13.1804 26.2799 13.003 26.2579 12.835 26.2011L12.8349 26.2011C12.0955 25.9512 11.3161 25.8449 10.5376 25.8879H7.63571C6.56667 25.8147 5.51217 26.1662 4.69582 26.8666C3.87492 27.5709 3.3603 28.5716 3.26004 29.6536L3.25924 29.6622L3.25874 29.6708C3.24582 29.894 3.18075 30.1106 3.06927 30.3026C2.95782 30.4945 2.80331 30.6562 2.619 30.7748C2.43472 30.8934 2.22573 30.9656 2.00929 30.986C1.79285 31.0063 1.5746 30.9743 1.37239 30.8923L1.36273 30.8884L1.35291 30.8849C1.0993 30.7941 0.879403 30.6237 0.725743 30.3969C0.573496 30.1722 0.494377 29.904 0.500311 29.6303C0.585182 28.286 1.05434 26.9963 1.84984 25.9186C2.64354 24.8434 3.72757 24.0259 4.96944 23.5644C6.22762 23.2017 7.5385 23.064 8.84326 23.1576Z" stroke="#EF4C23"/>
</svg>
