<svg width="54" height="32" viewBox="0 0 54 32" fill="none" xmlns="http://www.w3.org/2000/svg">
<path d="M52.9666 29.2023C52.8074 29.2023 52.7706 29.3615 52.6849 29.4595C52.4871 29.7737 52.1926 30.0152 51.8459 30.1477C51.4991 30.2802 51.1186 30.2966 50.7617 30.1945C50.3913 30.1049 50.0598 29.8978 49.8169 29.6041C49.574 29.3104 49.4327 28.946 49.4143 28.5653C49.3435 27.8528 49.0515 27.1802 48.5792 26.642C48.1069 26.1038 47.478 25.727 46.7807 25.5642C46.4154 25.481 46.0398 25.4521 45.666 25.4785H42.6037C42.07 25.4558 41.5371 25.539 41.0358 25.7235C40.804 25.8102 40.5565 25.8467 40.3095 25.8308C40.0626 25.8149 39.8218 25.7468 39.6031 25.6311C39.3843 25.5153 39.1926 25.3546 39.0405 25.1594C38.8884 24.9642 38.7794 24.7389 38.7207 24.4986C38.6515 24.2586 38.6329 24.0069 38.6662 23.7594C38.6995 23.5119 38.784 23.274 38.9141 23.0609C39.0443 22.8478 39.2174 22.6641 39.4224 22.5215C39.6274 22.3788 39.8598 22.2804 40.1048 22.2324C42.3489 21.7619 44.6579 21.6873 46.9277 22.0119C48.3252 22.1459 49.6461 22.7123 50.7065 23.6322C51.767 24.5521 52.5142 25.7798 52.8441 27.1444C52.8441 27.2669 52.8441 27.4261 53.0156 27.4751L52.9666 29.2023Z" fill="#EF4D24"/>
<path d="M26.5326 17.639C24.7872 17.639 23.0811 17.1211 21.6302 16.1509C20.1793 15.1807 19.0489 13.8019 18.3821 12.1889C17.7153 10.5759 17.5421 8.80134 17.8844 7.08986C18.2267 5.37839 19.0691 3.80695 20.305 2.5745C21.5409 1.34206 23.1146 0.504022 24.8271 0.166491C26.5395 -0.171039 28.3136 0.00711555 29.9247 0.6784C31.5358 1.34968 32.9115 2.48391 33.8777 3.93749C34.8438 5.39106 35.3569 7.09862 35.3521 8.84399C35.3505 10.0006 35.1211 11.1455 34.677 12.2134C34.2329 13.2814 33.5828 14.2514 32.7638 15.0681C31.9449 15.8848 30.9731 16.5321 29.9039 16.9733C28.8348 17.4144 27.6892 17.6406 26.5326 17.639ZM26.5326 3.5768C25.1545 3.55362 23.8228 4.07405 22.8255 5.02543C21.8283 5.97681 21.2458 7.28262 21.2042 8.66025C21.1603 10.0572 21.6732 11.4143 22.6299 12.4332C23.5867 13.452 24.909 14.0489 26.306 14.0928C27.7029 14.1367 29.0601 13.6238 30.0789 12.667C31.0977 11.7102 31.6947 10.3879 31.7385 8.99098C31.7631 8.29393 31.648 7.59901 31.4 6.94711C31.152 6.29521 30.7761 5.69949 30.2944 5.19502C29.8128 4.69054 29.2351 4.28749 28.5954 4.00959C27.9556 3.73168 27.2668 3.58453 26.5693 3.5768H26.5326Z" fill="#EF4D24"/>
<path d="M8.74662 19.4275C7.33343 19.4087 5.95806 18.9682 4.79696 18.1624C3.63586 17.3566 2.74199 16.2223 2.23001 14.905C1.71803 13.5877 1.6113 12.1474 1.92351 10.769C2.23572 9.39061 2.95263 8.13692 3.98227 7.16878C5.01191 6.20064 6.30732 5.5622 7.70231 5.33536C9.0973 5.10852 10.5283 5.30364 11.8116 5.89567C13.0949 6.4877 14.1721 7.44966 14.905 8.65812C15.6378 9.86658 15.9929 11.2664 15.9247 12.6781C15.8421 14.5161 15.046 16.2494 13.7056 17.5097C12.3652 18.77 10.5862 19.458 8.74662 19.4275ZM12.3357 12.3596C12.3638 11.8846 12.2946 11.4088 12.1322 10.9615C11.9698 10.5142 11.7177 10.1049 11.3913 9.75857C11.0649 9.41227 10.6712 9.13635 10.2343 8.94776C9.79743 8.75916 9.3266 8.66188 8.85074 8.66188C8.37488 8.66188 7.90404 8.75916 7.46715 8.94776C7.03026 9.13635 6.63654 9.41227 6.31017 9.75857C5.98379 10.1049 5.73167 10.5142 5.56927 10.9615C5.40688 11.4088 5.33764 11.8846 5.36581 12.3596C5.33764 12.8346 5.40688 13.3104 5.56927 13.7577C5.73167 14.205 5.98379 14.6144 6.31017 14.9607C6.63654 15.307 7.03026 15.5829 7.46715 15.7715C7.90404 15.9601 8.37488 16.0574 8.85074 16.0574C9.3266 16.0574 9.79743 15.9601 10.2343 15.7715C10.6712 15.5829 11.0649 15.307 11.3913 14.9607C11.7177 14.6144 11.9698 14.205 12.1322 13.7577C12.2946 13.3104 12.3638 12.8346 12.3357 12.3596Z" fill="#EF4D24"/>
<path d="M37.0793 12.3229C37.0841 10.9242 37.5032 9.55822 38.2835 8.3974C39.0639 7.23658 40.1706 6.33291 41.464 5.80043C42.7575 5.26795 44.1796 5.13052 45.5511 5.40548C46.9225 5.68043 48.1818 6.35546 49.17 7.34537C50.1582 8.33528 50.8311 9.59572 51.1036 10.9676C51.3762 12.3396 51.2364 13.7615 50.7016 15.054C50.1669 16.3465 49.2614 17.4517 48.0992 18.23C46.937 19.0084 45.5703 19.4251 44.1716 19.4275C43.2387 19.4291 42.3147 19.2464 41.4527 18.8898C40.5907 18.5331 39.8077 18.0097 39.1486 17.3495C38.4895 16.6893 37.9674 15.9053 37.6123 15.0427C37.2572 14.1801 37.076 13.2558 37.0793 12.3229ZM47.6382 12.3229C47.6285 11.6346 47.4156 10.9645 47.0261 10.3969C46.6367 9.82931 46.0882 9.38949 45.4495 9.13276C44.8108 8.87602 44.1104 8.81384 43.4365 8.95403C42.7626 9.09421 42.1451 9.43051 41.6618 9.92063C41.1784 10.4108 40.8508 11.0328 40.72 11.7087C40.5892 12.3845 40.6611 13.0839 40.9267 13.719C41.1924 14.354 41.6398 14.8964 42.2128 15.2778C42.7858 15.6593 43.4587 15.8629 44.1471 15.863C45.0774 15.8565 45.9671 15.4816 46.6215 14.8203C47.2758 14.1591 47.6414 13.2654 47.6382 12.3352V12.3229Z" fill="#EF4D24"/>
<path d="M38.8554 29.5821C38.8803 30.012 38.747 30.4361 38.4808 30.7746C38.2145 31.113 37.8336 31.3424 37.41 31.4194C36.9432 31.487 36.4684 31.37 36.0865 31.0933C35.7045 30.8166 35.4455 30.4019 35.3643 29.9373C35.2428 28.9781 34.9393 28.051 34.4701 27.2057C34.027 26.4211 33.4018 25.7545 32.6471 25.262C31.8925 24.7696 31.0305 24.4658 30.1339 24.3761C27.69 24.1348 25.2282 24.1348 22.7843 24.3761C21.5077 24.5433 20.3221 25.1276 19.4117 26.038C18.5013 26.9484 17.9171 28.134 17.7498 29.4106C17.7313 29.7992 17.5931 30.1726 17.354 30.4796C17.115 30.7866 16.7869 31.0122 16.4147 31.1255C16.083 31.2352 15.7254 31.2388 15.3916 31.1356C15.0578 31.0324 14.7646 30.8276 14.5528 30.5497C14.3767 30.3358 14.252 30.0843 14.1883 29.8146C14.1246 29.5449 14.1236 29.2642 14.1853 28.9941C14.5291 26.7266 15.6701 24.6559 17.4033 23.1539C19.1365 21.652 21.3484 20.8171 23.6418 20.7993C25.6384 20.7993 27.635 20.7993 29.6317 20.7993C31.9783 20.8784 34.2142 21.8166 35.9146 23.4357C37.615 25.0548 38.6615 27.2421 38.8554 29.5821Z" fill="#EF4D24"/>
<path d="M8.45267 21.963C9.95462 21.8641 11.463 21.9713 12.9359 22.2815C13.1791 22.3381 13.4082 22.4437 13.6092 22.5918C13.8102 22.74 13.9789 22.9275 14.105 23.143C14.2311 23.3586 14.3119 23.5975 14.3426 23.8453C14.3733 24.0931 14.3531 24.3446 14.2833 24.5843C14.2166 24.8076 14.1056 25.0151 13.957 25.1947C13.8085 25.3742 13.6254 25.5221 13.4186 25.6295C13.2118 25.7369 12.9855 25.8016 12.7532 25.8199C12.5209 25.8381 12.2873 25.8095 12.0662 25.7358C11.4157 25.5187 10.7298 25.4273 10.0451 25.4663H7.25224C6.35455 25.4015 5.46718 25.6909 4.78028 26.2724C4.09338 26.854 3.6616 27.6815 3.57746 28.5776C3.56087 28.8605 3.47726 29.1355 3.33354 29.3798C3.18981 29.6241 2.99008 29.8307 2.75081 29.9826C2.51154 30.1346 2.23958 30.2275 1.95736 30.2536C1.67514 30.2798 1.39074 30.2386 1.1276 30.1332C0.790224 30.0141 0.499345 29.791 0.296834 29.4961C0.0943225 29.2011 -0.0093756 28.8495 0.000666214 28.4918C0.0856334 27.136 0.564318 25.8343 1.37805 24.7464C2.19179 23.6585 3.30522 22.8317 4.5819 22.3672C5.83866 22.0075 7.14871 21.8707 8.45267 21.963Z" fill="#EF4D24"/>
</svg>
