<svg width="56" height="52" viewBox="0 0 56 52" fill="none" xmlns="http://www.w3.org/2000/svg">
<path d="M55.9063 28.3697C55.7351 28.5739 55.5151 28.7315 55.2666 28.8279C55.0182 28.9243 54.7494 28.9563 54.4853 28.9209C53.1869 28.9209 51.8762 28.9209 50.5656 28.9209C49.8184 28.9209 49.3406 28.5657 49.3406 27.9777C49.3406 27.3897 49.7816 27.0468 50.5656 27.0468C51.9007 27.0468 53.2482 27.0468 54.5833 27.0468C54.833 27.015 55.0865 27.0532 55.3158 27.157C55.545 27.2608 55.7409 27.4262 55.8818 27.6347L55.9063 28.3697Z" fill="#EF4D24"/>
<path d="M11.2453 36.1847C9.38236 32.397 8.85986 28.0893 9.76326 23.9662C10.6667 19.843 12.9425 16.1484 16.2185 13.4868C19.3952 10.9147 23.3292 9.45799 27.4149 9.34069C31.5006 9.22339 35.5116 10.452 38.8307 12.8375C42.3908 15.4237 44.9288 19.1787 46.0013 23.4463C47.0738 27.7139 46.6125 32.2227 44.6981 36.1847C46.1435 36.4909 47.6012 36.6747 49.0588 36.8461C50.5165 37.0176 52.1334 37.1524 53.6768 37.2014C53.9899 37.1896 54.2978 37.2835 54.5511 37.4679C54.8044 37.6523 54.9883 37.9165 55.0732 38.2181C55.1898 38.509 55.2023 38.8313 55.1086 39.1305C55.0148 39.4296 54.8206 39.6871 54.5588 39.8595C53.3338 40.8517 52.1947 41.8561 50.9942 42.8238C50.9104 42.8686 50.8363 42.9298 50.7765 43.0037C50.7167 43.0776 50.6724 43.1628 50.6461 43.2542C50.6198 43.3456 50.6122 43.4413 50.6236 43.5357C50.635 43.6301 50.6652 43.7212 50.7125 43.8037C51.4107 45.5799 52.0722 47.3805 52.7336 49.1812C52.8649 49.4299 52.9201 49.7118 52.8923 49.9916C52.8646 50.2715 52.7551 50.537 52.5775 50.7551C52.3999 50.9732 52.162 51.1342 51.8935 51.2181C51.6251 51.302 51.3379 51.305 51.0677 51.2268C46.3654 50.5608 41.7544 49.3608 37.324 47.65C36.0991 47.1478 34.8742 46.5966 33.5758 46.0576C33.3582 45.978 33.1195 45.978 32.902 46.0576C29.6502 46.9765 26.2074 46.9765 22.9556 46.0576C22.8663 46.0205 22.7706 46.0015 22.6739 46.0015C22.5772 46.0015 22.4815 46.0205 22.3922 46.0576C17.8463 48.1773 13.0579 49.7323 8.13398 50.6878C7.03155 50.9083 5.91686 51.0921 4.80217 51.2513C4.53514 51.3237 4.25277 51.3166 3.98973 51.2308C3.72668 51.145 3.49441 50.9843 3.32141 50.7684C3.14842 50.5524 3.04222 50.2907 3.01585 50.0153C2.98949 49.7399 3.04412 49.4627 3.17302 49.2179C3.84673 47.405 4.52045 45.5431 5.21866 43.7792C5.26311 43.7088 5.29301 43.6301 5.30661 43.5479C5.3202 43.4657 5.3172 43.3815 5.29779 43.3005C5.27839 43.2195 5.24296 43.1431 5.19361 43.076C5.14425 43.0088 5.08197 42.9522 5.01041 42.9095C3.85898 42.0031 2.74429 41.0354 1.60511 40.0922C0.833405 39.4552 0.625166 38.953 0.857903 38.2916C1.09064 37.6301 1.59286 37.3484 2.60955 37.2994C5.5111 37.1349 8.3971 36.7624 11.2453 36.1847ZM44.6981 27.9042C44.6933 25.7064 44.2552 23.5311 43.409 21.5027C42.5627 19.4744 41.3248 17.6327 39.7662 16.0832C38.2076 14.5337 36.3588 13.3066 34.3255 12.4723C32.2922 11.6379 30.1144 11.2126 27.9166 11.2206C23.481 11.2271 19.2294 12.9946 16.0964 16.1345C12.9634 19.2744 11.2053 23.5298 11.2086 27.9654C11.2085 32.413 12.9728 36.679 16.1143 39.8274C19.2558 42.9758 23.518 44.7494 27.9656 44.7592C32.4121 44.7462 36.6716 42.9691 39.8089 39.818C42.9462 36.667 44.7046 32.3997 44.6981 27.9532V27.9042ZM3.4425 39.0388L6.50482 41.5866C6.5791 41.6476 6.66597 41.6912 6.75917 41.7145C6.85237 41.7378 6.94959 41.7402 7.0438 41.7214C8.42407 41.5408 9.79382 41.2873 11.1473 40.9619C11.2784 40.9063 11.4199 40.8795 11.5622 40.8834C11.7046 40.8873 11.8444 40.9218 11.9723 40.9845C12.1001 41.0473 12.2129 41.1368 12.3031 41.2471C12.3932 41.3573 12.4586 41.4856 12.4947 41.6234C12.6172 42.1623 12.2742 42.6156 11.6128 42.8483C10.3353 43.199 9.03316 43.4528 7.7175 43.6077C7.55097 43.6142 7.39121 43.6753 7.26282 43.7816C7.13443 43.8878 7.04456 44.0333 7.00705 44.1957C6.48033 45.6901 5.89236 47.1723 5.34115 48.6667C5.34115 48.8382 5.12065 49.0097 5.2309 49.2424C10.3324 48.463 15.3133 47.0346 20.0525 44.9919L19.9668 44.8817C16.8673 43.3891 14.2394 41.0707 12.3722 38.1813C12.3303 38.1028 12.2605 38.043 12.1766 38.0135C12.0927 37.984 12.0008 37.9871 11.919 38.0221C9.11871 38.5551 6.2876 38.911 3.4425 39.0878V39.0388ZM50.737 49.1444C50.1 47.4295 49.5121 45.8249 48.9119 44.2447C48.861 44.0322 48.7379 43.844 48.5636 43.7122C48.3893 43.5804 48.1747 43.5132 47.9564 43.522C46.6575 43.357 45.3722 43.0991 44.1101 42.7503C43.9034 42.7111 43.7164 42.6021 43.5804 42.4416C43.4444 42.281 43.3677 42.0787 43.3629 41.8683C43.3447 41.6859 43.3847 41.5023 43.4771 41.3439C43.5695 41.1855 43.7096 41.0604 43.8774 40.9864C44.1526 40.876 44.4597 40.876 44.7348 40.9864C46.1009 41.3417 47.4878 41.6117 48.8874 41.7949C48.9643 41.8178 49.0455 41.822 49.1244 41.8071C49.2032 41.7922 49.2774 41.7586 49.3406 41.7091L52.3906 39.1735C52.3294 39.1735 52.3049 39.1 52.2682 39.1C49.5872 38.9372 46.9194 38.6017 44.2816 38.0956C44.0909 38.0356 43.8849 38.0473 43.7022 38.1285C43.5195 38.2097 43.3727 38.3548 43.2894 38.5365C41.5148 41.1471 39.0975 43.2565 36.2706 44.6612C36.1113 44.7469 35.9154 44.7714 35.8174 44.9552C40.5892 46.9993 45.6032 48.4236 50.737 49.1934V49.1444Z" fill="#EF4D24"/>
<path d="M26.9979 3.27081C26.9979 2.56035 26.9979 1.84989 26.9979 1.13943C26.9979 0.428974 27.4021 -0.0120005 27.9656 0.000248752C28.5291 0.012498 28.9088 0.453472 28.9088 1.22518C28.9088 2.63385 28.9088 4.05476 28.9088 5.47568C28.9088 6.18614 28.5413 6.60261 27.9411 6.60261C27.3409 6.60261 26.9979 6.18614 26.9979 5.45118C26.9979 4.71622 26.9979 3.96902 26.9979 3.27081Z" fill="#EF4D24"/>
<path d="M48.0422 8.83199C48.0247 9.11407 47.8971 9.37801 47.687 9.56695C46.6703 10.6326 45.5678 11.6861 44.4899 12.764C44.4056 12.8646 44.3016 12.9467 44.1842 13.0053C44.0669 13.0639 43.9387 13.0977 43.8077 13.1046C43.6767 13.1115 43.5456 13.0914 43.4228 13.0454C43.2999 12.9994 43.1878 12.9287 43.0935 12.8375C42.9963 12.7469 42.9199 12.6363 42.8695 12.5133C42.8192 12.3904 42.7962 12.2579 42.802 12.1252C42.8078 11.9924 42.8424 11.8625 42.9033 11.7444C42.9642 11.6263 43.05 11.5228 43.1547 11.4411C44.2204 10.3509 45.3106 9.23622 46.3885 8.20728C46.5219 8.05363 46.7026 7.94862 46.9021 7.90871C47.1016 7.86881 47.3087 7.89627 47.491 7.98679C47.6534 8.06101 47.7915 8.17985 47.8891 8.32948C47.9867 8.47911 48.0398 8.65337 48.0422 8.83199Z" fill="#EF4D24"/>
<path d="M13.0827 12.1638C13.0731 12.3471 13.0116 12.5239 12.9053 12.6736C12.799 12.8232 12.6524 12.9396 12.4825 13.009C12.3079 13.0868 12.1131 13.1073 11.9261 13.0677C11.7391 13.0281 11.5694 12.9304 11.4413 12.7886L8.7832 10.1305C8.57496 9.92222 8.35448 9.72623 8.17074 9.50574C8.08217 9.42111 8.01168 9.31941 7.96352 9.20677C7.91536 9.09414 7.89053 8.97291 7.89053 8.85041C7.89053 8.72791 7.91536 8.60668 7.96352 8.49404C8.01168 8.38141 8.08217 8.2797 8.17074 8.19507C8.33657 8.03918 8.5556 7.95239 8.7832 7.95239C9.0108 7.95239 9.22984 8.03918 9.39567 8.19507C10.5349 9.29751 11.6373 10.4122 12.752 11.5391C12.938 11.6974 13.0564 11.921 13.0827 12.1638Z" fill="#EF4D24"/>
<path d="M3.2465 28.9086C2.51154 28.9086 1.76434 28.9086 1.01713 28.9086C0.885775 28.9208 0.753322 28.9049 0.628554 28.8621C0.503787 28.8192 0.389549 28.7503 0.293417 28.66C0.197284 28.5697 0.121449 28.4599 0.0709385 28.338C0.0204282 28.2162 -0.00360179 28.085 0.000436307 27.9531C-0.00207498 27.8259 0.0225685 27.6997 0.0727328 27.5828C0.122897 27.4659 0.197424 27.3611 0.291333 27.2753C0.385241 27.1895 0.496377 27.1247 0.617312 27.0853C0.738246 27.0459 0.866196 27.0327 0.992626 27.0467H5.56161C5.6894 27.0381 5.81757 27.0563 5.9379 27.1002C6.05823 27.144 6.16805 27.2126 6.26033 27.3014C6.3526 27.3902 6.42529 27.4973 6.47372 27.6159C6.52215 27.7345 6.54526 27.8618 6.54155 27.9899C6.52884 28.2444 6.41623 28.4837 6.22817 28.6557C6.04011 28.8277 5.79178 28.9186 5.53711 28.9086C4.77765 28.9208 4.0182 28.9086 3.2465 28.9086Z" fill="#EF4D24"/>
<path d="M37.7405 2.92786C38.5857 2.92786 39.0634 3.54032 38.8307 4.15279C38.4877 5.05923 38.108 5.95343 37.7038 6.84763C37.6586 6.96218 37.5892 7.06565 37.5005 7.151C37.4117 7.23636 37.3056 7.30159 37.1894 7.34227C37.0732 7.38295 36.9495 7.39812 36.8269 7.38674C36.7043 7.37537 36.5856 7.33772 36.4788 7.27635C36.3604 7.23543 36.2521 7.16977 36.1611 7.08373C36.0701 6.9977 35.9984 6.89326 35.9509 6.77737C35.9034 6.66148 35.8811 6.5368 35.8856 6.41163C35.89 6.28646 35.921 6.16367 35.9766 6.05142C36.3073 5.19397 36.6626 4.34877 37.0178 3.50357C37.0777 3.35301 37.1759 3.2207 37.3027 3.11972C37.4294 3.01875 37.5803 2.95262 37.7405 2.92786Z" fill="#EF4D24"/>
<path d="M18.9869 7.39877C18.8078 7.38429 18.6365 7.31896 18.4933 7.21045C18.3501 7.10195 18.2408 6.9548 18.1784 6.78631C17.8109 5.92886 17.4435 5.05916 17.1005 4.18946C17.0506 4.07636 17.024 3.95437 17.0224 3.83077C17.0208 3.70717 17.0441 3.58452 17.091 3.47015C17.1379 3.35578 17.2074 3.25205 17.2953 3.16517C17.3832 3.07829 17.4878 3.01005 17.6027 2.96453C17.7153 2.91094 17.8378 2.88147 17.9624 2.87803C18.087 2.87458 18.211 2.89723 18.3263 2.94453C18.4417 2.99182 18.5459 3.06271 18.6322 3.15264C18.7185 3.24257 18.7851 3.34957 18.8276 3.46675C19.2196 4.33645 19.5993 5.2184 19.9301 6.11259C19.9884 6.26077 20.0082 6.42128 19.9877 6.57918C19.9672 6.73708 19.9071 6.88722 19.8129 7.01562C19.7188 7.14402 19.5937 7.24649 19.4492 7.31348C19.3048 7.38048 19.1457 7.40982 18.9869 7.39877Z" fill="#EF4D24"/>
<path d="M52.9909 17.9945C52.9916 18.1851 52.9331 18.3712 52.8233 18.527C52.7136 18.6828 52.5581 18.8007 52.3784 18.8642C51.5455 19.2194 50.7125 19.5747 49.9286 19.9054C49.6994 19.9993 49.4424 19.9993 49.2132 19.9053C48.984 19.8113 48.801 19.631 48.7036 19.4032C48.657 19.286 48.6347 19.1606 48.638 19.0346C48.6413 18.9086 48.6702 18.7845 48.7229 18.67C48.7756 18.5554 48.851 18.4528 48.9445 18.3682C49.0381 18.2837 49.1478 18.2191 49.2671 18.1782C50.1246 17.7985 50.9943 17.4433 51.864 17.1126C51.9979 17.079 52.1376 17.0764 52.2727 17.1051C52.4077 17.1337 52.5344 17.1929 52.6431 17.2779C52.7518 17.363 52.8397 17.4718 52.8999 17.596C52.9602 17.7202 52.9913 17.8565 52.9909 17.9945Z" fill="#EF4D24"/>
<path d="M6.2476 19.9789C6.18635 19.9789 6.06386 19.9789 5.95362 19.8931C5.13292 19.5501 4.31222 19.2194 3.50376 18.8642C3.38551 18.8219 3.27688 18.7564 3.18427 18.6716C3.09165 18.5868 3.01691 18.4843 2.96443 18.3702C2.91194 18.2561 2.88277 18.1327 2.87863 18.0072C2.87448 17.8816 2.89545 17.7566 2.9403 17.6392C3.04232 17.4157 3.22651 17.2401 3.45462 17.1489C3.68272 17.0577 3.93721 17.0578 4.16523 17.1493C5.02268 17.4923 5.86787 17.8475 6.71307 18.215C6.92774 18.3 7.10118 18.4648 7.19707 18.6749C7.29297 18.885 7.30389 19.124 7.22755 19.3419C7.16351 19.5453 7.03072 19.7201 6.85192 19.8363C6.67313 19.9525 6.45948 20.0029 6.2476 19.9789Z" fill="#EF4D24"/>
<path d="M18.9501 39.0388C19.2441 37.3361 19.5258 35.6212 19.8198 33.9063C20.0035 32.8161 20.175 31.7137 20.3833 30.6358C20.3833 30.3418 20.273 30.2438 20.126 30.0968C18.2396 28.2186 16.3492 26.3485 14.4546 24.4866C14.262 24.3544 14.1158 24.165 14.0367 23.9452C13.9576 23.7254 13.9495 23.4863 14.0136 23.2617C14.1729 22.7717 14.6016 22.6492 15.0426 22.5757L22.7474 21.461C22.9142 21.4547 23.0756 21.4005 23.2125 21.305C23.3493 21.2094 23.4557 21.0765 23.5191 20.9221C24.646 18.5702 25.8097 16.2306 26.9366 13.8787C27.1571 13.4255 27.4144 13.0458 27.9656 13.058C28.5168 13.0703 28.7495 13.4255 28.9578 13.8542C30.097 16.2306 31.2606 18.5825 32.3998 20.9466C32.4523 21.0871 32.5433 21.2099 32.6625 21.3009C32.7817 21.3919 32.9242 21.4474 33.0735 21.461L40.8396 22.5757C41.3051 22.6492 41.746 22.7717 41.893 23.2862C42.04 23.8007 41.7583 24.1436 41.4275 24.5111L35.7929 30.06C35.6905 30.1413 35.6141 30.2506 35.5727 30.3746C35.5314 30.4985 35.527 30.6318 35.5601 30.7582C36.0256 33.3673 36.4543 35.9887 36.8831 38.5978C36.9419 38.7698 36.9647 38.9522 36.95 39.1334C36.9352 39.3147 36.8832 39.491 36.7973 39.6512C36.722 39.7601 36.6252 39.8523 36.5129 39.9222C36.4006 39.9921 36.2751 40.0383 36.1442 40.0578C36.0133 40.0773 35.8798 40.0698 35.752 40.0357C35.6241 40.0016 35.5047 39.9416 35.4009 39.8595C33.0858 38.6345 30.7584 37.4096 28.4556 36.1847C28.3093 36.0851 28.1364 36.0319 27.9595 36.0319C27.7825 36.0319 27.6097 36.0851 27.4634 36.1847C25.136 37.4096 22.7964 38.6345 20.469 39.9207C20.3079 40.0232 20.121 40.0776 19.93 40.0776C19.7391 40.0776 19.5522 40.0232 19.3911 39.9207C19.2414 39.8308 19.1203 39.7001 19.0422 39.5439C18.9641 39.3877 18.9322 39.2125 18.9501 39.0388ZM21.155 37.4096C23.2863 36.2827 25.2952 35.217 27.2796 34.1268C27.4729 34.0076 27.6956 33.9444 27.9227 33.9444C28.1498 33.9444 28.3725 34.0076 28.5658 34.1268C29.3742 34.58 30.195 35.0087 31.0157 35.4375L34.6904 37.3974C34.6968 37.2872 34.6968 37.1768 34.6904 37.0666C34.323 34.8863 33.98 32.7059 33.5635 30.5255C33.5077 30.2802 33.5192 30.0243 33.5968 29.785C33.6745 29.5456 33.8153 29.3317 34.0045 29.1658C35.5234 27.6959 37.0178 26.2015 38.5122 24.7193C38.647 24.5846 38.8552 24.4989 38.8674 24.2661C36.6503 23.9354 34.4577 23.5802 32.2406 23.2862C31.9448 23.2664 31.6608 23.1625 31.4221 22.9867C31.1834 22.8109 30.9999 22.5706 30.8932 22.294C30.0235 20.4443 29.117 18.6192 28.2228 16.7696C28.1321 16.5718 28.0299 16.3796 27.9166 16.1938L27.6961 16.6471C26.7529 18.5825 25.7975 20.5178 24.8665 22.4655C24.7746 22.6897 24.6212 22.8835 24.424 23.0243C24.2268 23.1652 23.9938 23.2475 23.7518 23.2617C21.498 23.5802 19.2441 23.9354 16.978 24.2661C16.978 24.4866 17.2107 24.5846 17.3332 24.7071L21.8777 29.1903C22.0431 29.319 22.1727 29.4878 22.2542 29.6808C22.3357 29.8739 22.3663 30.0845 22.3432 30.2928C22.1349 31.432 21.9389 32.5834 21.7429 33.7226C21.547 34.8618 21.3632 36.0989 21.155 37.4096Z" fill="#EF4D24"/>
</svg>
