<svg width="55" height="51" viewBox="0 0 55 51" fill="none" xmlns="http://www.w3.org/2000/svg">
<path d="M27.1264 50.5406H4.75916C4.12742 50.5777 3.49496 50.481 2.90316 50.2568C2.31136 50.0327 1.77356 49.6861 1.32492 49.2398C0.876291 48.7935 0.526941 48.2575 0.299735 47.6668C0.0725286 47.0762 -0.0274147 46.4443 0.00643693 45.8123C0.00643693 35.1432 0.00643693 24.4618 0.00643693 13.7804C-0.000433854 13.3851 0.0731836 12.9925 0.222817 12.6265C0.372451 12.2605 0.59497 11.9288 0.876841 11.6515C1.15871 11.3742 1.49404 11.1572 1.86244 11.0136C2.23083 10.8699 2.62459 10.8028 3.01976 10.8161C6.53531 10.8896 10.0631 10.8161 13.5786 10.8161C14.4759 10.8773 15.3762 10.8773 16.2735 10.8161C16.2735 9.93417 16.2735 9.05222 16.2735 8.18252C16.2707 7.39394 16.3863 6.6094 16.6165 5.85516C17.1027 4.1677 18.1243 2.68406 19.5273 1.62792C20.9303 0.571792 22.6387 0.000432986 24.3948 0C26.2567 0 28.0696 0 29.9927 0C32.0968 0.0314467 34.1063 0.87964 35.5966 2.36537C37.0869 3.8511 37.9413 5.858 37.9792 7.96204C37.9792 8.73374 37.9792 9.50545 37.9792 10.2772C37.9792 10.6936 38.0527 10.8406 38.5182 10.8284C42.7891 10.8284 47.0641 10.8284 51.3432 10.8284C51.7328 10.7931 52.1253 10.8435 52.4934 10.976C52.8614 11.1084 53.196 11.3198 53.4738 11.5952C53.7515 11.8706 53.9657 12.2034 54.1012 12.5703C54.2368 12.9372 54.2905 13.3294 54.2585 13.7192V45.8736C54.2847 46.4955 54.1811 47.1162 53.9543 47.6959C53.7275 48.2756 53.3824 48.8017 52.9411 49.2408C52.4998 49.6798 51.9718 50.0221 51.3909 50.2459C50.81 50.4697 50.1889 50.57 49.567 50.5406H27.1264ZM6.37606 32.6321C6.36919 32.7136 6.36919 32.7956 6.37606 32.8771V43.142C6.37606 43.9014 6.74354 44.2199 7.60099 44.2199H46.7987C47.6684 44.2199 48.0236 43.8892 48.0236 42.995V33.0731C48.0236 32.9383 48.1094 32.7791 47.9379 32.6688C45.6034 33.9575 42.939 34.5245 40.2821 34.298C38.7509 34.298 37.232 34.298 35.7009 34.298C34.1697 34.298 34.3779 34.298 34.3534 32.9751C34.3534 32.5954 34.4392 32.4729 34.8434 32.4851H41.3968C42.2622 32.4903 43.1253 32.3958 43.9691 32.2034C46.3913 31.6623 48.5544 30.3064 50.0971 28.3623C51.6399 26.4183 52.4689 24.0037 52.4456 21.522C52.4456 18.966 52.4456 16.41 52.4456 13.8539C52.4456 12.9475 52.1394 12.629 51.2207 12.629H3.03201C2.12556 12.629 1.80708 12.9475 1.80708 13.8539C1.80708 16.414 1.80708 18.9619 1.80708 21.522C1.80268 22.1249 1.84775 22.7271 1.94182 23.3226C2.35441 25.9064 3.6855 28.2544 5.69054 29.9354C7.69557 31.6164 10.2399 32.5174 12.8559 32.4729H18.5151C19.9115 32.4729 19.8993 32.4729 19.8993 33.857C19.8993 34.2245 19.7768 34.2858 19.4461 34.2735H12.0965C11.8515 34.2735 11.6065 34.2735 11.3615 34.2735C9.60447 34.0752 7.90725 33.5164 6.37606 32.6321ZM52.4456 28.3693C51.7561 29.3494 50.959 30.2492 50.0693 31.0519C49.9501 31.1454 49.8563 31.2673 49.7964 31.4064C49.7365 31.5455 49.7124 31.6973 49.7263 31.8481C49.7263 35.6454 49.7263 39.4427 49.7263 43.24C49.7478 43.6166 49.6892 43.9936 49.5544 44.3459C49.4197 44.6983 49.2117 45.0181 48.9444 45.2843C48.6771 45.5505 48.3563 45.757 48.0034 45.8902C47.6504 46.0235 47.2733 46.0804 46.8967 46.0573H7.34376C6.9643 46.0773 6.58492 46.0165 6.23074 45.8789C5.87656 45.7412 5.55566 45.5299 5.2893 45.2589C5.02293 44.9879 4.81718 44.6634 4.68566 44.3069C4.55415 43.9504 4.49987 43.57 4.52642 43.191C4.52642 39.8102 4.52642 36.4294 4.52642 33.0731C4.60215 32.5639 4.54109 32.0437 4.34952 31.5658C4.15795 31.0879 3.84275 30.6696 3.43624 30.3537C2.91821 29.8906 2.47595 29.3491 2.12556 28.7491C2.03982 28.6266 2.00307 28.4428 1.79483 28.3816V45.6286C1.74256 46.0518 1.78791 46.4814 1.9274 46.8844C2.06689 47.2874 2.29681 47.6531 2.59954 47.9535C2.90226 48.2538 3.26976 48.4809 3.67383 48.6172C4.07791 48.7535 4.50784 48.7955 4.93065 48.7399H49.3221C49.7451 48.7938 50.1748 48.7502 50.5784 48.6123C50.9819 48.4744 51.3485 48.2459 51.6501 47.9443C51.9516 47.6428 52.1801 47.2762 52.318 46.8727C52.4559 46.4691 52.4996 46.0394 52.4456 45.6163V28.3693ZM27.1141 10.8284H32.1363C32.4303 10.8284 32.5773 10.8284 32.565 10.4486C32.565 9.67694 32.565 8.90523 32.565 8.13353C32.5667 7.77596 32.4974 7.42162 32.3613 7.09096C32.2253 6.76031 32.025 6.45989 31.7722 6.20705C31.5193 5.95421 31.2189 5.75396 30.8883 5.61788C30.5576 5.48179 30.2033 5.41256 29.8457 5.41419C28.0328 5.41419 26.1709 5.41419 24.4193 5.41419C23.7943 5.41317 23.1889 5.63241 22.7095 6.0334C22.2301 6.43439 21.9074 6.99148 21.7979 7.60681C21.7082 8.5021 21.6795 9.40246 21.7122 10.3017C21.7122 10.7059 21.7122 10.8406 22.2144 10.8406C23.8436 10.8161 25.485 10.8284 27.1141 10.8284ZM35.1496 7.22708H35.7131C35.9826 7.22708 36.0683 7.22708 36.0193 6.8841C35.7626 5.62633 35.1275 4.47708 34.1993 3.5904C33.271 2.70372 32.0939 2.12198 30.8256 1.92314C28.5407 1.71295 26.2422 1.69246 23.9538 1.86189C22.593 1.93647 21.2946 2.45656 20.2586 3.342C19.2226 4.22744 18.5067 5.42906 18.2211 6.76161C18.1476 7.08009 18.1476 7.26383 18.5641 7.21483C18.8821 7.19034 19.2015 7.19034 19.5195 7.21483C19.8625 7.21483 19.9728 7.11684 20.083 6.79835C20.3748 5.87405 20.9591 5.06962 21.7479 4.50624C22.5366 3.94286 23.487 3.65106 24.456 3.67479H29.8702C30.7961 3.67227 31.7 3.95728 32.457 4.49046C33.2139 5.02365 33.7867 5.7787 34.0962 6.65136C34.2677 7.17808 34.4759 7.39857 35.0026 7.28833L35.1496 7.22708ZM18.9683 10.8284C19.8993 10.8284 19.8993 10.8284 19.8993 9.89742C19.8993 8.96648 19.8993 9.02773 19.0173 9.02773C18.1354 9.02773 18.0864 9.02772 18.0864 9.95867C18.0864 10.8896 18.0864 10.8284 18.9683 10.8284ZM35.2966 9.02773C34.3657 9.02773 34.3657 9.02772 34.3657 9.95867C34.3657 10.8896 34.3657 10.8284 35.2354 10.8284C36.1051 10.8284 36.1786 10.8284 36.1786 9.90967C36.1786 8.99098 36.1786 9.02773 35.2966 9.02773Z" fill="#EF4D24"/>
<path d="M32.5528 31.8482C32.5528 34.3838 32.5528 36.9194 32.5528 39.455C32.5528 40.2879 32.2588 40.5819 31.4503 40.5819C28.5677 40.5819 25.7095 40.5819 22.8758 40.5819C22.0796 40.5819 21.7734 40.2879 21.7734 39.5162C21.6754 34.445 21.6754 29.3983 21.6754 24.2536C21.7048 22.9253 22.2194 21.6538 23.1221 20.6789C24.0247 19.704 25.253 19.0933 26.5751 18.9619C27.9151 18.8249 29.2583 19.1901 30.3445 19.9866C31.4307 20.7832 32.1827 21.9545 32.4548 23.2737C32.5335 23.677 32.5664 24.0879 32.5528 24.4986V31.8482ZM27.1018 38.8058C28.2043 38.8058 29.2945 38.8058 30.3847 38.8058C30.6786 38.8058 30.7521 38.72 30.7521 38.426C30.7521 36.2702 30.7521 34.102 30.7521 31.9462C30.7521 31.6522 30.6786 31.5664 30.3847 31.5664H23.8803C23.5863 31.5664 23.5128 31.6522 23.5128 31.9462C23.5128 34.102 23.5128 36.2702 23.5128 38.426C23.5128 38.7323 23.5863 38.8058 23.8803 38.8058C24.9582 38.7935 26.0362 38.8058 27.1018 38.8058ZM27.1018 26.1768C27.7143 26.1768 28.3268 26.1768 28.9147 26.1768C29.5027 26.1768 30.3479 26.434 30.6296 26.0665C30.9114 25.699 30.7399 24.8416 30.7154 24.2659C30.6619 23.3808 30.2903 22.5449 29.669 21.9123C29.0476 21.2797 28.2186 20.8931 27.3346 20.8238C26.4593 20.7934 25.6019 21.0765 24.917 21.6223C24.232 22.168 23.7644 22.9404 23.5986 23.8004C23.5315 24.4391 23.5028 25.0813 23.5128 25.7235C23.5128 26.0543 23.5863 26.14 23.917 26.1278L27.1018 26.1768ZM27.1018 29.8515H29.3925C30.7644 29.8515 30.7521 29.8515 30.7644 28.4919C30.7644 28.1244 30.6664 28.0264 30.2989 28.0264C28.486 28.0264 26.6241 28.0264 24.8725 28.0264C23.4761 28.0264 23.4883 28.0264 23.5128 29.4351C23.5128 29.7535 23.5863 29.8515 23.917 29.8393C24.9827 29.7658 26.0607 29.7903 27.1263 29.7903L27.1018 29.8515Z" fill="#EF4D24"/>
<path d="M27.0897 36.0986C26.8079 36.0986 26.5262 36.0986 26.2445 36.0986C26.1245 36.1004 26.0053 36.0777 25.8944 36.0318C25.7835 35.9859 25.6831 35.9179 25.5994 35.8319C25.5157 35.7459 25.4504 35.6437 25.4076 35.5316C25.3648 35.4195 25.3452 35.2998 25.3503 35.1799C25.3486 35.0647 25.3699 34.9503 25.4129 34.8433C25.4559 34.7364 25.5197 34.6391 25.6006 34.557C25.6815 34.475 25.778 34.4098 25.8843 34.3653C25.9906 34.3209 26.1047 34.298 26.22 34.298H28.0206C28.1431 34.2909 28.2657 34.3097 28.3804 34.3534C28.4951 34.397 28.5993 34.4645 28.686 34.5512C28.7728 34.638 28.8402 34.7422 28.8839 34.8568C28.9275 34.9715 28.9464 35.0942 28.9393 35.2167C28.941 35.334 28.9189 35.4505 28.8744 35.559C28.8299 35.6676 28.7639 35.7661 28.6804 35.8485C28.5969 35.9309 28.4975 35.9955 28.3883 36.0385C28.2791 36.0815 28.1624 36.1019 28.0451 36.0986C27.7266 36.1109 27.4081 36.0986 27.0897 36.0986Z" fill="#EF4D24"/>
</svg>
