<svg width="53" height="53" viewBox="0 0 53 53" fill="none" xmlns="http://www.w3.org/2000/svg">
<path d="M35.2841 37.2751C35.2841 33.7963 35.2841 30.3297 35.2841 26.8632C35.2841 26.5447 35.2106 26.4589 34.8921 26.4589C33.5569 26.4589 32.2095 26.4589 30.8743 26.4589C30.5255 26.4639 30.1792 26.3988 29.856 26.2676C29.5327 26.1364 29.2391 25.9417 28.9924 25.695C28.7457 25.4483 28.551 25.1547 28.4198 24.8314C28.2886 24.5082 28.2235 24.1619 28.2285 23.8131C28.2285 16.7575 28.2285 9.70191 28.2285 2.64632C28.2218 2.29703 28.2857 1.94999 28.4163 1.62597C28.547 1.30196 28.7416 1.00763 28.9886 0.760603C29.2356 0.513575 29.53 0.318925 29.854 0.188315C30.178 0.0577049 30.5251 -0.00618365 30.8743 0.000471258H50.265C50.6112 0.000374947 50.954 0.0695208 51.2731 0.203838C51.5922 0.338155 51.8812 0.534929 52.1232 0.782593C52.3652 1.03026 52.5552 1.32382 52.682 1.64598C52.8089 1.96815 52.87 2.31242 52.8618 2.65856C52.8618 9.71415 52.8618 16.7698 52.8618 23.8253C52.8618 24.5152 52.5886 25.177 52.102 25.6659C51.6153 26.1549 50.9548 26.4312 50.265 26.4344C47.2027 26.4344 44.1403 26.4344 41.0657 26.4344C40.6493 26.4344 40.539 26.5324 40.5635 26.9489C40.5635 27.6961 40.5635 28.4433 40.5635 29.2028C41.2158 28.9891 41.925 29.0324 42.5464 29.3238C43.1678 29.6151 43.6547 30.1326 43.9076 30.7707C44.0301 30.9912 44.1403 30.9789 44.3363 30.9422C44.9364 30.787 45.5721 30.8495 46.1305 31.1186C46.6889 31.3877 47.1338 31.846 47.3864 32.4121C47.5089 32.6693 47.5946 32.7673 47.9008 32.6938C48.2892 32.6005 48.6937 32.5971 49.0835 32.6839C49.4733 32.7708 49.8382 32.9455 50.1502 33.1949C50.4621 33.4442 50.713 33.7616 50.8836 34.1227C51.0543 34.4838 51.1401 34.8791 51.1347 35.2784C51.1347 39.0267 51.1347 42.775 51.1347 46.5233C51.152 46.8342 51.0611 47.1415 50.8774 47.393C50.811 47.5039 50.7374 47.6102 50.6569 47.7114C50.1416 48.2689 49.7566 48.934 49.5299 49.6585C49.3032 50.383 49.2405 51.1489 49.3463 51.9007C49.432 52.5744 49.04 52.8929 48.3541 52.8929C44.3363 52.8929 40.3063 52.8929 36.2885 52.8929C35.5658 52.8929 35.1983 52.5867 35.2718 51.8639C35.369 51.1844 35.293 50.4914 35.0511 49.849C34.8091 49.2067 34.4089 48.6358 33.8877 48.1892C33.0235 47.3407 32.4055 46.274 32.0993 45.1023C31.1316 42.1258 30.0659 39.1614 29.0492 36.1971C28.9217 35.9444 28.8564 35.6648 28.8589 35.3818C28.8613 35.0987 28.9314 34.8204 29.0632 34.5699C29.1951 34.3194 29.3849 34.104 29.6168 33.9417C29.8487 33.7795 30.1161 33.675 30.3966 33.637C30.9595 33.4104 31.5716 33.3344 32.1728 33.4165C32.6147 33.5017 33.028 33.6967 33.3748 33.9835C33.7216 34.2704 33.9906 34.6398 34.1571 35.0579C34.4756 35.7806 34.8186 36.5033 35.1616 37.2261L35.2841 37.2751ZM29.9924 13.242V23.5436C29.9924 24.3888 30.3109 24.7685 31.1561 24.7685H34.2429C35.2473 24.7685 35.2473 24.7685 35.2841 23.7641C35.3043 23.3688 35.4121 22.983 35.5998 22.6345C35.7874 22.286 36.0502 21.9836 36.3691 21.7491C36.6879 21.5146 37.055 21.354 37.4435 21.2788C37.8321 21.2036 38.2326 21.2157 38.6159 21.3142C39.2345 21.4648 39.7776 21.8345 40.1447 22.3547C40.5118 22.8749 40.678 23.5105 40.6125 24.1438C40.6125 24.5848 40.686 24.7195 41.1637 24.7195C44.0791 24.7195 46.9944 24.7195 49.922 24.7195C50.9142 24.7195 51.2082 24.4378 51.2082 23.4946V3.05055C51.2082 2.05836 50.9264 1.82562 49.9832 1.82562H31.3643C30.3599 1.82562 30.1394 2.10736 30.1394 3.05055L29.9924 13.242ZM37.048 32.7183C37.048 35.5479 37.048 38.3652 37.048 41.1948C37.048 41.7338 36.9255 42.1503 36.3743 42.3218C35.823 42.4932 35.5291 42.1993 35.2473 41.5991L32.6137 35.9889C32.283 35.2784 31.989 35.1559 31.2173 35.3152C30.7519 35.4132 30.7151 35.5969 30.8621 36.0134C31.7563 38.549 32.6872 41.0723 33.4834 43.6324C33.9099 45.2445 34.7551 46.7151 35.9333 47.8952C36.3432 48.2358 36.6587 48.6761 36.8496 49.1737C37.0405 49.6713 37.1004 50.2096 37.0235 50.737C37.0235 51.0432 37.0235 51.1657 37.4277 51.1657H47.2271C47.5579 51.1657 47.6436 51.0555 47.6069 50.7615C47.5198 50.1997 47.5616 49.6254 47.7293 49.0821C47.8969 48.5388 48.186 48.0408 48.5746 47.6257C48.8036 47.3384 49.0123 47.0355 49.1993 46.7193C49.3005 46.5934 49.3604 46.4394 49.3708 46.2783C49.3708 42.6035 49.3708 38.9287 49.3708 35.2539C49.3708 35.0209 49.28 34.7971 49.1176 34.6301C48.9552 34.4631 48.734 34.3661 48.5011 34.3597C48.381 34.3629 48.2627 34.3899 48.1531 34.4391C48.0435 34.4884 47.9448 34.559 47.8627 34.6468C47.7807 34.7345 47.7168 34.8377 47.675 34.9504C47.6332 35.063 47.6142 35.1829 47.6191 35.3029C47.6191 36.1114 47.6191 36.9198 47.6191 37.7528C47.6191 38.5857 47.3006 38.7817 46.7494 38.794C46.1982 38.8062 45.8552 38.4265 45.8552 37.7283C45.8552 37.0301 45.8552 36.5891 45.8552 36.0134C45.8552 35.2049 45.8552 34.3965 45.8552 33.5635C45.8655 33.3226 45.7818 33.087 45.6219 32.9065C45.4619 32.726 45.2382 32.6146 44.9978 32.5958C44.8739 32.5989 44.7519 32.6269 44.6391 32.6783C44.5263 32.7297 44.4251 32.8034 44.3416 32.895C44.258 32.9866 44.1939 33.0941 44.153 33.2111C44.1121 33.328 44.0953 33.4521 44.1036 33.5758C44.1036 33.7595 44.1036 33.9432 44.1036 34.127C44.1036 35.3519 44.1036 36.5768 44.1036 37.8753C44.1207 38.0892 44.0533 38.3013 43.916 38.4661C43.7786 38.631 43.5821 38.7355 43.3686 38.7572C43.1692 38.8034 42.9596 38.7722 42.7823 38.6699C42.6049 38.5676 42.473 38.4018 42.4132 38.206C42.3554 38.0326 42.3345 37.849 42.3519 37.667C42.3519 35.7684 42.3519 33.882 42.3519 31.9956C42.3519 31.2729 41.9967 30.8319 41.4577 30.8319C40.9188 30.8319 40.588 31.2729 40.588 32.0569V37.7895C40.588 38.4387 40.2573 38.8185 39.7061 38.8185C39.1549 38.8185 38.8241 38.4387 38.8241 37.7895C38.8241 35.9031 38.8241 34.0045 38.8241 32.1181C38.8241 29.411 38.8241 26.7162 38.8241 24.0091C38.8241 23.3844 38.4689 22.9434 37.9667 22.9434C37.7077 22.9683 37.4688 23.0939 37.3015 23.2933C37.1343 23.4926 37.052 23.7497 37.0725 24.0091C37.0725 24.1316 37.0725 24.2663 37.0725 24.3888L37.048 32.7183Z" fill="#EF4D24"/>
<path d="M24.6883 13.2663V23.6782C24.7078 24.0463 24.6495 24.4144 24.5172 24.7585C24.3848 25.1025 24.1813 25.4148 23.9201 25.6749C23.6588 25.935 23.3456 26.1371 23.001 26.2679C22.6563 26.3988 22.288 26.4554 21.9199 26.4342H2.7988C2.42659 26.4594 2.0533 26.4048 1.70388 26.2741C1.35447 26.1435 1.03696 25.9397 0.77259 25.6765C0.508223 25.4133 0.303081 25.0967 0.170873 24.7478C0.0386654 24.399 -0.0175476 24.026 0.00596306 23.6537V2.80537C-0.0191839 2.43317 0.0353965 2.05988 0.16607 1.71047C0.296743 1.36105 0.500485 1.04355 0.763693 0.779181C1.0269 0.514814 1.34351 0.309672 1.69235 0.177464C2.04119 0.0452561 2.41423 -0.0109755 2.78654 0.0125351H21.9077C22.2789 -0.010792 22.6508 0.0451455 22.9988 0.176632C23.3467 0.308119 23.6627 0.512147 23.9257 0.775153C24.1887 1.03816 24.3927 1.35412 24.5242 1.70205C24.6556 2.04998 24.7116 2.42191 24.6883 2.79312V13.2663ZM22.9244 13.2663V3.07486C22.9244 2.08266 22.6426 1.84993 21.6994 1.84993H3.08053C2.08833 1.84993 1.8556 2.13166 1.8556 3.07486V23.4577C1.8556 24.4499 2.12508 24.6826 3.08053 24.6826H21.6994C22.6916 24.6826 22.9244 24.4009 22.9244 23.4577V13.2663Z" fill="#EF4D24"/>
<path d="M12.3534 52.9296H2.76226C2.39474 52.951 2.02684 52.8943 1.68278 52.7634C1.33872 52.6324 1.02627 52.4301 0.765953 52.1698C0.505638 51.9095 0.303354 51.597 0.172403 51.253C0.041453 50.9089 -0.0151942 50.541 0.00616638 50.1735V30.9911C-0.0132394 30.6241 0.044762 30.2571 0.176403 29.9139C0.308045 29.5707 0.510368 29.2591 0.77027 28.9992C1.03017 28.7393 1.34183 28.5369 1.685 28.4053C2.02818 28.2736 2.39521 28.2156 2.76226 28.235H21.9324C22.2994 28.2156 22.6664 28.2736 23.0096 28.4053C23.3528 28.5369 23.6644 28.7393 23.9243 28.9992C24.1843 29.2591 24.3866 29.5707 24.5182 29.9139C24.6499 30.2571 24.7079 30.6241 24.6885 30.9911V50.1613C24.71 50.5299 24.653 50.8989 24.5214 51.2438C24.3897 51.5888 24.1863 51.9019 23.9246 52.1624C23.663 52.4229 23.349 52.6249 23.0034 52.7551C22.6579 52.8852 22.2887 52.9405 21.9201 52.9174L12.3534 52.9296ZM22.9368 40.6803V31.3341C22.9368 30.3419 22.6551 30.1092 21.7119 30.1092H3.09297C2.08853 30.1092 1.86804 30.3787 1.86804 31.3341V49.953C1.86804 50.9575 2.13753 51.178 3.09297 51.178H21.7119C22.7163 51.178 22.9368 50.8962 22.9368 49.953V40.6803Z" fill="#EF4D24"/>
<path d="M41.9845 19.4155C40.4835 19.5639 38.9692 19.3409 37.5747 18.7663C36.2315 18.1278 35.1212 17.0858 34.3987 15.7858C33.6762 14.4857 33.3777 12.9926 33.5447 11.5147C33.7252 9.99927 34.3922 8.58317 35.4457 7.47889C36.4992 6.37462 37.8823 5.6417 39.3876 5.3901C40.3969 5.21521 41.4323 5.26297 42.4212 5.53005C43.4101 5.79712 44.3288 6.27705 45.1128 6.93627C45.8969 7.59548 46.5274 8.41805 46.9603 9.34644C47.3933 10.2748 47.6181 11.2866 47.6191 12.3109C47.6701 12.8594 47.6412 13.4122 47.5334 13.9523C47.4189 14.3791 47.198 14.7699 46.8912 15.0879C46.5845 15.406 46.202 15.6409 45.7796 15.7707C45.3572 15.9005 44.9088 15.9208 44.4764 15.8299C44.0439 15.739 43.6417 15.5397 43.3074 15.2508C43.2625 15.1989 43.207 15.1573 43.1447 15.1288C43.0823 15.1003 43.0146 15.0855 42.946 15.0855C42.8775 15.0855 42.8097 15.1003 42.7474 15.1288C42.685 15.1573 42.6295 15.1989 42.5847 15.2508C41.98 15.6863 41.2536 15.9207 40.5084 15.9207C39.7632 15.9207 39.0368 15.6863 38.4322 15.2508C37.8371 14.8118 37.3927 14.1991 37.1602 13.4972C36.9277 12.7952 36.9184 12.0384 37.1337 11.331C37.3531 10.6067 37.7958 9.97026 38.3986 9.51266C39.0014 9.05507 39.7334 8.79973 40.49 8.78315C41.4264 8.77942 42.3275 9.14057 43.002 9.79001C43.6766 10.4394 44.0717 11.3261 44.1036 12.2619C44.1036 12.5927 44.1036 12.9234 44.1036 13.2541C44.1062 13.4854 44.1959 13.7072 44.3548 13.8753C44.5138 14.0433 44.7303 14.1452 44.961 14.1606C45.1924 14.149 45.4114 14.0527 45.5763 13.8901C45.7412 13.7274 45.8405 13.5098 45.8552 13.2786C45.9596 12.5511 45.9138 11.8098 45.7205 11.1006C45.5272 10.3915 45.1906 9.72946 44.7314 9.1555C44.2722 8.58153 43.7003 8.1078 43.0508 7.76355C42.4014 7.4193 41.6883 7.21184 40.9555 7.154C39.6516 7.02701 38.348 7.39865 37.3071 8.1941C36.2662 8.98956 35.5653 10.1498 35.3453 11.4412C35.1968 12.2141 35.2234 13.0105 35.4231 13.7717C35.6229 14.5329 35.9906 15.2398 36.4994 15.8402C37.0082 16.4406 37.6451 16.9194 38.3632 17.2414C39.0814 17.5633 39.8625 17.7203 40.6493 17.7006H43.8953C44.5568 17.7006 44.9243 18.0191 44.9365 18.5703C44.9488 19.1216 44.5691 19.4645 43.9198 19.4645L41.9845 19.4155ZM38.8119 12.3599C38.8086 12.5985 38.8528 12.8352 38.9419 13.0565C39.0309 13.2778 39.163 13.4793 39.3305 13.6491C39.4981 13.8189 39.6977 13.9537 39.9178 14.0457C40.1378 14.1377 40.374 14.1851 40.6125 14.1851C41.0724 14.173 41.5104 13.9866 41.8379 13.6637C42.1654 13.3407 42.3579 12.9053 42.3764 12.4457C42.3829 12.2082 42.3424 11.9718 42.2571 11.75C42.1718 11.5283 42.0435 11.3256 41.8796 11.1536C41.7156 10.9817 41.5192 10.8439 41.3018 10.7482C41.0843 10.6525 40.8501 10.6008 40.6125 10.596C40.1422 10.5991 39.6915 10.7847 39.3555 11.1138C39.0195 11.443 38.8246 11.8898 38.8119 12.3599Z" fill="#EF4D24"/>
<path d="M14.5215 22.5024C13.4872 22.5105 12.4614 22.3146 11.503 21.9257C10.5445 21.5369 9.67214 20.9627 8.93588 20.2362C7.55579 18.8888 6.19204 17.5251 4.84462 16.145C3.38884 14.6649 2.573 12.6721 2.573 10.596C2.573 8.52004 3.38884 6.52717 4.84462 5.04712C5.44483 4.42241 6.06954 3.8222 6.66975 3.20973C6.75447 3.10037 6.8631 3.01185 6.98731 2.95096C7.11152 2.89006 7.24801 2.8584 7.38634 2.8584C7.52467 2.8584 7.66117 2.89006 7.78537 2.95096C7.90958 3.01185 8.01822 3.10037 8.10293 3.20973C9.5361 4.6184 10.9448 6.02707 12.3534 7.46024C12.4553 7.54048 12.5377 7.6428 12.5944 7.7595C12.651 7.87619 12.6805 8.00422 12.6805 8.13394C12.6805 8.26366 12.651 8.3917 12.5944 8.50839C12.5377 8.62509 12.4553 8.72741 12.3534 8.80766C11.79 9.40787 11.1897 10.0326 10.614 10.5716C10.3468 10.8182 10.1336 11.1174 9.98769 11.4505C9.84183 11.7836 9.76652 12.1433 9.76652 12.5069C9.76652 12.8706 9.84183 13.2303 9.98769 13.5633C10.1336 13.8964 10.3468 14.1957 10.614 14.4423C10.8599 14.7172 11.161 14.9371 11.4977 15.0876C11.8343 15.2382 12.199 15.316 12.5678 15.316C12.9366 15.316 13.3012 15.2382 13.6379 15.0876C13.9746 14.9371 14.2757 14.7172 14.5215 14.4423C15.0973 13.9034 15.6362 13.3276 16.1997 12.7764C16.2857 12.6551 16.3996 12.5561 16.5317 12.4878C16.6638 12.4195 16.8104 12.3839 16.9592 12.3839C17.1079 12.3839 17.2545 12.4195 17.3866 12.4878C17.5187 12.5561 17.6326 12.6551 17.7186 12.7764C19.0987 14.1483 20.4747 15.5284 21.8466 16.9167C21.9604 16.9983 22.0532 17.1059 22.1171 17.2305C22.1811 17.3551 22.2144 17.4932 22.2144 17.6333C22.2144 17.7733 22.1811 17.9114 22.1171 18.036C22.0532 18.1606 21.9604 18.2682 21.8466 18.3499C21.0872 19.1216 20.34 19.8933 19.5193 20.616C18.1288 21.816 16.3581 22.4843 14.5215 22.5024ZM18.1963 19.489C17.2409 18.5336 16.3099 17.6149 15.4035 16.6839C15.3669 16.6302 15.3197 16.5844 15.2648 16.5495C15.21 16.5146 15.1485 16.4913 15.0843 16.4809C15.0201 16.4706 14.9544 16.4735 14.8913 16.4895C14.8283 16.5054 14.7691 16.5341 14.7175 16.5737C14.2034 16.8613 13.6343 17.0373 13.0475 17.09C12.4608 17.1428 11.8695 17.0712 11.3122 16.8799C10.6663 16.6838 10.0714 16.3481 9.56957 15.8965C9.06777 15.445 8.67135 14.8887 8.4084 14.2669C8.14545 13.6452 8.0224 12.9733 8.04793 12.2987C8.07346 11.6241 8.24696 10.9634 8.55615 10.3633C8.6419 10.1918 8.77664 10.0571 8.55615 9.84884C7.56396 8.88115 6.59627 7.91346 5.62857 6.93352C4.77195 8.07729 4.34223 9.4846 4.41381 10.9118C4.4854 12.339 5.05377 13.6962 6.02054 14.7486C7.30672 16.1082 8.6664 17.3944 9.97707 18.7296C11.051 19.881 12.5221 20.5815 14.0928 20.6895C15.5448 20.791 16.9847 20.3647 18.1473 19.489H18.1963ZM20.1072 17.7006C20.0435 17.6069 19.9696 17.5207 19.8867 17.4434C19.0293 16.5737 18.1473 15.7163 17.2899 14.8343C17.0694 14.6016 16.9347 14.6138 16.7387 14.8343C16.5427 15.0548 16.3589 15.1405 16.6652 15.4345C17.5349 16.2552 18.3801 17.1372 19.2375 17.9824C19.3355 18.0804 19.409 18.2886 19.5805 18.1784C19.7532 18.0332 19.9131 17.8734 20.0582 17.7006H20.1072ZM7.47821 5.04712C7.26654 5.16611 7.08277 5.329 6.93924 5.52485C6.80449 5.69634 7.02498 5.78208 7.11073 5.86782C7.96818 6.73752 8.85013 7.59497 9.69533 8.47692C9.96481 8.75865 10.0751 8.57492 10.2466 8.40343C10.418 8.23194 10.614 8.14619 10.3323 7.86445C9.4381 7.007 8.56839 6.11281 7.68644 5.23087L7.47821 5.04712Z" fill="#EF4D24"/>
<path d="M12.4392 34.4087H20.046C20.9279 34.4087 21.2097 34.6782 21.2097 35.5356V45.6168C21.2097 46.462 20.9279 46.756 20.095 46.756H4.67313C3.86467 46.756 3.57068 46.462 3.57068 45.678V35.4744C3.57068 34.6904 3.86467 34.4087 4.67313 34.4087H12.4392ZM17.9391 36.1971H6.82899L11.2142 40.1536C11.5695 40.4721 11.9247 40.9988 12.3044 41.0233C12.6842 41.0478 13.0516 40.4721 13.4191 40.1414C14.889 38.8552 16.3834 37.5568 17.9024 36.2338L17.9391 36.1971ZM6.84124 44.9553H17.9391L14.9748 42.3585C14.3378 41.795 14.3378 41.7828 13.7499 42.3585C13.5811 42.543 13.3758 42.6905 13.147 42.7913C12.9182 42.8922 12.6709 42.9442 12.4208 42.9442C12.1707 42.9442 11.9234 42.8922 11.6946 42.7913C11.4658 42.6905 11.2605 42.543 11.0917 42.3585C10.9486 42.2456 10.8135 42.1228 10.6875 41.991C10.516 41.7828 10.3813 41.795 10.1975 41.991L6.84124 44.9553ZM5.33458 43.8896L8.86238 40.7783C9.13186 40.5456 8.86237 40.4476 8.77663 40.3251C7.75994 39.4187 6.75551 38.5122 5.72657 37.618C5.61632 37.5323 5.55507 37.3485 5.33458 37.3853V43.8896ZM19.4335 37.275L15.9792 40.3373C15.7465 40.5333 15.7587 40.6436 15.9792 40.8396L18.9435 43.4609C19.0905 43.5834 19.2008 43.7549 19.4213 43.8039L19.4335 37.275Z" fill="#EF4D24"/>
</svg>
