<svg width="56" height="56" viewBox="0 0 56 56" fill="none" xmlns="http://www.w3.org/2000/svg">
<path d="M55.4307 21.4607C55.3108 21.6731 55.1301 21.845 54.9119 21.9541C54.6936 22.0632 54.4478 22.1047 54.2058 22.0731H38.4655C37.4978 22.0731 37.2405 21.8159 37.2405 20.8482C37.2405 18.5821 37.2405 16.3037 37.2405 14.0376C37.2727 12.7593 37.6523 11.5138 38.3385 10.4349C39.0247 9.35589 39.9917 8.48408 41.1358 7.91296C41.2372 7.84902 41.3509 7.80704 41.4695 7.78974C41.5881 7.77244 41.709 7.7802 41.8244 7.81252C41.9398 7.84484 42.0472 7.901 42.1396 7.97737C42.232 8.05375 42.3073 8.14864 42.3607 8.25594C42.4208 8.36161 42.458 8.47869 42.47 8.59963C42.482 8.72057 42.4685 8.84269 42.4305 8.9581C42.3924 9.07352 42.3305 9.17967 42.2489 9.26971C42.1673 9.35975 42.0677 9.43168 41.9565 9.48086C41.2762 9.85361 40.6774 10.3589 40.1956 10.9669C39.7139 11.575 39.3588 12.2734 39.1514 13.0209C39.0347 13.419 38.9729 13.8311 38.9677 14.2458C38.9677 16.12 38.9677 17.9941 38.9677 19.8683C38.9677 20.2725 39.1024 20.3582 39.4577 20.3215C40.0456 20.2602 40.8296 20.5665 41.1603 20.199C41.491 19.8315 41.2461 19.1088 41.2461 18.5331C41.2461 17.6389 41.2461 16.7569 41.2461 15.875C41.2461 15.2748 41.5645 14.9073 42.079 14.895C42.2063 14.8902 42.3332 14.9133 42.4506 14.9629C42.568 15.0125 42.673 15.0872 42.7583 15.1819C42.8436 15.2765 42.9071 15.3888 42.9442 15.5107C42.9814 15.6325 42.9912 15.7611 42.9732 15.8872C42.9732 17.1979 42.9732 18.5208 42.9732 19.8315C42.9732 20.1867 42.9732 20.3337 43.4142 20.3215C45.3496 20.3215 47.285 20.3215 49.2081 20.3215C49.5756 20.3215 49.6981 20.2357 49.6858 19.856C49.6858 18.5331 49.6858 17.2224 49.6858 15.8995C49.6858 15.2748 50.0288 14.895 50.5555 14.895C51.0822 14.895 51.4252 15.287 51.4252 15.9117C51.4252 17.2102 51.4252 18.5086 51.4252 19.807C51.4252 20.1745 51.4252 20.3827 51.9029 20.3215C52.3807 20.2602 53.2749 20.5787 53.6056 20.199C53.9363 19.8193 53.7036 19.0966 53.6913 18.5208C53.6913 16.9039 53.7893 15.2748 53.6178 13.6211C53.5191 12.7952 53.2284 12.0038 52.769 11.3104C52.3095 10.617 51.6941 10.0408 50.972 9.62786C50.237 9.15013 50.0288 8.72141 50.3228 8.21919C50.6168 7.71697 51.168 7.65572 51.9152 8.15794C52.8245 8.69615 53.6035 9.4288 54.1965 10.3034C54.7895 11.178 55.1817 12.1729 55.345 13.2169C55.345 13.2169 55.345 13.3026 55.4307 13.3394V21.4607Z" fill="#EF4D24"/>
<path d="M55.4307 54.9135C55.3024 55.1147 55.1182 55.2741 54.9006 55.372C54.683 55.4699 54.4415 55.5022 54.2058 55.4647C48.9264 55.4647 43.6347 55.4647 38.3552 55.4647C37.4488 55.4647 37.2038 55.2197 37.2038 54.3133C37.2038 52.0227 37.2038 49.7321 37.2038 47.4414C37.2384 46.1622 37.6204 44.9164 38.3087 43.8375C38.997 42.7587 39.9658 41.8873 41.1113 41.3168C41.2092 41.2476 41.3209 41.2004 41.4387 41.1783C41.5565 41.1563 41.6777 41.1599 41.794 41.189C41.9103 41.2181 42.019 41.2719 42.1125 41.3468C42.2061 41.4217 42.2824 41.5159 42.3363 41.623C42.4044 41.72 42.4513 41.8303 42.4741 41.9466C42.4968 42.0629 42.4949 42.1828 42.4683 42.2983C42.4417 42.4138 42.3912 42.5224 42.3199 42.6171C42.2486 42.7118 42.1582 42.7905 42.0545 42.848C41.4876 43.1962 40.9616 43.6071 40.4866 44.0729C39.5285 45.0572 38.9886 46.3741 38.9799 47.7477C38.9799 49.5973 38.9799 51.4225 38.9799 53.3211C38.9799 53.6396 38.9799 53.7621 39.3842 53.7376C39.8696 53.707 40.3564 53.707 40.8418 53.7376C41.1726 53.7376 41.2706 53.6641 41.2583 53.3211C41.2583 51.9859 41.2583 50.6508 41.2583 49.3156C41.2583 48.6664 41.5523 48.3111 42.1035 48.2989C42.6547 48.2866 42.9855 48.6541 42.9855 49.3401C42.9855 50.6753 42.9855 52.0104 42.9855 53.3456C42.9855 53.6396 43.0467 53.7376 43.3652 53.7376H49.3061C49.6246 53.7376 49.6981 53.6518 49.6981 53.3456C49.6981 52.0104 49.6981 50.6753 49.6981 49.3401C49.6981 48.6541 50.0165 48.2866 50.58 48.2989C51.1435 48.3111 51.4375 48.6786 51.4375 49.3768C51.4375 50.6875 51.4375 52.0104 51.4375 53.3211C51.4375 53.6518 51.4987 53.7621 51.8417 53.7376C52.3271 53.707 52.814 53.707 53.2994 53.7376C53.6546 53.7376 53.7158 53.6273 53.7158 53.3089C53.7158 51.5205 53.7158 49.7443 53.7158 47.9559C53.7518 46.9936 53.5357 46.0386 53.0887 45.1855C52.6418 44.3325 51.9797 43.6111 51.168 43.0929L50.7148 42.8112C50.6108 42.7542 50.5197 42.6766 50.4468 42.5831C50.374 42.4896 50.321 42.3822 50.2912 42.2675C50.2614 42.1528 50.2553 42.0332 50.2734 41.916C50.2914 41.7989 50.3333 41.6867 50.3963 41.5863C50.4538 41.4826 50.5324 41.3922 50.6271 41.3209C50.7218 41.2496 50.8305 41.1991 50.946 41.1725C51.0615 41.1459 51.1813 41.144 51.2976 41.1667C51.414 41.1895 51.5242 41.2364 51.6212 41.3046C53.1174 42.1223 54.2984 43.4153 54.9775 44.9793C55.2225 45.5183 55.2715 46.1063 55.5042 46.633L55.4307 54.9135Z" fill="#EF4D24"/>
<path d="M47.1012 0.0244991C47.1012 0.159241 47.2727 0.122492 47.3707 0.14699C48.2008 0.378567 48.9315 0.87726 49.4496 1.5659C49.9678 2.25455 50.2445 3.09475 50.237 3.95652C50.3629 5.10551 50.2161 6.268 49.8083 7.34957C49.5197 8.00144 49.1031 8.58875 48.5834 9.07672C47.9805 9.66259 47.1697 9.98521 46.3291 9.97372C45.4885 9.96224 44.6868 9.61759 44.1002 9.01548C43.5986 8.57616 43.1953 8.03597 42.9167 7.43019C42.638 6.82441 42.4904 6.16667 42.4832 5.49993C42.4158 4.76243 42.4158 4.02031 42.4832 3.28281C42.585 2.58553 42.8782 1.93014 43.3301 1.38952C43.7821 0.84889 44.3751 0.444213 45.0433 0.220488C45.2026 0.159241 45.3986 0.220487 45.4966 0L47.1012 0.0244991ZM44.1981 4.66698C44.1056 5.34977 44.2031 6.04486 44.4799 6.67586C44.8841 7.45982 45.3741 8.18252 46.3418 8.18252C47.3095 8.18252 47.8239 7.45982 48.1914 6.66361C48.5797 5.66488 48.6607 4.57291 48.4242 3.5278C48.3461 3.01945 48.0826 2.55799 47.6846 2.23231C47.2865 1.90664 46.782 1.73978 46.2683 1.7639C45.76 1.77233 45.271 1.96011 44.8878 2.29407C44.5045 2.62803 44.2516 3.08669 44.1736 3.58904C44.1512 3.9484 44.1593 4.30902 44.1981 4.66698Z" fill="#EF4D24"/>
<path d="M9.87559 0.0244141C12.2152 0.881864 12.9624 1.99655 13.0114 4.50765C13.1167 5.9413 12.6795 7.36218 11.7865 8.48867C11.4719 8.93182 11.0544 9.29196 10.5699 9.53813C10.0854 9.78429 9.54839 9.90913 9.00498 9.9019C8.46158 9.89467 7.92806 9.75559 7.45027 9.49662C6.97249 9.23766 6.56473 8.86654 6.26205 8.41518C5.54041 7.53029 5.15049 6.42115 5.15962 5.27936C5.10657 4.56052 5.1271 3.83815 5.22087 3.12348C5.36488 2.44465 5.68872 1.81702 6.15851 1.30628C6.62829 0.795552 7.22675 0.420504 7.89121 0.220402C8.0137 0.220402 8.19745 0.220401 8.24645 0.0366613L9.87559 0.0244141ZM6.93577 4.66689C6.86882 5.32938 6.96556 5.99817 7.2175 6.61453C7.60947 7.41073 8.09944 8.18244 9.09164 8.18244C10.0838 8.18244 10.5983 7.43523 10.9658 6.62678C11.335 5.66213 11.4158 4.61097 11.1985 3.60121C11.1385 3.09451 10.8945 2.62749 10.5129 2.28879C10.1313 1.95008 9.63862 1.76327 9.12838 1.76381C8.62055 1.75824 8.12706 1.93213 7.7349 2.25482C7.34273 2.57752 7.07706 3.02831 6.98476 3.52771C6.94373 3.90597 6.92737 4.2865 6.93577 4.66689Z" fill="#EF4D24"/>
<path d="M9.05494 22.061H1.32564C0.247705 22.061 0.0272206 21.8405 0.0272206 20.836C0.0272206 18.5822 -0.0340258 16.316 0.0272206 14.0744C0.0590044 12.7929 0.44113 11.5446 1.13213 10.4649C1.82314 9.38523 2.79663 8.51539 3.94699 7.94978C4.04478 7.89371 4.15281 7.85776 4.2647 7.84405C4.37659 7.83035 4.49009 7.83916 4.59852 7.86998C4.70695 7.9008 4.80812 7.95299 4.89608 8.0235C4.98403 8.094 5.05699 8.18139 5.11067 8.28052C5.17617 8.38212 5.21912 8.49659 5.23661 8.6162C5.2541 8.73581 5.24572 8.85779 5.21205 8.97389C5.17838 9.08999 5.12021 9.19752 5.04144 9.28922C4.96267 9.38091 4.86514 9.45465 4.75545 9.50544C3.61923 10.1383 2.71399 11.1165 2.17085 12.2983C1.92051 12.8747 1.78726 13.4951 1.77886 14.1234C1.77886 16.0343 1.77886 17.9575 1.77886 19.8683C1.77886 20.1868 1.77887 20.3093 2.19535 20.2848C2.68093 20.2603 3.16744 20.2603 3.65302 20.2848C4.00825 20.2848 4.06948 20.1746 4.05723 19.8561C4.05723 18.5454 4.05723 17.2225 4.05723 15.9118C4.05723 15.2381 4.38796 14.8461 4.93918 14.8584C5.4904 14.8706 5.78439 15.2504 5.79664 15.8873C5.79664 17.2102 5.79664 18.5332 5.79664 19.8438C5.79664 20.1991 5.88239 20.2971 6.23762 20.2848H11.9703C12.3378 20.2848 12.4602 20.2113 12.448 19.8193C12.448 18.5209 12.448 17.2225 12.448 15.9241C12.448 15.2381 12.7665 14.8584 13.3177 14.8584C13.8689 14.8584 14.1874 15.2504 14.1874 15.9363C14.1874 17.1612 14.1874 18.4964 14.1874 19.7703C14.1874 20.2236 14.3221 20.3093 14.7264 20.2848C15.1306 20.2603 15.6573 20.2848 16.135 20.2848C16.3433 20.2848 16.4658 20.2848 16.4658 19.9908C16.4658 17.884 16.5638 15.7771 16.3923 13.6702C16.3025 12.8336 16.0145 12.0305 15.5522 11.3275C15.0899 10.6245 14.4667 10.0419 13.7342 9.62794C12.9992 9.15022 12.791 8.70924 13.0972 8.20702C13.4034 7.7048 13.9424 7.6558 14.7019 8.20702C15.7973 8.86364 16.6989 9.79928 17.3144 10.9184C17.9299 12.0375 18.2373 13.2999 18.2052 14.5766C18.2052 16.6835 18.2052 18.8027 18.2052 20.9095C18.2052 21.8282 17.9234 22.1345 16.9802 22.1345L9.05494 22.061Z" fill="#EF4D24"/>
<path d="M9.0672 55.4526H1.11741C0.284456 55.4526 0.0272217 55.1831 0.0272217 54.3502C0.0272217 52.0596 0.0272217 49.7689 0.0272217 47.4783C0.0631876 46.1994 0.445648 44.9542 1.13382 43.8755C1.82199 42.7969 2.79006 41.9253 3.93475 41.3537C4.03328 41.2865 4.14491 41.2409 4.26231 41.22C4.3797 41.199 4.50021 41.2031 4.6159 41.232C4.7316 41.2609 4.83987 41.314 4.93359 41.3878C5.02731 41.4615 5.10436 41.5543 5.15968 41.6599C5.22929 41.757 5.2772 41.868 5.30014 41.9853C5.32308 42.1025 5.32051 42.2234 5.29262 42.3396C5.26474 42.4558 5.21218 42.5646 5.13852 42.6587C5.06485 42.7528 4.9718 42.8299 4.86569 42.8848C4.29876 43.2331 3.77281 43.6439 3.29778 44.1098C2.34087 45.0939 1.80485 46.4119 1.80336 47.7846C1.80336 49.6465 1.80336 51.4593 1.80336 53.358C1.80336 53.6765 1.80336 53.799 2.21984 53.7745C2.72159 53.7439 3.22476 53.7439 3.72651 53.7745C4.02049 53.7745 4.08173 53.6765 4.08173 53.407C4.08173 52.0677 4.08173 50.7326 4.08173 49.4015C4.08173 48.691 4.37571 48.3358 4.93918 48.3358C5.50265 48.3358 5.80888 48.7033 5.82113 49.3892C5.82113 50.6999 5.82113 52.0228 5.82113 53.3335C5.82113 53.6887 5.91912 53.7745 6.2621 53.7745C8.19749 53.7745 10.1206 53.7745 12.056 53.7745C12.4848 53.7745 12.546 53.6397 12.5338 53.26C12.5338 51.9616 12.5338 50.6631 12.5338 49.3647C12.5338 48.7033 12.8277 48.348 13.3667 48.3358C13.9057 48.3235 14.2609 48.7033 14.2731 49.3647C14.2731 50.6631 14.2731 51.9616 14.2731 53.26C14.2731 53.7132 14.4079 53.799 14.8121 53.7745C15.2773 53.75 15.7434 53.75 16.2085 53.7745C16.4168 53.7745 16.5515 53.7745 16.5515 53.4927C16.5515 51.4593 16.5515 49.4137 16.5515 47.3681C16.5023 46.4853 16.2291 45.6296 15.7576 44.8817C15.2861 44.1337 14.6319 43.5182 13.8567 43.0931C13.7219 42.9951 13.5872 42.9216 13.4524 42.8358C13.3478 42.7797 13.2555 42.703 13.1812 42.6103C13.1069 42.5176 13.0521 42.4108 13.02 42.2964C12.988 42.182 12.9794 42.0624 12.9948 41.9446C13.0101 41.8268 13.0491 41.7133 13.1095 41.6109C13.1703 41.5106 13.2512 41.4239 13.3469 41.3561C13.4427 41.2883 13.5513 41.2409 13.6662 41.2168C13.781 41.1927 13.8995 41.1924 14.0145 41.2159C14.1294 41.2395 14.2383 41.2864 14.3344 41.3537C16.0155 42.2645 17.2827 43.786 17.8744 45.6042C18.0892 46.2355 18.2008 46.8973 18.2052 47.5641V54.3747C18.2052 55.1586 17.8989 55.4526 17.1272 55.4526H9.0672Z" fill="#EF4D24"/>
<path d="M20.2631 28.5777C20.2631 27.071 20.2631 25.5766 20.2631 24.0822C20.2439 23.6937 20.3061 23.3055 20.4457 22.9424C20.5852 22.5794 20.7991 22.2495 21.0735 21.9739C21.348 21.6983 21.677 21.483 22.0394 21.342C22.4019 21.2009 22.7898 21.1371 23.1784 21.1546H32.2061C32.5951 21.1339 32.984 21.1945 33.3483 21.3324C33.7125 21.4703 34.0441 21.6826 34.3218 21.9557C34.5995 22.2288 34.8173 22.5567 34.9613 22.9186C35.1053 23.2805 35.1724 23.6684 35.1582 24.0577C35.1582 27.0832 35.1582 30.1211 35.1582 33.1466C35.1704 33.5359 35.1021 33.9235 34.9575 34.2852C34.813 34.6468 34.5954 34.9747 34.3182 35.2484C34.0411 35.5221 33.7105 35.7356 33.3471 35.8756C32.9836 36.0156 32.5952 36.079 32.2061 36.062H23.2274C22.8287 36.0835 22.4301 36.0204 22.0575 35.8768C21.685 35.7333 21.3471 35.5125 21.0659 35.2291C20.7848 34.9456 20.5668 34.6059 20.4263 34.2322C20.2859 33.8585 20.226 33.4593 20.2508 33.0609L20.2631 28.5777ZM27.7106 34.2736H32.1449C33.0636 34.2736 33.3698 33.9551 33.3698 33.0486V24.1679C33.3698 23.2615 33.0513 22.943 32.1449 22.943H23.2764C22.3699 22.943 22.0515 23.2737 22.0515 24.1679C22.0515 27.1241 22.0515 30.0802 22.0515 33.0364C22.0515 33.9306 22.3944 34.2613 23.2764 34.2613L27.7106 34.2736Z" fill="#EF4D24"/>
<path d="M42.4343 38.0831C42.3776 37.4012 42.4313 36.7145 42.5935 36.0497C42.9069 35.1677 43.5238 34.4258 44.3339 33.9568C45.144 33.4878 46.0945 33.3222 47.0155 33.4896C47.9043 33.6622 48.706 34.1372 49.2844 34.8339C49.8627 35.5305 50.182 36.406 50.188 37.3114C50.2792 38.2805 50.2046 39.2581 49.9676 40.2022C49.691 41.0834 49.1834 41.8743 48.4976 42.4928C47.9024 43.0429 47.1217 43.3485 46.3112 43.3485C45.5006 43.3485 44.7199 43.0429 44.1247 42.4928C43.516 41.9425 43.0457 41.2564 42.752 40.4901C42.4583 39.7239 42.3495 38.8993 42.4343 38.0831ZM48.4976 38.1933C48.4976 37.8381 48.4976 37.5686 48.4976 37.2991C48.4851 36.7723 48.2801 36.2683 47.9212 35.8823C47.5624 35.4964 47.0746 35.2553 46.55 35.2045C45.9981 35.1386 45.4426 35.2935 45.0044 35.6354C44.5662 35.9772 44.2808 36.4784 44.2104 37.0297C44.1798 37.5845 44.1798 38.1407 44.2104 38.6956C44.1998 39.4762 44.4742 40.234 44.9821 40.8269C45.1276 41.0652 45.3319 41.262 45.5753 41.3986C45.8188 41.5351 46.0933 41.6068 46.3724 41.6068C46.6515 41.6068 46.926 41.5351 47.1694 41.3986C47.4129 41.262 47.6172 41.0652 47.7627 40.8269C48.0525 40.4579 48.2666 40.0353 48.3927 39.5834C48.5188 39.1315 48.5545 38.6591 48.4976 38.1933Z" fill="#EF4D24"/>
<path d="M5.20867 38.083C5.16175 37.4023 5.23219 36.7187 5.41691 36.0619C5.72321 35.1795 6.33454 34.4355 7.14077 33.9638C7.94701 33.4922 8.89516 33.324 9.81442 33.4895C10.7045 33.6617 11.5077 34.1363 12.0881 34.8327C12.6684 35.5292 12.9903 36.4048 12.9992 37.3113C13.0895 38.2798 13.0191 39.2566 12.791 40.2021C12.4838 41.2081 11.8611 42.0885 11.0148 42.7132C10.4625 43.1566 9.77547 43.3982 9.06721 43.3982C8.35896 43.3982 7.67188 43.1566 7.11956 42.7132C6.54763 42.2815 6.07928 41.7276 5.74869 41.0919C5.4181 40.4561 5.23361 39.7546 5.20867 39.0384C5.19642 38.6587 5.20867 38.377 5.20867 38.083ZM6.92359 38.083C6.86761 38.5937 6.91935 39.1105 7.07549 39.6C7.23162 40.0895 7.48866 40.5408 7.83002 40.9248C7.97577 41.1224 8.16587 41.2829 8.38501 41.3936C8.60415 41.5042 8.8462 41.5619 9.0917 41.5619C9.33719 41.5619 9.57926 41.5042 9.7984 41.3936C10.0175 41.2829 10.2076 41.1224 10.3534 40.9248C10.7502 40.5281 11.0263 40.0269 11.1496 39.4794C11.3151 38.63 11.3151 37.7565 11.1496 36.9071C11.0811 36.4114 10.8344 35.9577 10.4556 35.6308C10.0769 35.3039 9.592 35.1262 9.0917 35.1309C8.57799 35.127 8.08078 35.3121 7.69459 35.6508C7.30839 35.9896 7.06015 36.4585 6.99708 36.9683C6.94967 37.3503 6.92513 37.7348 6.92359 38.1197V38.083Z" fill="#EF4D24"/>
<path d="M26.8532 14.9196V8.04772C26.8207 7.83264 26.846 7.61279 26.9267 7.41076C26.9975 7.23394 27.1286 7.08783 27.2966 6.99819C27.4647 6.90855 27.659 6.88114 27.8453 6.92078C28.0554 6.94239 28.2494 7.04295 28.3881 7.20213C28.5268 7.36131 28.5999 7.56723 28.5926 7.77824V14.9196L29.8175 13.8049C30.3197 13.3639 30.8342 13.3272 31.2016 13.7191C31.5691 14.1111 31.5079 14.6378 30.9689 15.1278L28.3598 17.4674C28.2795 17.5671 28.1778 17.6476 28.0623 17.7028C27.9467 17.7581 27.8203 17.7868 27.6922 17.7868C27.5642 17.7868 27.4377 17.7581 27.3222 17.7028C27.2067 17.6476 27.105 17.5671 27.0246 17.4674L24.4156 15.1156C23.8643 14.6256 23.7908 14.1479 24.1951 13.7191C24.5993 13.2904 25.0525 13.3639 25.567 13.8049C26.0814 14.2459 26.3754 14.4908 26.8532 14.9196Z" fill="#EF4D24"/>
<path d="M28.5925 42.2968V49.3034C28.6079 49.4283 28.5971 49.5551 28.5608 49.6756C28.5245 49.7961 28.4635 49.9077 28.3817 50.0034C28.2999 50.099 28.199 50.1766 28.0856 50.2311C27.9722 50.2856 27.8486 50.3159 27.7228 50.3201C27.2084 50.3201 26.8531 49.9281 26.8531 49.3034V42.2968C26.3632 42.7378 25.9589 43.1053 25.5425 43.4605C25.4565 43.5533 25.3522 43.6273 25.2363 43.6779C25.1204 43.7285 24.9952 43.7546 24.8688 43.7546C24.7423 43.7546 24.6171 43.7285 24.5012 43.6779C24.3853 43.6273 24.281 43.5533 24.195 43.4605C24.1108 43.3661 24.0478 43.2547 24.0104 43.1338C23.973 43.0129 23.9621 42.8853 23.9784 42.7598C23.9947 42.6343 24.0377 42.5138 24.1047 42.4065C24.1717 42.2991 24.261 42.2074 24.3665 42.1376C25.2607 41.3169 26.1672 40.5207 27.0614 39.6877C27.143 39.5962 27.243 39.523 27.3549 39.4728C27.4668 39.4227 27.588 39.3967 27.7106 39.3967C27.8332 39.3967 27.9544 39.4227 28.0663 39.4728C28.1782 39.523 28.2782 39.5962 28.3598 39.6877C29.2785 40.4962 30.1849 41.3169 31.0914 42.1376C31.1926 42.207 31.2777 42.2974 31.3409 42.4026C31.4042 42.5077 31.4441 42.6252 31.4581 42.7472C31.472 42.8691 31.4596 42.9926 31.4217 43.1093C31.3838 43.226 31.3213 43.3333 31.2384 43.4238C31.1535 43.5162 31.0503 43.59 30.9354 43.6405C30.8205 43.691 30.6963 43.717 30.5708 43.717C30.4453 43.717 30.3211 43.691 30.2062 43.6405C30.0913 43.59 29.9881 43.5162 29.9032 43.4238L28.5925 42.2968Z" fill="#EF4D24"/>
<path d="M12.987 27.7324C12.5093 27.2056 12.1173 26.7892 11.762 26.3482C11.6005 26.1853 11.5098 25.9652 11.5098 25.7357C11.5098 25.5063 11.6005 25.2862 11.762 25.1233C11.8467 25.0455 11.9463 24.9858 12.0547 24.9478C12.1632 24.9099 12.2783 24.8944 12.393 24.9025C12.5076 24.9105 12.6194 24.9418 12.7216 24.9945C12.8237 25.0472 12.914 25.1202 12.987 25.209C13.8567 26.14 14.7141 27.0954 15.5471 28.0631C15.6301 28.142 15.6962 28.237 15.7414 28.3423C15.7865 28.4476 15.8098 28.561 15.8098 28.6756C15.8098 28.7901 15.7865 28.9035 15.7414 29.0088C15.6962 29.1141 15.6301 29.2091 15.5471 29.288C14.7264 30.2067 13.9179 31.1254 13.0972 32.0196C13.0285 32.1118 12.9421 32.1895 12.8431 32.2481C12.7441 32.3067 12.6345 32.3451 12.5206 32.3611C12.4066 32.377 12.2907 32.3702 12.1794 32.341C12.0681 32.3119 11.9637 32.2609 11.8723 32.1911C11.7745 32.1095 11.6959 32.0074 11.6419 31.892C11.588 31.7767 11.56 31.6509 11.56 31.5235C11.56 31.3962 11.588 31.2704 11.6419 31.155C11.6959 31.0397 11.7745 30.9376 11.8723 30.8559L12.9747 29.631C12.8155 29.4963 12.6562 29.5575 12.5093 29.5575H5.84564C5.63675 29.5784 5.42792 29.5172 5.26332 29.3869C5.09873 29.2566 4.99127 29.0674 4.96369 28.8593C4.91088 28.666 4.93177 28.4599 5.0223 28.2811C5.11284 28.1023 5.26656 27.9635 5.45365 27.8916C5.64246 27.8429 5.84056 27.8429 6.02937 27.8916H12.9502L12.987 27.7324Z" fill="#EF4D24"/>
<path d="M42.4588 29.4719C42.8997 29.9619 43.2672 30.3661 43.6837 30.7948C44.1002 31.2235 44.1124 31.7625 43.6837 32.1177C43.589 32.2028 43.4773 32.2667 43.3559 32.3052C43.2346 32.3436 43.1064 32.3557 42.98 32.3406C42.8536 32.3255 42.7319 32.2836 42.623 32.2177C42.5141 32.1518 42.4205 32.0635 42.3485 31.9585L39.8987 29.2146C39.8172 29.1348 39.7524 29.0395 39.7082 28.9344C39.6641 28.8292 39.6413 28.7163 39.6413 28.6022C39.6413 28.4881 39.6641 28.3752 39.7082 28.27C39.7524 28.1648 39.8172 28.0696 39.8987 27.9897C40.6949 27.0833 41.5033 26.1891 42.3485 25.2949C42.4163 25.1875 42.5065 25.096 42.6129 25.0267C42.7193 24.9574 42.8394 24.9119 42.965 24.8933C43.0906 24.8747 43.2188 24.8834 43.3407 24.9189C43.4626 24.9544 43.5754 25.0158 43.6714 25.0989C43.7692 25.1805 43.8478 25.2826 43.9018 25.398C43.9558 25.5133 43.9837 25.6391 43.9837 25.7665C43.9837 25.8938 43.9558 26.0196 43.9018 26.135C43.8478 26.2503 43.7692 26.3524 43.6714 26.4341C43.4877 26.6545 43.2917 26.8628 43.0957 27.0833L42.5568 27.6835C42.7266 27.7704 42.9212 27.7964 43.108 27.757H49.4286C50.1391 27.757 50.4943 28.051 50.4943 28.6144C50.4943 29.1779 50.1391 29.4964 49.4531 29.4964H42.4955L42.4588 29.4719Z" fill="#EF4D24"/>
<path d="M26.8532 30.6723C26.8532 29.4474 26.8532 29.4474 25.6283 29.4474C25.3098 29.4474 24.979 29.4474 24.6606 29.4474C24.4425 29.4383 24.2359 29.3477 24.0816 29.1934C23.9273 29.0391 23.8366 28.8324 23.8276 28.6144C23.8243 28.3858 23.9111 28.1651 24.0693 28.0001C24.2275 27.835 24.4443 27.7389 24.6728 27.7325C25.273 27.7325 25.8977 27.7325 26.4612 27.7325C26.7429 27.7325 26.8409 27.659 26.8287 27.3772C26.8287 26.8995 26.8287 26.4341 26.8287 25.9686C26.8287 25.1479 27.1349 24.7437 27.7106 24.7437C28.2863 24.7437 28.5681 25.1724 28.5681 25.9686C28.5681 26.4341 28.5681 26.9118 28.5681 27.3772C28.5681 27.8427 28.6661 27.7692 28.9601 27.757C29.5113 27.757 30.0502 27.757 30.5892 27.757C30.7106 27.7406 30.8342 27.7512 30.951 27.788C31.0679 27.8249 31.1752 27.887 31.2653 27.9701C31.3554 28.0531 31.426 28.1551 31.4722 28.2685C31.5183 28.382 31.5389 28.5043 31.5324 28.6267C31.5332 28.748 31.5082 28.8682 31.4591 28.9791C31.4101 29.0901 31.338 29.1894 31.2477 29.2704C31.1574 29.3515 31.0509 29.4125 30.9353 29.4493C30.8196 29.4861 30.6975 29.498 30.577 29.4841C30.038 29.4841 29.4868 29.4841 28.9478 29.4841C28.6416 29.4841 28.5558 29.5821 28.5681 29.8761C28.5681 30.4151 28.5681 30.9663 28.5681 31.5053C28.5781 31.6267 28.5633 31.7489 28.5244 31.8643C28.4855 31.9798 28.4234 32.0861 28.342 32.1767C28.2606 32.2674 28.1615 32.3404 28.0508 32.3913C27.9401 32.4422 27.8202 32.47 27.6984 32.473C27.576 32.4718 27.4552 32.4453 27.3437 32.3949C27.2321 32.3446 27.1323 32.2716 27.0505 32.1806C26.9687 32.0896 26.9067 31.9825 26.8685 31.8663C26.8303 31.75 26.8168 31.6271 26.8287 31.5053L26.8532 30.6723Z" fill="#EF4D24"/>
</svg>
