<svg width="57" height="57" viewBox="0 0 57 57" fill="none" xmlns="http://www.w3.org/2000/svg">
<path d="M0 17.9474C0.759456 17.1512 1.02894 17.1144 2.05788 17.6534L14.0377 23.8516C15.1769 24.4395 15.2626 24.611 14.9931 25.8727C14.9789 25.9702 14.9789 26.0692 14.9931 26.1667C16.0711 25.8972 17.1123 25.6277 18.1657 25.395C19.478 25.0082 20.8167 24.7175 22.1712 24.5253C23.8693 24.3919 25.5699 24.7491 27.0709 25.5542C27.2547 25.6522 27.4017 25.7869 27.6466 25.5542C28.4817 24.8993 29.4692 24.467 30.5168 24.2978C31.5644 24.1285 32.6378 24.2279 33.6365 24.5865C36.2211 25.297 38.8302 25.8114 41.5006 26.5096L41.2678 25.5787C41.1575 25.2733 41.173 24.9366 41.3108 24.6426C41.4486 24.3486 41.6975 24.1214 42.0028 24.0108L51.5695 19.1111C52.5739 18.5844 53.5661 18.0576 54.5828 17.5432C54.7611 17.4155 54.9734 17.3439 55.1925 17.3375C55.4117 17.3311 55.6278 17.3902 55.8132 17.5072C55.9986 17.6242 56.1449 17.7939 56.2334 17.9945C56.3219 18.1951 56.3485 18.4175 56.31 18.6334V38.024C56.336 38.174 56.3314 38.3277 56.2964 38.4759C56.2614 38.6241 56.1967 38.7637 56.1063 38.8861C56.0158 39.0086 55.9015 39.1115 55.7702 39.1886C55.6389 39.2657 55.4933 39.3154 55.3423 39.3347L46.7678 42.0785C45.7756 42.397 45.3101 42.0785 45.0284 41.1108C45.0284 41.0128 44.9426 40.9148 44.9059 40.8046C44.6854 40.9026 44.5017 41.0128 44.2934 41.0863C43.8953 41.1956 43.5376 41.4182 43.2636 41.727C42.9896 42.0357 42.8112 42.4174 42.75 42.8257C42.5932 43.5126 42.2187 44.1304 41.6824 44.5873C41.146 45.0442 40.4765 45.3157 39.7734 45.3613C39.5284 45.3613 39.455 45.447 39.4182 45.7043C39.3182 46.482 38.9593 47.2034 38.3993 47.7522C37.8394 48.3011 37.1109 48.6455 36.3314 48.7299C35.9639 48.7911 35.8537 48.9013 35.8047 49.2933C35.6625 50.2067 35.1663 51.0274 34.4235 51.5776C33.6807 52.1278 32.7511 52.3633 31.8359 52.2332C31.3704 52.1597 31.1132 52.2332 30.9784 52.6864C30.8517 53.0543 30.6323 53.3833 30.3415 53.6418L28.5653 55.4547C28.0305 55.9208 27.3922 56.2526 26.7034 56.4224H25.3928C24.622 56.2478 23.9281 55.8293 23.414 55.2291C22.8999 54.629 22.5929 53.879 22.5387 53.0906C22.5387 52.8946 22.3794 52.9191 22.257 52.9069C21.4562 52.8425 20.7022 52.504 20.122 51.9483C19.5418 51.3927 19.171 50.654 19.0721 49.8568C19.0109 49.5261 18.8884 49.4158 18.5699 49.3791C17.8323 49.281 17.1458 48.9481 16.612 48.4297C16.0782 47.9113 15.7253 47.2349 15.6056 46.5005C15.6056 46.133 15.4464 45.9493 15.0421 45.8758C14.5658 45.8079 14.1086 45.6423 13.6994 45.3893C13.2901 45.1364 12.9375 44.8016 12.6637 44.4059C12.39 44.0102 12.201 43.5623 12.1086 43.0901C12.0162 42.6179 12.0224 42.1317 12.1268 41.662C12.2493 41.123 12.1268 40.9393 11.6613 40.8046L11.4531 40.7188C11.4531 40.8168 11.3796 40.9026 11.3551 40.9883C11.0366 42.1152 10.5956 42.348 9.45645 41.9805C6.74936 41.123 4.05451 40.2533 1.34742 39.4081C0.823306 39.2972 0.350004 39.0175 0 38.6119V17.9474ZM25.3683 27.2446C24.2519 26.7253 22.999 26.5751 21.7915 26.8159C19.3416 27.3426 17.002 27.9551 14.6134 28.5308C14.3194 28.5308 14.2582 28.788 14.1969 29.0208C13.4987 31.9973 12.8005 34.9862 12.0655 37.9627C11.9676 38.3792 12.0655 38.5507 12.4453 38.7222C13.6702 39.2734 13.6702 39.2979 14.5767 38.3425C15.033 37.8204 15.633 37.4443 16.3019 37.2613C16.9707 37.0783 17.6786 37.0965 18.3372 37.3135C18.9911 37.4971 19.5746 37.8734 20.0116 38.3935C20.4486 38.9135 20.7188 39.553 20.787 40.2289C20.787 40.5351 20.9585 40.6331 21.2525 40.6821C22.0306 40.779 22.7534 41.135 23.3044 41.6927C23.8555 42.2505 24.2028 42.9775 24.2903 43.7566C24.2903 43.9036 24.2903 44.1119 24.5108 44.1241C25.7516 44.3303 26.8656 45.0057 27.6221 46.0105C28.8471 47.2354 30.072 48.4604 31.2969 49.6118C31.457 49.7982 31.6646 49.9378 31.8977 50.0157C32.1307 50.0936 32.3805 50.1068 32.6205 50.054C32.8605 50.0013 33.0817 49.8844 33.2606 49.716C33.4395 49.5475 33.5694 49.3337 33.6365 49.0973C33.7069 48.8294 33.698 48.5467 33.6111 48.2837C33.5241 48.0206 33.3628 47.7884 33.1466 47.6152C31.6889 46.1698 30.2435 44.7121 28.7981 43.2667C28.3204 42.789 27.8181 42.3235 27.3649 41.8213C27.2303 41.6833 27.1338 41.5127 27.0848 41.3263C27.0358 41.1398 27.036 40.9438 27.0853 40.7575C27.1347 40.5711 27.2315 40.4008 27.3664 40.263C27.5013 40.1253 27.6696 40.0249 27.8549 39.9716C28.0799 39.9226 28.3141 39.9379 28.5308 40.0159C28.7474 40.0939 28.9377 40.2314 29.0798 40.4126L34.5552 45.888C34.7035 46.0509 34.8677 46.1986 35.0452 46.329C35.2161 46.451 35.4132 46.5313 35.6207 46.5636C35.8282 46.5959 36.0403 46.5793 36.2402 46.515C36.4402 46.4508 36.6223 46.3407 36.7721 46.1935C36.9219 46.0464 37.0353 45.8663 37.1031 45.6675C37.1949 45.3968 37.2007 45.1042 37.1195 44.83C37.0384 44.5558 36.8743 44.3135 36.6499 44.1364C34.7757 42.2745 32.9138 40.4003 31.0519 38.5385C30.8718 38.4122 30.729 38.2399 30.6385 38.0394C30.5479 37.839 30.5131 37.6178 30.5375 37.3993C30.5677 37.1871 30.6592 36.9884 30.8006 36.8275C30.942 36.6665 31.1272 36.5502 31.3337 36.4928C31.5507 36.4191 31.7853 36.4149 32.0049 36.4808C32.2244 36.5467 32.418 36.6793 32.5586 36.8603L38.181 42.6052C38.2988 42.7577 38.4476 42.8835 38.6177 42.9741C38.7877 43.0648 38.9751 43.1182 39.1673 43.131C39.3596 43.1437 39.5524 43.1154 39.7329 43.048C39.9134 42.9806 40.0776 42.8756 40.2144 42.74C40.3507 42.6036 40.4569 42.4402 40.5264 42.2603C40.5959 42.0804 40.627 41.8881 40.6177 41.6955C40.6085 41.5029 40.5591 41.3143 40.4728 41.1419C40.3865 40.9695 40.2651 40.8171 40.1164 40.6943C37.8625 38.318 35.5842 35.9539 33.3426 33.5652C33.2608 33.4497 33.1385 33.3692 33.0001 33.3396C32.8616 33.3101 32.7171 33.3338 32.5954 33.406L27.1934 35.4884C26.5847 35.7523 25.9133 35.8373 25.258 35.7334C24.4533 35.6377 23.6988 35.2919 23.1011 34.7447C22.5033 34.1975 22.0924 33.4765 21.9262 32.6833C21.7599 31.9081 21.831 31.1007 22.1304 30.3665C22.4297 29.6323 22.9434 29.0054 23.6044 28.5675L25.3683 27.2446ZM2.19262 20.2258V37.0073C2.19262 37.2645 2.26612 37.3625 2.5356 37.4483C4.61798 38.0975 6.71261 38.7344 8.77049 39.4449C9.33396 39.6409 9.45645 39.4449 9.56669 38.9794C10.4895 35.027 11.4286 31.0746 12.384 27.1221C12.727 25.7012 12.7393 25.7012 11.4531 25.0275L2.19262 20.2258ZM54.0684 20.287H53.9214C50.5732 22.0264 47.2251 23.7617 43.8769 25.493C43.583 25.6399 43.583 25.8114 43.6442 26.0564C44.6976 30.458 45.7429 34.8555 46.78 39.2489C46.8658 39.6164 46.9883 39.5674 47.2577 39.4816C49.4014 38.7957 51.5572 38.1097 53.7131 37.4483C53.9949 37.3503 54.0806 37.24 54.0806 36.9583C54.0684 31.4216 54.0684 25.8727 54.0684 20.287ZM31.3582 26.4117C30.6503 26.4244 29.9613 26.6413 29.3738 27.0364L24.7313 30.4784C24.5355 30.6192 24.3742 30.8026 24.2596 31.0148C24.1451 31.227 24.0802 31.4624 24.0699 31.7033C24.054 31.9921 24.113 32.28 24.2412 32.5393C24.3694 32.7985 24.5624 33.0202 24.8014 33.1828C25.0405 33.3455 25.3176 33.4437 25.6058 33.4677C25.8939 33.4918 26.1834 33.441 26.4462 33.3203C28.4796 32.5608 30.5007 31.7646 32.5709 30.9929C33.5263 30.6254 33.7958 30.6744 34.445 31.3971C36.8949 33.9817 39.3447 36.5418 41.7946 39.1387C42.113 39.4694 42.3335 39.5184 42.7133 39.2857C43.1582 39.0367 43.6161 38.8118 44.0852 38.6119C44.3424 38.5017 44.3792 38.3792 44.3057 38.1097C43.5625 35.2352 42.8643 32.3403 42.211 29.425C42.1941 29.2757 42.1285 29.1361 42.0245 29.0277C41.9205 28.9192 41.7838 28.848 41.6353 28.8248C39.1855 28.249 36.8214 27.5998 34.4082 27.0854C33.41 26.7901 32.3902 26.573 31.3582 26.4362V26.4117ZM25.6133 47.6887C25.6198 47.4296 25.5486 47.1744 25.4089 46.9561C25.2692 46.7378 25.0673 46.5664 24.8293 46.4637C24.5927 46.3358 24.3206 46.2892 24.055 46.3313C23.7893 46.3734 23.5449 46.5017 23.3594 46.6965C22.7959 47.2354 22.2325 47.7867 21.6935 48.3501C21.5616 48.477 21.4567 48.6292 21.385 48.7976C21.3133 48.9659 21.2764 49.1471 21.2764 49.3301C21.2764 49.5131 21.3133 49.6942 21.385 49.8626C21.4567 50.031 21.5616 50.1832 21.6935 50.31C21.8236 50.4396 21.9788 50.5413 22.1495 50.6087C22.3203 50.6762 22.5031 50.708 22.6866 50.7023C22.8702 50.6966 23.0506 50.6534 23.2169 50.5754C23.3831 50.4974 23.5316 50.3863 23.6534 50.2488C24.1923 49.7343 24.7191 49.1953 25.2458 48.6686C25.3693 48.538 25.4654 48.3841 25.5286 48.2158C25.5917 48.0475 25.6205 47.8683 25.6133 47.6887ZM29.1288 51.1797C29.1185 50.9197 29.0364 50.6675 28.8915 50.4513C28.7466 50.2351 28.5447 50.0632 28.3081 49.9548C28.0703 49.8283 27.7973 49.7838 27.5316 49.828C27.2659 49.8723 27.0222 50.003 26.8382 50.1998C26.2625 50.7387 25.7113 51.3022 25.1723 51.8779C25.0433 52.0014 24.9407 52.1497 24.8706 52.3139C24.8005 52.4781 24.7644 52.6548 24.7644 52.8334C24.7644 53.0119 24.8005 53.1886 24.8706 53.3528C24.9407 53.517 25.0433 53.6653 25.1723 53.7888C25.2973 53.9239 25.4489 54.0317 25.6175 54.1054C25.7861 54.1791 25.9682 54.2171 26.1522 54.2171C26.3363 54.2171 26.5183 54.1791 26.687 54.1054C26.8556 54.0317 27.0072 53.9239 27.1322 53.7888C27.6834 53.2621 28.2224 52.6986 28.7613 52.1597C28.9989 51.8886 29.1295 51.5402 29.1288 51.1797ZM19.2191 47.2232C19.4566 47.2268 19.6873 47.1441 19.8683 46.9905C20.597 46.3867 21.2656 45.7139 21.865 44.9816C22.0622 44.7248 22.1554 44.4031 22.1259 44.0807C22.0964 43.7583 21.9463 43.4588 21.7057 43.2422C21.4668 43.0149 21.1528 42.8831 20.8232 42.8718C20.4936 42.8605 20.1713 42.9705 19.9173 43.1809C19.2681 43.7689 18.6924 44.4059 18.0555 45.0428C17.8827 45.2355 17.7754 45.478 17.749 45.7355C17.7226 45.993 17.7784 46.2522 17.9085 46.476C18.0266 46.717 18.2152 46.9164 18.4493 47.0476C18.6834 47.1789 18.9519 47.2359 19.2191 47.2109V47.2232ZM18.6189 40.7556C18.639 40.4988 18.5776 40.2422 18.4434 40.0223C18.3093 39.8023 18.1092 39.6303 17.8717 39.5306C17.6313 39.3888 17.3497 39.3334 17.0734 39.3735C16.7972 39.4136 16.543 39.5468 16.3528 39.7511C15.7648 40.3023 15.1891 40.8658 14.6501 41.4538C14.5224 41.5792 14.4209 41.7288 14.3516 41.8939C14.2823 42.059 14.2466 42.2363 14.2466 42.4153C14.2466 42.5944 14.2823 42.7717 14.3516 42.9368C14.4209 43.1019 14.5224 43.2515 14.6501 43.3769C14.9082 43.6261 15.253 43.7654 15.6117 43.7654C15.9705 43.7654 16.3152 43.6261 16.5733 43.3769C17.1245 42.8379 17.6512 42.2867 18.1902 41.7478C18.3345 41.6249 18.4483 41.4703 18.5227 41.296C18.5971 41.1217 18.63 40.9325 18.6189 40.7433V40.7556Z" fill="#EF4D24"/>
<path d="M24.3026 9.32382C23.7497 8.45324 23.3999 7.46939 23.279 6.44521C23.1581 5.42102 23.2693 4.38276 23.6044 3.40741C23.9362 2.34573 24.6344 1.43648 25.5745 0.841915C26.5146 0.24735 27.6354 0.00614661 28.7368 0.161346C29.8971 0.331369 30.9579 0.911885 31.7266 1.79746C32.4953 2.68303 32.9209 3.81492 32.9261 4.98757C33.1437 6.50379 32.7854 8.04655 31.9216 9.31156H32.0074C32.3651 9.58578 32.8097 9.72186 33.2597 9.69486C33.7097 9.66786 34.1348 9.4796 34.4572 9.16457C34.822 8.89371 35.2391 8.70181 35.6822 8.60111C35.9271 8.51536 35.9639 8.45411 35.8291 8.23363C35.0415 6.78243 34.8567 5.07953 35.3147 3.49315C35.5382 2.45453 36.1363 1.53454 36.9948 0.908726C37.8533 0.282907 38.9122 -0.00494161 39.9694 0.1001C40.971 0.178435 41.9154 0.598328 42.6445 1.28954C43.3736 1.98075 43.8433 2.90136 43.9749 3.89738C44.3205 5.46927 44.0486 7.11387 43.2155 8.49086C44.3676 8.87176 45.4187 9.50826 46.29 10.3528C47.037 11.0477 47.6383 11.8842 48.0589 12.8137C48.4795 13.7432 48.711 14.7471 48.7399 15.7669C48.7399 16.2079 48.7399 16.6489 48.7399 17.0776C48.7399 17.9718 48.3602 18.3025 47.515 18.3025C44.5996 18.3025 41.6966 18.3025 38.7812 18.3025C38.328 18.3025 38.1565 18.376 38.1443 18.8783C38.1504 19.034 38.1215 19.189 38.0597 19.3321C37.9979 19.4751 37.9048 19.6025 37.7873 19.7048C37.6697 19.807 37.5307 19.8816 37.3805 19.923C37.2303 19.9644 37.0727 19.9716 36.9193 19.9439H33.2445C33.0873 19.9637 32.9277 19.9489 32.7768 19.9006C32.6259 19.8524 32.4873 19.7718 32.3707 19.6645C32.2541 19.5573 32.1623 19.4259 32.1017 19.2795C32.0411 19.1331 32.013 18.9753 32.0196 18.817C32.0182 18.6622 32.0501 18.5089 32.1132 18.3675C32.1763 18.2261 32.2692 18.1 32.3854 17.9977C32.5016 17.8954 32.6385 17.8194 32.7868 17.7748C32.935 17.7301 33.0912 17.718 33.2445 17.7391C33.9918 17.7391 34.7512 17.7391 35.4984 17.7391C35.8414 17.7391 35.9271 17.6533 35.9271 17.3103C35.8699 15.8867 35.3442 14.5217 34.4316 13.4275C33.5191 12.3333 32.2707 11.5711 30.8804 11.2592H30.8192C29.3248 10.9652 29.3248 10.9652 29.3125 12.4841C29.3125 13.2558 28.896 13.7091 28.2223 13.7091C28.0645 13.7159 27.907 13.688 27.7611 13.6273C27.6152 13.5666 27.4845 13.4745 27.3781 13.3576C27.2718 13.2408 27.1924 13.1019 27.1457 12.951C27.0989 12.8 27.086 12.6407 27.1077 12.4841V11.9942C27.1077 11.0877 27.1077 11.0877 26.2135 11.1612C24.6872 11.3345 23.2727 12.0465 22.2243 13.169C21.1758 14.2916 20.5619 15.7513 20.493 17.2859C20.493 17.6533 20.591 17.7513 20.9463 17.7391C21.6935 17.7391 22.4529 17.7391 23.2001 17.7391C23.3512 17.725 23.5036 17.7434 23.647 17.7929C23.7905 17.8425 23.9217 17.9222 24.0319 18.0265C24.142 18.1309 24.2286 18.2576 24.2859 18.3982C24.3431 18.5387 24.3697 18.6899 24.3638 18.8415C24.365 18.9968 24.333 19.1505 24.27 19.2923C24.207 19.4342 24.1144 19.561 23.9984 19.6642C23.8825 19.7675 23.7458 19.8447 23.5976 19.8908C23.4493 19.937 23.2929 19.9509 23.1389 19.9317H19.4641C19.3039 19.9566 19.1402 19.9447 18.9853 19.8967C18.8304 19.8488 18.6885 19.7662 18.5704 19.6552C18.4523 19.5441 18.3611 19.4076 18.3037 19.256C18.2463 19.1044 18.2242 18.9417 18.2392 18.7803C18.2392 18.327 18.0677 18.2903 17.688 18.2903H8.91746C7.92527 18.2903 7.59454 17.9351 7.55779 16.9306C7.38794 14.9646 7.91238 13.0012 9.03996 11.3817C9.93167 10.1199 11.1821 9.1554 12.629 8.61335C12.9965 8.47861 13.0332 8.36837 12.8372 8.02539C12.257 6.93113 12.0302 5.68391 12.1882 4.45544C12.3461 3.22697 12.881 2.07768 13.7192 1.16579C14.3273 0.583939 15.0961 0.198133 15.926 0.0583539C16.756 -0.0814248 17.6088 0.0312681 18.3739 0.381833C19.1715 0.675997 19.8604 1.20653 20.3485 1.90256C20.8366 2.5986 21.1007 3.427 21.1055 4.27711C21.3451 5.65936 21.103 7.08199 20.4195 8.30712C20.3093 8.45411 20.346 8.51536 20.5175 8.57661C21.3177 8.84624 22.0611 9.26153 22.7102 9.80154C22.7681 9.84623 22.8391 9.87048 22.9123 9.87048C22.9854 9.87048 23.0565 9.84623 23.1144 9.80154L24.3026 9.32382ZM20.934 11.3082C20.3378 10.8896 19.6557 10.6092 18.9374 10.4875C17.8594 10.2793 17.8594 10.3038 17.7982 11.3817C17.7982 11.5275 17.7693 11.6719 17.7131 11.8064C17.657 11.941 17.5747 12.0631 17.471 12.1656C17.3673 12.2681 17.2443 12.3491 17.1092 12.4038C16.974 12.4584 16.8293 12.4857 16.6835 12.4841C16.5372 12.4858 16.3921 12.458 16.2568 12.4025C16.1215 12.3469 15.9987 12.2646 15.8959 12.1606C15.793 12.0566 15.7121 11.933 15.658 11.797C15.6039 11.6611 15.5778 11.5157 15.5811 11.3694C15.5811 10.3405 15.5811 10.3405 14.5399 10.4752C13.2633 10.7006 12.0994 11.3485 11.2353 12.3148C10.3711 13.2812 9.8568 14.5099 9.77491 15.8037C9.77491 16.0364 9.77491 16.2079 10.1056 16.2079C12.7392 16.2079 15.3728 16.2079 18.0064 16.2079C18.1657 16.2079 18.3127 16.2079 18.3617 15.9874C18.6992 14.1937 19.6004 12.5544 20.934 11.3082ZM42.26 16.2079C43.485 16.2079 44.7834 16.2079 46.0451 16.2079C46.4493 16.2079 46.5105 16.0732 46.4983 15.7057C46.3915 14.4513 45.8816 13.2651 45.0448 12.3246C44.208 11.384 43.0892 10.7395 41.8558 10.4875C40.7534 10.2915 40.7534 10.2915 40.6309 11.4062C40.6325 11.5482 40.6057 11.6891 40.5522 11.8206C40.4986 11.9522 40.4192 12.0716 40.3188 12.1721C40.2184 12.2725 40.0989 12.3518 39.9674 12.4054C39.8359 12.459 39.6949 12.4858 39.5529 12.4841C39.4067 12.4891 39.261 12.4645 39.1244 12.4119C38.9879 12.3594 38.8633 12.2798 38.7582 12.1781C38.653 12.0764 38.5694 11.9545 38.5124 11.8198C38.4553 11.6851 38.4259 11.5403 38.426 11.3939C38.4454 11.179 38.4823 10.966 38.5362 10.757C38.5362 10.4752 38.4627 10.3773 38.1688 10.4017C37.3157 10.4795 36.4848 10.7163 35.7189 11.1C35.4249 11.2592 35.4127 11.3694 35.6454 11.6022C36.8109 12.7478 37.6084 14.2149 37.936 15.8159C38.0095 16.1957 38.1688 16.2202 38.475 16.2202L42.26 16.2079ZM30.6844 5.85727C30.6844 5.40404 30.6844 5.11006 30.6844 4.81608C30.6561 4.1585 30.3756 3.53709 29.9011 3.0809C29.4267 2.6247 28.7948 2.36876 28.1366 2.36622C27.4805 2.37189 26.8517 2.62922 26.3799 3.0851C25.908 3.54097 25.6292 4.1606 25.601 4.81608C25.601 5.39179 25.601 5.95526 25.601 6.51873C25.6153 7.10946 25.8345 7.67685 26.2211 8.12376C26.6077 8.57068 27.1376 8.86933 27.7201 8.96859C28.3301 9.06793 28.9555 8.94435 29.4818 8.62045C30.0081 8.29655 30.4003 7.79398 30.5865 7.20468C30.6789 6.7619 30.7119 6.30877 30.6844 5.85727ZM18.9374 5.35504C18.9374 5.02431 18.9374 4.76708 18.9374 4.50985C18.916 3.93956 18.679 3.39863 18.2743 2.99623C17.8697 2.59383 17.3274 2.35993 16.757 2.34172C16.1843 2.33771 15.6319 2.55429 15.2146 2.94656C14.7972 3.33884 14.5468 3.87669 14.5154 4.4486C14.4848 4.9953 14.4848 5.54329 14.5154 6.09C14.5421 6.61392 14.7558 7.1109 15.1176 7.49073C15.4795 7.87055 15.9655 8.10806 16.4875 8.16013C16.9907 8.20197 17.4935 8.07549 17.9169 7.80057C18.3404 7.52564 18.6606 7.11784 18.8271 6.64122C18.928 6.22043 18.9652 5.78687 18.9374 5.35504ZM41.8558 5.2693C41.8558 5.01207 41.8558 4.75483 41.8558 4.50985C41.8385 3.95399 41.614 3.42467 41.2265 3.02581C40.8389 2.62694 40.3163 2.38731 39.7612 2.35397C39.2368 2.30995 38.714 2.45492 38.2872 2.76268C37.8603 3.07044 37.5577 3.5207 37.4338 4.03212C37.3173 4.75425 37.3173 5.49037 37.4338 6.2125C37.4965 6.73344 37.7409 7.21558 38.124 7.57407C38.5072 7.93256 39.0045 8.14442 39.5284 8.17238C40.044 8.19077 40.5502 8.03174 40.9626 7.72187C41.3751 7.41199 41.6687 6.97001 41.7945 6.46973C41.8278 6.07049 41.836 5.66956 41.819 5.2693H41.8558Z" fill="#EF4D24"/>
<path d="M28.1243 17.8371C28.269 17.8321 28.4131 17.8564 28.5481 17.9083C28.6832 17.9603 28.8064 18.0389 28.9104 18.1395C29.0144 18.2401 29.0971 18.3606 29.1536 18.4938C29.2101 18.627 29.2391 18.7703 29.239 18.915C29.2423 19.2085 29.1297 19.4915 28.9256 19.7025C28.7214 19.9135 28.4423 20.0355 28.1488 20.0419C28.003 20.0435 27.8584 20.0162 27.7232 19.9615C27.588 19.9069 27.465 19.8259 27.3614 19.7234C27.2577 19.6209 27.1754 19.4988 27.1192 19.3642C27.0631 19.2297 27.0341 19.0853 27.0342 18.9395C27.0291 18.7944 27.0538 18.6498 27.1066 18.5146C27.1594 18.3793 27.2394 18.2563 27.3414 18.1531C27.4435 18.0499 27.5656 17.9686 27.7003 17.9142C27.8349 17.8599 27.9792 17.8336 28.1243 17.8371Z" fill="#EF4D24"/>
</svg>
