<svg width="53" height="53" viewBox="0 0 53 53" fill="none" xmlns="http://www.w3.org/2000/svg">
<path d="M17.039 30.5151C16.9655 30.3804 16.9655 30.1966 16.8063 30.1109L16.5613 30.0129C16.1693 29.8659 15.5936 29.8292 15.4221 29.5474C15.2506 29.2657 15.3364 28.6532 15.3364 28.2C15.3364 26.6688 15.3364 25.1499 15.3364 23.6188C15.3364 23.3125 15.4221 23.1778 15.7039 23.1043C16.029 23.0144 16.3481 22.9039 16.6593 22.7736C16.7339 22.7612 16.804 22.7299 16.863 22.6826C16.922 22.6353 16.9678 22.5737 16.9961 22.5035C17.0244 22.4334 17.0342 22.3572 17.0246 22.2822C17.0149 22.2073 16.9861 22.136 16.941 22.0754C16.7695 21.6466 16.3408 21.2424 16.4511 20.8504C16.5613 20.4585 17.0268 20.2012 17.333 19.895C18.3987 18.8293 19.4766 17.7636 20.5301 16.6857C20.5667 16.6319 20.6138 16.5861 20.6687 16.5512C20.7236 16.5163 20.7851 16.493 20.8493 16.4827C20.9135 16.4723 20.9792 16.4752 21.0422 16.4912C21.1053 16.5071 21.1644 16.5358 21.216 16.5754C21.51 16.7347 21.8163 16.8572 22.1225 17.0164C22.4287 17.1756 22.6492 17.0164 22.7962 16.7469V16.5999C23.2249 15.375 23.2249 15.375 24.4866 15.375H29.1168C29.4476 15.375 29.6435 15.375 29.717 15.7792C29.793 16.0721 29.8912 16.3588 30.011 16.6367C30.1335 17.0409 30.3785 17.1389 30.7705 16.9674C31.1625 16.7959 31.6034 16.3549 31.9954 16.4774C32.3874 16.5999 32.6691 17.0654 32.9998 17.3839C34.0533 18.4373 35.0945 19.503 36.1724 20.5442C36.2258 20.581 36.2713 20.6279 36.3064 20.6824C36.3415 20.7369 36.3655 20.7978 36.3769 20.8616C36.3882 20.9254 36.3869 20.9908 36.3728 21.0541C36.3587 21.1174 36.3323 21.1772 36.2949 21.2302C36.1234 21.5119 36.0009 21.8304 35.8539 22.1244C35.8145 22.1832 35.7894 22.2504 35.7807 22.3207C35.772 22.391 35.7798 22.4623 35.8037 22.529C35.8275 22.5957 35.8666 22.6559 35.9179 22.7048C35.9691 22.7536 36.0311 22.7898 36.0989 22.8103C36.5276 22.9696 37.1401 23.0186 37.3238 23.3248C37.5076 23.631 37.3973 24.2557 37.3973 24.7335C37.3973 26.2156 37.3973 27.71 37.3973 29.2044C37.3973 29.5229 37.3238 29.6822 37.0054 29.7557C36.6831 29.842 36.3678 29.9526 36.0622 30.0864C35.7559 30.2089 35.6212 30.4294 35.7804 30.7479L35.8539 30.8948C36.3929 32.0463 36.3929 32.0463 35.511 32.9405C34.4208 34.0307 33.3183 35.1086 32.2404 36.211C32.2025 36.2683 32.1532 36.3172 32.0956 36.3547C32.038 36.3922 31.9733 36.4174 31.9056 36.4289C31.8378 36.4404 31.7685 36.4379 31.7017 36.4214C31.635 36.405 31.5724 36.3751 31.5177 36.3335C31.2482 36.1743 30.942 36.0518 30.6602 35.9171C30.5985 35.8724 30.5265 35.8441 30.4509 35.8347C30.3753 35.8253 30.2986 35.8351 30.2278 35.8631C30.157 35.8912 30.0944 35.9367 30.0458 35.9954C29.9972 36.054 29.9642 36.124 29.9498 36.1988C29.8028 36.6153 29.766 37.2032 29.4598 37.4237C29.1536 37.6442 28.5779 37.4972 28.1124 37.4972C26.6425 37.4972 25.1726 37.4972 23.6904 37.4972C23.6071 37.5129 23.5215 37.5112 23.4389 37.4921C23.3564 37.473 23.2787 37.437 23.2108 37.3863C23.1428 37.3357 23.0862 37.2715 23.0443 37.1978C23.0025 37.1241 22.9764 37.0425 22.9677 36.9582C22.9064 36.701 22.7962 36.456 22.7104 36.1988C22.6247 35.9416 22.3675 35.7211 21.9877 35.8803C21.608 36.0395 21.1303 36.5173 20.7628 36.3703C20.3953 36.2233 20.0646 35.7578 19.7216 35.4148L17.1248 32.818C16.3163 32.0095 16.3163 32.0095 16.8063 30.9928L17.039 30.5151ZM21.2405 18.4863C21.069 18.4863 21.0078 18.6211 20.9098 18.7191L19.1827 20.4462C18.4967 21.1322 18.4844 21.1322 18.8887 22.0386C19.1092 22.5163 18.6682 22.8103 18.5947 23.19C18.5582 23.4964 18.4159 23.7804 18.1922 23.9929C17.9685 24.2054 17.6776 24.333 17.3698 24.3537C17.318 24.3564 17.2673 24.3701 17.2212 24.3938C17.1751 24.4175 17.1345 24.4506 17.1021 24.4911C17.0697 24.5316 17.0462 24.5785 17.0332 24.6287C17.0203 24.6789 17.0181 24.7313 17.0268 24.7825C17.0268 25.8726 17.0268 26.9506 17.0268 28.0408C17.0268 28.2245 17.0268 28.396 17.2718 28.4327C18.0312 28.5307 18.3252 29.033 18.6069 29.6577C18.7567 29.8985 18.8361 30.1764 18.8361 30.46C18.8361 30.7436 18.7567 31.0215 18.6069 31.2623C18.5652 31.2991 18.5318 31.3443 18.5089 31.395C18.4861 31.4457 18.4742 31.5007 18.4742 31.5563C18.4742 31.6119 18.4861 31.6669 18.5089 31.7176C18.5318 31.7683 18.5652 31.8135 18.6069 31.8503C19.3786 32.5852 20.1258 33.3325 20.8731 34.1042C20.9048 34.1497 20.9453 34.1885 20.9923 34.2182C21.0392 34.2479 21.0916 34.2679 21.1464 34.277C21.2012 34.2862 21.2572 34.2842 21.3113 34.2714C21.3653 34.2585 21.4162 34.235 21.461 34.2022C21.7183 34.0552 22.0367 33.7979 22.2572 33.8469C22.8356 34.0097 23.3942 34.2356 23.9231 34.5206C24.1804 34.6554 24.1926 35.0106 24.2539 35.2801C24.3151 35.5496 24.5723 35.7456 24.9398 35.7333C25.883 35.7333 26.8262 35.7333 27.7572 35.7333C28.1981 35.7333 28.4309 35.6353 28.4921 35.2066C28.5084 34.9757 28.6059 34.758 28.7673 34.5921C28.9287 34.4261 29.1437 34.3227 29.3741 34.3001C29.5116 34.2782 29.6418 34.2236 29.7538 34.1409C29.968 33.976 30.2307 33.8866 30.501 33.8866C30.7713 33.8866 31.034 33.976 31.2482 34.1409C31.5299 34.3369 31.7014 34.2389 31.9219 34.0184C32.4731 33.4305 33.0611 32.867 33.6368 32.279C34.2125 31.6911 34.3473 31.5931 33.9308 30.6866C33.7226 30.2334 34.139 29.9517 34.2125 29.5842C34.2447 29.2703 34.3841 28.9771 34.6072 28.7539C34.8303 28.5308 35.1236 28.3914 35.4375 28.3592C35.6824 28.3592 35.7682 28.1878 35.7682 27.9305C35.7682 26.8403 35.7682 25.7624 35.7682 24.6722C35.7682 24.4885 35.7682 24.3047 35.5232 24.2802C34.7147 24.1945 34.4575 23.6065 34.1635 22.9573C34.0108 22.7267 33.9293 22.4561 33.9293 22.1795C33.9293 21.9028 34.0108 21.6323 34.1635 21.4017C34.3228 21.1934 34.3105 21.0219 34.09 20.8137C33.3183 20.0665 32.5589 19.2948 31.7994 18.5231C31.6524 18.3883 31.5299 18.2903 31.3462 18.4251C31.0749 18.6083 30.7549 18.7063 30.4275 18.7063C30.1001 18.7063 29.7801 18.6083 29.5088 18.4251C28.9086 18.1801 28.4921 17.8984 28.3941 17.2001C28.3941 16.8694 28.1614 16.8327 27.8674 16.8327C26.8385 16.8327 25.8095 16.8327 24.7806 16.8327C24.6624 16.8145 24.5418 16.8426 24.4437 16.911C24.3456 16.9794 24.2776 17.083 24.2539 17.2001C24.1559 17.4941 24.1681 17.9474 23.8741 18.0453C23.0534 18.3148 22.2572 19.111 21.3018 18.3271C21.2724 18.3763 21.2517 18.4301 21.2405 18.4863Z" fill="#EF4D24"/>
<path d="M45.4451 39.2243C43.5392 42.0546 41.029 44.4267 38.0956 46.1697C33.94 48.6685 29.0938 49.7717 24.2661 49.3177C21.8172 49.0914 19.4195 48.4795 17.1615 47.5048C16.7573 47.3333 16.7083 47.1741 16.9043 46.8189C17.1003 46.4636 17.186 45.9859 17.4678 45.8389C17.7495 45.6919 18.1537 46.0594 18.5089 46.1942C22.957 47.9626 27.873 48.1721 32.4554 46.7885C37.0378 45.4049 41.0164 42.5097 43.7425 38.5751C43.8919 38.4077 43.9972 38.2056 44.0487 37.9871L39.835 39.0651C39.4675 39.1631 39.2592 39.1508 39.2102 38.6853C39.1612 38.2199 38.8183 37.8401 39.002 37.5462C39.1857 37.2522 39.7002 37.2889 40.0799 37.2032C42.1501 36.6887 44.2202 36.1865 46.2903 35.6475C46.6456 35.5495 46.6946 35.6475 46.7313 35.9538L47.4295 41.5272C47.4295 42.0294 47.552 42.5194 47.6377 43.0093C47.6377 43.2421 47.6377 43.3768 47.356 43.3891C46.9273 43.3891 46.4373 43.6341 46.1311 43.4871C45.8249 43.3401 45.9351 42.7521 45.8739 42.3601C45.7024 41.3679 45.5921 40.3512 45.4451 39.2243Z" fill="#EF4D24"/>
<path d="M5.10823 6.81267C5.10823 5.39175 5.10823 3.98308 5.10823 2.56217C5.09266 2.22288 5.14781 1.88405 5.27018 1.56722C5.39254 1.25038 5.57945 0.96245 5.81904 0.721708C6.05863 0.480966 6.34567 0.292671 6.66192 0.168784C6.97817 0.0448966 7.31671 -0.0118777 7.65607 0.00206527H16.2306C16.564 0.00364858 16.8939 0.0713079 17.201 0.201133C17.5082 0.330958 17.7865 0.520374 18.02 0.758431C18.2535 0.996489 18.4375 1.27847 18.5614 1.58807C18.6853 1.89766 18.7465 2.22874 18.7417 2.56217V11.1367C18.742 11.4679 18.6752 11.7957 18.5452 12.1004C18.4153 12.405 18.2249 12.6802 17.9856 12.9092C17.7463 13.1381 17.4631 13.3162 17.153 13.4327C16.8429 13.5491 16.5125 13.6014 16.1816 13.5865H7.60708C7.28228 13.5914 6.95975 13.5316 6.65827 13.4107C6.35678 13.2898 6.08236 13.1101 5.85097 12.8821C5.61957 12.6541 5.43582 12.3824 5.31041 12.0828C5.185 11.7831 5.12043 11.4615 5.12047 11.1367C5.10822 9.6545 5.10823 8.23359 5.10823 6.81267ZM17.039 6.87392V2.83165C17.039 2.01095 16.7328 1.70472 15.9121 1.70472H7.93781C7.12936 1.70472 6.82313 2.01095 6.82313 2.83165C6.82313 5.49383 6.82313 8.15192 6.82313 10.8059C6.82313 11.6144 7.12936 11.9206 7.93781 11.9206H15.9121C16.7328 11.9206 17.039 11.6144 17.039 10.8059V6.87392Z" fill="#EF4D24"/>
<path d="M52.8069 26.436C52.8069 27.8325 52.8069 29.2289 52.8069 30.6376C52.8103 30.9762 52.7455 31.3121 52.6164 31.6251C52.4872 31.9382 52.2963 32.2221 52.0552 32.4598C51.814 32.6976 51.5274 32.8843 51.2125 33.009C50.8976 33.1336 50.5609 33.1936 50.2223 33.1854H41.7703C41.4291 33.1921 41.09 33.1298 40.7734 33.0022C40.4568 32.8747 40.1692 32.6846 39.9279 32.4432C39.6866 32.2019 39.4964 31.9143 39.3689 31.5977C39.2414 31.2811 39.1791 30.942 39.1857 30.6008V22.161C39.1773 21.8193 39.2384 21.4795 39.3654 21.1621C39.4923 20.8447 39.6823 20.5565 39.924 20.3148C40.1657 20.0731 40.454 19.883 40.7714 19.7561C41.0888 19.6292 41.4286 19.568 41.7703 19.5764H50.2223C50.564 19.568 50.9039 19.6292 51.2213 19.7561C51.5386 19.883 51.8269 20.0731 52.0686 20.3148C52.3103 20.5565 52.5004 20.8447 52.6273 21.1621C52.7542 21.4795 52.8153 21.8193 52.8069 22.161C52.8192 23.5942 52.8069 25.0151 52.8069 26.436ZM40.8884 26.436V30.4171C40.8884 31.2378 41.1946 31.544 42.0153 31.544H49.9896C50.7981 31.544 51.1043 31.2255 51.1043 30.4171V22.4428C51.1043 21.6221 50.798 21.3158 49.9773 21.3158H42.0031C41.1946 21.3158 40.8884 21.6221 40.8884 22.4428V26.436Z" fill="#EF4D24"/>
<path d="M6.93337 39.1875H11.1349C11.4683 39.1907 11.7979 39.2599 12.1044 39.3912C12.411 39.5225 12.6884 39.7133 12.9208 39.9525C13.1532 40.1917 13.3358 40.4746 13.4582 40.7848C13.5806 41.095 13.6402 41.4264 13.6337 41.7599V50.3344C13.6145 50.9972 13.3351 51.6258 12.856 52.0842C12.3769 52.5427 11.7367 52.7941 11.0736 52.7842H2.56038C2.22281 52.7892 1.88769 52.7263 1.57484 52.5994C1.262 52.4725 0.977798 52.2841 0.739077 52.0454C0.500356 51.8067 0.311963 51.5225 0.185059 51.2096C0.058156 50.8968 -0.00468129 50.5617 0.000271581 50.2241V41.7599C-0.00303191 41.4233 0.0610255 41.0895 0.188667 40.7781C0.316308 40.4667 0.504954 40.1839 0.743507 39.9465C0.98206 39.7091 1.2657 39.5218 1.57772 39.3957C1.88974 39.2695 2.22385 39.2071 2.56038 39.212L6.93337 39.1875ZM11.9923 45.9736V41.9803C11.9923 41.2086 11.6739 40.8902 10.8899 40.8902H2.86661C2.08266 40.8902 1.76417 41.1964 1.76417 41.9803V50.0036C1.76417 50.7876 2.08266 51.1061 2.86661 51.1061H10.8899C11.6739 51.1061 11.9801 50.7876 11.9923 50.0159V45.9736Z" fill="#EF4D24"/>
<path d="M25.0133 5.13455L27.4632 6.72696C27.7204 6.89845 27.7817 7.03319 27.5612 7.29042C27.3407 7.54766 27.1325 8.17237 26.814 8.28261C26.4955 8.39286 26.1158 7.90289 25.7605 7.6824L20.6893 4.30159C20.7628 4.09336 20.9343 4.05661 21.0568 3.97087L26.4832 0.296082C26.7405 0.124592 26.863 0.11234 27.059 0.394074C27.8062 1.50876 27.8184 1.49651 26.6915 2.25597L25.0378 3.3584H26.5322C30.6399 3.35304 34.6723 4.46066 38.2008 6.56356C41.7294 8.66646 44.6223 11.6861 46.5721 15.3015C46.8293 15.7424 46.7068 15.8772 46.3271 16.0732C45.3104 16.5754 45.3349 16.5876 44.7714 15.6567C43.2344 12.997 41.1344 10.7055 38.6185 8.94294C36.1026 7.18034 33.2317 5.98921 30.207 5.45303C28.4941 5.14495 26.7511 5.03806 25.0133 5.13455Z" fill="#EF4D24"/>
<path d="M4.97347 34.4103C4.59308 33.3838 4.27002 32.3369 4.00577 31.2745C2.87281 26.502 3.35088 21.4887 5.36544 17.0163C5.51244 16.6979 5.64717 16.6244 5.9534 16.8081C6.25964 16.9918 6.82311 17.0776 6.9946 17.3716C7.16609 17.6656 6.77411 18.0943 6.63937 18.4618C5.38887 21.5675 4.90566 24.929 5.2307 28.2612C5.42555 30.1765 5.90873 32.0514 6.66387 33.8224L7.57031 29.9393C7.64381 29.6454 7.7173 29.4739 8.09703 29.6209C8.47676 29.7678 9.07697 29.6821 9.32196 29.9761C9.56694 30.2701 9.19947 30.7723 9.10147 31.201C8.6115 33.2834 8.10928 35.3535 7.63156 37.4359C7.54582 37.7911 7.44782 37.7666 7.19059 37.6196L0.808708 34.1653C0.539224 34.0306 0.428981 33.9204 0.637219 33.6264C0.845457 33.3324 0.967946 32.6464 1.32318 32.5607C1.67841 32.4749 2.05813 32.8914 2.42561 33.0874L4.77747 34.4103H4.97347Z" fill="#EF4D24"/>
<path d="M19.5869 26.3625C19.5917 25.4671 19.773 24.5814 20.1205 23.7562C20.468 22.9309 20.9748 22.1823 21.612 21.5531C22.2491 20.9239 23.004 20.4266 23.8336 20.0895C24.6632 19.7524 25.5511 19.5822 26.4465 19.5887C27.3424 19.5919 28.2288 19.7721 29.0548 20.119C29.8808 20.4659 30.6301 20.9727 31.2596 21.6102C31.8891 22.2476 32.3864 23.0032 32.7229 23.8335C33.0594 24.6638 33.2284 25.5524 33.2203 26.4483C33.2123 27.3411 33.0286 28.2235 32.6795 29.0453C32.3304 29.867 31.8229 30.612 31.1859 31.2376C30.5489 31.8632 29.795 32.3572 28.9671 32.6914C28.1392 33.0256 27.2535 33.1935 26.3607 33.1854C24.5587 33.1757 22.834 32.4521 21.5643 31.1733C20.2947 29.8945 19.5836 28.1646 19.5869 26.3625ZM26.3975 21.2913C25.0468 21.3073 23.7563 21.8527 22.8034 22.8102C21.8505 23.7676 21.3113 25.0607 21.3018 26.4115C21.3178 27.7634 21.8627 29.0552 22.8198 30.0101C23.777 30.9649 25.0701 31.5068 26.422 31.5195C27.7738 31.5003 29.0644 30.9522 30.0169 29.9928C30.9695 29.0334 31.5082 27.739 31.5177 26.387C31.4986 25.0373 30.9522 23.7486 29.9954 22.7964C29.0386 21.8442 27.7473 21.304 26.3975 21.2913Z" fill="#EF4D24"/>
<path d="M15.9244 4.86504L15.7039 5.11003L10.4734 10.3527C10.2774 10.5487 10.1795 10.561 9.97122 10.3527C9.36692 9.72392 8.75446 9.11146 8.13383 8.51533C7.92559 8.30709 7.93784 8.17235 8.13383 8.01311C8.44006 7.71912 8.72179 7.22915 9.06477 7.18015C9.40775 7.13116 9.66498 7.65788 9.93447 7.96411C10.2039 8.27034 10.3142 8.04985 10.4734 7.89061C11.7719 6.59219 13.0703 5.30601 14.3442 3.99534C14.6259 3.70135 14.7974 3.7136 15.0424 3.99534C15.2471 4.23871 15.4681 4.46789 15.7039 4.6813C15.7039 4.6813 15.8631 4.79154 15.9244 4.86504Z" fill="#EF4D24"/>
<path d="M50.0018 24.4395C49.9283 24.5252 49.8671 24.6232 49.7936 24.6967C48.0297 26.4483 46.2658 28.2 44.5264 29.9639C44.3304 30.1476 44.2324 30.1354 44.0609 29.9639C43.4485 29.3392 42.836 28.739 42.2113 28.1265C42.0276 27.9428 41.9663 27.7958 42.2113 27.6243C42.2113 27.6243 42.2113 27.6243 42.2848 27.5508C42.5788 27.269 42.8483 26.8036 43.1667 26.7546C43.4852 26.7056 43.7792 27.22 44.0487 27.514C44.3182 27.808 44.4039 27.6488 44.5877 27.514C45.8126 26.2156 47.1723 24.9294 48.4462 23.631C48.7157 23.3493 48.8872 23.2758 49.1444 23.631C49.3534 23.8706 49.5785 24.0957 49.8181 24.3047L50.0018 24.4395Z" fill="#EF4D24"/>
<path d="M5.26748 49.722C5.19158 49.7302 5.11487 49.7174 5.04574 49.685C4.97661 49.6526 4.91772 49.6018 4.8755 49.5382C4.26304 48.9258 3.65057 48.3133 3.02586 47.7008C2.84212 47.5171 2.79312 47.3701 3.02586 47.1986C3.02586 47.1986 3.02586 47.1986 3.1116 47.1251C3.39333 46.8434 3.66282 46.3657 3.99355 46.3289C4.32428 46.2922 4.59376 46.8066 4.86325 47.1006C5.13273 47.3946 5.23073 47.2109 5.40222 47.1006C6.70065 45.8022 7.99907 44.516 9.273 43.2176C9.54248 42.9359 9.71397 42.8869 9.97121 43.2176C10.2284 43.5483 10.7429 43.8178 10.7307 44.1118C10.7184 44.4058 10.2529 44.712 9.95896 44.9937L5.45122 49.5137C5.38105 49.5747 5.31927 49.6447 5.26748 49.722Z" fill="#EF4D24"/>
<path d="M26.422 22.994C26.8696 22.994 27.3129 23.0825 27.7261 23.2546C28.1394 23.4266 28.5146 23.6787 28.83 23.9964C29.1453 24.3141 29.3948 24.691 29.5638 25.1055C29.7329 25.52 29.8183 25.9639 29.815 26.4115C29.8168 26.8633 29.7282 27.3109 29.5546 27.7281C29.381 28.1452 29.1258 28.5235 28.8041 28.8407C28.4823 29.1578 28.1004 29.4076 27.6809 29.5752C27.2613 29.7428 26.8125 29.825 26.3607 29.8168C25.9141 29.812 25.4728 29.7191 25.0622 29.5434C24.6515 29.3676 24.2797 29.1126 23.9678 28.7928C23.656 28.473 23.4104 28.0948 23.2451 27.6798C23.0797 27.2649 22.998 26.8214 23.0044 26.3748C23.0044 25.9277 23.0931 25.485 23.2653 25.0725C23.4375 24.6599 23.6898 24.2855 24.0076 23.9711C24.3255 23.6567 24.7025 23.4084 25.1169 23.2407C25.5314 23.073 25.9749 22.9891 26.422 22.994ZM26.422 24.7089C25.9776 24.7212 25.5548 24.9033 25.2404 25.2177C24.926 25.532 24.7439 25.9549 24.7316 26.3993C24.7438 26.8449 24.9254 27.2691 25.2395 27.5854C25.5536 27.9018 25.9765 28.0865 26.422 28.1019C26.876 28.0924 27.3085 27.9071 27.6284 27.5848C27.9483 27.2626 28.1306 26.8288 28.1369 26.3748C28.1179 25.9263 27.9263 25.5025 27.6022 25.1921C27.278 24.8816 26.8464 24.7085 26.3975 24.7089H26.422Z" fill="#EF4D24"/>
</svg>
