<svg width="55" height="54" viewBox="0 0 55 54" fill="none" xmlns="http://www.w3.org/2000/svg">
<path d="M54.866 52.6474C54.7567 52.8281 54.5988 52.9744 54.4104 53.0697C54.222 53.165 54.0106 53.2054 53.8003 53.1864H1.12837C0.295415 53.1864 0.0381799 52.9292 0.0381799 52.1085V47.1107C0.0381799 46.4983 0.356661 46.1186 0.846633 46.1186C1.3366 46.1186 1.64284 46.4983 1.65509 47.1107C1.65509 48.4459 1.65509 49.7811 1.65509 51.1285C1.65509 51.4715 1.74083 51.5695 2.09606 51.5695C4.89706 51.5695 7.69807 51.5695 10.4991 51.5695C10.8788 51.5695 10.94 51.447 10.94 51.104C10.94 49.0298 10.94 46.9597 10.94 44.8936C10.9421 44.6622 10.8642 44.4372 10.7196 44.2567C9.88661 43.191 9.07815 42.1008 8.2697 41.0228C8.15144 40.8964 8.07689 40.7353 8.05705 40.5633C8.0372 40.3913 8.0731 40.2175 8.15946 40.0674C8.24753 39.9204 8.38201 39.807 8.54169 39.7449C8.70138 39.6828 8.87718 39.6756 9.04141 39.7244C9.29793 39.8097 9.51248 39.9892 9.64162 40.2266C10.7441 41.6721 11.8465 43.1297 12.9244 44.5874C13.0862 44.8216 13.3048 45.0108 13.5598 45.1372C13.8148 45.2636 14.0978 45.3231 14.3821 45.3101C16.489 45.3101 18.5958 45.3101 20.7027 45.3101C20.9068 45.3365 21.1142 45.3187 21.3107 45.2578C21.5073 45.1969 21.6884 45.0944 21.8418 44.9573C21.9952 44.8201 22.1173 44.6516 22.1998 44.463C22.2822 44.2745 22.3231 44.0704 22.3196 43.8647C22.3196 42.9582 21.7072 42.407 20.6782 42.3948C19.0123 42.3948 17.3587 42.3948 15.6928 42.3948C15.4523 42.4128 15.2115 42.3654 14.9958 42.2576C14.7801 42.1497 14.5977 41.9855 14.4678 41.7823L10.5113 36.5274C10.3805 36.3577 10.2327 36.2017 10.0703 36.0619C9.91786 35.9332 9.72477 35.8626 9.52525 35.8626C9.32573 35.8626 9.13264 35.9332 8.98016 36.0619C8.17885 36.5913 7.23961 36.8736 6.27919 36.8736C5.31878 36.8736 4.37954 36.5913 3.57822 36.0619C3.45894 35.9752 3.3153 35.9286 3.16787 35.9286C3.02044 35.9286 2.8768 35.9752 2.75752 36.0619C2.40242 36.2546 2.10787 36.5422 1.90671 36.8926C1.70556 37.243 1.60572 37.6424 1.61834 38.0463C1.61834 39.7489 1.61834 41.4393 1.61834 43.142C1.61834 43.8157 1.34885 44.1709 0.822134 44.1832C0.295415 44.1954 0.00143204 43.8279 0.00143204 43.1175C0.00143204 41.4148 0.00143204 39.7244 0.00143204 38.0218C-0.0160449 37.3959 0.126694 36.7759 0.416104 36.2207C0.705514 35.6654 1.132 35.1933 1.65509 34.8492C1.93682 34.6532 1.97357 34.5307 1.78983 34.2367C1.32363 33.4514 1.08211 32.5531 1.09162 31.6399V27.1199C1.07419 26.6676 1.15086 26.2165 1.31677 25.7953C1.48267 25.3742 1.73421 24.992 2.05545 24.6731C2.3767 24.3541 2.76065 24.1053 3.18302 23.9425C3.60538 23.7796 4.05696 23.7062 4.50917 23.7269H8.11046C8.53034 23.7154 8.94836 23.7869 9.34062 23.9371C9.73288 24.0873 10.0917 24.3133 10.3966 24.6023C10.7014 24.8912 10.9464 25.2374 11.1174 25.6211C11.2884 26.0047 11.3822 26.4183 11.3933 26.8382C11.4545 28.6388 11.4668 30.513 11.3933 32.2524C11.3433 32.9079 11.1376 33.542 10.7931 34.102C10.6461 34.347 10.6583 34.4572 10.9033 34.592C11.2971 34.8428 11.6349 35.1723 11.8955 35.5597C13.1204 37.1521 14.3453 38.7445 15.4968 40.3491C15.5678 40.4682 15.6711 40.5647 15.7946 40.6275C15.9182 40.6904 16.057 40.717 16.195 40.7044C16.9667 40.7044 17.7384 40.7044 18.4979 40.7044C18.8653 40.7044 19.0001 40.6309 18.9878 40.2389C18.9878 39.5039 18.9878 38.769 18.9878 38.0463C18.9281 37.3479 19.0693 36.647 19.3949 36.0263C19.7205 35.4056 20.2167 34.8909 20.8252 34.543C21.2464 34.2431 21.698 33.9886 22.1726 33.7835C22.4544 33.6733 22.6136 33.563 22.4544 33.2078C22.2829 32.8227 22.1992 32.4043 22.2094 31.9829C22.2094 30.2925 22.2094 28.5898 22.2094 26.8994C22.2088 26.4647 22.2968 26.0345 22.4681 25.635C22.6393 25.2355 22.8903 24.8751 23.2056 24.5759C23.5209 24.2767 23.8938 24.0449 24.3017 23.8947C24.7096 23.7445 25.1439 23.679 25.5779 23.7024H31.4209C32.2171 23.7024 32.511 23.9963 32.511 24.8048V31.4929C32.5285 32.0463 32.4455 32.5983 32.266 33.1221C32.1436 33.4895 32.2661 33.5875 32.56 33.6978C33.391 34.0462 34.1509 34.5444 34.8017 35.1677C35.1718 35.492 35.4658 35.894 35.6628 36.345C35.8597 36.796 35.9546 37.2849 35.9408 37.7768C35.9408 38.6097 35.9408 39.4549 35.9408 40.2266C35.9408 40.5574 35.9408 40.7166 36.3696 40.7044C37.178 40.7044 37.9742 40.7044 38.8194 40.7044C38.9411 40.7142 39.0632 40.6896 39.1715 40.6333C39.2798 40.5769 39.3701 40.4912 39.4319 40.3859L43.0332 35.5964C43.3149 35.1846 43.6775 34.8346 44.0989 34.5675C44.3193 34.445 44.3071 34.3347 44.1969 34.151C43.7085 33.2948 43.4708 32.3185 43.5109 31.3337C43.5109 29.9617 43.5109 28.5898 43.5109 27.2179C43.4757 26.7483 43.5427 26.2767 43.7072 25.8355C43.8718 25.3943 44.13 24.994 44.4642 24.6622C44.7983 24.3304 45.2004 24.075 45.6427 23.9135C46.0851 23.752 46.5571 23.6884 47.0264 23.7269H50.4562C51.2878 23.6866 52.102 23.9748 52.723 24.5293C53.344 25.0839 53.7221 25.8603 53.7758 26.6912C53.9167 28.579 53.9167 30.4748 53.7758 32.3626C53.6932 33.0354 53.4677 33.6828 53.1143 34.2612C53.0286 34.396 52.8938 34.5185 53.1143 34.6532C54.032 35.2348 54.6834 36.1546 54.9272 37.2133V43.6442C54.8147 43.8247 54.6451 43.9624 54.4454 44.0356C54.2457 44.1089 54.0273 44.1134 53.8248 44.0484C53.3348 43.8647 53.3103 43.436 53.3103 42.9827C53.3103 41.3291 53.3103 39.6632 53.3103 38.0095C53.3181 37.5975 53.2095 37.1917 52.9972 36.8386C52.7849 36.4854 52.4774 36.1993 52.1099 36.0129C51.9838 35.9203 51.8315 35.8704 51.675 35.8704C51.5186 35.8704 51.3663 35.9203 51.2402 36.0129C50.4253 36.5401 49.4722 36.8134 48.5017 36.7981C47.5312 36.7829 46.5872 36.4797 45.7893 35.9271C45.6674 35.8412 45.5219 35.7951 45.3728 35.7951C45.2237 35.7951 45.0782 35.8412 44.9563 35.9271C44.7104 36.0692 44.5008 36.2662 44.3438 36.5029C43.0209 38.2545 41.698 39.9939 40.3873 41.7578C40.2559 41.961 40.0738 42.1266 39.8591 42.2383C39.6443 42.3499 39.4043 42.4039 39.1624 42.3948C37.521 42.3948 35.8796 42.3948 34.2627 42.3948C33.2215 42.3948 32.5968 42.946 32.5845 43.8402C32.5723 44.7344 33.2092 45.3101 34.2872 45.3101C36.2471 45.3101 38.2192 45.3101 40.1791 45.3101C40.5858 45.3408 40.9931 45.2587 41.3562 45.0728C41.7193 44.887 42.024 44.6046 42.237 44.2567C43.2292 42.8847 44.2704 41.5496 45.287 40.1899C45.4463 39.9817 45.6055 39.7489 45.8995 39.7122C46.0559 39.6678 46.2225 39.6748 46.3746 39.7321C46.5267 39.7894 46.6565 39.8941 46.7447 40.0307C46.8492 40.1887 46.8975 40.3773 46.882 40.5661C46.8664 40.7549 46.7879 40.933 46.659 41.0718C45.8628 42.1375 45.0666 43.2155 44.2091 44.2689C44.0565 44.4648 43.9745 44.7065 43.9764 44.9549C43.9764 47.0127 43.9764 49.0584 43.9764 51.0795C43.9764 51.447 44.0744 51.5572 44.4418 51.5572C47.2347 51.5572 50.0153 51.5572 52.8081 51.5572C53.2001 51.5572 53.2613 51.4225 53.2491 51.0673C53.2491 49.8423 53.2491 48.4949 53.2491 47.2087C53.2491 46.7555 53.2491 46.3513 53.8003 46.1676C54.3515 45.9838 54.5965 46.2778 54.866 46.633V52.6474ZM27.4398 51.5572H41.845C42.2125 51.5572 42.3717 51.5572 42.3595 51.0673C42.3595 49.8423 42.3595 48.6174 42.3595 47.3925C42.3595 47.0128 42.237 46.9515 41.9062 46.9515C32.2701 46.9515 22.6299 46.9515 12.9857 46.9515C12.5937 46.9515 12.5202 47.074 12.5325 47.4292C12.5325 48.6542 12.5325 49.8791 12.5325 51.104C12.5325 51.5695 12.6549 51.6552 13.0959 51.6552L27.4398 51.5572ZM31.2861 45.2366C31.0481 44.6978 30.943 44.1096 30.9799 43.5217C31.0454 42.7758 31.3819 42.0797 31.9259 41.565C32.4699 41.0504 33.1835 40.753 33.932 40.7289C34.2994 40.7289 34.3852 40.5696 34.3729 40.2144C34.324 39.5579 34.324 38.8987 34.3729 38.2423C34.4414 37.7166 34.3376 37.1829 34.0769 36.7213C33.8163 36.2597 33.413 35.8951 32.9275 35.6822C32.5115 35.4415 32.0821 35.2247 31.6413 35.0329C31.5516 34.9774 31.4438 34.9591 31.3408 34.982C31.2378 35.0049 31.1478 35.0671 31.0901 35.1554C30.6221 35.6576 30.0574 36.0601 29.4299 36.3386C28.8025 36.6172 28.1252 36.766 27.4388 36.7763C26.7524 36.7866 26.071 36.6581 25.4355 36.3985C24.8 36.139 24.2234 35.7536 23.7405 35.2657C23.5936 35.1187 23.4833 34.9717 23.2383 35.0819C22.4258 35.4006 21.6908 35.8892 21.0825 36.5151C20.9411 36.6635 20.8304 36.8384 20.7569 37.0297C20.6833 37.221 20.6482 37.4249 20.6537 37.6298C20.6537 38.4505 20.6537 39.2712 20.6537 40.0797C20.6537 40.5574 20.764 40.7044 21.2539 40.7411C21.9207 40.8071 22.5465 41.0935 23.0323 41.5549C23.5181 42.0163 23.8363 42.6265 23.9365 43.289C24.0231 43.9495 23.9344 44.6212 23.6793 45.2366H31.2861ZM30.8696 30.8682C30.8696 30.366 30.8696 29.9617 30.8696 29.5453C30.8696 29.1288 30.8696 29.1778 30.5389 29.1778C28.4075 29.1778 26.2884 29.1778 24.1693 29.1778C23.8998 29.1778 23.8385 29.2635 23.8385 29.5085C23.8385 30.2435 23.8385 30.9784 23.8385 31.7011C23.8645 32.5325 24.1843 33.3277 24.7413 33.9455C25.2982 34.5633 26.0562 34.9636 26.8804 35.0752C27.7047 35.1869 28.5418 35.0027 29.243 34.5554C29.9443 34.1081 30.4642 33.4266 30.7104 32.6321C30.8194 32.0509 30.8523 31.4579 30.8084 30.8682H30.8696ZM52.1099 28.9206C52.1099 28.2713 52.1099 27.6221 52.1099 26.9852C52.1132 26.7719 52.0736 26.5602 51.9936 26.3625C51.9135 26.1648 51.7945 25.9853 51.6437 25.8345C51.4929 25.6837 51.3133 25.5647 51.1156 25.4846C50.918 25.4045 50.7062 25.365 50.493 25.3683C49.2436 25.3683 47.9941 25.3683 46.7447 25.3683C46.38 25.3629 46.0243 25.481 45.7352 25.7034C45.4461 25.9258 45.2407 26.2393 45.1523 26.5932C45.1011 26.9999 45.1011 27.4114 45.1523 27.8181C45.1523 28.0754 45.3483 28.0141 45.4953 28.0141C46.1049 27.9986 46.6916 27.7785 47.1612 27.3894C47.2763 27.2878 47.4183 27.2217 47.5701 27.199C47.7219 27.1763 47.8771 27.198 48.0169 27.2614C48.1567 27.3248 48.2751 27.4273 48.358 27.5565C48.4409 27.6857 48.4847 27.8361 48.4841 27.9896C48.4841 28.2468 48.5454 28.4918 48.5699 28.7368C48.5494 29.1351 48.6265 29.5324 48.7944 29.8942C48.9623 30.2559 49.2161 30.5712 49.5335 30.8127C49.851 31.0541 50.2226 31.2143 50.6161 31.2795C51.0096 31.3447 51.4131 31.3128 51.7914 31.1867C52.0854 31.1867 52.1834 31.0274 52.1834 30.7457C52.1099 30.17 52.1099 29.5453 52.1099 28.9206ZM6.23632 25.3683C5.6361 25.3683 5.01139 25.3683 4.42342 25.3683C4.20402 25.358 3.98486 25.3933 3.77974 25.4718C3.57461 25.5503 3.38795 25.6705 3.23149 25.8246C3.07503 25.9788 2.95215 26.1636 2.87059 26.3676C2.78902 26.5715 2.75052 26.7901 2.75752 27.0097C2.75752 28.2346 2.75752 29.5453 2.75752 30.8192C2.75752 30.9784 2.75752 31.1254 2.94126 31.1989C3.51409 31.4162 4.14753 31.4109 4.71666 31.1841C5.28579 30.9574 5.74932 30.5256 6.01583 29.974C6.26159 29.3603 6.40638 28.7108 6.44456 28.0509C6.43927 27.894 6.48047 27.739 6.56299 27.6055C6.64551 27.4719 6.76566 27.3658 6.90834 27.3003C7.05102 27.2349 7.20986 27.2131 7.3649 27.2376C7.51995 27.2622 7.66427 27.332 7.77973 27.4384C8.06198 27.6602 8.38132 27.8302 8.72292 27.9406C9.65387 28.2346 9.77636 28.1489 9.77636 27.1812C9.80239 26.941 9.77506 26.698 9.69634 26.4695C9.61762 26.2411 9.48944 26.0329 9.32095 25.8597C9.15246 25.6865 8.94781 25.5527 8.72163 25.4677C8.49544 25.3828 8.25329 25.3488 8.01247 25.3683H6.23632ZM3.01476 32.8771C3.26198 33.5635 3.71947 34.1544 4.3221 34.5657C4.92472 34.977 5.64174 35.1876 6.37106 35.1677C7.11958 35.1398 7.84011 34.876 8.4297 34.414C9.01929 33.952 9.44776 33.3155 9.65387 32.5953C9.79265 31.696 9.83372 30.7842 9.77636 29.876C9.77636 29.6433 9.61712 29.7045 9.48238 29.6923C9.09004 29.695 8.70029 29.6286 8.33095 29.4963C7.96347 29.3493 7.87772 29.4963 7.77973 29.8147C7.64522 30.5102 7.32127 31.155 6.8436 31.6781C6.36592 32.2012 5.75308 32.5822 5.07264 32.7791C4.39901 32.9414 3.70075 32.9746 3.01476 32.8771ZM51.8649 32.8771H51.1912C50.2918 32.9405 49.3989 32.684 48.6704 32.1527C47.9419 31.6215 47.4247 30.8497 47.2102 29.974C47.1647 29.8595 47.1318 29.7404 47.1122 29.6188C47.1122 29.4473 47.0264 29.3493 46.8305 29.435C46.3037 29.68 45.5075 29.435 45.2503 29.8147C44.9931 30.1945 45.1768 30.9049 45.1646 31.4807V31.6889C45.1859 32.4871 45.4755 33.2547 45.9866 33.8681C46.4978 34.4815 47.2007 34.9048 47.9819 35.0697C48.7819 35.2177 49.6086 35.0806 50.318 34.6823C51.0274 34.2839 51.5748 33.6495 51.8649 32.8893V32.8771ZM27.2928 27.5731H30.4532C30.7349 27.5731 30.8206 27.4996 30.8084 27.2179C30.7839 26.7364 30.7839 26.254 30.8084 25.7725C30.8084 25.4418 30.7104 25.3438 30.3797 25.356H25.4799C25.2428 25.3387 25.0048 25.3735 24.7826 25.458C24.5604 25.5425 24.3593 25.6746 24.1936 25.845C24.0278 26.0154 23.9014 26.22 23.8231 26.4445C23.7449 26.669 23.7167 26.9079 23.7405 27.1444C23.7405 27.5241 23.8753 27.5731 24.1938 27.5609L27.2928 27.5731Z" fill="#EF4D24"/>
<path d="M40.6568 22.8327V21.3015C40.6568 20.5911 40.8895 20.3583 41.5999 20.2848C42.1957 20.2469 42.7528 19.9767 43.1514 19.5323C43.55 19.0879 43.7582 18.5048 43.7313 17.9085V10.4119C43.7529 10.0985 43.7073 9.78418 43.5975 9.48988C43.4877 9.19558 43.3163 8.92813 43.0948 8.70545C42.8733 8.48277 42.6067 8.30998 42.313 8.19867C42.0193 8.08736 41.7052 8.04009 41.3917 8.06003H28.3217C27.9665 8.06003 27.844 8.13353 27.8562 8.5255C27.8562 10.2894 27.8562 12.0533 27.8562 13.8172C27.8742 14.9809 27.4773 16.113 26.7366 17.0108C25.996 17.9086 24.9599 18.5134 23.814 18.7169C23.4758 18.7477 23.1355 18.7477 22.7973 18.7169C22.4421 18.7169 22.4421 18.8272 22.6013 19.0844C22.8094 19.4408 23.1113 19.7332 23.4742 19.9298C23.8371 20.1263 24.247 20.2195 24.6592 20.1991H29.0567C29.6936 20.1991 30.0366 20.4686 30.0611 20.9708C30.0856 21.473 29.7059 21.8037 29.0567 21.8037H24.5612C23.741 21.8067 22.9414 21.5466 22.28 21.0615C21.6186 20.5765 21.1301 19.8921 20.8864 19.1089C20.7762 18.7782 20.6537 18.7047 20.3352 18.7047C16.8931 18.7047 13.4388 18.7047 9.99678 18.7047C9.86598 18.6996 9.73565 18.7233 9.61501 18.7741C9.49436 18.8249 9.38634 18.9015 9.29858 18.9986L6.12601 22.2447C6.00342 22.4232 5.82515 22.5561 5.61905 22.6226C5.41295 22.6891 5.19063 22.6854 4.98683 22.6122C4.54585 22.4162 4.5091 22.012 4.5091 21.571C4.5091 20.7625 4.5091 19.9663 4.5091 19.1211C4.5091 18.8394 4.5091 18.7047 4.12938 18.6189C3.08228 18.3486 2.15403 17.7394 1.48933 16.8864C0.824623 16.0333 0.460808 14.9844 0.45459 13.9029C0.45459 10.8978 0.45459 7.89671 0.45459 4.89971C0.45459 3.60023 0.970808 2.35397 1.88968 1.43509C2.80856 0.51622 4.05482 9.8149e-08 5.3543 9.8149e-08H22.9688C24.2515 -0.000256464 25.4831 0.502486 26.3992 1.40027C27.3153 2.29806 27.8428 3.51929 27.8685 4.80172C27.893 5.12382 27.893 5.44731 27.8685 5.76941C27.8685 6.22264 27.9297 6.36963 28.432 6.35738C32.7192 6.35738 37.0065 6.35738 41.2815 6.35738C42.2035 6.32159 43.1087 6.6112 43.8387 7.17551C44.5688 7.73983 45.0771 8.54291 45.2747 9.4442C45.3403 9.77483 45.369 10.1117 45.3605 10.4486C45.3605 12.8985 45.3605 15.3484 45.3605 17.7982C45.4141 18.6627 45.1715 19.5196 44.6727 20.2277C44.1739 20.9359 43.4487 21.4528 42.6166 21.6935C42.5176 21.7114 42.4296 21.7679 42.3722 21.8506C42.3148 21.9333 42.2926 22.0354 42.3104 22.1345C42.3104 22.9919 42.3104 23.8494 42.3104 24.7068C42.3411 24.9036 42.3061 25.105 42.2109 25.2799C42.1157 25.4548 41.9656 25.5935 41.7837 25.6745C41.597 25.7403 41.3943 25.7449 41.2049 25.6876C41.0154 25.6303 40.8492 25.5142 40.7302 25.356C39.6891 24.2903 38.6111 23.2369 37.5577 22.1712C37.4666 22.0668 37.3534 21.984 37.2262 21.9289C37.0991 21.8738 36.9612 21.8478 36.8227 21.8527C35.5978 21.8527 34.2871 21.8527 33.0254 21.8527C32.4252 21.8527 32.0333 21.5097 32.0578 21.0198C32.0822 20.5298 32.4375 20.2481 33.0132 20.2481H37.4107C37.5869 20.2417 37.7623 20.2734 37.9251 20.3411C38.0879 20.4087 38.2341 20.5107 38.3539 20.64C39.0766 21.3873 39.8115 22.11 40.5343 22.8449L40.6568 22.8327ZM6.13826 19.9418C6.94671 19.1211 7.66942 18.4107 8.36763 17.6757C8.5183 17.502 8.70761 17.3661 8.92035 17.2789C9.13309 17.1917 9.36333 17.1556 9.59256 17.1735C13.9656 17.1735 18.3385 17.1735 22.7115 17.1735C23.1894 17.2165 23.6708 17.1542 24.1219 16.991C24.5731 16.8279 24.983 16.5678 25.3228 16.2292C25.6626 15.8905 25.924 15.4815 26.0887 15.0309C26.2534 14.5804 26.3174 14.0992 26.2761 13.6212C26.2761 10.812 26.2761 8.01103 26.2761 5.21819C26.2832 4.8436 26.2462 4.46946 26.1658 4.10351C25.9769 3.36951 25.5389 2.72392 24.9268 2.27707C24.3146 1.83022 23.5662 1.60986 22.8095 1.65365H5.56254C5.11487 1.6234 4.66575 1.68559 4.24314 1.83636C3.82053 1.98712 3.43346 2.22323 3.10601 2.52999C2.77856 2.83676 2.51774 3.20763 2.33977 3.61952C2.16179 4.03141 2.07047 4.47552 2.0715 4.92421C2.0715 7.92529 2.0715 10.9141 2.0715 13.9152C2.06484 14.7645 2.39259 15.5823 2.98392 16.192C3.57525 16.8017 4.3827 17.1542 5.23181 17.1735C5.84428 17.1735 6.11376 17.4797 6.12601 18.1289L6.13826 19.9418Z" fill="#EF4D24"/>
<path d="M14.1371 6.02664H7.03255C6.80323 6.05829 6.56963 6.02431 6.35884 5.92865C6.20364 5.85803 6.0762 5.738 5.99642 5.58731C5.91664 5.43661 5.88902 5.26374 5.91786 5.09569C5.93143 4.92359 6.00516 4.76176 6.1261 4.63857C6.24705 4.51539 6.4075 4.43871 6.57932 4.42198C6.71788 4.40979 6.85724 4.40979 6.9958 4.42198H21.5602C21.6674 4.41706 21.7745 4.43352 21.8752 4.47041C21.976 4.5073 22.0684 4.56388 22.1471 4.63685C22.2257 4.70982 22.2891 4.79771 22.3335 4.89542C22.3778 4.99312 22.4023 5.09868 22.4054 5.20594C22.4054 5.31741 22.3831 5.42776 22.3397 5.53045C22.2964 5.63314 22.2328 5.72608 22.1528 5.80376C22.0729 5.88143 21.9781 5.94227 21.8742 5.98266C21.7703 6.02305 21.6594 6.04217 21.548 6.03889H14.1371V6.02664Z" fill="#EF4D24"/>
<path d="M14.1371 10.2404H6.94675C6.26079 10.2404 5.91781 9.95871 5.90556 9.43199C5.89331 8.90527 6.27304 8.62354 6.9345 8.62354H21.3887C22.0379 8.62354 22.4176 8.94201 22.4053 9.45648C22.3931 9.97095 22.0256 10.2282 21.3887 10.2404H14.1371Z" fill="#EF4D24"/>
<path d="M10.4623 14.4908H6.93452C6.27306 14.4908 5.90558 14.1846 5.90558 13.6579C5.90558 13.1311 6.26081 12.8372 6.93452 12.8372C9.26188 12.8372 11.6015 12.8372 13.9411 12.8372C14.5781 12.8372 14.9701 13.1679 14.9701 13.6579C14.9701 14.1478 14.5658 14.4908 13.9289 14.4908H10.4623Z" fill="#EF4D24"/>
</svg>
