<svg width="58" height="58" viewBox="0 0 58 58" fill="none" xmlns="http://www.w3.org/2000/svg">
<path d="M0 38.0096C0.280763 37.1549 0.465634 36.2716 0.551214 35.376C1.34742 30.9908 2.10688 26.6055 2.89083 22.2203C3.05007 21.2649 3.22157 20.3094 3.38082 19.354C3.54006 18.3985 3.85853 18.2515 4.67924 18.374C6.06341 18.5945 7.43532 18.8395 8.80724 19.0967C9.4932 19.2192 9.75044 19.6724 9.6157 20.3217C9.48096 20.9709 9.45645 21.2036 10.3017 21.3384C11.174 21.559 12.0807 21.6089 12.972 21.4853C13.364 21.3996 13.4742 21.2894 13.4742 20.8974C13.4742 16.6836 13.4742 12.4821 13.4742 8.26836C13.446 7.76817 13.5235 7.26763 13.7017 6.7994C13.8799 6.33118 14.1548 5.90577 14.5085 5.55094C14.8622 5.19611 15.2867 4.91981 15.7543 4.74008C16.2219 4.56035 16.7222 4.48121 17.2225 4.50783C19.0721 4.50783 20.8973 4.50783 22.7837 4.50783C23.2982 4.50783 23.3839 4.34859 23.3716 3.88312C23.2985 3.2543 23.3233 2.61795 23.4451 1.99673C23.5929 1.42172 23.9288 0.912718 24.3995 0.550855C24.8701 0.188992 25.4483 -0.00489695 26.042 9.39982e-05H31.4807C32.1814 0.00655249 32.8512 0.28945 33.3444 0.787241C33.8376 1.28503 34.1143 1.95744 34.1143 2.65819V2.76843C34.1143 3.34415 33.8693 4.1281 34.2245 4.42209C34.5797 4.71607 35.327 4.50783 35.9027 4.52008H40.2879C40.7805 4.50241 41.2713 4.58743 41.7293 4.76975C42.1872 4.95207 42.6022 5.22769 42.9478 5.57908C43.2934 5.93048 43.5622 6.34995 43.7369 6.81083C43.9116 7.27171 43.9885 7.7639 43.9627 8.25611C43.9627 12.4331 43.9627 16.5979 43.9627 20.7749C43.9627 21.2281 44.0362 21.3996 44.5629 21.5098C45.6199 21.5935 46.6835 21.5025 47.711 21.2404C47.907 21.2404 47.9805 21.1546 47.9315 20.9586C47.8825 20.7626 47.858 20.5544 47.8212 20.3462C47.7682 20.1942 47.7525 20.0318 47.7754 19.8725C47.7983 19.7132 47.8592 19.5617 47.9528 19.4309C48.0465 19.3 48.1702 19.1936 48.3135 19.1205C48.4569 19.0474 48.6158 19.0099 48.7767 19.011L52.5127 18.3495C53.5661 18.1535 53.8969 18.3495 54.0806 19.452L56.6162 33.7591C56.8857 35.2658 57.1552 36.7725 57.4124 38.2791C57.4586 38.418 57.4715 38.5657 57.4499 38.7105C57.4283 38.8552 57.3729 38.9928 57.2882 39.1121C57.2035 39.2315 57.0918 39.3291 56.9623 39.3972C56.8328 39.4653 56.689 39.5019 56.5427 39.504C55.1585 39.7735 53.7866 40.0185 52.4147 40.2635C52.2859 40.3019 52.1506 40.3131 52.0172 40.2963C51.8839 40.2795 51.7555 40.2351 51.6403 40.166C51.525 40.0968 51.4255 40.0044 51.3479 39.8947C51.2703 39.7849 51.2165 39.6602 51.1898 39.5285C51.1898 39.3815 51.2633 39.0631 50.9815 39.0998C50.6998 39.1366 50.4058 39.0998 50.2466 39.4673C49.8091 40.4606 49.1995 41.3688 48.4459 42.1499C47.8622 42.701 47.475 43.4281 47.3435 44.22C47.1766 45.063 46.6949 45.8108 45.9964 46.3114C45.2978 46.812 44.4349 47.0278 43.583 46.9149C43.142 46.9149 43.0195 46.9884 42.9705 47.4048C42.9077 47.8718 42.7522 48.3215 42.5133 48.7276C42.2744 49.1338 41.9569 49.4881 41.5792 49.7699C41.2016 50.0517 40.7715 50.2553 40.3142 50.3687C39.8569 50.4821 39.3815 50.5031 38.916 50.4304C38.6833 50.4304 38.5853 50.4304 38.573 50.6876C38.5214 51.205 38.3606 51.7055 38.1013 52.1561C37.842 52.6067 37.4899 52.9972 37.0685 53.3017C36.6471 53.6062 36.1658 53.8178 35.6566 53.9225C35.1473 54.0272 34.6217 54.0227 34.1143 53.9092C34.1132 54.5739 33.927 55.2251 33.5765 55.7898C33.226 56.3545 32.725 56.8104 32.1299 57.1063C31.8188 57.2507 31.4998 57.3775 31.1744 57.486H29.7168C29.3625 57.3476 29.0186 57.1839 28.6878 56.996C28.5375 56.8825 28.3607 56.8094 28.1741 56.7837C27.9876 56.758 27.7975 56.7805 27.6221 56.849C26.8225 57.1 25.9593 57.055 25.1902 56.7221C24.421 56.3893 23.7973 55.7908 23.4329 55.0361C23.2859 54.7177 23.1879 54.3869 23.0532 54.0439C22.5596 54.3734 21.9905 54.5721 21.3991 54.6213C20.8078 54.6706 20.2136 54.5689 19.6724 54.3257C19.1217 54.0899 18.6392 53.7195 18.2689 53.2487C17.8986 52.7778 17.6526 52.2215 17.5532 51.6308C17.164 51.8884 16.7277 52.0664 16.2694 52.1547C15.8111 52.243 15.3399 52.2398 14.8829 52.1453C14.3491 52.0473 13.8449 51.8279 13.4094 51.504C12.9738 51.1801 12.6186 50.7604 12.3712 50.2774C12.1237 49.7943 11.9907 49.2608 11.9823 48.7181C11.9739 48.1754 12.0904 47.6381 12.3228 47.1476C12.3963 46.9516 12.5188 46.8291 12.188 46.6944C11.5273 46.4489 10.9555 46.0105 10.5471 45.436C10.1386 44.8616 9.91226 44.1775 9.89743 43.4728C9.90264 43.3799 9.88784 43.287 9.85403 43.2004C9.82021 43.1137 9.76817 43.0354 9.70143 42.9706C8.60855 41.9802 7.72551 40.7806 7.10459 39.4428C6.9331 39.0876 6.62687 39.1733 6.38189 39.1366C6.1369 39.0998 6.24715 39.3816 6.2104 39.5163C6.18635 39.6504 6.1346 39.778 6.05846 39.891C5.98232 40.0039 5.88345 40.0998 5.76819 40.1724C5.65292 40.245 5.52378 40.2928 5.38901 40.3127C5.25423 40.3326 5.1168 40.3242 4.98547 40.288C3.95653 40.1043 2.92758 39.9573 1.89864 39.7368C1.23718 39.5898 0.453229 39.7368 0.0245038 38.9773L0 38.0096ZM26.3115 22.6735C25.2653 22.0581 24.0548 21.7801 22.8449 21.8773C20.2971 22.2448 17.7615 22.6613 15.2136 23.0165C13.7195 23.4323 12.1551 23.5324 10.6201 23.3105C10.2608 23.2182 9.89691 23.1446 9.52994 23.09C9.23596 23.09 9.12573 23.09 9.06448 23.433C8.29278 27.8917 7.52106 32.3627 6.70036 36.8092C6.61462 37.3114 6.76161 37.4339 7.17808 37.4584C7.54079 37.4496 7.89532 37.5669 8.18123 37.7903C8.46713 38.0137 8.66673 38.3293 8.74599 38.6833C9.11308 39.5925 9.64928 40.4238 10.3262 41.1332C10.4364 41.2557 10.5099 41.4762 10.7426 41.2189C11.9775 40.0246 13.2779 38.9 14.6379 37.8504C15.2037 37.3505 15.9154 37.046 16.6677 36.9821C17.4199 36.9181 18.1728 37.098 18.8149 37.4952C19.4684 37.8869 19.9792 38.4776 20.2724 39.1809C20.5656 39.8841 20.6258 40.6628 20.4441 41.4027C20.4441 41.6599 20.4441 41.7579 20.7135 41.8559C21.3994 42.0257 22.0155 42.4046 22.4764 42.9401C22.9373 43.4756 23.2202 44.1412 23.2859 44.8447C23.3471 45.249 23.4696 45.298 23.8371 45.2735C24.2824 45.2416 24.7294 45.3013 25.1507 45.4487C25.5721 45.5962 25.9588 45.8284 26.287 46.1309C26.9136 46.6608 27.3448 47.3853 27.5119 48.1888H27.6099C28.142 47.8536 28.7532 47.6651 29.3817 47.6425C30.0101 47.6198 30.6333 47.7639 31.1881 48.0599C31.7429 48.356 32.2095 48.7935 32.5406 49.3282C32.8716 49.8628 33.0553 50.4755 33.0731 51.1041C33.0706 51.1772 33.0874 51.2496 33.1218 51.3141C33.1562 51.3786 33.207 51.4329 33.2691 51.4716C33.5998 51.6798 33.9183 51.9248 34.2613 52.1086C34.5512 52.2641 34.8797 52.3329 35.2077 52.3068C35.5356 52.2808 35.8492 52.1609 36.1109 51.9616C36.3939 51.7739 36.6132 51.5049 36.7401 51.19C36.8669 50.875 36.8953 50.529 36.8214 50.1977C36.7612 49.9251 36.6438 49.6684 36.4769 49.4446C36.3101 49.2207 36.0977 49.0349 35.8537 48.8992L31.6889 46.1554C31.5109 46.0646 31.3663 45.9195 31.276 45.7412C31.1858 45.5629 31.1545 45.3605 31.1867 45.1632C31.2133 44.9877 31.2916 44.824 31.4116 44.6931C31.5316 44.5622 31.6878 44.47 31.8604 44.4283C32.0257 44.3921 32.1975 44.3979 32.3601 44.4449C32.5226 44.492 32.6709 44.5789 32.7913 44.6977L38.3525 48.3725C38.549 48.5391 38.7784 48.6626 39.0256 48.7348C39.2729 48.807 39.5326 48.8264 39.7879 48.7918C40.0432 48.7571 40.2883 48.6692 40.5074 48.5336C40.7265 48.3981 40.9146 48.218 41.0596 48.005C41.1928 47.7903 41.2802 47.5504 41.3165 47.3004C41.3528 47.0503 41.3371 46.7955 41.2704 46.5518C41.2037 46.3081 41.0875 46.0807 40.929 45.8839C40.7705 45.6872 40.5731 45.5252 40.3492 45.4082L37.2133 43.3381C36.3314 42.7501 35.4372 42.1131 34.5552 41.5742C34.4533 41.5151 34.3645 41.4359 34.2941 41.3415C34.2237 41.247 34.1732 41.1393 34.1457 41.0247C34.1182 40.9102 34.1143 40.7912 34.1342 40.6751C34.154 40.559 34.1973 40.4481 34.2613 40.3492C34.3269 40.2457 34.4128 40.1564 34.5139 40.087C34.6149 40.0176 34.7291 39.9694 34.8493 39.9454C34.9695 39.9213 35.0934 39.9219 35.2134 39.9471C35.3334 39.9723 35.447 40.0216 35.5474 40.092L35.8659 40.3002C38.2015 41.8437 40.537 43.3912 42.8725 44.9427C43.1108 45.1222 43.3878 45.2433 43.6814 45.2965C43.9749 45.3497 44.2768 45.3334 44.5629 45.249C44.8778 45.1757 45.1633 45.0091 45.3819 44.7708C45.6004 44.5326 45.7419 44.2338 45.7878 43.9138C45.8666 43.5548 45.8296 43.18 45.6822 42.8433C45.5347 42.5066 45.2844 42.2252 44.9671 42.0396L35.4494 35.719C35.2765 35.6093 35.0859 35.5306 34.886 35.4863C33.6761 35.2274 32.5512 34.6674 31.6154 33.8579C30.6797 33.0485 29.9634 32.016 29.533 30.856C29.4228 30.5866 29.3126 30.5376 29.0431 30.5988C28.2101 30.7826 27.3649 30.954 26.5197 31.101C26.3859 31.1273 26.2596 31.1825 26.1495 31.263C26.0394 31.3434 25.9484 31.447 25.8828 31.5665C25.4785 32.2157 25.0498 32.7914 24.6578 33.4774C24.1788 34.2468 23.4719 34.8478 22.6355 35.1968C21.7991 35.5459 20.8747 35.6256 19.9908 35.425C17.1368 34.8616 16.561 32.3872 17.884 30.6233C18.9374 29.2269 19.8561 27.7202 20.8115 26.2381C21.413 25.2655 22.3165 24.5169 23.3839 24.1067C24.2168 23.58 25.2703 23.1267 26.3115 22.6735ZM46.878 41.3414C47.7134 40.4747 48.3819 39.4616 48.8502 38.3526C48.9067 38.1563 49.015 37.9788 49.1637 37.8387C49.3124 37.6987 49.496 37.6011 49.6954 37.5564C50.0628 37.4707 50.6263 37.5564 50.7733 37.2747C50.9203 36.9929 50.6876 36.5275 50.6263 36.1477C49.8913 31.9462 49.1319 27.7447 48.4214 23.531C48.3357 23.0288 48.152 23.0778 47.7722 23.139C46.9779 23.3791 46.1522 23.4989 45.3224 23.4942C42.309 23.0655 39.308 22.5878 36.3191 22.0978C34.7485 21.7282 33.1037 21.8304 31.5909 22.3918C28.9696 23.5432 26.336 24.6579 23.7024 25.7726C23.1399 25.9856 22.6596 26.3716 22.3305 26.875C21.2403 28.5042 20.1501 30.1333 19.0844 31.7747C18.9779 31.8896 18.9025 32.0298 18.8654 32.1819C18.8284 32.3341 18.8308 32.4932 18.8725 32.6442C18.9143 32.7952 18.9939 32.933 19.1039 33.0445C19.2138 33.156 19.3505 33.2376 19.5009 33.2814C20.0716 33.5759 20.7297 33.6538 21.3535 33.5007C21.9772 33.3476 22.5244 32.9738 22.8939 32.4485C23.4819 31.6155 24.0331 30.7458 24.5966 29.9006C24.6612 29.774 24.751 29.6619 24.8606 29.5713C24.9701 29.4807 25.097 29.4135 25.2335 29.3739C26.7035 29.0677 28.1856 28.7492 29.6678 28.4797C30.366 28.3449 30.66 28.5777 30.8927 29.2636C31.078 30.0661 31.4284 30.8212 31.9216 31.4808C32.8507 32.6396 34.1691 33.4213 35.6316 33.6804C37.094 33.9396 38.6008 33.6585 39.8714 32.8894C40.4349 32.5587 40.9616 32.179 41.5251 31.836C41.6754 31.7237 41.858 31.663 42.0457 31.663C42.2333 31.663 42.416 31.7237 42.5663 31.836C42.7138 31.938 42.8245 32.0848 42.8819 32.2548C42.9393 32.4247 42.9403 32.6086 42.8848 32.7792C42.8492 32.9143 42.7848 33.0401 42.696 33.1479C42.6072 33.2557 42.4961 33.3431 42.3703 33.4039C41.1898 34.3203 39.8354 34.9871 38.3893 35.3638L38.8425 35.6945L45.4694 40.0798C46.0098 40.4138 46.4867 40.841 46.878 41.3414ZM28.7246 6.33298H17.2348C16.9869 6.3091 16.7368 6.33724 16.5005 6.41558C16.2642 6.49393 16.0468 6.62076 15.8623 6.78795C15.6778 6.95515 15.5303 7.15902 15.4291 7.38652C15.328 7.61402 15.2754 7.86014 15.2749 8.10912C15.2749 9.04007 15.2749 9.98326 15.2749 10.9142C15.3002 11.5444 15.5457 12.1458 15.9688 12.6135C16.3918 13.0813 16.9655 13.3859 17.59 13.4743C17.835 13.4743 18.0065 13.4743 17.9575 13.2048C17.9513 13.111 17.9513 13.0169 17.9575 12.9231C17.9575 11.9799 18.2147 11.6982 19.1824 11.6982H22.0487C23.1757 11.6982 23.4084 11.9064 23.3839 13.0211C23.3839 13.4131 23.4819 13.5111 23.8739 13.5111C27.0342 13.5111 30.1945 13.5111 33.3548 13.5111C34.151 13.5111 34.151 13.5111 34.1633 12.6904C34.1633 12.1024 34.4817 11.7227 35.0085 11.7227C36.2334 11.7227 37.4583 11.7227 38.6833 11.7227C38.7958 11.721 38.9074 11.7421 39.0116 11.7847C39.1157 11.8274 39.2101 11.8907 39.2891 11.9708C39.3681 12.0509 39.43 12.1462 39.4711 12.2509C39.5123 12.3557 39.5318 12.4676 39.5285 12.5801C39.5407 12.7882 39.5407 12.9968 39.5285 13.2048C39.5285 13.4376 39.5285 13.5233 39.8347 13.4866C40.3849 13.4187 40.9005 13.182 41.3107 12.8091C41.7209 12.4362 42.0054 11.9454 42.1253 11.4042C42.2517 10.4254 42.2804 9.43654 42.2111 8.4521C42.2534 8.16075 42.2264 7.86353 42.1325 7.58452C42.0385 7.30552 41.8801 7.05258 41.6701 6.8462C41.4602 6.63981 41.2046 6.4858 40.924 6.39664C40.6434 6.30747 40.3458 6.28566 40.0552 6.33298H28.7246ZM42.1988 14.4298C41.6228 14.9021 40.9192 15.192 40.1777 15.2627C39.5407 15.2627 39.4795 15.5322 39.504 16.0589C39.504 16.7939 39.1977 17.1123 38.4628 17.1123H35.3759C34.3715 17.1123 34.151 16.8674 34.151 15.8874C34.151 15.4587 34.0653 15.324 33.612 15.324C30.4517 15.324 27.2914 15.324 24.1311 15.324C23.3839 15.324 23.3839 15.3239 23.3716 16.0834C23.3594 16.8429 23.0777 17.1123 22.5264 17.1123C21.3015 17.1123 20.0766 17.1123 18.8517 17.1123C18.7392 17.114 18.6275 17.0929 18.5233 17.0503C18.4192 17.0077 18.3248 16.9444 18.2458 16.8642C18.1669 16.7841 18.1049 16.6888 18.0638 16.5841C18.0226 16.4793 18.0031 16.3674 18.0064 16.2549C18.0064 16.0344 18.0064 15.8017 18.0064 15.5812C18.0064 15.3607 18.0065 15.324 17.8105 15.324C16.9262 15.271 16.0757 14.9649 15.3606 14.442V20.9464C15.3606 21.1791 15.4709 21.1546 15.6423 21.1301C17.3695 20.8606 19.1089 20.6279 20.836 20.3094C22.8782 19.759 25.0496 19.9544 26.9607 20.8606C27.5434 21.2232 28.2159 21.4154 28.9022 21.4154C29.5885 21.4154 30.261 21.2232 30.8437 20.8606C32.3064 20.1195 33.973 19.8826 35.5842 20.1869C37.8136 20.5421 40.0429 20.8606 42.2968 21.1914L42.1988 14.4298ZM55.4893 37.7034C55.4893 37.5074 55.4893 37.3972 55.4158 37.2869C54.7911 33.7469 54.1909 30.2068 53.5416 26.6668C53.1864 24.6334 52.8189 22.6 52.4637 20.5421C52.4637 20.2972 52.3902 20.1992 52.084 20.2727C51.5057 20.4014 50.921 20.4995 50.3323 20.5666C49.8791 20.5666 49.7811 20.8116 49.8669 21.2526C50.3936 24.1434 50.8958 27.0465 51.4103 29.9373C51.888 32.6199 52.3657 35.2903 52.8312 37.9729C52.8312 38.2669 52.9782 38.3404 53.2477 38.2914L55.232 37.9484C55.4403 37.9729 55.5015 37.8504 55.477 37.7401L55.4893 37.7034ZM7.71705 20.9586C7.8518 20.7136 7.63131 20.6891 7.41082 20.6524C6.83703 20.5829 6.2683 20.4765 5.70817 20.3339C5.14471 20.1502 5.05896 20.4319 5.02222 20.8606C5.01627 20.8971 5.01627 20.9344 5.02222 20.9709C4.3975 24.4987 3.79728 28.0142 3.16032 31.542C2.80509 33.5141 2.46211 35.4985 2.10688 37.4707C2.10688 37.7769 2.10689 37.9606 2.46212 37.9851C2.81735 38.0096 3.45431 38.1444 3.95653 38.2301C4.69149 38.3649 4.66698 38.3649 4.80172 37.5809C5.44685 33.8653 6.10423 30.1456 6.77385 26.4218C7.06784 24.7069 7.31283 22.8695 7.64356 21.0321L7.71705 20.9586ZM19.7826 43.4483C19.5862 43.4285 19.3878 43.4499 19.2001 43.5111C19.0124 43.5722 18.8395 43.6718 18.6924 43.8035C17.2837 45.0285 15.8628 46.1309 14.4787 47.3313C14.1328 47.6339 13.9197 48.0604 13.8853 48.5187C13.8509 48.9769 13.998 49.4304 14.2949 49.7812C14.4333 49.9647 14.6068 50.119 14.8052 50.2351C15.0036 50.3512 15.2231 50.4268 15.4509 50.4575C15.6787 50.4883 15.9103 50.4736 16.1324 50.4142C16.3545 50.3549 16.5626 50.2522 16.7448 50.1119C18.1984 48.936 19.6274 47.7356 21.032 46.5106C21.2973 46.2789 21.4809 45.9681 21.5559 45.624C21.6309 45.2799 21.5933 44.9208 21.4485 44.5997C21.3263 44.2453 21.0881 43.9425 20.7725 43.7402C20.4568 43.5379 20.0822 43.448 19.7091 43.4851L19.7826 43.4483ZM11.8328 43.2523C11.8034 43.5959 11.879 43.9403 12.0496 44.24C12.2202 44.5396 12.4778 44.7804 12.7883 44.9305C13.0896 45.1084 13.4399 45.1853 13.7881 45.1501C14.1363 45.1148 14.4641 44.9692 14.7236 44.7345C15.8751 43.779 17.0265 42.8236 18.1535 41.8437C18.3425 41.6975 18.4993 41.5141 18.6143 41.3047C18.7293 41.0953 18.7999 40.8644 18.8217 40.6265C18.8436 40.3886 18.8161 40.1488 18.7412 39.9219C18.6663 39.6951 18.5454 39.4861 18.3862 39.3081C18.0743 38.9507 17.6333 38.7319 17.16 38.6997C16.6868 38.6675 16.2202 38.8247 15.8628 39.1366C14.7236 40.0675 13.5967 41.023 12.4698 41.9784C12.2563 42.1253 12.0807 42.3206 11.9572 42.5484C11.8337 42.7762 11.7659 43.03 11.7593 43.2891L11.8328 43.2523ZM26.8872 55.1954C27.2178 55.1893 27.5368 55.0729 27.7936 54.8646C28.7736 54.0562 29.7535 53.26 30.709 52.4148C30.8834 52.2661 31.0259 52.0837 31.1281 51.8786C31.2304 51.6735 31.2901 51.4499 31.3038 51.2211C31.3176 50.9924 31.285 50.7632 31.208 50.5474C31.1311 50.3315 31.0113 50.1334 30.856 49.9649C30.7158 49.7828 30.5408 49.6305 30.3411 49.5168C30.1414 49.4032 29.921 49.3306 29.6928 49.3032C29.4647 49.2758 29.2333 49.2942 29.0124 49.3574C28.7914 49.4205 28.5853 49.5271 28.4061 49.671C27.3894 50.4672 26.4095 51.3001 25.4418 52.1208C25.1854 52.3719 25.0117 52.6952 24.9438 53.0476C24.876 53.3999 24.9172 53.7646 25.0621 54.0929C25.2008 54.4404 25.4436 54.7363 25.7572 54.9403C26.0708 55.1442 26.4399 55.2462 26.8137 55.2321L26.8872 55.1954ZM21.1913 52.7455C21.5509 52.7752 21.9088 52.6705 22.1957 52.4515C23.2124 51.6186 24.2536 50.7856 25.2213 49.8914C25.5544 49.5755 25.7491 49.1406 25.7628 48.6817C25.7766 48.2227 25.6083 47.777 25.2948 47.4416C25.0151 47.1086 24.6201 46.8933 24.1887 46.8388C23.7572 46.7844 23.3211 46.8946 22.9674 47.1476C21.9262 47.9561 20.9095 48.8135 19.9296 49.6955C19.6733 49.9339 19.5012 50.2491 19.4394 50.5937C19.3775 50.9383 19.4292 51.2936 19.5866 51.6063C19.6706 51.9553 19.8649 52.2678 20.1408 52.4973C20.4167 52.7269 20.7594 52.8612 21.1178 52.8803L21.1913 52.7455ZM28.7981 4.47108C29.4718 4.47108 30.1455 4.47108 30.8192 4.47108C31.4929 4.47108 32.0441 4.70382 32.3014 4.38534C32.5586 4.06686 32.3994 3.3074 32.3871 2.74393C32.3941 2.61768 32.3745 2.49138 32.3297 2.37313C32.285 2.25488 32.2159 2.14731 32.1271 2.05733C32.0383 1.96735 31.9316 1.89694 31.814 1.85064C31.6963 1.80434 31.5703 1.78317 31.4439 1.78849H26.1767C26.0494 1.7814 25.922 1.80126 25.8029 1.84676C25.6837 1.89227 25.5756 1.9624 25.4854 2.05258C25.3952 2.14276 25.3251 2.25095 25.2796 2.37008C25.2341 2.48921 25.2142 2.6166 25.2213 2.74393C25.2213 3.19716 25.2213 3.63813 25.2213 4.09136C25.2213 4.54458 25.307 4.49558 25.6255 4.48333L28.7981 4.47108ZM20.7381 13.4498C19.8316 13.4498 19.8316 13.4498 19.8316 14.3318C19.8316 15.2137 19.8316 15.2382 20.7135 15.2382C21.5955 15.2382 21.62 15.2382 21.62 14.3563C21.62 13.4743 21.5465 13.5478 20.6646 13.5478L20.7381 13.4498ZM37.7768 14.344C37.7768 13.4498 37.7768 13.4498 36.8949 13.4498C36.0129 13.4498 35.9884 13.4498 35.9884 14.344C35.9884 15.2382 35.9884 15.2382 36.8826 15.2382C37.7768 15.2382 37.6911 15.3362 37.6911 14.442L37.7768 14.344ZM29.876 55.4526C30.1913 55.6179 30.5517 55.6762 30.903 55.6188C31.2543 55.5613 31.5775 55.3912 31.8237 55.1341C32.0695 54.9235 32.2464 54.644 32.3316 54.3317C32.4168 54.0194 32.4062 53.6887 32.3014 53.3825L29.876 55.4526Z" fill="#EF4D24"/>
</svg>
