<svg width="50" height="39" viewBox="0 0 50 39" fill="none" xmlns="http://www.w3.org/2000/svg">
<path d="M49.4872 38.5138C49.2455 38.6527 48.9695 38.7206 48.691 38.7098H7.47212C7.30063 38.7098 7.0434 38.82 6.9944 38.6363C6.95151 38.3644 6.95151 38.0875 6.9944 37.8156C6.9944 37.8156 7.09239 37.7544 7.15364 37.7544H48.397C48.1275 36.4192 47.8703 35.0963 47.613 33.8713C46.6943 29.3881 45.7634 24.9171 44.8692 20.3971C44.7834 20.0051 44.6855 19.8336 44.22 19.8336H5.26725C4.88752 19.8336 4.72828 19.9194 4.65478 20.3114C3.50335 25.9542 2.34375 31.597 1.17599 37.2399C1.09024 37.6319 1.17599 37.7544 1.59246 37.7299C2.6214 37.7299 3.65034 37.7299 4.69153 37.7299C5.13251 37.7299 5.03451 37.9871 5.03451 38.2198C5.03451 38.4526 5.16925 38.7343 4.70378 38.722C3.33186 38.722 1.97219 38.722 0.600269 38.722C0.122547 38.722 -0.0734385 38.4893 0.0245558 38.0116C0.453281 35.917 0.894252 33.8346 1.32298 31.74L3.67484 20.2869C3.67484 20.1644 3.67484 20.0296 3.67484 19.8826C2.70715 19.8826 1.7517 19.8826 0.808509 19.8826C0.330787 19.8826 0.453276 19.6132 0.441027 19.3559C0.428778 19.0987 0.379784 18.8782 0.808509 18.8905C2.21718 18.8905 3.63809 18.8905 5.05901 18.8905C5.40199 18.8905 5.54898 18.8905 5.58573 18.4372C5.75722 16.8448 5.97771 15.2524 6.1737 13.66C6.18809 13.5238 6.23736 13.3937 6.31675 13.2821C6.39614 13.1705 6.50297 13.0813 6.62692 13.023C7.85185 12.3371 9.00328 11.6266 10.2037 10.9407C10.3184 10.8842 10.4194 10.8034 10.4998 10.704C10.5802 10.6046 10.638 10.4889 10.6692 10.365C10.8162 9.77699 10.9877 9.14002 11.1592 8.6133C11.2204 8.39282 11.2327 8.25807 10.9509 8.14783C10.6983 8.06464 10.469 7.92258 10.282 7.73336C10.0951 7.54415 9.95576 7.3132 9.8756 7.05956C9.79544 6.80592 9.77672 6.53686 9.82099 6.27457C9.86526 6.01227 9.97125 5.76426 10.1302 5.55098C10.1809 5.48631 10.2084 5.40652 10.2084 5.32437C10.2084 5.24222 10.1809 5.16243 10.1302 5.09776C9.90813 4.76706 9.76791 4.38828 9.72112 3.9927C9.67434 3.59711 9.72234 3.19606 9.86116 2.82269C9.99998 2.44932 10.2256 2.11433 10.5195 1.84538C10.8133 1.57644 11.167 1.38127 11.5511 1.27598C11.8071 1.18371 12.0379 1.03267 12.2248 0.835004C12.5476 0.491749 12.9565 0.241357 13.4089 0.109932C13.8614 -0.0214928 14.3408 -0.0291377 14.7972 0.0877971C15.5911 0.24164 16.3314 0.599135 16.9456 1.12524C17.5597 1.65134 18.0266 2.32799 18.3005 3.08887C18.5314 3.59874 18.5718 4.17449 18.4145 4.71163C18.2572 5.24877 17.9125 5.71172 17.443 6.01645C17.3205 6.11445 17.3205 6.21244 17.296 6.34718C17.1736 7.06989 17.0266 7.7926 16.9408 8.52756C16.9034 8.92936 16.7357 9.30791 16.4631 9.60549C16.2346 9.85326 16.0219 10.1151 15.8261 10.3895C15.7432 10.5284 15.6211 10.6398 15.475 10.7095C15.329 10.7793 15.1656 10.8043 15.0054 10.7814C14.9074 10.7814 14.7359 10.6957 14.6747 10.8672C14.6135 11.0387 14.7727 11.0877 14.8829 11.1489L18.1902 13.0475C18.3646 13.1341 18.5604 13.1682 18.7537 13.1455H23.1022C23.7269 13.1455 23.8984 13.3783 23.6902 13.9907C23.1635 15.5219 22.6245 17.0531 22.0855 18.572C21.9998 18.8047 21.963 18.9395 22.306 18.9395H35.8415H36.013C35.8047 18.2902 35.5842 17.7145 35.3637 17.0286C35.0698 16.1711 34.7513 15.3137 34.4573 14.444C34.4528 14.3976 34.439 14.3527 34.4166 14.3119C34.3942 14.2711 34.3637 14.2353 34.3271 14.2067C34.2904 14.178 34.2483 14.1571 34.2033 14.1453C34.1583 14.1334 34.1113 14.1309 34.0653 14.1377H26.8995C27.071 14.6522 27.2302 15.1299 27.4017 15.5954C27.5732 16.0609 27.6957 16.4161 27.8304 16.8203C27.8814 16.9168 27.9039 17.0258 27.8953 17.1346C27.8868 17.2433 27.8475 17.3474 27.782 17.4347C27.7165 17.522 27.6276 17.5889 27.5256 17.6276C27.4235 17.6663 27.3126 17.6752 27.2057 17.6533C27.0342 17.6533 27.0342 17.5185 26.9975 17.4328C26.581 16.2079 26.1645 15.0809 25.7726 13.8927C25.6256 13.4395 25.7726 13.1823 26.3115 13.1823H30.807C31.0481 13.1637 31.2782 13.0742 31.4685 12.9251C32.4607 12.3371 33.4651 11.7736 34.4695 11.1857C34.592 11.1122 34.8125 11.0877 34.7513 10.8672C34.69 10.6467 34.5063 10.7814 34.3838 10.7692C33.7223 10.7692 33.0609 10.7692 32.3994 10.7692C32.232 10.7896 32.0629 10.7487 31.9233 10.6542C31.7838 10.5596 31.6831 10.4177 31.64 10.2547C31.0525 8.72021 30.7816 7.08268 30.8438 5.44074C30.8362 4.70038 30.931 3.96252 31.1255 3.24812C31.2481 2.71053 31.476 2.20254 31.7959 1.75344C32.1158 1.30435 32.5215 0.923048 32.9895 0.631526C33.4576 0.340003 33.9787 0.144031 34.5228 0.0549151C35.067 -0.0342009 35.6234 -0.0147008 36.1599 0.112296C37.544 0.291048 38.8121 0.978119 39.7176 2.03991C40.6232 3.1017 41.1016 4.46232 41.0597 5.85721C41.073 7.32455 40.9127 8.78832 40.5819 10.218C40.5762 10.3063 40.5521 10.3926 40.5112 10.4711C40.4702 10.5497 40.4134 10.6188 40.3442 10.6741C40.2751 10.7295 40.1951 10.7698 40.1095 10.7925C40.0239 10.8152 39.9345 10.8197 39.847 10.8059C39.308 10.8059 38.7568 10.8059 38.2056 10.8059C38.2056 11.0019 38.3648 11.0019 38.4628 11.0509C39.6877 11.7124 40.8024 12.3738 42.0029 13.0108C42.1598 13.0835 42.2972 13.1925 42.4037 13.3288C42.5102 13.4652 42.5828 13.6249 42.6153 13.7948C42.9828 15.3872 43.387 16.9673 43.7668 18.5597C43.7712 18.6168 43.7873 18.6724 43.8142 18.723C43.841 18.7736 43.878 18.8181 43.9228 18.8537C43.9677 18.8894 44.0194 18.9154 44.0747 18.9301C44.1301 18.9449 44.1879 18.948 44.2445 18.9395C45.7021 18.9395 47.1476 18.9395 48.593 18.9395C49.0462 18.9395 48.9849 19.1599 48.9849 19.4294C48.9849 19.6989 48.9849 19.9561 48.593 19.9316C47.809 19.9316 47.0128 19.9316 46.2289 19.9316C45.8124 19.9316 45.7144 20.0174 45.8001 20.4216C46.1676 22.0508 46.4983 23.6799 46.8291 25.3213C47.6457 29.4779 48.495 33.6263 49.3769 37.7666C49.3769 37.8278 49.3769 37.8891 49.4627 37.9136L49.4872 38.5138ZM13.462 18.915H20.6524C20.9218 18.915 20.9586 18.768 21.0321 18.5842C21.4976 17.2123 21.9753 15.8281 22.4775 14.4562C22.6122 14.101 22.4775 14.0765 22.1713 14.0765C20.0521 14.0765 17.933 14.0765 15.8016 14.0765C15.7001 14.0591 15.5962 14.0621 15.4959 14.0855C15.3956 14.1089 15.301 14.1521 15.2177 14.2126C15.1343 14.2731 15.064 14.3497 15.0107 14.4378C14.9574 14.5259 14.9223 14.6238 14.9074 14.7257C14.4665 16.0854 13.952 17.4695 13.462 18.8905V18.915ZM33.5876 9.80148C33.0587 9.26059 32.6448 8.6181 32.3711 7.91281C32.0975 7.20752 31.9696 6.45407 31.9952 5.69797C31.9952 5.35499 32.1422 5.159 32.4974 5.13451C32.9589 5.11953 33.4097 4.99236 33.811 4.76399C34.2122 4.53562 34.5518 4.21293 34.8003 3.82383C35.0943 3.41961 35.2902 3.38286 35.719 3.68909L37.4339 4.91402C37.591 5.04815 37.7907 5.12197 37.9973 5.12225C38.4021 5.10189 38.7988 5.24026 39.103 5.50792C39.4073 5.77558 39.5951 6.1514 39.6265 6.55542C39.6685 6.95053 39.5552 7.34648 39.3106 7.65963C39.0661 7.97277 38.7093 8.17858 38.3158 8.23357C38.0953 8.23357 38.0831 8.35607 38.0708 8.53981C38.0708 9.76474 38.0708 9.76474 39.2958 9.76474H39.4428C39.6142 9.76474 39.7 9.76474 39.7367 9.532C40.0494 8.10091 40.1526 6.63199 40.043 5.17125C39.9399 4.21478 39.543 3.31374 38.9069 2.59206C38.2708 1.87039 37.4267 1.36354 36.4907 1.14124C36.0101 0.965263 35.4958 0.901105 34.9867 0.953631C34.4776 1.00616 33.9872 1.17399 33.5527 1.44438C33.1182 1.71477 32.751 2.08062 32.479 2.51414C32.207 2.94765 32.0373 3.43745 31.9829 3.94632C31.6535 5.57224 31.725 7.25393 32.1912 8.84604C32.5097 10.0342 32.2402 9.80149 33.5876 9.77699V9.80148ZM10.5467 11.9206L7.36188 13.7703C7.2947 13.8104 7.23979 13.8681 7.20308 13.9372C7.16638 14.0063 7.14928 14.0841 7.15364 14.1622C6.9699 15.6199 6.78616 17.0898 6.59017 18.5597C6.59017 18.8782 6.59017 18.915 6.9454 18.915H11.6246C12.4208 18.915 12.4086 18.915 12.6903 18.131C12.8373 17.7635 12.6903 17.739 12.3963 17.7513H9.06453C8.52556 17.7513 8.36632 17.592 8.42756 17.0531C8.48881 16.5141 8.62355 15.6811 8.69705 14.9952C8.69705 14.7379 8.78279 14.6889 9.04003 14.7257C9.73824 14.8359 9.73824 14.8114 9.62799 15.5096C9.62799 15.7301 9.62799 15.9506 9.54225 16.1834C9.4565 16.7836 9.45651 16.7836 10.069 16.7836H10.2037C10.4854 16.7836 10.5467 16.7101 10.5467 16.4406C10.5344 14.9339 10.5467 13.4518 10.5467 11.8961V11.9206ZM42.3948 16.8203C42.1743 15.9261 41.9539 15.0809 41.7579 14.2235C41.7416 14.1386 41.7068 14.0584 41.656 13.9886C41.6052 13.9187 41.5396 13.8609 41.4639 13.8193C40.7657 13.4518 40.1042 12.8148 39.3938 12.7781C38.6833 12.7413 38.0341 13.3293 37.3481 13.6355H37.2624C36.6377 13.9785 36.0375 14.346 35.3392 13.6355C35.4862 14.1745 35.6455 14.6522 35.817 15.1299C35.9885 15.6076 36.062 16.3549 36.4417 16.7101C36.8214 17.0653 37.5564 16.7713 38.1321 16.7958C38.5363 16.7958 39.1243 16.9673 39.2835 16.7223C39.4428 16.4773 39.2835 15.9384 39.1978 15.4974C39.0998 14.8114 39.0875 14.8359 39.7735 14.7012C40.0675 14.7012 40.1165 14.7012 40.141 14.9952C40.141 15.4974 40.2635 15.9874 40.3247 16.4896C40.3247 16.6611 40.3247 16.7836 40.5942 16.7836L42.3948 16.8203ZM10.8407 3.59109C10.8345 3.65628 10.8345 3.7219 10.8407 3.78708C10.8512 4.12606 10.9621 4.45429 11.1592 4.73028C11.3551 4.92627 11.5756 4.65678 11.7961 4.73028C12.0166 4.80377 11.9554 4.73028 11.9799 4.73028C12.3106 5.07326 12.4576 4.73028 12.6291 4.55879L13.1313 3.90958C13.5478 3.41961 13.7193 3.40736 14.1847 3.83608C14.8639 4.52958 15.7411 4.99597 16.6958 5.17125C16.7812 5.19478 16.8706 5.20023 16.9583 5.18725C17.0459 5.17428 17.1299 5.14316 17.2048 5.0959C17.2797 5.04864 17.344 4.98626 17.3934 4.91276C17.4429 4.83926 17.4765 4.75625 17.492 4.66903C17.596 4.32976 17.596 3.96712 17.492 3.62784C17.2951 3.03684 16.9549 2.5038 16.5017 2.07632C16.0486 1.64883 15.4967 1.3402 14.8952 1.17799C14.5959 1.05043 14.2652 1.0161 13.9461 1.07947C13.6271 1.14285 13.3346 1.30098 13.1068 1.53321C12.7533 1.86603 12.331 2.11696 11.8696 2.26817C11.579 2.34942 11.3222 2.52181 11.137 2.75997C10.9518 2.99813 10.8479 3.28947 10.8407 3.59109ZM14.7727 9.80148C15.1524 9.80148 15.9976 8.96853 16.0589 8.51531C16.1691 7.80485 16.2794 7.09439 16.4141 6.38393C16.4141 6.1757 16.4141 6.0777 16.2059 6.04095C15.3822 5.87638 14.6171 5.49593 13.9887 4.93852C13.7438 4.74253 13.658 4.82827 13.511 5.02426C13.1925 5.44074 12.8618 5.86946 12.5066 6.24919C12.4606 6.33332 12.3904 6.40168 12.3051 6.44537C12.2197 6.48906 12.1232 6.50607 12.0281 6.49418C11.933 6.48229 11.8436 6.44205 11.7717 6.3787C11.6997 6.31534 11.6485 6.23181 11.6246 6.13895C11.4531 5.78372 11.2816 5.75922 11.0367 6.06545C10.9461 6.16744 10.8874 6.29371 10.8678 6.42868C10.8483 6.56364 10.8686 6.70138 10.9264 6.8249C10.9838 6.96949 11.0864 7.09169 11.2188 7.17335C11.3512 7.255 11.5064 7.29175 11.6614 7.27813C12.0166 7.27813 12.3718 7.27813 12.4698 7.69461C12.6064 8.12372 12.8334 8.51854 13.1356 8.85241C13.4378 9.18629 13.8081 9.45145 14.2215 9.62999C14.3794 9.75008 14.5745 9.81078 14.7727 9.80148ZM35.425 4.71803L35.2657 4.85277C34.7264 5.48044 33.994 5.91129 33.1834 6.0777C32.9996 6.0777 32.9629 6.21244 32.9874 6.38393C33.061 7.02468 33.2721 7.642 33.6061 8.19374C33.9401 8.74549 34.3892 9.21867 34.9228 9.58099C34.9861 9.63953 35.0692 9.67205 35.1555 9.67205C35.2418 9.67205 35.3249 9.63953 35.3882 9.58099C36.0175 9.18368 36.5292 8.62547 36.8704 7.96409C36.9437 7.73623 37.0969 7.54254 37.3017 7.41873C37.5066 7.29492 37.7493 7.24933 37.9851 7.29038C38.0696 7.31075 38.1578 7.31038 38.2422 7.28929C38.3265 7.26819 38.4045 7.22701 38.4695 7.16925C38.5345 7.11149 38.5845 7.03886 38.6153 6.95757C38.6462 6.87628 38.6569 6.78874 38.6466 6.70241C38.6479 6.62099 38.6311 6.54029 38.5975 6.46612C38.5639 6.39194 38.5142 6.32614 38.4522 6.27343C38.3901 6.22072 38.3171 6.18243 38.2385 6.16129C38.1598 6.14016 38.0775 6.13671 37.9973 6.15119C37.7738 6.1666 37.5494 6.13535 37.3385 6.05944C37.1277 5.98353 36.9349 5.8646 36.7724 5.71022C36.4172 5.42849 36.0252 5.159 35.6455 4.88952L35.425 4.71803ZM13.7315 12.3493L13.3885 12.6311C12.7883 13.1333 12.7516 13.1333 12.1636 12.6311L11.5144 12.0921C11.5144 13.317 11.5144 14.3827 11.5144 15.4729C11.5144 15.8894 11.3306 16.4528 11.5879 16.6978C11.8451 16.9428 12.3841 16.6978 12.8128 16.7836C13.2415 16.8693 13.2048 16.6488 13.315 16.4039C13.7582 15.1011 13.9006 13.715 13.7315 12.3493ZM39.7 17.7268H37.4339C36.6867 17.7268 36.7112 17.7268 36.9194 18.425C37.0296 18.8047 37.2011 18.9027 37.5931 18.9027C39.112 18.9027 40.6432 18.9027 42.1621 18.9027C42.8848 18.9027 42.8603 18.9027 42.7133 18.1922C42.6276 17.837 42.4928 17.7145 42.1009 17.7268C41.2679 17.7513 40.4962 17.7268 39.7 17.7268ZM37.1031 9.37276C36.8008 9.71816 36.455 10.0229 36.0742 10.2792C35.9491 10.3311 35.8476 10.4272 35.7888 10.5492C35.7301 10.6712 35.7183 10.8105 35.7557 10.9407C35.7839 11.0323 35.7935 11.1287 35.7841 11.2241C35.7746 11.3196 35.7462 11.4122 35.7006 11.4965C35.655 11.5809 35.5931 11.6554 35.5184 11.7155C35.4438 11.7757 35.3579 11.8205 35.2657 11.8471C35.1345 11.9213 35.0077 12.0031 34.886 12.0921L36.111 12.8883C36.1967 12.9495 36.2824 13.023 36.4172 12.9495C37.0174 12.6433 37.6421 12.3616 38.3158 12.0309C38.1076 11.9206 37.9851 11.8226 37.8503 11.7614C37.6573 11.702 37.4918 11.5755 37.384 11.4048C37.2761 11.234 37.233 11.0303 37.2624 10.8304C37.2134 10.3772 37.1399 9.91173 37.1031 9.37276ZM12.0289 9.28701C11.9505 9.62727 11.8523 9.96265 11.7349 10.2915C11.6898 10.3725 11.6613 10.4617 11.6511 10.5539C11.6409 10.646 11.6492 10.7393 11.6754 10.8283C11.7016 10.9172 11.7453 11 11.8039 11.0719C11.8625 11.1438 11.9348 11.2033 12.0166 11.2469C12.8251 11.8839 12.8006 11.9084 13.5478 11.1857C13.6221 11.1398 13.6825 11.0744 13.7223 10.9966C13.7621 10.9188 13.7799 10.8316 13.7735 10.7445C13.7672 10.6573 13.7371 10.5736 13.6865 10.5023C13.6359 10.4311 13.5667 10.3751 13.4865 10.3405C12.9694 10.0347 12.4814 9.6821 12.0289 9.28701ZM16.2304 13.0475L14.6869 12.1656C14.6993 12.345 14.6993 12.5251 14.6869 12.7046C14.6135 13.0843 14.7849 13.17 15.1279 13.1333C15.4709 13.0965 15.8751 13.0475 16.2304 13.0475ZM34.5308 13.0475C33.8693 12.5208 33.8448 12.5208 33.3059 13.0475H34.5308Z" fill="#EF4D24"/>
<path d="M24.8171 21.0096C27.9155 20.9689 30.9559 21.8516 33.5508 23.5452C34.1797 23.9926 34.7479 24.5196 35.2412 25.1131C36.196 26.1935 36.696 27.6012 36.6366 29.0418C36.5772 30.4824 35.9631 31.8442 34.9228 32.8424C33.4059 34.3762 31.4867 35.4505 29.3861 35.9415C25.4007 37.068 21.1412 36.7021 17.4063 34.9125C16.1488 34.3255 15.0457 33.4531 14.1847 32.3647C13.2816 31.3168 12.8065 29.967 12.8541 28.5844C12.9018 27.2019 13.4688 25.888 14.442 24.9049C16.0118 23.269 18.0257 22.1279 20.2359 21.622C21.7319 21.23 23.2706 21.0243 24.8171 21.0096ZM21.4118 28.3592C22.2447 28.3592 23.0777 28.3592 23.9229 28.3592C24.1801 28.3592 24.2904 28.2979 24.2781 28.0162C24.2475 27.4368 24.2475 26.8562 24.2781 26.2768C24.2781 25.946 24.1801 25.8848 23.8739 25.8725C22.4403 25.854 21.0106 25.7188 19.5989 25.4683C19.3784 25.4683 19.2927 25.5296 19.2069 25.7011C18.8816 26.4209 18.6629 27.1843 18.5577 27.9672C18.5577 28.2857 18.6312 28.3592 18.9374 28.3592C19.7581 28.3469 20.5911 28.3592 21.4118 28.3592ZM28.0509 28.3592C28.9084 28.3592 29.7658 28.3592 30.611 28.3592C30.905 28.3592 30.9785 28.2734 30.9417 28.0039C30.8268 27.1936 30.5914 26.4051 30.2435 25.6643C30.2235 25.5958 30.1782 25.5375 30.1168 25.5011C30.0554 25.4648 29.9825 25.453 29.9128 25.4683C28.4537 25.7355 26.9741 25.8749 25.4908 25.8848C25.2703 25.8848 25.1968 25.9705 25.2091 26.2033C25.2091 26.8035 25.2091 27.4282 25.2091 27.9917C25.2091 28.2734 25.2091 28.3837 25.5766 28.3714C26.4095 28.3469 27.2302 28.3592 28.0509 28.3592ZM21.3628 29.3268C20.5298 29.3268 19.6969 29.3268 18.8517 29.3268C18.6435 29.3268 18.521 29.3268 18.5577 29.6086C18.6619 30.4168 18.8848 31.2051 19.2192 31.9482C19.2274 31.9797 19.2421 32.009 19.2624 32.0345C19.2827 32.0599 19.3081 32.0808 19.337 32.0958C19.3658 32.1108 19.3975 32.1196 19.4299 32.1216C19.4624 32.1236 19.4949 32.1188 19.5254 32.1074C20.9949 31.8549 22.4812 31.7116 23.9719 31.6787C24.1924 31.6787 24.2536 31.6052 24.2414 31.397C24.2414 30.8213 24.2414 30.2455 24.2414 29.6698C24.2414 29.3881 24.1556 29.3146 23.8862 29.3268C23.0777 29.3391 22.2202 29.3268 21.3628 29.3268ZM28.1244 29.3268C27.2792 29.3268 26.4218 29.3268 25.5643 29.3268C25.2948 29.3268 25.2213 29.4003 25.2336 29.6698C25.2336 30.221 25.2336 30.76 25.2336 31.3112C25.2336 31.6175 25.3193 31.6787 25.6133 31.691C27.0588 31.7149 28.5003 31.85 29.925 32.0952C30.1333 32.0952 30.2068 32.0952 30.2803 31.8992C30.6165 31.1868 30.8397 30.4264 30.9417 29.6453C30.9417 29.4126 30.9417 29.3146 30.6478 29.3146C29.8026 29.3391 29.0186 29.3268 28.1244 29.3268ZM15.7159 28.3592C16.2303 28.3592 16.7448 28.3592 17.2593 28.3592C17.4798 28.3592 17.5778 28.3592 17.59 28.0774C17.6422 27.1973 17.8538 26.334 18.2147 25.5296C18.3005 25.3091 18.3005 25.2233 18.0555 25.1621C17.5043 25.0273 16.9776 24.8559 16.4386 24.7089C16.3161 24.7089 16.1813 24.6109 16.0711 24.7089C14.9509 25.5356 14.1781 26.7494 13.903 28.1142C13.903 28.3714 14.001 28.3592 14.1725 28.3592H15.7159ZM33.7346 28.3592C34.2038 28.3346 34.674 28.3346 35.1432 28.3592C35.572 28.3592 35.67 28.2489 35.5597 27.8569C35.2264 26.6223 34.4996 25.53 33.4896 24.7456C33.4424 24.7026 33.3846 24.673 33.3221 24.6601C33.2596 24.6472 33.1947 24.6513 33.1344 24.6721L31.4685 25.1743C31.248 25.2356 31.2235 25.3091 31.3092 25.5173C31.6783 26.3195 31.8943 27.1836 31.9462 28.0652C31.9462 28.2979 32.0564 28.3714 32.2769 28.3592C32.6934 28.3469 33.2446 28.3592 33.7346 28.3592ZM33.7958 29.3268C33.2814 29.3268 32.7669 29.3268 32.2524 29.3268C32.0197 29.3268 31.9094 29.3881 31.8972 29.6331C31.8454 30.4501 31.6462 31.2511 31.3092 31.9972C31.199 32.2544 31.2112 32.3524 31.5052 32.4259C32.0074 32.5484 32.5219 32.7077 33.0241 32.8546C33.1589 32.8546 33.3058 32.9771 33.4283 32.8546C34.5119 32.0491 35.2755 30.8862 35.5842 29.5718C35.5842 29.3758 35.5842 29.2901 35.3392 29.3024C34.8248 29.3391 34.3103 29.3268 33.7958 29.3268ZM15.7159 29.3268C15.2627 29.3268 14.8094 29.3268 14.3685 29.3268C13.9275 29.3268 13.8417 29.4248 13.9642 29.8413C14.3214 31.0119 15.0211 32.0487 15.9731 32.8179C16.0415 32.8718 16.1232 32.9059 16.2096 32.9167C16.2959 32.9275 16.3836 32.9145 16.4631 32.8791C16.9653 32.7199 17.4798 32.5607 17.982 32.4382C18.2637 32.3769 18.325 32.3034 18.2025 32.0339C17.8587 31.2895 17.6552 30.4881 17.6023 29.6698C17.6023 29.3881 17.4675 29.3268 17.2103 29.3391C16.7693 29.3391 16.2181 29.3268 15.7159 29.3268ZM29.5086 24.5619C29.515 24.5049 29.515 24.4474 29.5086 24.3904C28.5458 23.1483 27.1424 22.3238 25.5888 22.0875C25.3683 22.0875 25.2703 22.0875 25.2826 22.3448C25.2826 23.092 25.2826 23.8269 25.2826 24.5619C25.2826 24.8559 25.3806 24.9049 25.65 24.9049C26.9418 24.8657 28.2302 24.7511 29.5086 24.5619ZM29.5821 33.0384C28.2643 32.827 26.9348 32.6961 25.601 32.6464C25.2948 32.6464 25.2091 32.7322 25.2213 33.0261C25.2213 33.6141 25.2213 34.2511 25.2213 34.8023C25.2213 35.3535 25.2213 35.5372 25.9318 35.378C27.3958 35.0758 28.6961 34.2424 29.5821 33.0384ZM19.9174 24.5496C21.2639 24.7559 22.6223 24.8746 23.9841 24.9049C24.2169 24.9049 24.2781 24.8314 24.2659 24.5986C24.2659 23.8514 24.2659 23.092 24.2659 22.3325C24.2659 22.1243 24.2659 22.0508 23.9964 22.0753C23.1871 22.1991 22.4103 22.4814 21.7103 22.906C21.0104 23.3306 20.4011 23.8891 19.9174 24.5496ZM20.0154 33.0261C20.0154 33.0874 20.0154 33.1241 20.0154 33.1486C20.9848 34.43 22.419 35.279 24.0086 35.5127C24.2169 35.5127 24.2781 35.4515 24.2659 35.2555C24.2659 34.496 24.2659 33.7366 24.2659 32.9894C24.2659 32.7444 24.2659 32.6832 23.9719 32.6954C22.647 32.7138 21.325 32.8243 20.0154 33.0261ZM32.2647 23.9127C31.3299 23.3505 30.3133 22.9372 29.2513 22.6877C29.4947 22.8932 29.7164 23.123 29.9128 23.3737C30.4395 24.4149 31.2357 24.3659 32.1299 23.9739L32.2647 23.9127ZM32.2647 33.6386L30.8805 33.2956C30.7825 33.2956 30.6478 33.2344 30.5743 33.2956C30.2006 33.8173 29.7913 34.3126 29.3493 34.7778C30.3797 34.5695 31.3661 34.1841 32.2647 33.6386ZM20.1011 22.7735C19.084 23.0072 18.1172 23.4222 17.247 23.9984L18.472 24.3291C18.6067 24.3291 18.7782 24.4394 18.8762 24.3291C19.2192 23.7289 19.7091 23.2757 20.1011 22.7735ZM17.2225 33.6386C18.1089 34.2011 19.0812 34.6149 20.1011 34.8635C19.8071 34.4593 19.4519 34.1163 19.1702 33.7121C18.8884 33.3079 18.7292 33.2221 18.325 33.3936C17.9631 33.4986 17.5948 33.5804 17.2225 33.6386Z" fill="#EF4D24"/>
</svg>
