<svg width="48" height="53" viewBox="0 0 48 53" fill="none" xmlns="http://www.w3.org/2000/svg">
<path d="M35.8033 0C35.9993 0.195989 36.281 0.110243 36.5138 0.171489C37.8875 0.514996 39.1023 1.31856 39.9558 2.44847C40.8094 3.57839 41.2503 4.96652 41.2052 6.38188C41.1743 7.86768 40.6126 9.29335 39.6218 10.401C38.631 11.5086 37.2765 12.2251 35.8033 12.4208C34.227 12.6193 32.6339 12.2145 31.3435 11.2876C30.0532 10.3607 29.1609 8.98026 28.8457 7.42307C28.5455 5.86178 28.8506 4.24474 29.6992 2.90023C30.5477 1.55572 31.8761 0.5845 33.4147 0.183741C33.5862 0.183741 33.8189 0.183739 33.9537 0H35.8033ZM31.2588 6.21039C31.2586 7.19306 31.643 8.1368 32.3298 8.83962C33.0166 9.54245 33.9512 9.94851 34.9336 9.97092C35.9142 9.96798 36.8548 9.58216 37.555 8.8957C38.2552 8.20924 38.6595 7.27644 38.6819 6.29613C38.6885 5.3104 38.3066 4.36173 37.6188 3.65558C36.931 2.94943 35.9927 2.54266 35.0071 2.52335C34.5173 2.51355 34.0306 2.60177 33.5754 2.78282C33.1202 2.96387 32.7058 3.2341 32.3566 3.57762C32.0074 3.92114 31.7304 4.33101 31.5418 4.78314C31.3533 5.23527 31.2571 5.72053 31.2588 6.21039Z" fill="#EF4D24"/>
<path d="M27.1063 52.6228C23.8235 52.6228 20.5284 52.6228 17.2456 52.6228C16.9144 52.6622 16.5786 52.626 16.2634 52.5168C15.9483 52.4076 15.662 52.2283 15.4261 51.9925C15.1903 51.7566 15.011 51.4703 14.9018 51.1552C14.7926 50.84 14.7564 50.5042 14.7958 50.173V42.9826C14.7562 40.9964 15.4362 39.0629 16.7104 37.5388C17.9847 36.0147 19.7671 35.0028 21.7289 34.6899C22.251 34.602 22.7795 34.5569 23.309 34.5551H31.0138C32.8952 34.5202 34.7321 35.129 36.2202 36.2807C37.7083 37.4325 38.7583 39.058 39.1963 40.888C39.3697 41.6015 39.452 42.3342 39.4413 43.0684C39.4413 45.4202 39.4413 47.7599 39.4413 50.1117C39.4713 50.4522 39.4263 50.7952 39.3094 51.1164C39.1926 51.4376 39.0068 51.7294 38.7651 51.9711C38.5234 52.2128 38.2316 52.3986 37.9104 52.5154C37.5892 52.6323 37.2462 52.6773 36.9057 52.6473C33.6964 52.5616 30.4136 52.6228 27.1063 52.6228ZM27.1063 50.173C28.7722 50.173 30.4259 50.173 32.0918 50.173C32.5695 50.173 32.643 50.026 32.6307 49.5973C32.6307 47.4291 32.6307 45.2488 32.6307 43.0806C32.6307 42.2477 33.084 41.77 33.7822 41.8557C34.4804 41.9415 34.6886 42.3334 34.7009 43.0806C34.7009 45.2733 34.7009 47.4659 34.7009 49.6585C34.7009 50.075 34.8234 50.173 35.2153 50.1485C35.6762 50.1178 36.1386 50.1178 36.5995 50.1485C36.8935 50.1485 36.967 50.0627 36.967 49.7687C36.967 47.3189 36.967 44.9425 36.967 42.5294C36.9236 41.0965 36.3334 39.7346 35.3174 38.7232C34.3015 37.7118 32.9369 37.1276 31.5038 37.0907C28.6211 37.0907 25.763 37.0907 22.9293 37.0907C21.5157 37.1354 20.1708 37.7111 19.1628 38.7032C18.1548 39.6954 17.5577 41.0309 17.4906 42.4437C17.4906 44.5873 17.4906 46.7309 17.4906 48.8623C17.4906 49.2788 17.3559 49.8055 17.5641 50.0872C17.7723 50.369 18.3358 50.173 18.789 50.173C19.7322 50.173 19.7322 50.173 19.7322 49.2175V43.0929C19.7322 42.2844 20.161 41.868 20.8347 41.868C21.5084 41.868 21.7901 42.3212 21.8024 43.0929C21.8024 45.3222 21.8024 47.5516 21.8024 49.7687C21.8024 50.1362 21.9004 50.2342 22.2556 50.222C23.7622 50.1117 25.4404 50.1117 27.1063 50.1117V50.173Z" fill="#EF4D24"/>
<path d="M39.6496 32.387H34.1986C33.8809 32.4255 33.5607 32.3381 33.3066 32.1435C33.0525 31.949 32.8846 31.6626 32.839 31.3459C32.8056 31.1588 32.8162 30.9666 32.8699 30.7843C32.9237 30.6021 33.0191 30.4348 33.1486 30.2958C33.2781 30.1568 33.4382 30.0498 33.6162 29.9833C33.7942 29.9168 33.9852 29.8926 34.1741 29.9127C36.0973 29.9127 38.0204 29.9127 39.9313 29.9127C40.3723 29.9127 40.458 29.7902 40.4458 29.3737C40.4458 27.1811 40.4458 24.9885 40.4458 22.7959C40.4196 22.5647 40.4656 22.3311 40.5774 22.1272C40.6893 21.9232 40.8615 21.7589 41.0705 21.6567C41.2304 21.5844 41.4063 21.5548 41.5811 21.5707C41.7558 21.5865 41.9235 21.6474 42.0678 21.7473C42.2121 21.8472 42.328 21.9827 42.4044 22.1407C42.4808 22.2987 42.515 22.4738 42.5036 22.6489C42.5036 24.0943 42.5036 25.5274 42.5036 26.9729C42.5036 27.8303 42.5036 28.6878 42.5036 29.533C42.5036 29.8392 42.5894 29.9127 42.8711 29.9004C43.3856 29.9004 43.9001 29.9004 44.4145 29.9004C44.6473 29.9004 44.782 29.9004 44.782 29.582C44.782 27.1321 44.782 24.6088 44.782 22.1344C44.6866 20.7405 44.0801 19.4309 43.0787 18.4567C42.0773 17.4824 40.7515 16.912 39.3556 16.855C36.4647 16.855 33.5617 16.855 30.6708 16.855C29.8559 16.8578 29.0519 17.0418 28.3168 17.3934C27.5817 17.7451 26.9339 18.2557 26.4203 18.8883L26.1631 19.1946C25.9648 19.4472 25.6753 19.6118 25.3569 19.653C25.0384 19.6943 24.7165 19.6088 24.4604 19.4151C24.3237 19.3174 24.2086 19.1926 24.1222 19.0485C24.0357 18.9045 23.9799 18.7442 23.958 18.5776C23.9362 18.411 23.9489 18.2417 23.9953 18.0802C24.0417 17.9187 24.1208 17.7685 24.2277 17.6389C24.8297 16.8265 25.5774 16.1328 26.4326 15.5933C27.7914 14.7618 29.3598 14.3367 30.9526 14.3683C33.6229 14.3683 36.2933 14.3683 38.9636 14.3683C40.8336 14.3531 42.6535 14.9722 44.1263 16.1246C45.5991 17.277 46.6377 18.8947 47.0726 20.7135C47.201 21.3008 47.2626 21.9007 47.2564 22.5019C47.2564 25.0007 47.2564 27.4996 47.2564 29.9984C47.3018 30.5067 47.1655 31.0146 46.8716 31.4317C46.5778 31.8489 46.1455 32.1484 45.6517 32.2768C45.3504 32.3437 45.0412 32.3685 44.733 32.3503L39.6496 32.387Z" fill="#EF4D24"/>
<path d="M7.60545 40.7044H2.50974C2.19416 40.7506 1.87225 40.7257 1.56748 40.6317C1.26271 40.5377 0.982759 40.3768 0.748039 40.1609C0.513318 39.945 0.329742 39.6794 0.210693 39.3835C0.0916448 39.0876 0.0401222 38.7688 0.0598854 38.4505C0.0598854 35.6087 -0.0748568 32.7546 0.0598854 29.876C0.273963 28.0541 1.0905 26.3559 2.37985 25.051C3.66921 23.7461 5.35751 22.9093 7.17672 22.6734C9.00745 22.5529 10.8431 22.5243 12.6767 22.5877C14.2323 22.5877 15.788 22.5142 17.3436 22.6612C18.0433 22.7223 18.7293 22.8918 19.377 23.1634C19.538 23.2115 19.6874 23.2921 19.8159 23.4004C19.9444 23.5086 20.0492 23.6422 20.1239 23.7927C20.1985 23.9432 20.2415 24.1074 20.25 24.2752C20.2584 24.443 20.2323 24.6108 20.1732 24.7681C20.0649 25.067 19.8446 25.312 19.5588 25.4515C19.2731 25.5909 18.9443 25.6138 18.6421 25.5153C17.3095 25.1356 15.9188 25.0028 14.5385 25.1233C12.5174 25.1233 10.4963 25.1233 8.4139 25.1233C6.99678 25.0708 5.60978 25.5409 4.51667 26.4443C3.42357 27.3477 2.7006 28.6213 2.48525 30.023C2.46695 30.329 2.46695 30.6357 2.48525 30.9417C2.48525 33.1833 2.48525 35.4372 2.48525 37.6788C2.48525 38.0953 2.60774 38.2055 2.99972 38.1688C3.40771 38.1461 3.81665 38.1461 4.22465 38.1688C4.60437 38.1688 4.72687 38.0953 4.71462 37.7033C4.71462 35.5597 4.71462 33.4161 4.71462 31.2724C4.7024 31.0848 4.7024 30.8966 4.71462 30.709C4.73027 30.4929 4.82079 30.289 4.9706 30.1325C5.12041 29.976 5.32012 29.8766 5.53532 29.8515C5.76209 29.8036 5.99852 29.8376 6.2026 29.9474C6.40668 30.0573 6.5652 30.236 6.65 30.4517C6.73618 30.6782 6.77374 30.9203 6.76025 31.1622C6.76025 33.2936 6.76025 35.4372 6.76025 37.5808C6.76025 38.0953 6.90724 38.181 7.37271 38.181C9.22235 38.181 11.0475 38.181 12.9339 38.181C13.2514 38.1498 13.5686 38.2437 13.8179 38.4427C14.0673 38.6417 14.2291 38.9302 14.2691 39.2467C14.2975 39.4297 14.284 39.6168 14.2297 39.7939C14.1753 39.9709 14.0816 40.1334 13.9554 40.269C13.8292 40.4046 13.674 40.5098 13.5013 40.5767C13.3286 40.6436 13.143 40.6705 12.9584 40.6554C11.268 40.7166 9.43059 40.7044 7.60545 40.7044Z" fill="#EF4D24"/>
<path d="M27.1675 32.6934C25.5235 32.6773 23.952 32.0137 22.794 30.8465C21.636 29.6793 20.9848 28.1027 20.9817 26.4585C20.9848 25.6366 21.1505 24.8235 21.4691 24.0658C21.7877 23.3082 22.253 22.621 22.8381 22.0438C23.4232 21.4667 24.1167 21.0109 24.8787 20.7027C25.6406 20.3945 26.4559 20.24 27.2778 20.2481C28.9293 20.2578 30.5094 20.9224 31.6714 22.0959C32.8335 23.2694 33.4825 24.856 33.4759 26.5075C33.4712 27.3288 33.3038 28.1411 32.9836 28.8974C32.6634 29.6538 32.1966 30.3393 31.6101 30.9143C31.0237 31.4894 30.3292 31.9427 29.5667 32.248C28.8042 32.5533 27.9888 32.7047 27.1675 32.6934ZM30.9036 26.4462C30.8848 25.4775 30.4916 24.5537 29.8064 23.8686C29.1213 23.1835 28.1975 22.7903 27.2288 22.7715C26.24 22.794 25.2998 23.2051 24.612 23.9159C23.9242 24.6266 23.5441 25.5797 23.554 26.5687C23.5698 27.5384 23.962 28.464 24.6478 29.1498C25.3335 29.8355 26.2591 30.2278 27.2288 30.2435C28.2176 30.221 29.1577 29.8099 29.8456 29.0991C30.5334 28.3884 30.9135 27.4353 30.9036 26.4462Z" fill="#EF4D24"/>
<path d="M6.18455 14.5889C6.18285 13.7667 6.34477 12.9523 6.66088 12.1932C6.97699 11.4342 7.44096 10.7456 8.02579 10.1676C8.61062 9.58963 9.3046 9.13378 10.0673 8.82663C10.8301 8.51947 11.6463 8.36715 12.4684 8.37852C13.2866 8.38806 14.0948 8.5595 14.8463 8.88295C15.5979 9.2064 16.278 9.67545 16.8474 10.263C17.4168 10.8507 17.8642 11.5452 18.1638 12.3066C18.4634 13.0679 18.6093 13.8811 18.5931 14.6992C18.5423 16.3078 17.869 17.8339 16.715 18.9559C15.5611 20.0779 14.0166 20.708 12.4072 20.7136C10.7718 20.7201 9.20001 20.0801 8.03443 18.9329C6.86886 17.7856 6.20393 16.2242 6.18455 14.5889ZM12.4072 10.7916C11.4394 10.8135 10.5174 11.2076 9.83289 11.8921C9.14841 12.5766 8.75423 13.4987 8.73241 14.4664C8.71597 14.9592 8.79887 15.4503 8.97617 15.9103C9.15348 16.3704 9.42155 16.7901 9.76444 17.1444C10.1073 17.4988 10.518 17.7804 10.972 17.9727C11.4261 18.165 11.9141 18.264 12.4072 18.2637C13.3818 18.2637 14.3165 17.8765 15.0057 17.1874C15.6948 16.4982 16.082 15.5635 16.082 14.5889C16.0984 14.0961 16.0155 13.6051 15.8382 13.145C15.6609 12.6849 15.3928 12.2652 15.0499 11.9109C14.7071 11.5566 14.2964 11.2749 13.8424 11.0826C13.3883 10.8903 12.9003 10.7914 12.4072 10.7916Z" fill="#EF4D24"/>
</svg>
