<svg width="46" height="48" viewBox="0 0 46 48" fill="none" xmlns="http://www.w3.org/2000/svg">
<path d="M21.1065 47.4676C20.7736 46.6607 20.69 45.7725 20.8665 44.9176C20.914 44.4077 20.8492 43.8936 20.6764 43.4116C20.5036 42.9295 20.2271 42.4912 19.8665 42.1276C18.3065 40.3876 16.8665 38.5576 15.3465 36.7676C15.1114 36.5342 14.9275 36.2545 14.8063 35.9462C14.6851 35.6379 14.6293 35.3078 14.6425 34.9768C14.6557 34.6459 14.7375 34.3212 14.8828 34.0236C15.0281 33.7259 15.2337 33.4616 15.4865 33.2476C15.7411 33.036 16.0366 32.879 16.3545 32.7866C16.6725 32.6942 17.0061 32.6683 17.3345 32.7105C17.6629 32.7528 17.979 32.8622 18.2633 33.032C18.5475 33.2019 18.7937 33.4284 18.9865 33.6976C19.5165 34.3276 20.0465 34.9776 20.5765 35.6276C20.8065 35.4976 20.6965 35.2976 20.6965 35.1376C20.6965 33.2576 20.6965 31.3776 20.6965 29.5076C20.7187 29.31 20.6748 29.1106 20.5717 28.9405C20.4685 28.7704 20.312 28.6393 20.1265 28.5676C18.6739 27.81 17.5592 26.534 17.0035 24.9928C16.4478 23.4517 16.4917 21.7579 17.1265 20.2476C17.1991 20.0532 17.3115 19.8761 17.4565 19.7276C17.5723 19.629 17.7194 19.5748 17.8715 19.5748C18.0236 19.5748 18.1707 19.629 18.2865 19.7276C18.4354 19.8224 18.5416 19.9714 18.5827 20.1431C18.6237 20.3148 18.5964 20.4957 18.5065 20.6476C18.0679 21.6255 17.9354 22.7131 18.1265 23.7676C18.268 24.4922 18.5683 25.1765 19.0058 25.7713C19.4432 26.3661 20.0069 26.8566 20.6565 27.2076C20.6565 26.0076 20.6565 24.8676 20.6565 23.7276C20.6589 23.1067 20.904 22.5113 21.3393 22.0686C21.7746 21.6258 22.3657 21.3707 22.9865 21.3576C23.6066 21.3494 24.2052 21.5846 24.6539 22.0127C25.1026 22.4409 25.3656 23.0278 25.3865 23.6476C25.3865 24.8476 25.3865 26.0476 25.3865 27.3676C26.1093 27.0159 26.7367 26.495 27.2155 25.8491C27.6942 25.2033 28.0101 24.4516 28.1365 23.6576C28.3331 22.7199 28.2482 21.7449 27.8923 20.8553C27.5365 19.9657 26.9256 19.2011 26.1365 18.6576C25.4007 18.0842 24.5158 17.7341 23.5869 17.649C22.658 17.5639 21.7241 17.7474 20.8965 18.1776C20.4265 18.3876 20.0365 18.4276 19.7765 17.9176C19.5165 17.4076 19.8665 17.0776 20.3165 16.8476C21.8656 16.1267 23.6344 16.0367 25.2488 16.5966C26.8631 17.1564 28.1964 18.3223 28.9665 19.8476C29.7206 21.3807 29.8468 23.1476 29.3183 24.7724C28.7898 26.3971 27.6483 27.7516 26.1365 28.5476C25.8365 28.7076 25.3665 28.6776 25.3665 29.2776C25.3665 30.4276 25.3165 30.4376 26.4765 30.4376H30.7865C31.2678 30.3989 31.7518 30.4647 32.2053 30.6305C32.6589 30.7963 33.0712 31.0581 33.414 31.3982C33.7569 31.7382 34.0222 32.1483 34.1918 32.6004C34.3614 33.0526 34.4312 33.536 34.3965 34.0176C34.3965 34.4776 34.3965 34.9476 34.3965 35.4076C34.4098 35.5006 34.4024 35.5954 34.375 35.6852C34.3475 35.775 34.3006 35.8577 34.2376 35.9274C34.1747 35.9971 34.0971 36.052 34.0105 36.0883C33.9239 36.1247 33.8303 36.1415 33.7365 36.1376C33.6371 36.1504 33.5362 36.1404 33.4412 36.1084C33.3463 36.0764 33.2599 36.0232 33.1886 35.9529C33.1173 35.8825 33.063 35.7969 33.0297 35.7024C32.9964 35.6079 32.985 35.5071 32.9965 35.4076C32.9965 34.8776 32.9965 34.3376 32.9965 33.8076C32.9881 33.4128 32.8631 33.0292 32.6371 32.7053C32.4111 32.3814 32.0942 32.1317 31.7265 31.9876C31.4265 31.8776 31.2365 31.8776 31.2565 32.2776C31.2765 32.6776 31.2565 33.0276 31.2565 33.3976C31.2622 33.4849 31.2494 33.5725 31.2189 33.6545C31.1885 33.7365 31.141 33.8111 31.0796 33.8735C31.0182 33.9358 30.9443 33.9844 30.8627 34.0162C30.7812 34.0479 30.6939 34.062 30.6065 34.0576C30.5137 34.0703 30.4193 34.0633 30.3294 34.0372C30.2395 34.0112 30.1561 33.9665 30.0845 33.9062C30.0129 33.8459 29.9547 33.7713 29.9137 33.6872C29.8727 33.603 29.8498 33.5112 29.8465 33.4176C29.8465 33.2076 29.8465 32.9976 29.8465 32.7876C29.8465 31.9276 29.3465 31.5776 28.5265 31.8576C28.2965 31.9376 28.3365 32.0876 28.3365 32.2376C28.3365 32.6376 28.3365 33.0276 28.3365 33.4176C28.3412 33.5055 28.3269 33.5934 28.2945 33.6753C28.2621 33.7571 28.2124 33.831 28.1487 33.8918C28.0851 33.9526 28.009 33.9989 27.9258 34.0275C27.8425 34.0561 27.7541 34.0664 27.6665 34.0576C27.58 34.0673 27.4925 34.0592 27.4093 34.0339C27.326 34.0086 27.2488 33.9666 27.1824 33.9104C27.1159 33.8543 27.0616 33.7851 27.0228 33.7073C26.9839 33.6294 26.9614 33.5445 26.9565 33.4576C26.9166 33.1589 26.9166 32.8563 26.9565 32.5576C27.0365 31.9576 26.7965 31.8576 26.2365 31.8276C25.6765 31.7976 25.3165 32.0076 25.4265 32.6676C25.4414 32.8774 25.4414 33.0879 25.4265 33.2976C25.4265 33.7676 25.2165 34.0676 24.7365 34.0576C24.6366 34.0664 24.5361 34.0524 24.4424 34.0165C24.3488 33.9807 24.2646 33.924 24.1962 33.8507C24.1277 33.7775 24.0769 33.6896 24.0475 33.5938C24.0181 33.4979 24.0109 33.3967 24.0265 33.2976C24.0265 32.7476 24.0265 32.1876 24.0265 31.6276V24.1276C24.0265 23.2376 23.7165 22.7976 23.0765 22.7976C22.4365 22.7976 22.0765 23.2176 22.0765 24.1076V37.2876C22.0765 37.7176 22.1965 38.2176 21.6365 38.4076C21.0765 38.5976 20.8365 38.2176 20.5465 37.8676L17.8965 34.6576C17.4165 34.0776 16.8465 33.9576 16.4065 34.3276C15.9665 34.6976 15.9465 35.3276 16.4065 35.8576C18.1865 37.9976 19.9665 40.1276 21.7665 42.2376C21.9385 42.4225 22.0721 42.6397 22.1597 42.8766C22.2472 43.1134 22.2869 43.3653 22.2765 43.6176C22.2765 44.5676 22.2765 45.5176 22.2765 46.4676C22.2945 46.6514 22.2706 46.837 22.2065 47.0102C22.1424 47.1834 22.0398 47.3398 21.9065 47.4676H21.1065Z" fill="#EF4C23"/>
<path d="M31.2562 47.4676C31.1149 47.333 31.0076 47.1666 30.9432 46.9823C30.8789 46.798 30.8594 46.601 30.8862 46.4076C30.9062 46.108 30.9062 45.8073 30.8862 45.5076C30.7866 44.9638 30.826 44.4036 31.0008 43.8791C31.1757 43.3547 31.4802 42.8829 31.8862 42.5076C32.2767 42.1151 32.5814 41.6458 32.7811 41.1294C32.9808 40.613 33.071 40.0607 33.0463 39.5076C33.0463 38.9776 33.2262 38.5676 33.8262 38.5976C34.4262 38.6276 34.4862 39.0776 34.4762 39.5976C34.4512 41.1865 33.8219 42.7062 32.7162 43.8476C32.583 43.9768 32.4785 44.1327 32.4096 44.305C32.3407 44.4773 32.3089 44.6622 32.3162 44.8476C32.3162 45.3076 32.3162 45.7676 32.3162 46.2276C32.3539 46.6812 32.2602 47.1359 32.0463 47.5376L31.2562 47.4676Z" fill="#EF4C23"/>
<path d="M37.0663 22.0676C38.0663 22.0676 39.0663 22.0676 40.1263 22.0676C40.3035 22.0912 40.4835 22.0548 40.6375 21.9642C40.7916 21.8735 40.9109 21.7339 40.9763 21.5676C41.2315 21.076 41.6482 20.6874 42.1564 20.467C42.6645 20.2466 43.2331 20.208 43.7663 20.3576C44.2796 20.5091 44.732 20.8188 45.0588 21.2426C45.3857 21.6664 45.5703 22.1827 45.5863 22.7176C45.5989 23.2532 45.4341 23.7779 45.1176 24.2101C44.8011 24.6423 44.3507 24.9579 43.8363 25.1076C43.292 25.2893 42.7005 25.269 42.1699 25.0505C41.6392 24.832 41.2049 24.4299 40.9463 23.9176C40.8911 23.7713 40.7878 23.648 40.6534 23.5681C40.5189 23.4881 40.3613 23.4562 40.2063 23.4776C38.0997 23.4776 35.9897 23.4776 33.8763 23.4776C33.4763 23.4776 33.3563 23.5576 33.3063 23.9876C33.1313 25.5577 32.5826 27.0631 31.7063 28.3776C31.4163 28.8076 31.1063 29.1376 30.5763 28.7776C30.0463 28.4176 30.2363 28.0176 30.5163 27.5776C31.2953 26.3729 31.7689 24.9966 31.8964 23.5677C32.0238 22.1387 31.8012 20.7003 31.2477 19.3768C30.6943 18.0532 29.8267 16.8845 28.7201 15.9716C27.6134 15.0587 26.301 14.4293 24.8963 14.1376C23.7636 13.9137 22.5978 13.9154 21.4657 14.1426C20.3336 14.3698 19.2574 14.8181 18.2988 15.4618C17.3402 16.1056 16.5179 16.932 15.8792 17.894C15.2404 18.8559 14.7977 19.9344 14.5763 21.0676C14.2288 22.6508 14.3407 24.3002 14.8987 25.822C15.4568 27.3437 16.4377 28.6744 17.7263 29.6576C17.9663 29.8576 18.2763 30.0176 18.3063 30.3976C18.3134 30.5378 18.2805 30.6771 18.2115 30.7992C18.1424 30.9214 18.0401 31.0214 17.9163 31.0876C17.7846 31.1612 17.6326 31.1902 17.4831 31.1704C17.3335 31.1506 17.1943 31.083 17.0863 30.9776C15.3077 29.6449 14.0093 27.7711 13.3863 25.6376C13.2297 25.2526 13.1417 24.843 13.1263 24.4276C13.2063 23.5276 12.7163 23.5076 12.0363 23.5176C10.0963 23.5176 8.14633 23.5176 6.19633 23.5176C6.04295 23.4986 5.88764 23.5316 5.75527 23.6114C5.62291 23.6912 5.52116 23.8131 5.46633 23.9576C5.20987 24.4581 4.78709 24.8537 4.27064 25.0763C3.75419 25.299 3.17632 25.3348 2.63633 25.1776C2.11678 25.0435 1.65716 24.7392 1.33088 24.3132C1.0046 23.8872 0.830475 23.3642 0.836327 22.8276C0.816292 22.2796 0.983726 21.7412 1.31098 21.3012C1.63824 20.8613 2.10575 20.546 2.63633 20.4076C3.16513 20.2708 3.72466 20.3169 4.22395 20.5384C4.72323 20.7599 5.1329 21.1438 5.38633 21.6276C5.43997 21.7751 5.54296 21.8995 5.67783 21.9796C5.81271 22.0598 5.97116 22.0909 6.12634 22.0676H12.3863C12.7463 22.0676 12.9863 22.0676 13.0163 21.5776C13.1553 19.9338 13.7434 18.3598 14.7163 17.0276C14.9863 16.6476 14.9263 16.4576 14.6463 16.0976C14.1769 15.4001 13.5149 14.8539 12.7409 14.5254C11.9669 14.197 11.1142 14.1005 10.2863 14.2476C9.65632 14.3476 9.23632 14.3676 8.92632 15.0476C8.60791 15.6119 8.10553 16.0498 7.50309 16.2882C6.90065 16.5267 6.23465 16.5512 5.61633 16.3576C4.98769 16.1808 4.4368 15.7977 4.05227 15.2698C3.66774 14.742 3.47193 14.1002 3.49633 13.4476C3.50787 12.7809 3.75205 12.1391 4.18664 11.6333C4.62123 11.1275 5.21891 10.7894 5.87634 10.6776C6.4999 10.529 7.15568 10.6013 7.73191 10.8821C8.30814 11.163 8.76914 11.6349 9.03632 12.2176C9.09714 12.4256 9.23335 12.6033 9.4183 12.7161C9.60324 12.8289 9.82361 12.8687 10.0363 12.8276C10.6563 12.8276 11.2863 12.8276 11.9063 12.8276C12.2863 12.8276 12.3763 12.7176 12.3663 12.3576C12.3663 11.3576 12.3663 10.4576 12.3663 9.50762C12.3663 9.04762 12.1563 8.87762 11.8063 8.68762C11.35 8.42644 10.9915 8.02316 10.7857 7.5393C10.5799 7.05544 10.538 6.51754 10.6663 6.00762C10.7838 5.48483 11.0694 5.01496 11.4794 4.66998C11.8894 4.32501 12.4012 4.12395 12.9363 4.09762C13.4611 4.06583 13.9822 4.20441 14.4218 4.49272C14.8615 4.78103 15.1963 5.20364 15.3763 5.69762C15.5917 6.24784 15.5965 6.85817 15.3898 7.41172C15.1832 7.96527 14.7796 8.42313 14.2563 8.69762C14.0974 8.7558 13.9636 8.86741 13.8779 9.01334C13.7921 9.15928 13.7598 9.33046 13.7863 9.49762C13.7863 9.95762 13.7863 10.4276 13.7863 10.8876C13.7863 13.4176 13.7863 13.4076 15.6763 15.1276C15.9163 15.3476 16.0463 15.3476 16.2863 15.1276C17.8359 13.7121 19.7916 12.8199 21.8763 12.5776C22.2863 12.5276 22.4063 12.3876 22.3963 11.9776C22.3963 10.1476 22.3963 8.31762 22.3963 6.48762C22.42 6.31146 22.3795 6.13267 22.2821 5.98394C22.1848 5.83521 22.0372 5.72648 21.8663 5.67762C21.242 5.37565 20.7482 4.85784 20.4761 4.21994C20.204 3.58204 20.1722 2.86721 20.3863 2.20762C20.5942 1.50976 21.0578 0.91607 21.6844 0.545266C22.3111 0.174462 23.0546 0.0538746 23.7663 0.20762C24.4553 0.337544 25.0735 0.713485 25.5059 1.26541C25.9382 1.81733 26.1552 2.5076 26.1163 3.20762C26.1183 3.75744 25.9542 4.29504 25.6455 4.75004C25.3368 5.20504 24.8979 5.55623 24.3863 5.75762C24.2268 5.80626 24.0902 5.91106 24.002 6.05263C23.9137 6.19419 23.8797 6.36293 23.9063 6.52762C23.9063 8.37762 23.9063 10.2276 23.9063 12.0876C23.9063 12.4576 24.0063 12.5976 24.3863 12.6476C26.4711 12.8795 28.4302 13.7611 29.9863 15.1676C30.2463 15.3976 30.4063 15.4276 30.6563 15.1676C31.1763 14.6076 31.7263 14.0776 32.2763 13.5476C32.3631 13.4718 32.4322 13.3779 32.4789 13.2725C32.5255 13.1671 32.5485 13.0528 32.5463 12.9376C32.5463 11.7576 32.5463 10.5776 32.5463 9.39762C32.5463 8.97762 32.2863 8.92762 32.0363 8.77762C31.5825 8.536 31.2187 8.15448 30.999 7.68971C30.7792 7.22493 30.7151 6.70168 30.8163 6.19762C30.8972 5.68461 31.143 5.21192 31.5165 4.85106C31.89 4.4902 32.3708 4.26082 32.8863 4.19762C33.371 4.12337 33.8667 4.19384 34.3115 4.4002C34.7562 4.60656 35.1301 4.93962 35.3863 5.35762C35.5478 5.64158 35.6501 5.95529 35.6871 6.27985C35.7241 6.60442 35.695 6.93312 35.6016 7.24613C35.5082 7.55915 35.3523 7.85001 35.1435 8.10118C34.9346 8.35236 34.677 8.55865 34.3863 8.70762C34.2109 8.77412 34.0636 8.89874 33.969 9.0607C33.8744 9.22266 33.8381 9.41217 33.8663 9.59762C33.8663 10.5276 33.8663 11.4576 33.8663 12.3876C33.8663 12.7076 33.9463 12.8476 34.2863 12.8176C34.6791 12.7876 35.0736 12.7876 35.4663 12.8176C35.874 12.9311 36.309 12.8922 36.69 12.7082C37.071 12.5241 37.3719 12.2075 37.5363 11.8176C37.8889 11.2792 38.421 10.8832 39.0381 10.7001C39.6551 10.517 40.3171 10.5586 40.9063 10.8176C41.4993 11.0308 42.0057 11.4332 42.3473 11.9627C42.6888 12.4923 42.8467 13.1195 42.7963 13.7476C42.7692 14.3779 42.5366 14.9821 42.1339 15.4678C41.7312 15.9535 41.1807 16.2941 40.5663 16.4376C39.9505 16.5869 39.3023 16.5251 38.7258 16.2622C38.1492 15.9993 37.6775 15.5504 37.3863 14.9876C37.0963 14.3476 36.7063 14.3276 36.1263 14.2476C35.2879 14.0886 34.4212 14.1791 33.6338 14.508C32.8463 14.8368 32.1727 15.3896 31.6963 16.0976C31.4163 16.4776 31.3463 16.6576 31.6363 17.0976C32.5773 18.3965 33.157 19.9217 33.3163 21.5176C33.3763 22.0876 33.5863 22.1176 34.0363 22.1076C35.0263 22.0476 36.0463 22.0676 37.0663 22.0676ZM24.6663 3.11762C24.6717 2.92062 24.6381 2.7245 24.5676 2.54047C24.4971 2.35644 24.391 2.18811 24.2554 2.04509C24.1199 1.90208 23.9574 1.78718 23.7774 1.70697C23.5974 1.62676 23.4033 1.58281 23.2063 1.57762C23.0038 1.57358 22.8026 1.61032 22.6146 1.68565C22.4266 1.76098 22.2556 1.87337 22.1119 2.01612C21.9683 2.15887 21.8548 2.32907 21.7782 2.51658C21.7017 2.7041 21.6636 2.9051 21.6663 3.10762C21.6714 3.50575 21.8304 3.88645 22.1101 4.16985C22.3897 4.45324 22.7683 4.61731 23.1663 4.62762C23.5643 4.62239 23.9443 4.46131 24.2247 4.17898C24.5052 3.89664 24.6637 3.51557 24.6663 3.11762ZM39.9063 15.0676C40.2998 15.065 40.6762 14.9068 40.9535 14.6277C41.2307 14.3486 41.3863 13.9711 41.3863 13.5776C41.3811 13.1691 41.2158 12.7789 40.926 12.4909C40.6361 12.203 40.2449 12.0402 39.8363 12.0376C39.4445 12.0676 39.0782 12.2435 38.8097 12.5305C38.5413 12.8175 38.3902 13.1947 38.3863 13.5876C38.3876 13.785 38.4281 13.9802 38.5054 14.1618C38.5828 14.3433 38.6954 14.5078 38.8369 14.6455C38.9783 14.7832 39.1456 14.8914 39.3292 14.9639C39.5128 15.0363 39.709 15.0716 39.9063 15.0676ZM6.44633 15.0676C6.64276 15.069 6.83748 15.031 7.01897 14.9558C7.20047 14.8807 7.36506 14.7699 7.50303 14.6301C7.641 14.4903 7.74954 14.3242 7.82224 14.1417C7.89495 13.9592 7.93034 13.764 7.92632 13.5676C7.93441 13.3709 7.90263 13.1746 7.83289 12.9905C7.76315 12.8063 7.6569 12.6382 7.52052 12.4962C7.38413 12.3542 7.22043 12.2413 7.03927 12.1642C6.85811 12.0871 6.66322 12.0475 6.46633 12.0476C6.26348 12.042 6.06163 12.0781 5.87333 12.1537C5.68503 12.2294 5.51431 12.343 5.37176 12.4874C5.22921 12.6318 5.11787 12.804 5.04469 12.9933C4.9715 13.1826 4.93802 13.3849 4.94633 13.5876C4.94498 13.7845 4.98293 13.9797 5.05796 14.1617C5.13299 14.3438 5.24359 14.509 5.38328 14.6478C5.52297 14.7865 5.68895 14.896 5.87148 14.9698C6.05402 15.0436 6.24945 15.0803 6.44633 15.0776V15.0676ZM14.1563 6.58762C14.1566 6.4511 14.1289 6.31596 14.0749 6.19055C14.0209 6.06514 13.9419 5.95211 13.8426 5.85842C13.7432 5.76473 13.6258 5.69238 13.4975 5.64581C13.3691 5.59923 13.2326 5.57943 13.0963 5.58762C12.8311 5.58762 12.5768 5.69298 12.3892 5.88052C12.2017 6.06805 12.0963 6.32241 12.0963 6.58762C12.0932 6.86141 12.1951 7.12597 12.3811 7.32687C12.5672 7.52778 12.8231 7.64972 13.0963 7.66762C13.2387 7.67655 13.3814 7.65491 13.5147 7.60416C13.648 7.5534 13.7689 7.47471 13.8693 7.37336C13.9697 7.27201 14.0473 7.15036 14.0968 7.01656C14.1463 6.88276 14.1666 6.73991 14.1563 6.59762V6.58762ZM3.24633 21.7576C3.1098 21.7574 2.97468 21.7851 2.84927 21.8391C2.72386 21.893 2.61082 21.9721 2.51713 22.0714C2.42344 22.1707 2.35109 22.2882 2.30451 22.4165C2.25794 22.5448 2.23814 22.6813 2.24633 22.8176C2.2643 23.0926 2.38766 23.35 2.59071 23.5363C2.79375 23.7226 3.06083 23.8234 3.33633 23.8176C3.60154 23.8176 3.8559 23.7123 4.04343 23.5247C4.23097 23.3372 4.33633 23.0828 4.33633 22.8176C4.34561 22.6734 4.32354 22.5289 4.27161 22.3941C4.21969 22.2592 4.13915 22.1372 4.03556 22.0365C3.93197 21.9357 3.80778 21.8586 3.67153 21.8105C3.53528 21.7624 3.39022 21.7443 3.24633 21.7576ZM43.0863 23.8376C43.3584 23.8382 43.6205 23.7351 43.8192 23.5494C44.018 23.3636 44.1385 23.1091 44.1563 22.8376C44.1566 22.7011 44.1289 22.566 44.0749 22.4406C44.0209 22.3151 43.9419 22.2021 43.8426 22.1084C43.7432 22.0147 43.6258 21.9424 43.4975 21.8958C43.3691 21.8492 43.2326 21.8294 43.0963 21.8376C42.8311 21.8376 42.5768 21.943 42.3892 22.1305C42.2017 22.3181 42.0963 22.5724 42.0963 22.8376C42.0963 23.1011 42.2003 23.354 42.3857 23.5412C42.5711 23.7285 42.8228 23.835 43.0863 23.8376ZM34.2363 6.57762C34.2363 6.31241 34.131 6.05805 33.9434 5.87051C33.7559 5.68298 33.5015 5.57762 33.2363 5.57762C33.0998 5.57738 32.9647 5.60509 32.8393 5.65905C32.7139 5.71302 32.6008 5.79209 32.5071 5.8914C32.4134 5.99071 32.3411 6.10815 32.2945 6.23649C32.2479 6.36483 32.2281 6.50134 32.2363 6.63762C32.2485 6.89891 32.3578 7.14626 32.5427 7.33122C32.7277 7.51619 32.975 7.62545 33.2363 7.63762C33.3729 7.63787 33.508 7.61016 33.6334 7.55619C33.7588 7.50223 33.8718 7.42315 33.9655 7.32385C34.0592 7.22454 34.1316 7.10709 34.1781 6.97875C34.2247 6.85042 34.2445 6.7139 34.2363 6.57762Z" fill="#EF4C23"/>
</svg>
