<svg width="47" height="48" viewBox="0 0 47 48" fill="none" xmlns="http://www.w3.org/2000/svg">
<path d="M23.3863 39.3576H3.6163C1.3563 39.3576 0.216309 38.2276 0.216309 35.9676V9.83759C0.216309 7.60759 1.3563 6.47759 3.5663 6.47759H17.1363C17.405 6.45071 17.6764 6.47445 17.9363 6.54758C18.1214 6.6166 18.282 6.73892 18.3977 6.89909C18.5134 7.05927 18.579 7.25013 18.5863 7.44758C18.6062 7.66008 18.5482 7.87258 18.4231 8.04551C18.298 8.21844 18.1144 8.34001 17.9063 8.38758C17.6206 8.44927 17.3285 8.47614 17.0363 8.46758H3.60631C2.42631 8.46758 2.18631 8.71758 2.18631 9.88758C2.18631 18.5542 2.18631 27.2209 2.18631 35.8876C2.18631 37.0176 2.4463 37.2876 3.5563 37.2876H43.2363C44.3463 37.2876 44.5963 37.0276 44.5963 35.8776V20.2176C44.5963 19.4576 44.9963 19.0076 45.5963 19.0176C46.1963 19.0276 46.5963 19.4976 46.5963 20.2576C46.5963 25.6176 46.5963 30.9776 46.5963 36.3376C46.6064 36.7516 46.5289 37.163 46.3689 37.545C46.2089 37.9269 45.9701 38.2708 45.668 38.554C45.3659 38.8372 45.0073 39.0535 44.6158 39.1885C44.2244 39.3235 43.8088 39.3743 43.3963 39.3376L23.3863 39.3576Z" fill="#EF4C23"/>
<path d="M21.7863 19.8976C21.8594 19.1848 22.161 18.5148 22.6463 17.9876C23.1163 17.2576 22.9163 16.7776 22.0463 16.5976C21.7163 16.5276 21.3763 16.4576 21.0463 16.3676C20.622 16.2781 20.2413 16.0455 19.9682 15.7086C19.6951 15.3718 19.5462 14.9513 19.5463 14.5176C19.5463 13.7076 19.5463 12.8976 19.5463 12.0876C19.519 11.6093 19.6725 11.1382 19.9763 10.7678C20.28 10.3973 20.7119 10.1546 21.1863 10.0876C21.5663 9.99762 21.9563 9.93762 22.3363 9.83762C22.4523 9.80993 22.5601 9.75495 22.6506 9.67725C22.7412 9.59956 22.8119 9.50139 22.8568 9.39089C22.9018 9.2804 22.9198 9.16076 22.9093 9.04193C22.8987 8.9231 22.86 8.80848 22.7963 8.70762C22.5863 8.34762 22.3263 8.01762 22.1063 7.70762C21.8593 7.33545 21.7483 6.88944 21.792 6.4449C21.8357 6.00036 22.0315 5.58453 22.3463 5.26762C22.9163 4.65762 23.5063 4.06762 24.1163 3.50762C24.4232 3.19772 24.8279 3.00352 25.2617 2.95796C25.6955 2.91239 26.1317 3.01826 26.4963 3.25762C26.8763 3.47762 27.2263 3.75762 27.5963 3.98762C27.6991 4.05163 27.816 4.08943 27.9368 4.09773C28.0576 4.10602 28.1786 4.08454 28.2892 4.03519C28.3997 3.98583 28.4965 3.91009 28.571 3.81462C28.6454 3.71915 28.6953 3.60687 28.7163 3.48762C29.0063 1.06762 29.7963 0.577617 32.2063 0.707617C32.4563 0.707617 32.6963 0.707617 32.9463 0.707617C33.2359 0.671477 33.5298 0.695516 33.8097 0.778223C34.0895 0.860931 34.3493 1.00053 34.5727 1.18827C34.7961 1.37602 34.9784 1.60787 35.1081 1.86931C35.2377 2.13074 35.312 2.41614 35.3263 2.70762C35.3263 2.94762 35.3963 3.19762 35.4663 3.43762C35.4824 3.57574 35.536 3.70679 35.6214 3.81653C35.7068 3.92626 35.8207 4.01046 35.9507 4.05996C36.0806 4.10946 36.2216 4.12236 36.3584 4.09727C36.4951 4.07217 36.6224 4.01003 36.7263 3.91762C38.8663 2.54762 39.1563 2.57762 40.9863 4.40762L41.4963 4.92762C42.6163 6.06762 42.6863 6.82762 41.7963 8.17762C41.6763 8.36762 41.5363 8.53762 41.4263 8.72762C41.345 8.83267 41.2935 8.95766 41.2772 9.08948C41.2608 9.2213 41.2803 9.35509 41.3335 9.4768C41.3866 9.59852 41.4716 9.70368 41.5794 9.78124C41.6873 9.8588 41.814 9.90591 41.9463 9.91762C44.4663 10.3276 44.7563 11.0576 44.6663 13.3976C44.6663 13.7676 44.6663 14.1376 44.6663 14.5076C44.6441 14.9441 44.4796 15.3612 44.1978 15.6953C43.9161 16.0294 43.5327 16.262 43.1063 16.3576C42.7063 16.4576 42.2863 16.5276 41.8863 16.6176C41.7677 16.6379 41.6558 16.6868 41.5604 16.76C41.4649 16.8333 41.3888 16.9288 41.3385 17.0381C41.2883 17.1474 41.2655 17.2674 41.2721 17.3875C41.2786 17.5077 41.3144 17.6244 41.3763 17.7276C41.5963 18.1076 41.8763 18.4576 42.0963 18.8376C42.3298 19.2035 42.433 19.6374 42.3895 20.0693C42.3459 20.5011 42.1581 20.9057 41.8563 21.2176C41.3063 21.8176 40.7263 22.3876 40.1363 22.9376C39.8071 23.2737 39.37 23.483 38.9018 23.5287C38.4336 23.5745 37.9643 23.4537 37.5763 23.1876C37.2863 23.0076 37.0063 22.8076 36.7163 22.6176C36.608 22.5246 36.476 22.4634 36.335 22.4411C36.194 22.4187 36.0496 22.436 35.9179 22.491C35.7861 22.546 35.6722 22.6365 35.589 22.7524C35.5057 22.8684 35.4563 23.0052 35.4463 23.1476C35.3563 23.5076 35.3163 23.8776 35.2163 24.2276C35.1147 24.6788 34.8599 25.0808 34.4952 25.3652C34.1306 25.6496 33.6786 25.7989 33.2163 25.7876H31.0763C30.5814 25.8219 30.0913 25.671 29.7014 25.3643C29.3115 25.0575 29.0495 24.6167 28.9663 24.1276C28.8963 23.8676 28.8463 23.6076 28.7963 23.3376C28.5963 22.3376 28.1663 22.1576 27.2863 22.7476C26.9485 22.9856 26.5943 23.1995 26.2263 23.3876C26.0047 23.4927 25.7615 23.5441 25.5163 23.5376C24.2563 23.5776 21.7863 21.1176 21.7863 19.8976ZM42.6663 13.2576C42.6663 12.0876 42.7163 12.0276 41.5563 11.8576C40.3963 11.6876 39.7063 11.3076 39.5563 10.1376C39.5266 9.99261 39.4652 9.85598 39.3763 9.73762C39.2004 9.48454 39.1164 9.17889 39.1382 8.87145C39.16 8.56401 39.2864 8.2733 39.4963 8.04762C40.4963 6.64762 40.4263 6.65761 39.2363 5.37761C38.8563 4.96761 38.5863 4.99762 38.2363 5.30762C37.2363 6.15762 36.1663 6.60761 34.9463 5.69761C34.9001 5.6879 34.8525 5.6879 34.8063 5.69761C34.4809 5.65245 34.1823 5.49269 33.9642 5.24707C33.7461 5.00144 33.6227 4.68606 33.6163 4.35762C33.2763 2.64762 33.2563 2.66762 31.5563 2.62762C31.0763 2.62762 30.8063 2.74762 30.7863 3.23762C30.8106 3.89994 30.5939 4.54861 30.1766 5.06344C29.7592 5.57828 29.1693 5.92438 28.5163 6.03762C28.2671 6.15006 27.9936 6.198 27.721 6.17703C27.4484 6.15606 27.1854 6.06685 26.9563 5.91762C25.4163 4.91762 25.4163 4.91762 24.1263 6.21762C23.8263 6.51762 23.8063 6.75762 24.0563 7.01762C24.5703 7.49338 24.8911 8.14172 24.9575 8.83893C25.0239 9.53615 24.8312 10.2334 24.4163 10.7976C24.1663 11.2276 23.9463 11.5776 23.4163 11.6476C22.8863 11.7176 22.4163 11.8376 21.9663 11.9276C21.9005 11.93 21.836 11.9459 21.7766 11.9743C21.7172 12.0027 21.6643 12.043 21.6212 12.0927C21.578 12.1424 21.5456 12.2004 21.5258 12.2632C21.506 12.326 21.4994 12.3922 21.5063 12.4576C21.3863 14.3576 21.3863 14.3576 23.1863 14.7876L23.5463 14.8676C23.7231 14.9115 23.8873 14.9958 24.0261 15.1137C24.1649 15.2317 24.2745 15.3802 24.3463 15.5476C25.0563 16.8976 25.3463 18.1976 24.0863 19.3976C24.0863 19.3976 24.0163 19.5276 23.9663 19.5776C23.7763 19.7976 23.8763 19.9476 24.0263 20.1476C25.2663 21.6676 25.2663 21.6776 26.8963 20.6276L27.1363 20.4676C27.3079 20.3512 27.5066 20.2809 27.7132 20.2634C27.9199 20.2459 28.1275 20.2818 28.3163 20.3676C29.7563 20.8176 30.7963 21.5676 30.7663 23.2576C30.7663 23.2576 30.7663 23.3576 30.7663 23.3976C30.7663 23.7276 30.9663 23.8276 31.3063 23.8576C33.1863 23.9776 33.1863 23.9876 33.6063 22.1176C33.6063 22.0376 33.6063 21.9776 33.6663 21.8976C33.7263 21.3676 34.0963 21.1676 34.5263 20.8976C35.0871 20.4755 35.7872 20.282 36.4852 20.3563C37.1831 20.4305 37.8269 20.767 38.2863 21.2976C38.2863 21.2976 38.2863 21.2976 38.3463 21.2976C38.5763 21.5276 38.7463 21.4276 38.9663 21.2976C40.4463 20.0376 40.4563 20.0376 39.4363 18.4276C39.3763 18.3476 39.3363 18.2576 39.2763 18.1776C39.1393 18.0019 39.0648 17.7855 39.0648 17.5626C39.0648 17.3398 39.1393 17.1233 39.2763 16.9476C39.4279 16.724 39.5427 16.4775 39.6163 16.2176C39.7863 15.1376 40.5063 14.8576 41.4663 14.6776C42.8863 14.4276 42.5763 14.7976 42.6663 13.2576Z" fill="#EF4C23"/>
<path d="M27.2363 30.6276H39.3863C39.7066 30.578 40.0344 30.6268 40.3263 30.7676C40.4857 30.8618 40.613 31.0019 40.6915 31.1697C40.77 31.3374 40.7961 31.5249 40.7663 31.7076C40.7362 31.9148 40.6418 32.1073 40.4965 32.258C40.3512 32.4087 40.1623 32.51 39.9563 32.5476C39.7136 32.5726 39.469 32.5726 39.2263 32.5476H15.2263C15.0531 32.5576 14.8795 32.5576 14.7063 32.5476C14.4411 32.5476 14.1867 32.4423 13.9992 32.2547C13.8117 32.0672 13.7063 31.8128 13.7063 31.5476C13.7072 31.4206 13.7344 31.2952 13.7861 31.1792C13.8379 31.0632 13.9131 30.9592 14.0071 30.8737C14.101 30.7882 14.2116 30.7231 14.332 30.6825C14.4523 30.6418 14.5798 30.6266 14.7063 30.6376C15.6463 30.6376 16.5763 30.6376 17.5063 30.6376L27.2363 30.6276Z" fill="#EF4C23"/>
<path d="M23.3863 47.0476C20.8763 47.0476 18.3863 47.0476 15.8663 47.0476C15.1263 47.0476 14.6963 46.6976 14.6863 46.1076C14.6725 45.9846 14.6841 45.86 14.7206 45.7417C14.7571 45.6234 14.8176 45.514 14.8983 45.4201C14.979 45.3262 15.0782 45.2501 15.1897 45.1963C15.3012 45.1425 15.4226 45.1123 15.5463 45.1076C16.0355 45.0675 16.5271 45.0675 17.0163 45.1076C17.4563 45.1076 17.6363 45.0076 17.6163 44.5376C17.6163 43.8476 17.6163 43.1576 17.6163 42.4676C17.6163 41.7776 17.9463 41.2476 18.5563 41.2376C19.1663 41.2276 19.5563 41.6876 19.5563 42.5076C19.5563 43.3276 19.5563 43.8376 19.5563 44.5076C19.5563 44.9376 19.6163 45.1176 20.1063 45.1176C22.2963 45.1176 24.4763 45.1176 26.6663 45.1176C27.1363 45.1176 27.2563 44.9676 27.2363 44.5276C27.2363 43.7876 27.2363 43.0476 27.2363 42.3176C27.2267 42.1805 27.2454 42.0429 27.2914 41.9134C27.3373 41.7839 27.4094 41.6652 27.5033 41.5648C27.5971 41.4644 27.7106 41.3844 27.8367 41.3298C27.9629 41.2752 28.0989 41.2473 28.2363 41.2476C28.3728 41.2473 28.508 41.2751 28.6334 41.329C28.7588 41.383 28.8718 41.4621 28.9655 41.5614C29.0592 41.6607 29.1316 41.7781 29.1781 41.9065C29.2247 42.0348 29.2445 42.1713 29.2363 42.3076C29.2363 43.0776 29.2363 43.8376 29.2363 44.5976C29.2363 44.9776 29.3363 45.1376 29.7363 45.1076C30.1363 45.0776 30.5763 45.1076 30.9863 45.1076C31.7363 45.1076 32.1863 45.5276 32.1663 46.1076C32.1463 46.6876 31.7063 47.1076 30.9863 47.1076C28.3863 47.0576 25.9163 47.0476 23.3863 47.0476Z" fill="#EF4C23"/>
<path d="M8.51633 30.6376C8.97633 30.6376 9.44632 30.6376 9.91632 30.6376C10.0397 30.6261 10.1641 30.6411 10.2812 30.6816C10.3983 30.7221 10.5054 30.7871 10.5953 30.8723C10.6853 30.9575 10.756 31.0609 10.8027 31.1757C10.8494 31.2904 10.8711 31.4138 10.8663 31.5376C10.8849 31.6606 10.8769 31.7862 10.8429 31.9058C10.8088 32.0254 10.7496 32.1364 10.669 32.2311C10.5884 32.3259 10.4885 32.4023 10.3759 32.4552C10.2633 32.5081 10.1407 32.5362 10.0163 32.5376C8.98373 32.5926 7.94893 32.5926 6.91632 32.5376C6.79007 32.537 6.66536 32.5098 6.5503 32.4579C6.43523 32.4059 6.33238 32.3303 6.24845 32.236C6.16451 32.1417 6.10137 32.0307 6.0631 31.9104C6.02483 31.7901 6.01229 31.6631 6.02632 31.5376C6.01891 31.4127 6.03823 31.2876 6.08298 31.1708C6.12774 31.0539 6.1969 30.9479 6.28586 30.8599C6.37482 30.7719 6.48154 30.7039 6.59888 30.6604C6.71622 30.6168 6.84149 30.5989 6.96633 30.6076C7.47633 30.6276 7.99633 30.6376 8.51633 30.6376Z" fill="#EF4C23"/>
<path d="M32.2363 7.45757C32.4463 7.45757 32.7963 7.45757 33.1363 7.53757C33.2718 7.5509 33.4032 7.59176 33.5223 7.65765C33.6414 7.72353 33.7459 7.81305 33.8292 7.92072C33.9125 8.02839 33.973 8.15195 34.0069 8.28381C34.0408 8.41567 34.0474 8.55306 34.0263 8.68757C34.0027 8.8212 33.9521 8.94861 33.8776 9.06206C33.8031 9.1755 33.7063 9.2726 33.5931 9.34744C33.4799 9.42229 33.3527 9.47331 33.2191 9.4974C33.0856 9.52149 32.9485 9.51814 32.8163 9.48757C31.8899 9.31436 30.9322 9.48883 30.1263 9.97757C29.3295 10.4509 28.7319 11.1977 28.4448 12.079C28.1578 12.9602 28.201 13.9158 28.5663 14.7676C28.9389 15.635 29.6181 16.3348 30.474 16.7333C31.3299 17.1317 32.3026 17.2009 33.2063 16.9276C34.0916 16.6511 34.8481 16.0658 35.3381 15.2785C35.8282 14.4911 36.0191 13.5539 35.8763 12.6376C35.7663 11.9376 36.0563 11.4376 36.6163 11.3376C37.1763 11.2376 37.6963 11.5976 37.8263 12.3376C37.9457 13.0962 37.9141 13.8709 37.7333 14.6173C37.5524 15.3636 37.2258 16.0669 36.7724 16.6867C36.3189 17.3065 35.7475 17.8305 35.0909 18.2288C34.4343 18.6271 33.7055 18.8918 32.9463 19.0076C31.4246 19.2313 29.8762 18.8436 28.6395 17.9292C27.4028 17.0148 26.5784 15.648 26.3463 14.1276C26.2223 13.2892 26.2829 12.4339 26.5238 11.6215C26.7648 10.809 27.1802 10.0589 27.7412 9.42369C28.3021 8.78846 28.995 8.28339 29.7714 7.9438C30.5479 7.6042 31.3891 7.43825 32.2363 7.45757Z" fill="#EF4C23"/>
</svg>
