<svg width="32" height="51" viewBox="0 0 32 51" fill="none" xmlns="http://www.w3.org/2000/svg">
<path d="M9.01638 50.2176C9.01638 49.9676 8.77637 49.9476 8.66637 49.7976C8.55028 49.6541 8.47077 49.4846 8.43465 49.3036C8.39853 49.1226 8.40687 48.9355 8.459 48.7585C8.51113 48.5815 8.60547 48.4197 8.7339 48.2872C8.86234 48.1546 9.02105 48.0553 9.19637 47.9976C9.40719 47.9336 9.62605 47.8999 9.84636 47.8976C13.7264 47.8976 17.6064 47.8976 21.4964 47.8976C22.4264 47.8976 22.8864 48.2976 22.9264 49.0276C22.9664 49.7576 22.5664 49.9376 22.1464 50.2176H9.01638Z" fill="#EF4C23"/>
<path d="M8.76642 26.0576C8.76642 23.1776 8.76642 20.3076 8.76642 17.4276C8.76642 16.8076 8.66641 16.5876 7.97641 16.5976C5.80641 16.6576 3.64642 16.5976 1.48642 16.5976C1.20554 16.645 0.916855 16.5982 0.665409 16.4643C0.413962 16.3304 0.213883 16.1171 0.0964086 15.8576C-0.173591 15.2176 0.166429 14.7776 0.586429 14.3676L14.7964 0.44759C14.8932 0.309362 15.022 0.196509 15.1717 0.118595C15.3214 0.040681 15.4877 0 15.6564 0C15.8252 0 15.9915 0.040681 16.1412 0.118595C16.2909 0.196509 16.4196 0.309362 16.5164 0.44759C21.2698 5.11426 26.0131 9.78092 30.7464 14.4476C30.9772 14.617 31.1462 14.8573 31.2274 15.1318C31.3087 15.4063 31.2978 15.6999 31.1964 15.9676C30.9564 16.5076 30.4264 16.5876 29.8864 16.5876C28.0164 16.5876 26.1464 16.5876 24.2764 16.5876C23.5464 16.5876 23.2764 16.7176 23.2764 17.5176C23.2764 23.1276 23.2764 28.7376 23.2764 34.3376C23.2764 35.8576 22.6564 36.4676 21.1264 36.4676C17.3964 36.4676 13.6564 36.4676 9.91642 36.4676C9.15642 36.4676 8.82642 36.1476 8.76642 35.4676C8.76642 35.1276 8.7164 34.7776 8.7164 34.4676C8.7664 31.6676 8.76642 28.8576 8.76642 26.0576Z" fill="#EF4C23"/>
<path d="M15.6464 41.0776C13.7364 41.0776 11.8164 41.0776 9.89641 41.0776C8.94641 41.0776 8.4264 40.6576 8.4164 39.9176C8.4064 39.1776 8.9464 38.7276 9.8864 38.7276C13.7331 38.7276 17.5897 38.7276 21.4564 38.7276C22.4564 38.7276 22.9264 39.1476 22.9264 39.8976C22.9264 40.6476 22.4264 41.0776 21.4764 41.0776C19.5364 41.0876 17.5964 41.0776 15.6464 41.0776Z" fill="#EF4C23"/>
<path d="M15.6363 45.6576H9.88631C9.66653 45.686 9.44316 45.6619 9.23455 45.5871C9.02593 45.5124 8.83801 45.3892 8.6863 45.2276C8.56497 45.0877 8.47993 44.92 8.43862 44.7395C8.39731 44.5589 8.40102 44.371 8.44942 44.1922C8.49782 44.0134 8.58942 43.8492 8.71617 43.7142C8.84293 43.5791 9.00096 43.4773 9.17632 43.4176C9.43308 43.3445 9.69942 43.3108 9.9663 43.3176H21.3863C22.0163 43.3176 22.5863 43.4276 22.8463 44.0676C23.1863 44.8976 22.5963 45.6576 21.5963 45.6576C19.6163 45.6676 17.6263 45.6576 15.6363 45.6576Z" fill="#EF4C23"/>
</svg>
