<svg width="38" height="37" viewBox="0 0 38 37" fill="none" xmlns="http://www.w3.org/2000/svg">
<path d="M37.5734 9.77184C36.6834 10.2518 35.7734 10.7118 34.8934 11.2118C34.0134 11.7118 34.0034 12.4618 33.6134 13.1218C32.6734 14.7418 32.1934 14.7618 31.1034 13.1918C31.0087 13.0571 30.9579 12.8965 30.9579 12.7318C30.9579 12.5672 31.0087 12.4065 31.1034 12.2718C31.6834 11.1618 31.2734 10.4318 30.3834 9.69184C29.1334 8.69184 29.2134 8.61184 28.5134 10.0718C28.2934 10.5418 28.5734 10.7418 28.7534 11.0218C29.7825 12.5273 30.4968 14.2254 30.8531 16.0139C31.2094 17.8024 31.2005 19.6445 30.8269 21.4295C30.4533 23.2145 29.7227 24.9055 28.6789 26.401C27.6352 27.8964 26.2999 29.1655 24.7534 30.1318C22.8932 31.2904 20.7795 31.9798 18.594 32.1408C16.4085 32.3017 14.2167 31.9294 12.2069 31.0558C10.1971 30.1823 8.42958 28.8336 7.05633 27.1258C5.68309 25.4181 4.74521 23.4023 4.32336 21.2518C3.97292 19.4712 3.9851 17.6381 4.35917 15.8623C4.73325 14.0865 5.46154 12.4043 6.50052 10.9163C7.53949 9.42832 8.86781 8.1651 10.4061 7.20215C11.9443 6.2392 13.661 5.59628 15.4534 5.31184C17.1622 5.02368 18.9111 5.07588 20.5998 5.46543C22.2884 5.85498 23.8834 6.57421 25.2934 7.58184C25.3478 7.55172 25.3983 7.51475 25.4434 7.47184C25.6206 7.21733 25.7406 6.92749 25.7953 6.62222C25.8499 6.31695 25.8379 6.00346 25.76 5.70328C25.6821 5.40309 25.5402 5.12331 25.344 4.88313C25.1478 4.64296 24.902 4.44807 24.6234 4.31184C23.9634 3.87184 23.5534 3.08184 22.6934 2.89184C22.5581 2.86286 22.4388 2.78398 22.3591 2.67093C22.2794 2.55788 22.2452 2.41896 22.2634 2.28184C22.2634 1.99184 22.4834 1.73184 22.7934 1.78184C23.1034 1.83184 23.2834 1.59184 23.4234 1.32184C23.5447 0.985176 23.7542 0.687237 24.0299 0.459099C24.3056 0.230961 24.6375 0.0809804 24.9909 0.0247998C25.3443 -0.0313807 25.7063 0.00829694 26.0392 0.139695C26.3721 0.271092 26.6636 0.489394 26.8834 0.771836C27.5634 1.44184 28.0434 2.55184 28.9434 2.69184C29.8661 2.635 30.7693 2.40072 31.6034 2.00184C32.6034 1.71184 33.5034 1.44184 34.4334 1.11184C34.6796 1.01035 34.9522 0.991562 35.2101 1.05829C35.468 1.12501 35.6972 1.27364 35.8634 1.48184C37.4034 3.04184 37.4234 3.03184 35.4734 4.10184L31.8734 6.10184C32.5534 6.82184 33.2034 7.50184 33.8734 8.19184C33.9399 8.25369 34.0275 8.28807 34.1184 8.28807C34.2092 8.28807 34.2968 8.25369 34.3634 8.19184C35.7034 7.45184 36.7234 7.93184 37.5834 9.02184L37.5734 9.77184ZM5.42335 19.1418C5.39927 19.4747 5.39927 19.8089 5.42335 20.1418C5.57335 20.9018 5.73335 21.6718 5.95335 22.4118C7.66335 28.1618 14.1534 32.0118 19.9034 30.7118C20.1734 30.6518 20.3434 30.6218 20.3034 30.2818C20.0734 27.8918 21.4134 26.2818 23.0234 24.7718C23.7734 24.0818 24.5534 23.4218 25.2634 22.6918C26.1796 21.8927 26.7733 20.7871 26.9334 19.5818C26.9492 18.8566 27.1724 18.1511 27.5764 17.5486C27.9804 16.9461 28.5484 16.4718 29.2134 16.1818C29.4634 16.0618 29.7034 15.9518 29.5934 15.5818C29.2064 14.1448 28.5627 12.7897 27.6934 11.5818C27.3334 12.2318 27.0234 12.8118 26.6934 13.3818C26.3634 13.9518 26.0334 13.9218 25.5834 13.5418C24.0534 12.2618 24.0234 12.2018 24.5834 10.2818C24.6834 9.93184 24.8034 9.59184 24.9034 9.28184C25.0034 8.97184 25.0234 8.82184 24.7534 8.64184C23.4105 7.64729 21.8631 6.9641 20.2234 6.64184C21.4634 8.64184 21.0234 10.3218 19.7934 11.9318C19.4902 12.3155 19.1557 12.6734 18.7934 13.0018C17.3034 14.4018 15.7934 15.7318 14.3034 17.1718C12.8134 18.6118 13.1033 19.3918 14.8433 20.2418C15.7363 20.5994 16.5745 21.0808 17.3334 21.6718C18.3334 22.5218 18.1134 23.4618 16.9034 23.8218C15.0425 24.384 13.0378 24.2196 11.2934 23.3618C9.73937 22.5023 8.30676 21.4396 7.03335 20.2018C6.59852 19.7139 6.04342 19.3484 5.42335 19.1418ZM16.7434 22.6618C16.2939 22.244 15.7765 21.9058 15.2134 21.6618C14.6119 21.3937 14.0304 21.083 13.4734 20.7318C13.165 20.5809 12.8956 20.3607 12.6863 20.0885C12.477 19.8164 12.3333 19.4995 12.2665 19.1627C12.1998 18.8259 12.2117 18.4782 12.3013 18.1468C12.3909 17.8153 12.5559 17.5091 12.7834 17.2518C13.1011 16.7795 13.4737 16.3464 13.8934 15.9618C14.8434 15.0818 15.8434 14.2618 16.7934 13.3818C17.9215 12.5238 18.8467 11.4279 19.5034 10.1718C19.7136 9.75626 19.8097 9.29231 19.7818 8.82742C19.7539 8.36253 19.6031 7.91338 19.3448 7.52587C19.0865 7.13837 18.7299 6.82641 18.3115 6.6219C17.893 6.41738 17.4278 6.32763 16.9634 6.36184C16.6034 6.36184 16.2434 6.45184 15.8834 6.49184C13.2183 6.86192 10.7494 8.09985 8.85862 10.0141C6.96784 11.9284 5.76049 14.4124 5.42335 17.0818C5.35335 17.5618 5.42336 17.9118 6.01336 18.0818C6.66975 18.3097 7.26266 18.6901 7.74336 19.1918C8.64336 19.9318 9.50336 20.7418 10.4434 21.4318C11.3192 22.1245 12.3481 22.5976 13.4441 22.8115C14.54 23.0255 15.6713 22.9742 16.7434 22.6618ZM36.0034 9.21184C35.5202 9.08581 35.0069 9.15401 34.5734 9.40184C34.3058 9.53693 33.9978 9.56878 33.7082 9.49132C33.4187 9.41385 33.1677 9.2325 33.0034 8.98184C32.3034 8.16184 31.5334 7.39184 30.8034 6.60184C30.0734 5.81184 30.2234 5.69184 31.0434 5.24184C32.3234 4.53184 33.6234 3.84184 34.8934 3.10184C35.0634 3.00184 35.5334 3.02184 35.3234 2.60184C35.3005 2.53736 35.2644 2.47838 35.2174 2.42869C35.1704 2.379 35.1135 2.33971 35.0504 2.31334C34.9873 2.28696 34.9194 2.27409 34.851 2.27556C34.7826 2.27702 34.7153 2.29279 34.6534 2.32184C34.4827 2.37781 34.3091 2.42455 34.1334 2.46184C32.5234 2.94184 30.9134 3.41184 29.3234 3.93184C29.0795 4.04421 28.8041 4.06774 28.5447 3.99833C28.2854 3.92893 28.0585 3.77097 27.9034 3.55184C27.3334 2.88184 26.7034 2.28184 26.1134 1.64184C25.6734 1.16184 25.2134 1.05184 24.7134 1.51184C24.2134 1.97184 24.3434 2.51184 24.8134 2.90184C25.2834 3.29184 25.9234 4.01184 26.5434 4.48184C26.8458 4.67413 27.067 4.97098 27.1648 5.31583C27.2625 5.66068 27.23 6.02943 27.0734 6.35184C26.5234 7.93184 26.0734 9.56184 25.5734 11.1518C25.5254 11.2498 25.4979 11.3565 25.4927 11.4655C25.4875 11.5744 25.5046 11.6833 25.543 11.7854C25.5814 11.8874 25.6403 11.9806 25.716 12.0591C25.7918 12.1376 25.8827 12.1998 25.9833 12.2418L28.4434 7.86184C28.9134 7.04184 29.1634 7.00184 29.8734 7.65184C30.5834 8.30184 31.4234 9.17184 32.2434 9.87184C32.4586 10.0325 32.6125 10.2618 32.6798 10.5218C32.747 10.7818 32.7236 11.057 32.6134 11.3018C32.3034 12.3018 32.3234 12.3018 32.5034 12.9918C32.7526 12.133 33.1988 11.3441 33.8064 10.6879C34.4139 10.0318 35.1662 9.52633 36.0034 9.21184ZM21.5334 30.2118C27.2734 28.7318 30.8034 22.0818 29.8034 17.2618C29.4061 17.3674 29.048 17.5862 28.7728 17.8915C28.4976 18.1969 28.3171 18.5757 28.2534 18.9818C28.1034 21.4118 26.7034 23.0818 25.0234 24.6018C23.9823 25.418 23.0483 26.3621 22.2434 27.4118C21.9423 27.8065 21.7242 28.2581 21.6021 28.7393C21.4801 29.2205 21.4567 29.7214 21.5334 30.2118Z" fill="#EF4C23"/>
<path d="M14.1934 35.9918C13.7934 35.8818 13.2434 35.7518 12.7034 35.5818C12.6371 35.5655 12.5746 35.5362 12.5196 35.4956C12.4646 35.4551 12.4181 35.4041 12.3828 35.3456C12.3475 35.2871 12.3241 35.2222 12.3139 35.1546C12.3037 35.0871 12.307 35.0182 12.3234 34.9518C12.3326 34.8765 12.3576 34.8039 12.3968 34.7389C12.4359 34.6739 12.4884 34.6178 12.5506 34.5744C12.6129 34.531 12.6836 34.5012 12.7582 34.487C12.8328 34.4728 12.9095 34.4744 12.9834 34.4918C13.5134 34.5918 13.9834 34.7218 14.5534 34.8318C14.6361 34.8358 14.717 34.8577 14.7904 34.8961C14.8638 34.9344 14.9279 34.9883 14.9784 35.054C15.0288 35.1197 15.0643 35.1955 15.0825 35.2763C15.1006 35.3571 15.1009 35.4409 15.0834 35.5218C15.0134 35.9218 14.7134 36.0818 14.1934 35.9918Z" fill="#EF4C23"/>
<path d="M34.1234 19.3119V19.0819C34.1234 18.5819 34.0534 17.9319 34.7834 17.9719C35.5134 18.0119 35.3634 18.6219 35.3434 19.1019C35.3434 19.4319 35.2834 19.7519 35.2634 20.1019C35.2434 20.4519 35.0734 20.8219 34.6134 20.7819C34.1534 20.7419 34.0734 20.3919 34.0834 20.0019C34.0934 19.7819 34.1034 19.5719 34.1234 19.3119Z" fill="#EF4C23"/>
<path d="M2.96337 11.0819C2.74337 11.5619 2.50336 12.1419 2.20336 12.6919C2.17139 12.7519 2.12728 12.8045 2.07384 12.8466C2.02041 12.8886 1.95882 12.919 1.89298 12.936C1.82715 12.9529 1.75852 12.9559 1.69144 12.9449C1.62437 12.9339 1.56031 12.909 1.50336 12.8719C1.3763 12.8204 1.27356 12.7225 1.21599 12.5981C1.15843 12.4737 1.15034 12.332 1.19337 12.2019C1.35296 11.6231 1.60269 11.073 1.93337 10.5719C1.991 10.4648 2.08637 10.383 2.20095 10.3424C2.31553 10.3017 2.44115 10.3051 2.55337 10.3519C2.69799 10.404 2.81901 10.5065 2.89429 10.6405C2.96958 10.7746 2.9941 10.9312 2.96337 11.0819Z" fill="#EF4C23"/>
<path d="M5.36337 7.38184C5.04545 8.09527 4.5496 8.71507 3.92337 9.18184C3.82017 9.20886 3.71134 9.20529 3.61014 9.17156C3.50893 9.13782 3.41973 9.07538 3.35338 8.99184C3.26642 8.88622 3.21887 8.75366 3.21887 8.61684C3.21887 8.48003 3.26642 8.34747 3.35338 8.24184C3.66162 7.80571 3.99554 7.3883 4.35338 6.99184C4.42832 6.89628 4.53435 6.82995 4.65308 6.80438C4.7718 6.77881 4.89573 6.7956 5.00337 6.85185C5.1053 6.89992 5.19246 6.97445 5.25578 7.06767C5.3191 7.16088 5.35625 7.26938 5.36337 7.38184Z" fill="#EF4C23"/>
<path d="M0.103404 16.3019C0.183404 15.8419 0.253397 15.3019 0.393397 14.7819C0.405139 14.707 0.432224 14.6354 0.472956 14.5715C0.513689 14.5075 0.567198 14.4528 0.630107 14.4105C0.693016 14.3682 0.763978 14.3395 0.838542 14.3259C0.913105 14.3124 0.98965 14.3144 1.0634 14.3319C1.13925 14.3414 1.21234 14.3665 1.27816 14.4054C1.34398 14.4443 1.40115 14.4962 1.44612 14.5581C1.49109 14.6199 1.52292 14.6903 1.53965 14.7649C1.55638 14.8395 1.55766 14.9167 1.54341 14.9919C1.47341 15.5319 1.36341 16.0619 1.26341 16.5919C1.25727 16.6674 1.23586 16.7409 1.20048 16.8079C1.1651 16.8749 1.1165 16.9341 1.0576 16.9817C0.998697 17.0294 0.930727 17.0647 0.857814 17.0853C0.7849 17.1059 0.708557 17.1116 0.633403 17.1019C0.243403 17.0819 0.0834038 16.7619 0.103404 16.3019Z" fill="#EF4C23"/>
<path d="M30.6934 30.3619C30.3257 31.0736 29.7359 31.6459 29.0134 31.9919C28.9092 32.001 28.8045 31.9806 28.7112 31.9332C28.6179 31.8858 28.5398 31.8133 28.4857 31.7238C28.4316 31.6342 28.4036 31.5313 28.405 31.4267C28.4063 31.3221 28.4369 31.22 28.4934 31.1319C28.872 30.6408 29.3123 30.2005 29.8034 29.8219C29.8939 29.7592 30.0006 29.7241 30.1107 29.7208C30.2207 29.7175 30.3294 29.7461 30.4235 29.8032C30.5177 29.8603 30.5932 29.9435 30.6411 30.0426C30.689 30.1418 30.7072 30.2527 30.6934 30.3619Z" fill="#EF4C23"/>
<path d="M19.0034 0.951841L20.2534 1.11184C20.6234 1.17184 20.8634 1.38184 20.8134 1.78184C20.8104 1.86466 20.7896 1.94587 20.7526 2.01999C20.7155 2.09411 20.663 2.15944 20.5985 2.21155C20.5341 2.26367 20.4592 2.30137 20.379 2.32212C20.2988 2.34287 20.215 2.34619 20.1334 2.33184C19.7134 2.33184 19.3034 2.21184 18.8834 2.18184C18.4634 2.15184 18.0534 2.03184 18.0834 1.54184C18.1134 1.05184 18.5334 0.881841 19.0034 0.951841Z" fill="#EF4C23"/>
<path d="M12.4034 2.49187C12.4047 2.62302 12.3675 2.75168 12.2964 2.86189C12.2253 2.9721 12.1234 3.05902 12.0034 3.11187C11.5134 3.33187 11.0034 3.53187 10.5234 3.74187C10.3966 3.79167 10.2558 3.79265 10.1283 3.74462C10.0009 3.69659 9.89575 3.60296 9.83336 3.48187C9.75539 3.38646 9.7171 3.26473 9.72641 3.14187C9.73572 3.01901 9.79191 2.90444 9.88336 2.82187C10.4426 2.37579 11.1137 2.09211 11.8234 2.00187C12.1934 1.95187 12.3034 2.27187 12.4034 2.49187Z" fill="#EF4C23"/>
<path d="M34.8034 23.0819C34.6534 23.5519 34.5134 24.0819 34.3334 24.5719C34.3121 24.6443 34.2761 24.7116 34.2276 24.7695C34.1792 24.8275 34.1193 24.8748 34.0517 24.9086C33.9842 24.9423 33.9104 24.9618 33.835 24.9658C33.7596 24.9699 33.6841 24.9583 33.6134 24.9319C33.5399 24.9152 33.4708 24.883 33.4107 24.8375C33.3506 24.792 33.3009 24.7341 33.265 24.6679C33.229 24.6016 33.2076 24.5285 33.2021 24.4533C33.1967 24.3781 33.2073 24.3026 33.2334 24.2319C33.3516 23.7131 33.5019 23.2021 33.6834 22.7019C33.7022 22.6289 33.7363 22.5608 33.7835 22.5021C33.8306 22.4434 33.8898 22.3954 33.957 22.3613C34.0242 22.3272 34.0978 22.3079 34.1731 22.3045C34.2484 22.3012 34.3234 22.3139 34.3934 22.3419C34.7134 22.4419 34.8034 22.7119 34.8034 23.0819Z" fill="#EF4C23"/>
<path d="M35.0434 15.4318C35.0934 16.0518 35.0434 16.3618 34.5934 16.4318C34.5177 16.4446 34.4402 16.4419 34.3655 16.424C34.2909 16.406 34.2207 16.3732 34.159 16.3274C34.0974 16.2816 34.0456 16.2239 34.0068 16.1577C33.9681 16.0914 33.9431 16.018 33.9334 15.9418C33.8134 15.4518 33.6934 14.9418 33.6134 14.4518C33.5943 14.3781 33.5907 14.3013 33.6029 14.2261C33.6151 14.151 33.6427 14.0792 33.6841 14.0152C33.7254 13.9513 33.7796 13.8967 33.8432 13.8548C33.9067 13.8129 33.9783 13.7846 34.0534 13.7718C34.1263 13.7477 34.2036 13.7397 34.28 13.7484C34.3563 13.7571 34.4299 13.7823 34.4955 13.8223C34.5611 13.8622 34.6173 13.916 34.6601 13.9798C34.7029 14.0436 34.7313 14.116 34.7434 14.1918C34.8834 14.6818 34.9834 15.1818 35.0434 15.4318Z" fill="#EF4C23"/>
<path d="M3.80337 29.2718C3.70337 29.2218 3.49337 29.1718 3.41337 29.0318C3.06337 28.4418 2.41337 28.0318 2.47337 27.1918C2.4954 27.0716 2.56252 26.9642 2.66102 26.8917C2.75952 26.8193 2.88196 26.7871 3.00336 26.8018C3.80336 26.9918 3.93336 27.8018 4.36336 28.3618C4.43795 28.492 4.46282 28.6448 4.43337 28.7918C4.34337 29.0818 4.14337 29.2518 3.80337 29.2718Z" fill="#EF4C23"/>
<path d="M10.9934 34.0219C10.9234 34.4719 10.6934 34.8119 10.2834 34.6619C9.70212 34.4368 9.14582 34.1519 8.62341 33.8119C8.51376 33.7284 8.44094 33.6055 8.42041 33.4692C8.39987 33.3329 8.43323 33.194 8.51341 33.0819C8.54115 33.0193 8.58146 32.963 8.63185 32.9166C8.68224 32.8702 8.7416 32.8346 8.8063 32.8121C8.871 32.7896 8.93964 32.7806 9.00795 32.7858C9.07626 32.7909 9.14278 32.81 9.2034 32.8419C9.7134 33.0819 10.2034 33.3419 10.7034 33.6319C10.8034 33.7119 10.9134 33.9019 10.9934 34.0219Z" fill="#EF4C23"/>
<path d="M15.6634 1.08185C16.0434 1.08185 16.4334 1.08185 16.5034 1.56185C16.5734 2.04185 16.2234 2.24185 15.7934 2.30185L14.4634 2.46185C14.0934 2.46185 13.8034 2.36185 13.7534 1.96185C13.7422 1.8867 13.7464 1.81006 13.7657 1.7366C13.7851 1.66313 13.8192 1.59436 13.866 1.53449C13.9127 1.47462 13.9712 1.42489 14.0378 1.38834C14.1044 1.35178 14.1778 1.32916 14.2534 1.32185C14.7234 1.18185 15.1934 1.08185 15.6634 1.08185Z" fill="#EF4C23"/>
<path d="M33.2234 26.9819C32.9536 27.611 32.5782 28.1894 32.1134 28.6919C32.0131 28.7623 31.8916 28.7957 31.7695 28.7866C31.6473 28.7775 31.5321 28.7264 31.4434 28.6419C31.3348 28.5584 31.2606 28.438 31.2348 28.3035C31.209 28.169 31.2334 28.0296 31.3034 27.9119C31.5617 27.4402 31.8455 26.9829 32.1534 26.5419C32.2208 26.4237 32.3311 26.336 32.4614 26.2969C32.5917 26.2579 32.7321 26.2704 32.8534 26.3319C32.9785 26.3838 33.0827 26.4758 33.1497 26.5935C33.2167 26.7112 33.2426 26.8478 33.2234 26.9819Z" fill="#EF4C23"/>
<path d="M27.4234 33.0819C27.408 33.1893 27.3685 33.2919 27.3079 33.382C27.2473 33.472 27.1671 33.5472 27.0734 33.6019C26.6134 33.8619 26.1434 34.1319 25.6634 34.3719C25.6043 34.4059 25.5388 34.4273 25.471 34.4346C25.4033 34.4419 25.3347 34.4349 25.2698 34.4142C25.2049 34.3935 25.1449 34.3595 25.0939 34.3143C25.0429 34.2692 25.0018 34.2138 24.9734 34.1519C24.9319 34.0974 24.9015 34.0353 24.8841 33.9691C24.8667 33.9029 24.8625 33.8339 24.8718 33.7661C24.881 33.6983 24.9036 33.633 24.9382 33.5739C24.9728 33.5148 25.0188 33.4632 25.0734 33.4219C25.5555 33.0771 26.0715 32.7822 26.6134 32.5419C27.0634 32.3519 27.3534 32.6219 27.4234 33.0819Z" fill="#EF4C23"/>
<path d="M18.0234 35.0818H18.6534C18.736 35.075 18.819 35.0851 18.8976 35.1114C18.9761 35.1377 19.0484 35.1798 19.1102 35.235C19.172 35.2902 19.2218 35.3574 19.2567 35.4325C19.2917 35.5076 19.311 35.589 19.3134 35.6718C19.3134 36.0618 19.0434 36.2618 18.6834 36.2918C18.3234 36.3218 17.8534 36.2918 17.4334 36.2918C17.0134 36.2918 16.6234 36.2018 16.6034 35.7018C16.5834 35.2018 16.9734 35.0818 17.3934 35.0618H18.0234V35.0818Z" fill="#EF4C23"/>
<path d="M0.0033534 20.0818V19.3118C-0.00492734 19.2372 0.00216779 19.1617 0.0241969 19.0899C0.046226 19.0181 0.082732 18.9515 0.131451 18.8944C0.18017 18.8372 0.240074 18.7907 0.307476 18.7576C0.374879 18.7244 0.448347 18.7055 0.523358 18.7018C0.657847 18.6836 0.794255 18.7167 0.905438 18.7946C1.01662 18.8724 1.09443 18.9892 1.12336 19.1218C1.27166 19.73 1.31561 20.3589 1.25335 20.9818C1.23836 21.102 1.17851 21.2121 1.08578 21.29C0.993054 21.3679 0.874307 21.4078 0.753353 21.4018C0.617635 21.4204 0.479898 21.3876 0.367077 21.3099C0.254256 21.2322 0.174471 21.1152 0.143353 20.9818C0.0786163 20.6849 0.0318652 20.3844 0.0033534 20.0818Z" fill="#EF4C23"/>
<path d="M22.7234 34.3218C23.1034 34.3218 23.3634 34.3218 23.4634 34.6618C23.4954 34.7309 23.5125 34.8059 23.5135 34.8821C23.5146 34.9582 23.4995 35.0337 23.4692 35.1036C23.439 35.1734 23.3944 35.2361 23.3382 35.2875C23.282 35.339 23.2157 35.3779 23.1434 35.4018C22.6033 35.5835 22.0522 35.7305 21.4934 35.8418C21.3583 35.8688 21.2181 35.8421 21.1024 35.7674C20.9866 35.6928 20.9045 35.576 20.8734 35.4418C20.8488 35.3697 20.8392 35.2933 20.8452 35.2173C20.8512 35.1413 20.8727 35.0674 20.9082 35C20.9438 34.9326 20.9928 34.8731 21.0521 34.8253C21.1115 34.7775 21.18 34.7423 21.2534 34.7218C21.8034 34.5518 22.2934 34.4418 22.7234 34.3218Z" fill="#EF4C23"/>
<path d="M8.50337 4.45189C8.50337 4.97189 7.01336 6.21189 6.59336 6.06189C6.17336 5.91189 5.92337 5.48189 6.32337 5.06189C6.72328 4.66576 7.17789 4.329 7.67336 4.06189C7.74885 4.00564 7.8382 3.97094 7.93186 3.96149C8.02553 3.95204 8.12001 3.96819 8.20521 4.00823C8.29041 4.04826 8.36315 4.11068 8.41566 4.18882C8.46817 4.26695 8.49848 4.35787 8.50337 4.45189Z" fill="#EF4C23"/>
<path d="M7.38336 31.7818C7.38925 31.8886 7.36601 31.9949 7.31616 32.0895C7.2663 32.184 7.1917 32.2633 7.10031 32.3187C7.00891 32.3742 6.90416 32.4038 6.79725 32.4043C6.69035 32.4049 6.58532 32.3764 6.49336 32.3218C5.94617 32.0211 5.47699 31.5964 5.12336 31.0818C5.06443 31.0017 5.02875 30.9069 5.02028 30.8078C5.0118 30.7088 5.03084 30.6093 5.07531 30.5203C5.11979 30.4314 5.18796 30.3564 5.27231 30.3038C5.35666 30.2511 5.45392 30.2227 5.55336 30.2218C5.89336 30.1318 7.35336 31.4218 7.38336 31.7818Z" fill="#EF4C23"/>
<path d="M2.3334 24.7018C2.3334 25.1418 2.27339 25.3818 1.98339 25.4818C1.91489 25.5144 1.84039 25.5325 1.76457 25.5349C1.68874 25.5373 1.61322 25.524 1.54278 25.4959C1.47234 25.4677 1.40849 25.4253 1.35525 25.3712C1.30201 25.3172 1.26052 25.2527 1.23339 25.1818C1.02237 24.6571 0.845334 24.1193 0.703395 23.5718C0.682147 23.5075 0.674458 23.4395 0.680812 23.3721C0.687166 23.3047 0.707434 23.2393 0.740321 23.1801C0.773208 23.1209 0.818011 23.0692 0.871898 23.0282C0.925784 22.9872 0.987582 22.9578 1.0534 22.9418C1.1137 22.911 1.17951 22.8926 1.24702 22.8875C1.31453 22.8824 1.38238 22.8908 1.4466 22.9122C1.51083 22.9336 1.57015 22.9676 1.6211 23.0122C1.67206 23.0568 1.71364 23.111 1.7434 23.1718C1.9834 23.7118 2.1734 24.2718 2.3334 24.7018Z" fill="#EF4C23"/>
</svg>
