<svg width="38" height="38" viewBox="0 0 38 38" fill="none" xmlns="http://www.w3.org/2000/svg">
<path d="M37.5427 7.7V30.1C37.238 30.8855 36.6777 31.5456 35.952 31.9738C35.2263 32.4019 34.3776 32.5732 33.5427 32.46C30.7127 32.37 27.8827 32.46 25.0527 32.46C24.6627 32.46 24.3627 32.46 24.3727 33C24.3827 33.54 24.5427 33.68 25.0527 33.67C26.1327 33.67 27.2227 33.67 28.3027 33.67C29.0927 33.67 29.4927 33.89 29.4127 34.75C29.3627 35.2922 29.3627 35.8378 29.4127 36.38C29.4927 37.18 29.1727 37.38 28.4127 37.38C22.5527 37.38 16.6827 37.38 10.8127 37.38C8.04267 37.38 8.06268 37.38 8.11268 34.62C8.11268 33.89 8.44268 33.67 9.11268 33.68C10.2027 33.68 11.2827 33.68 12.3627 33.68C12.8027 33.68 13.1727 33.74 13.1727 33.07C13.1727 32.4 12.7527 32.49 12.3527 32.49C9.35267 32.49 6.27268 32.49 3.23268 32.49C2.81845 32.5047 2.40546 32.4364 2.01799 32.2892C1.63052 32.142 1.27638 31.9189 0.976393 31.6329C0.676402 31.3468 0.436611 31.0037 0.271112 30.6237C0.105614 30.2437 0.017745 29.8345 0.0126744 29.42C0.0126744 22.4667 0.0126744 15.5167 0.0126744 8.57C-0.0388112 8.06784 0.0673687 7.56211 0.316465 7.12305C0.565562 6.684 0.945209 6.33341 1.40267 6.12C1.95265 5.89265 2.44972 5.55412 2.86271 5.12564C3.27571 4.69716 3.59572 4.18797 3.80268 3.63C4.13642 3.05753 4.55826 2.5412 5.05268 2.1C6.15009 1.12451 7.4519 0.406973 8.86268 0H12.4727C12.565 0.060921 12.6619 0.114422 12.7627 0.16C13.9614 0.465813 15.0717 1.04853 16.0043 1.86132C16.9369 2.67412 17.6659 3.69433 18.1327 4.84C18.2025 5.05771 18.3447 5.24494 18.5358 5.37049C18.7268 5.49604 18.9552 5.55234 19.1827 5.53C23.9027 5.53 28.6327 5.53 33.3527 5.53C35.2327 5.39 36.7127 5.87 37.5427 7.7ZM2.49267 6.85C2.09032 7.02461 1.75309 7.32137 1.52875 7.69826C1.30441 8.07515 1.20432 8.51307 1.24267 8.95C1.24267 14.4 1.24267 19.85 1.24267 25.29C1.24267 25.96 1.39268 26.14 2.07268 26.13C13.206 26.13 24.3393 26.13 35.4727 26.13C36.1727 26.13 36.3127 25.95 36.3027 25.29C36.3027 19.9 36.3027 14.51 36.3027 9.13C36.3027 7.41 35.6627 6.77 33.9727 6.77H20.1327C18.7727 6.77 18.7727 6.77 18.7627 8.09C18.7467 9.4838 18.373 10.8501 17.6775 12.0581C16.9819 13.2661 15.9879 14.2752 14.7905 14.9888C13.5931 15.7024 12.2326 16.0966 10.8392 16.1336C9.44577 16.1705 8.06621 15.8491 6.83267 15.2C3.62267 13.45 2.28267 10.65 2.49267 6.85ZM18.7827 27.41H10.4827C7.71268 27.41 4.95268 27.41 2.18268 27.41C1.34268 27.41 1.11267 27.66 1.24267 28.41C1.25269 28.5298 1.25269 28.6502 1.24267 28.77C1.24267 30.51 1.91267 31.18 3.63267 31.18H33.8527C34.1203 31.1886 34.3882 31.1718 34.6527 31.13C35.0906 31.0753 35.4946 30.8659 35.7917 30.5395C36.0888 30.213 36.2594 29.7912 36.2727 29.35C36.2727 28.99 36.2727 28.62 36.2727 28.27C36.3627 27.6 36.1327 27.42 35.4427 27.42C29.9027 27.42 24.3427 27.41 18.7827 27.41ZM10.6227 14.83C12.4447 14.83 14.1921 14.1062 15.4805 12.8178C16.7689 11.5295 17.4927 9.78204 17.4927 7.96C17.4847 6.14409 16.7571 4.4054 15.4693 3.1251C14.1815 1.8448 12.4386 1.12734 10.6227 1.13C9.71988 1.13121 8.82634 1.31191 7.99402 1.66159C7.16171 2.01128 6.40722 2.52297 5.77446 3.1669C5.14169 3.81083 4.64328 4.57414 4.30821 5.41245C3.97314 6.25076 3.80809 7.14733 3.82268 8.05C3.83582 9.84757 4.5571 11.5675 5.83007 12.8367C7.10305 14.1059 8.82508 14.8222 10.6227 14.83ZM18.7627 36.12H27.4227C27.9027 36.12 28.1827 36.12 28.1727 35.48C28.1627 34.84 27.8027 34.94 27.4227 34.94H10.1027C9.72267 34.94 9.36267 34.83 9.35267 35.48C9.34267 36.13 9.63267 36.12 10.1027 36.12H18.7627ZM18.8527 32.43H15.0627C14.6927 32.43 14.3627 32.38 14.3927 32.95C14.4227 33.52 14.4527 33.66 15.0127 33.65C17.5127 33.65 20.0093 33.65 22.5027 33.65C23.0727 33.65 23.1127 33.41 23.1327 32.96C23.1527 32.51 22.8427 32.42 22.4627 32.43H18.8527Z" fill="#EF4C23"/>
<path d="M26.8827 24.88C25.8047 24.8882 24.7361 24.6802 23.74 24.2681C22.7438 23.8561 21.8405 23.2484 21.0834 22.481C20.3263 21.7137 19.7308 20.8022 19.3322 19.8006C18.9336 18.7991 18.7399 17.7277 18.7627 16.65C18.7864 14.5078 19.6589 12.4626 21.1886 10.9628C22.7184 9.46306 24.7805 8.6313 26.9227 8.64997C27.9973 8.64584 29.062 8.85612 30.0543 9.2685C31.0467 9.68088 31.9468 10.2871 32.7021 11.0516C33.4573 11.8161 34.0524 12.7236 34.4526 13.721C34.8528 14.7183 35.05 15.7855 35.0327 16.86C35.0288 17.923 34.8144 18.9748 34.4018 19.9546C33.9893 20.9344 33.3867 21.8227 32.629 22.5684C31.8713 23.314 30.9734 23.9022 29.9871 24.299C29.0008 24.6957 27.9457 24.8932 26.8827 24.88ZM33.7527 16.76C33.7553 15.8574 33.5798 14.9632 33.2363 14.1286C32.8927 13.294 32.3878 12.5354 31.7505 11.8963C31.1133 11.2572 30.3561 10.7501 29.5225 10.4041C28.6889 10.0581 27.7952 9.87996 26.8927 9.87997C25.0688 9.8879 23.3225 10.6187 22.0366 11.9121C20.7506 13.2055 20.03 14.9561 20.0327 16.78C20.03 18.5959 20.7475 20.3388 22.0278 21.6266C23.3081 22.9144 25.0468 23.642 26.8627 23.65C27.7694 23.6566 28.6683 23.4829 29.5072 23.139C30.3462 22.7951 31.1084 22.2879 31.7495 21.6468C32.3906 21.0056 32.8979 20.2434 33.2418 19.4045C33.5857 18.5656 33.7593 17.6666 33.7527 16.76Z" fill="#EF4C23"/>
<path d="M16.4027 21.04C16.1127 20.5 15.2227 20.12 15.9527 19.5C16.6827 18.88 16.9527 19.73 17.3327 20.05C17.47 20.1689 17.6002 20.2958 17.7227 20.43C19.1027 21.81 19.1027 21.81 17.7227 23.22L16.8827 24.04C16.5827 24.33 16.2627 24.42 15.9327 24.09C15.6027 23.76 15.7027 23.45 15.9327 23.09C16.1627 22.73 16.3827 22.78 16.4127 22.43C15.9727 22.36 15.5327 22.32 15.1027 22.21C14.0772 21.9481 13.1565 21.3783 12.4646 20.5773C11.7727 19.7764 11.3428 18.7827 11.2327 17.73C11.1627 17.21 11.2327 16.73 11.8327 16.61C12.4327 16.49 12.5027 17.08 12.5727 17.54C12.9127 19.8 14.2927 21.07 16.4027 21.04Z" fill="#EF4C23"/>
<path d="M9.9527 10.82C9.9527 10.43 9.9527 10.16 9.9527 9.9C10.0127 9.13 10.0027 8.52 9.0227 8.19C8.60779 8.03081 8.25771 7.73797 8.02773 7.35769C7.79776 6.97742 7.70099 6.53138 7.7527 6.09C7.77356 5.63641 7.92538 5.19858 8.18981 4.82944C8.45424 4.46031 8.81994 4.17569 9.2427 4.01C9.5827 3.84 9.9927 3.83 10.0227 3.29C10.0426 3.1527 10.1155 3.02866 10.2258 2.94452C10.3361 2.86039 10.475 2.82286 10.6127 2.84C10.6884 2.83317 10.7647 2.84154 10.8371 2.86462C10.9095 2.88771 10.9766 2.92504 11.0343 2.97442C11.0921 3.0238 11.1394 3.08424 11.1735 3.15217C11.2075 3.22011 11.2277 3.29417 11.2327 3.37C11.2327 3.73 11.5027 3.83 11.8127 3.94C12.2499 4.08609 12.6382 4.3502 12.9347 4.70315C13.2311 5.0561 13.4243 5.48416 13.4927 5.94C13.5927 6.36 13.4927 6.75 13.0027 6.84C12.5127 6.93 12.3327 6.7 12.2427 6.27C12.2049 6.01828 12.0874 5.78533 11.9074 5.60534C11.7274 5.42535 11.4944 5.30782 11.2427 5.27C11.2427 5.91 11.2427 6.5 11.2427 7.09C11.2427 7.44 11.4727 7.51 11.7427 7.61C12.2419 7.74652 12.682 8.044 12.9948 8.45626C13.3076 8.86852 13.4756 9.37251 13.4727 9.89C13.4744 10.3915 13.3122 10.8798 13.0107 11.2806C12.7092 11.6814 12.285 11.9726 11.8027 12.11C11.4727 12.24 11.2327 12.37 11.1827 12.77C11.1327 13.17 10.9127 13.21 10.6027 13.21C10.4639 13.2273 10.3238 13.1901 10.2118 13.1062C10.0999 13.0222 10.0249 12.8981 10.0027 12.76C10.0027 12.3 9.6427 12.22 9.3027 12.08C8.90818 11.9291 8.55873 11.68 8.28747 11.3563C8.01622 11.0325 7.83214 10.6448 7.7527 10.23C7.6627 9.82 7.6827 9.4 8.1727 9.23C8.6627 9.06 8.9127 9.36 8.9927 9.83C9.04484 10.068 9.1623 10.2867 9.33189 10.4615C9.50147 10.6364 9.71646 10.7606 9.9527 10.82ZM11.2127 9.72C11.3727 10.06 10.9927 10.65 11.4527 10.72C11.9127 10.79 12.2127 10.24 12.2227 9.8C12.2327 9.36 11.9327 8.8 11.4727 8.8C11.0127 8.8 11.3727 9.43 11.2127 9.72ZM9.9027 7.17V5.17C9.66242 5.20396 9.44269 5.32413 9.28447 5.50812C9.12624 5.6921 9.04031 5.92735 9.0427 6.17C9.04031 6.41265 9.12624 6.6479 9.28447 6.83188C9.44269 7.01587 9.66242 7.13604 9.9027 7.17Z" fill="#EF4C23"/>
<path d="M26.1227 19.83H28.0227C28.1906 19.845 28.3599 19.8262 28.5204 19.7746C28.6809 19.723 28.8295 19.6397 28.9572 19.5297C29.085 19.4197 29.1893 19.2851 29.2641 19.134C29.3389 18.9829 29.3827 18.8183 29.3927 18.65C29.3864 18.4849 29.347 18.3227 29.2766 18.1731C29.2063 18.0236 29.1065 17.8898 28.9833 17.7796C28.8601 17.6695 28.716 17.5853 28.5595 17.5321C28.4031 17.4789 28.2375 17.4578 28.0727 17.47C27.7427 17.47 27.4027 17.47 27.0727 17.47C26.1827 17.4 25.3927 17.39 25.6227 18.69C25.6927 19.06 25.4127 19.31 25.0127 19.31C24.9293 19.3158 24.8457 19.3038 24.7673 19.2748C24.6889 19.2458 24.6176 19.2005 24.558 19.1419C24.4985 19.0833 24.452 19.0127 24.4218 18.9348C24.3916 18.8569 24.3782 18.7734 24.3827 18.69C24.3827 17.85 24.3827 17 24.3827 16.16C24.4327 15.53 25.0027 15.34 25.4927 15.74C26.3914 16.1526 27.4045 16.2444 28.3627 16C28.5175 15.8904 28.6338 15.7347 28.6948 15.5551C28.7559 15.3755 28.7586 15.1812 28.7027 15C28.5927 14.5 28.2027 14.35 27.7027 14.35H23.7027C23.6194 14.3571 23.5355 14.3465 23.4567 14.3188C23.3778 14.2911 23.3057 14.2469 23.2452 14.1892C23.1847 14.1316 23.1371 14.0617 23.1057 13.9842C23.0742 13.9068 23.0596 13.8235 23.0627 13.74C23.0558 13.6571 23.0661 13.5737 23.0932 13.495C23.1202 13.4163 23.1633 13.3441 23.2197 13.283C23.2761 13.2219 23.3447 13.1732 23.4209 13.1399C23.4972 13.1067 23.5795 13.0897 23.6627 13.09C24.0427 13.09 24.3827 13.09 24.3127 12.53C24.2989 12.4392 24.3057 12.3465 24.3327 12.2587C24.3598 12.1709 24.4063 12.0904 24.4687 12.0231C24.5312 11.9558 24.6081 11.9035 24.6936 11.8701C24.7792 11.8366 24.8711 11.8229 24.9627 11.83C25.055 11.8279 25.1466 11.8467 25.2306 11.8852C25.3146 11.9236 25.3887 11.9806 25.4474 12.0518C25.5062 12.1231 25.548 12.2067 25.5697 12.2965C25.5914 12.3863 25.5924 12.4798 25.5727 12.57C25.5127 13.08 25.8127 13.08 26.1727 13.07C26.5327 13.06 26.9127 13.13 26.8327 12.54C26.8157 12.4499 26.8195 12.3572 26.8439 12.2689C26.8683 12.1805 26.9127 12.099 26.9735 12.0304C27.0343 11.9619 27.11 11.9082 27.1948 11.8734C27.2796 11.8387 27.3713 11.8238 27.4627 11.83C27.5548 11.8267 27.6465 11.8443 27.7308 11.8815C27.8152 11.9186 27.89 11.9745 27.9496 12.0447C28.0093 12.115 28.0523 12.1978 28.0753 12.2871C28.0984 12.3763 28.1009 12.4696 28.0827 12.56C28.055 12.7041 28.0829 12.8533 28.1608 12.9777C28.2388 13.102 28.3609 13.1922 28.5027 13.23C28.8019 13.3179 29.0781 13.4707 29.3116 13.6775C29.545 13.8844 29.7299 14.1402 29.8531 14.4267C29.9763 14.7132 30.0347 15.0234 30.0243 15.3351C30.0139 15.6468 29.9348 15.9524 29.7927 16.23C29.7192 16.3672 29.695 16.5254 29.7241 16.6783C29.7533 16.8312 29.8339 16.9694 29.9527 17.07C30.2261 17.3923 30.4119 17.7796 30.4921 18.1946C30.5723 18.6096 30.5442 19.0383 30.4105 19.4393C30.2768 19.8402 30.0421 20.2 29.729 20.4839C29.4158 20.7678 29.0348 20.9662 28.6227 21.06C28.1827 21.16 28.0927 21.34 28.1227 21.72C28.136 21.8029 28.1308 21.8877 28.1075 21.9683C28.0843 22.049 28.0435 22.1235 27.9881 22.1865C27.9326 22.2496 27.864 22.2996 27.787 22.3331C27.71 22.3665 27.6266 22.3825 27.5427 22.38C27.4518 22.3977 27.3579 22.393 27.2692 22.3662C27.1806 22.3395 27.0997 22.2916 27.0338 22.2266C26.9678 22.1616 26.9186 22.0815 26.8906 21.9932C26.8625 21.9049 26.8564 21.8112 26.8727 21.72C26.8727 21.22 26.6827 21.13 26.2427 21.13C25.8027 21.13 25.5627 21.24 25.6027 21.74C25.6168 21.8229 25.6117 21.9079 25.5878 21.9884C25.5639 22.069 25.5218 22.1431 25.4648 22.2049C25.4079 22.2667 25.3375 22.3146 25.2591 22.3449C25.1807 22.3753 25.0964 22.3873 25.0127 22.38C24.9214 22.3921 24.8285 22.3827 24.7415 22.3525C24.6545 22.3223 24.5758 22.2721 24.5116 22.2061C24.4475 22.14 24.3997 22.0598 24.3721 21.9719C24.3445 21.884 24.3378 21.7909 24.3527 21.7C24.3527 21.26 24.2027 21.12 23.7827 21.13C23.3627 21.14 23.0627 20.91 23.1027 20.47C23.1427 20.03 23.4727 19.82 23.9327 19.83H26.1227Z" fill="#EF4C23"/>
</svg>
