<svg width="32" height="38" viewBox="0 0 32 38" fill="none" xmlns="http://www.w3.org/2000/svg">
<path d="M25.2827 0C27.1627 1 27.5927 2.66 27.4327 4.62C27.2955 5.17522 27.3197 5.75812 27.5027 6.3C27.7927 6.78 28.5527 6.42 29.1027 6.48C29.5316 6.49593 29.944 6.64939 30.2789 6.9177C30.6139 7.18601 30.8536 7.55495 30.9627 7.97C31.1057 8.76839 31.1393 9.58253 31.0627 10.39C31.0744 10.4741 31.0663 10.5598 31.0393 10.6403C31.0122 10.7209 30.9669 10.794 30.9068 10.8541C30.8468 10.9141 30.7736 10.9595 30.6931 10.9865C30.6126 11.0136 30.5269 11.0216 30.4427 11.01C30.0227 11.01 29.8927 10.68 29.8827 10.32C29.8827 9.78 29.8827 9.24 29.8827 8.69C29.9062 8.54982 29.8973 8.40613 29.8566 8.26995C29.8159 8.13378 29.7445 8.00875 29.6479 7.90446C29.5514 7.80017 29.4322 7.7194 29.2995 7.66835C29.1669 7.61731 29.0243 7.59734 28.8827 7.61H15.8827C15.7436 7.59634 15.6033 7.61456 15.4723 7.66327C15.3412 7.71198 15.2231 7.7899 15.1267 7.89112C15.0303 7.99233 14.9582 8.11417 14.9159 8.2474C14.8737 8.38062 14.8623 8.52173 14.8827 8.66C14.8827 11.01 14.8827 13.36 14.8827 15.66C14.8827 16.48 15.2827 16.76 16.0627 16.76C19.1927 16.76 22.3227 16.82 25.4527 16.76C26.114 16.7034 26.7791 16.8086 27.3906 17.0664C28.0021 17.3243 28.5417 17.727 28.9627 18.24C29.251 18.552 29.5582 18.8459 29.8827 19.12V14.22C29.8827 13.89 29.8827 13.56 29.8827 13.22C29.8827 12.88 30.0227 12.47 30.4827 12.47C30.9427 12.47 31.0727 12.82 31.0727 13.22C31.0727 14.48 31.0727 15.75 31.0727 17.01V18.91C31.1019 19.1692 31.0478 19.431 30.9184 19.6575C30.7889 19.884 30.5909 20.0635 30.3527 20.17C30.1047 20.289 29.8233 20.3192 29.5557 20.2554C29.2881 20.1917 29.0505 20.038 28.8827 19.82L27.7027 18.48C27.2927 18.79 27.4327 19.08 27.4227 19.33C27.4227 22.1 27.4227 24.87 27.4227 27.63C27.4479 27.8693 27.4479 28.1107 27.4227 28.35C27.4058 28.487 27.3397 28.6133 27.2367 28.7052C27.1337 28.7972 27.0008 28.8486 26.8627 28.85C26.7251 28.8506 26.5923 28.7995 26.4905 28.707C26.3887 28.6144 26.3253 28.487 26.3127 28.35C26.2879 28.0806 26.2879 27.8094 26.3127 27.54C26.3127 24.59 26.3127 21.64 26.3127 18.69C26.3127 18.11 26.1727 17.93 25.5727 17.93C22.4427 17.93 19.3127 17.93 16.1827 17.93C14.4027 17.93 13.6527 17.18 13.6427 15.41V8.91C13.6427 7.21 14.4127 6.46 16.1327 6.45C19.2627 6.45 22.3927 6.45 25.5227 6.45C26.1527 6.45 26.3627 6.3 26.3227 5.66C26.2627 4.79 26.3227 3.91 26.3227 3.04C26.3231 2.76872 26.2682 2.50022 26.1615 2.25081C26.0548 2.0014 25.8985 1.77631 25.7021 1.58922C25.5056 1.40214 25.2732 1.25697 25.0189 1.16255C24.7645 1.06813 24.4937 1.02643 24.2227 1.04C18.5161 1.04 12.7994 1.04 7.07275 1.04C6.77861 1.00213 6.47974 1.03015 6.19777 1.12203C5.9158 1.2139 5.65779 1.36733 5.44243 1.57121C5.22707 1.77509 5.05974 2.02431 4.95256 2.30083C4.84538 2.57734 4.80104 2.87423 4.82275 3.17C4.82275 4.17 4.82275 5.17 4.82275 6.17C4.82275 6.61 4.82275 7.09 4.19275 7.06C3.56275 7.03 3.63275 6.6 3.63275 6.19C3.63275 5.19 3.63275 4.26 3.63275 3.3C3.65004 2.606 3.85913 1.93033 4.23685 1.34787C4.61457 0.765406 5.14617 0.298888 5.77275 0H25.2827Z" fill="#EF4C23"/>
<path d="M1.41277 32.61C2.74277 30.17 4.96277 30.17 7.24277 30.25C9.80277 30.33 12.3628 30.25 14.9228 30.25C16.0728 30.25 16.2728 30.04 16.2828 28.88V22.47C16.2828 21.22 16.1528 21.1 14.8528 21.1C14.4928 21.1 14.1328 21.1 13.7728 21.1C13.6206 21.1027 13.4735 21.0455 13.3631 20.9408C13.2528 20.836 13.188 20.6921 13.1828 20.54C13.1728 20.4634 13.1793 20.3856 13.2019 20.3118C13.2245 20.238 13.2627 20.1698 13.3139 20.112C13.3651 20.0542 13.428 20.0081 13.4986 19.9766C13.5691 19.9452 13.6456 19.9293 13.7228 19.93C14.5001 19.8246 15.2903 19.8653 16.0528 20.05C16.4761 20.1802 16.8442 20.4472 17.0993 20.8092C17.3545 21.1711 17.4823 21.6076 17.4628 22.05C17.4628 24.48 17.4628 26.92 17.4628 29.36C17.4763 29.6498 17.4267 29.9391 17.3173 30.2078C17.2079 30.4765 17.0413 30.7182 16.8291 30.9161C16.617 31.1139 16.3643 31.2633 16.0886 31.3538C15.813 31.4443 15.5209 31.4737 15.2328 31.44C12.0128 31.44 8.79277 31.44 5.57277 31.44C5.02277 31.44 4.76277 31.53 4.81277 32.16C4.86277 32.79 4.81277 33.61 4.81277 34.33C4.81235 34.6021 4.8675 34.8715 4.97481 35.1216C5.08213 35.3717 5.23937 35.5973 5.43689 35.7846C5.63442 35.9718 5.86808 36.1167 6.12358 36.2105C6.37907 36.3043 6.65102 36.345 6.92277 36.33C12.6428 36.33 18.3628 36.33 24.0828 36.33C24.3702 36.3497 24.6584 36.3071 24.9278 36.2051C25.1972 36.1031 25.4414 35.9441 25.6436 35.739C25.8459 35.5339 26.0015 35.2875 26.0997 35.0167C26.1979 34.7459 26.2365 34.4571 26.2128 34.17C26.2128 33.17 26.2128 32.17 26.2128 31.1C26.2128 30.68 26.2928 30.26 26.8028 30.26C27.3128 30.26 27.4228 30.65 27.4128 31.08C27.4762 32.3109 27.4394 33.545 27.3028 34.77C27.2006 35.5229 26.8165 36.2089 26.2281 36.6897C25.6398 37.1704 24.8909 37.4099 24.1328 37.36C18.4128 37.36 12.6928 37.3 6.98277 37.36C6.09336 37.3626 5.23919 37.0126 4.60747 36.3865C3.97576 35.7604 3.61806 34.9094 3.61277 34.02C3.61277 33.34 3.61277 32.66 3.61277 32.02L3.35277 31.84C2.93277 32.34 2.52277 32.84 2.08277 33.32C1.93221 33.5128 1.72165 33.65 1.48439 33.7098C1.24714 33.7695 0.996724 33.7485 0.772766 33.65C0.532179 33.5567 0.327696 33.389 0.189171 33.1714C0.0506451 32.9537 -0.0146683 32.6974 0.00276628 32.44C0.00276628 28.95 0.00276628 25.44 0.00276628 21.97C0.0029821 21.6667 0.0679422 21.3671 0.193302 21.0909C0.318661 20.8148 0.501531 20.5687 0.72968 20.3689C0.95783 20.1692 1.226 20.0204 1.51626 19.9327C1.80651 19.8449 2.11216 19.8201 2.41277 19.86C3.60277 19.86 3.60277 19.86 3.60277 18.69V9.74999C3.5877 9.51022 3.5877 9.26975 3.60277 9.02999C3.65277 8.71999 3.79277 8.45999 4.17277 8.43999C4.55277 8.41999 4.71277 8.67999 4.76277 8.98999C4.78275 9.22957 4.78275 9.4704 4.76277 9.70999C4.76277 12.71 4.76277 15.79 4.76277 18.83C4.76277 19.61 4.88277 19.92 5.76277 19.83C7.42277 19.75 9.07277 19.83 10.7628 19.83C11.2328 19.83 11.7628 19.83 11.7628 20.48C11.7628 21.13 11.2428 21.04 10.7628 21.04H2.55277C1.36277 21.04 1.21277 21.17 1.21277 22.32V32.32L1.41277 32.61Z" fill="#EF4C23"/>
<path d="M21.0928 8.64001C22.0128 9.33001 23.0928 8.82001 24.2028 8.70001C24.6799 8.66988 25.1537 8.79745 25.5513 9.06307C25.9488 9.3287 26.248 9.71764 26.4028 10.17C26.619 10.5733 26.7034 11.0342 26.6442 11.488C26.5851 11.9418 26.3852 12.3656 26.0728 12.7C25.2028 13.7 24.2728 14.56 23.3328 15.45C23.2323 15.5647 23.1086 15.6566 22.9697 15.7196C22.8309 15.7825 22.6802 15.8151 22.5278 15.8151C22.3753 15.8151 22.2246 15.7825 22.0858 15.7196C21.947 15.6566 21.8232 15.5647 21.7228 15.45C20.8128 14.58 19.9028 13.7 19.0528 12.77C18.7228 12.432 18.5097 11.9972 18.445 11.5292C18.3802 11.0613 18.467 10.585 18.6928 10.17C18.9008 9.70928 19.2386 9.31918 19.6648 9.04744C20.0911 8.7757 20.5873 8.63412 21.0928 8.64001ZM19.6428 11.09C19.625 11.2466 19.6408 11.4052 19.6891 11.5552C19.7373 11.7052 19.817 11.8432 19.9228 11.96C20.7028 12.74 21.5028 13.52 22.2728 14.32C22.5128 14.57 22.6728 14.47 22.8628 14.32C23.6228 13.55 24.4028 12.81 25.1428 12.01C25.2788 11.8949 25.3864 11.7501 25.4574 11.5867C25.5284 11.4233 25.5608 11.2457 25.5521 11.0678C25.5434 10.8898 25.4938 10.7163 25.4072 10.5606C25.3206 10.4049 25.1993 10.2713 25.0528 10.17C24.9459 10.052 24.8155 9.95768 24.67 9.89313C24.5244 9.82858 24.367 9.79524 24.2078 9.79524C24.0486 9.79524 23.8911 9.82858 23.7456 9.89313C23.6 9.95768 23.4696 10.052 23.3628 10.17C22.7528 10.79 22.3628 10.88 21.7728 10.17C21.5913 9.98394 21.3521 9.86485 21.0942 9.83216C20.8363 9.79947 20.575 9.85511 20.3528 9.99001C20.1322 10.0731 19.9441 10.2248 19.8163 10.4229C19.6885 10.6209 19.6276 10.8548 19.6428 11.09Z" fill="#EF4C23"/>
<path d="M4.67274 24.72C4.65244 24.2901 4.74527 23.8624 4.94195 23.4796C5.13863 23.0969 5.43229 22.7724 5.79361 22.5386C6.15492 22.3048 6.57124 22.1699 7.001 22.1473C7.43077 22.1247 7.85893 22.2153 8.24274 22.41C8.39254 22.5041 8.56585 22.554 8.74274 22.554C8.91964 22.554 9.09295 22.5041 9.24274 22.41C9.74349 22.1633 10.3132 22.0942 10.8584 22.2142C11.4036 22.3341 11.8918 22.6359 12.2427 23.07C12.6095 23.5054 12.8073 24.0582 12.7999 24.6274C12.7926 25.1966 12.5806 25.7442 12.2027 26.17C11.3727 27.08 10.4827 27.93 9.59274 28.79C9.49097 28.9227 9.36002 29.0302 9.21002 29.1042C9.06002 29.1782 8.895 29.2167 8.72774 29.2167C8.56048 29.2167 8.39547 29.1782 8.24547 29.1042C8.09547 29.0302 7.96452 28.9227 7.86274 28.79L5.24274 26.17C5.048 25.9843 4.8961 25.7583 4.79766 25.5079C4.69921 25.2575 4.65658 24.9886 4.67274 24.72ZM5.79274 24.55C5.78673 24.7192 5.81659 24.8877 5.88036 25.0446C5.94413 25.2014 6.04036 25.343 6.16274 25.46C6.92274 26.23 7.70274 26.98 8.44274 27.76C8.71274 28.05 8.86274 27.95 9.07274 27.76C9.81274 27 10.5727 26.28 11.2927 25.51C11.4269 25.3993 11.5348 25.2603 11.609 25.103C11.6831 24.9456 11.7215 24.7739 11.7215 24.6C11.7215 24.4261 11.6831 24.2543 11.609 24.097C11.5348 23.9397 11.4269 23.8007 11.2927 23.69C11.1829 23.563 11.047 23.4611 10.8943 23.3912C10.7416 23.3214 10.5757 23.2853 10.4077 23.2853C10.2398 23.2853 10.0739 23.3214 9.92117 23.3912C9.76846 23.4611 9.63258 23.563 9.52274 23.69C8.99274 24.26 8.61274 24.34 8.08274 23.69C7.91636 23.4907 7.68747 23.3536 7.43329 23.301C7.1791 23.2483 6.91458 23.2832 6.68274 23.4C6.43945 23.4857 6.22605 23.6398 6.06818 23.8437C5.91031 24.0477 5.81467 24.293 5.79274 24.55Z" fill="#EF4C23"/>
<path d="M14.6328 3.24H12.9628C12.5828 3.24 12.3228 3.09 12.3128 2.67C12.3028 2.25 12.5928 2.07 12.9428 2.06C14.1128 2.06 15.2928 2.06 16.4628 2.06C16.5461 2.05008 16.6307 2.05939 16.7099 2.08719C16.7891 2.115 16.8609 2.16057 16.9198 2.22042C16.9787 2.28027 17.0231 2.3528 17.0496 2.43247C17.0761 2.51213 17.084 2.5968 17.0728 2.68C17.0728 3.09 16.7728 3.23001 16.3928 3.23001L14.6328 3.24Z" fill="#EF4C23"/>
<path d="M18.8927 2.66002C18.8902 2.81039 18.8293 2.95388 18.7229 3.06022C18.6166 3.16657 18.4731 3.22745 18.3227 3.23002C18.2463 3.23425 18.1698 3.22248 18.0982 3.19547C18.0266 3.16845 17.9614 3.12678 17.9068 3.07313C17.8522 3.01948 17.8094 2.95503 17.7812 2.88389C17.7529 2.81276 17.7398 2.73651 17.7427 2.66002C17.737 2.5841 17.7474 2.50783 17.7733 2.43622C17.7992 2.36461 17.8399 2.29928 17.8927 2.24451C17.9456 2.18974 18.0095 2.14677 18.0801 2.11842C18.1508 2.09007 18.2267 2.07699 18.3027 2.08002C18.6427 2.08002 18.8327 2.31002 18.8927 2.66002Z" fill="#EF4C23"/>
</svg>
