<svg width="33" height="34" viewBox="0 0 33 34" fill="none" xmlns="http://www.w3.org/2000/svg">
<path d="M29.3 33.7976H28.84C28.77 33.4176 28.48 33.4876 28.23 33.4876H3.69C3.44 33.4876 3.15 33.4176 3.08 33.7976H2.62C2.62 33.7176 2.62 33.5776 2.62 33.5776C2.03151 33.3931 1.49127 33.0803 1.03822 32.6619C0.585162 32.2434 0.230575 31.7296 0 31.1576V28.6876C0.234073 28.6027 0.48101 28.5588 0.73 28.5576C1.5 28.6976 1.54 28.2976 1.54 27.6876C1.54 22.6376 1.54 17.5776 1.54 12.5276C1.54 11.6176 1.54 10.7176 1.54 9.81762C1.56813 9.14715 1.85246 8.51304 2.33436 8.04603C2.81625 7.57902 3.45897 7.31472 4.13 7.30762C4.88 7.36762 5.63 7.30762 6.38 7.30762C6.85 7.30762 7 7.20762 6.99 6.71762C6.99 5.27762 6.99 3.82762 6.99 2.38762C6.93803 2.06504 6.96355 1.73472 7.06443 1.42394C7.16532 1.11316 7.33869 0.83084 7.57022 0.600285C7.80175 0.369731 8.0848 0.197558 8.39601 0.0979852C8.70721 -0.00158786 9.03763 -0.0257059 9.36 0.0276231C15.8 0.0276231 22.23 0.0276231 28.67 0.0276231C29.0209 -0.0247052 29.3791 0.00593407 29.716 0.117085C30.0529 0.228237 30.3591 0.416805 30.61 0.667661C30.8608 0.918516 31.0494 1.22468 31.1605 1.56158C31.2717 1.89848 31.3023 2.25674 31.25 2.60763C31.19 4.69762 31.25 6.78763 31.25 8.87763C31.222 9.02715 31.2351 9.18148 31.2879 9.32414C31.3407 9.4668 31.4313 9.59243 31.55 9.68762C31.8146 9.87431 32.0239 10.1289 32.1559 10.4246C32.2878 10.7202 32.3376 11.046 32.3 11.3676C32.27 11.9606 32.27 12.5547 32.3 13.1476C32.3436 13.4662 32.2884 13.7905 32.1417 14.0766C31.995 14.3628 31.7641 14.597 31.48 14.7476C31.19 14.8976 31.26 15.1176 31.26 15.3376C31.26 16.4676 31.26 17.6076 31.26 18.7376C31.2939 19.1308 31.2185 19.5257 31.042 19.8786C30.8655 20.2316 30.5949 20.5289 30.26 20.7376C30.0314 20.8412 29.8447 21.0192 29.7302 21.2426C29.6158 21.466 29.5805 21.7216 29.63 21.9676C29.65 22.2773 29.65 22.5879 29.63 22.8976C29.6717 23.2318 29.6131 23.5709 29.4618 23.8718C29.3104 24.1727 29.0732 24.4218 28.78 24.5876C28.6316 24.6631 28.5121 24.7852 28.4399 24.9351C28.3676 25.085 28.3466 25.2546 28.38 25.4176C28.38 25.7276 28.38 26.0376 28.38 26.3476C28.38 26.8876 28.18 27.1276 27.6 27.1276H4.6C4.07 27.1276 3.86 26.9276 3.86 26.3976C3.86 21.0643 3.86 15.751 3.86 10.4576C3.86 9.91762 4.09 9.71762 4.6 9.73762C5.11 9.75762 5.9 9.73762 6.54 9.73762C7.18 9.73762 7 9.38762 6.99 9.07762C6.98 8.76762 7.15 8.36762 6.56 8.39762C5.97 8.42762 5.16 8.39762 4.47 8.39762C3.1 8.39762 2.47 8.96762 2.47 10.3176C2.47 16.1476 2.47 21.9776 2.47 27.8076C2.47 28.3976 2.62 28.5276 3.2 28.5176C6.4 28.5176 9.61 28.5176 12.82 28.5176C13.33 28.5176 13.63 28.6276 13.72 29.1976C13.7396 29.3506 13.7895 29.4981 13.8668 29.6315C13.9441 29.7649 14.0472 29.8816 14.1701 29.9747C14.293 30.0678 14.4332 30.1355 14.5826 30.1737C14.732 30.212 14.8875 30.2201 15.04 30.1976C15.69 30.1976 16.34 30.1976 16.98 30.1976C17.1107 30.2159 17.2438 30.2081 17.3715 30.1747C17.4993 30.1413 17.6191 30.083 17.7241 30.003C17.8292 29.9231 17.9174 29.8231 17.9836 29.7089C18.0498 29.5947 18.0928 29.4685 18.11 29.3376C18.2 28.5376 18.64 28.4876 19.28 28.4876C22.41 28.4876 25.54 28.4876 28.67 28.4876C29.24 28.4876 29.51 28.3976 29.44 27.7476C29.37 27.0976 29.44 26.6176 29.44 26.0476C29.44 25.6776 29.57 25.4176 29.95 25.4276C30.33 25.4376 30.42 25.6976 30.42 26.0276C30.42 26.6276 30.42 27.2176 30.42 27.8076C30.42 28.3976 30.55 28.5476 31.1 28.4876C31.47 28.4876 31.83 28.4876 31.95 28.9376C32.1675 29.8245 32.0602 30.7599 31.6474 31.5744C31.2347 32.3889 30.5438 33.0286 29.7 33.3776C29.51 33.4776 29.21 33.4076 29.3 33.7976ZM16.11 26.1576H26.27C27.37 26.1576 27.37 26.1576 27.27 25.0576C27.27 24.4476 26.95 24.2876 26.47 24.6476C26.3764 24.7491 26.2627 24.8301 26.1362 24.8855C26.0097 24.941 25.8731 24.9696 25.735 24.9696C25.5969 24.9696 25.4603 24.941 25.3338 24.8855C25.2073 24.8301 25.0936 24.7491 25 24.6476C24.9605 24.5899 24.9076 24.5426 24.8457 24.51C24.7838 24.4773 24.7149 24.4603 24.645 24.4603C24.575 24.4603 24.5062 24.4773 24.4443 24.51C24.3824 24.5426 24.3295 24.5899 24.29 24.6476C24.1966 24.746 24.0841 24.8243 23.9595 24.8778C23.8349 24.9313 23.7006 24.9589 23.565 24.9589C23.4294 24.9589 23.2951 24.9313 23.1705 24.8778C23.0459 24.8243 22.9334 24.746 22.84 24.6476C22.7933 24.5874 22.7334 24.5387 22.6649 24.5051C22.5965 24.4716 22.5212 24.4542 22.445 24.4542C22.3688 24.4542 22.2935 24.4716 22.2251 24.5051C22.1566 24.5387 22.0967 24.5874 22.05 24.6476C21.9637 24.7455 21.8575 24.8239 21.7385 24.8776C21.6196 24.9313 21.4905 24.9591 21.36 24.9591C21.2295 24.9591 21.1004 24.9313 20.9815 24.8776C20.8625 24.8239 20.7563 24.7455 20.67 24.6476C20.6205 24.5833 20.5569 24.5312 20.4841 24.4954C20.4112 24.4595 20.3312 24.4409 20.25 24.4409C20.1688 24.4409 20.0888 24.4595 20.0159 24.4954C19.9431 24.5312 19.8795 24.5833 19.83 24.6476C19.6462 24.8135 19.4075 24.9053 19.16 24.9053C18.9125 24.9053 18.6737 24.8135 18.49 24.6476C18.185 24.4601 17.936 24.1941 17.7689 23.8775C17.6018 23.5609 17.5227 23.2052 17.54 22.8476C17.54 21.1176 17.54 19.3976 17.54 17.6676C17.54 17.1376 17.38 17.0176 16.88 17.0276C15.36 17.0276 13.83 17.0276 12.31 17.0276C11.53 17.0276 11.31 16.7476 11.31 16.0276C11.31 14.3276 11.31 12.6176 11.31 10.9176C11.31 10.3276 11.18 10.1076 10.55 10.1476C9.74 10.1976 9.55 9.91762 9.55 9.14762C9.55 8.65762 9.55 8.14762 9.55 7.67762C9.55 7.20762 9.84 6.78763 10.45 6.78763C11.25 6.78763 12.05 6.78763 12.85 6.78763C13.46 6.78763 13.85 6.78762 13.96 7.58762C13.9626 7.69794 13.9869 7.80667 14.0315 7.90759C14.0762 8.00852 14.1402 8.09965 14.2201 8.17581C14.3 8.25196 14.3941 8.31162 14.497 8.3514C14.5999 8.39118 14.7097 8.41028 14.82 8.40762C15.27 8.40762 15.63 8.23762 15.67 7.80762C15.78 6.74762 16.46 6.70762 17.27 6.80762C17.58 6.80762 17.89 6.80762 18.2 6.80762C19.9 6.80762 20.27 6.40762 20.2 8.70762C20.2 9.13762 20.32 9.28762 20.77 9.27762C23.77 9.27762 26.71 9.27762 29.68 9.27762C30.15 9.27762 30.24 9.12762 30.23 8.70762C30.23 6.61762 30.23 4.52762 30.23 2.43762C30.23 1.35762 29.85 0.977624 28.79 0.977624H9.42C8.42 0.977624 8.02 1.31762 7.94 2.33762C7.94 2.59762 7.94 2.85762 7.94 3.11762C7.84 3.75762 8.09 3.91762 8.73 3.91762C14.96 3.91762 21.19 3.91762 27.42 3.91762C27.63 3.91762 27.84 3.91762 28.04 3.91762C28.65 3.91762 28.7 4.33763 28.52 4.78763C28.34 5.23763 27.91 5.08762 27.58 5.08762H8.64C8.24 5.08762 7.91 5.01762 7.91 5.65762C7.91 9.98762 7.91 14.3176 7.91 18.6576C7.91 19.6576 8.3 19.9976 9.28 19.9976C11.19 19.9976 13.11 19.9976 15.02 19.9976C15.42 19.9976 15.88 19.9976 15.89 20.5076C15.9 21.0176 15.53 21.1976 15.01 21.1876C13.12 21.1876 11.23 21.1876 9.35 21.1876C9.03357 21.1989 8.71822 21.1447 8.42371 21.0284C8.12919 20.9122 7.86185 20.7364 7.63843 20.512C7.41501 20.2877 7.24032 20.0196 7.1253 19.7246C7.01028 19.4296 6.95741 19.114 6.97 18.7976C6.97 16.611 6.97 14.4176 6.97 12.2176C6.97 10.7176 6.97 10.7476 5.5 10.7276C4.97 10.7276 4.81 10.8476 4.81 11.3976C4.81 16.0643 4.81 20.7576 4.81 25.4776C4.81 26.0276 4.96 26.1676 5.5 26.1676C9.03 26.1076 12.57 26.1176 16.11 26.1176V26.1576ZM28.72 10.2476C25.57 10.2476 22.48 10.2476 19.39 10.2476C19.2774 10.2455 19.1656 10.2674 19.0622 10.312C18.9588 10.3566 18.866 10.4227 18.7903 10.5061C18.7145 10.5894 18.6575 10.688 18.6229 10.7952C18.5884 10.9024 18.5771 11.0157 18.59 11.1276C18.59 15.0676 18.59 19.0076 18.59 22.9576C18.59 23.5576 19.05 23.7776 19.54 23.4376C19.7237 23.2718 19.9625 23.18 20.21 23.18C20.4575 23.18 20.6962 23.2718 20.88 23.4376C21.25 23.7576 21.51 23.7076 21.88 23.4376C22.51 22.9276 23 23.6176 23.54 23.6776C24.08 23.7376 24.6 22.8676 25.26 23.4376C25.3238 23.5151 25.4039 23.5775 25.4947 23.6204C25.5855 23.6632 25.6846 23.6854 25.785 23.6854C25.8854 23.6854 25.9845 23.6632 26.0753 23.6204C26.166 23.5775 26.2462 23.5151 26.31 23.4376C26.4664 23.3223 26.6557 23.2601 26.85 23.2601C27.0443 23.2601 27.2336 23.3223 27.39 23.4376C27.65 23.5676 27.81 23.9776 28.25 23.6576C28.69 23.3376 28.54 23.0376 28.54 22.6576C28.54 19.0776 28.54 15.4976 28.54 11.9176C28.4883 11.3545 28.5495 10.7868 28.72 10.2476ZM15.89 32.6376C19.98 32.6376 24.06 32.6376 28.15 32.6376C28.4914 32.6748 28.8368 32.6419 29.165 32.5408C29.4932 32.4397 29.7973 32.2725 30.0586 32.0497C30.3198 31.8268 30.5328 31.5529 30.6844 31.2447C30.836 30.9365 30.9229 30.6006 30.94 30.2576C31.03 29.6576 30.85 29.5276 30.27 29.5276C26.77 29.5276 23.27 29.5276 19.79 29.5276C19.5925 29.4983 19.3911 29.5421 19.2235 29.6507C19.056 29.7593 18.9338 29.9253 18.88 30.1176C18.7212 30.5307 18.4299 30.8795 18.0517 31.1093C17.6735 31.3391 17.2298 31.437 16.79 31.3876C16.27 31.3876 15.79 31.3876 15.24 31.3876C14.7508 31.4496 14.2551 31.3439 13.8337 31.0878C13.4124 30.8318 13.0902 30.4404 12.92 29.9776C12.8 29.6576 12.67 29.5276 12.32 29.5376C8.7 29.5376 5.08 29.5376 1.46 29.5376C0.969999 29.5376 0.919997 29.7376 0.949997 30.1476C0.94965 30.4985 1.02289 30.8456 1.16498 31.1665C1.30708 31.4873 1.51487 31.7748 1.77494 32.0104C2.03502 32.246 2.34161 32.4244 2.67492 32.5342C3.00822 32.6439 3.36083 32.6826 3.71 32.6476C7.77 32.6476 11.83 32.6376 15.89 32.6376ZM14.82 16.0876C15.49 16.0876 16.17 16.0876 16.82 16.0876C17.32 16.0876 17.42 15.9276 17.41 15.4676C17.41 14.1276 17.41 12.7876 17.41 11.4676C17.3711 10.999 17.4938 10.5312 17.7576 10.1419C18.0213 9.75259 18.4104 9.46526 18.86 9.32762C18.9193 9.31814 18.9759 9.29664 19.0266 9.26444C19.0772 9.23224 19.1207 9.19002 19.1545 9.14038C19.1882 9.09074 19.2114 9.03472 19.2227 8.97577C19.2339 8.91683 19.233 8.8562 19.22 8.79762C19.3 7.73762 19.31 7.73762 18.22 7.73762H17.29C16.98 7.73762 16.8 7.73762 16.69 8.14762C16.5803 8.51006 16.3566 8.82744 16.0521 9.05263C15.7477 9.27782 15.3787 9.39881 15 9.39762C14.6353 9.45613 14.2616 9.38905 13.94 9.20737C13.6184 9.02569 13.3681 8.74018 13.23 8.39762C12.99 7.64762 12.54 7.71762 12.01 7.72762C11.7003 7.74761 11.3897 7.74761 11.08 7.72762C10.54 7.66762 10.57 8.01763 10.6 8.35763C10.63 8.69763 10.38 9.13762 11.08 9.15762C12.08 9.15762 12.37 9.54762 12.37 10.5676C12.37 12.1676 12.37 13.7676 12.37 15.3676C12.37 15.8776 12.46 16.1076 13.03 16.0576C13.6 16.0076 14.23 16.0876 14.82 16.0876ZM29.57 12.1676C29.57 13.7776 29.57 13.7876 30.87 13.6376C31.11 13.6376 31.27 13.5476 31.27 13.2976C31.27 12.5276 31.27 11.7576 31.27 10.9876C31.265 10.8837 31.2391 10.7819 31.1937 10.6884C31.1483 10.5948 31.0845 10.5114 31.006 10.4432C30.9275 10.3749 30.836 10.3233 30.737 10.2914C30.638 10.2596 30.5336 10.248 30.43 10.2576C30.3199 10.2534 30.2101 10.272 30.1075 10.3122C30.0048 10.3524 29.9117 10.4134 29.8337 10.4914C29.7558 10.5693 29.6948 10.6625 29.6546 10.7651C29.6144 10.8677 29.5958 10.9775 29.6 11.0876C29.55 11.4476 29.57 11.7976 29.57 12.1676ZM29.57 19.9276C29.7672 19.8281 29.9336 19.677 30.0516 19.4903C30.1696 19.3036 30.2347 19.0884 30.24 18.8676V15.1776C30.24 14.9776 30.24 14.7676 29.95 14.7576C29.66 14.7476 29.56 14.9076 29.57 15.1776V19.9276Z" fill="#EF4C23"/>
<path d="M3.08002 33.7976C3.15002 33.4176 3.44002 33.4876 3.69002 33.4876H28.23C28.48 33.4876 28.77 33.4176 28.84 33.7976H3.08002Z" fill="#EF4C23"/>
<path d="M24.49 18.0976C24.49 18.5976 24.4101 19.0076 23.8701 19.0176C23.3301 19.0276 22.69 19.2676 22.61 18.4176C22.61 17.9476 22.2801 17.9676 21.9601 17.9876C21.6401 18.0076 21.66 18.3376 21.67 18.5676C21.6473 18.8607 21.7386 19.1512 21.925 19.3785C22.1113 19.6058 22.3782 19.7524 22.67 19.7876C23.14 19.8576 23.3 19.9976 23.24 20.4476C23.24 20.6776 23.36 20.7476 23.58 20.7476C23.8 20.7476 24.05 20.7476 24.01 20.4476C23.93 19.9176 24.23 19.8176 24.64 19.7276C24.8905 19.654 25.1023 19.4853 25.23 19.2576C25.4394 18.9816 25.568 18.6528 25.6014 18.308C25.6349 17.9631 25.5719 17.6158 25.4194 17.3047C25.267 16.9936 25.0311 16.7309 24.7381 16.546C24.4451 16.3612 24.1065 16.2613 23.76 16.2576H23.22C23.1358 16.2599 23.0521 16.2438 22.9748 16.2104C22.8974 16.177 22.8282 16.1272 22.7721 16.0644C22.7159 16.0016 22.6741 15.9273 22.6496 15.8467C22.6251 15.7661 22.6184 15.6811 22.63 15.5976C22.63 15.1576 22.58 14.6576 23.2 14.5976C23.8201 14.5376 24.36 14.4176 24.44 15.2376C24.44 15.6076 24.7 15.6276 24.98 15.6176C25.26 15.6076 25.37 15.5476 25.41 15.2876C25.4717 14.9406 25.404 14.5831 25.2197 14.2827C25.0354 13.9823 24.7473 13.7599 24.41 13.6576C24.07 13.5776 24.0001 13.4476 24.0301 13.1576C24.0601 12.8676 23.94 12.6876 23.59 12.6876C23.24 12.6876 23.25 12.9176 23.25 13.1576C23.25 13.3976 23.25 13.6076 22.92 13.6276C21.74 13.6976 21.6401 14.7076 21.7001 15.8076C21.7501 16.6776 22.17 17.0576 23.17 17.1476C23.3232 17.1576 23.4769 17.1576 23.63 17.1476C24.21 17.1976 24.58 17.4576 24.49 18.0976Z" fill="#EF4C23"/>
<path d="M18.74 2.03765H21.83C22.2 2.03765 22.62 2.03765 22.64 2.52765C22.66 3.01765 22.27 3.07765 21.88 3.07765H15.55C15.16 3.07765 14.76 2.99765 14.78 2.53765C14.8 2.07765 15.18 2.02765 15.57 2.02765C16.63 2.04765 17.69 2.03765 18.74 2.03765Z" fill="#EF4C23"/>
<path d="M24.93 6.79761H27.72C28.1 6.79761 28.44 6.86761 28.44 7.29761C28.44 7.72761 28.06 7.79761 27.71 7.79761H22.13C21.78 7.79761 21.41 7.79761 21.42 7.29761C21.43 6.79761 21.78 6.80761 22.14 6.80761L24.93 6.79761Z" fill="#EF4C23"/>
<path d="M9.54999 2.0376C9.82999 2.0976 10.04 2.2676 10.03 2.5476C10.0322 2.61912 10.0187 2.69026 9.99047 2.756C9.96224 2.82175 9.91995 2.88052 9.86657 2.92817C9.8132 2.97583 9.75004 3.01121 9.68152 3.03185C9.61301 3.05248 9.54081 3.05786 9.46999 3.0476C9.40458 3.04536 9.34036 3.02947 9.28144 3.00097C9.22252 2.97247 9.1702 2.93197 9.12784 2.88208C9.08547 2.83218 9.054 2.77399 9.03543 2.71123C9.01686 2.64846 9.0116 2.58252 9.01999 2.5176C9.03019 2.38499 9.09082 2.26133 9.1894 2.17205C9.28798 2.08277 9.41703 2.03465 9.54999 2.0376Z" fill="#EF4C23"/>
<path d="M13.26 3.06762C13.1336 3.06603 13.0121 3.01846 12.9182 2.93379C12.8244 2.84913 12.7646 2.73318 12.75 2.60762C12.7387 2.54357 12.7407 2.47786 12.7561 2.41465C12.7715 2.35144 12.7998 2.29211 12.8393 2.24042C12.8787 2.18872 12.9285 2.14577 12.9854 2.11431C13.0424 2.08284 13.1052 2.06354 13.17 2.05762C13.2403 2.04222 13.3133 2.0432 13.3832 2.06048C13.4531 2.07775 13.5181 2.11086 13.5732 2.15725C13.6283 2.20363 13.672 2.26206 13.7009 2.32801C13.7298 2.39396 13.7432 2.46568 13.74 2.53762C13.76 2.79762 13.56 2.99762 13.26 3.06762Z" fill="#EF4C23"/>
<path d="M29.19 2.5576C29.1914 2.62147 29.1799 2.68497 29.1564 2.74437C29.1329 2.80376 29.0978 2.85786 29.053 2.9035C29.0083 2.94914 28.955 2.98539 28.8961 3.01013C28.8372 3.03488 28.7739 3.04762 28.71 3.0476C28.6398 3.05331 28.5692 3.04282 28.5037 3.01692C28.4382 2.99102 28.3795 2.95041 28.3321 2.89823C28.2848 2.84605 28.25 2.78369 28.2306 2.71597C28.2112 2.64824 28.2076 2.57695 28.22 2.5076C28.2211 2.44359 28.2354 2.3805 28.2622 2.32235C28.289 2.26421 28.3276 2.2123 28.3756 2.16995C28.4236 2.12759 28.48 2.09572 28.541 2.07637C28.602 2.05703 28.6664 2.05064 28.73 2.0576C28.794 2.05736 28.8572 2.07045 28.9158 2.09602C28.9744 2.1216 29.027 2.15911 29.0703 2.20615C29.1136 2.2532 29.1466 2.30875 29.1672 2.36926C29.1878 2.42977 29.1956 2.49392 29.19 2.5576Z" fill="#EF4C23"/>
<path d="M11.93 2.50763C11.9369 2.57308 11.9303 2.63926 11.9105 2.70204C11.8908 2.76482 11.8583 2.82286 11.8152 2.87257C11.772 2.92228 11.7191 2.96258 11.6597 2.99097C11.6004 3.01937 11.5358 3.03525 11.47 3.03763C11.4007 3.04534 11.3306 3.03753 11.2647 3.01477C11.1988 2.99202 11.1387 2.95489 11.089 2.90606C11.0392 2.85724 11.0009 2.79795 10.9769 2.7325C10.9528 2.66704 10.9437 2.59706 10.95 2.52763C10.9485 2.46378 10.9603 2.40031 10.9846 2.34126C11.009 2.28221 11.0454 2.22888 11.0915 2.18467C11.1376 2.14046 11.1924 2.10633 11.2524 2.08445C11.3124 2.06258 11.3763 2.05344 11.44 2.05763C11.5018 2.05495 11.5634 2.06446 11.6215 2.08564C11.6795 2.10681 11.7328 2.13922 11.7783 2.18102C11.8238 2.22282 11.8607 2.27318 11.8867 2.32922C11.9127 2.38526 11.9274 2.44589 11.93 2.50763Z" fill="#EF4C23"/>
<path d="M24.49 18.0976C24.58 17.4576 24.21 17.1976 23.59 17.1776C23.4369 17.1876 23.2832 17.1876 23.13 17.1776C22.13 17.0876 21.71 16.7076 21.66 15.8376C21.6 14.7376 21.66 13.7276 22.88 13.6576C23.25 13.6576 23.21 13.4176 23.21 13.1876C23.21 12.9576 23.21 12.7276 23.55 12.7176C23.89 12.7076 24.02 12.8676 23.99 13.1876C23.96 13.5076 23.99 13.6076 24.37 13.6876C24.7073 13.7899 24.9954 14.0122 25.1797 14.3126C25.364 14.6131 25.4317 14.9706 25.37 15.3176C25.37 15.5776 25.18 15.6376 24.94 15.6476C24.7 15.6576 24.44 15.6476 24.4 15.2676C24.32 14.4476 23.69 14.5876 23.16 14.6276C22.63 14.6676 22.6 15.1776 22.59 15.6276C22.5784 15.7111 22.585 15.796 22.6096 15.8766C22.6341 15.9573 22.6759 16.0315 22.732 16.0944C22.7882 16.1572 22.8574 16.207 22.9347 16.2404C23.0121 16.2738 23.0958 16.2899 23.18 16.2876H23.72C24.0665 16.2913 24.4051 16.3911 24.6981 16.576C24.9911 16.7609 25.2269 17.0236 25.3794 17.3347C25.5318 17.6458 25.5948 17.9931 25.5614 18.338C25.528 18.6828 25.3994 19.0116 25.19 19.2876C25.0623 19.5153 24.8505 19.684 24.6 19.7576C24.19 19.8476 23.89 19.9476 23.97 20.4776C23.97 20.7476 23.77 20.7776 23.54 20.7776C23.31 20.7776 23.17 20.7076 23.2 20.4776C23.26 20.0276 23.1 19.8876 22.63 19.8176C22.3382 19.7824 22.0713 19.6358 21.8849 19.4085C21.6986 19.1812 21.6073 18.8907 21.63 18.5976C21.63 18.3676 21.5 18.0476 21.92 18.0176C22.34 17.9876 22.53 18.0176 22.57 18.4476C22.65 19.2976 23.34 19.0576 23.83 19.0476C24.32 19.0376 24.52 18.5976 24.49 18.0976Z" fill="#EF4C23"/>
</svg>
