<svg width="37" height="41" viewBox="0 0 37 41" fill="none" xmlns="http://www.w3.org/2000/svg">
<path d="M36.8027 37.4056C36.4427 37.6756 36.5327 38.1456 36.2927 38.4956C35.9324 39.0776 35.4241 39.5536 34.8198 39.8751C34.2155 40.1966 33.5367 40.352 32.8527 40.3256C24.9827 40.3256 17.1127 40.3256 9.2427 40.3256C7.4727 40.3256 5.7027 40.2556 3.9427 40.3256C3.42051 40.3467 2.89961 40.2595 2.41272 40.0696C1.92583 39.8797 1.48349 39.5911 1.11347 39.222C0.743459 38.8529 0.453774 38.4113 0.26262 37.9249C0.0714656 37.4385 -0.0170276 36.9178 0.00270179 36.3956C0.00270179 36.1356 0.00270179 35.8756 0.00270179 35.6156C0.00270179 34.5356 0.00270176 34.5156 1.0027 34.4256C1.3127 34.4256 1.4227 34.3056 1.4027 34.0156C1.3827 33.7256 1.4027 33.6456 1.4027 33.4656V13.4656C1.38915 13.1314 1.40588 12.7967 1.4527 12.4656C1.49646 11.7712 1.81358 11.1225 2.33462 10.6614C2.85566 10.2004 3.53816 9.96454 4.2327 10.0056C4.5427 10.0056 4.8527 10.0056 5.1627 10.0056C4.8627 7.9056 5.2927 7.1256 7.4027 6.0056C8.8227 5.2856 10.1427 4.3956 11.5427 3.6356C13.4127 2.6356 15.1627 1.3556 17.0427 0.355597C17.49 0.0895252 18.0085 -0.0321198 18.5275 0.00725052C19.0464 0.0466208 19.5406 0.245092 19.9427 0.575598C20.3952 0.877915 20.8778 1.1326 21.3827 1.3356C21.4771 1.37147 21.5626 1.42733 21.6333 1.49934C21.7041 1.57136 21.7584 1.65783 21.7926 1.75283C21.8268 1.84782 21.8401 1.94908 21.8314 2.04967C21.8228 2.15027 21.7926 2.2478 21.7427 2.3356C21.5227 2.7756 21.1327 2.6456 20.8027 2.4356C20.4174 2.24386 20.0551 2.00903 19.7227 1.7356C19.3236 1.46258 18.8513 1.3165 18.3677 1.3165C17.8841 1.3165 17.4118 1.46258 17.0127 1.7356C16.7681 1.9491 16.4996 2.13365 16.2127 2.2856C13.9927 3.5656 11.7427 4.7956 9.5727 6.1456C8.7427 6.6556 7.8927 7.1456 7.0427 7.5956C6.79955 7.71082 6.59214 7.88972 6.44248 8.11333C6.29283 8.33693 6.20651 8.59689 6.1927 8.8656C6.18868 9.13722 6.2667 9.40374 6.41657 9.63032C6.56643 9.8569 6.78116 10.033 7.0327 10.1356C9.1327 11.3056 11.2027 12.5256 13.2827 13.7556C14.4427 14.4356 15.5727 15.1656 16.7227 15.8656C18.3527 16.8656 19.4627 16.2656 20.7227 15.4156C20.8567 15.3043 20.9969 15.2008 21.1427 15.1056C22.1427 14.5456 22.1427 14.5456 21.4027 13.6456C20.4027 12.3556 19.2927 11.0556 18.2527 9.7456C18.1227 9.5956 18.0527 9.3956 17.9327 9.2256C17.8784 9.1693 17.8379 9.10128 17.8141 9.02679C17.7903 8.95231 17.784 8.87335 17.7955 8.79602C17.8071 8.7187 17.8364 8.64508 17.881 8.58085C17.9255 8.51662 17.9843 8.4635 18.0527 8.4256C18.116 8.37889 18.1885 8.34629 18.2655 8.33C18.3424 8.31371 18.4219 8.31411 18.4987 8.33117C18.5754 8.34823 18.6477 8.38155 18.7105 8.42889C18.7733 8.47623 18.8252 8.53649 18.8627 8.6056C19.4527 9.3156 20.0527 10.0256 20.6127 10.7656C21.3227 11.7056 22.0327 12.6456 22.8027 13.5456C22.8421 13.6108 22.8955 13.6666 22.9589 13.709C23.0223 13.7513 23.0942 13.7792 23.1696 13.7906C23.245 13.8021 23.3219 13.7968 23.3951 13.7752C23.4682 13.7536 23.5357 13.7162 23.5927 13.6656C25.7127 12.4256 27.8527 11.2156 29.9727 9.9556C30.1602 9.81976 30.3092 9.63767 30.4054 9.42707C30.5015 9.21648 30.5415 8.98457 30.5213 8.75395C30.5012 8.52332 30.4216 8.30185 30.2904 8.11111C30.1592 7.92038 29.9809 7.76689 29.7727 7.6656C28.3627 6.9756 27.0727 6.0856 25.7027 5.3156C24.7927 4.8056 23.9027 4.2456 22.9827 3.7456C22.9 3.70775 22.8263 3.65299 22.7661 3.58485C22.7059 3.51671 22.6607 3.43671 22.6334 3.35001C22.606 3.26331 22.5972 3.17184 22.6074 3.08151C22.6176 2.99118 22.6467 2.904 22.6927 2.8256C22.8627 2.4456 23.2127 2.4256 23.5427 2.6256C24.8827 3.4556 26.3027 4.1556 27.5927 5.0556C28.0494 5.35652 28.5312 5.61749 29.0327 5.8356C29.6655 6.16196 30.2621 6.55413 30.8127 7.0056C31.8127 7.7256 31.7027 8.7856 31.5327 9.8656C31.8083 9.97902 32.1125 10.0035 32.4027 9.9356C32.784 9.89834 33.1689 9.94297 33.5316 10.0665C33.8942 10.19 34.2263 10.3896 34.5056 10.6518C34.785 10.9141 35.005 11.233 35.1511 11.5872C35.2972 11.9414 35.3659 12.3227 35.3527 12.7056C35.4127 13.2656 35.3527 13.8456 35.3527 14.4156C35.3527 20.7656 35.3527 27.1156 35.3527 33.4656C35.3527 34.1456 35.4127 34.5656 36.2427 34.4656C36.4127 34.4656 36.6227 34.5756 36.8127 34.6356L36.8027 37.4056ZM28.0027 12.6056L28.0827 12.8256H31.7427C32.7427 12.8256 32.7427 12.8856 32.7427 13.8856V31.7756C32.7427 32.7756 32.7427 32.8656 31.6327 32.8656H10.0927C9.90967 32.8806 9.72573 32.8806 9.5427 32.8656C9.46435 32.861 9.38782 32.84 9.3181 32.804C9.24838 32.768 9.18701 32.7177 9.13798 32.6564C9.08895 32.5951 9.05335 32.5242 9.03349 32.4482C9.01363 32.3723 9.00995 32.293 9.0227 32.2156C9.0227 31.8656 9.1727 31.6056 9.5727 31.5956H10.2727C17.1627 31.5956 24.0427 31.5956 30.9327 31.5956C31.5527 31.5956 31.6927 31.4156 31.6927 30.8156C31.6927 25.9956 31.6927 21.1756 31.6927 16.3556C31.6927 15.5756 32.0227 14.5656 31.5627 14.0956C31.1027 13.6256 30.0327 13.9656 29.2427 13.9456C28.4527 13.9256 27.6027 13.7156 27.1327 14.0656C26.6627 14.4156 27.0127 15.4256 26.9427 16.1356C26.9377 16.1888 26.9377 16.2424 26.9427 16.2956C26.8027 18.4456 26.1027 20.2956 24.0327 21.2956C23.8921 21.3559 23.774 21.4587 23.6951 21.5897C23.6161 21.7207 23.5803 21.8732 23.5927 22.0256C23.5839 22.5183 23.7309 23.0013 24.0127 23.4056C24.3492 23.9551 24.6273 24.5383 24.8427 25.1456C24.9226 25.3997 24.949 25.6675 24.9203 25.9323C24.8916 26.1971 24.8084 26.4531 24.676 26.6841C24.5435 26.9152 24.3647 27.1163 24.1507 27.2749C23.9368 27.4335 23.6923 27.5461 23.4327 27.6056C23.0666 27.6609 22.6924 27.6136 22.3516 27.4688C22.0109 27.324 21.717 27.0875 21.5027 26.7856C21.2898 26.4996 21.1667 26.1568 21.1489 25.8008C21.1311 25.4447 21.2194 25.0914 21.4027 24.7856C21.7327 24.0856 22.1027 23.4156 22.4027 22.7056C22.6127 22.2156 22.4027 21.9856 21.8827 22.1556C20.4582 22.5676 18.97 22.7134 17.4927 22.5856C15.6755 22.54 13.9025 22.0157 12.3527 21.0656C11.4144 20.4245 10.7119 19.4937 10.3527 18.4156C10.0405 17.4821 9.9049 16.4987 9.9527 15.5156C9.9527 13.9456 9.9527 13.9456 8.4227 13.9456C7.6127 13.9456 6.8027 13.9456 6.0027 13.9456C5.3627 13.9456 5.1727 14.0956 5.1827 14.7456C5.1827 18.6156 5.1827 22.4756 5.1827 26.3356C5.1827 27.8956 5.1827 29.4456 5.1827 31.0056C5.1827 31.4856 5.3227 31.6456 5.7927 31.6056C6.2627 31.5656 6.7927 31.6056 7.2827 31.6056C7.7727 31.6056 8.0227 31.8056 8.0127 32.2956C8.0027 32.7856 7.6827 32.8956 7.2727 32.8956H5.0927C4.1727 32.8956 4.0427 32.7756 4.0427 31.8956V13.8956C4.0427 12.8956 4.1427 12.8956 5.1327 12.8956H8.8827C8.71823 12.635 8.49577 12.416 8.2327 12.2556C7.14443 11.5431 5.84882 11.2156 4.5527 11.3256C3.1727 11.4256 2.6827 11.8156 2.6827 13.2156C2.6827 20.0889 2.6827 26.9589 2.6827 33.8256C2.6827 34.3056 2.7627 34.4956 3.3127 34.4956C13.4127 34.4956 23.5194 34.4956 33.6327 34.4956C34.1627 34.4956 34.2727 34.3256 34.2727 33.8356C34.2727 31.4956 34.2727 29.1656 34.2727 26.8356C34.2727 22.2689 34.2727 17.7056 34.2727 13.1456C34.2727 11.8556 33.7627 11.3556 32.4927 11.3456C31.9927 11.3456 31.4927 11.3456 31.0127 11.3456C29.9215 11.5135 28.8881 11.9461 28.0027 12.6056ZM18.4027 38.9856C23.2627 38.9856 28.1227 38.9856 32.9827 38.9856C33.356 39.0041 33.729 38.9425 34.0766 38.8049C34.4241 38.6673 34.7382 38.4569 34.9977 38.1879C35.2573 37.9189 35.4562 37.5975 35.5813 37.2452C35.7063 36.893 35.7545 36.518 35.7227 36.1456C35.7227 35.7056 35.5627 35.6456 35.1927 35.6456H23.4227C23.2613 35.6191 23.0959 35.6565 22.9615 35.7498C22.8271 35.8432 22.7343 35.9851 22.7027 36.1456C22.5687 36.6612 22.2628 37.1157 21.8355 37.4339C21.4082 37.7521 20.8851 37.915 20.3527 37.8956C19.0827 37.8956 17.8027 37.8956 16.5327 37.8956C15.998 37.9241 15.4695 37.7691 15.0349 37.4563C14.6003 37.1435 14.2855 36.6917 14.1427 36.1756C14.0227 35.8456 13.9027 35.6756 13.5027 35.6756C9.5027 35.6756 5.5027 35.6756 1.5827 35.6756C1.1627 35.6756 1.1327 35.8356 1.1327 36.1756C1.09746 36.5488 1.14332 36.9251 1.26714 37.2789C1.39096 37.6327 1.58981 37.9555 1.85006 38.2253C2.11031 38.495 2.4258 38.7053 2.77492 38.8417C3.12403 38.9781 3.49851 39.0374 3.8727 39.0156C8.6927 38.9556 13.5527 38.9956 18.4027 38.9956V38.9856ZM11.0727 13.8856C11.0727 14.9856 11.0027 16.0056 11.0727 17.0056C11.1126 17.6785 11.3285 18.3292 11.6988 18.8926C12.069 19.4559 12.5808 19.9121 13.1827 20.2156C15.9608 21.5312 19.135 21.7421 22.0627 20.8056C22.2527 20.7556 22.4527 20.7356 22.4527 20.4356C22.4527 18.9756 22.4527 17.5156 22.4527 15.9156C21.7991 16.2226 21.1705 16.5804 20.5727 16.9856C20.1925 17.2922 19.7522 17.5157 19.2802 17.6414C18.8082 17.7672 18.3151 17.7924 17.8327 17.7156C17.0687 17.5379 16.3523 17.1967 15.7327 16.7156C14.3027 15.8656 12.8327 15.0656 11.3827 14.2356C11.2732 14.128 11.1697 14.0145 11.0727 13.8956V13.8856ZM25.7427 13.8856C25.2096 14.2838 24.6325 14.6194 24.0227 14.8856C23.8327 15.0056 23.5727 15.0356 23.5727 15.3456V20.1456C26.0827 18.6756 25.8327 16.3056 25.7427 13.9256V13.8856ZM21.6427 35.6956H15.1427C15.2679 36.0478 15.507 36.3482 15.8222 36.5493C16.1373 36.7503 16.5105 36.8405 16.8827 36.8056C17.8815 36.737 18.8839 36.737 19.8827 36.8056C20.2553 36.8651 20.637 36.7901 20.9594 36.5941C21.2818 36.3981 21.524 36.0938 21.6427 35.7356V35.6956ZM22.9727 23.9556C22.8468 24.4509 22.6371 24.921 22.3527 25.3456C22.2671 25.4916 22.2382 25.6639 22.2714 25.8299C22.3046 25.9958 22.3976 26.1438 22.5327 26.2456C22.6767 26.3543 22.8523 26.4131 23.0327 26.4131C23.2131 26.4131 23.3887 26.3543 23.5327 26.2456C23.6725 26.15 23.7703 26.0042 23.8056 25.8386C23.841 25.6729 23.8113 25.5 23.7227 25.3556C23.5027 24.9556 23.2827 24.6056 22.9727 23.9956V23.9556Z" fill="#EF4C23"/>
<path d="M12.6427 30.0656H7.59269C7.15269 30.0656 6.70269 30.0656 6.71269 29.4656C6.72269 28.8656 7.02269 28.7256 7.57269 28.7356C10.9327 28.7356 14.3027 28.7356 17.6727 28.7356C18.2027 28.7356 18.5427 28.9056 18.5627 29.4356C18.5827 29.9656 18.1427 30.0656 17.7027 30.0656H12.6427Z" fill="#EF4C23"/>
<path d="M10.8527 27.6056C9.7427 27.6056 8.62271 27.6056 7.51271 27.6056C7.41162 27.622 7.30815 27.6157 7.2098 27.5872C7.11145 27.5586 7.02068 27.5085 6.94409 27.4406C6.86749 27.3726 6.80699 27.2884 6.76697 27.1942C6.72695 27.0999 6.70841 26.9979 6.7127 26.8956C6.7127 26.4156 7.0627 26.3456 7.4627 26.3456H14.2227C14.6327 26.3456 15.0027 26.4156 14.9827 26.8956C14.9886 26.9974 14.9715 27.0993 14.9326 27.1936C14.8938 27.2879 14.8342 27.3723 14.7584 27.4405C14.6825 27.5087 14.5923 27.5589 14.4944 27.5875C14.3964 27.6161 14.2933 27.6223 14.1927 27.6056C13.0827 27.6056 11.9627 27.6056 10.8527 27.6056Z" fill="#EF4C23"/>
</svg>
