<svg width="39" height="33" viewBox="0 0 39 33" fill="none" xmlns="http://www.w3.org/2000/svg">
<path d="M38.745 28.8224C38.207 29.9625 37.4452 30.9828 36.505 31.8224C35.305 32.8924 32.065 32.8224 31.305 31.7224C31.215 31.5824 31.025 31.5024 30.885 31.3824C30.0833 30.7437 29.5051 29.8669 29.2338 28.8785C28.9624 27.89 29.0118 26.841 29.375 25.8824C29.7381 24.9422 30.3801 24.1355 31.2148 23.5707C32.0496 23.0058 33.0371 22.7098 34.045 22.7224C35.0976 22.7583 36.1099 23.1358 36.929 23.7979C37.7481 24.46 38.3293 25.3707 38.585 26.3924C38.585 26.4624 38.695 26.5224 38.745 26.5924V28.8224ZM33.945 31.0824C34.869 31.0798 35.7547 30.713 36.4099 30.0615C37.0652 29.41 37.4371 28.5264 37.445 27.6024C37.4424 27.1376 37.3478 26.6779 37.1666 26.2499C36.9854 25.8219 36.7212 25.4339 36.3893 25.1085C36.0574 24.7831 35.6643 24.5267 35.2328 24.354C34.8012 24.1813 34.3397 24.0958 33.875 24.1024C32.9519 24.1051 32.0672 24.4722 31.4136 25.124C30.7599 25.7758 30.3902 26.6594 30.385 27.5824C30.3849 28.0471 30.4774 28.5072 30.657 28.9358C30.8366 29.3644 31.0998 29.753 31.4312 30.0788C31.7626 30.4046 32.1556 30.6611 32.5871 30.8334C33.0187 31.0058 33.4803 31.0904 33.945 31.0824Z" fill="#EF4C23"/>
<path d="M26.145 27.7024H9.87495C9.07495 27.7024 8.26495 27.7024 7.46495 27.7024C6.66495 27.7024 6.17495 27.6324 5.77495 28.4124C5.70071 28.5221 5.6054 28.616 5.49456 28.6886C5.38373 28.7612 5.25959 28.811 5.12933 28.8352C4.99907 28.8594 4.86531 28.8575 4.73581 28.8295C4.6063 28.8016 4.48364 28.7482 4.37495 28.6724C4.14313 28.573 3.95124 28.3989 3.82982 28.1778C3.70841 27.9567 3.66445 27.7014 3.70495 27.4524C3.7201 27.1693 3.84205 26.9025 4.04619 26.7058C4.25034 26.5091 4.52149 26.3971 4.80495 26.3924C5.70495 26.3924 6.60496 26.3924 7.50496 26.3924C7.69496 26.3924 7.96496 26.5324 8.07496 26.2624C8.18496 25.9924 7.96495 25.8624 7.84495 25.6924C7.32993 24.9309 6.53816 24.4004 5.63802 24.2136C4.73788 24.0269 3.8004 24.1987 3.02495 24.6924C2.63795 24.9359 2.30287 25.2534 2.03898 25.6267C1.77508 26.0001 1.58756 26.4219 1.4872 26.8679C1.38684 27.314 1.37562 27.7755 1.45417 28.2258C1.53273 28.6762 1.69952 29.1067 1.94495 29.4924C2.44301 30.2683 3.22268 30.8207 4.11983 31.0334C5.01698 31.246 5.96164 31.1023 6.75496 30.6324C6.98494 30.4764 7.20229 30.3026 7.40496 30.1124C7.74496 29.8224 8.09496 29.6424 8.40496 30.0324C8.71496 30.4224 8.56496 30.8124 8.22496 31.1424C6.31496 33.0824 4.04496 33.1424 1.86496 31.4424C1.15181 30.9102 0.606725 30.1842 0.294675 29.3509C-0.0173761 28.5176 -0.0832329 27.6121 0.104954 26.7424C0.24068 25.8956 0.608934 25.1031 1.16866 24.4534C1.72839 23.8036 2.45758 23.322 3.27495 23.0624C4.45202 22.6352 5.74961 22.6858 6.88977 23.2036C8.02994 23.7213 8.92202 24.665 9.37495 25.8324C9.57639 26.0991 9.85723 26.2951 10.1771 26.3921C10.4969 26.4891 10.8393 26.4823 11.155 26.3724C11.445 26.1824 11.235 25.9224 11.205 25.7024C10.9331 24.445 10.292 23.2973 9.36381 22.4065C8.4356 21.5157 7.26254 20.9223 5.99495 20.7024C5.69155 20.6439 5.38385 20.6104 5.07496 20.6024C4.57496 20.6024 4.18495 20.4024 4.23495 19.8524C4.28495 19.3024 4.73495 19.2224 5.23495 19.2524C6.38282 19.3093 7.50495 19.6129 8.52495 20.1424C9.56329 20.6623 10.4657 21.4177 11.1602 22.3483C11.8547 23.279 12.3221 24.3591 12.525 25.5024C12.665 26.2824 12.975 26.4524 13.725 26.4424C17.625 26.4424 21.525 26.4424 25.425 26.4424C26.025 26.4424 26.215 26.3124 26.355 25.6824C26.613 24.1759 27.3264 22.7846 28.3992 21.6958C29.4719 20.6069 30.8524 19.8729 32.355 19.5924C32.705 19.5124 33.105 19.5224 32.995 18.9424C32.485 16.4424 31.995 13.9424 31.505 11.4124C31.1589 11.5164 30.8369 11.6879 30.5573 11.9169C30.2778 12.1458 30.0464 12.4279 29.8763 12.7467C29.7062 13.0655 29.6008 13.4147 29.5663 13.7744C29.5317 14.1341 29.5687 14.4971 29.675 14.8424C29.865 15.6824 30.105 16.5124 30.295 17.3524C30.3221 17.4345 30.3315 17.5214 30.3226 17.6073C30.3136 17.6933 30.2865 17.7764 30.243 17.8511C30.1995 17.9258 30.1406 17.9904 30.0703 18.0406C29.9999 18.0908 29.9197 18.1255 29.835 18.1424C29.7641 18.1761 29.6868 18.1942 29.6083 18.1955C29.5298 18.1968 29.452 18.1813 29.38 18.1501C29.308 18.1188 29.2435 18.0725 29.1909 18.0143C29.1383 17.956 29.0988 17.8872 29.075 17.8124C28.705 16.3524 28.075 14.9424 28.295 13.3924C28.3698 12.7276 28.618 12.0941 29.0146 11.5554C29.4112 11.0166 29.9424 10.5914 30.555 10.3224C30.6635 10.293 30.7648 10.2415 30.8525 10.1713C30.9403 10.101 31.0127 10.0135 31.0652 9.91408C31.1178 9.81467 31.1493 9.70552 31.1578 9.59341C31.1664 9.48131 31.1518 9.36865 31.115 9.26242C30.575 6.57242 30.055 3.88242 29.525 1.19242C29.355 0.332418 29.525 0.0124176 30.425 0.00241763C32.155 0.00241763 33.895 0.00241763 35.625 0.00241763C35.9042 -0.0110924 36.1834 0.0321232 36.4455 0.129456C36.7076 0.226788 36.9473 0.376219 37.1501 0.568733C37.3529 0.761247 37.5146 0.992852 37.6254 1.24957C37.7363 1.50629 37.7939 1.7828 37.795 2.06242C37.7888 2.33959 37.7266 2.61265 37.6119 2.86507C37.4973 3.11749 37.3326 3.34403 37.1279 3.53098C36.9232 3.71794 36.6826 3.86143 36.4209 3.95278C36.1591 4.04412 35.8815 4.08142 35.605 4.06242C34.455 4.06242 33.315 4.06242 32.165 4.06242C31.675 4.06242 31.455 4.06242 31.585 4.71242C32.585 9.55242 33.485 14.3924 34.435 19.2324C34.685 20.4824 34.645 20.5524 33.365 20.7424C29.785 21.2924 27.765 23.5424 27.575 27.2024C27.5347 28.1705 27.128 29.0871 26.4374 29.7667C25.7467 30.4462 24.8236 30.8379 23.855 30.8624C21.075 30.9124 18.285 30.8624 15.495 30.8624C15.015 30.8624 14.605 30.7624 14.585 30.1824C14.565 29.6024 15.025 29.5324 15.485 29.5324H23.385C23.9838 29.5825 24.5821 29.4291 25.0829 29.097C25.5838 28.7649 25.958 28.2735 26.145 27.7024ZM33.645 2.70242H35.645C36.105 2.70242 36.465 2.55242 36.485 2.06242C36.505 1.57242 36.135 1.34242 35.625 1.35242C34.355 1.35242 33.085 1.40242 31.825 1.35242C31.065 1.35242 30.965 1.54242 31.145 2.22242C31.245 2.59242 31.385 2.73242 31.755 2.72242C32.355 2.67242 32.995 2.68242 33.645 2.68242V2.70242Z" fill="#EF4C23"/>
<path d="M6.02495 12.6124C6.12819 12.6188 6.23172 12.6188 6.33495 12.6124C8.33495 12.5324 8.65496 12.7024 7.65496 14.6724C7.37496 15.2224 7.10495 15.7724 6.83495 16.3324C6.56495 16.8924 6.30495 16.9524 5.83495 16.7124C5.75071 16.6732 5.67637 16.6156 5.6174 16.5438C5.55843 16.472 5.51635 16.3879 5.49427 16.2976C5.47219 16.2074 5.47067 16.1133 5.48983 16.0224C5.50899 15.9315 5.54833 15.8461 5.60495 15.7724C5.88495 15.2024 6.13495 14.6124 6.44495 13.9424C5.90495 13.9424 5.44495 13.9424 5.05495 13.9424C4.33495 13.9424 4.05496 13.4924 4.36496 12.8824C4.75496 11.9424 5.21495 11.0424 5.67495 10.1324C5.70334 10.0421 5.75203 9.95944 5.81731 9.89085C5.88259 9.82225 5.9627 9.76951 6.05153 9.73669C6.14035 9.70386 6.23551 9.69182 6.32971 9.70148C6.42391 9.71114 6.51464 9.74225 6.59495 9.79242C6.6774 9.83473 6.75001 9.89393 6.80806 9.96616C6.86612 10.0384 6.90831 10.122 6.93189 10.2116C6.95547 10.3013 6.95991 10.3948 6.94494 10.4863C6.92996 10.5777 6.89589 10.665 6.84495 10.7424L6.02495 12.6124Z" fill="#EF4C23"/>
<path d="M33.875 28.8124C33.5513 28.7969 33.246 28.6574 33.0226 28.4228C32.7991 28.1881 32.6746 27.8764 32.675 27.5524C32.6931 27.2314 32.8361 26.9303 33.0735 26.7135C33.3109 26.4967 33.6237 26.3814 33.945 26.3924C34.2688 26.4075 34.5749 26.5449 34.8013 26.777C35.0278 27.009 35.1577 27.3183 35.165 27.6424C35.1307 27.9616 34.9804 28.2571 34.7426 28.4728C34.5048 28.6885 34.196 28.8093 33.875 28.8124Z" fill="#EF4C23"/>
</svg>
