<svg width="36" height="36" viewBox="0 0 36 36" fill="none" xmlns="http://www.w3.org/2000/svg">
<path d="M17.5665 35.2407H3.21653C2.78876 35.2716 2.35933 35.2105 1.95718 35.0614C1.55504 34.9123 1.18954 34.6787 0.885322 34.3764C0.581105 34.0741 0.345247 33.7101 0.193652 33.3089C0.0420573 32.9077 -0.0217518 32.4786 0.00652973 32.0507C0.00652973 23.204 0.00652973 14.3573 0.00652973 5.51066C-0.0162933 5.08323 0.0526166 4.65587 0.208625 4.25728C0.364633 3.85869 0.604129 3.49809 0.911029 3.19972C1.21793 2.90134 1.58512 2.67209 1.98795 2.52737C2.39078 2.38265 2.81992 2.32581 3.24653 2.36066C4.14653 2.36066 5.05653 2.36066 5.95653 2.36066C6.32653 2.36066 6.45653 2.29066 6.48653 1.88066C6.56653 0.640663 7.18653 0.0106617 8.22653 0.000661683C9.26653 -0.00933832 9.93653 0.610663 10.0465 1.90066C10.0465 2.24066 10.1465 2.36066 10.5065 2.36066C12.1265 2.36066 13.7565 2.36066 15.3765 2.36066C15.7865 2.36066 15.8465 2.21066 15.8765 1.84066C15.9565 0.640662 16.6065 0.000661683 17.6565 0.000661683C17.8986 -0.00607281 18.1392 0.0386643 18.3627 0.131912C18.5861 0.22516 18.7872 0.364793 18.9526 0.541572C19.1181 0.718352 19.2441 0.928247 19.3223 1.15737C19.4006 1.38649 19.4293 1.62962 19.4065 1.87066C19.4065 2.34066 19.5965 2.39066 19.9865 2.39066C21.5565 2.39066 23.1165 2.39066 24.6865 2.39066C25.1165 2.39066 25.2165 2.27066 25.2365 1.84066C25.2365 1.36858 25.4241 0.915827 25.7579 0.582012C26.0917 0.248197 26.5444 0.0606631 27.0165 0.0606631C27.4886 0.0606631 27.9414 0.248197 28.2752 0.582012C28.609 0.915827 28.7965 1.36858 28.7965 1.84066C28.7965 2.33066 28.9665 2.44066 29.4165 2.42066C30.2865 2.42066 31.1565 2.42066 32.0365 2.42066C32.472 2.3827 32.9105 2.44036 33.3214 2.58962C33.7323 2.73887 34.1056 2.97612 34.4151 3.28474C34.7247 3.59337 34.9631 3.96592 35.1136 4.37632C35.2641 4.78672 35.3232 5.22506 35.2865 5.66066C35.2865 9.21066 35.2865 12.7607 35.2865 16.3107V31.6907C35.2865 34.1407 34.1765 35.2407 31.7065 35.2407H17.5665ZM17.6865 10.6307C12.5165 10.6307 7.33653 10.6307 2.15653 10.6307C1.45653 10.6307 1.15653 10.7207 1.15653 11.5207C1.15653 18.2907 1.15653 25.0707 1.15653 31.8407C1.15653 33.4107 1.75653 34.0207 3.33653 34.0207H31.9365C33.4465 34.0207 34.0865 33.3907 34.0865 31.9007C34.0865 25.0707 34.0865 18.2407 34.0865 11.4107C34.0865 10.7707 33.9165 10.6207 33.2865 10.6307C28.1065 10.6407 22.8965 10.6307 17.6865 10.6307ZM17.6265 9.40066H17.9865C23.1065 9.40066 28.2165 9.40066 33.3265 9.40066C33.6165 9.40066 34.1065 9.66066 34.0965 9.00066C34.0965 7.73066 34.0965 6.47066 34.0965 5.21066C34.0783 4.76856 33.8864 4.35149 33.5625 4.05005C33.2386 3.7486 32.8088 3.58712 32.3665 3.60066C31.8565 3.60066 31.3665 3.60066 30.8265 3.60066C30.2865 3.60066 29.4365 3.35066 28.9965 3.72066C28.5565 4.09066 28.9265 4.80066 28.8765 5.36066C28.8814 5.39047 28.8814 5.42086 28.8765 5.45066C28.8393 5.8885 28.6406 6.29685 28.319 6.59627C27.9974 6.8957 27.5759 7.06479 27.1365 7.07066C26.6821 7.09288 26.2368 6.9372 25.8951 6.63664C25.5535 6.33608 25.3424 5.91427 25.3065 5.46066C25.2715 5.04139 25.2715 4.61993 25.3065 4.20066C25.3065 3.74066 25.2065 3.57066 24.7165 3.59066C23.6065 3.59066 22.4965 3.59066 21.3865 3.59066C20.7865 3.59066 20.0465 3.42066 19.6365 3.71066C19.2265 4.00066 19.5465 4.77066 19.5065 5.33066C19.4934 5.80103 19.2946 6.24708 18.9536 6.57127C18.6125 6.89546 18.157 7.07142 17.6865 7.06066C17.2308 7.06623 16.7909 6.89382 16.4604 6.58008C16.1298 6.26634 15.9347 5.83603 15.9165 5.38066C15.8765 5.02178 15.8765 4.65955 15.9165 4.30066C16.0065 3.67066 15.7265 3.56066 15.1665 3.58066C14.1665 3.58066 13.0565 3.58066 12.0065 3.58066C11.4065 3.58066 10.6665 3.40066 10.2565 3.68066C9.84653 3.96066 10.1565 4.75066 10.1165 5.31066C10.106 5.78102 9.90973 6.22809 9.57056 6.55414C9.23139 6.88019 8.77694 7.05871 8.30653 7.05066C8.07421 7.05465 7.84341 7.01232 7.62762 6.92616C7.41182 6.84 7.21535 6.71173 7.04966 6.54883C6.88397 6.38593 6.75237 6.19166 6.66255 5.97736C6.57274 5.76306 6.5265 5.53302 6.52653 5.30066C6.50153 4.90773 6.50153 4.5136 6.52653 4.12066C6.52653 3.68066 6.39653 3.56066 5.96653 3.57066C5.03653 3.57066 4.10653 3.57066 3.16653 3.57066C2.91113 3.549 2.65409 3.5837 2.41358 3.67232C2.17308 3.76093 1.95497 3.9013 1.77468 4.08349C1.5944 4.26569 1.45633 4.48526 1.37025 4.72669C1.28417 4.96812 1.25218 5.22551 1.27653 5.48066C1.27653 6.48066 1.27653 7.41066 1.27653 8.37066C1.27653 9.15066 1.40653 9.42066 2.27653 9.37066C7.34653 9.38066 12.4865 9.40066 17.6265 9.40066ZM8.81653 3.55066V1.87066C8.81653 1.52066 8.64653 1.30066 8.27653 1.30066C8.20122 1.28909 8.12424 1.29524 8.05172 1.31863C7.9792 1.34202 7.91313 1.38199 7.85876 1.43539C7.8044 1.48878 7.76324 1.55412 7.73855 1.62621C7.71386 1.6983 7.70631 1.77515 7.71653 1.85066V5.28066C7.71653 5.35289 7.73076 5.42441 7.7584 5.49114C7.78604 5.55787 7.82655 5.6185 7.87762 5.66957C7.9287 5.72064 7.98932 5.76116 8.05605 5.7888C8.12278 5.81644 8.1943 5.83066 8.26653 5.83066C8.33876 5.83066 8.41027 5.81644 8.477 5.7888C8.54373 5.76116 8.60437 5.72064 8.65544 5.66957C8.70651 5.6185 8.74702 5.55787 8.77466 5.49114C8.8023 5.42441 8.81654 5.35289 8.81653 5.28066C8.82653 4.69066 8.81653 4.12066 8.81653 3.55066ZM17.1065 3.49066V5.20066C17.1065 5.54066 17.2265 5.80066 17.6065 5.82066C17.9865 5.84066 18.2065 5.60066 18.2065 5.21066V1.87066C18.2065 1.48066 18.0365 1.24066 17.6165 1.26066C17.1965 1.28066 17.1065 1.52066 17.1065 1.87066V3.49066ZM27.5965 3.49066C27.5965 2.91066 27.5965 2.34066 27.5965 1.77066C27.6047 1.69557 27.5957 1.6196 27.5703 1.54847C27.5449 1.47734 27.5037 1.41289 27.4498 1.35996C27.3959 1.30704 27.3307 1.26701 27.2592 1.24288C27.1876 1.21875 27.1115 1.21116 27.0365 1.22066C26.6565 1.22066 26.5065 1.44066 26.4965 1.80066C26.4965 2.94066 26.4965 4.08066 26.4965 5.22066C26.485 5.29598 26.4911 5.37295 26.5145 5.44548C26.5379 5.518 26.5779 5.58407 26.6313 5.63843C26.6846 5.6928 26.75 5.73396 26.8221 5.75865C26.8942 5.78334 26.971 5.79088 27.0465 5.78066C27.1223 5.78587 27.1983 5.7741 27.2689 5.7462C27.3395 5.71829 27.403 5.67497 27.4548 5.61939C27.5065 5.56381 27.5452 5.49737 27.568 5.42492C27.5908 5.35248 27.5971 5.27586 27.5865 5.20066C27.6065 4.67066 27.5965 4.10066 27.5965 3.53066V3.49066Z" fill="#EF4C23"/>
<path d="M17.6665 23.3907C17.8065 22.5307 17.8765 21.6807 18.0865 20.8707C18.138 20.6892 18.133 20.4963 18.0723 20.3177C18.0115 20.1391 17.8979 19.9832 17.7465 19.8707C17.2165 19.3507 16.6765 18.8207 16.1765 18.2607C15.6765 17.7007 15.7965 17.2607 16.5765 17.0507C16.9497 16.9378 17.3367 16.8773 17.7265 16.8707C19.0965 16.9707 19.6465 16.1707 20.0865 15.0407C20.3065 14.4907 20.3265 13.5607 21.1565 13.5507C21.9865 13.5407 22.1565 14.4707 22.2365 15.0107C22.6565 16.7107 23.9365 16.8707 25.2965 17.0107C25.7465 17.0107 26.2965 17.0107 26.4565 17.5307C26.6165 18.0507 26.1665 18.2807 25.8865 18.5307C24.1065 20.3807 24.0965 20.3707 24.5965 22.8707C24.6765 23.2507 24.8265 23.6507 24.4465 23.9407C24.2836 24.0434 24.0895 24.0847 23.8989 24.0572C23.7083 24.0297 23.5338 23.9352 23.4065 23.7907C21.8965 22.5207 20.4765 22.6507 18.9565 23.7907C18.1965 24.3707 17.6765 24.0907 17.6665 23.3907ZM18.9665 22.3007C19.9665 22.0107 20.4765 21.3007 21.2165 21.3007C21.9912 21.5343 22.7311 21.8706 23.4165 22.3007C23.1991 21.9501 23.0563 21.5584 22.9971 21.1501C22.9379 20.7419 22.9635 20.3258 23.0724 19.9278C23.1812 19.5299 23.371 19.1587 23.6298 18.8375C23.8886 18.5162 24.2109 18.2518 24.5765 18.0607C24.1869 18.1258 23.7882 18.1117 23.4041 18.0193C23.0201 17.9269 22.6586 17.7581 22.3413 17.5229C22.0239 17.2877 21.7572 16.9909 21.5571 16.6503C21.357 16.3098 21.2276 15.9324 21.1765 15.5407C21.1239 15.9354 20.9932 16.3156 20.7921 16.6593C20.591 17.003 20.3234 17.3032 20.0051 17.5424C19.6868 17.7816 19.324 17.955 18.938 18.0526C18.5519 18.1502 18.1503 18.1699 17.7565 18.1107C18.1292 18.2873 18.46 18.5411 18.7272 18.8552C18.9943 19.1694 19.1916 19.5367 19.306 19.9329C19.4204 20.3291 19.4493 20.7451 19.3908 21.1533C19.3323 21.5615 19.1876 21.9526 18.9665 22.3007Z" fill="#EF4C23"/>
<path d="M8.26654 22.3807C8.26654 24.1007 8.52654 24.1007 6.57654 24.1007C4.62654 24.1007 4.66654 24.3007 4.69654 22.1707C4.69654 21.8707 4.69654 21.5707 4.69654 21.2707C4.68673 21.172 4.6993 21.0723 4.73332 20.9791C4.76734 20.8859 4.82194 20.8016 4.89305 20.7324C4.96416 20.6632 5.04995 20.6109 5.14405 20.5795C5.23814 20.548 5.33811 20.5382 5.43654 20.5507H6.43654C8.52654 20.5407 8.25654 20.4407 8.26654 22.3807ZM6.40654 22.8707C6.86654 22.9607 7.03654 22.7807 7.02654 22.3007C7.01654 21.8207 6.89653 21.6807 6.42653 21.6907C5.95653 21.7007 5.83653 21.8007 5.85653 22.2407C5.87653 22.6807 5.87654 23.0207 6.40654 22.8707Z" fill="#EF4C23"/>
<path d="M29.9665 24.0907C28.1765 24.0907 28.1765 24.0907 28.1765 22.2607V21.3607C28.1765 20.8007 28.4365 20.5407 29.0065 20.5507C32.3365 20.5507 31.6565 20.1007 31.7565 23.1007C31.7565 23.8407 31.5265 24.1607 30.7565 24.1007C30.4936 24.083 30.2298 24.0797 29.9665 24.0907ZM30.5265 22.3107C30.6165 21.8107 30.3565 21.7207 29.9265 21.7207C29.4965 21.7207 29.4065 21.8707 29.4065 22.2907C29.4065 22.7107 29.4665 22.9407 29.9765 22.9307C30.4865 22.9207 30.6165 22.7807 30.5265 22.3107Z" fill="#EF4C23"/>
<path d="M10.6065 16.4507C10.6065 14.6007 10.3965 14.6406 12.3965 14.6506C14.1865 14.6506 14.1865 14.6507 14.1865 16.4907C14.1865 16.7307 14.1865 16.9707 14.1865 17.2107C14.1865 17.9807 13.8965 18.3207 13.1265 18.2107C12.8865 18.2107 12.6465 18.2107 12.4065 18.2107C10.4065 18.2707 10.6065 18.3007 10.6065 16.4507ZM12.4565 16.9907C12.9365 17.1007 12.9565 16.8107 12.9665 16.4307C12.9765 16.0507 12.8165 15.8707 12.4065 15.8707C11.9965 15.8707 11.8365 16.0707 11.8265 16.5107C11.8165 16.9507 12.0865 17.0407 12.4565 16.9907Z" fill="#EF4C23"/>
<path d="M31.7465 16.5207C31.7315 16.7905 31.7315 17.0609 31.7465 17.3307C31.7965 17.9807 31.5165 18.2807 30.8565 18.2507C30.1965 18.2207 29.6665 18.2507 29.0665 18.2507C28.9483 18.2761 28.8257 18.2726 28.7091 18.2404C28.5926 18.2081 28.4856 18.1482 28.3972 18.0657C28.3088 17.9832 28.2416 17.8806 28.2015 17.7665C28.1613 17.6525 28.1493 17.5304 28.1665 17.4107V17.2307C28.1665 14.2307 27.7865 14.7007 31.0065 14.6607C31.5265 14.6607 31.7565 14.9307 31.7365 15.4507C31.7365 15.8007 31.7465 16.1607 31.7465 16.5207ZM30.0065 16.9907C30.4765 17.1007 30.5065 16.8307 30.5365 16.4407C30.5365 15.8807 30.2665 15.9207 29.8765 15.8907C29.4865 15.8607 29.4265 16.1807 29.3965 16.5107C29.3365 17.0307 29.6365 17.0407 30.0065 16.9907Z" fill="#EF4C23"/>
<path d="M8.26652 28.2507C8.25153 28.5205 8.25153 28.7909 8.26652 29.0607C8.32652 29.7707 7.97652 30.0607 7.26652 29.9907H7.17652C4.28652 29.9907 4.66652 30.4707 4.64652 27.1907C4.64652 26.6407 4.93652 26.3807 5.49652 26.3907C6.03276 26.4207 6.57027 26.4207 7.10652 26.3907C7.98652 26.3107 8.33652 26.6707 8.22652 27.5307C8.22483 27.7713 8.23819 28.0118 8.26652 28.2507ZM7.03652 28.2507C7.10652 27.8407 7.03652 27.6207 6.52652 27.6607C6.01652 27.7007 5.87652 27.6607 5.90652 28.1507C5.93652 28.6407 5.90652 28.8307 6.47652 28.7907C7.04652 28.7507 7.13652 28.6907 7.03652 28.2207V28.2507Z" fill="#EF4C23"/>
<path d="M10.6065 28.1607C10.6065 26.3707 10.4065 26.3707 12.3365 26.3907C12.6365 26.3907 12.9365 26.3907 13.2365 26.3907C13.9465 26.3407 14.2365 26.7107 14.2365 27.3907C14.2365 30.3907 14.5565 29.9607 11.7065 30.0207C10.9365 30.0207 10.5665 29.7807 10.7065 29.0207C10.6902 28.7323 10.6568 28.4451 10.6065 28.1607ZM12.9365 28.1607C13.0465 27.7807 12.9365 27.5807 12.4465 27.6107C11.9565 27.6407 11.7965 27.6107 11.8265 28.1007C11.8565 28.5907 11.8265 28.7707 12.3965 28.7407C12.9665 28.7107 13.0565 28.7007 12.9365 28.1807V28.1607Z" fill="#EF4C23"/>
<path d="M20.0065 28.1307C20.0065 30.0707 20.2065 30.0007 18.1865 29.9907C17.9167 29.9757 17.6463 29.9757 17.3765 29.9907C16.7265 30.0407 16.3765 29.7307 16.4365 29.1007C16.4365 26.0007 16.1065 26.4107 18.7865 26.4007C20.0065 26.3907 20.0065 26.4007 20.0065 28.1307ZM18.7765 28.1807C18.8665 27.7307 18.6465 27.6407 18.2365 27.6207C17.8265 27.6007 17.6565 27.8107 17.6465 28.2407C17.6365 28.6707 17.8865 28.7307 18.2465 28.7507C18.6065 28.7707 18.8565 28.6107 18.7765 28.1807Z" fill="#EF4C23"/>
<path d="M22.3465 28.1306C22.3465 26.3606 22.1565 26.3806 24.1065 26.3906C26.0565 26.4006 25.9265 26.3906 25.9265 28.2006C25.9265 30.0106 25.9265 29.9906 24.1765 29.9906H23.6365C22.3465 29.9906 22.3465 29.9906 22.3465 28.6706V28.1306ZM24.6965 28.3006C24.6965 27.9606 24.8065 27.5906 24.2465 27.6306C23.8865 27.6306 23.5165 27.5606 23.5665 28.1506C23.5665 28.5206 23.5665 28.8106 24.0765 28.7506C24.4065 28.7106 24.7965 28.8706 24.6965 28.3006Z" fill="#EF4C23"/>
<path d="M31.7465 28.1207C31.7465 30.1207 31.9365 30.0007 29.8465 29.9907H28.9465C28.8487 30.0041 28.7491 29.9957 28.6549 29.9662C28.5607 29.9366 28.4742 29.8866 28.4016 29.8197C28.329 29.7528 28.2721 29.6707 28.2349 29.5793C28.1977 29.4878 28.1812 29.3893 28.1865 29.2907C28.1865 28.5707 28.1865 27.8507 28.1865 27.1407C28.1758 27.0351 28.1897 26.9286 28.2269 26.8292C28.2641 26.7299 28.3237 26.6405 28.4011 26.5679C28.4785 26.4954 28.5716 26.4416 28.6731 26.4109C28.7746 26.3801 28.8819 26.3732 28.9865 26.3907H29.9865C31.8965 26.3707 31.7665 26.3407 31.7465 28.1207ZM30.5165 28.2107C30.5965 27.7907 30.4565 27.6007 29.9965 27.6307C29.5365 27.6607 29.3565 27.6307 29.3865 28.1307C29.4165 28.6307 29.4465 28.7907 29.9665 28.7607C30.4865 28.7307 30.6065 28.6707 30.5165 28.2107Z" fill="#EF4C23"/>
<path d="M10.6065 22.3107C10.6065 20.5007 10.3365 20.5407 12.3365 20.5507C14.1865 20.5507 14.1865 20.5507 14.1865 22.4207C14.1865 22.7207 14.1865 23.0207 14.1865 23.3207C14.1998 23.4259 14.1887 23.5327 14.1541 23.6329C14.1194 23.7331 14.0622 23.8239 13.9867 23.8984C13.9113 23.9729 13.8197 24.0289 13.7191 24.0623C13.6185 24.0956 13.5115 24.1054 13.4065 24.0907H11.7765C10.6365 24.0907 10.6165 24.0907 10.6165 22.9407C10.6065 22.7307 10.6065 22.5207 10.6065 22.3107ZM12.9465 22.3107C13.0665 21.8907 12.9465 21.7107 12.4065 21.7107C11.8665 21.7107 11.7965 21.8807 11.8065 22.3307C11.8165 22.7807 11.8765 22.9407 12.3465 22.9207C12.8165 22.9007 13.0665 22.8707 12.9465 22.3107Z" fill="#EF4C23"/>
</svg>
