<svg width="38" height="38" viewBox="0 0 38 38" fill="none" xmlns="http://www.w3.org/2000/svg">
<path d="M31.0935 37.4356H1.09355L0.0135498 36.3556V4.95563C0.268158 4.50603 0.655815 4.14636 1.1232 3.9261C1.59058 3.70584 2.11473 3.6358 2.62355 3.72563C3.09355 3.77563 3.62355 3.72563 4.06355 3.72563C4.19552 3.74777 4.33111 3.72662 4.45007 3.66534C4.56902 3.60406 4.66496 3.50593 4.72355 3.38563C4.91064 3.07518 5.18178 2.82403 5.50562 2.66122C5.82947 2.49841 6.19278 2.4306 6.55355 2.46563C7.30355 2.46563 8.05355 2.46563 8.80355 2.46563C9.04856 2.50622 9.30008 2.46193 9.51648 2.34009C9.73289 2.21825 9.90119 2.02616 9.99355 1.79563C11.1435 -0.414375 14.7735 -0.584375 15.9435 1.28562C16.2183 1.74739 16.6329 2.1097 17.1273 2.32006C17.6218 2.53042 18.1703 2.5779 18.6935 2.45563C19.0535 2.45563 19.4135 2.45563 19.7835 2.45563C20.1445 2.42398 20.5073 2.491 20.8331 2.64951C21.159 2.80803 21.4356 3.05209 21.6335 3.35562C21.7039 3.4859 21.8127 3.59132 21.9451 3.65753C22.0775 3.72374 22.2271 3.74752 22.3735 3.72563H23.8635C25.7435 3.72563 26.4135 4.38562 26.4135 6.25562C26.4135 9.32562 26.4135 12.3856 26.4135 15.4556C26.4135 15.7756 26.3035 16.1156 26.6035 16.3856C27.1944 16.9826 27.6631 17.6892 27.9835 18.4656L28.3635 17.7456C29.1075 16.3971 30.2121 15.2822 31.5535 14.5256C31.622 14.466 31.7027 14.4221 31.79 14.397C31.8773 14.372 31.969 14.3664 32.0586 14.3807C32.1483 14.395 32.2337 14.4289 32.3089 14.4798C32.384 14.5308 32.4471 14.5976 32.4935 14.6756C32.5467 14.7505 32.5831 14.8359 32.6003 14.926C32.6175 15.0162 32.6151 15.109 32.5933 15.1982C32.5715 15.2873 32.5308 15.3708 32.4739 15.4428C32.417 15.5148 32.3452 15.5738 32.2635 15.6156C32.0235 15.7856 31.7635 15.9356 31.5235 16.1256C30.8162 16.5852 30.2136 17.1888 29.7553 17.897C29.2969 18.6052 28.9931 19.4021 28.8635 20.2356C28.8635 20.2956 28.8635 20.3656 28.8135 20.4356H29.0135C29.8307 20.0719 30.7178 19.8927 31.6121 19.9106C32.5063 19.9286 33.3856 20.1432 34.1874 20.5394C34.9893 20.9356 35.6941 21.5035 36.2516 22.2028C36.8092 22.9021 37.2059 23.7157 37.4135 24.5856C37.6267 26.0421 37.6804 27.5175 37.5735 28.9856C37.5735 30.7797 37.0104 32.5286 35.9635 33.9856C34.7799 35.6561 33.062 36.873 31.0935 37.4356ZM22.0935 20.5456C21.5909 20.0148 21.205 19.3847 20.9604 18.6958C20.7158 18.007 20.6181 17.2745 20.6735 16.5456C20.6735 15.6856 21.0135 15.0756 21.9835 15.0856C22.4635 15.0856 22.5935 14.8856 22.5835 14.4256C22.5835 12.3556 22.5835 10.2856 22.5835 8.20562C22.5835 7.97562 22.7335 7.63563 22.3235 7.55563C21.9135 7.47563 21.8335 7.65562 21.6735 7.91562C21.4897 8.20848 21.2299 8.44595 20.9217 8.60269C20.6135 8.75943 20.2685 8.82957 19.9235 8.80563H6.46355C6.13277 8.82484 5.80262 8.75857 5.50488 8.6132C5.20714 8.46783 4.95184 8.24826 4.76355 7.97563C4.59355 7.72563 4.44355 7.44563 4.07355 7.55563C3.70355 7.66563 3.84355 8.05563 3.84355 8.30563C3.84355 16.5456 3.84355 24.7756 3.84355 33.0156C3.84355 33.6556 4.02355 33.7956 4.64355 33.7956C9.53355 33.7956 14.4335 33.7956 19.3335 33.7956H19.6935C20.0435 33.7956 20.2335 33.7256 20.0035 33.3456C18.7435 31.2856 18.8635 28.9956 18.8135 26.7056C18.7032 25.4724 18.9536 24.2338 19.5341 23.1402C20.1146 22.0466 21.0003 21.1452 22.0835 20.5456H22.0935ZM27.8635 36.2456H29.0235C30.6444 36.2842 32.2285 35.7589 33.5051 34.7595C34.7818 33.76 35.6719 32.3484 36.0235 30.7656C36.4476 28.9759 36.5088 27.1194 36.2035 25.3056C35.7435 22.2256 33.3735 20.8756 30.2035 21.3556C29.8448 21.4082 29.5153 21.5834 29.2711 21.8513C29.0268 22.1193 28.8828 22.4636 28.8635 22.8256C28.8635 23.0956 28.8635 23.3656 28.8635 23.6356C28.8635 24.0756 28.6435 24.4256 28.1635 24.4056C27.6835 24.3856 27.5735 24.0356 27.5435 23.6456C27.5135 23.2556 27.5435 23.1056 27.5435 22.8356C27.5332 22.5006 27.4131 22.1782 27.2017 21.918C26.9904 21.6579 26.6994 21.4743 26.3735 21.3956C23.8035 20.9356 21.2035 21.5456 20.3735 24.7756C20.0402 26.4565 20.0063 28.183 20.2735 29.8756C20.3197 30.6764 20.52 31.4608 20.8635 32.1856C21.4517 33.5151 22.4459 34.6242 23.7035 35.3536C24.9611 36.083 26.4175 36.3953 27.8635 36.2456ZM22.3935 36.1456C21.7035 35.0656 20.7035 35.0356 19.6035 35.0456C14.5535 35.0456 9.50355 35.0456 4.45355 35.0456C2.84355 35.0456 2.50355 34.7056 2.50355 33.0456V8.04562C2.50355 7.83562 2.50355 7.61563 2.50355 7.40563C2.49675 7.24698 2.52233 7.08861 2.57871 6.94016C2.63509 6.79171 2.72109 6.6563 2.83149 6.54216C2.94189 6.42802 3.07436 6.33755 3.22085 6.27625C3.36733 6.21496 3.52476 6.18412 3.68355 6.18562C4.24355 6.18562 4.38355 6.02563 4.38355 5.47563C4.38355 4.92563 3.98355 4.93562 3.61355 4.93562H2.70355C1.31355 4.93562 1.27355 4.93563 1.27355 6.33563V34.8256C1.27355 36.2256 1.27355 36.2456 2.66355 36.2456H21.5135C21.8635 36.2456 22.1435 36.3356 22.4235 36.1456H22.3935ZM13.1635 7.48562C15.2935 7.48562 17.4235 7.48562 19.5635 7.48562C20.3035 7.48562 20.6935 7.27562 20.6235 6.48562C20.5786 5.91651 20.5786 5.34474 20.6235 4.77562C20.6935 4.00562 20.3235 3.77562 19.6235 3.77562C18.6935 3.77562 17.7635 3.77562 16.8335 3.77562C16.6812 3.80618 16.5243 3.80634 16.3719 3.7761C16.2194 3.74586 16.0745 3.68581 15.9453 3.5994C15.8162 3.51298 15.7054 3.40191 15.6193 3.27256C15.5332 3.14321 15.4734 2.99812 15.4435 2.84563C15.3009 2.38095 15.009 1.97627 14.6131 1.69426C14.2172 1.41224 13.7393 1.26862 13.2535 1.28562C12.7848 1.22097 12.3079 1.31733 11.901 1.55893C11.4941 1.80053 11.1812 2.17308 11.0135 2.61562C10.6635 3.72562 10.0135 3.86562 9.01355 3.77562C8.74376 3.76063 8.47334 3.76063 8.20355 3.77562C5.25355 3.77562 5.69355 3.41562 5.63355 6.39562C5.63355 7.21562 5.93355 7.50563 6.75355 7.49563C8.92355 7.45563 11.0635 7.48562 13.1935 7.48562H13.1635ZM25.0035 10.3656V5.95563C25.0035 5.45563 24.9135 5.04562 24.3035 5.02562C23.6935 5.00562 22.9835 5.02562 22.3035 5.02562C21.8235 5.02562 21.9235 5.38563 21.9235 5.66563C21.9235 5.94563 21.8235 6.16562 22.2635 6.25562C23.6735 6.52562 23.8035 6.71562 23.8035 8.13562C23.8035 10.2356 23.8035 12.3356 23.8035 14.4356C23.8035 15.1456 24.2135 15.2356 24.6735 15.2456C25.1335 15.2556 24.9835 14.7756 24.9935 14.5156C25.0535 13.1256 25.0335 11.7256 25.0335 10.3656H25.0035ZM26.8635 20.1456C26.6035 17.5456 25.0035 16.1456 22.5935 16.3256C22.3735 16.3256 22.1335 16.2456 22.0035 16.5756C21.9051 16.9487 21.8872 17.3385 21.9509 17.7191C22.0147 18.0997 22.1587 18.4623 22.3734 18.7829C22.5881 19.1036 22.8686 19.3749 23.1962 19.5788C23.5238 19.7827 23.8911 19.9146 24.2735 19.9656C25.1411 19.9059 26.0126 19.9665 26.8635 20.1456Z" fill="#EF4C23"/>
<path d="M0.0535713 36.3556L1.13357 37.4356C0.213573 37.6289 -0.146429 37.2689 0.0535713 36.3556Z" fill="#EF4C23"/>
<path d="M29.0136 20.4156H28.8136C28.8136 20.3456 28.8136 20.2756 28.8636 20.2156L29.0136 20.4156Z" fill="#EF4C23"/>
<path d="M9.43356 18.4856C9.43356 18.8156 9.43356 19.1456 9.43356 19.4856C9.43445 19.7756 9.32572 20.0553 9.12915 20.2685C8.93258 20.4818 8.6627 20.6129 8.37356 20.6356C7.62409 20.6756 6.87302 20.6756 6.12356 20.6356C6.00462 20.6257 5.88894 20.5916 5.78356 20.5356C5.04356 20.1956 4.78356 18.7956 5.09356 17.2456C5.26356 16.4556 5.85356 16.2456 6.56356 16.2456C6.74356 16.2456 6.92356 16.2456 7.10356 16.2456C9.23356 16.2056 9.43356 16.4056 9.43356 18.4856ZM7.22356 19.3556C7.94356 19.5256 8.22356 19.2956 8.22356 18.5156C8.22356 17.7356 8.22356 17.5156 7.36356 17.5156C6.69356 17.5156 6.26356 17.5156 6.36356 18.4456C6.37356 19.1256 6.39356 19.5956 7.22356 19.3556Z" fill="#EF4C23"/>
<path d="M9.41357 12.8256C9.48407 13.2393 9.48407 13.6619 9.41357 14.0756C8.80357 15.6056 7.41357 14.9456 6.35357 15.0156C6.18671 15.0335 6.01795 15.0147 5.85915 14.9604C5.70035 14.9061 5.55535 14.8178 5.43433 14.7015C5.31331 14.5852 5.2192 14.4439 5.1586 14.2874C5.09801 14.1309 5.0724 13.9631 5.08357 13.7956C5.08357 13.1456 5.08357 12.4856 5.08357 11.7956C5.06829 11.6761 5.06829 11.5551 5.08357 11.4356C5.35357 10.6056 6.44357 10.2956 8.21357 10.5656C8.38744 10.5739 8.55773 10.618 8.71368 10.6954C8.86963 10.7727 9.00787 10.8815 9.11967 11.0149C9.23148 11.1483 9.31443 11.3035 9.36329 11.4705C9.41215 11.6376 9.42587 11.813 9.40357 11.9856V12.7956L9.41357 12.8256ZM8.15357 12.8256C8.33357 12.0556 8.06357 11.8256 7.24357 11.8256C6.42357 11.8256 6.31357 12.0256 6.30357 12.7656C6.29357 13.5056 6.44357 13.7656 7.30357 13.7656C8.16357 13.7656 8.37357 13.6556 8.15357 12.8656V12.8256Z" fill="#EF4C23"/>
<path d="M9.44357 24.1356C9.37357 24.6156 9.54357 25.1356 9.32357 25.5556C9.17609 25.8375 8.93821 26.0617 8.64808 26.1923C8.35794 26.3228 8.03237 26.3522 7.72357 26.2756C6.84357 26.1856 5.72357 26.6956 5.22357 25.5956C5.01839 25.1116 4.91266 24.5913 4.91266 24.0656C4.91266 23.5399 5.01839 23.0196 5.22357 22.5356C5.69357 21.4856 6.80357 21.9756 7.65357 21.8956C8.28357 21.8456 8.92357 21.8956 9.27357 22.5556C9.56357 23.0756 9.36357 23.6156 9.44357 24.1356ZM8.15357 24.1956C8.22357 23.5756 8.27357 23.0556 7.36357 23.1956C6.75357 23.2656 6.20357 23.1156 6.36357 24.0856C6.43357 24.7256 6.36357 25.1656 7.24357 25.0856C7.75357 24.9356 8.44357 25.1456 8.15357 24.1956Z" fill="#EF4C23"/>
<path d="M7.38357 27.4856C7.79987 27.4705 8.21643 27.5074 8.62357 27.5956C8.90285 27.6754 9.14159 27.8579 9.29185 28.1065C9.4421 28.355 9.49273 28.6512 9.43357 28.9356C9.28357 29.9356 9.97357 31.1956 8.70357 31.7556C7.76173 32.1057 6.72542 32.1057 5.78357 31.7556C4.93357 31.4856 5.01357 30.6356 5.05357 29.9156C5.09357 29.1956 4.74357 28.1156 5.78357 27.6056C6.26357 27.3856 6.78357 27.5656 7.38357 27.4856ZM8.15357 29.5956C8.42357 28.6656 7.78357 28.8356 7.20357 28.7656C6.37357 28.6656 6.37357 29.0756 6.31357 29.7656C6.21357 30.7656 6.74357 30.5956 7.31357 30.6656C8.24357 30.7256 8.24357 30.2256 8.15357 29.5956Z" fill="#EF4C23"/>
<path d="M15.7135 13.7956H11.7135C11.2135 13.7956 10.7135 13.7956 10.6635 13.1256C10.6135 12.4556 11.1935 12.5156 11.6635 12.5156H19.6635C20.1235 12.5156 20.6635 12.5156 20.6135 13.1556C20.5635 13.7956 20.1135 13.7956 19.6135 13.7956H15.7135Z" fill="#EF4C23"/>
<path d="M14.7035 19.4056H11.5535C11.0835 19.4056 10.6835 19.2956 10.6935 18.7356C10.7035 18.1756 11.0735 18.1256 11.5135 18.1256H17.9935C18.4235 18.1256 18.7935 18.2456 18.8035 18.7456C18.8135 19.2456 18.4135 19.4056 17.9435 19.4056H14.7035Z" fill="#EF4C23"/>
<path d="M14.0536 25.0056H11.4336C11.0336 25.0056 10.7036 24.8856 10.6936 24.4156C10.6836 23.9456 10.9936 23.7256 11.4436 23.7256H16.7636C17.2136 23.7256 17.5536 23.8956 17.5536 24.3856C17.5536 24.8756 17.1936 25.0056 16.7536 25.0056H14.0536Z" fill="#EF4C23"/>
<path d="M14.1135 30.6556H11.5035C11.0835 30.6556 10.6935 30.5556 10.6935 30.0256C10.6935 29.4956 11.0335 29.3556 11.4735 29.3556C13.2435 29.3556 15.0135 29.3556 16.7935 29.3556C17.2235 29.3556 17.5735 29.5556 17.5535 30.0456C17.5335 30.5356 17.1435 30.6556 16.7235 30.6556H14.1135Z" fill="#EF4C23"/>
<path d="M21.3136 25.9056C21.3227 25.2326 21.5133 24.5744 21.8653 24.0006C22.2173 23.4269 22.7177 22.9587 23.3136 22.6456C23.6936 22.4456 24.0936 22.3856 24.3136 22.8156C24.3675 22.898 24.4014 22.9918 24.4126 23.0896C24.4237 23.1874 24.4118 23.2864 24.3778 23.3788C24.3438 23.4711 24.2886 23.5542 24.2166 23.6214C24.1447 23.6886 24.058 23.738 23.9636 23.7656C23.5465 23.9746 23.1963 24.2961 22.9524 24.6937C22.7086 25.0913 22.5808 25.5492 22.5836 26.0156C22.5836 26.4956 22.4036 26.9156 21.9036 26.8956C21.4036 26.8756 21.2536 26.4256 21.3136 25.9056Z" fill="#EF4C23"/>
<path d="M14.7736 4.97559H18.5636C19.0436 4.97559 19.4336 5.11559 19.4336 5.65559C19.4336 6.19559 19.0436 6.25558 18.6036 6.25558C16.0436 6.25558 13.4936 6.25558 10.9336 6.25558C10.4636 6.25558 10.0336 6.14559 10.0636 5.60559C10.0936 5.06559 10.5036 4.97559 10.9836 4.97559C12.2436 4.98559 13.5136 4.97559 14.7736 4.97559Z" fill="#EF4C23"/>
<path d="M7.86356 6.24558C7.38356 6.24558 6.86356 6.24558 6.86356 5.61558C6.86356 4.98558 7.34356 4.96558 7.86356 4.96558C8.38356 4.96558 8.74356 5.07558 8.77356 5.58558C8.80356 6.09558 8.38356 6.27558 7.86356 6.24558Z" fill="#EF4C23"/>
</svg>
