<svg width="34" height="38" viewBox="0 0 34 38" fill="none" xmlns="http://www.w3.org/2000/svg">
<path d="M13.2341 24.9621C13.1486 24.9621 13.0641 24.9809 12.9867 25.0173C12.9093 25.0537 12.8409 25.1068 12.7864 25.1728C12.732 25.2387 12.6927 25.3159 12.6716 25.3988C12.6504 25.4816 12.6479 25.5682 12.6641 25.6521C12.6641 26.2721 12.5041 26.5121 11.8741 26.4221C11.7923 26.406 11.7079 26.4081 11.6269 26.4281C11.546 26.4482 11.4704 26.4858 11.4056 26.5382C11.3407 26.5907 11.2882 26.6567 11.2517 26.7317C11.2151 26.8067 11.1955 26.8888 11.1941 26.9721C11.1847 27.0564 11.1952 27.1416 11.2249 27.221C11.2545 27.3004 11.3024 27.3717 11.3648 27.4292C11.4271 27.4866 11.502 27.5286 11.5836 27.5517C11.6651 27.5748 11.7509 27.5784 11.8341 27.5621C12.5241 27.4821 12.7141 27.7821 12.6741 28.4221C12.6611 28.5048 12.6674 28.5893 12.6926 28.6691C12.7179 28.7489 12.7613 28.8217 12.8195 28.8818C12.8777 28.9419 12.949 28.9877 13.0279 29.0155C13.1068 29.0434 13.1911 29.0525 13.2741 29.0422C13.3587 29.0399 13.4418 29.0189 13.5173 28.9806C13.5928 28.9422 13.6588 28.8875 13.7105 28.8205C13.7622 28.7535 13.7983 28.6758 13.8163 28.593C13.8342 28.5103 13.8334 28.4246 13.8141 28.3421C13.7241 27.7021 14.0041 27.5121 14.6041 27.5621C14.9641 27.5621 15.2741 27.4321 15.2641 27.0121C15.2541 26.5921 14.9341 26.3721 14.5341 26.4221C13.9341 26.5021 13.7541 26.2621 13.8141 25.6921C13.8355 25.6047 13.8366 25.5136 13.8173 25.4257C13.798 25.3378 13.7589 25.2555 13.7029 25.1851C13.6469 25.1146 13.5756 25.0579 13.4943 25.0193C13.4131 24.9806 13.3241 24.9611 13.2341 24.9621ZM27.1741 23.3421C27.6741 23.3421 28.1141 23.3421 28.0941 22.7121C28.0741 22.0821 27.6241 22.2021 27.2441 22.1921C26.8641 22.1821 26.4041 22.1921 26.4141 22.7521C26.4241 23.3121 26.7941 23.3321 27.1741 23.3121V23.3421ZM25.1741 24.2521C25.1741 24.6621 25.1741 25.1021 25.6941 25.1221C26.2141 25.1421 26.3141 24.7121 26.3141 24.2621C26.3141 23.8121 26.2441 23.4421 25.7441 23.4321C25.2441 23.4221 25.1441 23.8021 25.1641 24.2221L25.1741 24.2521ZM14.0741 3.09215C14.6441 3.09215 15.0741 2.99215 15.0741 2.52215C15.0741 2.05215 14.6941 1.89215 14.2641 1.90215C13.8341 1.91215 13.4641 1.98215 13.4741 2.52215C13.4841 3.06215 13.8241 3.04215 14.0641 3.06215L14.0741 3.09215ZM9.49411 3.09215C9.57547 3.097 9.65689 3.08403 9.73272 3.05416C9.80854 3.02429 9.87693 2.97822 9.93311 2.91918C9.98929 2.86015 10.0319 2.78956 10.058 2.71235C10.0841 2.63514 10.093 2.55316 10.0841 2.47215C10.0841 2.00215 9.70411 1.91215 9.31411 1.90215C8.92411 1.89215 8.47412 1.99215 8.46412 2.48215C8.45412 2.97215 8.84411 3.08215 9.4841 3.06215L9.49411 3.09215ZM11.8241 3.09215C12.2241 3.09215 12.6141 2.95215 12.5741 2.43215C12.5341 1.91215 12.0941 1.89215 11.6941 1.90215C11.2941 1.91215 10.9541 2.03215 10.9741 2.50215C10.9941 2.97215 11.3841 3.05215 11.8141 3.07215L11.8241 3.09215ZM24.1741 22.1821C23.7741 22.1821 23.3541 22.1821 23.3841 22.7821C23.4141 23.3821 23.8441 23.3221 24.2441 23.3221C24.6441 23.3221 25.0641 23.2421 25.0441 22.7121C25.0241 22.1821 24.6141 22.1721 24.1641 22.1621L24.1741 22.1821ZM26.3041 21.1821C26.3041 20.7721 26.3041 20.3821 25.7441 20.3721C25.1841 20.3621 25.1741 20.7921 25.1741 21.2121C25.1741 21.6321 25.1741 22.0422 25.7441 22.0422C26.3141 22.0422 26.3141 21.6121 26.2941 21.1721L26.3041 21.1821ZM16.1241 23.3521C16.1131 23.2642 16.0846 23.1793 16.0401 23.1026C15.9956 23.0259 15.9361 22.9589 15.8652 22.9057C15.7942 22.8525 15.7133 22.8142 15.6272 22.7929C15.5411 22.7717 15.4516 22.768 15.3641 22.7821C14.9141 22.7821 14.5641 22.9321 14.5941 23.4321C14.6241 23.9321 15.0041 23.9721 15.3841 23.9721C15.474 23.9818 15.5649 23.9729 15.6512 23.946C15.7375 23.919 15.8174 23.8747 15.8858 23.8156C15.9543 23.7565 16.0099 23.684 16.0491 23.6026C16.0884 23.5211 16.1105 23.4325 16.1141 23.3421L16.1241 23.3521ZM19.2641 23.3521C19.1541 22.8921 18.8341 22.7621 18.3941 22.7821C17.9541 22.8021 17.6841 22.9921 17.7241 23.4221C17.7641 23.8521 18.1241 23.9821 18.5141 23.9721C18.6042 23.9804 18.6951 23.9705 18.7814 23.9431C18.8677 23.9157 18.9476 23.8714 19.0166 23.8127C19.0855 23.754 19.142 23.6822 19.1828 23.6014C19.2236 23.5206 19.2478 23.4324 19.2541 23.3421L19.2641 23.3521Z" fill="#EF4C23"/>
<path d="M3.00412 37.3922C3.00412 37.2222 2.88412 37.2322 2.78412 37.1922C1.76834 36.7785 0.9401 36.0058 0.456998 35.0212C-0.0261041 34.0366 -0.130342 32.9087 0.164121 31.8522C0.944121 28.2122 1.67412 24.5722 2.57412 20.9622C2.77423 20.1898 3.14238 19.4711 3.65233 18.8574C4.16227 18.2438 4.80142 17.7503 5.52412 17.4122C6.05412 17.1522 5.95411 16.8322 5.95411 16.4922C5.95411 11.9122 5.95411 7.34217 5.95411 2.77217C5.94683 2.35324 5.98033 1.9346 6.05412 1.52217C6.14048 1.09174 6.37474 0.705098 6.71629 0.429297C7.05785 0.153495 7.48515 0.00592146 7.92412 0.0121635H12.1641C12.4941 0.0121635 12.9541 -0.117837 12.9341 0.472163C12.9141 1.06216 12.5341 1.08216 12.1141 1.08216H8.50412C7.40412 1.08216 7.13411 1.36216 7.12411 2.47216C7.1391 2.71527 7.1391 2.95906 7.12411 3.20217C7.06411 3.68217 7.20412 3.87216 7.74412 3.87216C13.8575 3.87216 19.9641 3.87216 26.0641 3.87216C26.5441 3.87216 26.7241 3.73216 26.6641 3.26216C26.6641 2.96216 26.6641 2.66217 26.6641 2.36217C26.6641 1.36217 26.3641 1.08216 25.3641 1.08216H14.7141C14.3141 1.08216 13.9941 0.912166 13.9941 0.452166C13.9941 -0.00783405 14.3841 0.0121635 14.7141 0.0121635H25.7141C25.9693 -0.00825993 26.226 0.0222868 26.4692 0.102023C26.7125 0.181758 26.9375 0.309091 27.131 0.476607C27.3246 0.644123 27.4829 0.848475 27.5968 1.07776C27.7106 1.30705 27.7777 1.5567 27.7941 1.81216C27.8365 2.14371 27.8532 2.47804 27.8441 2.81216C27.8441 7.32216 27.8441 11.8122 27.8441 16.3522C27.8441 16.9222 27.8441 17.3522 28.5641 17.5322C29.0241 17.6122 29.2941 18.0322 29.5641 18.3922C29.6143 18.4499 29.6511 18.5179 29.6719 18.5915C29.6928 18.665 29.6971 18.7423 29.6847 18.8177C29.6723 18.8931 29.6434 18.9649 29.6001 19.0279C29.5568 19.0909 29.5001 19.1436 29.4341 19.1822C29.3887 19.2348 29.3315 19.276 29.2671 19.3022C29.2028 19.3285 29.1331 19.3392 29.0638 19.3333C28.9945 19.3274 28.9276 19.3053 28.8686 19.2686C28.8095 19.2319 28.76 19.1817 28.7241 19.1222C28.2141 18.3622 27.4641 18.4322 26.7241 18.4522C25.8852 18.5122 25.043 18.5122 24.2041 18.4522C23.611 18.3436 22.999 18.4162 22.4478 18.6606C21.8966 18.9049 21.4319 19.3097 21.1141 19.8222C20.7757 20.3039 20.3111 20.6829 19.7712 20.9175C19.2313 21.1522 18.6372 21.2334 18.0541 21.1522C17.1516 21.0972 16.2466 21.0972 15.3441 21.1522C14.8976 21.2066 14.4447 21.1428 14.0306 20.9674C13.6164 20.7919 13.2556 20.5108 12.9841 20.1522C12.5929 19.5271 12.021 19.0355 11.3442 18.7427C10.6674 18.4498 9.91762 18.3694 9.19412 18.5122C8.52843 18.5632 7.85981 18.5632 7.19412 18.5122C6.39568 18.535 5.62567 18.8135 4.9974 19.3068C4.36913 19.8 3.91579 20.482 3.70411 21.2522C3.23411 23.2522 2.85412 25.1722 2.38412 27.1222C2.28412 27.5722 2.38412 27.7522 2.77412 27.8522C3.4604 28.0346 4.06741 28.4382 4.50125 29.0004C4.93509 29.5626 5.17158 30.252 5.17412 30.9622C5.21257 31.299 5.2727 31.633 5.35412 31.9622C5.50577 32.472 5.81672 32.9199 6.24141 33.2403C6.6661 33.5606 7.18221 33.7365 7.71412 33.7422C7.92412 33.7422 8.00411 33.5622 8.09411 33.4122C8.30411 33.0422 8.53411 32.6922 8.73411 32.3222C9.21628 31.358 9.98941 30.5698 10.9441 30.0691C11.8988 29.5684 12.9868 29.3806 14.0541 29.5322C14.4441 29.5322 14.8341 29.6322 14.8441 30.0822C14.8541 30.5322 14.4941 30.7522 14.0341 30.7022C11.6841 30.4422 10.2741 31.6322 9.30412 33.6422C8.6671 35.2664 7.45277 36.5982 5.89412 37.3822L3.00412 37.3922ZM26.6741 11.1922C26.6741 9.35216 26.6741 7.52217 26.6741 5.68217C26.6741 5.16217 26.5141 5.04217 26.0141 5.04217C19.9341 5.04217 13.8574 5.04217 7.78412 5.04217C7.30412 5.04217 7.11412 5.13216 7.11412 5.67216C7.11412 9.3455 7.11412 13.0122 7.11412 16.6722C7.11412 17.2222 7.31411 17.3122 7.79411 17.3022C8.79411 17.3022 9.79411 17.3022 10.7941 17.3022C11.1568 17.2664 11.5226 17.3239 11.8569 17.4692C12.1911 17.6144 12.4828 17.8426 12.7041 18.1322C13.1425 18.8309 13.7862 19.3769 14.5471 19.6956C15.3079 20.0142 16.1486 20.0899 16.9541 19.9122C17.0733 19.8922 17.1949 19.8922 17.3141 19.9122C17.9894 20.0616 18.6945 19.9964 19.3309 19.7257C19.9674 19.455 20.5034 18.9923 20.8641 18.4022C21.1418 18.0042 21.5242 17.6908 21.9689 17.4966C22.4137 17.3025 22.9035 17.2352 23.3841 17.3022C24.2441 17.3622 25.1241 17.3022 25.9941 17.3022C26.5741 17.3022 26.7041 17.1322 26.6941 16.5922C26.6141 14.8022 26.6741 12.9622 26.6741 11.1922ZM4.45411 36.3322C4.90561 36.3488 5.35539 36.2681 5.77295 36.0955C6.1905 35.923 6.56605 35.6626 6.87411 35.3322C7.24411 34.9922 7.25412 34.7622 6.67412 34.6622C5.96355 34.5764 5.30923 34.2326 4.83545 33.6961C4.36166 33.1597 4.10141 32.4679 4.10412 31.7522C4.10412 31.3722 3.94412 30.9922 3.91412 30.6022C3.8836 30.2176 3.73298 29.8523 3.48355 29.5581C3.23412 29.2638 2.89849 29.0553 2.52412 28.9622C2.17412 28.8422 2.00412 28.8222 1.91412 29.2622C1.70412 30.3522 1.41412 31.4222 1.21412 32.5122C1.13915 32.982 1.16663 33.4625 1.29472 33.9207C1.42281 34.3789 1.64846 34.8039 1.9562 35.1668C2.26395 35.5296 2.64651 35.8216 3.07766 36.0228C3.50882 36.2239 3.97836 36.3295 4.45411 36.3322Z" fill="#EF4C23"/>
<path d="M27.9241 37.3922C26.4527 36.6482 25.2911 35.4087 24.6441 33.8922C24.4041 33.4122 24.1141 32.9622 23.8241 32.5022C23.5 31.9423 23.0306 31.4803 22.4656 31.1652C21.9005 30.8502 21.2608 30.6936 20.6141 30.7122C19.3241 30.7122 18.0341 30.7122 16.7441 30.7122C16.2741 30.7122 15.8341 30.6322 15.8641 30.0722C15.8941 29.5122 16.3541 29.5522 16.7441 29.5522H20.0741H20.7841C21.5936 29.5411 22.3913 29.7466 23.0946 30.1475C23.7979 30.5484 24.3812 31.13 24.7841 31.8322C24.8944 32.0453 25.0215 32.2493 25.1641 32.4422C25.5441 32.8222 25.4441 33.7322 26.2541 33.6222C27.8041 33.4122 28.2541 33.0222 28.4541 31.8122C28.5341 31.3722 28.6541 30.9322 28.6941 30.4922C28.7181 29.8703 28.9409 29.2725 29.3296 28.7866C29.7184 28.3006 30.2527 27.9521 30.8541 27.7922C31.3741 27.6222 31.5041 27.3822 31.3641 26.7922C30.8741 24.7922 30.4741 22.7922 29.9941 20.7922C29.9041 20.4022 29.7841 20.0422 30.2141 19.8822C30.6441 19.7222 31.0141 20.0422 31.1241 20.4922C31.5041 22.0922 31.8541 23.7022 32.2041 25.3122C32.6641 27.3922 33.0841 29.4822 33.5541 31.5522C33.9226 32.6513 33.8527 33.8502 33.359 34.899C32.8654 35.9479 31.9859 36.7657 30.9041 37.1822C30.8141 37.1822 30.7641 37.2622 30.7941 37.3622L27.9241 37.3922ZM29.3541 36.3322C29.8392 36.3392 30.3198 36.2382 30.761 36.0365C31.2023 35.8349 31.5931 35.5375 31.9052 35.1661C32.2173 34.7946 32.4428 34.3584 32.5654 33.889C32.688 33.4196 32.7047 32.9288 32.6141 32.4522C32.4241 31.3622 32.1341 30.2822 31.9341 29.1922C31.8441 28.7422 31.6641 28.8022 31.3141 28.9222C30.9253 29.0311 30.5808 29.2598 30.3295 29.5758C30.0781 29.8917 29.9328 30.2789 29.9141 30.6822C29.6941 32.5422 29.3841 34.3822 26.9841 34.6822C26.5041 34.7422 26.7141 35.0322 26.9141 35.2422C27.2138 35.5943 27.5884 35.875 28.0106 36.0636C28.4328 36.2522 28.8919 36.344 29.3541 36.3322Z" fill="#EF4C23"/>
<path d="M20.7741 29.6122H20.0641C19.9941 29.3022 19.7241 29.3322 19.5041 29.2522C18.9766 29.0663 18.5295 28.7042 18.238 28.2269C17.9465 27.7496 17.8286 27.1863 17.9041 26.6322C18.0028 26.0724 18.2953 25.5652 18.7305 25.1995C19.1657 24.8338 19.7157 24.633 20.2841 24.6322C20.8513 24.6333 21.4 24.8345 21.8335 25.2004C22.267 25.5662 22.5576 26.0732 22.6541 26.6322C22.7472 27.1998 22.6394 27.7821 22.3491 28.2786C22.0588 28.7752 21.6044 29.1549 21.0641 29.3522C20.9341 29.3122 20.4241 29.1322 20.7741 29.6122ZM21.5441 26.8722C21.5039 26.5424 21.3379 26.2408 21.0809 26.0303C20.8238 25.8198 20.4954 25.7166 20.1641 25.7422C20.0002 25.7556 19.8408 25.8023 19.6956 25.8794C19.5504 25.9565 19.4224 26.0624 19.3194 26.1906C19.2165 26.3188 19.1408 26.4667 19.0969 26.6251C19.053 26.7836 19.0418 26.9493 19.0641 27.1122C19.0786 27.2759 19.1265 27.4348 19.2049 27.5791C19.2833 27.7235 19.3905 27.8503 19.5199 27.9515C19.6492 28.0528 19.798 28.1264 19.957 28.1678C20.116 28.2092 20.2818 28.2175 20.4441 28.1922C20.7585 28.1478 21.0452 27.9881 21.2485 27.7442C21.4518 27.5003 21.5571 27.1895 21.5441 26.8722Z" fill="#EF4C23"/>
<path d="M8.15411 25.1121C7.51821 25.1123 6.9076 24.8631 6.45329 24.4182C5.99899 23.9732 5.73721 23.3679 5.72412 22.7321C5.73426 22.0969 5.98976 21.4902 6.43712 21.0392C6.88448 20.5881 7.489 20.3275 8.12411 20.3121C8.76108 20.3197 9.37026 20.5741 9.82349 21.0217C10.2767 21.4693 10.5386 22.0753 10.5541 22.7121C10.5413 23.3446 10.2844 23.9477 9.83704 24.395C9.38969 24.8424 8.78663 25.0994 8.15411 25.1121ZM8.15411 23.9821C8.31833 23.9744 8.47941 23.9344 8.62814 23.8644C8.77687 23.7944 8.91034 23.6957 9.02087 23.574C9.13141 23.4523 9.21686 23.31 9.27232 23.1553C9.32779 23.0005 9.35219 22.8363 9.34412 22.6721C9.34483 22.5075 9.31108 22.3445 9.24503 22.1936C9.17897 22.0428 9.08207 21.9075 8.96057 21.7963C8.83907 21.6852 8.69565 21.6007 8.53954 21.5483C8.38342 21.4959 8.21807 21.4768 8.05412 21.4921C7.89003 21.4965 7.72867 21.5351 7.58034 21.6054C7.43201 21.6757 7.29998 21.7762 7.19269 21.9004C7.0854 22.0247 7.0052 22.1699 6.95723 22.3269C6.90926 22.4839 6.89459 22.6492 6.91412 22.8121C6.94373 23.1243 7.0878 23.4145 7.31859 23.6269C7.54937 23.8392 7.85055 23.9586 8.16412 23.9621L8.15411 23.9821Z" fill="#EF4C23"/>
<path d="M13.2341 24.9622C13.3241 24.9612 13.4131 24.9807 13.4944 25.0193C13.5756 25.058 13.647 25.1147 13.7029 25.1851C13.7589 25.2556 13.798 25.3379 13.8173 25.4258C13.8366 25.5137 13.8355 25.6048 13.8141 25.6922C13.7541 26.2622 13.9341 26.5022 14.5341 26.4222C14.9341 26.4222 15.2641 26.5522 15.2641 27.0122C15.2641 27.4722 14.9641 27.6022 14.6041 27.5622C14.0041 27.5622 13.7241 27.7022 13.8141 28.3422C13.8335 28.4246 13.8342 28.5103 13.8163 28.5931C13.7984 28.6758 13.7622 28.7535 13.7105 28.8206C13.6588 28.8876 13.5928 28.9423 13.5173 28.9806C13.4418 29.0189 13.3588 29.04 13.2741 29.0422C13.1911 29.0525 13.1068 29.0434 13.0279 29.0156C12.949 28.9877 12.8777 28.942 12.8195 28.8818C12.7613 28.8217 12.7179 28.7489 12.6927 28.6691C12.6674 28.5894 12.6611 28.5048 12.6741 28.4222C12.6741 27.7822 12.5241 27.4822 11.8341 27.5622C11.751 27.5784 11.6651 27.5748 11.5836 27.5517C11.502 27.5286 11.4271 27.4867 11.3648 27.4292C11.3025 27.3718 11.2546 27.3005 11.2249 27.2211C11.1953 27.1417 11.1847 27.0564 11.1941 26.9722C11.1955 26.8888 11.2151 26.8067 11.2517 26.7318C11.2882 26.6568 11.3408 26.5907 11.4056 26.5383C11.4705 26.4858 11.546 26.4483 11.627 26.4282C11.7079 26.4081 11.7923 26.4061 11.8741 26.4222C12.5041 26.5122 12.7141 26.2722 12.6641 25.6522C12.6479 25.5682 12.6505 25.4817 12.6716 25.3988C12.6928 25.3159 12.732 25.2388 12.7865 25.1728C12.8409 25.1069 12.9093 25.0538 12.9867 25.0174C13.0641 24.981 13.1486 24.9621 13.2341 24.9622Z" fill="#EF4C23"/>
<path d="M27.1741 23.3122C26.7941 23.3122 26.4141 23.2122 26.4141 22.7222C26.4141 22.2322 26.8341 22.1522 27.2441 22.1622C27.6541 22.1722 28.0841 22.1622 28.0941 22.6822C28.1041 23.2022 27.6741 23.3122 27.1741 23.3122Z" fill="#EF4C23"/>
<path d="M25.1641 24.2222C25.1641 23.8022 25.2241 23.3922 25.7341 23.4022C26.2441 23.4122 26.3141 23.8022 26.3041 24.2322C26.2941 24.6622 26.2541 25.1222 25.6841 25.0922C25.1141 25.0622 25.1541 24.6322 25.1641 24.2222Z" fill="#EF4C23"/>
<path d="M14.0641 3.0622C13.8241 3.0622 13.4641 2.9722 13.4541 2.4922C13.4441 2.0122 13.8341 1.8822 14.2441 1.8722C14.6541 1.8622 15.0741 2.0022 15.0541 2.4922C15.0341 2.9822 14.6141 3.0822 14.0641 3.0622Z" fill="#EF4C23"/>
<path d="M9.48413 3.06219C8.84413 3.06219 8.48413 2.93219 8.48413 2.45219C8.48413 1.97219 8.92414 1.86219 9.33414 1.87219C9.74414 1.88219 10.0941 1.97219 10.1041 2.44219C10.1137 2.52593 10.1043 2.61075 10.0765 2.69033C10.0487 2.76991 10.0033 2.8422 9.94374 2.9018C9.88414 2.9614 9.81186 3.00677 9.73228 3.03454C9.6527 3.06232 9.56787 3.07177 9.48413 3.06219Z" fill="#EF4C23"/>
<path d="M11.8141 3.0722C11.3841 3.0722 10.9741 2.9922 10.9641 2.4822C10.9541 1.9722 11.2941 1.8822 11.6841 1.8822C12.0741 1.8822 12.5141 1.8822 12.5641 2.4122C12.6141 2.9422 12.2141 3.0422 11.8141 3.0722Z" fill="#EF4C23"/>
<path d="M24.1641 22.1622C24.5641 22.1622 25.0141 22.1622 25.0341 22.6922C25.0541 23.2222 24.6641 23.3022 24.2341 23.3022C23.8041 23.3022 23.4041 23.3022 23.3741 22.7622C23.3441 22.2222 23.7641 22.1722 24.1641 22.1622Z" fill="#EF4C23"/>
<path d="M26.2941 21.1722C26.2941 21.6122 26.2941 22.0222 25.7341 22.0322C25.1741 22.0422 25.1741 21.6122 25.1641 21.2022C25.1541 20.7922 25.1641 20.3622 25.7341 20.3622C26.3041 20.3622 26.3341 20.7622 26.2941 21.1722Z" fill="#EF4C23"/>
<path d="M16.1141 23.3422C16.1093 23.4326 16.086 23.5211 16.0455 23.6021C16.005 23.6831 15.9483 23.7549 15.8789 23.8131C15.8095 23.8712 15.7289 23.9145 15.642 23.9402C15.5552 23.9658 15.464 23.9733 15.3741 23.9622C14.9941 23.9622 14.6141 23.8622 14.5841 23.4222C14.5541 22.9822 14.9041 22.7822 15.3541 22.7722C15.4417 22.7581 15.5312 22.7618 15.6172 22.783C15.7033 22.8042 15.7843 22.8426 15.8552 22.8958C15.9261 22.949 15.9856 23.0159 16.0301 23.0926C16.0746 23.1693 16.1032 23.2542 16.1141 23.3422Z" fill="#EF4C23"/>
<path d="M19.2541 23.3422C19.2466 23.4325 19.2212 23.5205 19.1792 23.6008C19.1372 23.6812 19.0796 23.7523 19.0097 23.8101C18.9398 23.8679 18.8591 23.9111 18.7723 23.9372C18.6854 23.9633 18.5943 23.9718 18.5041 23.9622C18.1141 23.9622 17.7541 23.8622 17.7141 23.4122C17.6741 22.9622 17.9641 22.7922 18.3841 22.7722C18.8041 22.7522 19.1441 22.8822 19.2541 23.3422Z" fill="#EF4C23"/>
<path d="M22.1941 16.1922H19.4841C19.1141 16.1922 18.7241 16.1322 18.7041 15.6422C18.6841 15.1522 19.0641 15.0122 19.4941 15.0122H24.9141C25.3541 15.0122 25.7241 15.1622 25.7041 15.6522C25.6841 16.1422 25.2941 16.1922 24.9041 16.1922H22.1941Z" fill="#EF4C23"/>
<path d="M15.4441 15.0122H17.4441C17.8341 15.0122 18.1841 15.0922 18.2141 15.5722C18.2441 16.0522 17.8841 16.1822 17.4941 16.1822H13.3541C12.9641 16.1822 12.5941 16.0422 12.6241 15.5822C12.6541 15.1222 12.9841 15.0022 13.3941 15.0122H15.4441Z" fill="#EF4C23"/>
<path d="M13.4541 6.76216C13.0541 8.15216 12.6341 9.65216 12.1941 11.1322C12.1777 11.2069 12.1453 11.2772 12.0991 11.3382C12.0529 11.3992 11.9941 11.4495 11.9266 11.4856C11.8591 11.5217 11.7847 11.5428 11.7083 11.5474C11.6319 11.5519 11.5554 11.5399 11.4841 11.5122C11.4108 11.4922 11.3426 11.457 11.2838 11.4088C11.2251 11.3606 11.1771 11.3006 11.1431 11.2327C11.1092 11.1647 11.0899 11.0903 11.0866 11.0144C11.0833 10.9385 11.0961 10.8628 11.1241 10.7922C11.5241 9.32216 11.9341 7.86216 12.3541 6.40216C12.3693 6.32761 12.3996 6.25694 12.443 6.19447C12.4864 6.13199 12.5421 6.07902 12.6067 6.03878C12.6712 5.99854 12.7433 5.97188 12.8185 5.96042C12.8938 5.94897 12.9705 5.95296 13.0441 5.97216C13.4041 6.05216 13.5041 6.32216 13.4541 6.76216Z" fill="#EF4C23"/>
<path d="M20.1641 10.7722H18.2841C17.9141 10.7722 17.6141 10.6322 17.6041 10.2122C17.5941 9.79217 17.8941 9.60217 18.3141 9.60217H22.0841C22.4841 9.60217 22.8341 9.70217 22.8541 10.1622C22.8741 10.6222 22.4641 10.7722 22.0541 10.7822L20.1641 10.7722Z" fill="#EF4C23"/>
<path d="M19.3041 12.4922H21.0941C21.5041 12.4922 21.8441 12.6222 21.8841 13.0522C21.9241 13.4822 21.5641 13.6822 21.1841 13.6822C19.8941 13.6822 18.6041 13.6822 17.3241 13.6822C16.9341 13.6822 16.5941 13.4822 16.6341 13.0322C16.6741 12.5822 16.9441 12.4922 17.3241 12.4922H19.3041Z" fill="#EF4C23"/>
<path d="M9.61412 8.75219C9.92412 9.02219 10.2141 9.23218 10.4741 9.48218C10.5311 9.531 10.5769 9.59159 10.6083 9.65977C10.6397 9.72795 10.6559 9.80212 10.6559 9.87719C10.6559 9.95225 10.6397 10.0264 10.6083 10.0946C10.5769 10.1628 10.5311 10.2234 10.4741 10.2722C10.4362 10.3291 10.387 10.3777 10.3295 10.4149C10.2721 10.452 10.2076 10.477 10.1401 10.4883C10.0726 10.4995 10.0036 10.4968 9.93716 10.4803C9.87076 10.4637 9.80846 10.4338 9.75412 10.3922C9.2199 10.0106 8.71515 9.58945 8.24412 9.13218C7.84412 8.72218 8.12412 8.32218 8.52412 8.13218C9.14412 7.79218 9.47412 6.74218 10.4441 7.22218C10.7341 7.36218 10.7041 7.74219 10.4441 8.00219C10.1841 8.26219 9.96412 8.48219 9.61412 8.75219Z" fill="#EF4C23"/>
<path d="M14.8841 8.74219L14.0941 8.08219C13.8241 7.83219 13.7041 7.54219 13.9741 7.22219C14.0213 7.16211 14.0805 7.11253 14.148 7.07661C14.2155 7.0407 14.2897 7.01923 14.3659 7.01359C14.4421 7.00794 14.5186 7.01824 14.5906 7.04383C14.6626 7.06941 14.7285 7.10972 14.7841 7.16219C15.2541 7.52219 15.7241 7.89219 16.1641 8.29219C16.2384 8.34486 16.299 8.41456 16.3408 8.49547C16.3826 8.57637 16.4044 8.66612 16.4044 8.75719C16.4044 8.84826 16.3826 8.93801 16.3408 9.01891C16.299 9.09981 16.2384 9.16952 16.1641 9.22219C15.7341 9.60219 15.2941 9.95219 14.8541 10.3122C14.7989 10.3739 14.7305 10.4225 14.6539 10.4541C14.5774 10.4857 14.4947 10.4996 14.412 10.4948C14.3293 10.49 14.2488 10.4666 14.1764 10.4263C14.1041 10.386 14.0417 10.3299 13.9941 10.2622C13.9435 10.2055 13.9054 10.1388 13.8823 10.0664C13.8592 9.99402 13.8517 9.91757 13.8602 9.84206C13.8687 9.76655 13.893 9.69369 13.9316 9.62823C13.9702 9.56277 14.0221 9.50619 14.0841 9.46219C14.2941 9.24219 14.5541 9.03219 14.8841 8.74219Z" fill="#EF4C23"/>
<path d="M13.9941 13.6922C13.5141 13.6922 12.9941 13.6922 12.5541 13.6922C12.1141 13.6922 11.8341 13.5322 11.8641 13.0622C11.8941 12.5922 12.1741 12.5122 12.5341 12.5022H15.5341C15.9141 12.5022 16.1841 12.7022 16.1941 13.0822C16.1957 13.1653 16.18 13.2478 16.148 13.3246C16.116 13.4013 16.0684 13.4705 16.0082 13.5279C15.948 13.5852 15.8766 13.6294 15.7984 13.6577C15.7203 13.686 15.6371 13.6978 15.5541 13.6922C15.0441 13.6922 14.5541 13.6922 14.0341 13.6922H13.9941Z" fill="#EF4C23"/>
<path d="M23.3241 7.24217H25.1141C25.1896 7.23666 25.2655 7.24681 25.3369 7.27198C25.4083 7.29714 25.4738 7.33678 25.5292 7.38841C25.5845 7.44004 25.6287 7.50255 25.6588 7.57203C25.6889 7.64151 25.7043 7.71645 25.7041 7.79217C25.7104 7.86816 25.6998 7.94459 25.6732 8.01606C25.6467 8.08752 25.6047 8.15225 25.5503 8.20569C25.4959 8.25912 25.4304 8.29994 25.3585 8.32526C25.2866 8.35057 25.21 8.35976 25.1341 8.35217C23.9141 8.35217 22.6841 8.35217 21.4641 8.35217C21.3884 8.35738 21.3124 8.34561 21.2417 8.31771C21.1711 8.2898 21.1076 8.24648 21.0559 8.1909C21.0041 8.13532 20.9654 8.06888 20.9426 7.99643C20.9199 7.92399 20.9135 7.84737 20.9241 7.77217C20.9265 7.69724 20.9442 7.62358 20.9762 7.55574C21.0081 7.4879 21.0535 7.42729 21.1097 7.37766C21.1659 7.32802 21.2317 7.2904 21.3029 7.2671C21.3742 7.2438 21.4495 7.23532 21.5241 7.24217H23.3241Z" fill="#EF4C23"/>
<path d="M24.0541 12.4922H25.0541C25.1375 12.4839 25.2216 12.4929 25.3013 12.5186C25.3811 12.5442 25.4547 12.586 25.5175 12.6414C25.5804 12.6967 25.6312 12.7645 25.6667 12.8403C25.7023 12.9161 25.7218 12.9985 25.7241 13.0822C25.7241 13.4722 25.4141 13.6722 25.0541 13.6822C24.3646 13.7172 23.6737 13.7172 22.9841 13.6822C22.9007 13.6885 22.8168 13.6764 22.7386 13.6467C22.6603 13.617 22.5895 13.5705 22.5313 13.5103C22.4731 13.4502 22.4288 13.378 22.4016 13.2988C22.3745 13.2196 22.3651 13.1354 22.3741 13.0522C22.3741 12.6722 22.6941 12.5022 23.0741 12.5022L24.0541 12.4922Z" fill="#EF4C23"/>
<path d="M10.3241 16.1622C9.96411 16.1622 9.60411 16.1622 9.25411 16.1622C9.18506 16.165 9.11619 16.1535 9.05182 16.1283C8.98745 16.1032 8.929 16.065 8.88014 16.0161C8.83128 15.9673 8.79308 15.9088 8.76794 15.8445C8.74281 15.7801 8.73128 15.7112 8.7341 15.6422C8.72262 15.567 8.72745 15.4903 8.74826 15.4171C8.76907 15.344 8.80536 15.2762 8.85469 15.2183C8.90402 15.1605 8.96522 15.1139 9.03413 15.0818C9.10305 15.0496 9.17807 15.0327 9.25411 15.0322C10.0041 15.0322 10.7541 15.0322 11.5041 15.0322C11.5802 15.0291 11.656 15.0422 11.7267 15.0706C11.7973 15.0989 11.8612 15.1419 11.9141 15.1967C11.967 15.2514 12.0077 15.3168 12.0335 15.3884C12.0594 15.46 12.0698 15.5362 12.0641 15.6122C12.0685 15.6882 12.0567 15.7642 12.0296 15.8353C12.0025 15.9065 11.9607 15.9711 11.9068 16.0249C11.853 16.0787 11.7884 16.1205 11.7173 16.1477C11.6462 16.1748 11.5701 16.1865 11.4941 16.1822C11.1141 16.1822 10.7141 16.1822 10.3241 16.1822V16.1622Z" fill="#EF4C23"/>
<path d="M10.0041 13.6922C9.79439 13.7072 9.58385 13.7072 9.37411 13.6922C9.02411 13.6922 8.72412 13.5022 8.72412 13.0922C8.72412 12.6822 9.00412 12.5122 9.38412 12.5022H10.6141C11.0141 12.5022 11.3741 12.6222 11.3941 13.0522C11.4141 13.4822 11.0341 13.6922 10.6041 13.7022C10.3941 13.7022 10.1841 13.7022 9.97412 13.7022L10.0041 13.6922Z" fill="#EF4C23"/>
<path d="M24.4541 9.59214H24.8141C25.2741 9.59214 25.7141 9.66214 25.7041 10.2021C25.6941 10.7421 25.2841 10.7821 24.8541 10.7721H23.7841C23.4141 10.7721 23.1141 10.5721 23.1141 10.2021C23.1141 9.83214 23.4041 9.57214 23.8341 9.59214H24.4541Z" fill="#EF4C23"/>
<path d="M19.0141 7.22217C19.5341 7.35217 20.3841 6.94217 20.4041 7.78217C20.4241 8.62217 19.5841 8.37217 19.0841 8.35217C18.5841 8.33217 17.6741 8.72217 17.6541 7.82217C17.6341 6.92217 18.5541 7.41217 19.0141 7.22217Z" fill="#EF4C23"/>
</svg>
