<svg width="38" height="38" viewBox="0 0 38 38" fill="none" xmlns="http://www.w3.org/2000/svg">
<path d="M0 14.841C0.31 14.731 0.339993 14.391 0.539993 14.181C0.814457 13.8569 1.17579 13.6179 1.58147 13.4921C1.98715 13.3663 2.42029 13.359 2.82999 13.471C3.24916 13.5614 3.63153 13.7756 3.92752 14.0858C4.22351 14.3961 4.41947 14.7881 4.48999 15.211C4.62275 15.6355 4.61026 16.092 4.45451 16.5086C4.29877 16.9251 4.00864 17.2778 3.62999 17.511C3.41347 17.6312 3.24067 17.817 3.13644 18.0416C3.03222 18.2662 3.00194 18.5181 3.04999 18.761C3.16628 21.2572 3.87223 23.6903 5.11 25.861C5.1757 26.0077 5.28734 26.129 5.42805 26.2065C5.56877 26.2841 5.73093 26.3138 5.89 26.291C6.25145 26.2462 6.61837 26.2914 6.95815 26.4226C7.29792 26.5538 7.59999 26.7669 7.83751 27.043C8.07503 27.3191 8.24062 27.6497 8.31956 28.0052C8.39851 28.3608 8.38835 28.7304 8.28999 29.081C8.25535 29.2695 8.27558 29.4639 8.34827 29.6412C8.42095 29.8185 8.54304 29.9712 8.7 30.081C10.6528 31.6867 12.9541 32.8134 15.42 33.371C15.6187 33.4392 15.8339 33.4431 16.0349 33.382C16.236 33.321 16.4127 33.1982 16.54 33.031C17.04 32.471 17.6 31.971 18.12 31.421C18.1935 31.3138 18.292 31.2261 18.407 31.1655C18.522 31.1048 18.65 31.0732 18.78 31.0732C18.91 31.0732 19.038 31.1048 19.153 31.1655C19.268 31.2261 19.3665 31.3138 19.44 31.421C19.97 31.951 20.52 32.421 21.03 33.021C21.1554 33.1879 21.3298 33.3114 21.5288 33.3742C21.7279 33.4369 21.9416 33.4358 22.14 33.371C24.6366 32.8075 26.9637 31.6593 28.93 30.021C29.0925 29.9184 29.2149 29.7632 29.2768 29.5812C29.3387 29.3992 29.3363 29.2015 29.27 29.021C29.1764 28.6787 29.1662 28.3189 29.2403 27.9718C29.3144 27.6248 29.4706 27.3005 29.6959 27.0263C29.9212 26.752 30.2089 26.5358 30.535 26.3957C30.8611 26.2556 31.216 26.1957 31.57 26.221C31.7758 26.2584 31.9882 26.223 32.1707 26.1208C32.3531 26.0186 32.4943 25.856 32.57 25.661C33.785 23.4735 34.4701 21.0314 34.57 18.531C34.5957 18.3335 34.5619 18.1328 34.4728 17.9546C34.3837 17.7765 34.2435 17.629 34.07 17.531C33.644 17.2692 33.3205 16.8695 33.1531 16.3983C32.9857 15.9272 32.9846 15.4129 33.15 14.941C33.3099 14.4887 33.6067 14.0974 33.9991 13.8214C34.3916 13.5455 34.8602 13.3985 35.34 13.401C35.824 13.4132 36.2919 13.5771 36.6777 13.8695C37.0635 14.162 37.3476 14.5683 37.49 15.031C37.6405 15.4925 37.6327 15.9909 37.4678 16.4473C37.303 16.9038 36.9905 17.2922 36.58 17.551C36.4174 17.6472 36.2835 17.785 36.1921 17.9503C36.1007 18.1156 36.0551 18.3022 36.06 18.491C35.9759 21.4159 35.1427 24.2703 33.64 26.781C33.5502 26.9135 33.4965 27.0672 33.4842 27.2268C33.4719 27.3863 33.5015 27.5464 33.57 27.691C33.735 28.0722 33.7908 28.4918 33.7311 28.9028C33.6714 29.3139 33.4986 29.7003 33.2319 30.0188C32.9653 30.3373 32.6154 30.5753 32.2212 30.7064C31.8271 30.8375 31.4043 30.8564 31 30.761C30.8432 30.731 30.6815 30.7389 30.5284 30.7842C30.3753 30.8294 30.2353 30.9106 30.12 31.021C27.8331 33.038 25.0396 34.3933 22.04 34.941C21.25 35.081 20.89 35.761 20.38 36.251C19.9653 36.5635 19.624 36.9628 19.38 37.421H18.29C17.7049 36.6758 17.0594 35.9801 16.36 35.341C16.1275 35.1044 15.8199 34.9559 15.49 34.921C12.5571 34.3782 9.82468 33.0552 7.57999 31.091C7.44931 30.9641 7.29103 30.8692 7.11754 30.8137C6.94405 30.7582 6.76006 30.7436 6.57999 30.771C6.17998 30.8527 5.76526 30.8235 5.38065 30.6866C4.99603 30.5497 4.65615 30.3102 4.39774 29.9942C4.13932 29.6781 3.97221 29.2974 3.91444 28.8933C3.85668 28.4891 3.91047 28.0769 4.06999 27.701C4.14094 27.5742 4.17819 27.4314 4.17819 27.286C4.17819 27.1407 4.14094 26.9979 4.06999 26.871C2.52159 24.2849 1.66414 21.3441 1.57999 18.331C1.57999 18.101 1.57999 17.841 1.32999 17.721C0.729987 17.491 0.499991 16.891 0.0999908 16.471L0 14.841ZM20.06 34.291C19.7032 33.8175 19.2747 33.4025 18.79 33.061C18.3026 33.3988 17.8707 33.8104 17.51 34.281C17.8481 34.8042 18.2992 35.245 18.83 35.571C19.3012 35.2077 19.7157 34.7763 20.06 34.291ZM36.06 15.741C36.0666 15.547 36.0005 15.3575 35.8748 15.2095C35.749 15.0616 35.5726 14.9658 35.38 14.941C35.2769 14.9172 35.1697 14.9167 35.0663 14.9396C34.963 14.9625 34.8661 15.0082 34.7827 15.0734C34.6993 15.1386 34.6315 15.2216 34.5843 15.3163C34.5371 15.4111 34.5117 15.5152 34.51 15.621C34.4929 15.7176 34.4964 15.8167 34.5201 15.9119C34.5437 16.007 34.5872 16.0962 34.6475 16.1735C34.7078 16.2508 34.7838 16.3146 34.8703 16.3607C34.9569 16.4067 35.0522 16.4341 35.15 16.441C35.68 16.521 35.94 16.211 36.09 15.741H36.06ZM2.23999 16.471C2.44155 16.471 2.63486 16.391 2.77739 16.2484C2.91992 16.1059 3 15.9126 3 15.711C3.00938 15.6054 2.9953 15.499 2.95877 15.3994C2.92224 15.2998 2.86416 15.2095 2.78868 15.135C2.7132 15.0605 2.62219 15.0036 2.52216 14.9683C2.42212 14.933 2.31552 14.9203 2.20999 14.931C2.11124 14.9269 2.01268 14.9431 1.92047 14.9787C1.82826 15.0143 1.74437 15.0685 1.67401 15.1379C1.60365 15.2073 1.54834 15.2905 1.51152 15.3822C1.4747 15.4739 1.45716 15.5722 1.45999 15.671C1.45717 15.7777 1.47627 15.8838 1.51611 15.9828C1.55595 16.0818 1.6157 16.1716 1.69162 16.2466C1.76754 16.3216 1.85805 16.3802 1.95753 16.4188C2.05702 16.4574 2.16336 16.4752 2.26999 16.471H2.23999ZM6.84 28.591C6.84 28.151 6.60999 27.851 6.12999 27.811C6.03326 27.79 5.93304 27.7911 5.83676 27.8141C5.74048 27.837 5.6506 27.8814 5.57378 27.9438C5.49695 28.0062 5.43516 28.0851 5.39296 28.1746C5.35076 28.2642 5.32923 28.3621 5.32999 28.461C5.3085 28.5656 5.31124 28.6737 5.33797 28.7771C5.36469 28.8805 5.41471 28.9764 5.48419 29.0574C5.55368 29.1385 5.64079 29.2026 5.73886 29.2448C5.83693 29.2871 5.94335 29.3063 6.04999 29.301C6.55999 29.311 6.77 29.021 6.87 28.591H6.84ZM31.48 29.311C31.5763 29.3085 31.6711 29.2867 31.7589 29.2468C31.8466 29.207 31.9254 29.1499 31.9907 29.0791C32.056 29.0082 32.1064 28.925 32.1389 28.8343C32.1714 28.7436 32.1854 28.6472 32.18 28.551C32.1915 28.4448 32.1778 28.3373 32.1401 28.2374C32.1023 28.1374 32.0415 28.0478 31.9626 27.9757C31.8837 27.9036 31.7889 27.8511 31.686 27.8225C31.583 27.7939 31.4748 27.79 31.37 27.811C31.2708 27.8085 31.1722 27.8277 31.0812 27.8673C30.9902 27.9069 30.909 27.9659 30.8432 28.0403C30.7775 28.1146 30.7288 28.2024 30.7006 28.2976C30.6724 28.3927 30.6654 28.4929 30.68 28.591C30.6804 28.6951 30.7031 28.7979 30.7465 28.8924C30.7899 28.987 30.853 29.0712 30.9316 29.1394C31.0102 29.2075 31.1025 29.2581 31.2023 29.2877C31.302 29.3174 31.4069 29.3253 31.51 29.311H31.48Z" fill="#EF4C23"/>
<path d="M18.69 26.7611H15.08C14.8011 26.7857 14.5202 26.7488 14.2572 26.6528C13.9941 26.5569 13.7554 26.4043 13.5579 26.2058C13.3604 26.0073 13.209 25.7679 13.1143 25.5044C13.0196 25.2409 12.984 24.9598 13.01 24.6811C13.01 22.8811 13.09 21.0611 12.92 19.2711C12.72 17.0911 11.62 15.1911 10.69 13.2711C9.86773 11.7186 9.52389 9.95727 9.70187 8.20952C9.87985 6.46177 10.5717 4.80593 11.69 3.45106C13.0891 1.69556 15.0841 0.514935 17.2962 0.13334C19.5084 -0.248255 21.7836 0.195753 23.69 1.38106C25.5781 2.58571 26.9556 4.44432 27.5589 6.60117C28.1622 8.75802 27.949 11.0616 26.96 13.0711C25.8573 14.9766 25.0768 17.0512 24.65 19.2111C24.5201 20.9512 24.49 22.6974 24.56 24.4411C24.56 26.1211 23.87 26.8011 22.21 26.8011L18.69 26.7611ZM18.77 25.2511C19.94 25.2511 21.12 25.2511 22.29 25.2511C22.84 25.2511 23.05 25.0411 23.03 24.5011C23.03 23.6911 23.03 22.8711 23.03 22.0611C23.03 21.5311 22.92 21.2811 22.34 21.3411C22.2284 21.3711 22.111 21.3727 21.9987 21.3455C21.8863 21.3184 21.7826 21.2635 21.697 21.1859C21.6114 21.1083 21.5467 21.0104 21.5087 20.9012C21.4708 20.792 21.4609 20.6751 21.48 20.5611C21.475 20.4534 21.4961 20.3461 21.5415 20.2484C21.5868 20.1506 21.6551 20.0652 21.7405 19.9995C21.8259 19.9337 21.9259 19.8895 22.032 19.8706C22.1381 19.8518 22.2472 19.8588 22.35 19.8911C22.97 19.9711 23.14 19.6911 23.12 19.1311C23.1298 18.8607 23.1701 18.5924 23.24 18.3311C23.7776 16.2104 24.5842 14.1672 25.64 12.2511C26.3453 10.7591 26.5423 9.07722 26.201 7.46268C25.8597 5.84813 24.9988 4.38988 23.75 3.31106C22.5036 2.23085 20.9393 1.58602 19.2938 1.47416C17.6483 1.36229 16.0111 1.78947 14.63 2.69106C12.9935 3.76953 11.8319 5.43358 11.3837 7.34158C10.9355 9.24958 11.2348 11.2568 12.22 12.9511C13.4442 14.9181 14.2066 17.137 14.45 19.4411C14.45 19.8911 14.72 19.9111 15.05 19.8911C15.57 19.8911 16.05 19.8911 16.05 20.6011C16.05 21.3111 15.62 21.4111 15.05 21.3611C14.48 21.3111 14.43 21.5311 14.45 21.9811C14.45 22.8211 14.45 23.6711 14.45 24.5111C14.45 25.0511 14.66 25.2611 15.2 25.2511C16.42 25.2111 17.6 25.2111 18.77 25.2111V25.2511Z" fill="#EF4C23"/>
<path d="M1.83002 6.78107C1.86735 5.57652 2.17634 4.39596 2.73392 3.32757C3.29149 2.25918 4.08323 1.33056 5.05002 0.611074C5.50002 0.271074 5.97003 0.0710737 6.36003 0.611074C6.75003 1.15107 6.36003 1.48107 5.98003 1.81107C4.69105 2.75009 3.80399 4.14103 3.49623 5.7058C3.18847 7.27057 3.48267 8.89385 4.32002 10.2511C4.58002 10.7311 4.81003 11.2511 4.23003 11.5811C3.65003 11.9111 3.30002 11.4911 3.02002 11.0511C2.25267 9.75804 1.84204 8.28461 1.83002 6.78107Z" fill="#EF4C23"/>
<path d="M35.71 6.89111C35.7103 8.41894 35.2806 9.91601 34.47 11.2111C34.21 11.6211 33.89 11.9611 33.37 11.6511C32.85 11.3411 32.86 10.9111 33.17 10.4211C34.0488 9.03781 34.3644 7.37045 34.052 5.76166C33.7395 4.15288 32.8227 2.72487 31.49 1.77111C31.07 1.48111 30.88 1.08111 31.22 0.621105C31.56 0.161105 31.98 0.251106 32.4 0.561106C33.4131 1.27921 34.2413 2.22741 34.8167 3.3278C35.3921 4.4282 35.6983 5.6494 35.71 6.89111Z" fill="#EF4C23"/>
<path d="M32.36 7.14109C32.3624 8.04103 32.098 8.92147 31.6 9.67109C31.33 10.1111 30.95 10.3311 30.47 10.0311C29.99 9.73109 30.09 9.33109 30.28 8.91109C31.28 6.66109 31.07 5.58109 29.28 3.91109C28.92 3.57109 28.76 3.22109 29.09 2.82109C29.42 2.42109 29.8 2.47109 30.21 2.72109C30.905 3.22342 31.4651 3.88985 31.8402 4.66103C32.2153 5.43221 32.3939 6.28419 32.36 7.14109Z" fill="#EF4C23"/>
<path d="M5.20002 7.08107C5.16666 6.26905 5.32595 5.46066 5.66486 4.722C6.00378 3.98334 6.5127 3.33537 7.15002 2.83107C7.59002 2.48107 8.07001 2.28107 8.49001 2.83107C8.91001 3.38107 8.49002 3.69107 8.12002 4.03107C7.40393 4.57203 6.915 5.36033 6.7486 6.24222C6.58221 7.12412 6.75028 8.03637 7.22002 8.80107C7.47002 9.28107 7.62001 9.74107 7.08001 10.0611C6.54001 10.3811 6.14002 9.99107 5.87002 9.51107C5.4238 8.77968 5.19167 7.93779 5.20002 7.08107Z" fill="#EF4C23"/>
<path d="M18.64 12.3511C18.0343 12.3645 17.448 12.1374 17.0094 11.7194C16.5708 11.3015 16.3157 10.7267 16.3 10.1211C16.2999 9.51531 16.5378 8.93373 16.9624 8.50166C17.387 8.06958 17.9643 7.82158 18.57 7.81109C19.1766 7.80034 19.7629 8.02972 20.2012 8.44927C20.6395 8.86883 20.8943 9.44457 20.91 10.0511C20.9126 10.3513 20.8559 10.6492 20.7432 10.9274C20.6304 11.2057 20.4638 11.459 20.2528 11.6727C20.0419 11.8864 19.7909 12.0563 19.5141 12.1728C19.2373 12.2892 18.9403 12.3498 18.64 12.3511ZM19.35 10.2111C19.35 9.64109 19.09 9.38109 18.65 9.36109C18.5461 9.34536 18.44 9.35355 18.3398 9.38506C18.2395 9.41657 18.1478 9.47056 18.0716 9.5429C17.9954 9.61525 17.9367 9.70404 17.9 9.80251C17.8634 9.90098 17.8497 10.0065 17.86 10.1111C17.8517 10.2092 17.8639 10.3081 17.8958 10.4013C17.9277 10.4944 17.9787 10.58 18.0455 10.6524C18.1123 10.7248 18.1934 10.7825 18.2837 10.8219C18.374 10.8613 18.4715 10.8814 18.57 10.8811C18.6659 10.8922 18.7631 10.8833 18.8555 10.855C18.9478 10.8267 19.0333 10.7797 19.1066 10.7167C19.1798 10.6538 19.2393 10.5764 19.2812 10.4894C19.3231 10.4024 19.3465 10.3076 19.35 10.2111Z" fill="#EF4C23"/>
<path d="M21.85 10.3611C21.75 9.73108 22.19 8.88108 21.25 8.36108C21.02 8.24108 21.05 7.68108 21.25 7.63108C22.16 7.36108 21.57 5.94108 22.65 5.86108C22.89 5.86108 23.27 6.02108 23.23 6.17108C23.03 7.09108 24.65 7.61108 24 8.24108C23 9.24108 23.53 10.3411 23.39 11.3811C23.31 11.9311 23.39 12.5411 22.61 12.5111C21.83 12.4811 21.88 11.9211 21.9 11.3811C21.86 11.0911 21.85 10.7611 21.85 10.3611Z" fill="#EF4C23"/>
<path d="M15.38 9.3111C15.38 10.1211 15.38 10.9311 15.38 11.7411C15.38 12.2511 15.14 12.5611 14.64 12.5611C14.5335 12.565 14.4273 12.5456 14.3291 12.5041C14.2309 12.4626 14.1429 12.4001 14.0714 12.321C13.9999 12.2419 13.9466 12.1481 13.9153 12.0462C13.884 11.9443 13.8753 11.8367 13.89 11.7311C13.89 10.0711 13.89 8.4211 13.89 6.7311C13.89 6.1811 14.17 5.8411 14.7 5.8711C15.23 5.9011 15.39 6.2511 15.38 6.7411C15.37 7.6211 15.38 8.4711 15.38 9.3111Z" fill="#EF4C23"/>
<path d="M19.51 20.6311C19.5145 20.7286 19.4983 20.8259 19.4624 20.9166C19.4265 21.0074 19.3718 21.0895 19.3019 21.1575C19.232 21.2255 19.1484 21.278 19.0567 21.3113C18.965 21.3447 18.8673 21.3583 18.77 21.3511C18.6717 21.359 18.5728 21.3452 18.4805 21.3105C18.3882 21.2758 18.3047 21.2212 18.2359 21.1505C18.1671 21.0798 18.1148 20.9948 18.0826 20.9016C18.0505 20.8083 18.0394 20.7091 18.05 20.6111C18.0418 20.5132 18.0555 20.4146 18.0903 20.3227C18.125 20.2308 18.1798 20.1477 18.2507 20.0797C18.3217 20.0117 18.4069 19.9603 18.5002 19.9294C18.5935 19.8985 18.6925 19.8888 18.79 19.9011C19.27 19.9011 19.48 20.2111 19.51 20.6311Z" fill="#EF4C23"/>
</svg>
