<svg width="38" height="38" viewBox="0 0 38 38" fill="none" xmlns="http://www.w3.org/2000/svg">
<path d="M0.0467646 37.4084C-0.253235 35.9984 0.956768 35.7084 1.77677 35.2484C2.33677 34.9384 2.36677 34.7284 2.16677 34.2484C1.49677 32.4584 0.86677 30.6484 0.21677 28.8384C-0.11323 27.9084 -0.0232348 27.5784 0.906765 27.3884C1.83677 27.1984 2.07677 26.7184 2.20677 25.8884C2.44677 24.2284 2.82677 22.5784 3.07677 20.8884C3.07303 20.7364 3.10403 20.5854 3.16742 20.4472C3.2308 20.3089 3.3249 20.1869 3.44254 20.0905C3.56018 19.994 3.69827 19.9257 3.8463 19.8907C3.99433 19.8557 4.14839 19.8549 4.29676 19.8884H4.38677C4.95677 19.8884 5.64677 20.0684 6.06677 19.8084C6.48677 19.5484 6.19677 18.8084 6.25677 18.2184C6.25351 18.1055 6.27419 17.9932 6.31744 17.8889C6.36069 17.7846 6.42554 17.6906 6.50773 17.6132C6.58991 17.5357 6.68756 17.4765 6.79425 17.4395C6.90095 17.4025 7.01427 17.3885 7.12677 17.3984H8.02677C10.0268 17.3984 10.0268 17.3984 10.0868 19.3984C10.0868 19.8584 10.2768 19.9584 10.6768 19.9284C11.0768 19.8984 11.3368 19.9284 11.6768 19.9284C13.1168 19.9284 13.1268 19.9284 13.3868 21.3884C13.6468 22.8484 13.9868 24.5084 14.2068 26.0884C14.218 26.3821 14.3293 26.6631 14.522 26.885C14.7148 27.1069 14.9775 27.2562 15.2668 27.3084C16.4468 27.6384 16.5068 27.8184 16.0968 28.9684C15.4568 30.7484 14.8168 32.5184 14.1668 34.2984C14.0168 34.7084 13.8768 35.0484 14.5268 35.1884C15.1768 35.3284 15.5268 35.9784 16.1668 36.2484C16.5468 36.4084 16.2868 37.0184 16.3068 37.4184H15.4068C13.7068 36.1684 13.7068 36.1684 11.9968 37.2584C11.9226 37.3061 11.8524 37.3596 11.7868 37.4184H9.95677C8.22677 36.1684 8.22677 36.1684 6.46677 37.2984C6.42192 37.3333 6.3816 37.3736 6.34677 37.4184H4.55677C2.76677 36.1684 2.76677 36.1684 0.986767 37.3484C0.986767 37.3484 0.986767 37.3984 0.986767 37.4184L0.0467646 37.4084ZM8.85677 30.8584C8.85677 31.8584 8.85677 32.7884 8.85677 33.7484C8.78787 34.1184 8.83667 34.5007 8.99631 34.8415C9.15595 35.1823 9.41841 35.4645 9.74677 35.6484C10.9868 36.4284 12.0768 36.2684 12.5868 34.9184C13.3168 32.9784 13.9768 31.0184 14.6868 29.0784C14.8268 28.6984 14.7968 28.5284 14.3468 28.3884C12.6868 27.8751 11.0401 27.3251 9.40676 26.7384C8.88677 26.5584 8.85677 26.7384 8.86677 27.1584C8.86677 28.3384 8.85677 29.5784 8.85677 30.8584ZM7.50677 30.8584V27.0684C7.50677 26.7984 7.56677 26.4784 7.09677 26.6384C5.36343 27.2318 3.6301 27.8118 1.89677 28.3784C1.60677 28.4784 1.52677 28.5884 1.63677 28.8984C2.38677 30.8984 2.99677 33.0684 3.89677 35.0484C4.33677 36.0484 5.28677 36.5484 6.16677 35.9684C6.65129 35.7514 7.04933 35.3785 7.29757 34.9092C7.54582 34.4399 7.63001 33.9011 7.53677 33.3784C7.45162 32.541 7.44159 31.6976 7.50677 30.8584ZM12.9568 26.5084C12.6468 24.7484 12.3768 23.1984 12.1168 21.6384C12.0568 21.2984 11.8368 21.2284 11.5368 21.2284C9.30677 21.2284 7.08677 21.2284 4.86677 21.2284C4.44677 21.2284 4.28677 21.3984 4.21677 21.7884C3.98677 23.1384 3.74677 24.4984 3.48677 25.8484C3.39677 26.3384 3.48677 26.5184 4.02677 26.3284C5.11677 25.9284 6.23677 25.5884 7.33677 25.1884C7.86415 24.9831 8.44938 24.9831 8.97676 25.1884C10.2368 25.6184 11.5168 26.0284 12.9568 26.5084ZM8.75677 19.3784C8.83677 18.9184 8.68677 18.7284 8.18677 18.7584C7.68677 18.7884 7.54677 18.7584 7.58677 19.2584C7.62677 19.7584 7.58677 19.9784 8.12677 19.9284C8.50677 19.8584 8.86677 19.9384 8.75677 19.3784Z" fill="#EF4C23"/>
<path d="M22.2568 37.4084C21.6513 37.0788 21.1675 36.5635 20.8768 35.9384C20.7568 35.5684 20.4968 35.6384 20.2368 35.6284C19.6368 35.6284 19.0368 35.6284 18.4368 35.6284C17.8368 35.6284 17.5568 35.3884 17.5568 34.7684C17.5568 31.1551 17.5568 27.5451 17.5568 23.9384C17.5568 23.3184 17.8268 23.0784 18.4168 23.0784H30.5068C31.2868 23.0784 31.3568 23.5484 31.3668 24.1384C31.3668 25.5384 31.4268 25.6884 32.7968 25.5084C34.7968 25.2484 36.0968 25.9084 36.6968 27.8984C36.8845 28.5319 37.1936 29.1228 37.6068 29.6384V35.4184C36.9612 35.6232 36.2801 35.6913 35.6068 35.6184C35.3468 35.6184 35.0468 35.5684 34.9368 35.9084C34.7268 36.5984 34.1068 36.9084 33.6368 37.3984H31.6368C31.0968 36.9884 30.4868 36.6284 30.2668 35.9384C30.1468 35.5784 29.8968 35.6184 29.6268 35.6184H26.2168C25.9468 35.6184 25.6368 35.5584 25.5368 35.8984C25.3168 36.5884 24.7068 36.8984 24.2268 37.3984L22.2568 37.4084ZM24.4568 24.4084C22.8068 24.4084 21.1468 24.4084 19.4568 24.4084C18.8868 24.4084 18.7668 24.5684 18.7768 25.1184C18.7768 27.9184 18.7768 30.7084 18.7768 33.5084C18.7768 33.7884 18.4468 34.3884 19.0568 34.3484C19.6668 34.3084 20.4268 34.8284 20.8768 33.9484C21.0665 33.5178 21.3795 33.1531 21.7765 32.9003C22.1734 32.6476 22.6363 32.5182 23.1068 32.5284C23.5832 32.4851 24.0615 32.5895 24.4766 32.8275C24.8916 33.0654 25.2234 33.4254 25.4268 33.8584C25.4852 34.0227 25.599 34.1614 25.7487 34.2509C25.8983 34.3403 26.0744 34.3748 26.2468 34.3484C27.2468 34.3484 28.3568 34.3484 29.4068 34.3484C29.9168 34.3484 30.0568 34.2084 30.0468 33.6984C30.0468 30.8084 30.0468 27.9184 30.0468 25.0384C30.0468 24.4284 29.8368 24.3584 29.3168 24.3684C27.7068 24.4084 26.0868 24.3884 24.4568 24.3884V24.4084ZM31.3568 32.7184C32.9668 32.2884 34.2168 32.5384 34.9468 34.1284C35.1668 34.6184 35.7068 34.3484 36.0868 34.3484C36.4668 34.3484 36.3268 33.9384 36.3368 33.7184C36.3368 32.8784 36.3368 32.0384 36.3368 31.1984C36.3368 30.7784 36.2268 30.6084 35.7868 30.6284C35.3468 30.6484 34.6468 30.6284 34.0768 30.6284C32.5568 30.6284 32.5568 30.6284 32.5568 29.1484C32.5568 28.5484 32.5568 27.9484 32.5568 27.3484C32.5568 26.9684 32.4068 26.8584 32.0868 26.9184C31.7668 26.9784 31.3568 26.7284 31.3568 27.2884C31.3568 29.0684 31.3568 30.8584 31.3568 32.6984V32.7184ZM24.4168 35.0484C24.4276 34.7318 24.3128 34.4237 24.0973 34.1914C23.8819 33.9591 23.5833 33.8214 23.2668 33.8084C23.1004 33.79 22.932 33.8071 22.7728 33.8587C22.6135 33.9103 22.4671 33.9952 22.3432 34.1078C22.2193 34.2203 22.1208 34.358 22.0542 34.5115C21.9875 34.6651 21.9543 34.8311 21.9568 34.9984C21.9541 35.1559 21.983 35.3123 22.0417 35.4585C22.1004 35.6046 22.1878 35.7375 22.2987 35.8494C22.4096 35.9612 22.5418 36.0497 22.6874 36.1096C22.8331 36.1696 22.9893 36.1998 23.1468 36.1984C23.308 36.2093 23.4697 36.1872 23.6221 36.1336C23.7745 36.0799 23.9144 35.9958 24.0332 35.8863C24.152 35.7769 24.2473 35.6443 24.3132 35.4969C24.3792 35.3494 24.4144 35.19 24.4168 35.0284V35.0484ZM32.5868 36.2184C32.7451 36.2238 32.9028 36.1972 33.0506 36.1404C33.1984 36.0835 33.3333 35.9974 33.4471 35.8873C33.561 35.7772 33.6515 35.6453 33.7133 35.4994C33.7751 35.3536 33.8069 35.1968 33.8068 35.0384C33.8123 34.8741 33.7841 34.7104 33.7237 34.5574C33.6634 34.4044 33.5723 34.2655 33.456 34.1492C33.3397 34.0329 33.2008 33.9418 33.0478 33.8815C32.8948 33.8211 32.7311 33.7929 32.5668 33.7984C32.4079 33.7997 32.2509 33.8327 32.105 33.8956C31.9592 33.9585 31.8273 34.0499 31.7174 34.1646C31.6074 34.2792 31.5215 34.4147 31.4647 34.5631C31.4079 34.7114 31.3814 34.8697 31.3868 35.0284C31.3881 35.1842 31.4202 35.3383 31.4813 35.4816C31.5425 35.6249 31.6314 35.7547 31.743 35.8635C31.8545 35.9723 31.9865 36.0579 32.1314 36.1153C32.2762 36.1728 32.431 36.2011 32.5868 36.1984V36.2184ZM35.8568 29.2184C35.5168 28.5084 35.1868 27.8784 34.8568 27.2184C34.6868 26.8684 34.4168 26.8584 34.1068 26.8884C33.7968 26.9184 33.8068 27.2684 33.8168 27.4984C33.8868 29.6184 33.3168 29.2884 35.6368 29.2684C35.7113 29.2627 35.785 29.2493 35.8568 29.2284V29.2184Z" fill="#EF4C23"/>
<path d="M16.5968 13.7484C15.1978 13.7172 13.8226 13.3796 12.5683 12.7593C11.3139 12.139 10.2108 11.2512 9.33676 10.1584C8.53676 9.25841 7.65677 8.43841 6.78677 7.60841C6.60815 7.44841 6.46779 7.2503 6.37605 7.02874C6.28431 6.80718 6.24354 6.56784 6.25677 6.32841C6.25677 4.55841 6.25677 2.77841 6.25677 1.00841C6.25677 0.308408 6.43677 -0.0615915 7.25677 0.00840848C8.12573 0.0684244 8.9978 0.0684244 9.86677 0.00840848C10.4368 0.00840848 10.6668 0.198405 10.8068 0.708405C11.2368 2.23841 11.7468 3.70841 12.1468 5.27841C12.1562 5.42281 12.1968 5.56345 12.2659 5.69061C12.3349 5.81778 12.4308 5.92844 12.5468 6.01496C12.6627 6.10148 12.7961 6.1618 12.9377 6.19174C13.0793 6.22169 13.2257 6.22055 13.3668 6.18841C14.6868 6.10841 16.0068 6.18841 17.3668 6.18841C17.0268 4.83841 16.7068 3.55841 16.3668 2.27841C16.1768 1.46841 16.3668 1.27841 17.2568 1.13841C17.8384 0.991788 18.4538 1.06734 18.9827 1.35027C19.5116 1.63321 19.9159 2.10321 20.1168 2.6684C20.5768 3.6684 21.3068 4.53841 21.8468 5.50841C21.9632 5.74336 22.1501 5.93611 22.3814 6.0598C22.6126 6.18349 22.8767 6.23194 23.1368 6.1984C24.9076 6.11176 26.6823 6.15521 28.4468 6.32841C29.9998 6.57235 31.4335 7.30847 32.5368 8.42841C33.0968 8.96841 33.6268 9.54841 34.2068 10.0784C34.5971 10.343 34.8813 10.7369 35.0094 11.1906C35.1375 11.6444 35.1011 12.1288 34.9068 12.5584C34.7202 12.973 34.4034 13.3155 34.0046 13.5339C33.6058 13.7522 33.1466 13.8346 32.6968 13.7684C29.2068 13.7684 25.6968 13.7684 22.2268 13.7684C21.9515 13.7475 21.676 13.8061 21.4331 13.9373C21.1902 14.0685 20.9902 14.2667 20.8568 14.5084C20.0468 15.7384 19.1568 16.9084 18.3468 18.1384C18.288 18.2671 18.2037 18.3826 18.0992 18.4779C17.9946 18.5732 17.8719 18.6464 17.7383 18.6931C17.6048 18.7398 17.4631 18.7591 17.322 18.7497C17.1808 18.7403 17.043 18.7024 16.9168 18.6384C14.6368 17.8084 14.6768 18.0784 15.6868 15.8484C16.0068 15.1584 16.2768 14.4984 16.5968 13.7484ZM30.8368 8.68841C29.6449 7.83282 28.203 7.39671 26.7368 7.4484H9.31677C9.10677 7.4484 8.84676 7.30841 8.69676 7.54841C9.69676 8.54841 10.6968 9.66841 11.6968 10.6384C13.0482 11.8168 14.7838 12.4605 16.5768 12.4484C16.9868 12.4484 17.2568 12.3784 17.3768 11.9384C17.5468 11.3084 17.9968 11.1384 18.6168 11.1684C19.5468 11.2184 20.4868 11.1684 21.4168 11.1684C22.3468 11.1684 22.6168 11.3384 22.4168 12.4284H32.9568C33.1337 12.4195 33.3071 12.3753 33.4668 12.2984C33.6082 12.2405 33.7216 12.1299 33.7832 11.99C33.8448 11.8501 33.8496 11.6918 33.7968 11.5484C33.5575 11.1476 33.2405 10.7986 32.8644 10.5221C32.4883 10.2456 32.0607 10.0472 31.6068 9.93841C30.0368 9.93841 28.4768 9.93841 26.9168 9.93841C26.4468 9.93841 26.2768 9.81841 26.2868 9.33841C26.2968 8.85841 26.3668 8.62841 26.9268 8.63841C28.1468 8.70841 29.3768 8.68841 30.8368 8.68841ZM11.0468 6.1684C10.6668 4.8784 10.3168 3.66841 9.95677 2.46841C9.59677 1.26841 9.57676 1.18841 8.19676 1.20841C7.73676 1.20841 7.57676 1.3184 7.58676 1.8084C7.58676 3.0684 7.58676 4.3384 7.58676 5.5984C7.58676 6.1084 7.77677 6.1884 8.20677 6.1684C9.11677 6.1484 10.0168 6.1684 11.0468 6.1684ZM20.6868 12.4784C20.3237 12.4996 19.9598 12.4996 19.5968 12.4784C19.4475 12.4402 19.292 12.4328 19.1398 12.4569C18.9876 12.4809 18.8419 12.5359 18.7118 12.6183C18.5816 12.7007 18.4696 12.8089 18.3828 12.9362C18.2959 13.0634 18.236 13.2071 18.2068 13.3584C17.8368 14.4284 17.2868 15.4384 16.8468 16.4884C16.7568 16.6884 16.4168 16.9584 16.8468 17.1684C16.91 17.2081 16.981 17.2341 17.055 17.2445C17.1289 17.2549 17.2043 17.2495 17.2761 17.2287C17.3478 17.2079 17.4144 17.1722 17.4714 17.1239C17.5284 17.0756 17.5745 17.0158 17.6068 16.9484C18.5768 15.4784 19.5968 14.0384 20.6868 12.4784ZM20.7468 6.1284L18.6168 2.70841C18.5645 2.59853 18.4724 2.51262 18.3591 2.46806C18.2459 2.42351 18.1199 2.42363 18.0068 2.46841C17.6868 2.56841 17.8868 2.81841 17.9268 2.99841C18.0168 3.45841 18.1568 3.9184 18.2668 4.3784C18.6868 6.2384 18.6868 6.2384 20.7468 6.1284Z" fill="#EF4C23"/>
<path d="M8.15674 22.4384C8.78674 22.4384 9.41674 22.4384 10.0467 22.4384C10.6767 22.4384 10.7267 22.5484 10.7067 23.0784C10.6867 23.6084 10.6167 23.7684 10.0767 23.7484C8.82675 23.7484 7.56674 23.7484 6.30674 23.7484C5.82674 23.7484 5.61674 23.6584 5.62674 23.1184C5.63674 22.5784 5.72675 22.3984 6.27675 22.4384C6.82675 22.4784 7.52674 22.4384 8.15674 22.4384Z" fill="#EF4C23"/>
<path d="M15.0568 9.34839C15.1868 9.91839 14.8768 9.96839 14.4168 9.97839C13.9568 9.98839 13.7768 9.84839 13.7568 9.33839C13.7368 8.82839 13.9768 8.67839 14.4868 8.66839C14.9968 8.65839 15.1468 8.85839 15.0568 9.34839Z" fill="#EF4C23"/>
<path d="M16.8868 8.7084C17.4468 8.5884 17.6068 8.7784 17.5968 9.2984C17.5868 9.8184 17.5368 9.9884 16.9768 9.9784C16.4168 9.9684 16.2368 9.8784 16.2768 9.2984C16.3168 8.7184 16.3768 8.5284 16.8868 8.7084Z" fill="#EF4C23"/>
<path d="M20.0668 9.3684C20.2168 9.9884 19.8168 9.9384 19.3968 9.9784C18.7868 9.9784 18.8468 9.6884 18.8068 9.2684C18.8068 8.6784 19.0668 8.69839 19.4968 8.66839C20.0868 8.63839 20.1568 8.9184 20.0668 9.3684Z" fill="#EF4C23"/>
<path d="M21.8868 9.9484C21.3068 10.0884 21.3168 9.7284 21.2968 9.2884C21.2768 8.8484 21.5068 8.6984 21.9668 8.6684C22.4268 8.6384 22.6068 8.9084 22.6268 9.3984C22.6468 9.8884 22.3168 9.9984 21.8868 9.9484Z" fill="#EF4C23"/>
<path d="M24.4368 9.94843C23.8168 10.0884 23.8268 9.72844 23.8068 9.29844C23.7868 8.86844 23.9968 8.68843 24.4668 8.66843C24.9368 8.64843 25.1168 8.90844 25.1368 9.39844C25.1568 9.88844 24.8368 10.0084 24.4368 9.94843Z" fill="#EF4C23"/>
</svg>
