<svg width="35" height="38" viewBox="0 0 35 38" fill="none" xmlns="http://www.w3.org/2000/svg">
<path d="M33.9718 20.8372C33.5518 20.8372 33.2418 21.0672 33.2118 21.5372C33.1962 21.6333 33.2011 21.7316 33.2262 21.8257C33.2513 21.9198 33.296 22.0075 33.3574 22.083C33.4188 22.1586 33.4955 22.2203 33.5824 22.2641C33.6694 22.3079 33.7646 22.3328 33.8618 22.3372C33.9663 22.3552 34.0735 22.3496 34.1755 22.3208C34.2775 22.292 34.3718 22.2407 34.4514 22.1707C34.531 22.1007 34.5939 22.0137 34.6355 21.9162C34.6771 21.8187 34.6964 21.7131 34.6918 21.6072C34.7018 21.1472 34.3818 20.9272 33.9718 20.8372Z" fill="#EF4C23"/>
<path d="M1.83183 37.3573C1.24327 37.089 0.75228 36.645 0.426371 36.0863C0.100461 35.5276 -0.0443532 34.8816 0.0118351 34.2373C0.0118351 25.3273 0.0118351 16.4273 0.0118351 7.51726C0.0118351 6.28726 0.151824 6.14726 1.42182 6.14726C1.99129 6.11224 2.56237 6.11224 3.13183 6.14726C3.89183 6.24726 4.01183 5.91726 3.99183 5.25726C3.99183 3.83726 3.99183 2.42726 3.99183 1.00726C3.99183 0.25726 4.18183 -0.0527396 4.99183 0.00726041C14.5585 0.00726041 24.1285 0.00726041 33.7018 0.00726041C34.4518 0.00726041 34.7018 0.26726 34.7018 1.00726C34.7018 6.66726 34.7018 12.3339 34.7018 18.0073C34.7018 18.5773 34.6218 19.0973 33.9518 19.1173C33.2818 19.1373 33.1918 18.5873 33.2018 18.0273C33.2018 12.8173 33.2018 7.61726 33.2018 2.41726C33.2018 1.67726 33.0418 1.41726 32.2718 1.41726C23.6452 1.41726 15.0118 1.41726 6.37184 1.41726C5.63184 1.41726 5.42182 1.57726 5.42182 2.34726C5.42182 12.9673 5.42182 23.5873 5.42182 34.2073C5.48733 34.8089 5.4014 35.4173 5.17182 35.9773H31.4218C32.8118 35.9773 33.1618 35.6273 33.1618 34.2073V25.3173C33.1618 24.7673 33.1618 24.1573 33.9418 24.1873C34.7218 24.2173 34.6618 24.7573 34.6618 25.2973C34.6618 28.2973 34.6618 31.1973 34.6618 34.1373C34.7352 34.7971 34.5989 35.4634 34.2722 36.0414C33.9455 36.6194 33.445 37.0798 32.8418 37.3573H1.83183ZM1.52183 21.3573V34.0073C1.49669 34.3067 1.49669 34.6078 1.52183 34.9073C1.55665 35.19 1.69606 35.4494 1.91261 35.6345C2.12915 35.8196 2.40713 35.9169 2.69183 35.9073C2.99584 35.9268 3.29547 35.827 3.52703 35.629C3.75859 35.4311 3.90382 35.1506 3.93183 34.8473C3.96197 34.5781 3.96197 34.3064 3.93183 34.0373V9.25726C3.93183 7.68726 3.93183 7.72726 2.33183 7.67726C1.61183 7.67726 1.43183 7.85726 1.43183 8.57726C1.54183 12.8373 1.52183 17.1073 1.52183 21.3773V21.3573Z" fill="#EF4C23"/>
<path d="M7.27186 21.6572C7.27186 19.4372 7.27186 17.2073 7.27186 14.9873C7.27186 14.1373 7.61186 13.7773 8.45186 13.7873H19.9819C20.8319 13.7873 21.1619 14.1473 21.1519 14.9873C21.1519 19.4073 21.1519 23.8306 21.1519 28.2572C21.1519 29.0972 20.8219 29.4372 19.9719 29.4272C16.1185 29.4272 12.2685 29.4272 8.42185 29.4272C7.56185 29.4272 7.25186 29.0772 7.26186 28.2472C7.29186 26.0272 7.27186 23.8372 7.27186 21.6572ZM19.6019 19.4172C19.6019 18.0872 19.6019 17.0573 19.6019 16.0173C19.6019 15.4673 19.4619 15.3172 18.9119 15.3272C16.2019 15.3272 13.5019 15.3272 10.7919 15.3272C8.79186 15.3272 8.79186 15.3272 8.79186 17.3272V20.7072L9.17185 20.4372C10.8418 18.8472 10.8519 18.8272 12.5719 20.4372C12.9319 20.7672 13.0919 20.6672 13.3619 20.4372C14.2819 19.4372 15.2419 18.5772 16.1519 17.6172C16.2448 17.4911 16.3661 17.3886 16.5059 17.318C16.6457 17.2473 16.8002 17.2105 16.9569 17.2105C17.1135 17.2105 17.268 17.2473 17.4078 17.318C17.5476 17.3886 17.6689 17.4911 17.7619 17.6172C18.3219 18.0872 18.8619 18.6573 19.6019 19.3973V19.4172ZM17.9619 27.8672L11.9619 21.9172C10.9119 20.8672 10.8919 20.8472 9.87186 21.9172C9.46186 22.3572 8.80186 22.6173 8.82186 23.3973C8.82186 24.6873 8.82186 25.9772 8.82186 27.2772C8.82186 27.6872 8.91185 27.8573 9.36185 27.8473L17.9619 27.8672ZM19.6019 27.4272C19.6019 25.4272 19.6019 23.6772 19.6019 21.9372C19.6076 21.8035 19.5847 21.6701 19.5346 21.5459C19.4846 21.4217 19.4087 21.3097 19.3118 21.2173C18.6518 20.5673 17.9818 19.9273 17.3118 19.2173C17.0218 18.8973 16.8519 18.9973 16.6019 19.2173C15.8719 19.9673 15.1319 20.7172 14.3719 21.4372C14.0819 21.7172 14.1019 21.8773 14.3719 22.1473C16.0919 23.8573 17.7519 25.5372 19.6019 27.4072V27.4272Z" fill="#EF4C23"/>
<path d="M19.3818 31.9572H29.9818C30.2212 31.9321 30.4625 31.9321 30.7018 31.9572C30.898 31.9774 31.0793 32.0711 31.2092 32.2195C31.3391 32.368 31.4079 32.5601 31.4018 32.7572C31.3924 32.9408 31.3159 33.1145 31.1869 33.2454C31.0579 33.3763 30.8852 33.4552 30.7018 33.4672C30.4623 33.4872 30.2214 33.4872 29.9818 33.4672H8.70184C8.46225 33.4872 8.22142 33.4872 7.98184 33.4672C7.79944 33.455 7.62801 33.3757 7.5006 33.2446C7.3732 33.1135 7.29884 32.9399 7.29183 32.7572C7.27804 32.5598 7.34283 32.365 7.47207 32.2151C7.60131 32.0653 7.78455 31.9726 7.98184 31.9572C8.22119 31.9323 8.46249 31.9323 8.70184 31.9572H19.3818Z" fill="#EF4C23"/>
<path d="M20.6718 6.93722C20.8618 6.31722 21.0618 5.69722 21.2518 5.07722C21.3718 4.67722 21.5819 4.33722 22.0419 4.33722C22.5019 4.33722 22.7018 4.66722 22.8118 5.08722C22.9918 5.71722 23.2118 6.32722 23.4418 7.01722C23.69 6.49942 23.8392 5.93982 23.8818 5.36722C24.0018 4.81722 24.1618 4.20722 24.8818 4.36722C25.6018 4.52722 25.5118 5.04722 25.3918 5.60722C25.0918 6.98722 24.8418 8.37722 24.5718 9.75722C24.4718 10.2772 24.3418 10.7572 23.6718 10.7572C23.0018 10.7572 22.8418 10.2872 22.6718 9.75722C22.5018 9.22722 22.2819 8.51722 22.0119 7.64722C21.7219 8.55722 21.5018 9.20722 21.3118 9.87722C21.1618 10.3772 20.9318 10.7672 20.3118 10.7272C19.6918 10.6872 19.5719 10.2972 19.4819 9.81722C19.1919 8.34722 18.8918 6.87722 18.6018 5.40722C18.4918 4.88722 18.6018 4.40722 19.1618 4.27722C19.7218 4.14722 19.9919 4.58722 20.0919 5.11722C20.1919 5.64722 20.3319 6.27722 20.4519 6.84722L20.6718 6.93722Z" fill="#EF4C23"/>
<path d="M10.8018 7.39722V5.26722C10.8018 4.75722 10.9818 4.33722 11.5518 4.34722C12.1218 4.35722 12.3018 4.75722 12.3018 5.27722C12.3018 6.77722 12.3018 8.27722 12.3018 9.77722C12.3357 9.99057 12.2917 10.209 12.1779 10.3926C12.0641 10.5762 11.888 10.7127 11.6819 10.7772C11.2319 10.9172 10.9419 10.6472 10.6819 10.3172L8.81184 7.61722C8.81184 8.53722 8.81184 9.18722 8.81184 9.83722C8.81184 10.4872 8.68184 10.8372 8.03184 10.8372C7.38184 10.8372 7.25184 10.3872 7.25184 9.83722C7.25184 8.33722 7.25184 6.83722 7.25184 5.33722C7.22471 5.14155 7.2642 4.94243 7.36397 4.77192C7.46373 4.60141 7.61797 4.46943 7.80185 4.39722C8.26185 4.22722 8.53185 4.52722 8.80185 4.85722L10.6318 7.45722L10.8018 7.39722Z" fill="#EF4C23"/>
<path d="M29.0618 10.8173C28.3194 10.8258 27.6025 10.5462 27.0618 10.0373C26.9634 9.97924 26.8791 9.90003 26.815 9.80537C26.751 9.71072 26.7088 9.60299 26.6916 9.49002C26.6744 9.37704 26.6825 9.26164 26.7154 9.1522C26.7483 9.04275 26.8052 8.94201 26.8819 8.85727C26.9504 8.77534 27.036 8.70944 27.1328 8.66422C27.2295 8.619 27.335 8.59556 27.4418 8.59556C27.5487 8.59556 27.6542 8.619 27.7509 8.66422C27.8477 8.70944 27.9333 8.77534 28.0018 8.85727C28.172 9.02745 28.3777 9.15785 28.6042 9.23911C28.8307 9.32037 29.0723 9.35048 29.3118 9.32727C29.4348 9.32478 29.5539 9.28393 29.6526 9.21042C29.7512 9.13691 29.8243 9.03441 29.8618 8.91727C29.9218 8.60727 29.6719 8.50727 29.4519 8.40727L28.0419 7.82727C27.7134 7.70768 27.432 7.48565 27.2393 7.19395C27.0467 6.90225 26.9529 6.55634 26.9718 6.20727C26.9692 5.85894 27.0706 5.51775 27.263 5.22736C27.4554 4.93698 27.73 4.71062 28.0518 4.57727C28.5217 4.37496 29.0382 4.30619 29.5445 4.37853C30.0509 4.45087 30.5275 4.66151 30.9218 4.98727C31.2418 5.26727 31.4218 5.60727 31.1418 5.98727C31.0926 6.06942 31.0275 6.14092 30.9503 6.19759C30.8731 6.25427 30.7854 6.29497 30.6923 6.31732C30.5991 6.33967 30.5025 6.34322 30.408 6.32775C30.3135 6.31229 30.223 6.27813 30.1418 6.22727C29.7983 5.98362 29.3823 5.86375 28.9619 5.88727C28.7819 5.88727 28.5819 5.94727 28.5719 6.17727C28.5619 6.40727 28.6919 6.42727 28.8519 6.48727C29.2419 6.63727 29.6219 6.79727 30.0119 6.96727C31.0819 7.43727 31.6219 8.23727 31.4519 9.08727C31.3449 9.6238 31.0393 10.1002 30.5961 10.4209C30.1529 10.7417 29.6049 10.8833 29.0618 10.8173Z" fill="#EF4C23"/>
<path d="M15.5018 10.8173C15.2918 10.8173 15.0819 10.8173 14.8719 10.8173C14.0119 10.9173 13.7019 10.5273 13.7219 9.67726C13.7219 8.23726 13.7219 6.79726 13.7219 5.35726C13.7219 4.62726 14.0219 4.29726 14.7219 4.35726H16.3819C16.9119 4.35726 17.3119 4.55726 17.3319 5.08726C17.3519 5.61726 16.9119 5.88726 16.3319 5.88726C16.152 5.89727 15.9717 5.89727 15.7919 5.88726C15.4019 5.88726 15.1819 5.88726 15.1819 6.41726C15.1819 6.94726 15.4118 6.89726 15.7518 6.87726H16.3819C16.5781 6.87726 16.7663 6.95522 16.9051 7.094C17.0439 7.23278 17.1219 7.421 17.1219 7.61726C17.1219 7.81352 17.0439 8.00174 16.9051 8.14052C16.7663 8.27929 16.5781 8.35726 16.3819 8.35726C16.1726 8.38231 15.9611 8.38231 15.7518 8.35726C15.3618 8.35726 15.1519 8.42726 15.1519 8.89726C15.1519 9.36726 15.3719 9.38726 15.7219 9.36726C16.0215 9.34727 16.3222 9.34727 16.6219 9.36726C16.8128 9.36726 16.9959 9.44312 17.131 9.57814C17.266 9.71317 17.3419 9.8963 17.3419 10.0873C17.3419 10.2782 17.266 10.4614 17.131 10.5964C16.9959 10.7314 16.8128 10.8073 16.6219 10.8073C16.2419 10.8073 15.8419 10.8073 15.4519 10.8073L15.5018 10.8173Z" fill="#EF4C23"/>
<path d="M27.3018 15.3172H24.2318C23.7218 15.3172 23.3318 15.1472 23.3018 14.5772C23.2718 14.0072 23.6918 13.7772 24.1818 13.7772C26.2918 13.7772 28.3918 13.7772 30.5018 13.7772C31.0018 13.7772 31.4118 14.0372 31.3918 14.5772C31.3718 15.1172 30.9818 15.3272 30.4518 15.3172H27.3018Z" fill="#EF4C23"/>
<path d="M27.3118 22.3573H24.2418C23.7318 22.3573 23.3418 22.2073 23.3018 21.6273C23.2618 21.0473 23.6818 20.8273 24.1718 20.8173H30.4818C30.9918 20.8173 31.4118 21.0773 31.3918 21.6073C31.3718 22.1373 30.9918 22.3673 30.4618 22.3673L27.3118 22.3573Z" fill="#EF4C23"/>
<path d="M27.3818 29.4072C26.3818 29.4072 25.3318 29.4072 24.3118 29.4072C23.7618 29.4072 23.3118 29.2572 23.3118 28.6272C23.3118 27.9972 23.7418 27.8572 24.2318 27.8572C26.3018 27.8572 28.3818 27.8572 30.4518 27.8572C30.9618 27.8572 31.3918 28.0872 31.4018 28.6072C31.4118 29.1272 30.9918 29.4172 30.4018 29.4072C29.3818 29.3972 28.3818 29.4072 27.3818 29.4072Z" fill="#EF4C23"/>
<path d="M27.3819 18.8073H24.2319C23.7219 18.8073 23.3319 18.6473 23.3419 18.0573C23.3519 17.4673 23.7519 17.3173 24.2619 17.3173C26.3319 17.3173 28.4019 17.3173 30.4619 17.3173C30.9919 17.3173 31.3919 17.5273 31.4119 18.0373C31.4319 18.5473 30.9919 18.8173 30.4119 18.8073H27.3819Z" fill="#EF4C23"/>
<path d="M27.2918 25.8472H24.2918C23.7818 25.8472 23.2918 25.8472 23.2918 25.1372C23.2918 24.4272 23.7218 24.3572 24.2918 24.3572H30.3818C30.9418 24.3572 31.3818 24.5672 31.3818 25.1372C31.3818 25.7072 30.9518 25.8672 30.4318 25.8572C29.3818 25.8372 28.3818 25.8472 27.2918 25.8472Z" fill="#EF4C23"/>
<path d="M33.9718 20.8372C34.4018 20.9272 34.7018 21.1472 34.6918 21.6072C34.6964 21.7131 34.6771 21.8187 34.6355 21.9162C34.5939 22.0137 34.531 22.1007 34.4514 22.1707C34.3718 22.2407 34.2775 22.292 34.1755 22.3208C34.0735 22.3496 33.9663 22.3552 33.8618 22.3372C33.7646 22.3328 33.6694 22.3079 33.5824 22.2641C33.4955 22.2203 33.4188 22.1586 33.3574 22.083C33.296 22.0075 33.2513 21.9198 33.2262 21.8257C33.2011 21.7316 33.1962 21.6333 33.2118 21.5372C33.2418 21.0672 33.5518 20.8872 33.9718 20.8372Z" fill="#EF4C23"/>
</svg>
