<svg width="38" height="38" viewBox="0 0 38 38" fill="none" xmlns="http://www.w3.org/2000/svg">
<path d="M0 22.0813C0.45 21.3813 1 20.7513 1.89 20.7713C2.2 20.7713 2.33 20.6413 2.31 20.3413C2.32507 20.1015 2.32507 19.861 2.31 19.6213C2.15379 18.9021 2.19903 18.1537 2.44074 17.4585C2.68246 16.7634 3.11128 16.1484 3.68 15.6813C3.76621 15.623 3.84006 15.5483 3.89731 15.4614C3.95455 15.3745 3.99407 15.2771 4.01358 15.1749C4.03309 15.0727 4.03222 14.9676 4.01101 14.8657C3.98981 14.7639 3.94868 14.6672 3.89 14.5813C3.15 13.1613 5.44 10.3413 7.17 10.6813C7.51245 10.7366 7.83948 10.8631 8.12997 11.0527C8.42046 11.2423 8.66794 11.4908 8.85642 11.782C9.04491 12.0732 9.17021 12.4007 9.22422 12.7434C9.27824 13.086 9.25976 13.4362 9.17 13.7713C8.94179 14.507 8.47458 15.1456 7.8424 15.5857C7.21021 16.0259 6.44922 16.2425 5.68 16.2013C5.49 16.2013 5.34 16.1313 5.2 16.3113C4.52 17.1513 3.68 17.8513 3.8 19.1713C3.95 20.7613 3.8 20.7713 5.43 20.7713C6.58 20.7713 7.72 20.7213 8.86 20.7713C9.56 20.7713 9.73 20.5513 9.74 19.9113C9.72654 18.8274 9.86454 17.7469 10.15 16.7013C10.5107 15.3843 11.3768 14.263 12.56 13.5813C12.8052 13.4637 13.0424 13.3301 13.27 13.1813C13.6501 12.8983 13.987 12.5614 14.27 12.1813C14.64 11.6113 13.91 11.4113 13.71 11.0313C13.2638 10.3177 13.0281 9.49279 13.03 8.65126C12.9582 7.26926 13.0118 5.8836 13.19 4.51126C13.4979 3.13397 14.2999 1.91726 15.4442 1.09133C16.5886 0.265393 17.996 -0.1125 19.4001 0.0291481C20.8043 0.170796 22.1079 0.822155 23.0642 1.86C24.0206 2.89785 24.5634 4.25022 24.59 5.66126C24.59 6.56126 24.59 7.47127 24.59 8.37127C24.6317 8.94282 24.5566 9.51688 24.3692 10.0584C24.1818 10.6 23.886 11.0977 23.5 11.5213C23.16 11.8913 23.17 12.1513 23.56 12.4513C23.95 12.7513 24.11 13.0813 24.5 13.2713C26.76 14.3513 27.65 16.2713 27.83 18.6613C27.98 20.7713 27.98 20.7713 30.11 20.7713C31.11 20.7713 32.16 20.7713 33.18 20.7713C33.64 20.7713 33.82 20.6513 33.8 20.1613C33.8 18.9813 34.02 17.7713 32.91 16.8413C32.47 16.4713 32.22 16.1513 31.52 16.2313C29.77 16.4413 27.94 14.1313 28.38 12.4313C28.4692 12.1039 28.6271 11.7993 28.8431 11.5376C29.0592 11.276 29.3285 11.0634 29.6331 10.9139C29.9377 10.7645 30.2707 10.6816 30.6098 10.6708C30.9489 10.66 31.2865 10.7215 31.6 10.8513C32.3567 11.1686 32.9746 11.7466 33.3415 12.4805C33.7085 13.2144 33.8002 14.0555 33.6 14.8513C33.5468 14.9894 33.5415 15.1413 33.585 15.2828C33.6285 15.4243 33.7183 15.547 33.84 15.6313C34.448 16.146 34.9055 16.8155 35.1643 17.5689C35.4231 18.3223 35.4734 19.1316 35.31 19.9113C35.24 20.4813 35.31 20.9113 36.07 20.8513C36.1882 20.8492 36.3051 20.8767 36.41 20.9313C37.48 21.3513 37.92 22.6313 37.61 24.3913C37.534 24.8373 37.2937 25.2386 36.9365 25.5163C36.5792 25.7939 36.131 25.9277 35.68 25.8913C34.83 25.8313 34.68 26.2713 34.54 26.8913C33.78 29.8913 32.99 32.8913 32.24 35.9613C32.1222 36.5102 31.8598 37.0178 31.48 37.4313H6.14C5.75386 37.0222 5.4905 36.5128 5.38 35.9613C4.6 32.8313 3.78 29.7013 2.98 26.5713C2.89 26.2213 2.87 25.8513 2.33 25.9213C1.85167 25.989 1.36434 25.8975 0.943236 25.6607C0.522129 25.4239 0.190661 25.0551 0 24.6113V22.0813ZM18.83 22.2613H2.68C1.48 22.2613 1.53 22.2613 1.46 23.3713C1.39 24.3113 1.82 24.4113 2.68 24.4113C6.74 24.4113 10.8 24.4113 14.87 24.4113C15.1392 24.3811 15.4108 24.3811 15.68 24.4113C15.8625 24.4362 16.0279 24.532 16.1402 24.678C16.2525 24.824 16.3027 25.0085 16.28 25.1913C16.2778 25.3605 16.2116 25.5226 16.0947 25.6451C15.9778 25.7675 15.819 25.8412 15.65 25.8513C15.38 25.8513 15.11 25.8513 14.84 25.8513C11.65 25.8513 8.46 25.8513 5.27 25.8513C4.63 25.8513 4.43 25.9813 4.61 26.6513C5.35 29.4613 6.08 32.2813 6.76 35.1013C6.93 35.8013 7.23 35.9513 7.91 35.9413C15.19 35.9413 22.4733 35.9413 29.76 35.9413C30.47 35.9413 30.76 35.7413 30.91 35.0713C31.59 32.2813 32.29 29.4813 33.03 26.7013C33.2 26.0413 33.14 25.8313 32.38 25.8413C29.19 25.8413 26 25.8413 22.81 25.8413C22.5402 25.8562 22.2698 25.8562 22 25.8413C21.9159 25.8374 21.8334 25.817 21.7572 25.7812C21.6811 25.7455 21.6127 25.695 21.556 25.6328C21.4994 25.5706 21.4555 25.4978 21.427 25.4186C21.3986 25.3394 21.386 25.2553 21.39 25.1713C21.3788 25.0813 21.3854 24.99 21.4095 24.9026C21.4336 24.8152 21.4747 24.7334 21.5304 24.6619C21.5862 24.5904 21.6554 24.5306 21.7343 24.4859C21.8131 24.4411 21.9 24.4124 21.99 24.4013C22.2293 24.3762 22.4707 24.3762 22.71 24.4013H35.12C35.44 24.4013 35.85 24.5213 36 24.1313C36.1849 23.6208 36.1849 23.0617 36 22.5513C35.84 22.0513 35.34 22.2313 35 22.2313L18.83 22.2613ZM18.83 15.0413C18.46 15.7813 18.19 16.3613 17.88 16.9313C17.47 17.6913 17.04 17.7713 16.39 17.2013C15.74 16.6313 15.15 16.0713 14.53 15.5013C13.53 14.6013 13.33 14.6113 12.43 15.6313C12.2286 15.8526 12.0602 16.1018 11.93 16.3713C11.4553 17.5048 11.2139 18.7223 11.22 19.9513C11.16 20.6613 11.41 20.7913 12.06 20.7813C15.97 20.7813 19.88 20.7813 23.79 20.7813C24.65 20.7813 25.84 21.1813 26.29 20.6213C26.74 20.0613 26.36 18.8313 26.21 17.9113C26.1496 17.3275 25.9616 16.7642 25.6591 16.2613C25.3567 15.7584 24.9473 15.3282 24.46 15.0013C24.3982 14.9421 24.3244 14.8968 24.2437 14.8684C24.163 14.8401 24.0771 14.8293 23.9918 14.8369C23.9066 14.8445 23.824 14.8702 23.7495 14.9124C23.675 14.9545 23.6104 15.0121 23.56 15.0813C22.81 15.8113 22.03 16.5213 21.24 17.2213C20.45 17.9213 20.17 17.7113 19.76 16.9513C19.42 16.4113 19.14 15.7713 18.79 15.0413H18.83ZM18.83 12.5413C20.83 12.5413 23.15 10.3813 23.14 8.46126C23.14 8.05126 23.14 7.82126 22.59 7.77126C21.2122 7.5747 19.867 7.19466 18.59 6.64125C17.9875 6.36653 17.3469 6.18448 16.69 6.10126C16.2128 6.08048 15.742 6.21699 15.35 6.4898C14.9579 6.7626 14.6663 7.1566 14.52 7.61126C14.4397 8.82471 14.839 10.0212 15.632 10.9432C16.4249 11.8652 17.5482 12.4391 18.76 12.5413H18.83ZM14.68 5.06125C15.2974 4.7388 15.9835 4.57041 16.68 4.57041C17.3765 4.57041 18.0626 4.7388 18.68 5.06125C19.47 5.35125 20.25 5.64125 21.05 5.89125C21.69 6.09125 22.64 6.58126 22.96 6.13126C23.4 5.52126 22.96 4.58126 22.61 3.85126C22.204 3.0609 21.5627 2.41608 20.7745 2.00588C19.9863 1.59567 19.0903 1.44031 18.21 1.56125C17.3176 1.67266 16.4872 2.07651 15.8486 2.70972C15.2099 3.34293 14.799 4.16983 14.68 5.06125ZM32.24 13.9013C32.24 13.2713 31.16 12.1413 30.66 12.1913C30.5394 12.1904 30.4201 12.2152 30.3098 12.2641C30.1996 12.3129 30.101 12.3846 30.0206 12.4745C29.9402 12.5643 29.8799 12.6702 29.8436 12.7852C29.8073 12.9002 29.7958 13.0215 29.81 13.1413C29.81 13.7213 30.91 14.7613 31.42 14.7313C31.5289 14.7326 31.637 14.712 31.7378 14.6707C31.8385 14.6293 31.9299 14.5681 32.0065 14.4906C32.083 14.4131 32.1432 14.321 32.1833 14.2197C32.2234 14.1185 32.2427 14.0102 32.24 13.9013ZM5.33 13.9013C5.32689 14.0145 5.34758 14.1272 5.39074 14.232C5.4339 14.3368 5.49857 14.4313 5.58057 14.5096C5.66257 14.5878 5.76006 14.648 5.86676 14.6861C5.97346 14.7243 6.08699 14.7397 6.2 14.7313C6.57752 14.6122 6.91865 14.3993 7.19148 14.1124C7.46431 13.8256 7.65992 13.4742 7.76 13.0913C7.76597 12.9711 7.74636 12.851 7.70247 12.739C7.65857 12.6269 7.59139 12.5255 7.50537 12.4414C7.41935 12.3572 7.31645 12.2923 7.20347 12.2509C7.09049 12.2096 6.97001 12.1926 6.85 12.2013C6.32 12.1813 5.32 13.3513 5.33 13.9013ZM22.59 13.9013C22.59 13.4913 21.96 13.0213 21.66 13.1513C21.19 13.3613 20.74 13.5913 20.28 13.8113C20.14 13.8713 19.96 13.9513 20.03 14.1113C20.1628 14.6006 20.4018 15.0548 20.73 15.4413C20.96 15.6413 21.27 15.0913 21.54 14.8813C21.81 14.6713 22.28 14.1613 22.59 13.8713V13.9013ZM15.68 13.0313C15.42 13.0313 15.28 13.3513 15.08 13.5413C14.88 13.7313 15.08 13.9613 15.25 14.1113C15.62 14.4713 15.98 14.8213 16.37 15.1113C16.54 15.2513 16.79 15.6613 16.97 15.2313C17.15 14.8013 17.82 14.2913 17.41 13.8413C16.8864 13.47 16.3004 13.1957 15.68 13.0313Z" fill="#EF4C23"/>
<path d="M18.76 33.9513C16.57 33.9513 14.37 33.9513 12.18 33.9513C10.66 33.9513 10.06 33.3413 10.05 31.8113C10.05 31.1513 10.05 30.4913 10.05 29.8113C10.0212 29.5614 10.0493 29.3082 10.1321 29.0706C10.2149 28.8331 10.3503 28.6173 10.5282 28.4395C10.706 28.2616 10.9218 28.1262 11.1594 28.0434C11.3969 27.9606 11.6501 27.9325 11.9 27.9613C13.9 27.9613 15.9 27.9613 17.9 27.9613H25.39C26.89 27.9613 27.46 28.5413 27.48 30.0313C27.48 30.6313 27.48 31.2313 27.48 31.8313C27.48 33.3113 26.87 33.9213 25.4 33.9313C23.21 33.9613 20.99 33.9513 18.76 33.9513ZM18.76 29.4913H13.68C11.5 29.4913 11.53 29.4913 11.51 31.6213C11.51 32.2713 11.71 32.4113 12.32 32.4113C16.17 32.4113 20.02 32.4113 23.86 32.4113C26.03 32.4113 26 32.4113 25.99 30.2413C25.99 29.6313 25.8 29.4813 25.22 29.4913C23.08 29.5113 20.92 29.4913 18.76 29.4913Z" fill="#EF4C23"/>
<path d="M18.68 24.4113C19.15 24.4913 19.47 24.6713 19.48 25.1613C19.4659 25.3427 19.3855 25.5127 19.254 25.6386C19.1225 25.7645 18.9493 25.8375 18.7673 25.8437C18.5854 25.8499 18.4076 25.7888 18.2679 25.6721C18.1281 25.5555 18.0363 25.3914 18.01 25.2113C18.02 24.7313 18.35 24.5413 18.68 24.4113Z" fill="#EF4C23"/>
</svg>
