<svg width="38" height="25" viewBox="0 0 38 25" fill="none" xmlns="http://www.w3.org/2000/svg">
<path d="M0.0100002 17.1666C0.425263 15.915 1.17582 14.8013 2.18 13.9466C3.0383 13.2688 4.08749 12.8771 5.18 12.8266C5.67 12.8266 5.92 12.7166 6.05 12.1166C6.31426 10.7273 7.04927 9.47146 8.13122 8.56073C9.21318 7.64999 10.576 7.13998 11.99 7.1166C12.45 7.1166 12.65 7.0366 12.72 6.5066C12.8291 5.79211 13.0918 5.10977 13.49 4.5066C13.65 4.2566 13.77 3.9166 14.15 4.2566C14.53 4.5966 14.88 4.5566 14.51 5.0566C14.3676 5.25315 14.2531 5.46855 14.17 5.6966C13.62 6.9466 13.7 7.1566 14.88 7.8266C15.8624 8.3637 16.6656 9.17732 17.19 10.1666C17.32 10.4266 17.66 10.7066 17.19 10.9566C16.72 11.2066 16.5 11.2866 16.19 10.7266C15.7925 9.91359 15.1509 9.24515 14.3547 8.81482C13.5586 8.38449 12.6479 8.21379 11.75 8.3266C10.8582 8.36465 9.99424 8.64805 9.2532 9.14561C8.51215 9.64317 7.92279 10.3356 7.55 11.1466C7.19193 11.7503 7.01814 12.4454 7.05 13.1466C7.13 13.8966 6.78 13.9866 6.18 13.9366C5.09328 13.8225 4.00144 14.099 3.1 14.7166C2.3104 15.2531 1.71095 16.0259 1.3876 16.9241C1.06424 17.8223 1.03357 18.7999 1.3 19.7166C1.59705 20.6714 2.19904 21.5024 3.01367 22.0822C3.8283 22.662 4.81061 22.9586 5.81 22.9266C11.34 22.9266 16.88 22.9266 22.42 22.9266C22.7 22.9266 23.14 22.7066 23.23 23.2066C23.32 23.7066 23.35 24.0566 22.6 24.0566C16.82 24.0566 11.05 24.0566 5.27 24.0566C4.15037 24.0071 3.07233 23.618 2.17919 22.941C1.28606 22.264 0.620148 21.3312 0.27 20.2666C0.2 20.0766 0.27 19.8266 0 19.7266L0.0100002 17.1666Z" fill="#EF4C23"/>
<path d="M30.47 11.9266C30.3792 11.8993 30.2818 11.9043 30.1943 11.9408C30.1067 11.9772 30.0346 12.0429 29.99 12.1266C29.62 12.6466 29.32 12.5166 28.99 12.1266C28.77 11.8866 28.58 11.4466 28.13 11.6266C27.68 11.8066 27.85 12.2566 27.88 12.5766C27.94 13.2466 27.67 13.3966 27.06 13.3566C26.3943 13.3056 25.7257 13.3056 25.06 13.3566C24.44 13.3566 24.18 13.2166 24.24 12.5566C24.24 12.2466 24.46 11.7966 23.98 11.6166C23.5 11.4366 23.39 11.8566 23.2 12.0966C22.81 12.5666 22.5 12.6166 22.07 12.0966C21.6044 11.5443 21.0962 11.0294 20.55 10.5566C20.11 10.1766 20.15 9.90658 20.55 9.55658C20.6896 9.4437 20.82 9.31999 20.94 9.18659C21.0158 9.13511 21.0731 9.0608 21.1037 8.97446C21.1343 8.88812 21.1365 8.79427 21.11 8.70659C21.03 8.45659 20.82 8.43659 20.6 8.43659C20.4504 8.42161 20.2996 8.42161 20.15 8.43659C19.52 8.52659 19.28 8.26659 19.35 7.62659C19.375 7.20696 19.375 6.78621 19.35 6.36659C19.35 5.03659 19.35 5.04658 20.64 4.82658C21.2 4.72658 21.36 4.35659 20.9 4.05659C20.44 3.75659 20.42 2.76659 19.59 2.76659C18.2973 2.58491 16.983 2.88765 15.9 3.61659C15.66 3.78659 15.46 4.13659 15.08 3.73659C14.7 3.33659 14.59 3.07659 15.14 2.73659C15.8745 2.17968 16.7289 1.80199 17.6352 1.63358C18.5414 1.46518 19.4745 1.51072 20.36 1.76659C20.6311 1.91043 20.9469 1.94499 21.2426 1.86315C21.5383 1.78132 21.7915 1.5893 21.95 1.32658C22.38 0.706585 22.78 0.686585 23.25 1.32658C23.41 1.53658 23.55 1.89659 23.95 1.74659C24.35 1.59659 24.26 1.17658 24.22 0.896585C24.11 0.136585 24.46 -0.0334161 25.13 0.0365839C25.5783 0.0916174 26.0317 0.0916174 26.48 0.0365839C27.48 -0.0834161 28.07 0.0365906 27.83 1.24659C27.802 1.34735 27.8146 1.45505 27.8651 1.54664C27.9156 1.63823 27.9999 1.70641 28.1 1.73659C28.37 1.86659 28.48 1.73659 28.63 1.54659C28.7641 1.42753 28.891 1.30065 29.01 1.16659C29.32 0.776589 29.58 0.726589 29.93 1.16659C30.2661 1.55269 30.6234 1.91992 31 2.26659C31.91 3.16659 31.92 3.17659 31.11 4.16659C30.75 4.61659 30.97 4.79659 31.38 4.91659C31.5578 4.95659 31.7422 4.95659 31.92 4.91659C32.55 4.81659 32.78 5.06659 32.71 5.70659C32.685 6.15624 32.685 6.60694 32.71 7.05659C32.7868 7.4968 32.7594 7.94888 32.63 8.37659C32.42 8.73659 31.85 8.47658 31.44 8.52658C31.3521 8.52386 31.2653 8.54585 31.1892 8.59004C31.1132 8.63424 31.0511 8.69886 31.01 8.77658C30.87 9.02658 31.01 9.15658 31.2 9.30658L31.75 9.76659C31.93 9.93659 31.99 10.0766 31.75 10.2866C31.51 10.4966 31.21 10.6066 31.32 11.0066C31.43 11.4066 31.59 12.1166 31.81 12.6366C31.9 12.8566 32.25 12.7666 32.48 12.7866C33.8992 12.9244 35.2129 13.5966 36.1551 14.6668C37.0972 15.7371 37.5974 17.1254 37.5541 18.5506C37.5109 19.9759 36.9276 21.3314 35.9223 22.3425C34.917 23.3537 33.565 23.945 32.14 23.9966C29.73 23.9966 27.32 23.9966 24.91 23.9966C24.54 23.9966 24.23 23.9966 24.22 23.4666C24.21 22.9366 24.49 22.8566 24.93 22.8566C27.25 22.8566 29.57 22.8566 31.93 22.8566C32.9787 22.8638 33.9969 22.5037 34.8079 21.8387C35.6189 21.1737 36.1715 20.2458 36.3698 19.2159C36.5682 18.1861 36.3998 17.1193 35.8939 16.2007C35.3879 15.282 34.5764 14.5695 33.6 14.1866C32.9338 13.9076 32.209 13.7977 31.49 13.8666C30.91 13.9266 30.59 13.8066 30.64 13.1266C30.626 12.7217 30.569 12.3194 30.47 11.9266ZM30.36 3.12659C30.12 2.89659 29.89 2.66659 29.63 2.45659C29.37 2.24659 29.23 2.51659 29.13 2.65659C28.39 3.65659 27.77 2.65659 27.13 2.54659C26.49 2.43659 26.75 1.95659 26.75 1.62659C26.75 1.12659 26.5 1.10659 26.13 1.11659C25.76 1.12659 25.36 1.04659 25.45 1.63659C25.66 2.92659 24.38 2.55658 23.86 3.03658C23.34 3.51658 23.21 2.88659 23.02 2.65659C22.64 2.20659 22.43 2.50659 22.17 2.74659C21.91 2.98659 21.67 3.28659 22.12 3.58659C23.12 4.27659 22.03 4.87659 22.02 5.52659C22.01 6.17659 21.5 6.01659 21.13 5.97659C20.56 5.91659 20.6 6.25659 20.59 6.63659C20.58 7.01659 20.59 7.33659 21.15 7.26659C22.39 7.09659 21.98 8.34659 22.46 8.84659C22.94 9.34659 22.33 9.48659 22.1 9.67659C21.69 10.0366 21.89 10.2466 22.17 10.5266C22.45 10.8066 22.71 11.0466 23.02 10.5966C23.73 9.59659 24.32 10.6766 25.02 10.7066C25.72 10.7366 25.54 11.1966 25.49 11.5866C25.41 12.1466 25.75 12.1266 26.14 12.1366C26.53 12.1466 26.88 12.1366 26.79 11.5866C26.59 10.3866 27.79 10.7166 28.25 10.2766C28.71 9.83658 28.96 10.3766 29.18 10.6266C29.57 11.0466 29.77 10.7666 30.04 10.5166C30.31 10.2666 30.49 9.97659 30.04 9.67659C29.04 8.96659 30.14 8.39659 30.17 7.74659C30.2 7.09659 30.66 7.23659 31.03 7.26659C31.4 7.29659 31.62 7.05659 31.61 6.62659C31.6 6.19659 31.61 5.93658 31.04 5.96658C30.78 5.96658 30.32 6.16658 30.26 5.78658C30.14 4.99658 28.97 4.18659 30.26 3.38659C30.25 3.34659 30.28 3.24659 30.36 3.12659Z" fill="#EF4C23"/>
<path d="M25.07 18.6666C25.07 19.2966 25.07 19.9266 25.07 20.5566C25.07 21.1866 24.88 21.2166 24.44 21.1366C23.9467 21.0777 23.4465 21.136 22.98 21.3066C22.4598 21.4544 21.9067 21.4376 21.3964 21.2586C20.8861 21.0796 20.4438 20.747 20.13 20.3066C19.8192 19.8457 19.6531 19.3025 19.6531 18.7466C19.6531 18.1907 19.8192 17.6475 20.13 17.1866C20.4374 16.7414 20.8719 16.3992 21.3767 16.2048C21.8816 16.0103 22.4334 15.9726 22.96 16.0966C23.19 16.1566 23.41 16.2666 23.64 16.3166C24.1 16.4166 24.74 16.0366 24.99 16.4066C25.24 16.7766 25.06 17.6266 25.1 18.2466C25.07 18.3666 25.07 18.5166 25.07 18.6666ZM23.86 18.6666C23.8709 18.4656 23.8406 18.2645 23.7712 18.0756C23.7017 17.8867 23.5944 17.714 23.4558 17.568C23.3173 17.422 23.1505 17.3057 22.9655 17.2264C22.7805 17.1471 22.5813 17.1063 22.38 17.1066C22.1598 17.093 21.9393 17.1269 21.7333 17.2059C21.5274 17.2849 21.3408 17.4073 21.1862 17.5647C21.0317 17.7221 20.9128 17.9109 20.8375 18.1182C20.7622 18.3256 20.7324 18.5467 20.75 18.7666C20.7628 19.1735 20.9322 19.5597 21.2229 19.8447C21.5135 20.1298 21.9029 20.2916 22.31 20.2966C22.5133 20.302 22.7157 20.2663 22.9048 20.1916C23.094 20.1168 23.2661 20.0047 23.4109 19.8618C23.5557 19.7189 23.6701 19.5482 23.7472 19.36C23.8244 19.1718 23.8628 18.97 23.86 18.7666V18.6666Z" fill="#EF4C23"/>
<path d="M18.04 18.7666C18.04 19.0066 18.04 19.2466 18.04 19.4866C18.1275 19.9852 18.107 20.4967 17.98 20.9866C17.74 21.4566 17.13 21.0866 16.68 21.1166C16.5333 21.1506 16.392 21.2044 16.26 21.2766C15.7087 21.4829 15.105 21.5026 14.5415 21.3328C13.9779 21.163 13.4856 20.8131 13.14 20.3366C12.8102 19.8886 12.6258 19.3503 12.6115 18.7942C12.5972 18.2381 12.7537 17.691 13.06 17.2266C13.3908 16.7413 13.8682 16.3746 14.4224 16.1803C14.9767 15.986 15.5786 15.9742 16.14 16.1466C16.3014 16.223 16.4686 16.2865 16.64 16.3366C17.09 16.4066 17.74 16.0366 17.97 16.4666C18.1054 16.9823 18.1292 17.521 18.04 18.0466C18.05 18.2466 18.04 18.4866 18.04 18.7666ZM16.84 18.7666C16.851 18.5653 16.8204 18.3638 16.7502 18.1748C16.68 17.9857 16.5717 17.8131 16.4319 17.6677C16.2922 17.5223 16.124 17.4073 15.9379 17.3297C15.7517 17.2521 15.5516 17.2136 15.35 17.2166C15.143 17.2127 14.9372 17.2497 14.7446 17.3256C14.5519 17.4014 14.3762 17.5146 14.2275 17.6587C14.0788 17.8028 13.96 17.9748 13.8781 18.165C13.7961 18.3551 13.7526 18.5596 13.75 18.7666C13.7702 19.1718 13.9436 19.5542 14.2351 19.8364C14.5266 20.1186 14.9143 20.2795 15.32 20.2866C15.526 20.2912 15.7307 20.2529 15.9211 20.1743C16.1116 20.0957 16.2837 19.9785 16.4265 19.83C16.5694 19.6815 16.6798 19.505 16.751 19.3117C16.8222 19.1183 16.8525 18.9123 16.84 18.7066V18.7666Z" fill="#EF4C23"/>
<path d="M28.75 21.5466C28.0894 21.547 27.4494 21.3172 26.94 20.8966C26.77 20.7666 26.35 20.6266 26.72 20.3066C26.93 20.1266 27.11 19.6866 27.52 20.0566C27.8831 20.3818 28.3526 20.5632 28.84 20.5666C29.1266 20.6228 29.4239 20.5726 29.6761 20.4253C29.9283 20.278 30.1181 20.0438 30.21 19.7666C30.4 19.0866 29.86 18.8266 29.35 18.6066C28.84 18.3866 28.3 18.1766 27.77 17.9566C27.4322 17.8299 27.1484 17.5907 26.9663 17.2792C26.7841 16.9678 26.7148 16.6031 26.77 16.2466C26.7979 15.8662 26.9501 15.5055 27.203 15.2201C27.456 14.9346 27.7957 14.7401 28.17 14.6666C28.5472 14.5555 28.9437 14.5257 29.3333 14.5791C29.7228 14.6326 30.0966 14.7681 30.43 14.9766C30.61 15.0866 31.07 15.0966 30.79 15.5066C30.51 15.9166 30.42 16.1366 29.94 15.8666C29.7211 15.7062 29.4656 15.6029 29.1966 15.5662C28.9277 15.5296 28.6539 15.5606 28.4 15.6566C28.2381 15.6954 28.0924 15.7836 27.9831 15.9091C27.8737 16.0345 27.8062 16.191 27.79 16.3566C27.79 16.7466 27.99 16.9566 28.33 17.0866C28.67 17.2166 29.33 17.4566 29.75 17.6566C30.98 18.1766 31.48 18.9666 31.27 19.9866C31.0996 20.5009 30.7538 20.9389 30.2932 21.224C29.8325 21.5092 29.2863 21.6234 28.75 21.5466Z" fill="#EF4C23"/>
<path d="M8.75001 21.5466C8.14877 21.546 7.56479 21.3455 7.09001 20.9766C6.89001 20.8366 6.42001 20.7366 6.71001 20.3566C7.00001 19.9766 7.13001 19.7166 7.64001 20.1266C7.89088 20.3451 8.1955 20.4928 8.52246 20.5543C8.84942 20.6158 9.18687 20.589 9.50001 20.4766C9.70485 20.4243 9.88984 20.3131 10.032 20.1566C10.1743 20.0002 10.2674 19.8055 10.3 19.5966C10.2957 19.398 10.2285 19.2058 10.1081 19.0477C9.98775 18.8895 9.82037 18.7736 9.63001 18.7166C9.03001 18.4466 8.42001 18.2066 7.81001 17.9566C7.46265 17.8448 7.1659 17.614 6.972 17.3048C6.7781 16.9957 6.69948 16.628 6.75001 16.2666C6.77634 15.8877 6.92522 15.5277 7.17416 15.2409C7.42311 14.9541 7.7586 14.756 8.13001 14.6766C8.50539 14.563 8.90041 14.5292 9.28964 14.5774C9.67888 14.6256 10.0537 14.7548 10.39 14.9566C10.58 15.0766 11.01 15.1066 10.78 15.4866C10.55 15.8666 10.44 16.1566 9.95001 15.8766C9.74329 15.7273 9.50563 15.6264 9.25463 15.5814C9.00363 15.5364 8.74573 15.5484 8.50001 15.6166C8.15001 15.7366 7.83001 15.8766 7.78001 16.3266C7.73001 16.7766 8.00001 16.9666 8.36001 17.1066L9.70001 17.6366C10.94 18.1666 11.45 18.9166 11.26 19.9466C11.0991 20.4675 10.7585 20.9143 10.2987 21.2074C9.83901 21.5005 9.29014 21.6207 8.75001 21.5466Z" fill="#EF4C23"/>
<path d="M28.39 6.63661C28.3901 7.25831 28.1459 7.85514 27.71 8.29847C27.2742 8.7418 26.6816 8.99612 26.06 9.00661C25.4372 8.99896 24.8419 8.74954 24.3996 8.31103C23.9574 7.87252 23.7029 7.27926 23.69 6.65661C23.6859 6.34866 23.7437 6.04302 23.86 5.75784C23.9763 5.47266 24.1487 5.21374 24.3669 4.99644C24.5852 4.77913 24.8448 4.60787 25.1305 4.49281C25.4162 4.37774 25.7221 4.32122 26.03 4.32661C26.3386 4.31574 26.6462 4.36769 26.9342 4.47929C27.2221 4.59089 27.4844 4.75982 27.7051 4.97583C27.9257 5.19184 28.1002 5.45043 28.218 5.73592C28.3357 6.0214 28.3942 6.32783 28.39 6.63661ZM26.03 7.81661C26.3449 7.82203 26.6493 7.70344 26.8775 7.48643C27.1058 7.26941 27.2395 6.97138 27.25 6.65661C27.2387 6.34246 27.1121 6.04348 26.8945 5.81664C26.6769 5.58979 26.3834 5.45097 26.07 5.42661C25.7533 5.42911 25.45 5.55467 25.2242 5.77674C24.9984 5.99881 24.8678 6.29999 24.86 6.61661C24.8546 6.77312 24.8809 6.92911 24.9374 7.07517C24.9939 7.22122 25.0794 7.35432 25.1887 7.46645C25.2981 7.57858 25.429 7.66741 25.5735 7.72759C25.7181 7.78777 25.8734 7.81806 26.03 7.81661Z" fill="#EF4C23"/>
</svg>
