<svg width="38" height="38" viewBox="0 0 38 38" fill="none" xmlns="http://www.w3.org/2000/svg">
<path d="M10.1633 37.3357H9.96331C9.96331 37.1357 9.76331 37.1257 9.63331 37.0757C8.86528 36.8279 8.20802 36.3195 7.77523 35.6383C7.34244 34.9572 7.16136 34.1462 7.26331 33.3457C7.31331 32.6257 7.06331 32.4757 6.38331 32.4557C5.40009 32.3912 4.44246 32.1148 3.57613 31.6454C2.70981 31.176 1.95532 30.5247 1.36443 29.7362C0.773534 28.9477 0.360236 28.0407 0.152908 27.0774C-0.0544188 26.1141 -0.0508711 25.1174 0.163307 24.1557C0.479615 22.7386 1.23802 21.4587 2.32903 20.5007C3.42005 19.5427 4.78725 18.9561 6.23331 18.8257C6.58331 18.7757 7.23331 19.1557 7.23331 18.2657C7.23331 17.3757 6.64331 17.7257 6.23331 17.6257C5.82331 17.5257 5.70331 17.5157 5.44331 17.4557C4.41787 17.1809 3.46991 16.6726 2.67365 15.9704C1.87738 15.2683 1.2544 14.3915 0.853455 13.4085C0.452511 12.4255 0.284483 11.363 0.362526 10.3043C0.440569 9.24555 0.762561 8.21924 1.30331 7.30566C1.52331 6.94566 1.77331 6.60566 2.23331 6.84566C2.69331 7.08566 2.54331 7.49566 2.31331 7.84566C2.20357 8.02351 2.10343 8.20711 2.01331 8.39566C1.53258 9.39159 1.35861 10.5079 1.51351 11.6029C1.66841 12.6979 2.14519 13.7221 2.88331 14.5457C3.5984 15.3968 4.55302 16.0132 5.62307 16.3146C6.69312 16.616 7.8291 16.5885 8.88331 16.2357C9.94867 15.9299 10.8947 15.3049 11.5938 14.4448C12.2929 13.5847 12.7116 12.531 12.7933 11.4257C12.9439 10.3897 12.7885 9.3324 12.3461 8.38367C11.9037 7.43493 11.1937 6.63619 10.3033 6.08566C9.44641 5.48649 8.43696 5.14301 7.39246 5.09521C6.34795 5.04742 5.31135 5.29725 4.40331 5.81566C3.99331 6.02566 3.55331 6.35566 3.25331 5.81566C2.95331 5.27566 3.51331 5.04566 3.89331 4.81566C4.67852 4.36968 5.55282 4.10329 6.45331 4.03566C6.93331 4.03566 7.16331 3.91566 7.19331 3.31566C7.205 2.50147 7.51821 1.72054 8.07235 1.12391C8.62649 0.527281 9.3822 0.157354 10.1933 0.0856627C10.9711 0.01391 11.7524 -0.0128031 12.5333 0.00566091C17.2633 0.00566091 21.9833 0.00566091 26.7133 0.00566091C29.0733 0.00566091 30.3933 1.15566 30.6033 3.45566C30.6533 4.01566 30.9733 3.97566 31.3033 4.00566C32.6868 4.1503 33.9958 4.70384 35.0633 5.59566C36.2739 6.67812 37.1164 8.11144 37.4733 9.69566V12.0357C36.4733 15.3157 34.4733 17.3757 30.9533 17.6657C30.7333 17.6657 30.6533 17.7957 30.6233 18.0057C30.5133 18.6257 30.7833 18.8157 31.3933 18.8757C32.5795 18.9476 33.724 19.3399 34.7049 20.0109C35.6857 20.6818 36.4663 21.6062 36.9633 22.6857C37.2237 23.278 37.4475 23.8858 37.6333 24.5057V27.0357C37.3733 27.0357 37.4733 27.3157 37.4233 27.4657C37.0864 28.7486 36.3746 29.902 35.3788 30.7784C34.3831 31.6548 33.1487 32.2144 31.8333 32.3857C30.9133 32.5357 30.7533 32.7857 30.7633 33.6157C30.8276 34.4844 30.5499 35.3439 29.9894 36.0108C29.429 36.6778 28.6302 37.0993 27.7633 37.1857H10.5733C10.3733 37.1457 10.2233 37.1557 10.1633 37.3357ZM18.9633 33.9257H26.5433C26.8633 33.9257 27.2133 34.0157 27.4033 33.6257C27.5373 33.2158 27.556 32.7769 27.4572 32.3571C27.3584 31.9373 27.146 31.5528 26.8433 31.2457C25.7412 30.4842 24.891 29.4117 24.4012 28.1649C23.9114 26.9181 23.8042 25.5536 24.0933 24.2457C24.1633 23.8357 24.2933 23.4357 24.8033 23.5257C25.3133 23.6157 25.3733 23.9657 25.2333 24.4257C25.11 24.9529 25.0762 25.4972 25.1333 26.0357C25.2247 27.4276 25.8242 28.7374 26.8178 29.7164C27.8115 30.6953 29.1302 31.2751 30.5233 31.3457C31.9709 31.4279 33.3957 30.9573 34.5095 30.0291C35.6233 29.1009 36.3431 27.7843 36.5233 26.3457C36.6888 24.9901 36.3604 23.6203 35.5983 22.4872C34.8361 21.3541 33.6912 20.5334 32.3733 20.1757C31.3225 19.849 30.1986 19.8409 29.1432 20.1523C28.0878 20.4638 27.1484 21.0808 26.4433 21.9257C26.1633 22.2357 25.8733 22.5457 25.4433 22.1957C25.0133 21.8457 25.2833 21.4957 25.5633 21.1957C25.949 20.7153 26.4245 20.3145 26.9633 20.0157C27.1663 19.9214 27.3318 19.7618 27.4333 19.5624C27.5348 19.363 27.5665 19.1352 27.5233 18.9157C27.4833 18.5267 27.4833 18.1346 27.5233 17.7457C27.5623 17.4714 27.5173 17.1917 27.3941 16.9435C27.2709 16.6954 27.0754 16.4904 26.8333 16.3557C25.797 15.6455 24.9867 14.6524 24.4991 13.4946C24.0115 12.3368 23.8672 11.0632 24.0833 9.82565C24.1927 8.88671 24.5074 7.98336 25.0051 7.17972C25.5029 6.37608 26.1714 5.69187 26.9633 5.17566C27.1889 5.03041 27.3577 4.81206 27.4414 4.55718C27.5252 4.3023 27.5188 4.02638 27.4233 3.77566C27.3033 3.17566 26.7733 3.39566 26.4233 3.35566C26.2433 3.35566 26.0633 3.35566 25.8833 3.35566C25.3433 3.35566 24.9433 3.35566 24.7633 4.03566C24.6628 4.308 24.4747 4.53925 24.2286 4.6931C23.9824 4.84695 23.6921 4.91468 23.4033 4.88566H14.7333C14.1933 4.88566 13.5933 4.71566 13.4533 4.20566C13.1933 3.20566 12.5133 3.30566 11.8033 3.36566C11.3933 3.36566 10.8033 3.12566 10.6633 3.76566C10.5645 4.03028 10.5615 4.32112 10.6546 4.58777C10.7478 4.85442 10.9313 5.08009 11.1733 5.22566C12.0595 5.81574 12.7926 6.60822 13.3119 7.53763C13.8313 8.46704 14.122 9.50669 14.1601 10.5707C14.1982 11.6347 13.9826 12.6925 13.5311 13.6566C13.0795 14.6208 12.405 15.4637 11.5633 16.1157C11.2173 16.3324 10.9428 16.6461 10.7738 17.0177C10.6049 17.3894 10.5491 17.8025 10.6133 18.2057C10.6433 18.4447 10.6433 18.6866 10.6133 18.9257C10.5688 19.2186 10.6103 19.5182 10.7328 19.7881C10.8552 20.0579 11.0535 20.2863 11.3033 20.4457C12.0503 21.0555 12.6566 21.8196 13.0807 22.6857C13.5048 23.5517 13.7367 24.4992 13.7604 25.4632C13.7842 26.4272 13.5992 27.385 13.2183 28.2709C12.8373 29.1567 12.2694 29.9498 11.5533 30.5957C11.2114 30.8726 10.9418 31.2284 10.7676 31.6325C10.5934 32.0366 10.5199 32.4769 10.5533 32.9157C10.5533 33.7157 10.8533 33.9157 11.6233 33.9157C14.0733 33.9257 16.5133 33.9257 18.9633 33.9257ZM25.1133 10.8657C25.1185 12.3697 25.717 13.8109 26.7786 14.8763C27.8402 15.9416 29.2793 16.5451 30.7833 16.5557C32.3024 16.5452 33.7563 15.9371 34.8305 14.8629C35.9047 13.7887 36.5128 12.3348 36.5233 10.8157C36.5181 10.0629 36.3639 9.31855 36.0694 8.6257C35.775 7.93285 35.3463 7.30519 34.8079 6.77895C34.2696 6.2527 33.6324 5.83831 32.933 5.55969C32.2337 5.28108 31.486 5.14375 30.7333 5.15565C29.988 5.1556 29.2502 5.30352 28.5625 5.59082C27.8748 5.87812 27.2511 6.29908 26.7273 6.82932C26.2036 7.35955 25.7904 7.98848 25.5116 8.67964C25.2328 9.3708 25.094 10.1104 25.1033 10.8557L25.1133 10.8657ZM12.5633 25.6457C12.5728 24.8893 12.4303 24.1388 12.1443 23.4386C11.8584 22.7383 11.4347 22.1026 10.8984 21.5692C10.3622 21.0357 9.7243 20.6154 9.02258 20.3331C8.32085 20.0508 7.56958 19.9122 6.81331 19.9257C5.31105 19.9362 3.87345 20.5383 2.8121 21.6015C1.75075 22.6647 1.15117 24.1034 1.14331 25.6057C1.1486 27.1245 1.75569 28.5794 2.83157 29.6515C3.90746 30.7237 5.36442 31.3257 6.88331 31.3257C7.63184 31.3337 8.37442 31.1919 9.0673 30.9086C9.76018 30.6253 10.3893 30.2061 10.9177 29.6759C11.4461 29.1456 11.863 28.515 12.1439 27.8211C12.4248 27.1272 12.564 26.3842 12.5533 25.6357L12.5633 25.6457ZM28.6833 4.27566C29.7733 4.06566 29.8733 3.91566 29.5433 2.87566C29.4127 2.34282 29.0912 1.87642 28.6396 1.56492C28.188 1.25341 27.6378 1.11846 27.0933 1.18566C22.7633 1.18566 18.4333 1.18566 14.0933 1.18566C12.9433 1.18566 11.8033 1.18566 10.6633 1.18566C10.04 1.20657 9.44999 1.47234 9.02131 1.92536C8.59263 2.37838 8.35981 2.98211 8.37331 3.60566C8.37331 4.16566 8.76331 4.11566 9.06331 4.23566C9.36331 4.35566 9.40331 4.23566 9.45331 3.95566C9.70331 2.66566 10.0833 2.22566 11.1033 2.20566C12.1233 2.18566 12.9833 1.92566 13.8333 2.47566C13.9192 2.53469 13.9927 2.61014 14.0493 2.69767C14.1059 2.7852 14.1447 2.88308 14.1633 2.98566C14.2533 3.72566 14.7133 3.75566 15.3133 3.74566C17.7533 3.74566 20.1833 3.74566 22.6233 3.74566C23.2633 3.74566 23.7833 3.74566 23.9133 2.92566C23.9833 2.43566 24.4533 2.22566 24.9133 2.19566C25.3733 2.16566 25.7533 2.19566 26.1733 2.19566C27.9633 2.18566 28.3933 2.50566 28.6733 4.26566L28.6833 4.27566ZM9.45331 32.1057C8.45331 32.2957 8.45331 32.2957 8.45331 32.6257C8.25331 34.6957 9.01331 36.1557 11.3033 36.1157C16.4733 36.0457 21.6533 36.1157 26.8233 36.1157C28.9233 36.1157 29.7233 35.2557 29.7333 33.1157C29.7333 32.5357 29.5533 32.2757 28.9933 32.2557C28.4333 32.2357 28.6833 32.7957 28.6733 33.0357C28.6133 34.4657 28.0633 35.0857 26.6733 35.0957H11.4333C11.1605 35.1407 10.8809 35.12 10.6177 35.0354C10.3545 34.9508 10.1152 34.8047 9.91975 34.6092C9.72425 34.4137 9.57815 34.1745 9.49355 33.9112C9.40896 33.648 9.38831 33.3684 9.43331 33.0957L9.45331 32.1057ZM9.45331 19.2257C9.47883 18.8227 9.47883 18.4186 9.45331 18.0157C9.45331 17.8157 9.70331 17.3957 9.20331 17.4357C8.70331 17.4757 8.43331 17.4357 8.38331 18.0257C8.30331 18.8057 8.55331 19.2057 9.45331 19.2157V19.2257ZM28.6133 19.0957C29.2133 19.0257 29.7233 19.0357 29.6833 18.1757C29.6433 17.3157 29.0933 17.5057 28.6133 17.4157V19.0957Z" fill="#EF4C23"/>
<path d="M27.7133 37.1856C27.7227 37.2352 27.7227 37.2861 27.7133 37.3356H10.1633C10.2233 37.1556 10.3733 37.1456 10.5233 37.1456L27.7133 37.1856Z" fill="#EF4C23"/>
<path d="M11.0733 10.8157C11.0733 11.5357 11.0733 12.2657 11.0733 12.9857C11.0926 13.1895 11.0697 13.395 11.006 13.5896C10.9423 13.7841 10.8392 13.9635 10.7032 14.1164C10.5671 14.2693 10.401 14.3926 10.2152 14.4785C10.0295 14.5644 9.82795 14.6111 9.62331 14.6157C8.04331 14.6857 6.4433 14.6857 4.8533 14.6157C4.66336 14.6132 4.47584 14.5726 4.30186 14.4963C4.12789 14.42 3.97099 14.3096 3.84045 14.1716C3.7099 14.0336 3.60838 13.8708 3.54188 13.6929C3.47538 13.515 3.44526 13.3255 3.4533 13.1357C3.4533 11.6057 3.4533 10.0657 3.4533 8.53568C3.45705 8.32383 3.50338 8.11488 3.58952 7.92129C3.67567 7.7277 3.79987 7.55342 3.95474 7.40881C4.10962 7.2642 4.29199 7.15221 4.49103 7.07952C4.69006 7.00683 4.90169 6.97492 5.1133 6.98568C6.5533 6.98568 7.9933 6.98568 9.4333 6.98568C9.65152 6.98151 9.8683 7.02175 10.0705 7.10395C10.2727 7.18616 10.456 7.3086 10.6094 7.46386C10.7628 7.61912 10.883 7.80396 10.9628 8.00712C11.0425 8.21028 11.0801 8.42754 11.0733 8.64569C11.0933 9.37569 11.0733 10.0957 11.0733 10.8157ZM7.2633 13.5157C7.8933 13.5157 8.5233 13.5157 9.1533 13.5157C9.7833 13.5157 9.9833 13.3257 9.9733 12.7357C9.9733 11.4757 9.9733 10.2157 9.9733 8.95568C9.9733 8.31568 9.6833 8.10568 9.1033 8.10568C7.8633 8.10568 6.6333 8.10568 5.4033 8.10568C4.8033 8.10568 4.5333 8.34568 4.5433 8.96568C4.5433 10.199 4.5433 11.429 4.5433 12.6557C4.5433 13.2657 4.73331 13.5557 5.37331 13.5157C6.01331 13.4757 6.6333 13.5157 7.2633 13.5157Z" fill="#EF4C23"/>
<path d="M19.0433 13.6656C20.0559 13.6753 21.0416 13.9921 21.8702 14.5742C22.6987 15.1564 23.331 15.9763 23.6833 16.9256C24.0173 17.8656 24.0624 18.8841 23.8129 19.8499C23.5634 20.8158 23.0307 21.6849 22.2833 22.3456C21.5366 23.0339 20.5894 23.4653 19.5801 23.5768C18.5708 23.6884 17.5522 23.4742 16.6733 22.9656C16.4486 22.8061 16.1847 22.7106 15.9099 22.6895C15.6351 22.6684 15.3598 22.7223 15.1133 22.8456C14.9358 22.9604 14.7247 23.012 14.5142 22.9921C14.3037 22.9721 14.1061 22.8818 13.9533 22.7356C13.8136 22.5921 13.7252 22.4066 13.7017 22.2077C13.6782 22.0088 13.7209 21.8078 13.8233 21.6356C14.1622 20.7785 14.2658 19.8463 14.1233 18.9356C14.0721 18.26 14.1616 17.5812 14.3861 16.9419C14.6106 16.3027 14.9652 15.7169 15.4276 15.2217C15.8899 14.7264 16.45 14.3324 17.0723 14.0646C17.6947 13.7968 18.3658 13.6609 19.0433 13.6656ZM15.3033 21.5556C16.0133 21.2156 16.5533 21.5556 17.1333 21.9256C17.8792 22.3586 18.7504 22.5241 19.6031 22.3951C20.4558 22.266 21.239 21.8499 21.8233 21.2156C22.4077 20.5829 22.7605 19.7708 22.8241 18.9117C22.8876 18.0527 22.6582 17.1975 22.1733 16.4856C21.6938 15.7676 20.9817 15.2366 20.1568 14.9816C19.3319 14.7267 18.4443 14.7634 17.6433 15.0856C16.834 15.3888 16.1546 15.9629 15.7207 16.7104C15.2868 17.4578 15.1252 18.3325 15.2633 19.1856C15.4365 19.9139 15.4018 20.6761 15.1633 21.3856L15.1033 21.5556H15.3033Z" fill="#EF4C23"/>
<path d="M28.6833 25.6957C28.6833 25.0057 28.6833 24.3157 28.6833 23.6257C28.6833 22.9357 29.2433 22.5157 29.9733 22.9157C31.1733 23.5824 32.3633 24.2724 33.5433 24.9857C34.2333 25.4057 34.2233 26.0457 33.5433 26.4657C32.3733 27.1857 31.1833 27.8757 29.9733 28.5257C29.2633 28.9157 28.7433 28.5957 28.7033 27.7657C28.6633 26.9357 28.6833 26.3857 28.6833 25.6957ZM29.8933 24.1957V27.2657L32.5533 25.7057L29.8933 24.1957Z" fill="#EF4C23"/>
<path d="M29.7133 13.0857C29.7133 12.8157 29.7133 12.5457 29.7133 12.2757C29.7133 11.7057 29.8233 11.1057 28.9033 11.2157C28.8265 11.2235 28.749 11.2141 28.6763 11.1883C28.6035 11.1624 28.5375 11.1206 28.4829 11.0661C28.4284 11.0115 28.3866 10.9454 28.3607 10.8727C28.3349 10.8 28.3255 10.7225 28.3333 10.6457C28.3285 10.5615 28.3431 10.4774 28.376 10.3998C28.4089 10.3222 28.4591 10.2532 28.5229 10.1981C28.5867 10.143 28.6623 10.1034 28.7439 10.0821C28.8254 10.0609 28.9108 10.0587 28.9933 10.0757C29.7233 10.1857 29.7233 9.78569 29.7233 9.24569C29.7233 7.24569 30.7233 6.45568 32.6633 6.84568C32.9833 6.91568 33.2433 7.05569 33.2633 7.41569C33.2833 7.77569 33.0233 7.93568 32.7133 8.01568C32.564 8.03586 32.4126 8.03586 32.2633 8.01568C30.8533 8.01568 30.9233 7.85569 30.9033 9.38569C30.9033 9.86569 30.9733 10.1257 31.5233 10.0557C32.0733 9.98569 32.2733 10.1857 32.2933 10.6157C32.2975 10.7073 32.2803 10.7987 32.243 10.8825C32.2057 10.9663 32.1494 11.0402 32.0785 11.0985C32.0077 11.1567 31.9242 11.1977 31.8348 11.218C31.7453 11.2383 31.6524 11.2375 31.5633 11.2157C30.9433 11.1557 30.8833 11.4657 30.9033 11.9657C30.9033 12.7757 30.9033 13.5857 30.9033 14.3957C30.9033 14.8457 30.7533 15.2157 30.2733 15.1957C29.7933 15.1757 29.6933 14.8257 29.7033 14.4257L29.7133 13.0857Z" fill="#EF4C23"/>
<path d="M3.88327 26.9857C3.40604 26.5519 3.05954 25.9934 2.88284 25.3732C2.70615 24.753 2.70629 24.0958 2.88327 23.4757C3.09327 22.6657 3.61327 22.4757 4.26327 23.0057C4.4853 23.2029 4.71905 23.3866 4.96327 23.5557C5.39327 23.7957 5.77327 24.0257 6.05327 23.2657C6.1831 22.9235 6.42176 22.6334 6.73252 22.4401C7.04328 22.2468 7.40894 22.1609 7.77327 22.1957C8.60327 22.1957 9.32327 22.7657 10.2533 22.6157C10.8433 22.5257 11.0033 23.3557 10.7833 23.8957C10.351 25.0382 9.82939 26.145 9.22327 27.2057C8.63463 27.9598 7.83771 28.5247 6.9312 28.8304C6.02469 29.1362 5.04841 29.1693 4.12327 28.9257C3.88532 28.882 3.66479 28.7713 3.48763 28.6065C3.31048 28.4418 3.18407 28.2298 3.12327 27.9957C2.96327 27.4157 3.43327 27.2057 3.88327 26.9857ZM9.69327 23.8457C9.25465 23.8676 8.81682 23.7889 8.41327 23.6157C7.59327 23.1157 7.17327 23.3257 7.02327 24.2957C6.92327 24.9257 6.61327 25.0957 6.02327 25.0457C5.31495 24.9487 4.63416 24.707 4.02327 24.3357C3.95183 24.7254 4.00405 25.1278 4.1726 25.4864C4.34115 25.845 4.6176 26.1419 4.96327 26.3357C5.24327 26.5357 5.65327 26.5957 5.73327 27.0257C5.81327 27.4557 5.29327 27.5857 5.12327 27.9257C5.86772 28.0268 6.62472 27.8786 7.27601 27.5041C7.92731 27.1296 8.43623 26.5499 8.72327 25.8557C8.9236 25.133 9.25215 24.4521 9.69327 23.8457Z" fill="#EF4C23"/>
<path d="M19.5633 2.31568C19.5633 2.79568 19.3733 3.00569 19.0133 3.00569C18.9375 3.0109 18.8615 2.99912 18.7909 2.97122C18.7203 2.94331 18.6568 2.89999 18.605 2.84441C18.5533 2.78883 18.5146 2.72239 18.4918 2.64994C18.469 2.5775 18.4627 2.50088 18.4733 2.42568C18.4733 2.29479 18.5246 2.1691 18.6162 2.07562C18.7078 1.98213 18.8324 1.9283 18.9633 1.92568C19.0284 1.90959 19.0962 1.90704 19.1623 1.9182C19.2285 1.92936 19.2916 1.95397 19.3479 1.99053C19.4041 2.0271 19.4523 2.07482 19.4893 2.13075C19.5264 2.18668 19.5516 2.24963 19.5633 2.31568Z" fill="#EF4C23"/>
<path d="M15.3033 21.5557H15.1033L15.1633 21.3857L15.3033 21.5557Z" fill="#EF4C23"/>
<path d="M7.26326 9.16565C7.70005 9.17091 8.11715 9.34812 8.42415 9.65886C8.73115 9.9696 8.90329 10.3888 8.90326 10.8256C8.90458 11.0432 8.86287 11.2588 8.78054 11.4601C8.69821 11.6615 8.57688 11.8446 8.42353 11.9988C8.27018 12.1531 8.08784 12.2756 7.887 12.3591C7.68616 12.4426 7.47078 12.4856 7.25326 12.4856C7.03666 12.4857 6.82222 12.4425 6.62248 12.3588C6.42273 12.275 6.24169 12.1522 6.08994 11.9977C5.93818 11.8431 5.81875 11.6599 5.73862 11.4586C5.65849 11.2574 5.61928 11.0422 5.62326 10.8256C5.62194 10.609 5.66331 10.3941 5.74502 10.1935C5.82673 9.99276 5.94716 9.81012 6.09945 9.65598C6.25174 9.50183 6.4329 9.37919 6.63259 9.29506C6.83227 9.21093 7.04658 9.16696 7.26326 9.16565ZM7.26326 10.3156C6.99326 10.3156 6.75325 10.4756 6.73325 10.8056C6.72611 10.8736 6.73357 10.9423 6.75511 11.0071C6.77666 11.072 6.81179 11.1315 6.85818 11.1817C6.90457 11.2318 6.96113 11.2715 7.02409 11.2981C7.08705 11.3246 7.15495 11.3374 7.22326 11.3356C7.29107 11.3456 7.36024 11.341 7.4261 11.322C7.49197 11.3031 7.55301 11.2702 7.60512 11.2257C7.65723 11.1812 7.69919 11.126 7.7282 11.0639C7.7572 11.0018 7.77256 10.9342 7.77326 10.8656C7.80326 10.5556 7.58326 10.3756 7.26326 10.3156Z" fill="#EF4C23"/>
<path d="M19.6533 20.2056C19.2953 20.2302 18.9367 20.1684 18.6076 20.0255C18.2785 19.8826 17.9886 19.6627 17.7622 19.3843C17.5358 19.106 17.3796 18.7774 17.3067 18.426C17.2338 18.0747 17.2463 17.7111 17.3433 17.3656C17.4933 16.9756 17.6733 16.5956 18.1733 16.7556C18.6733 16.9156 18.6333 17.3256 18.4333 17.7056C18.1233 18.2756 18.4933 18.5056 18.9033 18.7656C19.3133 19.0256 19.7333 19.2856 20.1533 18.7656C20.4133 18.4256 20.7333 18.1556 21.1533 18.5356C21.5733 18.9156 21.2333 19.3056 20.9533 19.6156C20.7997 19.811 20.6015 19.9665 20.3752 20.0692C20.149 20.1719 19.9014 20.2187 19.6533 20.2056Z" fill="#EF4C23"/>
</svg>
