<svg width="36" height="36" viewBox="0 0 36 36" fill="none" xmlns="http://www.w3.org/2000/svg">
<path d="M20.0712 22.6265C20.6896 21.6349 21.5114 20.7858 22.4823 20.1353C23.4531 19.4848 24.551 19.0478 25.7032 18.853C26.8555 18.6582 28.036 18.7101 29.1668 19.0054C30.2975 19.3006 31.3527 19.8324 32.2627 20.5657C33.1726 21.2989 33.9167 22.2169 34.4456 23.259C34.9745 24.3011 35.2763 25.4436 35.331 26.6109C35.3856 27.7783 35.192 28.9439 34.7628 30.0309C34.3336 31.1179 33.6787 32.1014 32.8412 32.9165C29.5912 36.1065 23.7412 36.4065 20.0712 31.4965C20.0712 32.1665 20.0712 32.6965 20.0712 33.2165C20.1026 33.4956 20.071 33.7781 19.9788 34.0433C19.8867 34.3085 19.7363 34.5498 19.5387 34.7493C19.3411 34.9488 19.1014 35.1015 18.8371 35.1962C18.5727 35.2909 18.2905 35.3252 18.0112 35.2965C12.6779 35.2965 7.34455 35.2965 2.01122 35.2965C1.74123 35.3267 1.46791 35.2958 1.21151 35.2059C0.955122 35.1161 0.722243 34.9697 0.530141 34.7776C0.338038 34.5855 0.191642 34.3526 0.101811 34.0962C0.0119808 33.8398 -0.0189825 33.5665 0.0112198 33.2965C0.0112198 25.4665 0.0112198 17.6465 0.0112198 9.82653C0.0576327 7.17437 1.15572 4.64927 3.0639 2.80672C4.97208 0.964179 7.53406 -0.0448798 10.1862 0.00153307C12.8384 0.047946 15.3635 1.14602 17.206 3.05421C19.0486 4.96239 20.0576 7.52437 20.0112 10.1765C20.0112 13.9665 20.0112 17.7565 20.0112 21.5465L20.0712 22.6265ZM18.8312 14.8665C16.6712 18.1965 13.8312 19.9665 10.1012 19.9865C8.35618 20.0165 6.63423 19.5846 5.10989 18.7346C3.58555 17.8846 2.31301 16.6468 1.42122 15.1465C1.35122 15.1465 1.31122 15.2065 1.31122 15.2165C1.31122 19.3765 1.31122 23.5265 1.31122 27.6765C1.31122 28.1065 1.49122 28.1665 1.85122 28.1665C3.05122 28.1665 4.25122 28.1665 5.46122 28.1665C5.87122 28.1665 5.99123 28.0265 6.11123 27.6465C6.36376 26.7949 6.88478 26.0477 7.5966 25.5163C8.30843 24.9849 9.17293 24.6978 10.0612 24.6978C10.9495 24.6978 11.814 24.9849 12.5258 25.5163C13.2377 26.0477 13.7587 26.7949 14.0112 27.6465C14.0406 27.8188 14.1371 27.9724 14.2796 28.0737C14.422 28.1749 14.5989 28.2155 14.7712 28.1865C15.9412 28.1865 17.1212 28.1865 18.2912 28.1865C18.6912 28.1865 18.8712 28.1265 18.8712 27.6565C18.8212 23.4565 18.8312 19.2765 18.8312 14.8665ZM10.0012 34.0565C12.5812 34.0565 15.1712 34.0565 17.7512 34.0565C18.4912 34.0565 18.8812 33.8665 18.8412 33.0565C18.8412 32.0565 18.8412 31.0065 18.8412 29.9865C18.8412 29.5165 18.7112 29.3665 18.2412 29.3765C17.1512 29.3765 16.0712 29.3765 14.9912 29.3765C14.872 29.3506 14.7487 29.3494 14.6291 29.373C14.5094 29.3967 14.3958 29.4447 14.2955 29.5141C14.1952 29.5835 14.1102 29.6728 14.0458 29.7764C13.9814 29.8801 13.939 29.9958 13.9212 30.1165C13.6941 30.9049 13.2217 31.6003 12.5726 32.102C11.9234 32.6037 11.1313 32.8855 10.3112 32.9065C8.70122 33.0165 7.13122 32.4265 6.60122 30.9065C6.02122 29.2365 4.96122 29.3165 3.69122 29.3865C3.08839 29.4215 2.48405 29.4215 1.88122 29.3865C1.41122 29.3865 1.26122 29.5165 1.28122 29.9865C1.28122 30.9865 1.28122 31.9865 1.28122 33.0565C1.28122 33.8765 1.60122 34.0565 2.34122 34.0565C4.89122 34.0465 7.49123 34.0565 10.0012 34.0565ZM10.0012 18.7665C11.7407 18.7744 13.4433 18.2655 14.8931 17.3042C16.3429 16.343 17.4744 14.9727 18.1442 13.3673C18.814 11.762 18.9918 9.99382 18.6551 8.28722C18.3185 6.58062 17.4824 5.01249 16.2531 3.78178C15.0238 2.55106 13.4566 1.71324 11.7504 1.3746C10.0442 1.03597 8.27586 1.21178 6.66972 1.87973C5.06358 2.54768 3.69204 3.67768 2.72912 5.12634C1.7662 6.57501 1.25529 8.27705 1.26122 10.0165C1.26652 12.339 2.19284 14.5646 3.83696 16.2049C5.48108 17.8453 7.70874 18.7665 10.0312 18.7665H10.0012ZM33.7412 28.8965C32.4067 29.0115 31.0649 28.7866 29.8408 28.2428C28.6168 27.6989 27.5504 26.8539 26.7412 25.7865C26.3312 25.2565 26.1712 25.6665 25.9612 25.8965C25.7512 26.1265 25.2012 26.3165 25.8212 26.7465C26.9228 27.5463 27.77 28.647 28.2612 29.9165C28.7778 31.106 28.9974 32.4033 28.9012 33.6965C30.0778 33.4258 31.1561 32.8337 32.0159 31.9862C32.8758 31.1387 33.4835 30.0691 33.7712 28.8965H33.7412ZM31.2612 23.5765C30.1324 23.5932 29.0217 23.8632 28.0112 24.3665C27.5412 24.5665 27.4412 24.7665 27.8012 25.1965C28.8836 26.5117 30.4232 27.369 32.1112 27.5965C34.1112 27.9165 34.3812 27.6865 33.9212 25.6865C33.4612 23.6865 33.4912 23.6165 31.2912 23.5765H31.2612ZM23.8212 31.2265C23.8146 31.822 23.8784 32.4161 24.0112 32.9965C24.0335 33.1271 24.0909 33.249 24.1772 33.3494C24.2635 33.4499 24.3755 33.5249 24.5012 33.5665C25.3424 33.8829 26.2326 34.0487 27.1312 34.0565C27.4212 34.0565 27.6112 34.0565 27.6812 33.6565C27.7531 32.5516 27.5685 31.4449 27.1417 30.4231C26.715 29.4014 26.0577 28.4921 25.2212 27.7665C24.8112 27.4865 24.6812 27.6265 24.5212 28.0065C24.0559 29.0149 23.8267 30.1162 23.8512 31.2265H23.8212ZM25.1112 20.3665C24.0548 20.6452 23.0821 21.1768 22.2772 21.9156C21.4723 22.6543 20.8593 23.5779 20.4912 24.6065C20.3812 24.9965 20.3912 25.2165 20.9112 25.1865C21.5874 25.0866 22.2779 25.1695 22.9112 25.4265C24.2412 26.1665 24.9112 25.2965 25.6512 24.5065C25.7299 24.4437 25.784 24.3552 25.8041 24.2565C25.8242 24.1578 25.809 24.0552 25.7612 23.9665C25.3647 22.8071 25.1554 21.5918 25.1412 20.3665H25.1112ZM22.6312 32.4965C22.5242 31.1993 22.622 29.8933 22.9212 28.6265C23.0612 28.0265 23.9212 27.4365 23.3312 26.8665C22.7412 26.2965 22.0412 26.4865 21.3312 26.3965C21.0614 26.3816 20.791 26.3816 20.5212 26.3965C20.1512 26.3965 20.0112 26.5565 20.0012 26.9365C19.9909 28.0048 20.2253 29.0613 20.6863 30.0251C21.1474 30.9888 21.823 31.8342 22.6612 32.4965H22.6312ZM32.2412 22.3465C31.3568 21.2706 30.1334 20.5267 28.7712 20.2365C26.1212 19.7465 26.1612 19.6565 26.5412 22.2365C26.5412 22.5565 26.6812 22.8765 26.7612 23.2365C26.8412 23.5965 26.9512 23.6265 27.2612 23.4565C28.7925 22.6199 30.5298 22.235 32.2712 22.3465H32.2412ZM12.7812 29.3465H7.68123C7.20123 29.3465 7.22123 29.5265 7.36123 29.8965C7.6084 30.4485 8.01663 30.9128 8.53235 31.2287C9.04808 31.5446 9.64723 31.6972 10.2512 31.6665C10.8719 31.629 11.4619 31.3837 11.9263 30.9701C12.3907 30.5566 12.7024 29.9988 12.8112 29.3865L12.7812 29.3465ZM12.7812 28.1165C12.6795 27.5286 12.3859 26.9908 11.9463 26.5874C11.5067 26.1839 10.9457 25.9375 10.3512 25.8865C9.73645 25.8018 9.11081 25.9199 8.56934 26.2232C8.02787 26.5264 7.60017 26.9981 7.35122 27.5665C7.21122 27.9065 7.13122 28.1265 7.64122 28.1265L12.7812 28.1165Z" fill="#EF4C23"/>
<path d="M30.3412 4.09655C30.5412 3.55655 30.1012 3.22655 29.7712 2.83655C29.1812 2.14655 29.2912 1.74654 30.1812 1.53654C30.5029 1.48473 30.809 1.36179 31.0771 1.17669C31.3453 0.991581 31.5687 0.748968 31.7312 0.466543C32.0712 -0.113457 32.5812 -0.153457 32.9412 0.466543C33.1235 0.770646 33.3702 1.03117 33.6639 1.22983C33.9575 1.4285 34.2911 1.56049 34.6412 1.61654C35.3712 1.76654 35.5412 2.24655 35.0212 2.76655C34.7732 2.99822 34.5853 3.28683 34.4737 3.60742C34.3622 3.92801 34.3305 4.27093 34.3812 4.60654C34.4512 5.28654 34.0712 5.51655 33.3812 5.27655C33.1087 5.13008 32.8079 5.0436 32.4992 5.0229C32.1905 5.0022 31.8809 5.04777 31.5912 5.15655C30.4912 5.58655 30.2812 5.34655 30.3412 4.09655ZM32.3412 1.75654C31.4412 2.81654 31.3412 2.87655 31.6112 3.41655C31.8812 3.95655 32.6112 3.26655 33.0712 3.91655C33.0335 3.6607 33.0605 3.39949 33.1495 3.15671C33.2386 2.91393 33.387 2.6973 33.5812 2.52655C32.9412 2.52655 32.6712 2.10655 32.3512 1.76655L32.3412 1.75654Z" fill="#EF4C23"/>
<path d="M23.8712 13.4666C24.0612 12.9466 23.6812 12.5966 23.3512 12.1966C22.7112 11.4466 22.8212 11.0166 23.7512 10.8366C24.0574 10.7883 24.3493 10.6739 24.6067 10.5011C24.864 10.3284 25.0806 10.1016 25.2412 9.83657C25.6912 9.15657 26.1112 9.14657 26.5512 9.83657C26.7076 10.1032 26.9217 10.3314 27.1778 10.5044C27.4339 10.6775 27.7255 10.791 28.0312 10.8366C28.9812 11.0166 29.1112 11.4866 28.4512 12.1966C28.2389 12.3802 28.0783 12.6162 27.9853 12.8811C27.8923 13.1459 27.8703 13.4305 27.9212 13.7066C28.0612 14.4866 27.6812 14.8166 26.9212 14.5466C26.6042 14.4151 26.2644 14.3474 25.9212 14.3474C25.578 14.3474 25.2382 14.4151 24.9212 14.5466C24.1012 14.8366 23.8412 14.5466 23.8712 13.4666ZM25.2712 13.0366C26.0912 13.1566 26.8712 12.9466 26.9212 11.9666C26.9212 11.7166 26.0212 11.1166 25.8412 11.2166C25.2112 11.5866 24.4912 12.0966 25.2712 13.0366Z" fill="#EF4C23"/>
<path d="M10.0613 17.6466C8.03235 17.6466 6.08655 16.8406 4.65189 15.4059C3.21724 13.9713 2.41125 12.0255 2.41125 9.99656C2.41125 7.96765 3.21724 6.02184 4.65189 4.58719C6.08655 3.15254 8.03235 2.34656 10.0613 2.34656C11.0659 2.34656 12.0606 2.54443 12.9888 2.92888C13.9169 3.31333 14.7603 3.87682 15.4706 4.58719C16.181 5.29756 16.7445 6.14089 17.1289 7.06903C17.5134 7.99717 17.7113 8.99195 17.7113 9.99656C17.7113 11.0012 17.5134 11.9959 17.1289 12.9241C16.7445 13.8522 16.181 14.6956 15.4706 15.4059C14.7603 16.1163 13.9169 16.6798 12.9888 17.0642C12.0606 17.4487 11.0659 17.6466 10.0613 17.6466ZM3.64126 9.95656C3.64126 11.6592 4.31765 13.2922 5.52163 14.4962C6.72561 15.7002 8.35857 16.3766 10.0613 16.3766C11.7639 16.3766 13.3969 15.7002 14.6009 14.4962C15.8049 13.2922 16.4813 11.6592 16.4813 9.95656C16.4813 8.25387 15.8049 6.62091 14.6009 5.41693C13.3969 4.21295 11.7639 3.53655 10.0613 3.53655C8.35857 3.53655 6.72561 4.21295 5.52163 5.41693C4.31765 6.62091 3.64126 8.25387 3.64126 9.95656Z" fill="#EF4C23"/>
<path d="M8.32126 8.33651C8.30158 8.53512 8.36082 8.7335 8.48618 8.8888C8.61154 9.0441 8.79297 9.14385 8.99126 9.16652C9.61126 9.29652 10.2213 9.41651 10.8513 9.50651C11.3926 9.52452 11.9095 9.73635 12.3078 10.1034C12.706 10.4705 12.9592 10.9684 13.0213 11.5065C13.0603 12.0515 12.9049 12.5926 12.5827 13.0339C12.2604 13.4751 11.7922 13.7878 11.2613 13.9165C10.8713 14.0265 10.6313 14.1065 10.6613 14.5865C10.6613 14.6666 10.6455 14.7459 10.6148 14.82C10.5842 14.894 10.5392 14.9612 10.4826 15.0178C10.4259 15.0745 10.3587 15.1194 10.2847 15.1501C10.2107 15.1807 10.1314 15.1965 10.0513 15.1965C9.97115 15.1965 9.89183 15.1807 9.81782 15.1501C9.74381 15.1194 9.67656 15.0745 9.61992 15.0178C9.56327 14.9612 9.51835 14.894 9.48769 14.82C9.45704 14.7459 9.44125 14.6666 9.44125 14.5865C9.44125 14.1265 9.24126 14.0265 8.85126 14.0265C8.40098 13.9874 7.96607 13.8436 7.58125 13.6065C7.23125 13.4065 6.92125 13.1065 7.19125 12.6065C7.46125 12.1065 7.78126 12.2665 8.13126 12.4465C8.95716 12.8956 9.92507 13.0067 10.8313 12.7565C11.1134 12.7385 11.377 12.6095 11.5644 12.3978C11.7517 12.1861 11.8477 11.9088 11.8313 11.6265C11.8313 10.9865 11.3613 10.7865 10.8313 10.6965C10.3013 10.6065 9.71126 10.5265 9.15126 10.4065C7.85126 10.1165 7.24126 9.50651 7.15126 8.40651C7.10777 7.89049 7.24441 7.37533 7.53795 6.9487C7.83148 6.52208 8.26377 6.21033 8.76125 6.06652C9.20125 5.90652 9.61126 5.83652 9.52126 5.20652C9.52126 4.84652 9.79126 4.65651 10.1113 4.65651C10.1876 4.64955 10.2645 4.65861 10.3371 4.68311C10.4097 4.70761 10.4764 4.74702 10.5329 4.7988C10.5894 4.85059 10.6344 4.9136 10.6652 4.98381C10.6959 5.05403 10.7116 5.12988 10.7113 5.20652C10.6413 5.85652 11.0613 5.90651 11.5013 6.04651C12.0184 6.21864 12.4738 6.53847 12.8113 6.96651C13.0713 7.27651 13.2013 7.60651 12.8113 7.90651C12.7459 7.98117 12.6633 8.03877 12.5707 8.07429C12.478 8.10982 12.3781 8.12221 12.2796 8.11039C12.1811 8.09856 12.0869 8.06289 12.0053 8.00645C11.9237 7.95001 11.8571 7.87451 11.8113 7.78651C11.5215 7.47635 11.1498 7.25449 10.7393 7.14655C10.3288 7.03861 9.89613 7.049 9.49126 7.17652C8.86126 7.28652 8.34126 7.58651 8.32126 8.33651Z" fill="#EF4C23"/>
</svg>
