<svg width="29" height="38" viewBox="0 0 29 38" fill="none" xmlns="http://www.w3.org/2000/svg">
<path d="M2.01429 37.4665C1.92583 37.1896 1.89879 36.8968 1.93506 36.6084C1.97133 36.3199 2.07003 36.0429 2.22429 35.7965C5.72429 27.0499 9.23429 18.2999 12.7543 9.54653C12.9743 9.00653 12.9643 8.77653 12.4243 8.45653C11.8693 8.11357 11.4466 7.59289 11.2251 6.9792C11.0036 6.36551 10.9963 5.69491 11.2043 5.07652C11.3847 4.44987 11.7644 3.89907 12.2859 3.50752C12.8073 3.11596 13.4422 2.90498 14.0943 2.90653C14.7421 2.89682 15.3757 3.09711 15.9003 3.47746C16.4248 3.8578 16.8121 4.39774 17.0043 5.01653C17.2112 5.63446 17.2055 6.30386 16.9881 6.91817C16.7706 7.53248 16.3539 8.0564 15.8043 8.40653C15.2043 8.76653 15.2443 9.04653 15.4643 9.58653C19.011 18.3865 22.5476 27.1932 26.0743 36.0065C26.2141 36.2188 26.2886 36.4674 26.2886 36.7215C26.2886 36.9757 26.2141 37.2243 26.0743 37.4365H24.9543C24.3643 35.9365 23.7443 34.4365 23.2043 32.9465C23.1587 32.7461 23.0376 32.571 22.8664 32.4574C22.6951 32.3439 22.4866 32.3006 22.2843 32.3365C21.2843 32.3365 20.2343 32.3365 19.2143 32.3365C18.6743 32.3365 18.2143 32.1665 18.2143 31.5565C18.2143 30.9465 18.6543 30.7665 19.2143 30.7665C20.0243 30.7665 20.8343 30.7665 21.6443 30.7665C22.1843 30.7665 22.3343 30.6865 22.0943 30.1265C21.4343 28.5565 20.7943 26.9765 20.2043 25.3665C19.9743 24.7465 19.7143 24.7465 19.2043 25.0165C15.8943 26.7565 12.5643 28.4665 9.20429 30.1865L8.41429 30.6165C9.78443 30.7319 11.1595 30.7786 12.5343 30.7565C13.1343 30.7565 13.7743 30.7565 13.7543 31.5765C13.7343 32.3965 13.1143 32.3165 12.5543 32.3165C10.4543 32.3165 8.34429 32.3165 6.24429 32.3165C5.54429 32.3165 5.14429 32.4265 4.86429 33.1965C4.40392 34.6541 3.81146 36.0666 3.09429 37.4165L2.01429 37.4665ZM10.1843 20.5665L14.4443 16.5665C11.6243 16.4265 11.6243 16.4265 10.6743 18.8265C10.5143 19.2465 10.3143 19.6465 10.1743 20.0765C10.1243 20.2265 9.89429 20.4465 10.1743 20.6065L10.0243 20.4965V20.5665H10.1843ZM9.89429 22.9065H18.6143C19.0843 22.9065 19.1043 22.7265 18.9543 22.3665C18.4743 21.2065 18.0243 20.0365 17.5443 18.8865C17.2786 18.1211 16.9439 17.3814 16.5443 16.6765L9.89429 22.9065ZM16.8043 24.6365V24.4665C14.1443 24.4665 11.4843 24.4665 8.80429 24.4665C8.37429 24.4665 8.33429 24.7565 8.23429 25.0165C7.57429 26.6365 6.92429 28.2465 6.16429 30.1365L16.8043 24.6365ZM14.0943 10.2865C13.4743 11.8065 12.9743 13.0765 12.4743 14.3565C12.4043 14.5365 12.0443 14.9265 12.5843 14.9465C13.6843 14.9465 14.7843 14.9465 15.9843 14.9465L14.0943 10.2865ZM15.5943 5.97653C15.5943 5.5787 15.4363 5.19717 15.155 4.91586C14.8736 4.63456 14.4921 4.47653 14.0943 4.47653C13.6965 4.47653 13.3149 4.63456 13.0336 4.91586C12.7523 5.19717 12.5943 5.5787 12.5943 5.97653C12.5943 6.37435 12.7523 6.75588 13.0336 7.03719C13.3149 7.31849 13.6965 7.47653 14.0943 7.47653C14.4921 7.47653 14.8736 7.31849 15.155 7.03719C15.4363 6.75588 15.5943 6.37435 15.5943 5.97653Z" fill="#EF4C23"/>
<path d="M28.2043 5.90653C28.2224 7.89991 27.5111 9.83114 26.2043 11.3365C25.8343 11.7565 25.4043 12.1965 24.8443 11.6965C24.2843 11.1965 24.6843 10.7465 25.0443 10.3165C26.13 9.11013 26.7307 7.54455 26.7307 5.92153C26.7307 4.29851 26.13 2.73294 25.0443 1.52653C24.7043 1.12653 24.2643 0.67653 24.7843 0.22653C25.3043 -0.22347 25.7843 0.0565298 26.2343 0.54653C27.505 2.0435 28.2031 3.94294 28.2043 5.90653Z" fill="#EF4C23"/>
<path d="M0.0242651 6.73648C-0.144618 4.4818 0.572938 2.2502 2.02427 0.516483C2.43427 0.0364825 2.95426 -0.153516 3.41426 0.236484C3.87426 0.626484 3.57426 1.07648 3.22426 1.47648C2.09903 2.69109 1.47388 4.28576 1.47388 5.94149C1.47388 7.59721 2.09903 9.19188 3.22426 10.4065C3.59426 10.8365 3.89427 11.2665 3.40427 11.7165C2.91427 12.1665 2.40426 11.7965 2.04426 11.3765C0.867392 10.1016 0.155598 8.46656 0.0242651 6.73648Z" fill="#EF4C23"/>
<path d="M3.81427 5.9065C3.85242 4.42293 4.42402 3.00282 5.42427 1.9065C5.77427 1.5165 6.19428 1.2465 6.65428 1.6865C7.11428 2.1265 6.90427 2.5165 6.55427 2.9365C5.76545 3.77796 5.32646 4.88811 5.32646 6.0415C5.32646 7.19489 5.76545 8.30504 6.55427 9.1465C6.89427 9.5665 7.09427 9.9865 6.63427 10.4065C6.17427 10.8265 5.75427 10.5665 5.41427 10.1765C4.35789 9.00809 3.78583 7.4814 3.81427 5.9065Z" fill="#EF4C23"/>
<path d="M24.3943 6.20654C24.3227 7.60548 23.784 8.93996 22.8643 9.99654C22.5243 10.3865 22.1343 10.8065 21.5843 10.3365C21.0343 9.86654 21.3143 9.46654 21.6843 9.01654C22.4495 8.17523 22.8736 7.07882 22.8736 5.94154C22.8736 4.80427 22.4495 3.70785 21.6843 2.86654C21.3443 2.45654 21.0943 2.04654 21.5543 1.61654C22.0143 1.18654 22.4643 1.45654 22.8443 1.85654C23.8719 3.07028 24.4228 4.61646 24.3943 6.20654Z" fill="#EF4C23"/>
<path d="M7.62427 5.90653C7.64634 4.85193 8.0598 3.84322 8.78427 3.07653C8.84345 2.98925 8.92108 2.91604 9.01167 2.86207C9.10227 2.8081 9.20361 2.77469 9.30853 2.76419C9.41346 2.7537 9.51941 2.76639 9.6189 2.80135C9.71838 2.83631 9.80897 2.8927 9.88427 2.96652C10.2643 3.29652 10.2043 3.67653 9.88427 4.08653C8.88427 5.56653 8.88427 6.27653 9.88427 7.72653C10.1643 8.12653 10.2343 8.50653 9.88427 8.84653C9.53427 9.18653 9.06427 9.05653 8.72427 8.69653C8.03311 7.92963 7.64244 6.93876 7.62427 5.90653Z" fill="#EF4C23"/>
<path d="M20.5843 5.95652C20.5451 6.97732 20.1528 7.95285 19.4743 8.71652C19.1243 9.09652 18.7543 9.28652 18.3143 8.89652C17.8743 8.50652 18.0043 8.17652 18.3143 7.77652C19.3143 6.26652 19.3143 5.59652 18.3143 4.13652C18.0443 3.73652 17.9643 3.35652 18.3143 3.01652C18.6643 2.67652 19.1343 2.80652 19.4743 3.17652C20.1593 3.94407 20.5522 4.92825 20.5843 5.95652Z" fill="#EF4C23"/>
<path d="M10.1843 20.5665H10.0143V20.4965L10.1643 20.6065L10.1843 20.5665Z" fill="#EF4C23"/>
<path d="M15.9943 32.3865C15.5343 32.2965 15.2043 32.0465 15.2343 31.5565C15.2342 31.4589 15.2538 31.3624 15.2917 31.2725C15.3296 31.1826 15.3852 31.1012 15.4551 31.0331C15.525 30.9651 15.6079 30.9117 15.6988 30.8762C15.7897 30.8407 15.8867 30.8238 15.9843 30.8265C16.1815 30.8211 16.373 30.8936 16.5171 31.0284C16.6613 31.1632 16.7465 31.3493 16.7543 31.5465C16.7743 32.0265 16.4743 32.2865 15.9943 32.3865Z" fill="#EF4C23"/>
</svg>
