<svg width="38" height="27" viewBox="0 0 38 27" fill="none" xmlns="http://www.w3.org/2000/svg">
<path d="M37.5098 4.2179C36.5098 6.4179 34.5098 7.4179 32.5098 8.3279C30.5098 9.2379 28.3298 10.3279 26.2298 11.2379C26.0243 11.3158 25.8396 11.4403 25.6904 11.6017C25.5411 11.7631 25.4314 11.9569 25.3698 12.1679C24.0698 16.0879 22.7398 20.0079 21.4198 23.9179C21.2102 24.6286 20.8932 25.303 20.4798 25.9179C20.2274 26.3149 19.8584 26.6241 19.4234 26.8032C18.9883 26.9822 18.5085 27.0223 18.0498 26.9179C16.8298 26.6879 16.5298 26.2079 16.6498 24.9179C16.9598 21.9179 17.2298 18.9179 17.5098 15.9179C17.5476 15.8052 17.5592 15.6853 17.5436 15.5675C17.528 15.4496 17.4856 15.3369 17.4198 15.2379L11.6698 17.9179C10.0698 18.6579 8.4598 19.3979 6.8798 20.1679C6.1498 20.5179 5.69981 20.3979 5.38981 19.6279C5.07981 18.8579 4.70981 18.1579 4.38981 17.4279C3.89981 16.3679 3.95981 16.2179 4.97981 15.6979L5.43981 15.4279L1.49981 13.8079C-0.320194 13.0579 -0.320196 13.0579 0.629804 11.3479C0.929804 10.7879 1.27981 10.2579 1.52981 9.6779C1.84981 8.9379 2.3598 8.8479 3.0598 9.0379C4.9698 9.5479 6.8998 10.0379 8.8098 10.5179C9.03518 10.5894 9.27266 10.6147 9.50804 10.5923C9.74342 10.57 9.97189 10.5005 10.1798 10.3879C11.2798 9.8379 12.3898 9.32789 13.6098 8.7379C11.4098 7.2279 9.29981 5.7379 7.17981 4.3179C6.53981 3.8879 5.90981 3.51789 6.17981 2.55789C6.28776 2.07149 6.5438 1.6305 6.91271 1.29562C7.28162 0.960735 7.74526 0.748423 8.2398 0.6879C9.05279 0.652906 9.86225 0.814114 10.5998 1.1579C13.8298 2.4279 17.0798 3.6779 20.2998 4.9679C20.54 5.08671 20.8035 5.151 21.0715 5.15618C21.3394 5.16137 21.6052 5.10732 21.8498 4.9979C24.7998 3.5779 27.7598 2.2079 30.7198 0.817897C31.4992 0.430336 32.3371 0.173575 33.1998 0.057895C34.0534 -0.0874499 34.9311 0.0425379 35.7059 0.42905C36.4807 0.815562 37.1125 1.43855 37.5098 2.2079V4.2179ZM26.1798 9.6379C26.2861 9.65078 26.3935 9.65078 26.4998 9.6379C28.9698 8.4779 31.4398 7.3179 33.8898 6.1379C34.7726 5.72957 35.4815 5.02069 35.8898 4.1379C36.0371 3.87339 36.1141 3.57552 36.1135 3.27276C36.1128 2.97 36.0345 2.67246 35.886 2.40861C35.7375 2.14476 35.5238 1.9234 35.2654 1.7657C35.0069 1.60801 34.7124 1.51925 34.4098 1.5079C33.2988 1.41465 32.1838 1.6328 31.1898 2.1379C24.2798 5.3979 17.2798 8.6279 10.3598 11.8879C9.85496 12.1434 9.27082 12.1935 8.72981 12.0279C7.19981 11.6079 5.6398 11.2579 4.0998 10.8879C2.5598 10.5179 2.67981 10.5479 1.92981 11.7879C1.58981 12.3679 1.6498 12.5979 2.2898 12.7879C3.8298 13.3679 5.33981 14.0279 6.86981 14.6579C7.27981 14.8279 7.7898 14.9379 7.7898 15.4979C7.7898 16.0579 7.2698 16.1779 6.8798 16.3779L6.7198 16.4479C5.5698 16.9779 5.55981 16.9779 6.11981 18.1479C6.11981 18.1479 6.1798 18.2479 6.1998 18.3079C6.3398 18.7679 6.54981 18.8879 7.04981 18.6479C10.3831 17.0546 13.7498 15.4846 17.1498 13.9379C17.3428 13.8658 17.5089 13.7358 17.6252 13.5658C17.7415 13.3958 17.8025 13.1939 17.7998 12.9879C17.8185 12.4815 17.8719 11.977 17.9598 11.4779C17.9844 11.3244 18.0686 11.1869 18.1941 11.0951C18.3195 11.0034 18.4761 10.9649 18.6298 10.9879C18.7978 10.9905 18.958 11.0591 19.0759 11.1789C19.1938 11.2986 19.2598 11.4599 19.2598 11.6279C19.2748 11.8677 19.2748 12.1081 19.2598 12.3479C18.8531 16.5079 18.4498 20.6646 18.0498 24.8179C18.0498 25.0979 17.8798 25.4479 18.2898 25.5879C18.4458 25.6435 18.6152 25.6492 18.7746 25.6045C18.934 25.5597 19.0756 25.4665 19.1798 25.3379C19.5773 24.8842 19.8618 24.3427 20.0098 23.7579C21.3431 19.7579 22.6765 15.7846 24.0098 11.8379C24.4298 10.5879 24.8398 9.32789 25.2698 8.08789C25.2887 7.98975 25.3293 7.89709 25.3886 7.81668C25.448 7.73626 25.5246 7.67015 25.6128 7.62316C25.701 7.57618 25.7986 7.54953 25.8984 7.54515C25.9983 7.54078 26.0978 7.5588 26.1898 7.5979C26.2859 7.6198 26.3755 7.66431 26.451 7.72775C26.5265 7.79118 26.5857 7.87171 26.6239 7.96264C26.662 8.05358 26.6779 8.1523 26.6702 8.25061C26.6626 8.34891 26.6316 8.44397 26.5798 8.5279C26.4198 8.8979 26.2798 9.2479 26.1798 9.6379ZM19.3398 6.1879L9.61981 2.4179C9.17574 2.24062 8.69574 2.17205 8.2198 2.2179C8.06907 2.23272 7.92577 2.29056 7.80698 2.38452C7.6882 2.47849 7.59893 2.60462 7.54981 2.7479C7.40981 3.1079 7.71981 3.2079 7.93981 3.3579L14.5998 7.9379C14.7058 8.03633 14.8401 8.09895 14.9837 8.11689C15.1272 8.13484 15.2728 8.1072 15.3998 8.0379C16.6298 7.4279 17.8798 6.8679 19.3398 6.1879Z" fill="#EF4C23"/>
</svg>
