<svg width="38" height="38" viewBox="0 0 38 38" fill="none" xmlns="http://www.w3.org/2000/svg">
<path d="M35.96 37.4505H1.81001C1.03383 37.0491 0.401387 36.4167 0 35.6405V31.6405C0.36 31.2805 0.680002 30.8605 1.26 30.8905C1.62 30.8905 1.63 30.6905 1.63 30.4305V18.3905C1.63 18.1205 1.63 17.8805 1.26 17.9505C0.710002 18.0505 0.39 17.6605 0 17.4005V11.8005C0.31 11.5805 0.53 11.1905 1 11.2205C1.59 11.2805 1.68001 10.9805 1.67001 10.4705C1.67001 9.03049 1.67001 7.58049 1.67001 6.14049C1.65887 5.76367 1.72506 5.38856 1.86447 5.0383C2.00389 4.68803 2.21357 4.37005 2.48061 4.10395C2.74765 3.83785 3.06638 3.62927 3.41713 3.49109C3.76788 3.3529 4.14322 3.28804 4.52 3.3005C5.73 3.3005 6.93 3.3005 8.13 3.3005C8.67 3.3005 8.91001 3.24049 8.92001 2.60049C8.97774 1.89751 9.29773 1.24196 9.81644 0.763997C10.3352 0.286038 11.0147 0.0206369 11.72 0.0204935C16.41 0.100494 21.11 0.0204935 25.8 0.0204935C26.1782 -0.0266304 26.562 0.00773866 26.9258 0.121289C27.2895 0.23484 27.6248 0.424946 27.909 0.678823C28.1932 0.932699 28.4197 1.24447 28.5734 1.59317C28.7271 1.94188 28.8044 2.31945 28.8 2.7005C28.8 3.2105 29.02 3.2805 29.45 3.2705C30.56 3.2705 31.67 3.2705 32.78 3.2705C35 3.2705 36.04 4.2705 36.04 6.5205V30.0105C36.04 30.5205 35.97 30.9505 36.75 31.0105C37.0133 31.0571 37.2493 31.2015 37.4107 31.4148C37.572 31.628 37.6468 31.8944 37.62 32.1605C37.62 32.7005 37.62 33.2505 37.62 33.7805C37.7477 34.4884 37.6573 35.2183 37.3609 35.8737C37.0645 36.5291 36.5759 37.079 35.96 37.4505ZM34.81 18.2705C34.81 14.3905 34.81 10.5105 34.81 6.6205C34.81 4.9905 34.26 4.44049 32.66 4.43049C31.58 4.43049 30.5 4.43049 29.41 4.43049C29.04 4.43049 28.73 4.4305 28.71 4.9505C28.69 5.4705 28.99 5.50049 29.37 5.50049H32.17C33.42 5.50049 33.77 5.85049 33.77 7.11049C33.77 12.2805 33.77 17.4605 33.77 22.6305C33.77 23.1605 34.02 23.9905 33.2 24.0105C32.38 24.0305 32.6 23.1905 32.6 22.6705C32.62 17.5805 32.62 12.5805 32.62 7.4905C32.62 6.8105 32.45 6.59049 31.77 6.65049C30.9907 6.69549 30.2094 6.69549 29.43 6.65049C28.96 6.65049 28.75 6.7105 28.73 7.2705C28.73 9.4105 27.54 10.4905 25.38 10.5005H17.43C17.2506 10.5205 17.0694 10.5205 16.89 10.5005C16.58 10.4405 16.3 10.2705 16.31 9.92049C16.3126 9.76747 16.3745 9.62144 16.4827 9.51322C16.5909 9.405 16.737 9.34307 16.89 9.3405C17.1298 9.32538 17.3702 9.32538 17.61 9.3405C20.32 9.3405 23.03 9.3405 25.74 9.3405C25.9827 9.36489 26.2278 9.33708 26.4589 9.25893C26.6899 9.18078 26.9016 9.0541 27.0797 8.8874C27.2577 8.7207 27.3981 8.51784 27.4913 8.29242C27.5845 8.06701 27.6284 7.82427 27.62 7.58049C27.67 6.02049 27.67 4.45049 27.62 2.89049C27.6266 2.65463 27.5832 2.42005 27.4925 2.2022C27.4019 1.98435 27.2661 1.78817 27.0942 1.62661C26.9222 1.46504 26.718 1.34175 26.4949 1.26486C26.2718 1.18796 26.035 1.15921 25.8 1.18049H11.9C11.6582 1.15578 11.4139 1.18352 11.1838 1.26182C10.9537 1.34011 10.7432 1.46712 10.5666 1.63418C10.3901 1.80125 10.2516 2.00443 10.1607 2.22986C10.0699 2.4553 10.0287 2.69769 10.04 2.9405C10.04 4.4705 10.04 6.01049 10.04 7.54049C10.0286 7.79077 10.0713 8.04058 10.1653 8.27282C10.2593 8.50506 10.4023 8.71426 10.5846 8.88612C10.7669 9.05798 10.9842 9.18844 11.2216 9.26859C11.4589 9.34874 11.7108 9.37667 11.96 9.35049C12.68 9.35049 13.4 9.35049 14.12 9.35049C14.52 9.35049 14.86 9.4605 14.86 9.9505C14.86 10.4405 14.51 10.5305 14.12 10.5405C13.52 10.5405 12.91 10.5405 12.31 10.5405C10.08 10.5405 8.99 9.5405 8.91 7.2705C8.91 6.7705 8.71 6.6805 8.27 6.6905C7.39667 6.6905 6.52667 6.6905 5.66 6.6905C5.19 6.6905 5.02 6.8105 5.04 7.3005C5.04 8.3805 5.04 9.4605 5.04 10.5505C5.04 11.1105 5.2 11.2705 5.76 11.2605C7.41 11.2605 9.07 11.2605 10.76 11.2605C12.03 11.2605 12.34 11.5805 12.34 12.8705C12.34 13.9905 12.34 15.1005 12.34 16.2105C12.34 17.7005 12.12 17.9805 10.67 17.9705C9.98001 17.9705 10.05 18.3405 10.06 18.7605C10.104 18.9617 10.0761 19.1719 9.98111 19.3547C9.88609 19.5374 9.73 19.681 9.54 19.7605C9.36537 19.8275 9.17378 19.8365 8.99364 19.7861C8.81351 19.7356 8.65443 19.6285 8.54 19.4805C8.33512 19.3024 8.14454 19.1084 7.97 18.9005C7.71762 18.5496 7.3687 18.2796 6.96569 18.1234C6.56268 17.9671 6.12296 17.9314 5.7 18.0205C5.28 18.0205 5.13 18.1405 5.14 18.5805C5.14 22.5205 5.14 26.4605 5.14 30.4005C5.14 30.9705 5.38001 31.0305 5.85001 31.0205C7.05001 31.0205 8.25 31.0205 9.46 31.0205C10.03 31.0205 10.27 30.9005 10.4 30.3005C10.555 29.4651 10.9719 28.7007 11.5904 28.1182C12.2089 27.5357 12.9968 27.1652 13.84 27.0605C14.52 26.9305 15.2 26.8105 15.84 26.6505C16.18 26.5605 16.53 26.4505 16.58 25.9805C16.63 25.5105 16.41 25.4105 16.12 25.2105C15.4575 24.79 14.9062 24.216 14.5127 23.5371C14.1193 22.8581 13.8954 22.0944 13.86 21.3105C13.86 20.9705 13.8 20.8005 13.4 20.7005C13.0571 20.6294 12.7508 20.4383 12.5363 20.1614C12.3218 19.8846 12.2132 19.5403 12.23 19.1905C12.1753 18.8481 12.245 18.4974 12.4266 18.202C12.6083 17.9067 12.8897 17.6861 13.22 17.5805C13.67 17.4505 13.76 17.2205 13.74 16.8105C13.74 15.9105 13.74 15.0005 13.74 14.1005C13.7373 13.5062 13.9687 12.9348 14.3842 12.51C14.7997 12.0851 15.3658 11.841 15.96 11.8305C17.85 11.8305 19.75 11.8305 21.65 11.8305C22.2451 11.8488 22.8091 12.1001 23.2206 12.5303C23.6321 12.9606 23.8582 13.5352 23.85 14.1305C23.85 15.0305 23.85 15.9305 23.85 16.8305C23.85 17.2005 23.85 17.4405 24.31 17.5505C24.6695 17.6255 24.988 17.8323 25.2027 18.1302C25.4173 18.4282 25.5127 18.7957 25.47 19.1605C25.4853 19.5108 25.3732 19.8547 25.1544 20.1286C24.9356 20.4026 24.625 20.588 24.28 20.6505C23.92 20.7305 23.87 20.8905 23.85 21.2005C23.8309 22.0051 23.6116 22.7922 23.2117 23.4906C22.8119 24.189 22.2442 24.7767 21.56 25.2005C21.4154 25.2708 21.2969 25.3852 21.2214 25.5271C21.146 25.6691 21.1175 25.8313 21.14 25.9905C21.14 26.4205 21.51 26.5205 21.82 26.6005C22.49 26.7605 23.17 26.9005 23.82 27.0205C24.6924 27.1283 25.5069 27.5143 26.1427 28.1213C26.7785 28.7283 27.2019 29.524 27.35 30.3905C27.46 30.8905 27.65 31.0005 28.11 30.9805C29.38 30.9805 30.64 30.9805 31.91 30.9805C32.41 30.9805 32.59 30.8505 32.57 30.3305C32.57 29.0405 32.57 27.7405 32.57 26.4505C32.57 26.0205 32.57 25.5405 33.18 25.5505C33.79 25.5605 33.76 26.0405 33.76 26.4705C33.76 27.8005 33.76 29.1205 33.76 30.4705C33.76 30.9405 33.93 31.0105 34.34 31.0105C34.96 31.0105 34.81 30.5905 34.81 30.2705C34.8233 26.2372 34.8233 22.2372 34.81 18.2705ZM18.74 36.3905H34.54C35.86 36.3905 36.45 35.7905 36.47 34.4605C36.47 33.9405 36.47 33.4605 36.47 32.9205C36.55 32.2105 36.31 32.0105 35.58 32.0205C31.58 32.0205 27.5467 32.0205 23.48 32.0205C22.81 32.0205 22.48 32.1305 22.56 32.8905C22.62 34.0705 22.13 34.5805 20.96 34.5805C19.51 34.5805 18.07 34.5805 16.63 34.5805C15.45 34.5805 14.95 34.1105 15.01 32.9405C15.01 32.1905 14.78 32.0505 14.1 32.0605C10.55 32.0605 6.99 32.0605 3.44 32.0605C1.09 32.0605 1.09 32.0605 1.11 34.3905C1.11 35.8605 1.67 36.3905 3.11 36.3905H18.74ZM24.21 30.9205H25.21C26.45 30.9205 26.53 30.7505 25.91 29.6105C25.29 28.4705 23.99 28.1905 22.8 27.9105C22.621 27.8647 22.4327 27.8694 22.2562 27.9242C22.0797 27.9789 21.9218 28.0815 21.8 28.2205C21.0077 28.9956 19.9434 29.4296 18.835 29.4296C17.7266 29.4296 16.6623 28.9956 15.87 28.2205C15.746 28.085 15.5871 27.9862 15.4107 27.9351C15.2343 27.8839 15.0472 27.8823 14.87 27.9305C14.43 28.0405 13.99 28.1305 13.55 28.2505C13.0749 28.388 12.6424 28.6435 12.2927 28.9932C11.943 29.3429 11.6875 29.7754 11.55 30.2505C11.39 30.7205 11.4 31.0505 12.08 31.0005C12.76 30.9505 13.64 31.0005 14.42 31.0005C15.89 31.0005 16.22 31.3005 16.25 32.7705C16.25 33.2605 16.38 33.4705 16.91 33.4505C18.2433 33.4505 19.5767 33.4505 20.91 33.4505C21.45 33.4505 21.56 33.2505 21.57 32.7605C21.57 31.2905 21.91 31.0005 23.39 31.0005L24.21 30.9205ZM22.71 19.8405C23.02 18.8405 22.56 18.2405 21.58 17.7905C21.1878 17.5674 20.8471 17.2641 20.58 16.9005C20.32 16.6005 20.16 16.5305 19.79 16.8005C18.8605 17.4601 17.8258 17.9572 16.73 18.2705C16.1 18.4805 15.18 18.1605 14.89 18.8205C14.7187 19.491 14.6982 20.1911 14.83 20.8705C14.812 21.6675 15.0392 22.4507 15.481 23.1143C15.9228 23.7779 16.5578 24.2897 17.3 24.5805C17.9941 24.8875 18.7648 24.9773 19.5108 24.8381C20.2569 24.6989 20.9434 24.3372 21.48 23.8005C21.9834 23.2846 22.3574 22.6568 22.5712 21.9684C22.785 21.28 22.8325 20.5508 22.71 19.8405ZM8.77 18.3705C8.88 17.1205 9.42 16.7305 10.29 16.8305C10.94 16.9105 11.11 16.6505 11.08 16.0305C11.08 15.0305 11.08 14.0305 11.08 12.9705C11.08 12.5405 11.02 12.3305 10.5 12.3305C7.56 12.3305 4.62001 12.3305 1.67001 12.3305C1.25001 12.3305 1.09001 12.4405 1.10001 12.8805C1.10001 13.9905 1.10001 15.1005 1.10001 16.2205C1.10001 16.7005 1.26 16.8305 1.72 16.8205C2.84 16.8205 3.95001 16.8205 5.06001 16.8205C6.42001 16.8305 7.89 16.5105 8.77 18.3705ZM22.77 17.1205C22.77 16.1205 22.77 15.2105 22.77 14.3505C22.77 13.4905 22.31 12.9505 21.38 12.9405C19.7 12.9405 18.02 12.9405 16.38 12.9405C16.1839 12.9124 15.984 12.9301 15.7959 12.9924C15.6079 13.0547 15.4369 13.1597 15.2963 13.2993C15.1557 13.4389 15.0495 13.6092 14.9859 13.7968C14.9224 13.9844 14.9032 14.1842 14.93 14.3805C14.93 15.1905 14.93 16.0005 14.93 16.8105C14.93 17.4005 15.13 17.4305 15.61 17.3505C17.0834 17.0886 18.4645 16.4514 19.62 15.5005C19.7165 15.3837 19.8414 15.2938 19.9828 15.2395C20.1242 15.1851 20.2772 15.1682 20.427 15.1903C20.5769 15.2125 20.7185 15.2729 20.8381 15.3658C20.9578 15.4586 21.0514 15.5808 21.11 15.7205C21.4889 16.3463 22.0559 16.8363 22.73 17.1205H22.77ZM2.77 24.4505C2.77 26.3705 2.77 28.2905 2.77 30.2205C2.77 30.6405 2.77 30.9505 3.36 30.9505C3.95 30.9505 3.85001 30.5505 3.85001 30.2205V18.5805C3.85001 18.2105 3.85 17.9005 3.32 17.9105C2.79 17.9205 2.77 18.1805 2.77 18.5805C2.76 20.5805 2.75 22.4905 2.75 24.4505H2.77ZM2.77 8.4505C2.77 9.1705 2.77 9.89049 2.77 10.6105C2.77 11.0705 2.88 11.2505 3.37 11.2505C3.86 11.2505 3.85001 10.9505 3.85001 10.6105C3.85001 9.41049 3.85001 8.20049 3.85001 7.00049C3.85001 5.80049 4.23 5.54049 5.3 5.53049C6.37 5.52049 7.3 5.53049 8.37 5.53049C8.73 5.53049 8.92 5.5305 8.9 5.0505C8.88 4.5705 8.9 4.4405 8.37 4.4505C7.08 4.4505 5.78001 4.4505 4.49001 4.4505C4.26314 4.44341 4.03724 4.4832 3.82645 4.5674C3.61567 4.65159 3.42451 4.77837 3.26495 4.93981C3.1054 5.10124 2.98086 5.29386 2.89914 5.50562C2.81742 5.71738 2.78026 5.94372 2.79 6.17049C2.72 6.91049 2.75 7.67049 2.75 8.42049L2.77 8.4505ZM18.77 28.2705C18.89 28.2705 19.01 28.2705 19.13 28.2705C19.4305 28.2761 19.7286 28.2174 20.0046 28.0984C20.2805 27.9794 20.5278 27.8028 20.73 27.5805C20.94 27.2805 20.25 27.0805 20.19 26.6905C20.19 26.5705 20.08 26.4605 20.08 26.3505C20.08 25.9105 19.79 25.8805 19.46 25.9605C19.0184 26.0557 18.5616 26.0557 18.12 25.9605C17.8 25.9005 17.61 25.9605 17.56 26.3305C17.5463 26.5754 17.4431 26.8067 17.27 26.9805C16.48 27.5805 17.03 27.7905 17.54 27.9805C17.9117 28.1668 18.3245 28.2562 18.74 28.2405L18.77 28.2705Z" fill="#EF4C23"/>
<path d="M1.26 30.9205C0.680002 30.9205 0.36 31.3105 0 31.6705Z" fill="#EF4C23"/>
<path d="M24.8 2.17044C25.16 2.17044 25.52 2.17044 25.88 2.17044C25.9565 2.16928 26.0324 2.18505 26.1022 2.21662C26.1719 2.24818 26.2339 2.29476 26.2835 2.35304C26.3332 2.41131 26.3694 2.47984 26.3895 2.55372C26.4097 2.6276 26.4132 2.70502 26.4 2.78044C26.3924 2.91668 26.3335 3.04501 26.2352 3.13963C26.1369 3.23424 26.0064 3.28812 25.87 3.29044C25.6302 3.30543 25.3897 3.30543 25.15 3.29044C24.67 3.29044 24.3299 3.29044 24.3199 3.95044C24.3099 4.61044 24.69 4.64044 25.16 4.61044H25.52C25.9 4.61044 26.25 4.73044 26.23 5.22044C26.21 5.71044 25.85 5.72044 25.48 5.82044C25.11 5.92044 24.4 5.34044 24.34 6.31044C24.34 6.94044 24.48 7.21044 25.12 7.09044C25.2099 7.08544 25.3 7.08544 25.3899 7.09044C25.8499 7.09044 26.3899 7.09044 26.3899 7.70044C26.3899 8.31044 25.8199 8.29044 25.3899 8.29044C22.8499 8.29044 23.17 8.47044 23.16 6.07044V3.76044C23.15 2.15044 23.15 2.15044 24.8 2.17044Z" fill="#EF4C23"/>
<path d="M19.76 6.14045C20.17 4.92045 20.53 3.87045 20.88 2.82045C21 2.44045 21.15 2.01046 21.65 2.16046C22.15 2.31046 22.11 2.77046 21.97 3.16046C21.49 4.61046 21.02 6.06045 20.53 7.50045C20.41 7.89045 20.23 8.26045 19.75 8.25045C19.27 8.24045 19.15 7.90046 19.03 7.55046C18.4966 6.01712 17.9633 4.49046 17.43 2.97046C17.3838 2.89112 17.3567 2.80211 17.351 2.7105C17.3453 2.61889 17.361 2.52719 17.3969 2.44272C17.4328 2.35825 17.488 2.28333 17.5579 2.22391C17.6279 2.16449 17.7108 2.12222 17.8 2.10045C18.2 1.96045 18.41 2.26046 18.53 2.58046C18.93 3.74046 19.32 4.87045 19.76 6.14045Z" fill="#EF4C23"/>
<path d="M12.3 4.76044C12.3 5.06044 12.3 5.36045 12.3 5.66045C12.3 6.50045 12.1 7.40044 13.47 7.15044C13.5462 7.14169 13.6233 7.14957 13.6962 7.17354C13.769 7.19751 13.8358 7.23701 13.8919 7.2893C13.948 7.34159 13.9921 7.40543 14.0211 7.47642C14.0501 7.5474 14.0634 7.62384 14.06 7.70045C14.06 8.10045 13.78 8.28045 13.42 8.30045C12.88 8.30045 12.33 8.30045 11.79 8.30045C11.25 8.30045 11.17 8.03045 11.17 7.59045C11.17 5.99045 11.17 4.40045 11.17 2.81045C11.17 2.42045 11.34 2.14045 11.72 2.13045C12.1 2.12045 12.3 2.40044 12.3 2.79044V4.76044Z" fill="#EF4C23"/>
<path d="M15.16 5.12045V2.87045C15.16 2.46045 15.28 2.11046 15.73 2.13046C16.18 2.15046 16.28 2.49045 16.28 2.90045C16.28 4.43379 16.28 5.96379 16.28 7.49046C16.28 7.89046 16.21 8.26045 15.75 8.27045C15.29 8.28045 15.15 7.89045 15.15 7.46045C15.17 6.68045 15.16 5.90045 15.16 5.12045Z" fill="#EF4C23"/>
<path d="M18.8299 24.0405C18.5899 24.0405 18.3799 23.9605 18.1799 23.9005C17.7499 23.7705 17.1799 23.6505 17.3899 23.0405C17.5999 22.4305 17.9999 22.6204 18.3899 22.7804C18.5286 22.8416 18.6784 22.8732 18.8299 22.8732C18.9815 22.8732 19.1313 22.8416 19.2699 22.7804C19.6599 22.6004 19.9899 22.6605 20.1499 23.0705C20.3099 23.4805 19.9899 23.7305 19.6299 23.8605C19.367 23.936 19.0999 23.9961 18.8299 24.0405Z" fill="#EF4C23"/>
<path d="M16.0799 19.6705C16.0799 19.2405 16.0799 18.7405 16.6699 18.7905C17.2599 18.8405 17.1299 19.4405 17.1699 19.8605C17.2099 20.2805 17.1699 20.8605 16.5699 20.7505C15.9699 20.6405 16.0799 20.1105 16.0799 19.6705Z" fill="#EF4C23"/>
<path d="M21.51 19.8805C21.51 20.2205 21.51 20.7705 20.94 20.7505C20.37 20.7305 20.39 20.1805 20.4 19.7505C20.41 19.3205 20.4 18.8305 20.94 18.8105C21.48 18.7905 21.5 19.3305 21.51 19.8805Z" fill="#EF4C23"/>
<path d="M6.19995 13.9805H8.61995C8.99995 13.9805 9.28994 14.1605 9.31994 14.5305C9.34994 14.9005 9.01995 15.1705 8.62995 15.1705H3.62995C3.23995 15.1705 2.88994 15.0105 2.92994 14.5305C2.96994 14.0505 3.30994 13.9805 3.70994 13.9805H6.19995Z" fill="#EF4C23"/>
</svg>
