<svg width="38" height="38" viewBox="0 0 38 38" fill="none" xmlns="http://www.w3.org/2000/svg">
<path d="M19.83 37.4954C19.83 34.5554 19.83 31.6054 19.83 28.6654C19.7844 27.3423 20.2581 26.0538 21.15 25.0754C23.3943 22.5598 26.528 21.0145 29.89 20.7654C31.23 20.6454 31.22 20.7654 31.44 19.3854C31.6431 17.7767 31.7467 16.1569 31.75 14.5354C31.7639 13.8654 31.8241 13.1971 31.93 12.5354C32.0113 11.5657 32.4485 10.6603 33.1575 9.99381C33.8665 9.32728 34.7971 8.9467 35.77 8.9254C36.36 8.8654 36.96 8.8354 37.55 8.7854V20.6954C37.26 20.7854 37.37 21.0354 37.35 21.2254C36.87 25.8854 34.95 29.7054 30.93 32.3254C30.1995 32.7825 29.6094 33.4324 29.2248 34.2035C28.8401 34.9746 28.6758 35.8369 28.75 36.6954C28.748 36.9628 28.7313 37.2298 28.7 37.4954H19.83ZM29.77 23.0754C29.6269 23.0625 29.483 23.0625 29.34 23.0754C26.7964 23.4603 24.4663 24.7191 22.75 26.6354C22.2913 27.1652 22.0423 27.8446 22.05 28.5454C22.05 30.6154 22.05 32.6954 22.05 34.7754C22.05 35.2354 22.17 35.4154 22.65 35.3954C23.34 35.3954 24.04 35.3954 24.73 35.3954C25.42 35.3954 26.03 35.6254 26.48 35.2854C26.93 34.9454 26.76 34.3454 26.93 33.8654C27.2411 32.9512 27.7858 32.1342 28.51 31.4954C29.21 30.8854 29.94 30.2954 30.69 29.7454C32.7608 28.1988 34.1857 25.9403 34.69 23.4054C35.0821 21.6149 35.2865 19.7883 35.3 17.9554C35.3 15.7754 35.3 13.5954 35.3 11.3854C34.9226 11.5245 34.6015 11.784 34.3864 12.1238C34.1713 12.4636 34.0742 12.8648 34.11 13.2654C33.98 15.1854 33.94 17.1054 33.76 19.0254C33.6569 20.7223 33.0994 22.3603 32.1458 23.7678C31.1922 25.1753 29.8777 26.3004 28.34 27.0254C26.93 27.7354 26.96 27.7154 26.34 26.2354C26.11 25.6554 26.25 25.4654 26.78 25.2354C27.954 24.7996 28.9874 24.053 29.77 23.0754Z" fill="#EF4C23"/>
<path d="M8.81 37.4954C8.81 37.1954 8.75 36.8954 8.81 36.6054C8.86966 35.7749 8.70423 34.9436 8.33113 34.1992C7.95804 33.4547 7.39108 32.8247 6.68999 32.3754C1.91999 29.3054 0.249998 24.6454 0.0599976 19.2954C-0.0600024 16.0154 0.06 12.7354 0 9.45542C0 8.99542 0.119991 8.85542 0.599991 8.84542C3.91999 8.72542 5.6 10.2354 5.78 13.6554C5.8 15.6402 5.92016 17.6227 6.14 19.5954C6.27 20.3854 6.39 20.7254 7.47 20.7854C9.30797 20.8322 11.111 21.2979 12.7417 22.1471C14.3724 22.9962 15.7878 24.2064 16.88 25.6854C17.4637 26.4955 17.7595 27.4777 17.72 28.4754C17.72 31.4754 17.72 34.4754 17.72 37.4754L8.81 37.4954ZM2.14999 11.2454C2.02081 14.7364 2.14446 18.2322 2.51999 21.7054C2.93999 24.5854 3.84999 27.2554 6.20999 29.1854C6.87999 29.7454 7.58999 30.2554 8.26999 30.7954C9.61182 31.7426 10.5277 33.1792 10.82 34.7954C10.88 35.1854 11.02 35.3654 11.45 35.3554C12.59 35.3554 13.74 35.3554 14.88 35.3554C15.4 35.3554 15.45 35.1254 15.45 34.7054C15.45 32.7054 15.45 30.6154 15.45 28.5654C15.4474 28.1299 15.3576 27.6994 15.1858 27.2992C15.0141 26.899 14.7639 26.5373 14.45 26.2354C13.1953 24.9722 11.6554 24.0291 9.95999 23.4854C9.26136 23.1763 8.50386 23.0227 7.73999 23.0354C8.37201 23.889 9.20268 24.5755 10.16 25.0354C11.39 25.6854 11.35 25.6654 10.87 27.0354C10.66 27.6254 10.44 27.6654 9.87 27.4354C8.15742 26.7559 6.67109 25.6074 5.58153 24.1216C4.49197 22.6359 3.84332 20.873 3.70999 19.0354C3.47999 17.1454 3.71 15.2354 3.39 13.3654C3.29 12.4954 3.14999 11.6854 2.14999 11.2454Z" fill="#EF4C23"/>
<path d="M30.93 7.57538C30.9421 9.26851 30.3778 10.9154 29.33 12.2454C27.946 14.0301 26.3624 15.6507 24.61 17.0754C22.85 18.6054 21.05 20.1254 19.28 21.6554C18.96 21.9354 18.73 22.1254 18.28 21.7454C15.5 19.2354 12.49 16.9654 9.86 14.2654C8.55933 13.0436 7.53625 11.5568 6.86 9.90538C5.53 6.17538 7.85999 1.29538 11.58 0.265379C12.7435 -0.0724574 13.9803 -0.0631558 15.1385 0.292139C16.2968 0.647433 17.3261 1.33325 18.1 2.26538C18.59 2.79538 18.84 2.76538 19.32 2.26538C20.1195 1.2778 21.2071 0.56407 22.4313 0.223524C23.6554 -0.117022 24.9553 -0.0674356 26.15 0.365381C28.96 1.36538 30.31 3.66538 30.84 6.49538C30.8935 6.85303 30.9236 7.2138 30.93 7.57538ZM8.78999 7.64538C8.76094 8.40272 8.94084 9.15346 9.31 9.81538C9.96659 11.0349 10.8216 12.1366 11.84 13.0754C13.89 15.0754 16.16 16.9054 18.33 18.8054C18.72 19.1454 18.91 19.0154 19.22 18.7454C20.76 17.4054 22.34 16.1054 23.87 14.7454C25.2835 13.5722 26.5464 12.2287 27.63 10.7454C28.3958 9.69047 28.7628 8.39823 28.6657 7.09828C28.5687 5.79834 28.0139 4.5749 27.1 3.64538C26.788 3.25549 26.4009 2.93221 25.9617 2.69472C25.5224 2.45722 25.04 2.31033 24.5429 2.26277C24.0458 2.21521 23.5442 2.26794 23.0679 2.41783C22.5916 2.56772 22.1502 2.81173 21.77 3.13538C20.7171 3.93922 19.8277 4.93718 19.15 6.07538C18.78 6.65538 18.61 6.60538 18.27 6.07538C17.5284 4.79022 16.5021 3.69211 15.27 2.86538C14.5684 2.3831 13.7199 2.16202 12.8722 2.24058C12.0244 2.31914 11.231 2.69238 10.63 3.29538C10.0477 3.86036 9.58482 4.53652 9.26875 5.28374C8.95269 6.03097 8.78988 6.83405 8.78999 7.64538Z" fill="#EF4C23"/>
<path d="M18.6 15.5154C19.85 15.5154 19.91 15.5154 19.83 14.4454C19.76 13.5454 20 13.1054 20.97 13.2854C21.14 13.2854 21.33 13.2854 21.51 13.2854C21.94 13.3454 22.11 13.1754 22.06 12.7354C22.025 12.4665 22.025 12.1943 22.06 11.9254C22.15 11.2854 21.96 11.0454 21.25 11.0754C19.86 11.1354 19.86 11.0754 19.85 9.66539V9.21538C19.85 9.05538 19.85 8.86539 19.65 8.86539C19.0262 8.79601 18.3955 8.82299 17.78 8.94538C17.46 9.04538 17.6 9.66538 17.66 10.0154C17.81 11.0154 17.37 11.2054 16.52 11.1054C16.18 11.1054 15.6 10.9154 15.52 11.2154C15.3748 11.8303 15.3748 12.4705 15.52 13.0854C15.6 13.4854 16.14 13.2654 16.46 13.2754C17.67 13.2754 17.74 13.2754 17.65 14.4254C17.55 15.3654 17.82 15.7254 18.6 15.5154Z" fill="#EF4C23"/>
<path d="M18.6 15.5154C17.82 15.7254 17.6 15.3654 17.6 14.4354C17.69 13.2954 17.6 13.3054 16.41 13.2854C16.09 13.2854 15.55 13.4954 15.47 13.0954C15.3249 12.4805 15.3249 11.8403 15.47 11.2254C15.55 10.9254 16.13 11.0754 16.47 11.1154C17.32 11.2154 17.76 11.0054 17.61 10.0254C17.55 9.6754 17.41 9.0254 17.73 8.9554C18.3455 8.83301 18.9762 8.80602 19.6 8.87539C19.77 8.87539 19.8 9.0654 19.8 9.2254V9.67539C19.8 11.0954 19.8 11.1454 21.2 11.0854C21.91 11.0854 22.1 11.2954 22.01 11.9354C21.975 12.2043 21.975 12.4765 22.01 12.7454C22.06 13.1854 21.89 13.3554 21.46 13.2954C21.28 13.2954 21.09 13.2954 20.92 13.2954C19.92 13.1154 19.71 13.5554 19.78 14.4554C19.91 15.5054 19.85 15.5154 18.6 15.5154Z" fill="#EF4C23"/>
</svg>
