<svg width="43" height="30" viewBox="0 0 43 30" fill="none" xmlns="http://www.w3.org/2000/svg">
<path d="M0 2.15109C0.12 2.15109 0.129998 2.02109 0.169998 1.93109C0.376461 1.35311 0.760388 0.855206 1.26688 0.508568C1.77336 0.161929 2.37649 -0.0156886 2.99001 0.00109834H23.93C24.3218 -0.00965094 24.7118 0.0585928 25.0767 0.201774C25.4416 0.344956 25.7739 0.56014 26.0539 0.834495C26.3338 1.10885 26.5557 1.43676 26.7062 1.79868C26.8567 2.16061 26.9328 2.54913 26.93 2.94109C26.93 3.76109 26.93 4.5911 26.93 5.4211C26.93 5.8811 27.02 6.03109 27.5 6.02109C29.4 6.02109 31.3 6.02109 33.2 6.02109C34.1519 5.98673 35.0848 6.29317 35.8309 6.88528C36.577 7.47738 37.0873 8.3163 37.27 9.2511C37.57 10.5411 37.9 11.8311 38.18 13.1311C38.1958 13.2643 38.2572 13.3879 38.3538 13.4809C38.4505 13.5738 38.5763 13.6305 38.71 13.6411C39.27 13.7611 39.82 13.9011 40.36 14.0511C40.9235 14.1953 41.4217 14.5256 41.7738 14.9884C42.126 15.4513 42.3114 16.0196 42.3 16.6011V22.7411C42.3108 23.4133 42.0568 24.0628 41.5928 24.5493C41.1287 25.0358 40.492 25.3202 39.82 25.3411C39.35 25.3411 38.88 25.3411 38.41 25.3411C38.13 25.3411 38.03 25.4011 37.97 25.6911C37.823 26.4718 37.489 27.2053 36.9968 27.8289C36.5046 28.4525 35.8686 28.9476 35.1434 29.2719C34.4181 29.5962 33.6251 29.74 32.8322 29.6911C32.0392 29.6422 31.2699 29.4021 30.59 28.9911C29.9863 28.6492 29.466 28.1777 29.0666 27.6106C28.6671 27.0434 28.3985 26.3946 28.28 25.7111C28.23 25.4311 28.14 25.3411 27.86 25.3411H14.46C14.18 25.3411 14.09 25.4211 14.03 25.7111C13.8134 26.8289 13.2174 27.8375 12.3427 28.5664C11.4681 29.2952 10.3685 29.6996 9.23 29.7111C8.09285 29.7214 6.98724 29.3375 6.1012 28.6247C5.21516 27.9119 4.6034 26.9141 4.37 25.8011C4.3 25.4311 4.17001 25.3211 3.82001 25.3511C3.47001 25.3811 3.00001 25.3511 2.60001 25.3511C2.07648 25.3553 1.56434 25.1982 1.13318 24.9012C0.702015 24.6042 0.372714 24.1817 0.190002 23.6911C0.190002 23.6011 0.140004 23.4911 0.0200043 23.4811L0 2.15109ZM13.47 1.22109H3.15001C2.88664 1.17981 2.6173 1.1996 2.36279 1.27893C2.10829 1.35826 1.87542 1.495 1.68214 1.67861C1.48887 1.86222 1.34037 2.08778 1.24811 2.33789C1.15584 2.588 1.12228 2.85596 1.15001 3.12109C1.15001 8.82109 1.15001 14.5211 1.15001 20.2111C1.15001 20.5511 1.23 20.6511 1.58 20.6511C3.09 20.6511 4.58 20.6511 6.11 20.6511C6.31549 20.6502 6.51656 20.5913 6.69 20.4811C7.43051 20.0488 8.27256 19.821 9.13 19.821C9.98745 19.821 10.8295 20.0488 11.57 20.4811C11.7931 20.6047 12.045 20.6668 12.3 20.6611C16.59 20.6611 20.87 20.6611 25.16 20.6611C25.6 20.6611 25.69 20.5411 25.68 20.1211C25.68 14.5211 25.68 8.9211 25.68 3.3211C25.68 1.8411 25.07 1.23109 23.58 1.23109L13.47 1.22109ZM13.19 21.8311C13.5843 22.4039 13.8598 23.05 14 23.7311C14 24.0911 14.19 24.1611 14.52 24.1611H27.77C28.07 24.1611 28.2 24.1611 28.27 23.7711C28.4852 22.7014 29.0444 21.7315 29.8623 21.0093C30.6802 20.2871 31.7119 19.8522 32.8 19.7711C33.8442 19.7208 34.8783 19.9959 35.7596 20.5583C36.6408 21.1208 37.3258 21.9428 37.72 22.9111C37.88 23.3111 37.72 23.9111 38.18 24.0811C38.6259 24.1667 39.0841 24.1667 39.53 24.0811C39.7377 24.099 39.9467 24.0717 40.1428 24.0009C40.3388 23.9301 40.5172 23.8176 40.6655 23.6712C40.8138 23.5248 40.9286 23.3479 41.0019 23.1528C41.0752 22.9577 41.1053 22.749 41.09 22.5411C41.09 21.8911 41.09 21.2411 41.09 20.5411C41.09 19.8411 41.09 19.8011 40.34 19.7611C39.9872 19.7548 39.6438 19.6467 39.3511 19.4498C39.0583 19.2528 38.8288 18.9755 38.69 18.6511C38.5326 18.327 38.4761 17.9631 38.5278 17.6066C38.5795 17.25 38.7371 16.9171 38.98 16.6511C39.1876 16.4218 39.4455 16.2437 39.7336 16.1309C40.0216 16.0181 40.3319 15.9737 40.64 16.0011C40.73 16.0011 40.85 16.0511 40.9 15.9411C40.95 15.8311 40.9 15.7611 40.82 15.6811C40.6048 15.3914 40.2924 15.1891 39.94 15.1111C39.24 14.9311 38.53 14.7311 37.82 14.5811C37.6362 14.556 37.4659 14.4707 37.3357 14.3387C37.2055 14.2066 37.1226 14.0352 37.1 13.8511C36.77 12.3911 36.41 10.9511 36.1 9.5011C35.9854 8.81258 35.6213 8.19035 35.0772 7.7532C34.5331 7.31605 33.847 7.0946 33.15 7.1311C31.25 7.1311 29.35 7.1311 27.45 7.1311C27.05 7.1311 26.94 7.2211 26.94 7.6311C26.94 12.0311 26.94 16.4311 26.94 20.8311C26.94 21.6111 26.79 21.7611 26 21.7611H13.21L13.19 21.8311ZM36.83 24.7611C36.834 24.2735 36.7415 23.79 36.558 23.3383C36.3744 22.8865 36.1034 22.4756 35.7605 22.1289C35.4176 21.7823 35.0095 21.5069 34.5598 21.3185C34.1101 21.1301 33.6276 21.0324 33.14 21.0311C32.6485 21.0245 32.1605 21.1151 31.7042 21.2977C31.2478 21.4803 30.832 21.7513 30.4807 22.0952C30.1295 22.439 29.8496 22.8489 29.6573 23.3013C29.4649 23.7536 29.3639 24.2396 29.36 24.7311C29.3574 25.2231 29.4518 25.7107 29.638 26.1662C29.8241 26.6216 30.0983 27.0358 30.4448 27.3851C30.7913 27.7344 31.2033 28.0118 31.6572 28.2016C32.1111 28.3914 32.598 28.4898 33.09 28.4911C33.5814 28.4951 34.0687 28.4014 34.5236 28.2155C34.9785 28.0296 35.392 27.7551 35.7399 27.4081C36.0879 27.0611 36.3634 26.6484 36.5505 26.194C36.7377 25.7396 36.8327 25.2525 36.83 24.7611ZM5.44 24.7611C5.43735 25.253 5.53227 25.7405 5.71928 26.1955C5.9063 26.6504 6.18169 27.0638 6.52951 27.4116C6.87733 27.7594 7.29068 28.0348 7.74564 28.2218C8.20059 28.4088 8.68812 28.5038 9.18 28.5011C9.67152 28.5011 10.1582 28.404 10.612 28.2153C11.0659 28.0266 11.478 27.75 11.8246 27.4015C12.1712 27.0531 12.4456 26.6395 12.6318 26.1846C12.8181 25.7298 12.9126 25.2426 12.91 24.7511C12.9047 23.767 12.5108 22.8249 11.814 22.13C11.1172 21.4351 10.1741 21.0437 9.19 21.0411C8.69908 21.0345 8.21174 21.1256 7.75639 21.3092C7.30104 21.4928 6.88679 21.7652 6.53777 22.1105C6.18874 22.4558 5.91192 22.8671 5.72345 23.3204C5.53498 23.7738 5.43863 24.2601 5.44 24.7511V24.7611ZM3.28 24.1711H4.06C4.21 24.1711 4.28 24.1711 4.3 23.9511C4.39976 23.2965 4.64213 22.6717 5.00999 22.1211C5.14999 21.9111 5.08 21.8411 4.84 21.8411C3.73 21.8411 2.61001 21.8411 1.49001 21.8411C1.35001 21.8411 1.20001 21.8411 1.18001 22.0411C1.10001 23.2211 1.41 24.2211 2.94 24.1711H3.28ZM41.1 17.9911C41.1 17.6811 41.29 17.2311 40.64 17.2811C39.99 17.3311 39.74 17.5211 39.73 17.9711C39.72 18.4211 40.04 18.6511 40.66 18.6911C41.28 18.7311 41.01 18.2411 41.1 17.9811V17.9911Z" fill="#EF4C23"/>
<path d="M18.13 11.6511V15.6511C18.1629 15.879 18.1425 16.1113 18.0705 16.3299C17.9986 16.5486 17.8769 16.7476 17.7151 16.9113C17.5533 17.075 17.3558 17.199 17.138 17.2736C16.9203 17.3482 16.6882 17.3713 16.46 17.3411H10.46C9.33998 17.3411 8.80999 16.7911 8.80999 15.6511V11.6511C8.59999 11.8511 8.45999 11.9911 8.30999 12.1211C8.07894 12.3436 7.7707 12.4678 7.44998 12.4678C7.12927 12.4678 6.82103 12.3436 6.58998 12.1211C6.11665 11.6745 5.65666 11.2145 5.20999 10.7411C5.09082 10.6343 4.99462 10.5044 4.92723 10.3593C4.85985 10.2141 4.82269 10.0568 4.81801 9.89687C4.81333 9.73692 4.84124 9.57769 4.90003 9.42886C4.95881 9.28003 5.04726 9.14471 5.15999 9.03114C6.15999 7.97114 7.23999 6.94114 8.30999 5.92114C8.96315 5.33475 9.73853 4.90094 10.58 4.65113C10.708 4.58242 10.8494 4.54243 10.9945 4.53394C11.1395 4.52544 11.2847 4.54865 11.4198 4.60195C11.555 4.65525 11.6769 4.73736 11.7771 4.84256C11.8773 4.94777 11.9533 5.07355 12 5.21114C12.0846 5.43118 12.2178 5.62932 12.3895 5.79087C12.5612 5.95242 12.7671 6.07322 12.9919 6.14431C13.2167 6.2154 13.4546 6.23494 13.688 6.2015C13.9214 6.16806 14.1442 6.08249 14.34 5.95114C14.6026 5.76004 14.8125 5.50543 14.95 5.21114C14.9966 5.07355 15.0727 4.94777 15.1729 4.84256C15.2731 4.73736 15.395 4.65525 15.5302 4.60195C15.6653 4.54865 15.8105 4.52544 15.9555 4.53394C16.1005 4.54243 16.242 4.58242 16.37 4.65113C17.7396 5.12654 18.9557 5.96257 19.89 7.07114C20.49 7.71114 21.14 8.30113 21.74 8.94113C21.8724 9.05188 21.9788 9.19032 22.0519 9.34669C22.1249 9.50306 22.1628 9.67354 22.1628 9.84613C22.1628 10.0187 22.1249 10.1892 22.0519 10.3456C21.9788 10.5019 21.8724 10.6404 21.74 10.7511C21.35 11.1611 20.95 11.5611 20.54 11.9611C20.4212 12.1129 20.2694 12.2356 20.0962 12.32C19.9229 12.4044 19.7327 12.4483 19.54 12.4483C19.3473 12.4483 19.1571 12.4044 18.9838 12.32C18.8106 12.2356 18.6588 12.1129 18.54 11.9611L18.13 11.6511ZM13.44 16.0811H15.68C16.92 16.0811 16.92 16.0811 16.92 14.8511C16.92 13.3311 16.92 11.8011 16.92 10.2811C16.902 10.1433 16.9294 10.0034 16.9979 9.88257C17.0665 9.7617 17.1725 9.66642 17.3 9.61113C17.4219 9.56022 17.557 9.55025 17.685 9.58271C17.813 9.61517 17.9271 9.6883 18.01 9.79113C18.14 9.91113 18.25 10.0511 18.38 10.1711C18.73 10.5111 19.06 11.0911 19.38 11.1711C19.7 11.2511 20.07 10.5711 20.43 10.2511C20.43 10.2511 20.52 10.1511 20.57 10.1111C20.8 9.94113 20.8 9.80114 20.57 9.59114C19.73 8.78114 18.91 7.94113 18.08 7.12113C17.5732 6.64477 16.9835 6.26518 16.34 6.00114C16.2887 5.96478 16.2298 5.94041 16.1678 5.92983C16.1059 5.91925 16.0423 5.92273 15.9818 5.94C15.9213 5.95728 15.8655 5.98791 15.8185 6.02965C15.7714 6.07138 15.7343 6.12315 15.71 6.18113C15.468 6.58942 15.1227 6.92671 14.7088 7.15902C14.295 7.39133 13.8272 7.51044 13.3526 7.50436C12.8781 7.49827 12.4135 7.36721 12.0057 7.12437C11.598 6.88153 11.2614 6.53549 11.03 6.12113C10.87 5.89113 10.75 5.88113 10.51 5.97113C9.75844 6.27585 9.07766 6.73198 8.50999 7.31114C8.04999 7.78114 7.50999 8.23113 7.10999 8.72113C6.70999 9.21113 6.05999 9.44113 6.10999 9.86113C6.15999 10.2811 6.75999 10.6511 7.10999 11.0411C7.24999 11.2311 7.36999 11.2211 7.53999 11.0411C7.92999 10.6311 8.34999 10.2411 8.75999 9.85114C8.84036 9.73873 8.95446 9.65487 9.08572 9.61171C9.21699 9.56855 9.3586 9.56835 9.48999 9.61113C9.62723 9.66631 9.7431 9.76414 9.82052 9.89017C9.89794 10.0162 9.9328 10.1638 9.91998 10.3111C9.91998 10.4311 9.91998 10.5411 9.91998 10.6511C9.91998 12.2911 9.91998 13.9311 9.91998 15.5711C9.91998 15.9711 10.04 16.1111 10.45 16.1011C11.49 16.0611 12.47 16.0811 13.44 16.0811Z" fill="#EF4C23"/>
<path d="M31.91 14.6111C31.09 14.6111 30.28 14.6111 29.47 14.6111C29.2954 14.6223 29.1203 14.5969 28.956 14.5367C28.7917 14.4765 28.6418 14.3827 28.5157 14.2614C28.3897 14.14 28.2902 13.9938 28.2238 13.8319C28.1574 13.67 28.1255 13.496 28.13 13.3211C28.13 12.1011 28.13 10.8911 28.13 9.6711C28.1313 9.49998 28.1666 9.33083 28.2339 9.17349C28.3012 9.01616 28.3991 8.87378 28.5219 8.75465C28.6448 8.63553 28.7901 8.54204 28.9494 8.47962C29.1088 8.4172 29.2789 8.38711 29.45 8.3911H33.24C33.6179 8.38744 33.9858 8.51204 34.2837 8.74453C34.5815 8.97702 34.7918 9.30367 34.88 9.6711C35.14 10.6711 35.39 11.7411 35.62 12.7911C35.85 13.8411 35.32 14.6111 34.14 14.6111H31.91ZM31.91 13.4211H34.15C34.42 13.4211 34.58 13.4211 34.49 13.0311C34.24 12.0311 34.03 11.0311 33.8 10.1011C33.7951 10.0283 33.7754 9.95718 33.7422 9.89216C33.709 9.82713 33.663 9.7695 33.6069 9.72277C33.5509 9.67603 33.4859 9.64116 33.4159 9.62025C33.346 9.59933 33.2725 9.59282 33.2 9.6011H29.7C29.44 9.6011 29.36 9.69109 29.36 9.94109C29.36 10.9411 29.36 12.0211 29.36 13.0611C29.36 13.3811 29.49 13.4311 29.77 13.4311L31.91 13.4211Z" fill="#EF4C23"/>
<path d="M35.68 24.7712C35.68 25.1121 35.6127 25.4498 35.4819 25.7646C35.3511 26.0795 35.1594 26.3655 34.9179 26.6061C34.6763 26.8468 34.3896 27.0373 34.0742 27.1669C33.7588 27.2965 33.421 27.3625 33.08 27.3612C32.3912 27.3481 31.735 27.0652 31.2525 26.5734C30.7701 26.0816 30.4999 25.4201 30.5 24.7312C30.5131 24.0503 30.7928 23.4018 31.279 22.9249C31.7652 22.4481 32.419 22.181 33.1 22.1812C33.4415 22.1743 33.7809 22.2367 34.0977 22.3646C34.4145 22.4924 34.7021 22.6831 34.9432 22.9252C35.1842 23.1672 35.3738 23.4555 35.5005 23.7728C35.6271 24.09 35.6882 24.4297 35.68 24.7712ZM33.12 23.3712C32.9367 23.3685 32.7548 23.4026 32.5849 23.4715C32.415 23.5404 32.2607 23.6427 32.1311 23.7723C32.0015 23.9019 31.8992 24.0562 31.8303 24.2261C31.7614 24.3959 31.7273 24.5779 31.73 24.7612C31.7287 24.9436 31.7638 25.1245 31.8333 25.2932C31.9028 25.4619 32.0053 25.615 32.1347 25.7436C32.2642 25.8721 32.4181 25.9735 32.5872 26.0418C32.7564 26.11 32.9376 26.1438 33.12 26.1412C33.4808 26.1386 33.8263 25.9948 34.0824 25.7406C34.3385 25.4864 34.4848 25.142 34.49 24.7812C34.4927 24.5986 34.4593 24.4174 34.3919 24.2477C34.3245 24.078 34.2243 23.9233 34.0971 23.7924C33.9698 23.6615 33.8181 23.5569 33.6504 23.4846C33.4828 23.4123 33.3025 23.3738 33.12 23.3712Z" fill="#EF4C23"/>
<path d="M9.24004 22.1812C9.58146 22.1876 9.9182 22.2618 10.2307 22.3994C10.5433 22.5369 10.8254 22.7352 11.0607 22.9826C11.2961 23.23 11.48 23.5217 11.6017 23.8408C11.7235 24.1598 11.7807 24.4998 11.77 24.8412C11.7414 25.5299 11.4435 26.1799 10.9404 26.6512C10.4373 27.1226 9.76922 27.3775 9.08004 27.3612C8.40096 27.3301 7.76054 27.0363 7.29406 26.5418C6.82757 26.0473 6.57154 25.3909 6.58004 24.7112C6.58515 24.3693 6.65841 24.032 6.79552 23.7188C6.93264 23.4056 7.13085 23.123 7.37856 22.8874C7.62627 22.6518 7.9185 22.468 8.23814 22.3467C8.55777 22.2254 8.89839 22.1691 9.24004 22.1812ZM10.55 24.7512C10.5501 24.5682 10.5137 24.3871 10.4431 24.2184C10.3725 24.0496 10.2691 23.8966 10.1388 23.7682C10.0085 23.6398 9.85403 23.5386 9.68429 23.4704C9.51454 23.4022 9.33294 23.3685 9.15004 23.3712C8.78915 23.3814 8.44618 23.5307 8.19276 23.7879C7.93933 24.045 7.79505 24.3902 7.79004 24.7512C7.78737 24.9336 7.82117 25.1147 7.88945 25.2839C7.95773 25.4531 8.05912 25.6069 8.18767 25.7364C8.31621 25.8659 8.46933 25.9684 8.63802 26.0379C8.80672 26.1074 8.98759 26.1425 9.17004 26.1412C9.35498 26.1466 9.53911 26.1145 9.71131 26.0468C9.88351 25.9791 10.0402 25.8773 10.172 25.7474C10.3038 25.6175 10.4078 25.4622 10.478 25.291C10.5481 25.1198 10.5828 24.9362 10.58 24.7512H10.55Z" fill="#EF4C23"/>
</svg>
