<svg width="44" height="37" viewBox="0 0 44 37" fill="none" xmlns="http://www.w3.org/2000/svg">
<path d="M0 7.81103C0.500589 7.37438 1.09127 7.05343 1.73 6.87103C8.09 4.64436 14.4433 2.4077 20.79 0.16103C21.3639 -0.0536765 21.9961 -0.0536765 22.57 0.16103C29.09 2.48103 35.6133 4.78769 42.14 7.08103C42.79 7.30103 43.33 7.59103 43.36 8.38103C43.39 9.17103 42.85 9.55103 42.17 9.80103C40.36 10.471 40.36 10.481 40.36 12.361C40.36 15.551 40.36 18.751 40.36 21.951C40.3247 22.1855 40.3648 22.4251 40.4744 22.6354C40.584 22.8457 40.7576 23.0157 40.97 23.121C41.552 23.4533 42.0357 23.9336 42.3722 24.5131C42.7086 25.0927 42.8859 25.7509 42.8859 26.421C42.8859 27.0912 42.7086 27.7494 42.3722 28.3289C42.0357 28.9085 41.552 29.3888 40.97 29.721C40.7635 29.8036 40.5904 29.9527 40.4781 30.1446C40.3658 30.3366 40.3208 30.5606 40.35 30.781C40.35 32.011 40.35 33.241 40.35 34.471C40.35 35.471 39.84 36.151 39.06 36.171C38.28 36.191 37.77 35.561 37.76 34.511C37.76 33.281 37.76 32.051 37.76 30.821C37.7862 30.5996 37.7412 30.3755 37.6315 30.1813C37.5218 29.9872 37.3532 29.8329 37.15 29.741C36.5531 29.4161 36.0548 28.9362 35.7076 28.352C35.3604 27.7677 35.1772 27.1007 35.1772 26.421C35.1772 25.7414 35.3604 25.0743 35.7076 24.4901C36.0548 23.9058 36.5531 23.426 37.15 23.101C37.3541 23.0086 37.5243 22.855 37.6372 22.6615C37.7501 22.468 37.8 22.2442 37.78 22.021C37.78 18.7744 37.78 15.5177 37.78 12.251C37.78 11.451 37.56 11.371 36.9 11.671C36.24 11.971 35 11.991 34.6 12.671C34.2 13.351 34.48 14.281 34.48 15.101C34.48 16.791 34.42 18.491 34.48 20.181C34.5226 20.7812 34.3868 21.3805 34.0897 21.9036C33.7925 22.4268 33.3473 22.8503 32.81 23.121C30.9321 24.1753 28.8671 24.8546 26.73 25.121C22.1758 25.8852 17.5063 25.5805 13.09 24.231C12.1792 23.952 11.306 23.5624 10.49 23.071C9.97452 22.7924 9.54923 22.3724 9.26406 21.8605C8.97888 21.3486 8.84565 20.766 8.88 20.181C8.95 17.941 8.88 15.691 8.88 13.451C8.91533 13.3175 8.9226 13.1781 8.90137 13.0416C8.88014 12.9051 8.83086 12.7745 8.75664 12.658C8.68241 12.5415 8.58486 12.4416 8.47012 12.3647C8.35539 12.2878 8.22596 12.2354 8.09 12.211C5.91 11.491 3.77 10.661 1.59 9.92103C1.03677 9.71622 0.512406 9.44059 0.0300007 9.10103L0 7.81103ZM38.09 8.48103C37.9385 8.39126 37.7815 8.3111 37.62 8.24103C32.49 6.42103 27.31 4.61103 22.15 2.77103C21.7965 2.67172 21.4187 2.70736 21.09 2.87103L12.95 5.75103L5.2 8.48103L6.12 8.83103C10.73 10.471 15.36 12.091 19.96 13.831C21.0541 14.271 22.2759 14.271 23.37 13.831C28.21 11.951 33.09 10.261 38.09 8.48103ZM31.89 17.121C31.89 16.121 31.89 15.211 31.89 14.261C31.94 13.491 31.69 13.491 31.07 13.721C28.23 14.721 25.36 15.721 22.51 16.791C21.9662 17.0006 21.3638 17.0006 20.82 16.791C17.94 15.791 15.05 14.791 12.17 13.691C11.59 13.481 11.44 13.541 11.45 14.181C11.45 15.721 11.45 17.261 11.45 18.791C11.45 20.921 11.45 20.921 13.45 21.641L14.06 21.841C17.628 22.8829 21.3717 23.1824 25.06 22.721C27.046 22.5346 28.9918 22.0456 30.83 21.271C31.55 20.951 32.06 20.561 31.92 19.611C31.8545 18.7826 31.8445 17.9508 31.89 17.121ZM40.28 26.411C40.2859 26.2427 40.2565 26.0751 40.1939 25.9188C40.1312 25.7624 40.0366 25.6209 39.9161 25.5033C39.7956 25.3856 39.6519 25.2944 39.4942 25.2355C39.3364 25.1765 39.1681 25.1512 39 25.161C38.8381 25.1594 38.6776 25.191 38.5285 25.2541C38.3794 25.3171 38.2449 25.4101 38.1333 25.5273C38.0217 25.6446 37.9354 25.7835 37.8797 25.9356C37.8241 26.0876 37.8004 26.2494 37.81 26.411C37.8086 26.579 37.8409 26.7456 37.9049 26.901C37.9688 27.0563 38.0632 27.1973 38.1825 27.3156C38.3018 27.434 38.4435 27.5272 38.5993 27.59C38.7552 27.6528 38.922 27.6837 39.09 27.681C39.4111 27.6561 39.7112 27.512 39.9314 27.2769C40.1516 27.0419 40.276 26.7331 40.28 26.411Z" fill="#EF4C23"/>
</svg>
