<svg width="39" height="39" viewBox="0 0 39 39" fill="none" xmlns="http://www.w3.org/2000/svg">
<path d="M0.850086 1.50005C1.0386 1.26301 1.28449 1.07798 1.56447 0.962492C1.84445 0.846999 2.14927 0.804856 2.45009 0.840052C3.70009 0.890052 4.96009 0.840052 6.21009 0.840052C7.21009 0.840052 7.63009 1.19005 7.58009 2.23005C7.58009 2.88005 7.72009 3.09005 8.40009 3.08005C10.9401 3.03005 13.4701 3.08005 16.0101 3.08005C16.2003 3.10369 16.393 3.066 16.5603 2.97247C16.7276 2.87894 16.8606 2.73445 16.9401 2.56005C17.2188 2.03256 17.6362 1.59109 18.1472 1.28316C18.6582 0.975224 19.2435 0.8125 19.8401 0.8125C20.4367 0.8125 21.022 0.975224 21.533 1.28316C22.044 1.59109 22.4613 2.03256 22.7401 2.56005C22.8115 2.72412 22.9334 2.86111 23.0881 2.95105C23.2428 3.04099 23.4222 3.07917 23.6001 3.06005C26.1901 3.06005 28.7801 3.06005 31.3701 3.06005C31.9201 3.06005 32.1001 2.93005 32.0801 2.36005C32.0801 1.11005 32.3701 0.830051 33.6301 0.830051H37.4801C38.4801 0.830051 38.8101 1.21005 38.8101 2.19005C38.8101 3.53005 38.8101 4.86005 38.8101 6.19005C38.8101 7.10005 38.4201 7.51005 37.5001 7.52005C36.1701 7.52005 34.8401 7.52005 33.5001 7.52005C32.4401 7.52005 32.0401 7.14005 32.0801 6.07005C32.0801 5.45005 31.9501 5.24005 31.3101 5.27005C30.1501 5.33005 28.9801 5.27005 27.6001 5.27005C29.4436 6.47184 30.9948 8.07091 32.1401 9.95005C33.2791 11.8188 33.9641 13.9286 34.1401 16.1101C34.1451 16.2644 34.1964 16.4137 34.2873 16.5386C34.3783 16.6634 34.5047 16.758 34.6501 16.8101C35.3449 17.1383 35.901 17.7021 36.2195 18.4015C36.5381 19.1008 36.5985 19.8904 36.3901 20.6301C36.202 21.3292 35.7944 21.9494 35.2273 22.3995C34.6603 22.8496 33.9637 23.1056 33.2401 23.1301C32.5252 23.1438 31.8245 22.9292 31.24 22.5173C30.6555 22.1055 30.2177 21.5179 29.9901 20.8401C29.7466 20.1251 29.7613 19.3475 30.0317 18.6423C30.3021 17.9371 30.811 17.3489 31.4701 16.9801C31.6581 16.9021 31.8088 16.7547 31.8908 16.5684C31.9728 16.3821 31.9797 16.1713 31.9101 15.9801C31.0301 10.9801 28.3101 7.55005 23.4601 5.89005C23.3762 5.8422 23.2836 5.81147 23.1877 5.79966C23.0919 5.78784 22.9946 5.79517 22.9016 5.82121C22.8086 5.84725 22.7217 5.8915 22.6459 5.95138C22.5701 6.01126 22.5069 6.08559 22.4601 6.17005C22.1605 6.5911 21.7646 6.9344 21.3053 7.17128C20.8461 7.40816 20.3368 7.53176 19.8201 7.53176C19.3033 7.53176 18.7941 7.40816 18.3348 7.17128C17.8756 6.9344 17.4797 6.5911 17.1801 6.17005C17.0932 6.01296 16.9492 5.89526 16.778 5.84129C16.6068 5.78731 16.4214 5.80119 16.2601 5.88005C11.3701 7.53005 8.62009 10.9801 7.74009 16.0001C7.67362 16.1927 7.68317 16.4034 7.7668 16.5893C7.85042 16.7751 8.00182 16.922 8.19009 17.0001C8.83588 17.3617 9.33633 17.9361 9.60619 18.6253C9.87604 19.3146 9.89863 20.076 9.67009 20.7801C9.46488 21.4887 9.0308 22.1095 8.43562 22.5455C7.84044 22.9815 7.11765 23.2081 6.38009 23.1901C5.64115 23.1645 4.93098 22.8973 4.35841 22.4295C3.78584 21.9617 3.38246 21.3191 3.21009 20.6C3.03596 19.8808 3.11015 19.1239 3.42059 18.4522C3.73103 17.7805 4.25948 17.2335 4.92009 16.9001C5.19009 16.7501 5.45009 16.6601 5.49009 16.2401C5.67152 14.0692 6.34144 11.9675 7.44972 10.0921C8.558 8.21663 10.076 6.61606 11.8901 5.41005C11.2687 5.30952 10.6377 5.28267 10.0101 5.33005C9.37009 5.33005 8.73009 5.33005 8.09009 5.33005C7.73009 5.33005 7.59009 5.41005 7.57009 5.81005C7.51009 7.43005 7.33009 7.57005 5.74009 7.57005C4.74009 7.57005 3.66009 7.57005 2.62009 7.57005C2.29405 7.60924 1.96337 7.5718 1.65435 7.46069C1.34533 7.34958 1.06652 7.16788 0.840088 6.93005L0.850086 1.50005Z" fill="#EF4C23"/>
<path d="M12.86 38.84C12.08 38.08 12.02 37.71 12.55 36.76C12.9018 36.0367 13.4487 35.426 14.1289 34.9967C14.8091 34.5674 15.5956 34.3365 16.3999 34.33C18.6866 34.29 20.9766 34.29 23.2699 34.33C24.0743 34.3365 24.8608 34.5674 25.541 34.9967C26.2212 35.426 26.7681 36.0367 27.12 36.76C27.65 37.76 27.58 38.1 26.8 38.84H12.86Z" fill="#EF4C23"/>
<path d="M21.02 10.7L23.64 14.6L29.4 23.24C30.06 24.24 30.04 24.54 29.23 25.41C27.4975 27.242 26.3098 29.5205 25.8 31.99C25.7 32.45 25.56 32.63 25.07 32.42C24.7547 32.2791 24.4151 32.201 24.07 32.1899C20.82 32.1399 17.57 31.7299 14.35 32.4799C13.84 32.5999 13.88 32.29 13.83 32.04C13.4195 29.8198 12.4254 27.7489 10.95 26.04C9.36995 24.28 9.48995 24.32 10.82 22.33C13.32 18.62 15.82 14.89 18.28 11.16C18.37 11.03 18.39 10.79 18.72 10.82V15.18C18.72 16.94 18.72 18.7 18.72 20.47C18.7436 20.6601 18.7059 20.8529 18.6124 21.0202C18.5188 21.1874 18.3744 21.3205 18.2 21.4C17.54 21.7366 17.0198 22.2951 16.7309 22.9773C16.4419 23.6595 16.4026 24.4217 16.62 25.13C16.8073 25.8334 17.2194 26.4564 17.7934 26.904C18.3675 27.3517 19.0721 27.5996 19.8 27.61C20.5253 27.5997 21.2274 27.3529 21.7995 26.907C22.3717 26.4612 22.7827 25.8407 22.97 25.1399C23.1745 24.4302 23.1281 23.6716 22.8384 22.9921C22.5488 22.3126 22.0337 21.7538 21.38 21.41C21.1 21.24 20.86 21.14 20.86 20.72C20.86 17.49 20.86 14.26 20.86 11.03C20.902 10.9148 20.9556 10.8043 21.02 10.7Z" fill="#EF4C23"/>
<path d="M19.7999 23.14C20.0947 23.156 20.3736 23.2783 20.5851 23.4842C20.7966 23.6902 20.9262 23.9658 20.9499 24.26C20.9448 24.5634 20.822 24.8529 20.6074 25.0675C20.3929 25.2821 20.1033 25.4049 19.7999 25.41C19.5044 25.3925 19.2262 25.2646 19.0206 25.0516C18.815 24.8385 18.697 24.556 18.6899 24.26C18.7144 23.9729 18.839 23.7034 19.0419 23.4987C19.2447 23.2941 19.513 23.1671 19.7999 23.14Z" fill="#EF4C23"/>
</svg>
