<svg width="37" height="36" viewBox="0 0 37 36" fill="none" xmlns="http://www.w3.org/2000/svg">
<path d="M18.8 0H34.26C35.99 0 36.65 0.64 36.65 2.34V33.34C36.65 35.05 35.99 35.69 34.26 35.69H3.34996C1.61996 35.69 0.959961 35.05 0.959961 33.35V2.35C0.959961 0.65 1.61996 0.0100002 3.34996 0.0100002L18.8 0ZM18.8 6C13.54 6 8.27995 6 3.02995 6C2.28995 6 2.17996 6.21 2.17996 6.88C2.17996 15.6933 2.17996 24.5 2.17996 33.3C2.17996 34.4 2.17996 34.44 3.29996 34.44H34.3C35.3 34.44 35.36 34.37 35.36 33.44C35.36 24.56 35.36 15.67 35.36 6.79C35.36 6.1 35.11 6.04 34.55 6.04C29.37 6.01 24.11 6 18.86 6H18.8ZM18.8 4.78C23.55 4.78 28.31 4.78 33.06 4.78C33.82 4.78 34.84 5.13 35.27 4.63C35.7 4.13 35.38 3.21 35.38 2.47C35.38 1.28 35.38 1.26 34.17 1.26H2.93996C2.43996 1.26 2.20996 1.51 2.20996 2C2.24495 2.69289 2.24495 3.38711 2.20996 4.08C2.14996 4.71 2.38996 4.81 2.95996 4.8C8.26996 4.77 13.56 4.78 18.8 4.78Z" fill="#EF4C23"/>
<path d="M13.8 8.31995C16.52 8.31995 19.24 8.31995 21.96 8.31995C22.74 8.31995 22.96 8.62995 22.96 9.36995C22.96 13.0499 22.96 16.7333 22.96 20.4199C22.96 21.1499 22.72 21.4199 21.96 21.4199C16.4867 21.4199 11.0134 21.4199 5.54004 21.4199C4.77004 21.4199 4.54004 21.1099 4.54004 20.4199C4.54004 16.7399 4.54004 13.0599 4.54004 9.41995C4.54004 8.52995 4.70003 8.41995 5.64003 8.41995L13.8 8.31995ZM5.80003 18.8399L9.14003 13.8399C9.79003 12.8399 10.14 12.8399 10.75 13.8399C11.22 14.5499 11.75 15.2499 12.17 15.9699C12.44 16.4199 12.58 16.4899 12.88 15.9699C13.8 14.4399 14.77 12.9699 15.72 11.4199C16.3 10.5099 16.72 10.5099 17.27 11.4199C17.82 12.3299 18.27 13.0499 18.78 13.8599C19.78 15.4099 20.72 16.9399 21.78 18.6899C21.78 15.6199 21.78 12.8099 21.78 9.98995C21.78 9.48995 21.48 9.58995 21.2 9.58995C16.2 9.58995 11.27 9.58995 6.31003 9.58995C5.84003 9.58995 5.74003 9.73995 5.75003 10.1799C5.75003 11.1799 5.75003 12.0999 5.75003 13.0599L5.80003 18.8399ZM11.69 20.1799H21.27L16.48 12.5199L11.69 20.1799ZM6.37004 20.1799H7.86003C10.3 20.1799 10.3 20.1799 11.56 18.0399C11.5842 17.9928 11.6144 17.9491 11.65 17.9099C11.7174 17.8264 11.7542 17.7223 11.7542 17.6149C11.7542 17.5076 11.7174 17.4035 11.65 17.3199C11.1 16.5199 10.57 15.7099 9.97003 14.8199L6.37004 20.1799Z" fill="#EF4C23"/>
<path d="M12.9601 27.93C12.9601 28.93 12.9601 30.01 12.9601 31.05C12.9601 31.78 12.7201 32.13 11.9601 32.12C9.83007 32.12 7.69006 32.12 5.56006 32.12C4.84006 32.12 4.56006 31.83 4.56006 31.12C4.56006 28.9933 4.56006 26.8633 4.56006 24.73C4.56006 24.01 4.86006 23.73 5.56006 23.73H11.9601C12.6701 23.73 12.9601 24.04 12.9601 24.73C12.9501 25.84 12.9601 26.84 12.9601 27.93ZM8.68007 30.93C9.51007 30.93 10.3401 30.93 11.1601 30.93C11.5401 30.93 11.7301 30.93 11.7201 30.43C11.7201 28.77 11.7201 27.12 11.7201 25.43C11.7201 25.03 11.5801 24.95 11.2101 24.95C9.5634 24.95 7.9134 24.95 6.26007 24.95C5.85007 24.95 5.78006 25.09 5.78006 25.46C5.78006 27.1133 5.78006 28.7633 5.78006 30.41C5.78006 30.82 5.92007 30.9 6.29007 30.89C7.08007 30.84 7.88007 30.89 8.68007 30.89V30.93Z" fill="#EF4C23"/>
<path d="M23.0299 27.93C23.0299 29.03 23.0299 30.12 23.0299 31.21C23.0299 31.85 22.7499 32.12 22.1099 32.12H15.5599C14.9099 32.12 14.6499 31.82 14.6599 31.19C14.6599 29.01 14.6599 26.82 14.6599 24.64C14.6599 24 14.9399 23.72 15.5799 23.72H22.1299C22.7699 23.72 23.0399 24.03 23.0299 24.66C23.0099 25.75 23.0299 26.84 23.0299 27.93ZM21.7999 28C21.7999 27.17 21.7999 26.35 21.7999 25.52C21.7999 25.15 21.7999 24.95 21.2999 24.96C19.6499 24.96 17.9899 24.96 16.2999 24.96C15.8999 24.96 15.8199 25.1 15.8299 25.47C15.8299 27.12 15.8299 28.77 15.8299 30.42C15.8299 30.82 15.9699 30.9 16.3399 30.9C17.9866 30.9 19.6366 30.9 21.2899 30.9C21.6999 30.9 21.7799 30.76 21.7699 30.4C21.7999 29.6 21.7999 28.84 21.7999 28Z" fill="#EF4C23"/>
<path d="M28.93 23.72C29.93 23.72 31.01 23.72 32.05 23.72C32.78 23.72 33.14 23.96 33.13 24.72C33.13 26.86 33.13 28.9933 33.13 31.12C33.13 31.85 32.83 32.12 32.13 32.12C29.99 32.12 27.8566 32.12 25.73 32.12C25.01 32.12 24.73 31.82 24.73 31.12C24.73 28.9933 24.73 26.8633 24.73 24.73C24.73 24.01 25.04 23.73 25.73 23.73C26.8 23.74 27.87 23.72 28.93 23.72ZM25.93 27.85C25.93 28.71 25.93 29.56 25.93 30.41C25.93 30.8 26.04 30.91 26.43 30.9C28.0833 30.9 29.75 30.9 31.43 30.9C31.82 30.9 31.93 30.79 31.92 30.41C31.92 28.76 31.92 27.1 31.92 25.41C31.92 25.02 31.81 24.92 31.43 24.92C29.78 24.92 28.13 24.92 26.43 24.92C26.05 24.92 25.93 25.03 25.94 25.41C25.99 26.25 25.97 27.05 25.97 27.84L25.93 27.85Z" fill="#EF4C23"/>
<path d="M28.92 10.7099C30.04 10.7099 31.16 10.7099 32.28 10.7099C32.7 10.7099 33.06 10.8099 33.08 11.2799C33.1 11.7499 32.74 11.9599 32.29 11.9599H25.57C25.11 11.9599 24.7401 11.7599 24.7601 11.2799C24.7801 10.7999 25.12 10.6899 25.56 10.6999C26.68 10.7199 27.8 10.7099 28.92 10.7099Z" fill="#EF4C23"/>
<path d="M28.91 16.66C27.79 16.66 26.67 16.66 25.55 16.66C25.11 16.66 24.77 16.51 24.76 16.07C24.75 15.63 25.06 15.41 25.5 15.41H32.38C32.81 15.41 33.11 15.63 33.08 16.09C33.05 16.55 32.75 16.65 32.35 16.65L28.91 16.66Z" fill="#EF4C23"/>
<path d="M28.92 19.04C27.82 19.04 26.73 19.04 25.63 19.04C25.18 19.04 24.78 18.95 24.76 18.45C24.74 17.95 25.12 17.79 25.57 17.79C27.82 17.79 30.06 17.79 32.3 17.79C32.75 17.79 33.11 17.96 33.08 18.47C33.05 18.98 32.7 19.04 32.28 19.04C31.16 19.03 30.04 19.04 28.92 19.04Z" fill="#EF4C23"/>
<path d="M29.0199 13.09C30.1099 13.09 31.1999 13.09 32.2999 13.09C32.7199 13.09 33.0699 13.19 33.0799 13.68C33.0899 14.17 32.7499 14.29 32.3199 14.28H25.5099C25.0699 14.28 24.7499 14.12 24.7699 13.66C24.7899 13.2 25.1399 13.08 25.5699 13.09C26.7199 13.11 27.8699 13.09 29.0199 13.09Z" fill="#EF4C23"/>
<path d="M27.44 21.44H25.52C25.07 21.44 24.76 21.23 24.76 20.8C24.76 20.37 25.09 20.17 25.53 20.17C26.81 20.17 28.09 20.17 29.37 20.17C29.81 20.17 30.12 20.36 30.12 20.81C30.12 21.26 29.79 21.44 29.36 21.44H27.44Z" fill="#EF4C23"/>
<path d="M30.44 9.56995H28.52C28.11 9.56995 27.76 9.43995 27.74 8.96995C27.72 8.49995 28.1 8.30995 28.55 8.31995H32.3C32.72 8.31995 33.07 8.45995 33.08 8.91995C33.09 9.37995 32.74 9.58995 32.28 9.57995C31.66 9.55995 31.05 9.56995 30.44 9.56995Z" fill="#EF4C23"/>
<path d="M25.6899 9.57004C25.1599 9.57004 24.7499 9.45004 24.7599 8.92004C24.7699 8.39004 25.2199 8.30004 25.6899 8.31004C26.1599 8.32004 26.5799 8.42004 26.5599 8.96004C26.5399 9.50004 26.1299 9.63004 25.6899 9.57004Z" fill="#EF4C23"/>
<path d="M32.19 21.44C31.73 21.44 31.3 21.35 31.29 20.82C31.28 20.29 31.7 20.17 32.18 20.16C32.66 20.15 33.07 20.25 33.08 20.79C33.09 21.33 32.67 21.47 32.19 21.44Z" fill="#EF4C23"/>
<path d="M23.5899 2.38999H30.3099C30.7799 2.38999 31.3099 2.38999 31.3099 3.01999C31.3099 3.64999 30.7799 3.63999 30.3099 3.63999H16.8899C16.4199 3.63999 15.8899 3.63999 15.8899 2.99999C15.8899 2.35999 16.4199 2.38999 16.8899 2.38999H23.5899Z" fill="#EF4C23"/>
<path d="M4.33009 2.38996C4.80009 2.38996 5.22009 2.46996 5.20009 3.02996C5.18009 3.58996 4.79009 3.64995 4.34009 3.64995C3.89009 3.64995 3.4201 3.58996 3.4101 3.01996C3.4001 2.44996 3.80009 2.35996 4.33009 2.38996Z" fill="#EF4C23"/>
<path d="M10.28 2.39001C10.72 2.34001 11.12 2.48 11.13 2.98C11.14 3.48 10.73 3.65 10.24 3.65C9.75003 3.65 9.33002 3.56 9.34002 3C9.35002 2.44 9.80002 2.36001 10.28 2.39001Z" fill="#EF4C23"/>
<path d="M33.3801 2.38995C33.9201 2.38995 34.3001 2.51995 34.2801 3.01995C34.2601 3.51995 33.7601 3.64995 33.2801 3.64995C32.8001 3.64995 32.4501 3.49995 32.4701 2.99995C32.4901 2.49995 32.9801 2.33995 33.3801 2.38995Z" fill="#EF4C23"/>
<path d="M7.30006 2.39001C7.79006 2.39001 8.20005 2.49 8.17005 3.05C8.14005 3.61 7.73006 3.65 7.29006 3.65C6.85006 3.65 6.39006 3.59 6.40006 3C6.41006 2.41 6.85006 2.37001 7.30006 2.39001Z" fill="#EF4C23"/>
</svg>
