<svg width="39" height="39" viewBox="0 0 39 39" fill="none" xmlns="http://www.w3.org/2000/svg">
<path d="M3.02006 0.900024H26.2501C28.2501 1.75002 28.8601 2.62002 28.8601 4.90002V16.56C29.2201 16.56 29.3301 16.3 29.4901 16.15C30.5601 15.08 31.6301 13.99 32.7101 12.93C33.0875 12.5149 33.6117 12.263 34.1716 12.2276C34.7315 12.1921 35.2833 12.3759 35.7101 12.74C36.7362 13.5711 37.6386 14.5442 38.3901 15.63V16.92C38.0904 17.513 37.6836 18.0453 37.1901 18.49C34.5601 21.06 31.9501 23.66 29.3201 26.23C29.1507 26.3743 29.0173 26.556 28.9305 26.7609C28.8437 26.9657 28.8059 27.188 28.8201 27.41C28.8201 30.03 28.8201 32.64 28.8201 35.26C28.8616 35.7423 28.7968 36.2279 28.6302 36.6825C28.4637 37.137 28.1995 37.5495 27.8562 37.8909C27.513 38.2322 27.099 38.4941 26.6435 38.6581C26.1881 38.8221 25.7021 38.8842 25.2201 38.84H4.16006C1.76006 38.84 0.450058 37.54 0.450058 35.14C0.450058 25.08 0.450058 15.02 0.450058 4.96003C0.410058 2.96003 1.13006 1.61002 3.02006 0.900024ZM26.5901 29.05C26.2869 29.3524 25.9516 29.6206 25.5901 29.85C23.5101 30.85 21.4001 31.85 19.3001 32.79C19.1331 32.8737 18.9469 32.9113 18.7606 32.899C18.5742 32.8867 18.3946 32.8249 18.2401 32.72C17.7001 32.41 17.5801 31.79 17.9401 31.02C18.8301 29.09 19.7401 27.16 20.6401 25.23C20.778 24.9438 20.9641 24.6834 21.1901 24.46C22.8001 22.84 24.4501 21.17 26.1001 19.54C26.2654 19.3925 26.396 19.2101 26.4824 19.0061C26.5689 18.8021 26.6091 18.5814 26.6001 18.36C26.6001 13.8 26.6001 9.23002 26.6001 4.67002C26.6001 3.47002 26.2701 3.14002 25.1001 3.14002C18.1601 3.14002 11.2167 3.14002 4.27006 3.14002C3.05006 3.14002 2.70006 3.48003 2.70006 4.70003V35.06C2.70006 36.28 3.05006 36.62 4.27006 36.62H25.1801C26.1801 36.62 26.5901 36.27 26.6001 35.34C26.6001 33.28 26.5901 31.23 26.5901 29.05ZM21.2301 29.44C22.7001 28.58 24.1601 28.26 25.2301 27.14C27.2301 25.06 29.3501 23.05 31.4201 21.01C31.8501 20.58 32.5901 20.16 32.6301 19.7C32.6701 19.24 31.8201 18.8 31.4301 18.3C31.0401 17.8 30.9101 17.89 30.5301 18.3C28.5301 20.37 26.5301 22.48 24.3601 24.45C22.9222 25.8307 21.8472 27.5446 21.2301 29.44ZM34.3701 14.39C33.8201 14.97 33.3701 15.46 32.8901 15.93C32.7001 16.13 32.6301 16.25 32.8301 16.52C34.1101 18.15 34.4801 18.16 35.8301 16.65C36.0501 16.4 36.1001 16.27 35.8301 16.02C35.3801 15.51 34.9101 14.97 34.3701 14.39Z" fill="#EF4C23"/>
<path d="M14.6799 8.07996H22.5999C23.5999 8.07996 24.1299 8.46996 24.1399 9.18996C24.1499 9.90996 23.5799 10.34 22.6299 10.34H6.70992C5.77992 10.34 5.26992 9.92996 5.25992 9.21996C5.24992 8.50996 5.72992 8.08996 6.66992 8.08996L14.6799 8.07996Z" fill="#EF4C23"/>
<path d="M12.9499 16.27H6.70992C5.77992 16.27 5.26992 15.87 5.25992 15.15C5.24992 14.43 5.73992 14.01 6.66992 14.01H19.1599C20.0399 14.01 20.6099 14.48 20.5899 15.16C20.5699 15.84 20.0099 16.27 19.1099 16.27H12.9499Z" fill="#EF4C23"/>
<path d="M11.1199 19.96H15.6799C16.5099 19.96 16.9699 20.34 16.9999 21.02C17.0299 21.7 16.5299 22.19 15.6999 22.2H6.57991C5.74991 22.2 5.24991 21.74 5.25991 21.04C5.26991 20.34 5.74992 19.96 6.55992 19.96H11.1199Z" fill="#EF4C23"/>
</svg>
