<svg width="40" height="40" viewBox="0 0 40 40" fill="none" xmlns="http://www.w3.org/2000/svg">
<path d="M28.1315 28.89C28.1315 25.89 28.2015 22.89 28.1315 19.84C28.0992 19.2561 28.1923 18.6719 28.4045 18.1269C28.6166 17.5819 28.9429 17.0886 29.3615 16.68C29.6336 16.3377 29.9857 16.0675 30.3868 15.8932C30.7878 15.7188 31.2255 15.6456 31.6615 15.68C33.2615 15.79 34.8715 15.68 36.4715 15.68C36.7138 15.6519 36.9593 15.6857 37.1849 15.7784C37.4106 15.8712 37.6089 16.0197 37.7615 16.21C38.2215 16.77 38.7615 17.31 39.2215 17.84C39.3199 17.9583 39.3922 18.0961 39.4336 18.2443C39.4749 18.3926 39.4844 18.5479 39.4615 18.7C39.4615 25.54 39.4615 32.38 39.4615 39.21C39.4615 39.85 39.2615 39.97 38.6815 39.96C35.4015 39.96 32.1281 39.96 28.8615 39.96C28.2815 39.96 28.1415 39.81 28.1415 39.24C28.1815 35.81 28.1315 32.36 28.1315 28.89Z" fill="#EF4C23"/>
<path d="M34.4415 2.89C33.4415 2.89 32.5215 2.89 31.6615 2.89C31.0715 2.89 30.9515 2.7 30.9415 2.14C30.9415 2.38419e-07 30.9415 0 33.0915 0C34.9715 0 36.8515 0 38.7415 0C39.2815 0 39.4815 0.100001 39.4715 0.700001C39.4715 3.13 39.4715 5.57 39.4715 8C39.4715 8.49 39.3715 8.69 38.8215 8.7C36.5815 8.75 36.5815 8.77 36.5815 6.54V5.14L33.9515 7.74C31.0015 10.68 28.0015 13.56 25.1515 16.59C23.5515 18.28 21.8515 19.89 20.2815 21.59C19.8715 22.03 19.6015 22.04 19.2015 21.59C17.7015 19.93 15.9215 18.53 14.5615 16.73C14.2215 16.28 13.9615 16.41 13.6415 16.73C10.2015 20.59 6.36152 24.07 2.77152 27.73C2.50152 28.01 2.33152 28 2.12152 27.73L2.05151 27.66C0.341514 26.09 0.341515 26.1 2.00152 24.45C4.36152 22.11 6.79152 19.82 9.00152 17.38C10.4415 15.82 12.0015 14.38 13.4115 12.81C13.9415 12.22 14.2515 12.28 14.7515 12.81C16.1515 14.35 17.7515 15.68 19.0715 17.34C19.5015 17.9 19.8415 17.91 20.3215 17.34C23.2215 13.99 26.5515 11.05 29.6215 7.86C31.3392 6.31474 32.9496 4.65423 34.4415 2.89Z" fill="#EF4C23"/>
<path d="M14.1316 33.11C14.1316 31.23 14.1316 29.36 14.1316 27.48C14.1195 26.8944 14.3304 26.3261 14.7216 25.89C15.1578 25.2832 15.7553 24.8107 16.4464 24.5261C17.1375 24.2416 17.8945 24.1563 18.6316 24.28C19.7998 24.3701 20.9733 24.3701 22.1416 24.28C22.7722 24.2769 23.3789 24.521 23.8316 24.96C24.4061 25.4056 24.8548 25.993 25.1336 26.6645C25.4124 27.3361 25.5116 28.0686 25.4216 28.79C25.3016 32.26 25.3716 35.74 25.4216 39.22C25.4216 39.81 25.2816 40 24.6616 40C21.3949 40 18.1249 40 14.8516 40C14.2316 40 14.0916 39.82 14.1016 39.23C14.1316 37.18 14.1316 35.14 14.1316 33.11Z" fill="#EF4C23"/>
<path d="M5.62151 39.96C3.95151 39.96 2.28151 39.96 0.621513 39.96C0.131513 39.96 -0.0084894 39.83 0.0015106 39.35C0.0015106 37.16 0.0015106 34.97 0.0015106 32.79C-0.00592895 32.6548 0.0141658 32.5195 0.0605774 32.3923C0.106989 32.2651 0.178751 32.1486 0.271511 32.05C0.96002 31.4474 1.58648 30.7774 2.14151 30.05C2.27151 29.84 2.52151 29.89 2.73151 29.89H8.56151C8.93151 29.89 9.24151 29.89 9.34151 30.35C9.34151 30.45 9.49151 30.54 9.59151 30.61C11.1615 31.61 11.5015 33.13 11.3315 34.91C11.2415 36.2918 11.2415 37.6781 11.3315 39.06C11.3315 39.75 11.2115 40.06 10.4415 39.99C8.83151 39.89 7.22151 39.96 5.62151 39.96Z" fill="#EF4C23"/>
</svg>
