<svg width="42" height="42" viewBox="0 0 42 42" fill="none" xmlns="http://www.w3.org/2000/svg">
<path d="M20.6119 30.5473H11.1719C10.0519 30.5473 9.83195 30.3273 9.83195 29.1873C9.83195 26.6373 9.83195 24.0873 9.83195 21.5373C9.83195 20.8173 9.63195 20.6373 8.96195 20.7073C8.41309 20.7574 7.86081 20.7574 7.31195 20.7073C6.31195 20.6473 5.94195 19.9573 6.47195 19.1373C7.56195 17.4373 8.70195 15.7673 9.82195 14.0773C9.96034 13.8515 10.1621 13.6713 10.4022 13.5593C10.6422 13.4472 10.9099 13.4083 11.1719 13.4473C17.5319 13.4473 23.8953 13.4473 30.2619 13.4473C30.5205 13.4344 30.7777 13.4928 31.0052 13.6163C31.2328 13.7397 31.4219 13.9235 31.5519 14.1473C32.6119 15.7673 33.6919 17.3673 34.7719 18.9673C34.9163 19.1293 35.0132 19.3279 35.052 19.5414C35.0909 19.7549 35.0701 19.9749 34.9919 20.1773C34.7719 20.6573 34.3019 20.7273 33.8219 20.7173H33.7319C33.0119 20.7873 32.0519 20.3873 31.6319 20.8873C31.2119 21.3873 31.5219 22.2373 31.5119 22.8873C31.5119 25.0073 31.5119 27.1273 31.5119 29.2473C31.5119 30.2473 31.2519 30.4873 30.2519 30.4873L20.6119 30.5473ZM19.7219 17.8273H19.5219C19.0619 18.5073 18.5219 19.1773 18.1519 19.8873C17.9906 20.1834 17.7445 20.4244 17.4451 20.5795C17.1457 20.7345 16.8068 20.7964 16.4719 20.7573C15.0819 20.7573 13.7019 20.7573 12.3119 20.7573C11.9319 20.7573 11.6919 20.7573 11.7019 21.2873C11.7019 22.6973 11.7019 24.1173 11.7019 25.5273C11.7019 25.9173 11.8019 26.0673 12.2119 26.0573C14.5519 26.0573 16.8819 26.0573 19.2119 26.0573C19.5519 26.0573 19.7119 25.9573 19.7119 25.5873C19.7119 22.9873 19.7153 20.4007 19.7219 17.8273ZM21.8119 17.8273H21.6119C21.6119 20.3873 21.6119 22.9573 21.6119 25.5173C21.6119 26.0673 21.9519 25.9873 22.2819 25.9873C24.5219 25.9873 26.7619 25.9873 29.0019 25.9873C29.5619 25.9873 29.6519 25.7873 29.6419 25.2973C29.6419 23.9773 29.6419 22.6573 29.6419 21.3473C29.6419 20.8273 29.5219 20.6573 28.9919 20.6773C27.5819 20.6773 26.1619 20.6773 24.7519 20.6773C24.4485 20.7057 24.1434 20.644 23.8748 20.5C23.6063 20.3559 23.3861 20.1359 23.2419 19.8673C22.7819 19.1873 22.2919 18.4973 21.8119 17.7873V17.8273ZM8.94195 18.8573C10.5019 18.8573 11.8719 18.8573 13.2419 18.8573C14.3419 18.8573 15.6219 19.1573 16.4919 18.6973C17.3619 18.2373 17.8019 16.9973 18.4219 16.0973L18.4819 16.0273C18.5519 15.8273 18.8119 15.6873 18.7119 15.4573C18.6119 15.2273 18.3319 15.3673 18.1719 15.3673H11.8019C11.5619 15.3673 11.3119 15.3673 11.1419 15.5773L8.94195 18.8573ZM32.4119 18.8573C31.6719 17.7473 31.0319 16.8573 30.4619 15.9073C30.3485 15.7177 30.182 15.5654 29.9829 15.4694C29.7838 15.3735 29.561 15.338 29.3419 15.3673C27.3419 15.3673 25.2819 15.3673 23.2519 15.3673C23.0419 15.3673 22.7619 15.2473 22.5619 15.5673C23.2119 16.5673 23.8619 17.5673 24.5619 18.5673C24.6195 18.6757 24.7062 18.7658 24.8122 18.8277C24.9182 18.8895 25.0393 18.9205 25.1619 18.9173L32.4119 18.8573ZM15.7819 28.7073H19.0919C19.3719 28.7073 19.7319 28.8473 19.7319 28.3173C19.7319 27.7873 19.4019 27.8973 19.1019 27.8973H12.2919C11.9619 27.8973 11.6919 27.8973 11.7019 28.3573C11.7119 28.8173 12.0219 28.7173 12.2819 28.7173L15.7819 28.7073ZM25.5819 28.7073H28.9919C29.2519 28.7073 29.6219 28.8673 29.6319 28.3273C29.6419 27.7873 29.3319 27.8973 29.0219 27.8973H22.3019C21.9919 27.8973 21.5919 27.7773 21.6119 28.3373C21.6319 28.8973 22.0019 28.7073 22.2619 28.7073C23.3719 28.7173 24.4719 28.7073 25.5819 28.7073Z" fill="#EF4C23"/>
<path d="M4.22201 17.0373C4.3227 16.9766 4.43454 16.9367 4.55091 16.92C4.66728 16.9032 4.78584 16.9099 4.89956 16.9398C5.01328 16.9696 5.11988 17.0219 5.21304 17.0936C5.30621 17.1653 5.38407 17.255 5.44201 17.3573C5.55664 17.5421 5.60791 17.7592 5.58806 17.9757C5.56821 18.1923 5.47832 18.3964 5.33201 18.5573C4.78201 19.3673 4.25201 20.1973 3.69201 20.9973C3.13201 21.7973 2.48201 21.7873 1.92201 20.9973C1.36201 20.2073 0.862009 19.4173 0.332009 18.6373C-0.0379907 18.0973 -0.207989 17.5473 0.412011 17.0973C1.03201 16.6473 1.49201 17.0273 1.85201 17.5673C1.92173 17.6357 1.99887 17.6961 2.08201 17.7473C2.81538 13.1423 5.23129 8.97329 8.86201 6.04731C10.816 4.45512 13.0759 3.2809 15.502 2.59731C16.142 2.41731 16.782 2.29731 17.022 3.09731C17.262 3.89731 16.732 4.14731 16.022 4.35731C13.1384 5.16247 10.5209 6.72055 8.43844 8.87158C6.35594 11.0226 4.88341 13.6891 4.17201 16.5973C4.16717 16.6872 4.16717 16.7774 4.17201 16.8673C4.18271 16.9256 4.19946 16.9825 4.22201 17.0373Z" fill="#EF4C23"/>
<path d="M17.0921 37.2774C16.8221 36.6474 16.8921 36.2774 17.3121 35.9174C17.5035 35.7851 17.7351 35.7237 17.9669 35.7438C18.1987 35.7638 18.4163 35.8641 18.5821 36.0274C19.3721 36.5574 20.1721 37.0274 20.9621 37.6074C21.7521 38.1874 21.8021 38.8374 20.9621 39.4274C20.2921 39.9074 19.5921 40.3474 18.9021 40.8174C18.2121 41.2874 17.7321 41.6974 17.1321 40.9674C16.5321 40.2374 17.1821 39.7674 17.8021 39.2674C15.3232 38.865 12.9459 37.9854 10.8021 36.6774C6.73815 34.1986 3.77044 30.2655 2.50212 25.6774C2.32212 25.0674 2.32212 24.4674 3.08212 24.2674C3.84212 24.0674 4.08212 24.5474 4.30212 25.1874C6.28212 31.5574 10.5421 35.4674 17.0921 37.2774Z" fill="#EF4C23"/>
<path d="M24.262 4.0473C24.502 4.6873 24.452 5.1073 24.022 5.4173C23.8297 5.55222 23.596 5.61515 23.362 5.59503C23.1279 5.57492 22.9084 5.47305 22.742 5.3073C21.962 4.7673 21.152 4.3073 20.372 3.7173C19.592 3.1273 19.542 2.4873 20.372 1.8973C21.202 1.3073 21.902 0.897299 22.662 0.357299C23.222 -0.0327013 23.802 -0.232701 24.252 0.447299C24.702 1.1273 24.252 1.5273 23.732 1.8773C23.6741 1.94019 23.6206 2.00701 23.572 2.0773C26.4538 2.54646 29.1902 3.66839 31.572 5.3573C35.0896 7.84697 37.6399 11.4746 38.792 15.6273C38.972 16.2373 38.972 16.8373 38.212 17.0373C37.452 17.2373 37.212 16.7473 37.002 16.1073C35.052 9.76729 30.782 5.8573 24.262 4.0473Z" fill="#EF4C23"/>
<path d="M39.262 23.5373C38.6961 27.0996 37.1237 30.426 34.7301 33.1243C32.3365 35.8227 29.2214 37.7806 25.752 38.7673C25.142 38.9473 24.522 38.9873 24.312 38.2373C24.102 37.4873 24.602 37.1873 25.312 36.9773C28.1997 36.1747 30.8211 34.6165 32.9058 32.4632C34.9906 30.3099 36.4633 27.6395 37.172 24.7273C37.1776 24.6374 37.1776 24.5472 37.172 24.4573C37.172 24.4573 37.172 24.4573 37.172 24.3373C36.9538 24.4353 36.7078 24.4519 36.4784 24.384C36.2491 24.3161 36.0517 24.1683 35.922 23.9673C35.632 23.4973 35.822 23.1073 36.102 22.6973C36.622 21.9373 37.102 21.1573 37.632 20.3973C38.162 19.6373 38.882 19.5173 39.512 20.3973C40.142 21.2773 40.572 21.9773 41.102 22.7673C41.452 23.2973 41.532 23.8273 40.962 24.2273C40.392 24.6273 39.962 24.3573 39.582 23.8273C39.4815 23.7241 39.3746 23.6272 39.262 23.5373Z" fill="#EF4C23"/>
<path d="M36.4121 6.3673C35.5997 6.33156 34.8319 5.98599 34.2665 5.40163C33.7011 4.81727 33.381 4.03851 33.372 3.22543C33.3631 2.41235 33.6659 1.62672 34.2183 1.03004C34.7707 0.433351 35.5307 0.0709427 36.3421 0.0173029C36.7734 -0.0112161 37.2061 0.0485242 37.6136 0.192874C38.0211 0.337225 38.3949 0.56315 38.7122 0.856849C39.0294 1.15055 39.2834 1.50585 39.4587 1.90105C39.634 2.29624 39.7269 2.72303 39.7316 3.15532C39.7364 3.58762 39.653 4.01635 39.4864 4.41531C39.3199 4.81427 39.0738 5.17509 38.7631 5.47571C38.4524 5.77633 38.0837 6.01044 37.6794 6.16374C37.2752 6.31704 36.844 6.3863 36.4121 6.3673ZM35.0421 3.1673C35.026 3.35233 35.0486 3.53867 35.1084 3.71449C35.1682 3.89032 35.264 4.05179 35.3895 4.18866C35.515 4.32554 35.6676 4.43482 35.8376 4.50959C36.0076 4.58435 36.1913 4.62295 36.3771 4.62295C36.5628 4.62295 36.7465 4.58435 36.9165 4.50959C37.0865 4.43482 37.2391 4.32554 37.3646 4.18866C37.4901 4.05179 37.5859 3.89032 37.6457 3.71449C37.7055 3.53867 37.7281 3.35233 37.7121 3.1673C37.6831 2.83318 37.5299 2.52206 37.2828 2.29539C37.0356 2.06871 36.7124 1.94295 36.3771 1.94295C36.0417 1.94295 35.7185 2.06871 35.4713 2.29539C35.2242 2.52206 35.071 2.83318 35.0421 3.1673Z" fill="#EF4C23"/>
<path d="M8.17211 3.57727C8.17606 4.11692 8.01939 4.64555 7.72204 5.0959C7.42469 5.54626 7.0001 5.89798 6.50228 6.10632C6.00445 6.31466 5.45591 6.37022 4.92642 6.2659C4.39694 6.16159 3.91045 5.90213 3.52885 5.52053C3.14725 5.13893 2.88779 4.65244 2.78348 4.12296C2.67916 3.59347 2.73471 3.04492 2.94306 2.5471C3.1514 2.04928 3.50312 1.62468 3.95348 1.32733C4.40383 1.02998 4.93246 0.873317 5.47211 0.87727C6.18497 0.887603 6.86574 1.17539 7.36987 1.67951C7.87399 2.18364 8.16177 2.8644 8.17211 3.57727ZM6.30211 3.57727C6.31616 3.4627 6.30427 3.34644 6.26732 3.23709C6.23038 3.12773 6.16932 3.02808 6.08867 2.94551C6.00802 2.86294 5.90983 2.79955 5.80138 2.76004C5.69292 2.72054 5.57697 2.70592 5.46211 2.71727C5.34786 2.70707 5.23276 2.72155 5.12461 2.75974C5.01646 2.79792 4.91778 2.85891 4.83526 2.93858C4.75275 3.01825 4.68833 3.11473 4.64638 3.22147C4.60443 3.32822 4.58591 3.44274 4.5921 3.55727C4.58343 3.67334 4.59957 3.78993 4.63945 3.89928C4.67932 4.00863 4.74202 4.10824 4.82337 4.19149C4.90473 4.27473 5.00287 4.3397 5.11127 4.38208C5.21968 4.42446 5.33586 4.44327 5.4521 4.43727C5.55801 4.43728 5.66286 4.41626 5.76058 4.37543C5.8583 4.3346 5.94694 4.27478 6.02136 4.19943C6.09578 4.12408 6.15449 4.03471 6.19411 3.93649C6.23372 3.83827 6.25343 3.73317 6.25211 3.62727L6.30211 3.57727Z" fill="#EF4C23"/>
<path d="M3.61205 38.6473C2.90043 38.6349 2.22066 38.3501 1.71276 37.8515C1.20487 37.3529 0.907544 36.6785 0.88205 35.9673C0.872122 35.4253 1.02376 34.8927 1.31763 34.4372C1.61151 33.9817 2.03433 33.624 2.53222 33.4097C3.0301 33.1954 3.58052 33.1341 4.11333 33.2338C4.64615 33.3334 5.13726 33.5894 5.52407 33.9691C5.91089 34.3488 6.1759 34.8351 6.28536 35.366C6.39481 35.8969 6.34375 36.4483 6.13867 36.9501C5.9336 37.4519 5.58379 37.8812 5.13382 38.1835C4.68386 38.4857 4.1541 38.6472 3.61205 38.6473ZM4.52205 35.8673C4.49469 35.6393 4.38309 35.4298 4.20916 35.2799C4.03523 35.1301 3.81155 35.0506 3.58205 35.0573C3.4678 35.0625 3.3557 35.0902 3.25216 35.1388C3.14862 35.1874 3.05566 35.2559 2.97858 35.3404C2.90151 35.4249 2.84184 35.5237 2.80297 35.6313C2.7641 35.7388 2.7468 35.853 2.75205 35.9673C2.75731 36.0815 2.78501 36.1936 2.83358 36.2972C2.88216 36.4007 2.95065 36.4937 3.03515 36.5707C3.11965 36.6478 3.21851 36.7075 3.32607 36.7463C3.43364 36.7852 3.5478 36.8025 3.66205 36.7973C3.89724 36.7819 4.11757 36.6769 4.27759 36.5038C4.43761 36.3308 4.52511 36.1029 4.52205 35.8673Z" fill="#EF4C23"/>
<path d="M23.4221 10.7773C23.5462 10.7786 23.6685 10.8066 23.7807 10.8596C23.8929 10.9125 23.9923 10.9892 24.0721 11.0842C24.1519 11.1792 24.2102 11.2903 24.243 11.4099C24.2758 11.5296 24.2824 11.6549 24.2621 11.7773C24.2307 12.0015 24.1168 12.2059 23.9428 12.3507C23.7687 12.4954 23.5469 12.5701 23.3208 12.5601C23.0946 12.5501 22.8803 12.4562 22.7197 12.2966C22.5591 12.1371 22.4637 11.9234 22.4521 11.6973C22.4621 11.1073 22.8121 10.8073 23.4221 10.7773Z" fill="#EF4C23"/>
<path d="M37.702 8.03735C38.292 8.16735 38.702 8.47735 38.632 9.03735C38.6369 9.1533 38.6168 9.26894 38.5731 9.37644C38.5294 9.48394 38.4631 9.5808 38.3787 9.66045C38.2943 9.74011 38.1937 9.80069 38.0839 9.83811C37.974 9.87553 37.8574 9.88892 37.742 9.87736C37.6191 9.89315 37.4943 9.88092 37.3769 9.84158C37.2595 9.80224 37.1525 9.73682 37.064 9.65022C36.9754 9.56361 36.9077 9.45809 36.8658 9.34155C36.8239 9.22502 36.8089 9.1005 36.822 8.97736C36.822 8.36736 37.232 8.16735 37.702 8.03735Z" fill="#EF4C23"/>
<path d="M12.6422 10.7773C12.7672 10.7792 12.8905 10.8074 13.0039 10.8601C13.1173 10.9127 13.2184 10.9887 13.3004 11.0831C13.3825 11.1774 13.4438 11.288 13.4803 11.4076C13.5168 11.5273 13.5276 11.6532 13.5122 11.7773C13.5121 11.9026 13.4851 12.0263 13.4328 12.1401C13.3806 12.2539 13.3044 12.3551 13.2094 12.4367C13.1145 12.5184 13.003 12.5786 12.8827 12.6132C12.7624 12.6478 12.636 12.656 12.5122 12.6373C12.396 12.6366 12.2813 12.6115 12.1754 12.5637C12.0696 12.5159 11.9749 12.4463 11.8976 12.3596C11.8204 12.2729 11.7621 12.1709 11.7267 12.0603C11.6913 11.9497 11.6796 11.8328 11.6922 11.7173C11.7022 11.0973 12.0422 10.8173 12.6422 10.7773Z" fill="#EF4C23"/>
<path d="M18.9121 11.6574C18.8421 12.2074 18.5621 12.6074 17.9921 12.6074C17.869 12.6163 17.7454 12.5986 17.6297 12.5556C17.5141 12.5125 17.409 12.445 17.3217 12.3577C17.2345 12.2705 17.167 12.1654 17.1239 12.0497C17.0808 11.9341 17.0632 11.8105 17.0721 11.6874C17.0622 11.5722 17.0767 11.4563 17.1148 11.3472C17.1528 11.2381 17.2134 11.1382 17.2928 11.0542C17.3721 10.9702 17.4682 10.9039 17.575 10.8596C17.6817 10.8153 17.7966 10.7941 17.9121 10.7974C18.5121 10.7474 18.7921 11.1174 18.9121 11.6574Z" fill="#EF4C23"/>
<path d="M28.712 12.6374C28.162 12.5274 27.782 12.1974 27.822 11.6374C27.8232 11.5133 27.8513 11.391 27.9042 11.2788C27.9572 11.1666 28.0338 11.0672 28.1288 10.9874C28.2238 10.9076 28.3349 10.8493 28.4546 10.8165C28.5742 10.7837 28.6996 10.7772 28.822 10.7974C28.9381 10.795 29.0535 10.8177 29.1601 10.8639C29.2667 10.9101 29.3622 10.9787 29.4399 11.065C29.5177 11.1513 29.576 11.2533 29.6109 11.3642C29.6457 11.475 29.6563 11.5921 29.642 11.7074C29.6433 11.8299 29.6202 11.9514 29.5739 12.0648C29.5276 12.1783 29.4592 12.2813 29.3726 12.368C29.2859 12.4546 29.1829 12.523 29.0695 12.5693C28.956 12.6156 28.8345 12.6387 28.712 12.6374Z" fill="#EF4C23"/>
<path d="M37.5721 35.9174C37.4584 35.912 37.3471 35.8825 37.2457 35.8307C37.1444 35.779 37.0552 35.7062 36.9842 35.6172C36.9132 35.5282 36.8621 35.4251 36.8341 35.3148C36.8061 35.2044 36.802 35.0894 36.8221 34.9774C36.8177 34.8615 36.8376 34.7461 36.8805 34.6384C36.9234 34.5307 36.9885 34.4332 37.0714 34.3522C37.1543 34.2712 37.2532 34.2084 37.3618 34.168C37.4705 34.1275 37.5864 34.1103 37.7021 34.1174C37.8264 34.1051 37.9518 34.1204 38.0695 34.1622C38.1872 34.204 38.2943 34.2712 38.3831 34.359C38.4719 34.4468 38.5402 34.5532 38.5833 34.6704C38.6263 34.7877 38.643 34.9129 38.6321 35.0374C38.6221 35.5874 38.3021 35.9374 37.5721 35.9174Z" fill="#EF4C23"/>
<path d="M16.1719 11.5773C16.1719 12.2573 15.8519 12.5773 15.2919 12.5773C15.1679 12.5885 15.0429 12.5719 14.9261 12.5288C14.8092 12.4857 14.7034 12.4172 14.6163 12.3282C14.5292 12.2392 14.463 12.1319 14.4225 12.0142C14.3819 11.8964 14.3681 11.7711 14.3819 11.6473C14.3734 11.5322 14.3893 11.4165 14.4286 11.3078C14.4678 11.1992 14.5296 11.1001 14.6099 11.017C14.6901 10.9339 14.787 10.8688 14.8942 10.8257C15.0014 10.7827 15.1165 10.7628 15.2319 10.7673C15.3486 10.7484 15.4681 10.7552 15.5819 10.7873C15.6957 10.8194 15.8011 10.876 15.8907 10.9532C15.9803 11.0304 16.0519 11.1263 16.1005 11.2341C16.1491 11.3419 16.1735 11.4591 16.1719 11.5773Z" fill="#EF4C23"/>
<path d="M21.5919 11.6173C21.5319 12.2073 21.2519 12.6173 20.6819 12.6173C20.5584 12.6279 20.4341 12.6115 20.3176 12.569C20.2012 12.5265 20.0954 12.4591 20.0077 12.3715C19.9201 12.2838 19.8527 12.178 19.8102 12.0616C19.7677 11.9451 19.7513 11.8208 19.7619 11.6973C19.7536 11.5825 19.7692 11.4672 19.8078 11.3588C19.8464 11.2504 19.9072 11.1512 19.9862 11.0675C20.0651 10.9838 20.1607 10.9174 20.2667 10.8726C20.3727 10.8278 20.4869 10.8056 20.6019 10.8073C21.1719 10.7573 21.4719 11.1273 21.5919 11.6173Z" fill="#EF4C23"/>
<path d="M25.1719 11.6073C25.1704 11.489 25.1948 11.3719 25.2434 11.264C25.2919 11.1562 25.3635 11.0603 25.4531 10.9831C25.5427 10.9059 25.6481 10.8493 25.7619 10.8172C25.8757 10.7851 25.9952 10.7783 26.1119 10.7973C26.2278 10.7928 26.3432 10.8128 26.4509 10.8557C26.5586 10.8986 26.6561 10.9636 26.7371 11.0465C26.8181 11.1294 26.8809 11.2284 26.9213 11.337C26.9618 11.4457 26.979 11.5616 26.9719 11.6773C26.984 11.8006 26.9688 11.9252 26.9277 12.0421C26.8865 12.159 26.8202 12.2655 26.7335 12.3541C26.6468 12.4427 26.5417 12.5113 26.4257 12.555C26.3097 12.5988 26.1856 12.6166 26.0619 12.6073C25.4919 12.5973 25.1719 12.2673 25.1719 11.6073Z" fill="#EF4C23"/>
<path d="M34.1721 38.5774C34.1729 38.8293 34.0786 39.0722 33.908 39.2576C33.7375 39.443 33.5032 39.5572 33.2521 39.5774C33.0055 39.588 32.7647 39.5002 32.5828 39.3333C32.4009 39.1664 32.2927 38.934 32.2821 38.6874C32.2715 38.4407 32.3593 38.2 32.5262 38.018C32.6931 37.8361 32.9255 37.728 33.1721 37.7174C33.7721 37.6774 34.0421 38.0574 34.1721 38.5774Z" fill="#EF4C23"/>
<path d="M1.90212 10.7973C1.77719 10.8129 1.65038 10.8017 1.53007 10.7647C1.40975 10.7276 1.29867 10.6654 1.20416 10.5822C1.10965 10.4991 1.03386 10.3968 0.981792 10.2822C0.929728 10.1676 0.902572 10.0432 0.902122 9.91729C0.891854 9.79297 0.908442 9.66789 0.950764 9.55053C0.993085 9.43318 1.06015 9.3263 1.14741 9.23715C1.23467 9.14799 1.34008 9.07864 1.45649 9.03381C1.57291 8.98897 1.69761 8.9697 1.82212 8.97729C1.93777 8.96887 2.05389 8.98476 2.16301 9.02396C2.27213 9.06316 2.37182 9.12479 2.45567 9.20487C2.53952 9.28495 2.60566 9.38171 2.64983 9.48891C2.694 9.59611 2.71522 9.71138 2.71212 9.82729C2.73067 9.94549 2.72376 10.0663 2.69184 10.1816C2.65992 10.2969 2.60373 10.4041 2.52704 10.4959C2.45035 10.5878 2.35492 10.6622 2.24715 10.7141C2.13937 10.7661 2.02174 10.7945 1.90212 10.7973Z" fill="#EF4C23"/>
<path d="M8.10196 38.6573C7.53196 38.5673 7.10196 38.2473 7.18196 37.6573C7.17728 37.5299 7.20099 37.403 7.25137 37.2859C7.30174 37.1688 7.37753 37.0644 7.47324 36.9801C7.56896 36.8959 7.6822 36.834 7.80477 36.7989C7.92735 36.7639 8.05618 36.7565 8.18196 36.7773C8.29747 36.7741 8.41236 36.7953 8.51909 36.8395C8.62583 36.8838 8.72201 36.9501 8.80132 37.0342C8.88063 37.1182 8.94129 37.218 8.97931 37.3272C9.01734 37.4363 9.03187 37.5522 9.02196 37.6673C9.01196 38.3073 8.64196 38.5673 8.10196 38.6573Z" fill="#EF4C23"/>
</svg>
