<svg width="40" height="40" viewBox="0 0 40 40" fill="none" xmlns="http://www.w3.org/2000/svg">
<path d="M39.74 20.66C39.41 20.66 39.37 21.01 39.24 21.22C37.74 23.61 36.24 26 34.76 28.39C34.5535 28.7328 34.2817 29.0318 33.96 29.27C31.73 30.89 29.49 32.51 27.27 34.16C26.8351 34.493 26.2973 34.6628 25.75 34.64C21.75 34.64 17.65 34.64 13.61 34.64C13.61 34.75 13.53 34.82 13.55 34.86C14.1 36.1 14.11 36.1 12.92 36.72C11.1 37.66 9.27003 38.59 7.47003 39.57C7.00003 39.82 6.82002 39.76 6.59002 39.3C4.45002 35.1733 2.29336 31.05 0.120023 26.93C-0.129977 26.46 0.0300261 26.32 0.420026 26.12C2.42003 25.12 4.42003 24.12 6.36003 23.01C7.01003 22.64 7.36002 22.74 7.55002 23.41C7.64205 23.5983 7.74906 23.7789 7.87002 23.95C8.56002 23.29 9.20002 22.67 9.87002 22.06C9.9401 21.9803 9.99168 21.886 10.0211 21.784C10.0505 21.682 10.0569 21.5748 10.04 21.47C10.04 19.84 10.04 18.21 10.04 16.59C10.04 16.05 9.83003 15.99 9.39003 16C8.29003 16 7.20003 16 5.93003 16C6.87003 14.31 7.74002 12.76 8.55002 11.25C9.06002 10.31 9.37002 9.06 10.16 8.53C10.95 8 12.3 8.37 13.39 8.37C19.39 8.37 25.39 8.37 31.46 8.37C31.7112 8.34258 31.9644 8.3994 32.1798 8.53154C32.3952 8.66368 32.5606 8.86364 32.65 9.1C33.83 11.38 35.07 13.63 36.37 16.1C35.16 16.1 34.08 16.1 33 16.1C32.43 16.1 32.25 16.25 32.27 16.82C32.27 18.08 32.27 19.33 32.27 20.7C33.1572 20.1876 34.0999 19.7783 35.08 19.48C36.79 19.11 38.26 19.79 39.76 20.41L39.74 20.66ZM36.11 21.72C35.6652 21.6845 35.218 21.7486 34.8011 21.9077C34.3842 22.0669 34.008 22.3171 33.7 22.64C32.24 24.15 30.37 25.02 28.7 26.17C28.3804 26.3479 28.1276 26.6253 27.98 26.96C27.742 27.681 27.2708 28.3023 26.6408 28.726C26.0107 29.1496 25.2575 29.3516 24.5 29.3H19.17C17.53 29.3 17.55 29.3 17.55 27.63C17.55 27.08 17.68 26.9 18.26 26.91C20.26 26.91 22.26 26.91 24.26 26.91C25.26 26.91 25.78 26.5 25.79 25.84C25.8 25.18 25.35 24.76 24.31 24.75C22.99 24.75 21.67 24.75 20.31 24.75C20.0149 24.8069 19.7096 24.7755 19.4321 24.6599C19.1547 24.5443 18.9175 24.3496 18.75 24.1C18.3615 23.6335 17.8118 23.3301 17.21 23.25C14.21 22.58 11.55 23.07 9.56003 25.68C9.23003 26.1 9.10002 26.37 9.37002 26.86C10.23 28.42 11.06 29.99 11.84 31.58C11.9239 31.8043 12.0812 31.9937 12.2864 32.1171C12.4916 32.2406 12.7326 32.291 12.97 32.26C15.89 32.26 18.82 32.08 21.72 32.26C23.0649 32.4298 24.4307 32.301 25.7202 31.8827C27.0096 31.4645 28.1909 30.767 29.18 29.84C30.27 28.84 31.78 28.2 32.71 27.08C33.9655 25.3656 35.1143 23.5755 36.15 21.72H36.11ZM21.11 12.08C20.57 13.25 19.99 14.25 19.49 15.25C19.3988 15.5052 19.2232 15.7216 18.9923 15.8634C18.7613 16.0053 18.4889 16.064 18.22 16.03C16.51 16.03 14.79 16.03 13.07 16.03C12.69 16.03 12.43 16.03 12.44 16.54C12.44 17.83 12.44 19.12 12.44 20.41C12.44 20.74 12.44 20.93 12.89 20.86C15.3038 20.3113 17.8357 20.6934 19.98 21.93C19.98 20.65 19.98 19.49 19.98 18.34C19.98 18.12 19.85 17.78 20.24 17.77C20.9076 17.6777 21.5866 17.7151 22.24 17.88C22.59 18.03 22.34 18.78 22.36 19.27C22.38 19.76 22.36 20.37 22.36 20.92C22.36 22.41 22.36 22.43 23.84 22.41C24.4338 22.3175 25.041 22.3642 25.6137 22.5464C26.1863 22.7286 26.7089 23.0414 27.14 23.46C27.59 23.99 27.91 23.99 28.39 23.61C28.601 23.4327 28.8327 23.2816 29.08 23.16C29.76 22.89 29.9 22.4 29.88 21.7C29.88 20.05 29.88 18.39 29.88 16.7C29.88 16.12 29.72 15.98 29.16 15.99C27.47 15.99 25.78 15.99 24.09 15.99C23.8306 16.0214 23.568 15.9658 23.3436 15.8318C23.1192 15.6979 22.9456 15.4933 22.85 15.25C22.35 14.25 21.79 13.25 21.17 12.08H21.11ZM10.91 34.93L10.74 34.66C9.27003 31.83 7.74002 29.01 6.33002 26.18C6.15002 25.82 5.97003 25.9 5.70003 26.04C5.06003 26.39 4.41002 26.76 3.70002 27.04C2.99002 27.32 3.09003 27.55 3.38003 28.04C4.57003 30.13 5.62003 32.25 6.74003 34.25C7.16003 35.03 7.38003 36.32 8.06003 36.43C8.74003 36.54 9.68003 35.72 10.49 35.31C10.6022 35.2564 10.7093 35.1928 10.81 35.12C10.8512 35.0611 10.8848 34.9973 10.91 34.93ZM32.38 13.62C31.87 12.62 31.38 11.86 31.02 11.05C30.9703 10.941 30.8875 10.8505 30.7834 10.7913C30.6792 10.732 30.5591 10.7071 30.44 10.72H23.17C23.66 11.65 24.1 12.48 24.53 13.31C24.5839 13.4189 24.6712 13.5077 24.7792 13.5634C24.8871 13.6192 25.01 13.639 25.13 13.62H32.38ZM19.15 10.77H18.84C17.2173 10.8585 15.5906 10.8418 13.97 10.72C11.97 10.48 10.85 11.15 10.29 12.99C10.2976 13.0195 10.2976 13.0505 10.29 13.08C9.95003 13.57 10.16 13.67 10.67 13.67C12.81 13.67 14.96 13.67 17.1 13.67C17.42 13.67 17.69 13.67 17.87 13.32C18.23 12.47 18.67 11.67 19.15 10.77Z" fill="#EF4C23"/>
<path d="M22.4502 0C22.4502 1.25 22.3702 2.5 22.4502 3.75C22.4502 4.33 22.2702 4.47 21.7202 4.47C20.0402 4.47 20.0602 4.47 20.0302 2.8C20.1186 1.86594 20.0816 0.92424 19.9202 0H22.4502Z" fill="#EF4C23"/>
<path d="M16.1902 0.900054C16.6502 0.780054 16.6902 0.900054 16.7602 1.13005C17.1702 2.28005 17.6002 3.43005 18.0202 4.57005C18.1102 4.80005 18.0902 4.98005 17.8302 5.08005H17.7502C16.1902 5.92005 15.9802 5.84005 15.3702 4.19005C15.2102 3.77005 15.0202 3.35005 14.9002 2.91005C14.7802 2.47005 14.2402 1.91005 14.5602 1.57005C15.0596 1.25197 15.6115 1.02512 16.1902 0.900054Z" fill="#EF4C23"/>
<path d="M27.8601 1.85004C27.4201 3.04004 26.9601 4.31004 26.4801 5.57004C26.3901 5.79004 26.1901 5.69004 26.0001 5.64004C24.1601 5.19004 24.1301 5.13004 24.8001 3.32004C25.0501 2.63004 25.3101 1.94004 25.5301 1.25004C25.6501 0.860041 25.8201 0.760041 26.1901 0.920041C26.5601 1.08004 27.1001 1.27004 27.5601 1.44004C27.7401 1.51004 27.9501 1.50004 27.8601 1.85004Z" fill="#EF4C23"/>
</svg>
