<svg width="35" height="36" viewBox="0 0 35 36" fill="none" xmlns="http://www.w3.org/2000/svg">
<path d="M28.5513 0C30.2213 0.8 30.6513 2.15 30.6113 3.94C30.5113 8.45 30.6113 12.94 30.6113 17.47C30.6623 17.8854 30.6185 18.3069 30.4832 18.703C30.3479 19.099 30.1246 19.4592 29.8301 19.7566C29.5357 20.0539 29.1776 20.2807 28.7829 20.4199C28.3882 20.559 27.9671 20.6069 27.5513 20.56H7.45128C7.035 20.6089 6.61306 20.5624 6.21745 20.4239C5.82184 20.2855 5.46295 20.0588 5.16803 19.7609C4.8731 19.4631 4.64988 19.102 4.51529 18.7051C4.38071 18.3082 4.3383 17.8858 4.39128 17.47C4.39128 12.96 4.46128 8.47 4.39128 3.93C4.39128 2.14 4.79128 0.8 6.45128 0H6.82128C7.03128 0.28 7.33128 0.170002 7.59128 0.170002H27.4413C27.7013 0.170002 28.0013 0.28 28.2113 0H28.5513ZM17.4313 19.76H27.4313C29.1313 19.76 29.8613 19.04 29.8613 17.37C29.8613 12.6433 29.8613 7.91333 29.8613 3.18C29.9105 2.85747 29.8832 2.52788 29.7815 2.21787C29.6798 1.90786 29.5066 1.62611 29.2759 1.39541C29.0452 1.1647 28.7634 0.991508 28.4534 0.889812C28.1434 0.788117 27.8138 0.760778 27.4913 0.810001H7.53128C7.20839 0.761231 6.87857 0.788797 6.56826 0.890491C6.25795 0.992186 5.97579 1.16518 5.7444 1.3956C5.51301 1.62602 5.33882 1.90745 5.23582 2.21733C5.13282 2.52721 5.10387 2.85691 5.15128 3.18C5.15128 7.90667 5.15128 12.6367 5.15128 17.37C5.15128 19.03 5.89128 19.75 7.57128 19.76H17.4313Z" fill="#EF4C23"/>
<path d="M28.1813 0C27.9713 0.28 27.6713 0.170002 27.4113 0.170002H7.56126C7.30126 0.170002 7.00126 0.28 6.79126 0H28.1813Z" fill="#EF4C23"/>
<path d="M29.6113 35.74C28.5113 35.74 27.4013 35.74 26.3013 35.74C25.9458 35.7817 25.5858 35.7211 25.2636 35.5653C24.9414 35.4094 24.6704 35.1649 24.4824 34.8603C24.2944 34.5557 24.1972 34.2038 24.2023 33.8459C24.2075 33.4881 24.3146 33.1391 24.5113 32.84C24.9609 31.8552 25.6962 31.0283 26.6217 30.4666C27.5471 29.9049 28.6201 29.6343 29.7013 29.69C30.7575 29.6701 31.796 29.9634 32.6858 30.5329C33.5756 31.1024 34.2769 31.9226 34.7013 32.89C34.8878 33.1835 34.9883 33.5233 34.9915 33.871C34.9946 34.2187 34.9003 34.5603 34.7191 34.8571C34.5379 35.1538 34.2772 35.3939 33.9664 35.5499C33.6557 35.706 33.3075 35.7719 32.9613 35.74C31.8513 35.76 30.7213 35.74 29.6113 35.74ZM29.5313 34.96C30.5313 34.96 31.6213 34.96 32.6613 34.96C34.0713 34.96 34.5213 34.14 33.8113 32.96C33.4049 32.1977 32.7935 31.5642 32.0459 31.1313C31.2984 30.6983 30.4447 30.4831 29.5813 30.51C28.6863 30.4897 27.804 30.7243 27.0373 31.1864C26.2707 31.6485 25.6512 32.3191 25.2513 33.12C24.6813 34.12 25.1313 34.96 26.3213 34.99C27.5113 35.02 28.4613 34.96 29.5313 34.96Z" fill="#EF4C23"/>
<path d="M5.41131 35.74C4.30131 35.74 3.20131 35.74 2.09131 35.74C1.73693 35.7822 1.37785 35.7222 1.0565 35.5669C0.735151 35.4117 0.464942 35.1677 0.277778 34.8638C0.0906153 34.5599 -0.00568241 34.2088 0.000259256 33.852C0.00620092 33.4952 0.114134 33.1475 0.31131 32.85C0.7577 31.8641 1.49053 31.0355 2.41441 30.4719C3.3383 29.9082 4.41044 29.6358 5.49131 29.69C6.54563 29.6732 7.58164 29.9666 8.47059 30.5338C9.35953 31.1009 10.0622 31.9168 10.4913 32.88C10.6815 33.1743 10.7847 33.5163 10.789 33.8666C10.7933 34.217 10.6985 34.5614 10.5157 34.8603C10.3328 35.1592 10.0692 35.4003 9.7553 35.5559C9.44139 35.7116 9.0899 35.7754 8.74131 35.74C7.62131 35.76 6.51131 35.74 5.41131 35.74ZM5.34131 30.44C4.41813 30.4426 3.5152 30.7108 2.74032 31.2126C1.96543 31.7144 1.35133 32.4287 0.971313 33.27C0.858075 33.4389 0.795322 33.6366 0.790405 33.8399C0.785488 34.0432 0.83861 34.2437 0.94355 34.4179C1.04849 34.5921 1.20089 34.7328 1.38292 34.8235C1.56494 34.9142 1.76905 34.9511 1.97131 34.93C4.24465 34.97 6.51131 34.97 8.77131 34.93C9.77131 34.93 10.2213 34.14 9.77131 33.21C9.37331 32.3744 8.74498 31.6698 7.9602 31.1791C7.17542 30.6883 6.26684 30.4319 5.34131 30.44Z" fill="#EF4C23"/>
<path d="M17.4412 35.74C16.3412 35.74 15.2312 35.74 14.1312 35.74C13.7911 35.7716 13.4489 35.7085 13.1425 35.5576C12.8361 35.4067 12.5774 35.1739 12.3952 34.885C12.2129 34.5961 12.1142 34.2624 12.11 33.9209C12.1058 33.5793 12.1962 33.2433 12.3712 32.95C12.7967 31.956 13.5119 31.1134 14.4234 30.5319C15.3349 29.9504 16.4005 29.657 17.4812 29.69C18.5633 29.6563 19.6305 29.9493 20.5437 30.5308C21.4569 31.1122 22.1739 31.9553 22.6012 32.95C22.7717 33.2431 22.8589 33.5773 22.8533 33.9163C22.8477 34.2554 22.7494 34.5865 22.5692 34.8738C22.389 35.1611 22.1337 35.3936 21.8309 35.5463C21.5281 35.699 21.1893 35.7659 20.8512 35.74C19.7112 35.76 18.5712 35.74 17.4412 35.74ZM17.4412 34.96C18.5812 34.96 19.7212 34.96 20.8512 34.96C21.9812 34.96 22.3812 34.17 21.8512 33.2C21.4701 32.3699 20.8539 31.6698 20.079 31.1864C19.304 30.7029 18.4043 30.4573 17.4912 30.48C16.578 30.4508 15.6763 30.69 14.8978 31.1682C14.1193 31.6463 13.4981 32.3423 13.1112 33.17C12.5812 34.17 13.0212 34.93 14.1912 34.96C15.3612 34.99 16.3512 34.96 17.4212 34.96H17.4412Z" fill="#EF4C23"/>
<path d="M29.5913 22.49C30.0128 22.49 30.4301 22.5735 30.8191 22.7356C31.2081 22.8978 31.5611 23.1355 31.8577 23.4349C32.1543 23.7343 32.3886 24.0895 32.5472 24.48C32.7057 24.8705 32.7853 25.2886 32.7813 25.71C32.7688 26.5452 32.4341 27.3434 31.8471 27.9378C31.2602 28.5321 30.4664 28.8769 29.6313 28.9C28.7793 28.8925 27.9635 28.5548 27.3554 27.958C26.7474 27.3612 26.3946 26.5517 26.3713 25.7C26.3792 24.8493 26.7213 24.0359 27.3237 23.4353C27.9262 22.8348 28.7407 22.4952 29.5913 22.49ZM29.5413 28.08C30.1755 28.0908 30.7883 27.8512 31.2469 27.4131C31.7055 26.9751 31.973 26.3739 31.9913 25.74C31.9889 25.0943 31.7347 24.4749 31.2828 24.0137C30.8309 23.5524 30.2169 23.2856 29.5713 23.27C28.9406 23.2879 28.3412 23.5485 27.8978 23.9975C27.4544 24.4464 27.2014 25.0491 27.1913 25.68C27.1912 26.3079 27.4372 26.9109 27.8765 27.3596C28.3158 27.8083 28.9135 28.0669 29.5413 28.08Z" fill="#EF4C23"/>
<path d="M2.18115 25.6501C2.18635 25.2281 2.27496 24.8114 2.44186 24.4238C2.60877 24.0362 2.85068 23.6855 3.15368 23.3918C3.45668 23.0981 3.81477 22.8672 4.20735 22.7125C4.59993 22.5577 5.01924 22.4821 5.44115 22.4901C6.27623 22.5106 7.07113 22.8528 7.65993 23.4453C8.24873 24.0378 8.58593 24.8349 8.60115 25.6701C8.58575 26.5219 8.24051 27.3345 7.63807 27.937C7.03563 28.5394 6.22298 28.8847 5.37115 28.9001C4.52046 28.8818 3.71063 28.5317 3.11459 27.9244C2.51856 27.3172 2.18357 26.5009 2.18115 25.6501ZM5.34115 28.0801C5.97187 28.0883 6.58067 27.8489 7.03686 27.4132C7.49305 26.9776 7.76027 26.3805 7.78115 25.7501C7.7919 25.101 7.54566 24.474 7.0961 24.0057C6.64654 23.5374 6.03011 23.2658 5.38115 23.2501C4.74862 23.2767 4.14883 23.5386 3.69932 23.9844C3.24981 24.4302 2.98299 25.0278 2.95115 25.6601C2.9612 26.2936 3.21531 26.8988 3.66055 27.3497C4.10578 27.8005 4.70779 28.0621 5.34115 28.0801Z" fill="#EF4C23"/>
<path d="M20.6413 25.65C20.6479 26.0719 20.5711 26.491 20.4151 26.883C20.2591 27.2751 20.0271 27.6325 19.7325 27.9345C19.4379 28.2366 19.0864 28.4774 18.6983 28.6431C18.3103 28.8088 17.8933 28.8961 17.4713 28.9C16.6331 28.8869 15.8334 28.5454 15.2444 27.9488C14.6553 27.3523 14.3239 26.5484 14.3213 25.71C14.3105 25.2876 14.3851 24.8673 14.5406 24.4744C14.6961 24.0815 14.9292 23.724 15.2262 23.4233C15.5231 23.1227 15.8776 22.8851 16.2686 22.7247C16.6595 22.5643 17.0788 22.4845 17.5013 22.49C17.9161 22.4873 18.3273 22.5674 18.7108 22.7255C19.0943 22.8836 19.4424 23.1166 19.7348 23.4108C20.0271 23.705 20.2579 24.0546 20.4136 24.4391C20.5692 24.8236 20.6467 25.2352 20.6413 25.65ZM19.8913 25.65C19.8759 25.0202 19.6175 24.4208 19.1702 23.9772C18.7228 23.5335 18.1213 23.2802 17.4913 23.27C17.1692 23.2739 16.851 23.3416 16.5551 23.4691C16.2593 23.5966 15.9916 23.7814 15.7675 24.0129C15.5435 24.2444 15.3675 24.518 15.2497 24.8178C15.1319 25.1177 15.0747 25.4379 15.0813 25.76C15.0878 26.0739 15.1561 26.3834 15.2823 26.6709C15.4084 26.9584 15.59 27.2182 15.8166 27.4355C16.0431 27.6528 16.3103 27.8233 16.6028 27.9374C16.8954 28.0514 17.2075 28.1066 17.5213 28.1C18.1535 28.0843 18.7537 27.8187 19.1904 27.3613C19.6271 26.904 19.8648 26.2922 19.8513 25.66L19.8913 25.65Z" fill="#EF4C23"/>
<path d="M17.5213 2.76001C20.6513 2.76001 23.7913 2.76001 26.9213 2.76001C27.6213 2.76001 27.9213 2.92001 27.9213 3.67001C27.9213 8.10334 27.9213 12.5267 27.9213 16.94C27.9213 17.65 27.7313 17.94 26.9813 17.94C20.688 17.94 14.3913 17.94 8.09131 17.94C7.38131 17.94 7.09131 17.76 7.09131 17.01C7.09131 12.59 7.09131 8.16668 7.09131 3.74001C7.09131 3.02001 7.29131 2.79001 8.03131 2.80001C11.1913 2.78001 14.3613 2.76001 17.5213 2.76001ZM17.4413 17.1C20.4413 17.1 23.4413 17.1 26.3813 17.1C26.9413 17.1 27.1013 16.95 27.0913 16.38C27.0913 12.3333 27.0913 8.28001 27.0913 4.22001C27.0913 3.60001 26.9013 3.48001 26.3213 3.48001C20.4213 3.48001 14.5246 3.48001 8.63131 3.48001C8.05131 3.48001 7.86131 3.60001 7.86131 4.22001C7.86131 8.22001 7.86131 12.2433 7.86131 16.29C7.86131 16.94 8.04131 17.1 8.68131 17.1C11.6113 17.08 14.5213 17.1 17.4413 17.1Z" fill="#EF4C23"/>
<path d="M20.9612 13.8901C21.3312 14.6201 21.4612 15.2501 20.5712 15.6701C20.0112 15.9301 19.5712 16.0501 19.1412 15.4401C18.8812 15.0701 18.6212 15.0601 18.6012 15.5801C18.6012 16.3501 18.0912 16.4601 17.4812 16.4601C16.8712 16.4601 16.3812 16.3301 16.3512 15.5801C16.3512 15.1901 16.1112 15.0201 15.8612 15.4001C15.3512 16.1801 14.8612 15.9001 14.2212 15.5501C13.5812 15.2001 13.6012 14.7101 13.9212 14.1501C13.9212 14.0901 13.9212 13.9801 13.9212 13.7201C13.7758 13.8638 13.5951 13.9665 13.3972 14.0179C13.1994 14.0693 12.9915 14.0675 12.7946 14.0127C12.5977 13.9578 12.4187 13.852 12.2759 13.7058C12.1331 13.5596 12.0314 13.3782 11.9812 13.1801C11.5912 12.3901 12.2012 12.0901 12.8012 11.5001C11.6512 11.5601 11.1612 11.0901 11.2712 10.1101C11.2712 9.61007 11.4712 9.20007 12.0812 9.19007C12.2612 9.19007 12.4812 9.19007 12.5512 9.00007C12.6212 8.81007 12.4112 8.70007 12.2612 8.60007C11.7012 8.21007 11.7912 7.76007 12.1012 7.25007C12.4112 6.74007 12.7212 6.32007 13.4112 6.64007C13.5612 6.71007 13.7212 6.89007 13.8912 6.64007C14.0612 6.39007 13.8912 6.36007 13.8212 6.23007C13.5312 5.64007 13.7612 5.23007 14.3012 4.95007C14.8412 4.67007 15.3012 4.43007 15.8112 5.10007C16.0712 5.48007 16.3012 5.48007 16.3412 4.97007C16.3412 4.23007 16.8612 4.07007 17.4812 4.07007C18.1012 4.07007 18.5712 4.22007 18.5912 4.98007C18.5912 5.51007 18.8812 5.47007 19.1312 5.11007C19.5712 4.46007 20.0712 4.61007 20.6312 4.94007C20.7628 4.98458 20.8824 5.05862 20.9809 5.15652C21.0795 5.25441 21.1543 5.37356 21.1996 5.50483C21.245 5.63611 21.2597 5.77603 21.2426 5.91387C21.2256 6.05171 21.1772 6.18382 21.1012 6.30007C20.9312 6.65007 20.9712 6.89007 21.4212 6.66007C22.1112 6.31007 22.5112 6.59007 22.8312 7.19007C23.1512 7.79007 23.2212 8.19007 22.6312 8.62007C22.2112 8.91007 22.3012 9.13007 22.7712 9.15007C23.5412 9.15007 23.6812 9.65007 23.6812 10.2601C23.6812 10.8701 23.5412 11.3601 22.7912 11.4001C22.4812 11.4001 22.1112 11.5501 22.5412 11.8401C23.2712 12.3601 23.1112 12.8401 22.7612 13.4901C22.4112 14.1401 21.8512 14.0801 21.2712 13.8001C21.2412 13.8101 21.1612 13.8501 20.9612 13.8901ZM13.1712 7.39007C12.8812 7.32007 12.8312 7.55007 12.7512 7.69007C12.6712 7.83007 12.8712 8.07007 13.0512 8.15007C13.5512 8.37007 13.4912 8.74007 13.3712 9.15007C13.2512 9.56007 13.2012 10.0301 12.5812 9.95007C12.3212 9.95007 12.1112 9.95007 12.1112 10.3101C12.1112 10.6701 12.2912 10.7301 12.5612 10.6801C13.1012 10.6001 13.2412 10.9301 13.3512 11.3501C13.4612 11.7701 13.5912 12.1901 13.0712 12.4601C12.8612 12.5601 12.6112 12.6401 12.8012 13.0001C12.9912 13.3601 13.2512 13.1701 13.4512 13.0001C13.9112 12.6901 14.1712 13.0001 14.4512 13.2701C14.7312 13.5401 15.0812 13.7801 14.7512 14.2701C14.6312 14.4501 14.3412 14.6901 14.7512 14.9401C15.1612 15.1901 15.2512 14.8501 15.3412 14.6401C15.5712 14.0801 15.9712 14.2801 16.3412 14.3701C16.7112 14.4601 17.1512 14.5301 17.1012 15.1001C17.1012 15.3701 17.0312 15.6701 17.4812 15.6501C17.9312 15.6301 17.8112 15.2801 17.8112 15.0401C17.8112 14.5201 18.1812 14.4501 18.5312 14.3801C18.8812 14.3101 19.3012 14.0401 19.5312 14.6101C19.6212 14.8101 19.7012 15.1701 20.1212 14.9401C20.5412 14.7101 20.3012 14.4701 20.1212 14.2801C19.7812 13.8001 20.1212 13.5701 20.4112 13.2801C20.7012 12.9901 20.9412 12.6801 21.4112 12.9901C21.6012 13.1101 21.8312 13.4101 22.0612 12.9901C22.2912 12.5701 22.0612 12.5601 21.8112 12.4501C21.2912 12.1901 21.4112 11.7801 21.5212 11.3401C21.6312 10.9001 21.7712 10.5901 22.3012 10.6701C22.5712 10.6701 22.7812 10.6701 22.7612 10.3001C22.7412 9.93007 22.6512 9.89007 22.3812 9.94007C21.7412 10.0501 21.6212 9.62007 21.4912 9.15007C21.3612 8.68007 21.3612 8.31007 21.8912 8.15007C22.1212 8.07007 22.2312 7.94007 22.0812 7.66007C21.9312 7.38007 21.7312 7.36007 21.5012 7.55007C21.0512 7.91007 20.7612 7.68007 20.4112 7.35007C20.0612 7.02007 19.8112 6.66007 20.1912 6.18007C20.3612 5.97007 20.3412 5.82007 20.1012 5.67007C19.8612 5.52007 19.7012 5.56007 19.5912 5.81007C19.561 5.90935 19.5098 6.00093 19.4409 6.07855C19.372 6.15617 19.2872 6.21799 19.1923 6.25978C19.0973 6.30156 18.9944 6.32233 18.8907 6.32065C18.7869 6.31898 18.6848 6.2949 18.5912 6.25007C18.1012 6.10007 17.6512 5.98007 17.7712 5.31007C17.7712 5.01007 17.6212 4.95007 17.3712 4.96007C17.1212 4.97007 17.0112 5.08007 17.0612 5.30007C17.2112 6.06007 16.6412 6.11007 16.1512 6.30007C16.061 6.34304 15.9623 6.36529 15.8624 6.36519C15.7625 6.3651 15.6639 6.34266 15.5737 6.29952C15.4836 6.25638 15.4043 6.19362 15.3416 6.11586C15.2788 6.03809 15.2343 5.94728 15.2112 5.85007C15.1112 5.60007 14.9612 5.53007 14.7112 5.69007C14.4612 5.85007 14.4212 5.98007 14.6012 6.20007C15.0412 6.73007 14.6812 7.03007 14.3412 7.43007C14.0012 7.83007 13.5612 7.66007 13.1712 7.39007Z" fill="#EF4C23"/>
<path d="M17.4712 12.7201C17.1497 12.7257 16.8305 12.6658 16.533 12.5442C16.2354 12.4225 15.9657 12.2416 15.7402 12.0124C15.5148 11.7832 15.3383 11.5106 15.2216 11.211C15.1049 10.9115 15.0503 10.5914 15.0612 10.2701C15.0571 9.95554 15.1162 9.64341 15.235 9.35217C15.3538 9.06092 15.5299 8.79648 15.7528 8.57453C15.9757 8.35259 16.2408 8.17764 16.5326 8.06007C16.8243 7.94249 17.1367 7.88468 17.4512 7.89006C17.7711 7.87648 18.0904 7.92815 18.3898 8.04191C18.6891 8.15568 18.9621 8.32916 19.1922 8.55181C19.4224 8.77446 19.6048 9.04161 19.7284 9.33701C19.852 9.6324 19.9142 9.94986 19.9112 10.2701C19.9223 10.5939 19.8668 10.9167 19.7482 11.2182C19.6297 11.5198 19.4505 11.7939 19.2218 12.0235C18.9932 12.2532 18.7198 12.4334 18.4187 12.5532C18.1176 12.673 17.7951 12.7298 17.4712 12.7201ZM17.5312 8.65006C17.3145 8.64608 17.0991 8.68483 16.8974 8.7641C16.6957 8.84337 16.5116 8.9616 16.3556 9.11204C16.1996 9.26248 16.0747 9.44218 15.9882 9.64087C15.9016 9.83957 15.8551 10.0534 15.8512 10.2701C15.8585 10.7012 16.0303 11.1132 16.3314 11.4218C16.6326 11.7304 17.0403 11.9123 17.4712 11.9301C17.9133 11.9301 18.3376 11.7558 18.6521 11.4451C18.9666 11.1343 19.1459 10.7121 19.1512 10.2701C19.1435 9.84282 18.9703 9.43522 18.6682 9.13307C18.366 8.83091 17.9584 8.65776 17.5312 8.65006Z" fill="#EF4C23"/>
</svg>
