<svg width="41" height="41" viewBox="0 0 41 41" fill="none" xmlns="http://www.w3.org/2000/svg">
<path d="M21.5824 11.36C21.5824 13.67 21.5824 15.97 21.5824 18.28C21.5824 18.67 21.6624 18.81 22.0824 18.79C22.9224 18.79 22.9224 18.79 22.9224 17.96V9.55C22.9224 8.9 23.1424 8.67001 23.7924 8.67001C24.4424 8.67001 24.9624 8.67001 25.5424 8.67001C25.6396 8.66008 25.7378 8.67089 25.8304 8.70173C25.9231 8.73257 26.0082 8.78273 26.08 8.8489C26.1519 8.91507 26.2089 8.99574 26.2472 9.08557C26.2855 9.1754 26.3044 9.27235 26.3024 9.37C26.3016 9.46336 26.2812 9.5555 26.2426 9.64052C26.204 9.72554 26.1481 9.80155 26.0784 9.86369C26.0088 9.92583 25.9269 9.97273 25.838 10.0014C25.7492 10.03 25.6553 10.0398 25.5624 10.03H25.4624C25.0824 10.03 24.5624 9.86 24.3524 10.12C24.1424 10.38 24.2924 10.86 24.2924 11.25C24.2924 16.94 24.2924 22.64 24.2924 28.34C24.2924 28.76 24.4124 28.87 24.8024 28.82C25.0952 28.795 25.3896 28.795 25.6824 28.82C25.7686 28.8185 25.8541 28.8348 25.9338 28.8677C26.0134 28.9006 26.0855 28.9495 26.1454 29.0113C26.2054 29.0732 26.2521 29.1467 26.2825 29.2273C26.313 29.3079 26.3266 29.3939 26.3224 29.48C26.328 29.5695 26.3149 29.6592 26.2841 29.7434C26.2533 29.8277 26.2054 29.9046 26.1434 29.9694C26.0814 30.0342 26.0067 30.0855 25.9239 30.12C25.8411 30.1545 25.7521 30.1716 25.6624 30.17C24.9958 30.17 24.3291 30.17 23.6624 30.17C23.1924 30.17 22.9824 29.88 22.9824 29.35C22.9824 26.42 22.9824 23.5 22.9824 20.58C22.9824 20.19 22.8724 20.1 22.5024 20.11C21.6424 20.11 21.6424 20.11 21.6424 20.99C21.6424 22.45 21.6424 23.91 21.6424 25.37C21.662 26.0087 21.5503 26.6445 21.3142 27.2383C21.0781 27.832 20.7227 28.371 20.27 28.8219C19.8172 29.2727 19.2768 29.6259 18.682 29.8595C18.0873 30.0931 17.451 30.2022 16.8124 30.18H15.3324C15.1324 30.18 15.0424 30.18 15.0224 30.44C14.8387 31.7912 14.4686 33.1105 13.9224 34.36C13.7724 34.76 13.6324 35.13 14.1724 35.36C14.2624 35.36 14.3324 35.51 14.4124 35.6C14.7488 36.1985 14.9256 36.8735 14.9256 37.56C14.9256 38.2465 14.7488 38.9215 14.4124 39.52C14.2262 39.7568 13.9873 39.9469 13.7148 40.0754C13.4423 40.2038 13.1436 40.267 12.8424 40.26H2.76244C2.23201 40.26 1.7233 40.0493 1.34823 39.6742C0.973155 39.2991 0.762441 38.7904 0.762441 38.26C0.762441 37.77 0.762441 37.26 0.762441 36.8C0.760852 36.4529 0.852899 36.1118 1.02889 35.8126C1.20488 35.5134 1.45829 35.2673 1.76244 35.1C1.85851 35.0521 1.93881 34.9777 1.99376 34.8855C2.04872 34.7933 2.07603 34.6873 2.07244 34.58C2.15597 32.8854 1.8121 31.197 1.07244 29.67C0.288473 27.8301 -0.0737152 25.8381 0.0124408 23.84C0.0924408 22.51 0.0124408 21.18 0.0124408 19.84C-0.0515592 18.9991 0.15188 18.1594 0.593689 17.441C1.0355 16.7226 1.69307 16.1623 2.47244 15.84C2.76244 15.71 2.68244 15.51 2.68244 15.33V4.81001C2.67075 4.08811 2.82732 3.3734 3.13975 2.72251C3.45218 2.07162 3.91188 1.50242 4.48244 1.06001C5.26079 0.37964 6.25865 0.00321829 7.29244 0C10.5524 0 13.8124 0 17.0724 0C18.2528 0.0175703 19.3808 0.490221 20.2211 1.31934C21.0614 2.14845 21.5491 3.27 21.5824 4.45C21.5824 6.75 21.5824 9.06 21.5824 11.36ZM17.5824 11.64V4.97C17.5824 4.23 17.3724 4.03 16.5824 3.97C16.2924 3.97 15.9924 3.97 15.7024 3.97C15.5445 3.93916 15.3811 3.95489 15.2319 4.01525C15.0828 4.07561 14.9544 4.17802 14.8624 4.31001C14.7756 4.4271 14.66 4.51989 14.5269 4.57943C14.3938 4.63897 14.2476 4.66327 14.1024 4.65C12.8224 4.65 11.5424 4.65 10.2524 4.65C10.1231 4.66549 9.99202 4.64793 9.87134 4.59896C9.75067 4.54999 9.64439 4.47122 9.56244 4.37C9.4513 4.21486 9.29809 4.09475 9.12089 4.02387C8.9437 3.95299 8.74992 3.9343 8.56244 3.97C8.27244 3.97 7.97244 3.97 7.68244 3.97C7.08244 3.97 6.84244 4.21 6.84244 4.79V18.79C6.83159 18.87 6.8395 18.9513 6.86554 19.0277C6.89157 19.1041 6.93502 19.1733 6.99244 19.23C7.39913 19.6396 7.71591 20.1295 7.92253 20.6684C8.12916 21.2074 8.22108 21.7835 8.19244 22.36C8.19244 23.09 8.19244 23.82 8.19244 24.55C8.24227 24.9357 8.41844 25.294 8.69343 25.569C8.96842 25.844 9.32675 26.0202 9.71244 26.07H16.5824C17.3224 26.07 17.5124 25.88 17.5124 25.15V20.72C17.5124 20.08 17.5124 20.02 16.8724 20.1C16.5282 20.1449 16.1785 20.0814 15.872 19.9183C15.5655 19.7552 15.3175 19.5006 15.1624 19.19C14.4624 18.19 13.6724 17.19 12.9224 16.19C12.876 16.1167 12.807 16.0605 12.7259 16.0298C12.6447 15.9991 12.5557 15.9957 12.4724 16.02C12.2079 16.065 11.937 16.0564 11.6758 15.9945C11.4147 15.9327 11.1687 15.8189 10.9524 15.66C10.5304 15.3596 10.2415 14.9072 10.1463 14.398C10.0512 13.8888 10.1574 13.3625 10.4424 12.93C10.7082 12.5021 11.1257 12.1903 11.6114 12.0568C12.0971 11.9233 12.6153 11.978 13.0624 12.21C13.5363 12.4391 13.9008 12.8459 14.0767 13.3419C14.2527 13.838 14.226 14.3835 14.0024 14.86C13.9324 15.01 13.8224 15.12 14.0024 15.3C14.8224 16.38 15.6324 17.48 16.4624 18.56C16.7124 18.89 17.1024 18.74 17.4124 18.7C17.7224 18.66 17.5424 18.34 17.5424 18.16C17.5691 16 17.5824 13.8267 17.5824 11.64ZM2.69244 17.43C2.5122 17.4913 2.35512 17.6065 2.24244 17.76C1.96648 18.0587 1.75415 18.4105 1.61834 18.7938C1.48253 19.1772 1.42609 19.5842 1.45244 19.99C1.45244 21.24 1.52244 22.49 1.45244 23.74C1.3723 25.703 1.73813 27.6587 2.52244 29.46C3.24123 31.0245 3.56733 32.7409 3.47244 34.46C3.47244 34.82 3.57244 34.88 3.90244 34.88C6.38244 34.88 8.90244 34.88 11.3524 34.88C12.3524 34.88 12.3524 34.88 12.6424 33.95C13.081 32.8537 13.4158 31.7188 13.6424 30.56C13.6424 30.31 13.6424 30.18 13.3624 30.19C12.6124 30.19 11.8724 30.19 11.1224 30.19C10.9724 30.19 10.8624 30.19 10.8124 30.38C10.7941 30.464 10.7586 30.5433 10.708 30.6128C10.6574 30.6823 10.5929 30.7405 10.5186 30.7838C10.4443 30.827 10.3619 30.8544 10.2764 30.8641C10.191 30.8737 10.1045 30.8655 10.0224 30.84C9.8507 30.8082 9.69779 30.7115 9.5954 30.57C9.493 30.4285 9.44897 30.2531 9.47244 30.08C9.46445 29.3492 9.26812 28.6328 8.90244 28C8.54747 27.4667 8.12758 26.9797 7.65244 26.55C7.34801 26.2676 7.11021 25.9209 6.95628 25.5352C6.80235 25.1495 6.73614 24.7344 6.76244 24.32C6.81754 23.4642 6.81754 22.6058 6.76244 21.75C6.72054 21.2923 6.54306 20.8575 6.25269 20.5012C5.96232 20.145 5.57228 19.8834 5.13244 19.75C4.38244 19.56 4.13244 19.75 4.13244 20.5C4.13244 22.16 4.13244 23.81 4.13244 25.5C4.14273 25.5923 4.1328 25.6858 4.10334 25.7739C4.07389 25.862 4.0256 25.9426 3.96185 26.0102C3.8981 26.0777 3.8204 26.1306 3.73416 26.1651C3.64792 26.1996 3.5552 26.2149 3.46244 26.21C3.37212 26.217 3.28134 26.205 3.19592 26.1749C3.11051 26.1447 3.03233 26.097 2.96642 26.0349C2.90051 25.9727 2.84832 25.8975 2.81319 25.814C2.77806 25.7305 2.76078 25.6406 2.76244 25.55C2.76244 25.42 2.76244 25.29 2.76244 25.16C2.76244 22.76 2.76244 20.35 2.76244 17.95C2.80248 17.7739 2.77762 17.5893 2.69244 17.43ZM20.2024 11.43V4.9C20.2399 4.42383 20.1738 3.94519 20.0088 3.49696C19.8438 3.04873 19.5837 2.64153 19.2464 2.30331C18.9092 1.96509 18.5027 1.70386 18.0549 1.53758C17.6072 1.3713 17.1287 1.3039 16.6524 1.34C13.6524 1.34 10.6524 1.34 7.65244 1.34C7.34666 1.33512 7.04134 1.36531 6.74244 1.43C5.96622 1.60429 5.27737 2.04914 4.79916 2.68491C4.32096 3.32069 4.08462 4.1059 4.13244 4.9C4.13244 9.05 4.13244 13.21 4.13244 17.36C4.13244 17.65 4.03244 18.01 4.13244 18.22C4.23244 18.43 4.67244 18.22 4.95244 18.3C5.23244 18.38 5.45244 18.3 5.44244 17.86C5.44244 13.5133 5.44244 9.18 5.44244 4.86C5.41618 4.56758 5.45463 4.27298 5.55505 3.99709C5.65547 3.72121 5.81539 3.47081 6.02347 3.26369C6.23155 3.05656 6.48267 2.89779 6.75902 2.79865C7.03536 2.6995 7.33015 2.6624 7.62244 2.69C8.14244 2.69 8.62244 2.69 9.18244 2.69C9.37219 2.66775 9.56445 2.69577 9.73996 2.77124C9.91547 2.84671 10.0681 2.96698 10.1824 3.12C10.2386 3.20759 10.3177 3.27813 10.4112 3.32396C10.5046 3.36979 10.6088 3.38918 10.7124 3.38C11.7124 3.38 12.6624 3.38 13.6324 3.38C13.8024 3.38 13.9624 3.38 14.0724 3.22C14.2189 3.01485 14.421 2.85591 14.6549 2.76199C14.8889 2.66807 15.1448 2.64309 15.3924 2.69C15.7724 2.69 16.1724 2.69 16.5524 2.69C16.87 2.6436 17.1941 2.67169 17.499 2.77206C17.8039 2.87242 18.0812 3.04231 18.3091 3.2683C18.5371 3.4943 18.7093 3.7702 18.8123 4.07421C18.9153 4.37822 18.9461 4.70202 18.9024 5.02V18.02C18.9024 18.82 18.9024 18.8 19.7224 18.82C20.1024 18.82 20.2124 18.73 20.2124 18.34C20.1924 16.03 20.2024 13.74 20.2024 11.45V11.43ZM7.78244 38.89H12.7024C13.2824 38.89 13.4824 38.69 13.4924 38.1C13.4924 37.73 13.4924 37.35 13.4924 36.98C13.5015 36.8827 13.4892 36.7847 13.4563 36.6927C13.4235 36.6007 13.3709 36.517 13.3023 36.4474C13.2337 36.3779 13.1508 36.3242 13.0592 36.2901C12.9677 36.256 12.8698 36.2423 12.7724 36.25C9.46244 36.25 6.16244 36.25 2.85244 36.25C2.37244 36.25 2.15244 36.49 2.13244 36.98C2.11244 37.47 2.13244 37.69 2.13244 38.05C2.13244 38.71 2.31244 38.89 2.97244 38.89H7.78244ZM10.2224 27.55C10.3791 27.8701 10.503 28.2051 10.5924 28.55C10.5924 28.88 10.8024 28.91 11.0824 28.91C12.9624 28.91 14.8424 28.91 16.7224 28.91C17.1826 28.9281 17.6416 28.8512 18.0706 28.684C18.4997 28.5168 18.8897 28.2629 19.2163 27.9382C19.5429 27.6135 19.799 27.225 19.9687 26.7969C20.1383 26.3688 20.2179 25.9103 20.2024 25.45C20.2024 24.01 20.2024 22.56 20.2024 21.12C20.2024 20.2 20.2024 20.22 19.3024 20.2C18.9824 20.2 18.8924 20.28 18.8924 20.6C18.8924 22.24 18.8924 23.88 18.8924 25.52C18.8991 25.7868 18.8523 26.0523 18.7548 26.3007C18.6573 26.5492 18.511 26.7756 18.3246 26.9667C18.1382 27.1577 17.9155 27.3095 17.6695 27.4131C17.4236 27.5167 17.1593 27.5701 16.8924 27.57H10.2224V27.55ZM12.1524 13.48C11.9825 13.49 11.8225 13.5633 11.704 13.6855C11.5855 13.8077 11.5172 13.9698 11.5124 14.14C11.5175 14.228 11.54 14.3142 11.5784 14.3936C11.6169 14.4729 11.6707 14.5439 11.7366 14.6024C11.8026 14.6609 11.8795 14.7059 11.9628 14.7346C12.0462 14.7634 12.1344 14.7754 12.2224 14.77C12.3895 14.755 12.5449 14.6778 12.6579 14.5538C12.7708 14.4297 12.8331 14.2678 12.8324 14.1C12.8325 14.0116 12.8148 13.9241 12.7804 13.8427C12.7459 13.7613 12.6955 13.6877 12.6321 13.6261C12.5687 13.5645 12.4936 13.5163 12.4112 13.4844C12.3288 13.4524 12.2408 13.4373 12.1524 13.44V13.48Z" fill="#EF4C23"/>
<path d="M33.0124 14.43C33.4533 13.6356 34.0687 12.9518 34.8124 12.43C35.4883 11.9614 36.2546 11.6393 37.0623 11.4843C37.87 11.3293 38.7011 11.3448 39.5024 11.53C39.6955 11.562 39.8726 11.6568 40.0063 11.7996C40.1401 11.9424 40.2231 12.1253 40.2424 12.32C40.4377 13.2104 40.4235 14.134 40.2012 15.018C39.9789 15.9021 39.5544 16.7225 38.9611 17.4146C38.3679 18.1067 37.6221 18.6517 36.7824 19.0066C35.9428 19.3615 35.0322 19.5167 34.1224 19.46C33.7224 19.46 33.6224 19.52 33.6424 19.9C33.6424 20.57 33.6424 21.23 33.6424 21.9C33.6424 22.03 33.6424 22.19 33.8124 22.23C34.6671 22.501 35.42 23.0238 35.9724 23.73C36.6724 24.43 37.3824 25.12 38.0724 25.83C38.1628 25.942 38.2795 26.0299 38.4121 26.0858C38.5447 26.1416 38.6892 26.1637 38.8324 26.15C39.0755 26.135 39.3193 26.135 39.5624 26.15C40.0924 26.15 40.3624 26.42 40.3524 26.87C40.3424 27.32 40.1124 27.55 39.5824 27.55H26.3924C25.8124 27.55 25.5124 27.25 25.5924 26.77C25.5969 26.6828 25.6197 26.5976 25.6594 26.5199C25.6991 26.4421 25.7547 26.3737 25.8227 26.3189C25.8906 26.2642 25.9694 26.2244 26.0538 26.2022C26.1382 26.1799 26.2263 26.1758 26.3124 26.19C26.7438 26.2549 27.1847 26.1953 27.5833 26.0181C27.9819 25.841 28.3216 25.5536 28.5624 25.19C29.1324 24.52 29.8124 23.93 30.4424 23.29C30.8478 22.8143 31.3829 22.4668 31.9824 22.29C32.2324 22.22 32.2924 22.09 32.2824 21.84C32.2824 21.18 32.2824 20.51 32.2824 19.84C32.2824 19.48 32.2024 19.43 31.8524 19.45C30.9439 19.5083 30.0341 19.3556 29.1944 19.0037C28.3547 18.6519 27.6078 18.1105 27.0122 17.4219C26.4166 16.7333 25.9884 15.9162 25.7612 15.0346C25.5339 14.1529 25.5138 13.2307 25.7024 12.34C25.746 12.1318 25.8549 11.943 26.0131 11.801C26.1714 11.6589 26.3708 11.571 26.5824 11.55C27.7664 11.3051 28.997 11.4299 30.1077 11.9075C31.2184 12.385 32.1556 13.1923 32.7924 14.22C32.8424 14.26 32.8624 14.38 33.0124 14.43ZM39.0124 13.6C38.9124 13.33 39.2424 12.84 38.5724 12.78C37.9413 12.7341 37.3076 12.8201 36.7116 13.0324C36.1155 13.2448 35.5702 13.5788 35.1103 14.0134C34.6503 14.4479 34.2859 14.9734 34.04 15.5565C33.7942 16.1395 33.6724 16.7673 33.6824 17.4C33.6824 18.03 33.7624 18.08 34.4024 18.11C35.0002 18.1179 35.5936 18.0072 36.1483 17.7842C36.7029 17.5613 37.2079 17.2305 37.6339 16.811C38.0598 16.3916 38.3983 15.8918 38.6298 15.3406C38.8613 14.7894 38.9812 14.1978 38.9824 13.6H39.0124ZM27.0124 13.6C27.0278 14.7729 27.4985 15.8939 28.3252 16.7262C29.1518 17.5584 30.2696 18.0367 31.4424 18.06C32.2624 18.06 32.3224 18.06 32.3224 17.22C32.3304 16.0379 31.8699 14.9008 31.0415 14.0574C30.2132 13.2141 29.0845 12.7332 27.9024 12.72C26.9924 12.76 26.9524 12.81 26.9624 13.65L27.0124 13.6ZM36.4824 26.07C35.6424 25.27 34.9524 24.48 34.1424 23.8C34.0424 23.72 33.9024 23.58 33.7624 23.65C33.6224 23.72 33.7024 23.89 33.7024 24.01C33.7024 24.53 33.4724 24.78 33.0424 24.79C32.6124 24.8 32.3624 24.51 32.3224 24C32.3224 23.88 32.4024 23.71 32.2524 23.65C32.1024 23.59 32.0124 23.72 31.9224 23.8C31.1024 24.48 30.4024 25.27 29.5724 26.07H36.4824Z" fill="#EF4C23"/>
</svg>
