<svg width="43" height="43" viewBox="0 0 43 43" fill="none" xmlns="http://www.w3.org/2000/svg">
<path d="M0.0800018 7.51001C0.0800018 7.51001 0.160002 7.51001 0.170002 7.51001C0.389098 7.08779 0.74028 6.74882 1.16999 6.5448C1.59969 6.34078 2.08434 6.28291 2.55 6.38001C2.84 6.38001 3.13 6.38001 3.42 6.38001C3.93 6.38001 4.23 6.62001 4.24 7.01001C4.25 7.40001 3.94 7.66001 3.4 7.67001C3.05 7.67001 2.69 7.67001 2.33 7.67001C1.43 7.67001 1.33 7.76001 1.33 8.67001V19.13C1.33 22.9833 1.33 26.83 1.33 30.67C1.33 31.05 1.4 31.17 1.8 31.16C3.45 31.16 5.11 31.16 6.8 31.16C6.89231 31.1487 6.98596 31.1571 7.07481 31.1845C7.16367 31.212 7.24571 31.2579 7.31558 31.3193C7.38545 31.3806 7.44156 31.4561 7.48024 31.5407C7.51891 31.6252 7.53928 31.717 7.54 31.81C7.54 32.19 7.25 32.44 6.79 32.46H6.45C4.91 32.46 3.36 32.46 1.82 32.46C1.48 32.46 1.32 32.51 1.36 32.9C1.4 33.29 1.36 33.78 1.36 34.22C1.34707 34.3053 1.35402 34.3924 1.38029 34.4745C1.40656 34.5567 1.45145 34.6317 1.51146 34.6936C1.57147 34.7555 1.64498 34.8028 1.72625 34.8317C1.80752 34.8605 1.89436 34.8702 1.98 34.86H40.68C41.68 34.86 41.73 34.78 41.73 33.8C41.73 33.44 41.73 33.09 41.73 32.73C41.73 32.52 41.66 32.43 41.45 32.45C41.3369 32.46 41.2231 32.46 41.11 32.45H9.85C9.39 32.45 9.1 32.17 9.11 31.79C9.12 31.41 9.4 31.16 9.87 31.14H41.18C41.61 31.14 41.74 31.05 41.74 30.59C41.74 27.66 41.74 24.72 41.74 21.78C41.7198 21.6207 41.7198 21.4594 41.74 21.3C41.7669 21.1542 41.8476 21.0239 41.9662 20.935C42.0848 20.846 42.2325 20.805 42.38 20.82C42.5282 20.8195 42.6712 20.8747 42.7805 20.9748C42.8898 21.0748 42.9574 21.2124 42.97 21.36C42.98 21.4898 42.98 21.6202 42.97 21.75V34.14C42.9964 34.4092 42.9628 34.6809 42.8717 34.9356C42.7805 35.1902 42.634 35.4215 42.4428 35.6128C42.2515 35.804 42.0202 35.9505 41.7656 36.0417C41.5109 36.1329 41.2392 36.1664 40.97 36.14C39.97 36.14 38.97 36.14 37.97 36.14C37.64 36.14 37.55 36.24 37.56 36.55C37.56 37.35 37.56 38.14 37.56 38.94C37.5391 39.0405 37.5549 39.1451 37.6044 39.2349C37.6539 39.3248 37.7339 39.394 37.83 39.43C38.2145 39.6264 38.5193 39.9499 38.6924 40.3454C38.8656 40.741 38.8965 41.1842 38.78 41.6C38.6671 42.0011 38.4241 42.3533 38.0892 42.6013C37.7543 42.8493 37.3466 42.979 36.93 42.97C36.513 42.9807 36.1044 42.8517 35.7692 42.6034C35.434 42.3552 35.1914 42.002 35.08 41.6C34.9647 41.1771 35.0017 40.727 35.1845 40.3286C35.3673 39.9301 35.6842 39.6085 36.08 39.42C36.1668 39.3848 36.2389 39.321 36.2844 39.2391C36.3299 39.1573 36.346 39.0623 36.33 38.97C36.33 38.2 36.33 37.44 36.33 36.68C36.33 36.26 36.25 36.14 35.81 36.14C32.12 36.14 28.44 36.14 24.75 36.14C24.02 36.14 23.29 36.14 22.56 36.14C22.26 36.14 22.17 36.23 22.18 36.53C22.18 37.34 22.18 38.15 22.18 38.96C22.1677 39.0545 22.1864 39.1504 22.2333 39.2334C22.2801 39.3163 22.3527 39.3818 22.44 39.42C22.8217 39.6214 23.1225 39.948 23.2918 40.345C23.4611 40.742 23.4888 41.1851 23.37 41.6C23.2585 42.0024 23.0182 42.3572 22.6859 42.61C22.3536 42.8629 21.9476 42.9999 21.53 43C21.109 43.0043 20.6984 42.8693 20.3621 42.6161C20.0257 42.363 19.7824 42.0057 19.67 41.6C19.5567 41.1771 19.5947 40.7278 19.7772 40.3298C19.9598 39.9318 20.2755 39.6101 20.67 39.42C20.83 39.32 20.92 39.25 20.91 39.05C20.91 38.19 20.91 37.33 20.91 36.47C20.91 36.2 20.8 36.16 20.56 36.16H7.08C6.81 36.16 6.72 36.24 6.73 36.52C6.73 37.35 6.73 38.18 6.73 39C6.71902 39.0943 6.73955 39.1896 6.78839 39.271C6.83723 39.3524 6.91164 39.4153 7 39.45C7.37618 39.649 7.67273 39.9711 7.84016 40.3623C8.00758 40.7536 8.03577 41.1905 7.92 41.6C7.81161 41.993 7.5784 42.3401 7.25554 42.589C6.93267 42.838 6.53765 42.9752 6.13 42.98C5.70912 42.9911 5.29659 42.8614 4.95782 42.6114C4.61906 42.3614 4.37346 42.0055 4.26 41.6C4.13582 41.1922 4.15547 40.7542 4.31566 40.3592C4.47586 39.9641 4.76687 39.6361 5.14 39.43C5.24139 39.387 5.32576 39.3118 5.38 39.216C5.43425 39.1201 5.45534 39.0091 5.44 38.9C5.44 38.12 5.44 37.34 5.44 36.57C5.44 36.18 5.32 36.11 4.97 36.12C4.03 36.12 3.09 36.12 2.15 36.12C1.74476 36.1796 1.33111 36.1067 0.970695 35.9121C0.610284 35.7174 0.322416 35.4116 0.150002 35.04C0.150002 35.04 0.05 34.98 0 34.94L0.0800018 7.51001ZM22.08 41.06C22.0724 40.8972 22.003 40.7435 21.8859 40.6302C21.7688 40.5168 21.6129 40.4524 21.45 40.45C21.2872 40.4628 21.1361 40.5393 21.0294 40.6629C20.9226 40.7864 20.869 40.9471 20.88 41.11C20.8813 41.1875 20.8979 41.264 20.9287 41.3351C20.9596 41.4061 21.0041 41.4704 21.0599 41.5243C21.1156 41.5782 21.1814 41.6205 21.2534 41.6489C21.3255 41.6774 21.4025 41.6913 21.48 41.69C21.6427 41.6848 21.7968 41.6158 21.9091 41.4979C22.0213 41.38 22.0827 41.2228 22.08 41.06ZM6.64 41.06C6.64005 40.9834 6.62467 40.9077 6.59478 40.8372C6.5649 40.7667 6.52111 40.7029 6.46605 40.6497C6.41098 40.5965 6.34576 40.555 6.27428 40.5275C6.2028 40.5001 6.12652 40.4873 6.05 40.49C5.96905 40.49 5.8889 40.5061 5.81423 40.5374C5.73956 40.5687 5.67187 40.6145 5.61509 40.6722C5.55832 40.7299 5.51359 40.7983 5.48353 40.8735C5.45347 40.9487 5.43868 41.0291 5.44 41.11C5.43721 41.2658 5.49513 41.4166 5.60151 41.5304C5.70789 41.6442 5.85438 41.7123 6.01 41.72C6.10176 41.7281 6.19415 41.7156 6.28048 41.6835C6.3668 41.6513 6.44488 41.6004 6.50904 41.5343C6.57321 41.4682 6.62185 41.3887 6.65142 41.3014C6.68099 41.2142 6.69075 41.1215 6.68 41.03L6.64 41.06ZM37.51 41.12C37.5105 40.9586 37.45 40.8029 37.3406 40.6843C37.2311 40.5656 37.0809 40.4926 36.92 40.48C36.8386 40.4813 36.7582 40.4986 36.6835 40.531C36.6088 40.5634 36.5411 40.6102 36.4845 40.6687C36.4279 40.7272 36.3833 40.7962 36.3533 40.872C36.3234 40.9477 36.3087 41.0286 36.31 41.11C36.3073 41.1875 36.32 41.2648 36.3472 41.3374C36.3744 41.41 36.4156 41.4765 36.4686 41.5332C36.5215 41.5898 36.5851 41.6355 36.6557 41.6675C36.7263 41.6996 36.8025 41.7174 36.88 41.72C36.9667 41.7286 37.0543 41.7186 37.1368 41.6906C37.2193 41.6625 37.2948 41.6171 37.3583 41.5574C37.4218 41.4977 37.4717 41.4251 37.5048 41.3445C37.5379 41.2639 37.5533 41.1771 37.55 41.09L37.51 41.12Z" fill="#EF4C23"/>
<path d="M14.1601 0.0100098C14.5445 0.161005 14.8997 0.37755 15.2101 0.650009C15.4092 0.859424 15.5573 1.11191 15.643 1.38787C15.7287 1.66382 15.7496 1.95582 15.7041 2.24117C15.6587 2.52652 15.5481 2.79755 15.3809 3.03322C15.2137 3.26888 14.9944 3.46283 14.7401 3.60001C14.6456 3.63686 14.5659 3.7039 14.5135 3.79071C14.461 3.87752 14.4387 3.97922 14.4501 4.08001C14.4501 4.73001 14.4501 5.38001 14.4501 6.02001C14.4501 6.35001 14.5701 6.39001 14.8501 6.39001H18.8501C19.0038 6.36794 19.1605 6.39838 19.2948 6.47642C19.4291 6.55445 19.5331 6.67551 19.5901 6.82001C19.6306 6.92293 19.6437 7.03459 19.6282 7.1441C19.6127 7.2536 19.5691 7.35722 19.5016 7.44485C19.4341 7.53248 19.3451 7.60112 19.2431 7.64409C19.1412 7.68705 19.0299 7.70288 18.9201 7.69001C18.0601 7.69001 17.2001 7.69001 16.3401 7.69001H8.64007C8.18007 7.69001 7.88007 7.41001 7.92007 7.02001C7.92076 6.93093 7.94034 6.84302 7.9775 6.76207C8.01466 6.68111 8.06857 6.60896 8.13567 6.55037C8.20276 6.49178 8.28152 6.44808 8.36674 6.42216C8.45196 6.39625 8.54171 6.3887 8.63007 6.40001H12.7701C13.0501 6.40001 13.1301 6.32001 13.1301 6.04001C13.1301 5.38001 13.1301 4.71001 13.1301 4.04001C13.1301 3.86001 13.1301 3.73001 12.9301 3.65001C12.597 3.48961 12.3184 3.23508 12.1285 2.91792C11.9387 2.60076 11.846 2.23489 11.862 1.8656C11.8779 1.4963 12.0018 1.13979 12.2183 0.840199C12.4348 0.540603 12.7344 0.311072 13.0801 0.180012C13.1601 0.180012 13.2201 0.10001 13.2001 0.0100098H14.1601ZM13.7501 1.34001C13.6729 1.33936 13.5964 1.35527 13.5259 1.38668C13.4553 1.41808 13.3924 1.46424 13.3412 1.52206C13.29 1.57987 13.2518 1.64799 13.2292 1.72181C13.2066 1.79563 13.2001 1.87345 13.2101 1.95001C13.2037 2.03086 13.2152 2.11213 13.2439 2.18799C13.2726 2.26386 13.3177 2.33244 13.376 2.38882C13.4343 2.44521 13.5043 2.488 13.5811 2.51414C13.6579 2.54028 13.7395 2.54911 13.8201 2.54001C13.8975 2.54303 13.9746 2.52968 14.0465 2.50083C14.1183 2.47198 14.1833 2.42827 14.2371 2.37258C14.2909 2.31688 14.3324 2.25045 14.3587 2.17763C14.3851 2.10481 14.3958 2.02724 14.3901 1.95001C14.3949 1.86604 14.3814 1.78202 14.3505 1.70379C14.3196 1.62556 14.2721 1.55499 14.2112 1.49696C14.1503 1.43893 14.0775 1.39483 13.9979 1.36773C13.9183 1.34063 13.8337 1.33117 13.7501 1.34001Z" fill="#EF4C23"/>
<path d="M29.5499 0.00999832C29.5499 0.159998 29.7399 0.109999 29.8299 0.139999C30.1695 0.256193 30.4681 0.46813 30.6899 0.750252C30.9117 1.03237 31.0472 1.37263 31.0799 1.73C31.1269 2.10144 31.0555 2.47823 30.876 2.80678C30.6965 3.13532 30.4179 3.39889 30.0799 3.56C29.9785 3.60085 29.8933 3.67383 29.8373 3.76775C29.7813 3.86167 29.7576 3.97135 29.7699 4.08C29.7699 4.72 29.7699 5.35 29.7699 5.98C29.7699 6.28 29.8399 6.37 30.1499 6.36C31.4599 6.36 32.7699 6.36 34.0899 6.36C34.6499 6.36 34.9399 6.57 34.9499 6.99C34.9599 7.41 34.6599 7.65 34.1099 7.65C30.7899 7.65 27.4599 7.65 24.1099 7.65C23.5299 7.65 23.2099 7.34 23.2999 6.88C23.3339 6.71076 23.432 6.56119 23.5736 6.46245C23.7151 6.36371 23.8894 6.32343 24.0599 6.35C25.3899 6.35 26.7199 6.35 28.0599 6.35C28.4099 6.35 28.5099 6.26 28.4899 5.92C28.4899 5.29 28.4899 4.66 28.4899 4.02C28.5056 3.93423 28.4913 3.84568 28.4494 3.76921C28.4075 3.69274 28.3406 3.633 28.2599 3.6C27.9383 3.44876 27.6704 3.20318 27.4917 2.89593C27.3131 2.58868 27.2322 2.23432 27.2599 1.88C27.2589 1.52824 27.3593 1.18365 27.5491 0.88747C27.7388 0.591292 28.0099 0.356082 28.3299 0.209999C28.4199 0.209999 28.5599 0.21 28.5399 0L29.5499 0.00999832ZM29.1999 2.54C29.28 2.53869 29.3591 2.52163 29.4326 2.48976C29.5061 2.4579 29.5726 2.41186 29.6284 2.35429C29.6841 2.29671 29.7279 2.22873 29.7574 2.15421C29.7868 2.07969 29.8013 2.00011 29.7999 1.92C29.802 1.83804 29.7864 1.7566 29.7541 1.68123C29.7218 1.60587 29.6736 1.53835 29.6129 1.4833C29.5521 1.42824 29.4802 1.38694 29.402 1.36221C29.3239 1.33748 29.2413 1.32991 29.1599 1.34C29.083 1.33851 29.0065 1.35291 28.9354 1.3823C28.8642 1.41169 28.7999 1.45543 28.7464 1.5108C28.6929 1.56617 28.6514 1.63197 28.6245 1.70409C28.5976 1.77622 28.5858 1.85313 28.5899 1.93C28.5871 2.01086 28.601 2.09143 28.6307 2.1667C28.6603 2.24197 28.7052 2.31033 28.7624 2.36754C28.8196 2.42475 28.888 2.46958 28.9632 2.49925C29.0385 2.52892 29.1191 2.54279 29.1999 2.54Z" fill="#EF4C23"/>
<path d="M4.61999 0.0100098C5.09999 0.21001 5.31999 0.70001 5.67999 1.01001C6.07652 1.36273 6.38185 1.80614 6.56991 2.30241C6.75797 2.79868 6.82318 3.33308 6.75999 3.86001C6.65999 5.35001 6.75999 6.86001 6.75999 8.33001C6.74634 8.43887 6.76815 8.54923 6.82219 8.64471C6.87624 8.74018 6.95963 8.81569 7.05999 8.86001C7.42449 9.06248 7.71039 9.38156 7.87179 9.76602C8.03319 10.1505 8.06073 10.578 7.94999 10.98C7.83311 11.3892 7.58875 11.7505 7.25244 12.0112C6.91613 12.272 6.50541 12.4187 6.07999 12.43C5.67955 12.4277 5.28965 12.3014 4.96379 12.0687C4.63794 11.8359 4.39209 11.508 4.25999 11.13C4.1146 10.7308 4.11185 10.2936 4.25221 9.89254C4.39257 9.49152 4.66738 9.15143 5.02999 8.93001C5.15711 8.86866 5.26198 8.76928 5.33007 8.64564C5.39816 8.522 5.4261 8.38024 5.40999 8.24001C5.40999 6.56001 5.40999 4.87001 5.40999 3.24001C5.41881 3.10316 5.3994 2.96597 5.35295 2.83694C5.3065 2.70792 5.23401 2.58983 5.13999 2.49001C4.81999 2.14001 4.51999 1.75001 4.20999 1.38001C3.70999 0.760009 3.71999 0.570009 4.29999 0.060009L4.61999 0.0100098ZM6.13999 11.11C6.27816 11.1102 6.41115 11.0575 6.5116 10.9626C6.61205 10.8677 6.67231 10.738 6.67999 10.6C6.68868 10.5186 6.67971 10.4362 6.6537 10.3585C6.62769 10.2808 6.58524 10.2097 6.52925 10.1499C6.47326 10.0901 6.40504 10.0431 6.32924 10.0121C6.25344 9.98102 6.17183 9.96667 6.08999 9.97001C6.0123 9.96443 5.93431 9.97512 5.86099 10.0014C5.78767 10.0277 5.72064 10.0689 5.66417 10.1226C5.60771 10.1762 5.56305 10.241 5.53306 10.3129C5.50307 10.3848 5.4884 10.4621 5.48999 10.54C5.4908 10.6216 5.50881 10.7021 5.54286 10.7762C5.5769 10.8504 5.62621 10.9165 5.68755 10.9703C5.7489 11.0241 5.8209 11.0644 5.89887 11.0884C5.97683 11.1125 6.05899 11.1199 6.13999 11.11Z" fill="#EF4C23"/>
<path d="M38.8001 0.0100098C39.2701 0.53001 39.2701 0.70001 38.8001 1.28001C38.7657 1.33424 38.7254 1.38454 38.6801 1.43001C38.2382 1.81814 37.9046 2.31424 37.7118 2.86986C37.519 3.42548 37.4736 4.02161 37.5801 4.60001C37.6701 5.84001 37.5801 7.10001 37.5801 8.35001C37.5623 8.45805 37.5811 8.56896 37.6337 8.66502C37.6863 8.76109 37.7695 8.83677 37.8701 8.88001C38.2564 9.09538 38.5544 9.44005 38.7116 9.8534C38.8689 10.2668 38.8755 10.7223 38.7301 11.14C38.5871 11.5458 38.3126 11.8921 37.9502 12.124C37.5879 12.3559 37.1584 12.4601 36.7301 12.42C36.2969 12.3599 35.8972 12.1536 35.5971 11.8354C35.2971 11.5172 35.1147 11.106 35.0801 10.67C35.0367 10.306 35.103 9.93741 35.2704 9.61136C35.4379 9.28532 35.699 9.01672 36.0201 8.84001C36.1205 8.79569 36.2038 8.72018 36.2579 8.62471C36.3119 8.52923 36.3337 8.41887 36.3201 8.31001C36.3201 6.48001 36.3201 4.65001 36.3201 2.81001C36.3116 2.43988 36.4479 2.08106 36.7001 1.81001C37.2301 1.23001 37.7001 0.620008 38.2501 0.0200081L38.8001 0.0100098ZM37.5501 10.5C37.5556 10.4192 37.5444 10.3382 37.5172 10.2619C37.49 10.1857 37.4474 10.1158 37.3921 10.0567C37.3367 9.99761 37.2698 9.95054 37.1955 9.91842C37.1212 9.8863 37.0411 9.86982 36.9601 9.87001C36.8831 9.86598 36.8061 9.87734 36.7335 9.90343C36.661 9.92952 36.5943 9.96982 36.5375 10.022C36.4807 10.0741 36.4349 10.137 36.4027 10.2071C36.3705 10.2772 36.3526 10.353 36.3501 10.43C36.3387 10.5105 36.3446 10.5924 36.3675 10.6704C36.3903 10.7483 36.4296 10.8205 36.4826 10.8821C36.5356 10.9436 36.6012 10.9931 36.6749 11.0273C36.7487 11.0614 36.8288 11.0794 36.9101 11.08C36.9905 11.0854 37.0712 11.0746 37.1474 11.0481C37.2235 11.0216 37.2936 10.9801 37.3533 10.926C37.413 10.8718 37.4612 10.8062 37.4951 10.733C37.5289 10.6598 37.5476 10.5806 37.5501 10.5Z" fill="#EF4C23"/>
<path d="M21.66 0.0100098C21.8353 0.106526 21.9776 0.253421 22.0686 0.431698C22.1595 0.609974 22.1948 0.811431 22.17 1.01001C22.17 3.42001 22.17 5.84001 22.17 8.25001C22.1513 8.37508 22.1733 8.50284 22.2327 8.61446C22.2921 8.72609 22.3858 8.81567 22.5 8.87001C22.8617 9.07728 23.1437 9.39946 23.3014 9.78537C23.459 10.1713 23.4831 10.5988 23.37 11C23.2501 11.3978 23.0056 11.7466 22.6725 11.995C22.3395 12.2435 21.9355 12.3784 21.52 12.38C21.1061 12.3659 20.7068 12.2236 20.3772 11.9728C20.0476 11.7221 19.804 11.3752 19.68 10.98C19.5674 10.5781 19.5941 10.1498 19.7557 9.76496C19.9172 9.38008 20.2042 9.06115 20.57 8.86001C20.6735 8.8078 20.7586 8.72527 20.814 8.62342C20.8694 8.52158 20.8924 8.40527 20.88 8.29001C20.88 5.89001 20.88 3.49001 20.88 1.09001C20.8605 0.892067 20.8874 0.692302 20.9586 0.506569C21.0298 0.320836 21.1432 0.154242 21.29 0.0200081L21.66 0.0100098ZM22.08 10.47C22.0787 10.3899 22.0616 10.3108 22.0298 10.2373C21.9979 10.1638 21.9519 10.0973 21.8943 10.0416C21.8367 9.98586 21.7687 9.94203 21.6942 9.91259C21.6197 9.88316 21.5401 9.86869 21.46 9.87001C21.383 9.87 21.3067 9.88533 21.2357 9.9151C21.1647 9.94487 21.1003 9.98849 21.0463 10.0434C20.9923 10.0983 20.9498 10.1635 20.9213 10.235C20.8927 10.3065 20.8787 10.383 20.88 10.46C20.8773 10.5401 20.8905 10.62 20.9187 10.695C20.9469 10.7701 20.9896 10.8388 21.0444 10.8973C21.0992 10.9558 21.165 11.0029 21.238 11.036C21.3111 11.0691 21.3899 11.0874 21.47 11.09C21.6327 11.0874 21.7878 11.0209 21.902 10.9049C22.0161 10.7889 22.08 10.6327 22.08 10.47Z" fill="#EF4C23"/>
<path d="M21.49 28.2201C19.49 28.2201 17.4 28.2201 15.37 27.9801C13.34 27.7401 12.37 26.8701 12.14 24.7801C11.8215 22.3151 11.8484 19.8177 12.22 17.3601C12.2841 16.6575 12.5995 16.0016 13.1084 15.513C13.6173 15.0243 14.2854 14.7357 14.99 14.7001C18.314 14.3923 21.6556 14.3188 24.99 14.4801C25.93 14.4801 26.87 14.5901 27.8 14.6601C28.6337 14.6785 29.4267 15.0247 30.0069 15.6236C30.5872 16.2226 30.9081 17.0262 30.9 17.8601C31.19 20.3102 31.1597 22.7877 30.81 25.2301C30.7461 25.9662 30.4128 26.6529 29.874 27.1585C29.3352 27.6642 28.6287 27.9531 27.89 27.9701C25.77 28.1801 23.63 28.1901 21.49 28.2201ZM21.49 26.9201C23.59 26.9201 25.63 26.9201 27.67 26.6901C27.907 26.7022 28.1441 26.6667 28.3673 26.5858C28.5904 26.5049 28.7951 26.3802 28.9694 26.219C29.1436 26.0578 29.2839 25.8634 29.3819 25.6472C29.4798 25.431 29.5336 25.1974 29.54 24.9601C29.8415 22.7083 29.8684 20.4283 29.62 18.1701C29.46 16.5701 29.02 16.0901 27.62 15.9601C23.5147 15.5951 19.3852 15.5951 15.28 15.9601C15.0494 15.9534 14.8199 15.9929 14.6049 16.0762C14.3898 16.1596 14.1936 16.285 14.0278 16.4453C13.8619 16.6055 13.7298 16.7973 13.6392 17.0094C13.5485 17.2214 13.5012 17.4495 13.5 17.6801C13.1775 19.9737 13.1473 22.2989 13.41 24.6001C13.59 26.1901 14.03 26.6001 15.63 26.7301C17.61 26.8901 19.59 26.8901 21.51 26.9201H21.49Z" fill="#EF4C23"/>
<path d="M42.9901 13.31V18.37C42.9901 18.93 42.7601 19.22 42.3401 19.21C41.9201 19.2 41.7301 18.92 41.7301 18.38V8.49999C41.7301 7.78999 41.5901 7.65999 40.8701 7.64999C40.4501 7.64999 40.0301 7.64999 39.6101 7.64999C39.1901 7.64999 38.8101 7.41999 38.8001 7.00999C38.7901 6.59999 39.0801 6.35999 39.5901 6.35999H41.1901C41.4306 6.35715 41.6693 6.4031 41.8916 6.49508C42.1139 6.58706 42.3152 6.72314 42.4835 6.89512C42.6517 7.0671 42.7833 7.2714 42.8704 7.49567C42.9575 7.71995 42.9982 7.95954 42.9901 8.19999C43.0001 9.89999 42.9901 11.6 42.9901 13.31Z" fill="#EF4C23"/>
<path d="M19.0801 21.29C19.0801 20.48 19.0801 19.66 19.0801 18.85C19.0801 18.04 19.5501 17.79 20.2201 18.17C21.6867 18.9966 23.1467 19.8366 24.6001 20.69C24.7307 20.7343 24.8441 20.8184 24.9245 20.9305C25.0048 21.0426 25.048 21.1771 25.048 21.315C25.048 21.4529 25.0048 21.5873 24.9245 21.6994C24.8441 21.8115 24.7307 21.8957 24.6001 21.94C23.1267 22.8 21.6534 23.65 20.1801 24.49C19.5901 24.83 19.1001 24.55 19.0901 23.87C19.0801 23.01 19.0801 22.15 19.0801 21.29ZM20.3901 22.87L23.0901 21.32L20.6601 19.91C20.5001 19.82 20.3901 19.79 20.3901 20.04V22.87Z" fill="#EF4C23"/>
</svg>
