<svg width="51" height="52" viewBox="0 0 51 52" fill="none" xmlns="http://www.w3.org/2000/svg">
<path d="M50.9605 31.2726V47.6891C51.0448 48.2683 50.9938 48.8593 50.8112 49.4152C50.6287 49.971 50.3197 50.4765 49.9089 50.8913C49.498 51.3062 48.9966 51.619 48.4445 51.8049C47.8924 51.9909 47.3047 52.0449 46.7282 51.9626H25.305C24.7559 52.015 24.2021 51.9448 23.6831 51.7571C23.1641 51.5694 22.6928 51.2687 22.3028 50.8766C21.9128 50.4846 21.6137 50.0107 21.427 49.489C21.2403 48.9673 21.1705 48.4105 21.2226 47.8585C21.2226 44.7522 21.2226 41.627 21.2226 38.4454C21.2226 37.7488 21.0353 37.5041 20.3611 37.5982C19.687 37.6924 18.4885 37.2405 18.0016 37.7865C17.5147 38.3324 17.6832 39.2926 17.5147 40.0645C16.9417 42.9801 15.6975 45.7203 13.8817 48.0656C13.5459 48.4529 13.354 48.9452 13.3386 49.4587C13.355 49.7811 13.3036 50.1034 13.1877 50.4045C13.0718 50.7055 12.8941 50.9787 12.6661 51.206C12.4382 51.4334 12.1651 51.6099 11.8648 51.7241C11.5644 51.8382 11.2435 51.8874 10.9229 51.8685C9.05025 51.8685 7.17757 51.8685 5.17382 51.8685C4.59024 51.8825 4.0222 51.6786 3.57947 51.2961C3.13674 50.9136 2.85077 50.3797 2.77681 49.7976C2.7085 49.4394 2.55421 49.1033 2.32736 48.8186C1.13177 47.2985 0.432021 45.4445 0.323624 43.5097C0.155084 41.3823 0.0614547 39.2361 0.00527475 37.1087C-0.0509052 34.9814 0.304899 33.7389 2.87045 33.0799C3.67569 32.8728 4.29367 32.0445 5.21128 31.8374C5.436 31.8374 5.30492 31.2726 5.30492 30.9714C5.30492 21.7277 5.30492 12.4652 5.30492 3.20275C5.27536 2.76037 5.33292 2.31647 5.47431 1.8965C5.6157 1.47652 5.83815 1.08873 6.12889 0.755336C6.37155 0.505477 6.66348 0.309402 6.98599 0.179714C7.3085 0.0500258 7.65444 -0.010396 8.00156 0.00229894H22.496C22.8706 -0.0134962 23.2441 0.0522463 23.5911 0.195025C23.9381 0.337804 24.2503 0.55423 24.5064 0.829536C24.7624 1.10484 24.9563 1.43251 25.0747 1.79012C25.1932 2.14773 25.2334 2.52685 25.1926 2.90152C25.1926 5.97019 25.1926 9.02003 25.1926 12.0699C25.1926 12.7664 25.3237 13.0677 26.0728 12.9924C26.8218 12.9171 27.9454 13.2559 28.451 12.8418C28.9567 12.4276 28.6196 11.298 28.657 10.4885C28.9 8.69166 29.7796 7.04329 31.1345 5.84622C32.4894 4.64915 34.2285 3.98378 36.0322 3.97233C37.8359 3.96088 39.5831 4.60413 40.9529 5.78391C42.3227 6.96369 43.2231 8.60075 43.4885 10.3943C43.4793 10.4882 43.4793 10.5829 43.4885 10.6768C43.4885 11.4298 43.1514 12.4088 43.6758 12.8418C44.2001 13.2748 45.0616 12.9735 45.7919 12.9924C47.159 12.9924 48.526 12.9924 49.893 12.9924C50.6983 12.9924 50.923 13.2371 50.923 14.0466C50.9605 19.8451 50.9605 25.5683 50.9605 31.2726ZM14.2375 34.7178L14.9866 32.967C13.3574 32.7034 13.3574 32.7034 13.3761 34.1907C13.3761 34.3036 13.3761 34.4354 13.3761 34.5484C13.2168 35.591 13.3397 36.6575 13.7319 37.6359L14.2375 34.7178ZM18.451 34.5484L18.1139 36.0545C18.0203 36.5251 18.1139 36.7887 18.7132 36.7699C20.0053 36.7699 21.3162 36.7699 22.6083 36.7699C22.9769 36.7882 23.3402 36.6757 23.6346 36.452C23.929 36.2283 24.1358 35.9077 24.2188 35.5462C24.5193 34.7453 24.5193 33.8619 24.2188 33.0611C23.9379 32.5905 23.039 32.9482 22.3461 32.8917C22.2534 32.8729 22.158 32.8729 22.0653 32.8917H20.1926C18.657 32.854 18.657 32.854 18.451 34.5484ZM22.29 4.87828H23.8256C24.0877 4.87828 24.3312 4.87827 24.3124 4.48292C24.3124 3.67339 24.5184 2.84504 24.1065 2.07316C24.0504 1.83923 23.9289 1.6263 23.7563 1.45951C23.5838 1.29272 23.3674 1.17903 23.1327 1.13185C22.972 1.06178 22.8014 1.01733 22.6271 1.00009H8.07645C7.85511 0.995086 7.63494 1.03397 7.42855 1.11453C7.22216 1.19509 7.0336 1.31574 6.87361 1.46959C6.71361 1.62344 6.58533 1.80747 6.49611 2.01117C6.40688 2.21488 6.35847 2.43425 6.35361 2.65677C6.35361 3.12743 6.35361 3.63574 6.35361 4.1064C6.35361 4.85945 6.61577 5.0289 7.25248 4.85946L22.29 4.87828ZM4.33112 50.7389C4.41113 50.8289 4.50932 50.9006 4.61913 50.9493C4.72893 50.998 4.84781 51.0225 4.96782 51.0213C7.02775 51.0213 9.10641 51.0213 11.1663 51.0213C11.3375 51.0271 11.508 50.9966 11.6666 50.9316C11.8252 50.8667 11.9684 50.7688 12.0868 50.6444C12.2052 50.5201 12.2962 50.372 12.3538 50.2098C12.4114 50.0477 12.4343 49.8751 12.421 49.7035C12.4078 49.2664 12.4822 48.8311 12.6398 48.4236C12.7975 48.0161 13.0351 47.6446 13.3386 47.3314C13.6406 46.9516 13.9219 46.5556 14.1813 46.1453C16.6158 42.3801 16.9154 38.0877 17.5334 33.8518C17.5334 33.8518 17.5334 33.7577 17.5334 33.7012C17.5753 33.6592 17.6085 33.6094 17.6312 33.5544C17.6539 33.4995 17.6656 33.4406 17.6656 33.3812C17.6656 33.3217 17.6539 33.2628 17.6312 33.2079C17.6085 33.153 17.5753 33.1031 17.5334 33.0611C17.0652 32.4022 16.5596 32.7411 16.1476 33.0611C15.6727 33.4981 15.3399 34.0689 15.1926 34.699C14.8277 35.9218 14.6262 37.188 14.5933 38.4642C14.5933 38.9161 14.3686 39.5185 13.8817 39.0667C13.4656 38.7921 13.1176 38.4254 12.8644 37.9946C12.6112 37.5638 12.4596 37.0805 12.421 36.5816C12.421 32.4587 12.421 28.3357 12.421 24.2128C12.4491 23.9122 12.4491 23.6097 12.421 23.3091C12.4066 23.0761 12.303 22.8577 12.1319 22.6998C11.9608 22.5419 11.7356 22.4566 11.5034 22.462C11.2606 22.417 11.0098 22.4684 10.8038 22.6053C10.5978 22.7422 10.4526 22.9539 10.3986 23.1962C10.3303 23.5242 10.2989 23.8589 10.3049 24.194C10.23 26.5535 10.1738 28.9068 10.1364 31.2538C10.1364 31.988 10.0053 32.4022 9.08768 32.101C8.73772 31.9683 8.35627 31.944 7.99247 32.0313C7.62867 32.1185 7.2992 32.3133 7.04648 32.5905C6.89892 32.7572 6.71114 32.8829 6.50122 32.9554C6.2913 33.0279 6.06631 33.0449 5.84798 33.0046C5.48579 32.949 5.11532 33.0014 4.78246 33.1553C4.4496 33.3092 4.16896 33.5579 3.97531 33.8706C3.9104 33.9529 3.82784 34.0193 3.7338 34.0649C3.63976 34.1106 3.53668 34.1342 3.43225 34.1342C1.29742 34.5672 0.885417 35.0379 0.960323 37.2029C1.03523 39.3679 1.20376 41.7776 1.39103 44.0556C1.48391 45.4676 1.97068 46.8248 2.79553 47.9715C3.36859 48.5099 3.72791 49.239 3.80678 50.0235C3.82547 50.1781 3.88356 50.3251 3.97543 50.4505C4.0673 50.5758 4.18983 50.6752 4.33112 50.7389ZM6.20379 31.6115V31.8374L6.48468 31.6303C7.03673 31.2559 7.69168 31.065 8.35734 31.0844C9.05023 31.0844 9.14389 30.8396 9.14389 30.256C9.14389 28.0847 9.20006 25.9197 9.31242 23.761C9.31242 22.3113 10.1364 21.4453 11.3349 21.4642C12.5334 21.483 13.2076 22.3866 13.2076 23.7798C13.2076 26.2648 13.2076 28.7311 13.2076 31.1973C13.2076 31.7998 13.3761 32.0068 13.9753 31.9692C15.1551 31.9692 16.3349 31.875 17.5147 31.8374C17.8143 32.0633 18.1514 31.9692 18.4885 31.9692C20.0615 31.9692 21.6345 31.9692 23.2263 31.9692C23.9754 31.9692 24.2001 31.7809 24.2001 31.0091C24.2001 22.9138 24.2001 14.8185 24.2001 6.72324C24.2001 6.02667 24.069 5.78193 23.3199 5.78193C17.8705 5.78193 12.4398 5.78193 6.9903 5.78193C6.72813 5.78193 6.39105 5.61249 6.16633 5.95136C5.94161 6.29023 6.16633 6.61027 6.16633 6.94915V23.8927C6.20378 26.4343 6.20379 29.0135 6.20379 31.6115ZM22.9267 50.1553C23.208 50.4765 23.5634 50.7233 23.9617 50.8743C24.36 51.0253 24.7891 51.0758 25.2113 51.0213H46.541C49.0129 51.0213 49.9679 50.08 49.9679 47.6138V15.6092C49.9679 15.308 49.9679 15.0068 49.9679 14.7056C49.9679 14.4043 49.9679 13.9525 49.3312 13.9713C47.4586 13.9713 45.5859 13.9713 43.7133 13.9713C42.4773 13.9713 42.4586 13.9713 42.4586 12.6723C42.4586 11.9946 42.4586 11.3168 42.4586 10.6579C42.5238 9.4711 42.2246 8.29282 41.6016 7.2826C40.9786 6.27239 40.0618 5.47906 38.9754 5.01005C38.9754 4.63352 38.6009 4.61471 38.3761 4.52058C37.5014 4.18095 36.5641 4.03457 35.6281 4.09135C34.692 4.14812 33.7791 4.40674 32.9513 4.84964C32.1234 5.29254 31.4001 5.90935 30.8304 6.65818C30.2607 7.407 29.858 8.27031 29.6496 9.18947C29.4996 10.0341 29.4431 10.8927 29.481 11.7498C29.481 13.9902 29.481 13.9902 27.1964 13.9902C26.7844 13.9902 26.3537 13.9902 25.9229 13.9902C25.1551 13.896 24.9491 14.2161 25.1551 14.9127C25.1551 15.2892 25.1551 15.6469 25.1551 16.0046V34.4731C25.2628 35.1789 25.1005 35.8994 24.7009 36.4898C24.3013 37.0801 23.6942 37.4964 23.0016 37.6547C22.3087 37.5041 22.0278 37.6547 22.0278 38.483C22.0278 41.6458 22.0278 44.8087 22.0278 47.9903C21.9599 48.5046 22.0797 49.0263 22.3649 49.4587C22.4167 49.622 22.5066 49.7705 22.6271 49.8917C22.7477 50.0129 22.8953 50.1033 23.0578 50.1553H22.9267Z" fill="#EF4C23"/>
<path d="M46.3898 48.0831C46.0736 48.3962 45.6964 48.6391 45.2824 48.796C44.8683 48.953 44.4264 49.0206 43.9851 48.9946C38.8269 48.9946 33.6688 48.9946 28.529 48.9946C27.8723 49.0041 27.2296 48.8022 26.6934 48.4179C26.283 47.8258 26.0766 47.1132 26.106 46.3903C26.0142 43.693 25.9224 41.0144 26.106 38.3357C26.0749 37.6218 26.2751 36.9172 26.6762 36.3295C27.0772 35.7417 27.657 35.303 28.3271 35.0804C28.726 34.9494 29.0789 34.704 29.3428 34.3738C29.6067 34.0436 29.7704 33.6428 29.8139 33.2202C29.8139 33.0156 29.8139 32.7365 29.8139 32.6063C29.098 31.7135 29.4468 30.7462 29.4101 29.7231C29.3993 29.5541 29.4242 29.3848 29.4831 29.2264C29.542 29.0679 29.6336 28.9241 29.7518 28.8043C29.8699 28.6846 30.0119 28.5918 30.1682 28.5321C30.3245 28.4724 30.4916 28.4472 30.6584 28.4581C31.723 28.4581 32.806 28.4581 33.8707 28.4581C34.0457 28.4428 34.2218 28.4673 34.3862 28.53C34.5506 28.5927 34.699 28.692 34.8205 28.8205C34.942 28.949 35.0335 29.1034 35.0884 29.2725C35.1432 29.4416 35.1599 29.621 35.1373 29.7975C35.2754 30.7485 35.1548 31.7196 34.7885 32.6063C34.4398 33.183 34.7885 33.9457 35.2291 34.4665C35.3392 34.6153 35.4861 34.7828 35.6696 34.727C35.8532 34.6712 35.8165 34.4107 35.8165 34.2433C35.7985 33.157 35.8352 32.0705 35.9266 30.988C36.208 29.41 36.8353 27.9162 37.7623 26.6166C38.9274 24.5286 39.3792 22.1089 39.0472 19.7339C39.0064 19.4982 38.9122 19.2753 38.7719 19.0828C38.5148 18.6043 38.3881 18.0649 38.4047 17.5203C38.4047 16.274 38.7719 16.0135 40.0017 16.0135C41.2316 16.0135 42.076 16.0135 43.1223 16.0135C43.2679 15.9899 43.4167 15.9973 43.5594 16.035C43.702 16.0727 43.8353 16.1401 43.951 16.2327C44.0666 16.3254 44.1619 16.4414 44.231 16.5734C44.3001 16.7054 44.3414 16.8504 44.3522 16.9994C44.4937 17.6186 44.449 18.2665 44.2237 18.8596C43.8175 19.9926 43.6454 21.198 43.7181 22.4012C43.7907 23.6043 44.1065 24.7796 44.6459 25.8539C45.545 27.3102 46.2662 28.8718 46.7936 30.5044C46.9344 31.2711 47.002 32.0497 46.9955 32.8296V46.2415C47.0223 46.8433 46.9287 47.4445 46.7202 48.0087C46.4632 47.8784 46.4265 47.9714 46.3898 48.0831ZM34.3113 35.0618C34.0554 34.6315 33.8752 34.1594 33.7789 33.6667C33.7789 32.6436 33.3384 32.3831 32.4573 32.5319C32.1639 32.5505 31.8696 32.5505 31.5762 32.5319H31.3743C30.9888 32.5319 30.6033 32.3645 30.5849 32.997C30.585 33.67 30.3705 34.325 29.9737 34.8646C29.5768 35.4042 29.0186 35.7996 28.3822 35.9919C27.9329 36.1527 27.5453 36.4534 27.2749 36.851C27.0045 37.2487 26.8652 37.7228 26.8769 38.2055C26.7209 41.0928 26.7209 43.9866 26.8769 46.8739C26.862 46.9952 26.8741 47.1182 26.9122 47.2341C26.9503 47.3499 27.0135 47.4557 27.0972 47.5436C27.1719 47.7273 27.3038 47.8812 27.4728 47.982C27.6418 48.0827 27.8386 48.1247 28.0334 48.1016H36.0735C36.232 48.1155 36.3917 48.0944 36.5414 48.0397C36.6911 47.985 36.8273 47.8981 36.9407 47.785C37.0541 47.6718 37.142 47.5351 37.1982 47.3843C37.2545 47.2334 37.2779 47.072 37.2667 46.9111C37.4686 43.8701 37.4686 40.8187 37.2667 37.7777C37.2458 37.4463 37.1377 37.1266 36.9537 36.8518C36.7697 36.5771 36.5165 36.3572 36.2203 36.2151L34.3847 35.2106L34.3113 35.0618ZM31.9433 31.6391H32.4756H33.6137C33.834 31.6391 34.091 31.639 34.0726 31.36C34.0726 30.7276 34.3113 30.0579 33.9074 29.4998C33.3083 29.3445 32.6864 29.3004 32.0718 29.3696C30.0526 29.3696 30.0526 29.3696 30.2362 31.5088C30.2362 31.6204 30.2362 31.6763 30.383 31.6391C30.9042 31.6752 31.4278 31.6502 31.9433 31.5646V31.6391ZM41.9475 24.0495C42.6634 24.2169 42.8654 24.0495 42.8286 23.1938C42.4592 21.5632 42.6136 19.8556 43.2692 18.3202C43.376 18.1405 43.4325 17.9347 43.4325 17.7249C43.4325 17.5151 43.376 17.3093 43.2692 17.1297C42.0588 16.9021 40.8224 16.852 39.5979 16.9808C39.3776 16.9808 39.3409 17.2041 39.3226 17.3715C39.2618 17.5905 39.2484 17.8201 39.2832 18.0449C39.3181 18.2696 39.4004 18.4841 39.5245 18.6736C39.8363 19.1155 39.9738 19.6596 39.91 20.1989C39.857 20.8178 39.857 21.4402 39.91 22.0591C39.91 22.7102 39.396 23.6031 39.91 23.9193C40.4239 24.2355 41.2316 23.9751 41.9292 23.9751L41.9475 24.0495ZM40.2771 25.0168C39.6713 24.8866 39.2308 25.0168 39.0656 25.6865C38.9942 25.9834 38.8629 26.262 38.6801 26.5049C37.0389 28.7877 36.2753 31.5984 36.5324 34.4107C36.5324 35.1548 36.7159 35.6756 37.4135 35.9547C37.9543 36.6817 38.2329 37.5746 38.2028 38.4845C38.3864 40.9772 38.2028 43.4698 38.2028 45.9252C38.1849 46.471 38.1111 47.0133 37.9826 47.5436C37.8173 48.1017 37.9825 48.1389 38.4782 48.1389H43.9851C45.6004 48.1389 46.0593 47.6738 46.0593 46.0555C46.0593 42.0933 46.0593 38.1497 46.0593 34.1875C46.0772 31.6313 45.445 29.1136 44.2237 26.877C43.9726 26.1425 43.448 25.5368 42.762 25.1891C42.0759 24.8415 41.2829 24.7797 40.5524 25.0168H40.2771Z" fill="#EF4C23"/>
<path d="M36.5367 13.9956C35.3211 13.9956 34.1054 13.9956 32.908 13.9956C32.273 13.9956 31.9827 13.8092 32.0008 13.1196C32.0189 12.43 32.0008 11.4236 32.0008 10.5849C32.0245 9.3637 32.5122 8.20044 33.3598 7.34372C34.2074 6.487 35.3476 6.00478 36.5367 6.00015C37.1181 5.99524 37.6947 6.10802 38.2336 6.33203C38.7726 6.55603 39.2633 6.88688 39.6777 7.3057C40.0922 7.72451 40.4223 8.22307 40.6492 8.77294C40.876 9.3228 40.9953 9.91321 41 10.5104C41 11.3863 41 12.2623 41 13.1382C41 14.0142 40.8004 14.0142 40.1835 13.9956C38.9316 13.9583 37.6979 13.9956 36.5367 13.9956ZM36.5367 13.0823H39.5304C39.9839 13.0823 40.1654 12.9705 40.1473 12.4859C40.1291 12.0014 40.1473 11.144 40.1473 10.4917C40.1097 9.52923 39.7109 8.619 39.0344 7.9519C38.3579 7.28479 37.4563 6.91262 36.5185 6.91339C35.5562 6.91339 34.6332 7.3061 33.9527 8.00513C33.2721 8.70417 32.8898 9.65226 32.8898 10.6408C32.8898 11.2372 32.8898 11.8523 32.8898 12.5046C32.8898 13.1569 33.0168 13.2501 33.5793 13.2314C34.5227 13.0451 35.5206 13.0823 36.5367 13.0823Z" fill="#EF4C23"/>
</svg>
