<svg width="42" height="42" viewBox="0 0 42 42" fill="none" xmlns="http://www.w3.org/2000/svg">
<path d="M1.6 22.427C1.15 22.317 0.740002 22.207 0.330002 22.117C0.120002 22.117 0 22.007 0 21.737C0 20.227 0 18.737 0 17.207C0 16.997 4.47035e-07 16.897 0.27 16.857C0.54 16.817 0.96 16.667 1.27 16.597C1.58 16.527 1.51 16.457 1.4 16.277C1.29 16.097 1.21 15.937 1.11 15.767C0.710001 15.087 0.710002 15.087 1.24 14.557C2.17 13.627 3.11 12.707 4.03 11.767C4.23 11.567 4.37 11.507 4.64 11.677C4.91 11.847 5.37 12.347 5.7 12.197C6.03 12.047 5.96 11.477 6.04 11.087C6.12 10.697 6.21 10.727 6.49 10.737C7.49 10.737 8.49 10.737 9.49 10.737C9.88 10.737 10.01 10.677 10 10.257C10 8.01698 10 5.77698 10 3.53698C9.97208 3.06441 10.0449 2.59129 10.2137 2.14902C10.3826 1.70674 10.6434 1.30539 10.9791 0.971599C11.3148 0.637803 11.7176 0.379182 12.1609 0.212878C12.6041 0.0465748 13.0776 -0.0236085 13.55 0.00698003C19.25 0.00698003 24.94 0.00698003 30.64 0.00698003C31.108 -0.00107601 31.5729 0.0848345 32.0072 0.259631C32.4414 0.434428 32.8362 0.694556 33.1681 1.02462C33.5001 1.35469 33.7624 1.74799 33.9396 2.18124C34.1169 2.6145 34.2054 3.0789 34.2 3.54698C34.12 6.30698 34.2 9.06698 34.2 11.827C34.2 12.167 34.28 12.327 34.64 12.427C36.6408 12.9689 38.4063 14.157 39.6618 15.8063C40.9174 17.4557 41.5926 19.4738 41.5823 21.5466C41.572 23.6194 40.8769 25.6307 39.6051 27.2675C38.3332 28.9044 36.556 30.0749 34.55 30.597C34.21 30.687 34.2 30.847 34.21 31.107C34.21 33.447 34.15 35.787 34.21 38.107C34.2166 38.5678 34.1319 39.0254 33.9607 39.4533C33.7895 39.8812 33.5353 40.2709 33.2127 40.6001C32.8901 40.9292 32.5055 41.1912 32.0811 41.3709C31.6567 41.5505 31.2009 41.6444 30.74 41.647C25.02 41.647 19.31 41.647 13.6 41.647C13.127 41.6747 12.6535 41.6019 12.2108 41.4331C11.768 41.2644 11.3661 41.0037 11.0315 40.6682C10.697 40.3327 10.4374 39.93 10.2699 39.4868C10.1024 39.0436 10.0309 38.5699 10.06 38.097C10.06 34.987 10.06 31.867 10.06 28.757C10.06 28.347 10 28.187 9.54 28.207C8.54 28.207 7.54 28.207 6.54 28.207C6.21 28.207 6.08 28.087 6.03 27.787C5.95586 27.5406 5.89576 27.2902 5.85 27.037C5.85 26.577 5.61 26.647 5.33 26.837C5.05 27.027 4.9 27.077 4.71 27.217C4.66895 27.2709 4.616 27.3146 4.55529 27.3446C4.49458 27.3747 4.42775 27.3903 4.36 27.3903C4.29225 27.3903 4.22542 27.3747 4.16471 27.3446C4.104 27.3146 4.05106 27.2709 4.01 27.217C3.01 26.217 1.96 25.137 0.920002 24.117C0.884047 24.086 0.855199 24.0476 0.835423 24.0045C0.815647 23.9613 0.805408 23.9144 0.805408 23.867C0.805408 23.8195 0.815647 23.7726 0.835423 23.7295C0.855199 23.6863 0.884047 23.648 0.920002 23.617L1.6 22.427ZM28.86 12.697C29.27 12.577 29.6 12.447 29.94 12.367C30.28 12.287 30.22 12.227 30.22 12.007C30.22 11.307 30.22 10.607 30.22 9.90698C30.22 9.48698 30.1 9.41698 29.71 9.42698C24.6967 9.42698 19.6967 9.42698 14.71 9.42698C14.27 9.42698 14.16 9.53698 14.16 9.97698C14.16 17.217 14.16 24.4536 14.16 31.687C14.16 32.157 14.31 32.227 14.72 32.227H29.04C30.26 32.227 30.26 32.227 30.22 31.007C30.22 30.767 30.15 30.677 29.91 30.617C27.7783 30.0999 25.904 28.8326 24.63 27.047C23.2198 25.1889 22.5982 22.85 22.9 20.537C22.9 20.157 22.76 20.187 22.52 20.187H15.85C15.52 20.187 15.41 20.107 15.42 19.757C15.42 16.8836 15.42 14.0136 15.42 11.147C15.42 10.827 15.5 10.737 15.82 10.747H19.82C22.68 10.747 25.53 10.747 28.39 10.747C28.77 10.747 28.85 10.857 28.83 11.207C28.81 11.557 28.86 12.157 28.86 12.697ZM11.42 20.797C11.42 25.357 11.42 29.917 11.42 34.477C11.42 34.817 11.49 34.907 11.84 34.907C18.72 34.907 25.6033 34.907 32.49 34.907C32.8 34.907 32.89 34.827 32.89 34.507C32.89 33.627 32.89 32.757 32.89 31.877C32.89 30.997 32.89 30.877 31.89 30.877C31.64 30.877 31.59 30.957 31.6 31.177C31.6 31.827 31.6 32.477 31.6 33.177C31.6 33.547 31.51 33.637 31.14 33.637C25.14 33.637 19.17 33.637 13.23 33.637C12.86 33.637 12.76 33.547 12.76 33.177C12.76 24.9636 12.76 16.7503 12.76 8.53698C12.76 8.16698 12.87 8.08698 13.23 8.08698H21.99C24.99 8.08698 28.06 8.08698 31.1 8.08698C31.51 8.08698 31.61 8.19698 31.6 8.59698C31.6 9.47698 31.6 10.347 31.6 11.227C31.6 12.107 31.6 12.117 32.5 12.137C32.82 12.137 32.91 12.067 32.91 11.747C32.91 10.237 32.91 8.74698 32.91 7.21698C32.91 6.84698 32.81 6.76698 32.45 6.76698C25.5967 6.76698 18.7467 6.76698 11.9 6.76698C11.51 6.76698 11.44 6.88698 11.44 7.24698C11.4333 11.7536 11.4267 16.2703 11.42 20.797ZM39.42 25.077C40.3878 23.3072 40.6514 21.2371 40.1578 19.2812C39.6643 17.3253 38.4501 15.6281 36.7584 14.5294C35.0667 13.4307 33.0224 13.0116 31.0349 13.3561C29.0474 13.7005 27.2633 14.7831 26.04 16.387C23.72 19.197 23.85 23.057 25.12 24.947C25.3436 24.4398 25.6854 23.9935 26.1169 23.6455C26.5484 23.2976 27.0569 23.058 27.6 22.947C28.29 22.787 28.98 22.607 29.67 22.427C29.86 22.427 30.15 22.427 30.2 22.257C30.25 22.087 29.97 21.997 29.87 21.847L29.65 21.587C29.2069 20.9424 28.9256 20.2005 28.8298 19.4242C28.7341 18.6479 28.8268 17.8599 29.1 17.127C29.2585 16.4777 29.6245 15.8979 30.1425 15.4756C30.6605 15.0532 31.3021 14.8115 31.97 14.787C32.6289 14.7157 33.2939 14.8469 33.8763 15.1631C34.4587 15.4793 34.9309 15.9656 35.23 16.557C35.5772 17.3628 35.7115 18.2443 35.62 19.117C35.6676 19.6608 35.5854 20.2081 35.3803 20.714C35.1751 21.2199 34.8529 21.6699 34.44 22.027C34.25 22.177 34.2 22.287 34.51 22.357C35.04 22.467 35.51 22.617 36.07 22.727C37.46 23.037 38.74 23.487 39.39 25.077H39.42ZM34.23 18.807C34.245 18.5138 34.245 18.2201 34.23 17.927C34.2063 17.5757 34.084 17.2382 33.877 16.9534C33.67 16.6686 33.3868 16.448 33.06 16.317C32.7378 16.1723 32.383 16.1154 32.0317 16.1523C31.6804 16.1892 31.3451 16.3185 31.06 16.527C29.97 17.167 29.86 20.377 30.94 20.967C31.1939 21.0987 31.395 21.3135 31.5096 21.5756C31.6243 21.8376 31.6456 22.1311 31.57 22.407C31.55 22.6165 31.55 22.8275 31.57 23.037C31.57 23.297 31.49 23.407 31.24 23.457L29.12 23.987C28.6 24.117 28.12 24.237 27.56 24.377C26.36 24.697 25.76 26.497 26.62 27.277C28.0917 28.6985 30.0521 29.5022 32.0981 29.5227C34.1441 29.5431 36.1202 28.7788 37.62 27.387C37.9052 27.1966 38.11 26.9074 38.1949 26.5751C38.2798 26.2428 38.2389 25.8909 38.08 25.587C37.9685 25.256 37.7723 24.96 37.5109 24.7284C37.2495 24.4969 36.932 24.3378 36.59 24.267L33.67 23.537C32.87 23.327 32.89 23.317 32.86 22.467C32.7946 22.1656 32.825 21.8513 32.9469 21.5681C33.0688 21.2848 33.2762 21.0467 33.54 20.887C34.28 20.467 34.26 19.597 34.2 18.807H34.23ZM22.23 5.37698H32.45C32.78 5.37698 32.9 5.30698 32.88 4.95698C32.88 4.43698 32.88 3.95698 32.88 3.39698C32.88 2.86655 32.6693 2.35784 32.2942 1.98276C31.9191 1.60769 31.4104 1.39698 30.88 1.39698H13.46C12.9296 1.39698 12.4209 1.60769 12.0458 1.98276C11.6707 2.35784 11.46 2.86655 11.46 3.39698C11.46 3.87698 11.46 4.39698 11.46 4.85698C11.46 5.31698 11.53 5.36698 11.95 5.36698C15.32 5.37698 18.74 5.37698 22.17 5.37698H22.23ZM22.23 36.257H11.85C11.52 36.257 11.39 36.257 11.41 36.667C11.41 37.207 11.41 37.737 11.41 38.277C11.41 38.8074 11.6207 39.3161 11.9958 39.6912C12.3709 40.0663 12.8796 40.277 13.41 40.277C19.2367 40.277 25.0633 40.277 30.89 40.277C31.1501 40.2864 31.4095 40.2432 31.6524 40.1498C31.8954 40.0564 32.117 39.9148 32.3038 39.7336C32.4907 39.5524 32.6389 39.3352 32.7396 39.0952C32.8404 38.8552 32.8915 38.5973 32.89 38.337C32.89 37.807 32.89 37.267 32.89 36.737C32.89 36.207 32.74 36.267 32.39 36.267C28.99 36.267 25.58 36.267 22.17 36.267L22.23 36.257ZM22.23 12.097C20.58 12.097 18.92 12.097 17.23 12.097C16.91 12.097 16.78 12.097 16.79 12.507C16.79 14.507 16.79 16.437 16.79 18.397C16.79 18.747 16.9 18.817 17.23 18.817H22.82C22.9363 18.8348 23.055 18.8075 23.1517 18.7405C23.2484 18.6736 23.3158 18.5721 23.34 18.457C23.9666 16.5439 25.2166 14.896 26.89 13.777C27.1125 13.6599 27.2933 13.477 27.4079 13.2533C27.5224 13.0296 27.5651 12.7759 27.53 12.527C27.53 12.147 27.4 12.087 27.06 12.097C25.43 12.107 23.8 12.097 22.18 12.097H22.23ZM10.06 13.547C10.06 13.187 10.06 12.827 10.06 12.477C10.06 12.127 10.06 12.067 9.69 12.097C9.32 12.127 8.81 12.097 8.38 12.097C7.26 12.097 7.26 12.097 6.98 13.207C6.78 14.007 6.24 14.207 5.52 13.797C5.3 13.667 5.07 13.547 4.86 13.397C4.82556 13.3582 4.78247 13.3281 4.73423 13.3091C4.68599 13.2901 4.63395 13.2828 4.58233 13.2876C4.53071 13.2925 4.48097 13.3095 4.43713 13.3372C4.39329 13.3648 4.35659 13.4025 4.33 13.447C4.04 13.777 3.72 14.077 3.4 14.387C2.4 15.307 2.4 15.317 3.16 16.387C3.22634 16.4843 3.26668 16.5969 3.27718 16.7142C3.28768 16.8314 3.268 16.9495 3.22 17.057C3.1785 17.2201 3.08836 17.3668 2.96156 17.4776C2.83475 17.5883 2.67726 17.6578 2.51 17.677C2.24 17.677 1.97 17.827 1.7 17.867C1.43 17.907 1.34 18.047 1.36 18.317C1.36 18.827 1.36 19.317 1.36 19.827C1.36 20.927 1.36 20.927 2.43 21.167C3.26 21.357 3.49 21.927 3.04 22.647C2.9 22.867 2.79 23.107 2.64 23.317C2.60705 23.3505 2.58189 23.3909 2.56632 23.4353C2.55075 23.4797 2.54515 23.5269 2.54993 23.5737C2.5547 23.6205 2.56973 23.6657 2.59394 23.706C2.61815 23.7463 2.65095 23.7808 2.69 23.807C3.06 24.147 3.39 24.527 3.75 24.877C4.57 25.667 4.57 25.667 5.54 25.087C5.6612 24.9793 5.81036 24.9081 5.97027 24.8816C6.13018 24.8551 6.29434 24.8743 6.44382 24.937C6.59329 24.9997 6.722 25.1034 6.81509 25.2361C6.90819 25.3688 6.96189 25.5251 6.97 25.687C7.04 25.957 7.12 26.217 7.17 26.487C7.22 26.757 7.33 26.797 7.56 26.787H9.74C10.01 26.787 10.11 26.727 10.1 26.447C10.1 25.797 10.1 25.147 10.1 24.447C10.1 23.977 9.99 23.927 9.55 23.997C8.6669 24.1538 7.75734 24.0541 6.92916 23.7098C6.10099 23.3654 5.38893 22.7907 4.87741 22.054C4.36589 21.3172 4.07636 20.4492 4.04314 19.5529C4.00992 18.6566 4.23442 17.7696 4.69 16.997C5.19034 16.1468 5.95342 15.4823 6.86426 15.1035C7.77511 14.7248 8.78438 14.6523 9.74 14.897C10.05 14.957 10.06 14.897 10.05 14.617C10.04 14.337 10.06 13.907 10.06 13.547ZM10.06 19.547C10.06 18.657 10.06 17.767 10.06 16.867C10.06 16.527 9.96 16.397 9.64 16.297C9.13724 16.1471 8.60624 16.1177 8.09002 16.2113C7.5738 16.3049 7.08688 16.5187 6.66872 16.8355C6.25055 17.1523 5.91289 17.5632 5.68311 18.0348C5.45332 18.5065 5.33787 19.0256 5.34611 19.5502C5.35434 20.0747 5.48604 20.59 5.73051 21.0542C5.97499 21.5184 6.32537 21.9184 6.75328 22.222C7.18118 22.5255 7.67457 22.724 8.19347 22.8013C8.71238 22.8786 9.24219 22.8326 9.74 22.667C9.84879 22.6497 9.94678 22.5913 10.0138 22.5038C10.0808 22.4164 10.1116 22.3065 10.1 22.197C10.05 21.267 10.06 20.407 10.06 19.517V19.547Z" fill="#EF4C23"/>
<path d="M6.04999 36.1671C6.04999 35.4171 6.04999 34.6671 6.04999 33.9271C6.07798 33.7983 6.06278 33.6639 6.00675 33.5446C5.95072 33.4253 5.85698 33.3278 5.73999 33.2671C5.33667 33.0346 5.02709 32.6686 4.86463 32.2323C4.70216 31.7961 4.69699 31.3168 4.84999 30.8771C4.96824 30.405 5.25456 29.9922 5.6553 29.7161C6.05605 29.44 6.54372 29.3195 7.02696 29.3771C7.51019 29.4348 7.95583 29.6666 8.28038 30.0293C8.60492 30.3919 8.78611 30.8604 8.78999 31.3471C8.83279 31.7361 8.75503 32.129 8.56722 32.4724C8.37942 32.8158 8.09065 33.0932 7.73999 33.2671C7.62069 33.3248 7.52265 33.4187 7.45981 33.5354C7.39697 33.6521 7.37254 33.7857 7.38999 33.9171C7.38999 35.4571 7.38999 36.9971 7.38999 38.5371C7.38999 38.8571 7.30999 38.9571 6.98999 38.9571C5.98999 38.9571 5.98999 38.9571 5.98999 37.9571L6.04999 36.1671ZM6.71999 32.1671C6.80527 32.1685 6.88995 32.1525 6.96889 32.1202C7.04783 32.0879 7.11939 32.04 7.17923 31.9792C7.23907 31.9184 7.28595 31.8461 7.31702 31.7667C7.34809 31.6872 7.36271 31.6023 7.35999 31.5171C7.3627 31.3464 7.29814 31.1815 7.18025 31.058C7.06237 30.9345 6.90064 30.8623 6.72999 30.8571C6.55862 30.8662 6.39633 30.937 6.27315 31.0565C6.14998 31.176 6.07425 31.3361 6.05999 31.5071C6.05867 31.5977 6.07521 31.6877 6.10867 31.7719C6.14213 31.8561 6.19185 31.9329 6.255 31.9979C6.31814 32.0629 6.39347 32.1149 6.47669 32.1508C6.55991 32.1866 6.64938 32.2058 6.73999 32.2071L6.71999 32.1671Z" fill="#EF4C23"/>
<path d="M38.29 5.44707C38.29 6.21707 38.29 6.97707 38.29 7.73707C38.2719 7.86073 38.2943 7.98691 38.3538 8.09683C38.4132 8.20675 38.5066 8.29452 38.62 8.34707C38.9858 8.5375 39.2806 8.84066 39.4607 9.21168C39.6408 9.58269 39.6967 10.0018 39.62 10.4071C39.5749 10.7795 39.4194 11.13 39.1734 11.4134C38.9275 11.6967 38.6024 11.9 38.24 11.9971C37.8461 12.1383 37.4171 12.1484 37.017 12.0258C36.6169 11.9033 36.2672 11.6547 36.02 11.3171C35.8382 11.0893 35.7085 10.8245 35.6398 10.5413C35.571 10.2581 35.5651 9.96328 35.6222 9.67752C35.6794 9.39176 35.7983 9.12193 35.9706 8.88694C36.143 8.65194 36.3646 8.45745 36.62 8.31707C36.7334 8.26661 36.8276 8.1811 36.8889 8.0731C36.9501 7.96509 36.975 7.8403 36.96 7.71707C36.96 6.19707 36.96 4.71707 36.96 3.14707C36.96 2.78707 37.02 2.63707 37.43 2.64707C38.33 2.64707 38.34 2.64707 38.34 3.57707L38.29 5.44707ZM38.29 10.1071C38.294 10.0214 38.2808 9.93574 38.251 9.85526C38.2213 9.77478 38.1757 9.70109 38.1169 9.63859C38.0582 9.57609 37.9874 9.52604 37.9089 9.49142C37.8304 9.4568 37.7458 9.43832 37.66 9.43707C37.4883 9.43429 37.3223 9.49854 37.1972 9.61616C37.0721 9.73379 36.9978 9.89554 36.99 10.0671C36.9964 10.236 37.0637 10.3969 37.1795 10.52C37.2953 10.6432 37.4518 10.7203 37.62 10.7371C37.7822 10.7252 37.9345 10.6547 38.0486 10.5388C38.1627 10.4229 38.2307 10.2694 38.24 10.1071H38.29Z" fill="#EF4C23"/>
<path d="M37.74 1.37709C36.96 1.37709 36.96 1.37709 36.96 0.597092C36.96 0.0170917 36.96 0.0170898 37.75 0.0170898C38.33 0.0170898 38.28 0.0170907 38.34 0.807091C38.35 1.42709 38.04 1.42709 37.74 1.37709Z" fill="#EF4C23"/>
<path d="M6.04992 40.9271C6.04992 40.2671 6.04992 40.2671 6.80992 40.2671C7.40992 40.2671 7.40992 40.2671 7.40992 41.0971C7.40992 41.6271 7.40992 41.5771 6.56992 41.6471C5.87992 41.7071 6.06992 41.2671 6.04992 40.9271Z" fill="#EF4C23"/>
<path d="M18.4599 28.207H15.8299C15.5499 28.207 15.4099 28.207 15.4099 27.827C15.4099 26.827 15.4099 26.827 16.4099 26.827C17.9499 26.827 19.4899 26.827 21.0299 26.827C21.3899 26.827 21.5399 26.887 21.5299 27.297C21.5299 28.207 21.5299 28.207 20.6099 28.207H18.4599Z" fill="#EF4C23"/>
<path d="M18.4799 30.897C17.5999 30.897 16.7299 30.897 15.8599 30.897C15.5399 30.897 15.4099 30.8971 15.4099 30.4771C15.4099 29.4771 15.4099 29.4771 16.4099 29.4771C17.9599 29.4771 19.5199 29.4771 21.0699 29.4771C21.4099 29.4771 21.5499 29.4771 21.5399 29.9171C21.5399 30.8471 21.5399 30.8471 20.5999 30.8471L18.4799 30.897Z" fill="#EF4C23"/>
<path d="M18.4799 21.467C19.3699 21.467 20.2599 21.467 21.1499 21.467C21.4199 21.467 21.4999 21.547 21.5099 21.827C21.5099 22.827 21.5099 22.827 20.5099 22.827C18.9599 22.827 17.3999 22.827 15.8499 22.827C15.4799 22.827 15.3499 22.757 15.3599 22.357C15.3599 21.457 15.3599 21.457 16.2899 21.457L18.4799 21.467Z" fill="#EF4C23"/>
<path d="M18.4799 24.177C19.3699 24.177 20.2599 24.177 21.1499 24.177C21.4199 24.177 21.5099 24.237 21.5099 24.517C21.5099 25.517 21.5099 25.517 20.5099 25.517C18.9499 25.517 17.3999 25.517 15.8399 25.517C15.4999 25.517 15.4099 25.427 15.4099 25.087C15.4099 24.147 15.4099 24.147 16.3399 24.147L18.4799 24.177Z" fill="#EF4C23"/>
<path d="M20.81 4.04702C20.03 4.04702 19.25 4.04702 18.47 4.04702C18.2 4.04702 18.12 3.96702 18.12 3.69702C18.12 2.69702 18.12 2.69702 19.12 2.69702C20.45 2.69702 21.78 2.69702 23.12 2.69702C23.45 2.69702 23.53 2.79702 23.52 3.10702C23.52 4.10702 23.52 4.10702 22.58 4.10702L20.81 4.04702Z" fill="#EF4C23"/>
<path d="M25.42 2.67708C26.21 2.67708 26.21 2.67707 26.21 3.45707C26.21 4.04707 26.21 4.04707 25.42 4.04707C24.84 4.04707 24.89 4.04708 24.83 3.25708C24.74 2.65708 25.06 2.60708 25.42 2.67708Z" fill="#EF4C23"/>
<path d="M22.14 38.957H19.81C19.56 38.957 19.47 38.887 19.46 38.627C19.46 37.577 19.46 37.577 20.46 37.577C21.81 37.577 23.15 37.577 24.46 37.577C24.72 37.577 24.82 37.627 24.82 37.917C24.82 38.917 24.82 38.917 23.82 38.917L22.14 38.957Z" fill="#EF4C23"/>
<path d="M14.6599 37.587C15.4699 37.587 15.4799 37.587 15.4699 38.307C15.4599 39.027 15.5699 38.957 14.6899 38.957C13.9799 38.957 14.1399 39.077 14.0699 38.137C14.0099 37.487 14.3799 37.567 14.6599 37.587Z" fill="#EF4C23"/>
<path d="M30.22 38.117C30.22 38.957 30.22 38.957 29.44 38.957C28.85 38.957 28.85 38.957 28.85 38.127C28.85 37.587 28.85 37.647 29.68 37.577C30.51 37.507 30.22 37.907 30.22 38.117Z" fill="#EF4C23"/>
</svg>
