<svg width="35" height="42" viewBox="0 0 35 42" fill="none" xmlns="http://www.w3.org/2000/svg">
<path d="M27.5774 20.3595C27.5774 21.8995 27.6674 23.3595 27.7974 24.8395C27.9915 26.9844 28.3526 29.1108 28.8774 31.1995C28.9283 31.3961 28.908 31.6043 28.8202 31.7873C28.7323 31.9703 28.5825 32.1163 28.3974 32.1995C27.4347 32.8043 26.588 33.5765 25.8974 34.4795C24.8619 35.8706 24.2789 37.5462 24.2274 39.2795C24.2274 40.0095 24.1074 40.0995 23.4274 40.3795C21.4052 41.2207 19.2264 41.6196 17.0374 41.5495C15.0267 41.4685 13.049 41.0106 11.2074 40.1995C10.7874 40.0295 10.7274 39.6795 10.7074 39.2895C10.6821 38.1335 10.4155 36.9955 9.92468 35.9485C9.43389 34.9015 8.72975 33.9685 7.85738 33.2095C7.42738 32.8295 6.93738 32.4995 6.46738 32.2095C6.30171 32.109 6.17436 31.956 6.10552 31.7748C6.03668 31.5937 6.0303 31.3947 6.08738 31.2095C6.90674 27.8329 7.33952 24.374 7.37738 20.8995C7.37738 20.5195 7.32738 20.4295 6.93738 20.5795C6.11738 20.8795 5.28738 21.1395 4.45738 21.4195C3.83738 21.6195 3.54738 21.4895 3.29738 20.8995L0.117382 13.2295C-0.132618 12.6095 0.00738233 12.2995 0.627382 12.0595L12.1674 7.55954C12.4406 7.41592 12.7558 7.37343 13.0574 7.43954C13.1444 7.45857 13.2345 7.45766 13.3211 7.43687C13.4077 7.41609 13.4885 7.37598 13.5574 7.31954C14.0149 7.03982 14.4098 6.66876 14.7174 6.22954C15.1198 5.59041 15.7367 5.1154 16.4574 4.88954C16.5079 4.88383 16.5567 4.86747 16.6004 4.84155C16.6442 4.81563 16.6819 4.78074 16.7112 4.73917C16.7405 4.6976 16.7606 4.65029 16.7703 4.60037C16.78 4.55045 16.779 4.49904 16.7674 4.44954C16.7674 4.11954 16.7674 3.79954 16.7674 3.44954C16.7543 3.35214 16.7626 3.25308 16.7915 3.15917C16.8204 3.06526 16.8694 2.97873 16.935 2.90555C17.0005 2.83237 17.0812 2.77427 17.1714 2.73525C17.2616 2.69623 17.3591 2.67723 17.4574 2.67954C17.8174 2.67954 18.0574 2.49954 18.0874 2.12954C18.1133 1.97527 18.0819 1.81683 17.999 1.68417C17.9161 1.55151 17.7874 1.45382 17.6374 1.40954C17.5603 1.37849 17.4774 1.36437 17.3943 1.36816C17.3113 1.37194 17.23 1.39353 17.1561 1.43146C17.0821 1.4694 17.0171 1.52279 16.9656 1.58802C16.9141 1.65325 16.8772 1.7288 16.8574 1.80954C16.8491 1.84841 16.8332 1.88526 16.8105 1.91792C16.7879 1.95059 16.759 1.97843 16.7255 1.99983C16.692 2.02123 16.6546 2.03576 16.6154 2.04258C16.5763 2.0494 16.5361 2.04836 16.4974 2.03954H16.2074C15.3674 2.03954 15.2074 1.79954 15.6774 1.03954C15.8822 0.66535 16.2014 0.366473 16.5882 0.186562C16.975 0.00665088 17.4092 -0.0448669 17.8274 0.0395395C18.2259 0.123772 18.5908 0.323136 18.877 0.612896C19.1632 0.902656 19.3581 1.27006 19.4374 1.66954C19.5299 2.07702 19.4884 2.50347 19.319 2.88546C19.1497 3.26744 18.8615 3.58453 18.4974 3.78954C18.2674 3.92954 18.1274 4.03954 18.1274 4.33954C18.1274 4.63954 18.2074 4.81954 18.5374 4.90954C19.1818 5.10907 19.7346 5.53074 20.0974 6.09954C20.3832 6.47719 20.7197 6.81368 21.0974 7.09954C21.2214 7.23505 21.3803 7.3338 21.5567 7.38496C21.7331 7.43611 21.9201 7.4377 22.0974 7.38954C22.2888 7.35454 22.4865 7.38631 22.6574 7.47954L34.3774 12.0495C34.9674 12.2795 35.0974 12.5895 34.8474 13.1895C33.7874 15.7695 32.7207 18.3429 31.6474 20.9095C31.624 21.0229 31.5744 21.1292 31.5026 21.2199C31.4307 21.3107 31.3385 21.3833 31.2335 21.4319C31.1284 21.4805 31.0135 21.5038 30.8978 21.4999C30.7821 21.4961 30.6689 21.4651 30.5674 21.4095L27.5774 20.3595ZM10.3474 9.72954C10.2876 9.72222 10.2272 9.72222 10.1674 9.72954C7.41738 10.7995 4.67738 11.8695 1.92738 12.9195C1.46738 13.0895 1.77738 13.3195 1.81738 13.5195C1.90738 13.8895 2.09738 13.6395 2.23738 13.5695C2.56203 13.4169 2.91376 13.3302 3.27217 13.3145C3.63058 13.2988 3.98855 13.3544 4.32529 13.4781C4.66204 13.6018 4.97087 13.7912 5.23387 14.0352C5.49687 14.2792 5.7088 14.573 5.85738 14.8995C6.13866 15.5279 6.17123 16.2395 5.94854 16.8908C5.72584 17.5422 5.26445 18.0849 4.65738 18.4095C4.44738 18.5195 4.06738 18.5095 4.02738 18.7395C3.98738 18.9695 4.19738 19.2195 4.28738 19.4595C4.31148 19.5009 4.33157 19.5444 4.34738 19.5895C4.39738 19.8295 4.54738 19.8395 4.74738 19.7795C5.52738 19.5095 6.30738 19.2295 7.08738 18.9795C7.36738 18.8995 7.42738 18.7595 7.41738 18.4895C7.36418 17.5774 7.2371 16.6711 7.03738 15.7795C6.80738 14.8595 6.80738 14.8695 7.72738 14.5695C8.02738 14.4695 8.11738 14.5695 8.19738 14.8295C8.55571 15.9247 8.74785 17.0674 8.76738 18.2195C8.91323 21.269 8.74232 24.3254 8.25738 27.3395C8.14154 27.6631 8.15856 28.0195 8.30474 28.3305C8.45091 28.6416 8.71433 28.8822 9.03738 28.9995C9.27738 29.1195 9.37738 29.0995 9.54738 28.9195C10.015 28.4372 10.6467 28.1482 11.3174 28.1095C11.8797 28.0824 12.4365 28.2303 12.9112 28.533C13.3858 28.8357 13.7549 29.2782 13.9674 29.7995C14.1804 30.3401 14.2147 30.9346 14.0653 31.496C13.916 32.0574 13.5908 32.5563 13.1374 32.9195C12.9674 33.0595 12.8674 33.1295 13.0074 33.3695C14.1077 35.2714 14.7257 37.4138 14.8074 39.6095C14.8074 39.8295 14.8774 39.9295 15.0974 39.9595C16.6856 40.2345 18.3092 40.2345 19.8974 39.9595C20.1174 39.9595 20.2174 39.8395 20.1874 39.6095C20.1574 39.3795 19.9474 39.5095 19.8374 39.5195C19.2574 39.5857 18.6715 39.4627 18.167 39.169C17.6625 38.8753 17.2663 38.4266 17.0374 37.8895C16.8173 37.3609 16.7724 36.7756 16.9091 36.2195C17.0459 35.6635 17.3572 35.1658 17.7974 34.7995C18.2275 34.4093 18.7776 34.1769 19.3573 34.1405C19.937 34.1042 20.5118 34.2661 20.9874 34.5995C21.2774 34.7895 21.3474 34.6995 21.4674 34.4495C22.5679 32.0078 24.3759 29.9524 26.6574 28.5495C26.7427 28.512 26.8113 28.4444 26.85 28.3595C26.8887 28.2747 26.8949 28.1786 26.8674 28.0895C26.6375 26.8941 26.4872 25.6848 26.4174 24.4695C26.4174 24.1795 26.2974 24.1095 26.0074 24.0895C25.3471 24.0334 24.7306 23.7364 24.2751 23.2551C23.8197 22.7738 23.5571 22.1419 23.5374 21.4795C23.5224 20.8156 23.7546 20.1697 24.1888 19.6671C24.6229 19.1646 25.2283 18.8412 25.8874 18.7595C26.1874 18.7595 26.2474 18.6495 26.2574 18.3595C26.2778 17.3471 26.4154 16.3404 26.6674 15.3595C26.9174 14.3595 26.9174 14.4195 27.8574 14.7495C28.1274 14.8395 28.2374 14.9295 28.1374 15.2595C27.8275 16.3173 27.6462 17.4084 27.5974 18.5095C27.5768 18.6182 27.5999 18.7306 27.6617 18.8224C27.7235 18.9141 27.8189 18.9778 27.9274 18.9995C28.7174 19.2395 29.4974 19.5195 30.2774 19.7795C30.4774 19.8495 30.5874 19.7795 30.6774 19.5995C31.5374 17.5095 32.3974 15.4395 33.2674 13.3595C33.3674 13.1295 33.3574 13.0295 33.0974 12.9395C32.5274 12.7395 31.9774 12.5195 31.4174 12.2895C31.343 12.2451 31.254 12.2317 31.1698 12.2523C31.0856 12.2729 31.0129 12.3258 30.9674 12.3995C30.6472 12.8036 30.212 13.1012 29.7193 13.2529C29.2266 13.4047 28.6994 13.4035 28.2074 13.2495C27.6988 13.1509 27.2373 12.8864 26.8953 12.4973C26.5532 12.1082 26.35 11.6166 26.3174 11.0995C26.3174 10.2495 25.8174 10.0995 25.2274 9.87954C25.181 9.88638 25.1338 9.88638 25.0874 9.87954C24.7574 9.67954 24.6474 9.75954 24.6174 10.1495C24.4993 11.7837 23.8211 13.3272 22.6974 14.5195C21.9147 15.3456 20.9457 15.9724 19.8713 16.3475C18.7969 16.7225 17.6484 16.835 16.5217 16.6754C15.3949 16.5159 14.3228 16.0889 13.3948 15.4303C12.4668 14.7717 11.7099 13.9005 11.1874 12.8895C10.7016 11.902 10.4161 10.828 10.3474 9.72954ZM17.5874 10.0495C16.3879 10.0669 15.2224 10.4508 14.2474 11.1495C14.0674 11.2495 14.1374 11.3495 14.2474 11.4595C14.5749 12.0371 15.0506 12.5168 15.6255 12.849C16.2003 13.1813 16.8534 13.3541 17.5174 13.3495C18.1858 13.3563 18.8439 13.1847 19.4239 12.8525C20.004 12.5203 20.485 12.0395 20.8174 11.4595C20.8974 11.3295 20.9474 11.2395 20.7674 11.1495C19.8322 10.4905 18.7299 10.1092 17.5874 10.0495ZM17.4674 5.97954C17.1817 5.98802 16.902 6.06292 16.6503 6.19831C16.3986 6.3337 16.1819 6.52585 16.0174 6.75954C15.4814 7.53464 14.7728 8.17476 13.9474 8.62954C13.7815 8.74353 13.6634 8.91454 13.6154 9.11C13.5675 9.30547 13.5931 9.51174 13.6874 9.68954C13.9274 9.97954 14.1274 9.54954 14.3774 9.52954C14.3774 9.52954 14.3774 9.52954 14.4574 9.52954C15.1644 9.11493 15.9488 8.84957 16.7623 8.74981C17.5758 8.65006 18.4012 8.71803 19.1874 8.94954C19.8017 9.15866 20.3945 9.42657 20.9574 9.74954C21.0574 9.74954 21.1574 9.94954 21.2874 9.74954C21.3612 9.56233 21.3769 9.35718 21.3323 9.16093C21.2877 8.96467 21.1849 8.78644 21.0374 8.64954C20.197 8.1917 19.4746 7.54465 18.9274 6.75954C18.7624 6.52395 18.5443 6.33055 18.2906 6.19503C18.0369 6.05951 17.7549 5.98569 17.4674 5.97954ZM21.5874 39.1295C21.6874 39.2295 21.4574 39.4995 21.6874 39.4695C22.0525 39.3944 22.4058 39.2699 22.7374 39.0995C22.9574 38.9995 22.8674 38.7595 22.8874 38.5795C23.0165 37.2361 23.4237 35.9343 24.083 34.7568C24.7424 33.5792 25.6395 32.5517 26.7174 31.7395C27.4574 31.1595 27.4474 31.1695 27.2474 30.2595C27.1574 29.8795 27.0574 29.8795 26.7674 30.0895C25.2984 31.1289 24.0739 32.4762 23.1792 34.0376C22.2845 35.5989 21.7413 37.3366 21.5874 39.1295ZM13.3974 39.5295C13.3161 37.4992 12.7171 35.5233 11.6574 33.7895C10.7669 32.3132 9.57411 31.0421 8.15738 30.0595C7.93738 29.8995 7.83738 29.8495 7.75738 30.1895C7.51738 31.1895 7.49738 31.1895 8.28738 31.7495C8.42738 31.8595 8.56738 31.9595 8.69738 32.0795C9.67574 32.9102 10.4799 33.9264 11.0635 35.0695C11.647 36.2126 11.9984 37.4599 12.0974 38.7395C12.0938 38.8433 12.1255 38.9453 12.1872 39.0288C12.2489 39.1123 12.3371 39.1725 12.4374 39.1995L13.3974 39.5295ZM17.7674 15.3495C18.6043 15.3179 19.4231 15.0972 20.1626 14.7041C20.9021 14.3109 21.543 13.7556 22.0374 13.0795C22.8222 12.0129 23.2461 10.7237 23.2474 9.39954C23.2474 9.12954 23.0974 9.05954 22.9074 9.01954C22.7174 8.97954 22.7174 9.22954 22.6974 9.34954C22.6374 9.64954 22.6174 9.95954 22.5774 10.2695C22.4293 11.3345 21.9528 12.3267 21.2144 13.1082C20.4759 13.8896 19.5122 14.4214 18.4574 14.6295C17.4121 14.8187 16.334 14.6856 15.3661 14.2481C14.3981 13.8106 13.586 13.0892 13.0374 12.1795C12.5617 11.2837 12.2918 10.2929 12.2474 9.27954C12.2474 9.16954 12.2474 8.93954 12.0474 8.99954C11.8474 9.05954 11.6774 9.07954 11.7074 9.32954C11.7374 9.57954 11.7074 9.78954 11.7674 10.0095C11.8851 11.5019 12.5752 12.891 13.6934 13.8862C14.8117 14.8815 16.2714 15.4058 17.7674 15.3495ZM19.4874 38.1695C19.6084 38.1913 19.7327 38.1865 19.8516 38.1555C19.9706 38.1245 20.0814 38.0681 20.1765 37.9902C20.2716 37.9122 20.3486 37.8146 20.4023 37.704C20.4559 37.5934 20.485 37.4725 20.4874 37.3495C20.5159 37.1415 20.5662 36.9371 20.6374 36.7395C20.7067 36.5809 20.7165 36.4026 20.6651 36.2374C20.6137 36.0721 20.5044 35.9308 20.3574 35.8395C20.143 35.652 19.8722 35.5413 19.5878 35.525C19.3035 35.5087 19.0218 35.5877 18.7874 35.7495C18.5419 35.9102 18.3555 36.1464 18.2562 36.4225C18.157 36.6985 18.1504 36.9994 18.2374 37.2795C18.3308 37.5372 18.5004 37.7604 18.7236 37.9194C18.9469 38.0784 19.2133 38.1656 19.4874 38.1695ZM3.38738 14.7295C2.60738 14.7295 2.38738 15.0395 2.71738 15.7295C2.91738 16.1895 3.11738 16.6495 3.29738 17.1195C3.38738 17.3595 3.48738 17.3995 3.72738 17.3295C4.04802 17.251 4.32797 17.0559 4.51279 16.7824C4.69762 16.5088 4.77411 16.1763 4.72738 15.8495C4.67878 15.5317 4.51581 15.2425 4.26908 15.0363C4.02235 14.83 3.70883 14.721 3.38738 14.7295ZM12.7874 30.8395C12.7851 30.5783 12.7087 30.3231 12.567 30.1036C12.4254 29.8841 12.2244 29.7093 11.9874 29.5995C11.7568 29.4934 11.5 29.4577 11.2492 29.4968C10.9984 29.5359 10.7647 29.6482 10.5774 29.8195C10.3874 29.9795 10.3774 30.0995 10.5774 30.2795C10.9674 30.6495 11.3174 31.0595 11.6874 31.4395C11.8474 31.6095 11.8974 31.9495 12.1874 31.8895C12.4774 31.8295 12.5874 31.5195 12.6874 31.2695C12.73 31.1285 12.7634 30.9849 12.7874 30.8395ZM26.2474 21.4295C26.2474 21.0895 26.2474 20.7495 26.2474 20.4295C26.2474 20.1095 26.1274 20.0895 25.8774 20.1695C25.5911 20.2498 25.3388 20.421 25.1584 20.6574C24.978 20.8937 24.8794 21.1823 24.8774 21.4795C24.894 21.7647 24.9993 22.0375 25.1786 22.2598C25.3579 22.4822 25.6022 22.6429 25.8774 22.7195C26.1174 22.7895 26.2274 22.7195 26.2074 22.4595C26.1874 22.1995 26.2474 21.7695 26.2474 21.4295ZM29.6974 11.6795C29.0174 11.3395 28.3274 11.1295 27.6074 10.8495C27.6355 11.0908 27.7311 11.3191 27.8832 11.5084C28.0354 11.6977 28.2379 11.8402 28.4674 11.9195C28.6725 12.0095 28.9001 12.0347 29.1199 11.9918C29.3397 11.9489 29.5412 11.84 29.6974 11.6795Z" fill="#EF4C23"/>
<path d="M19.5274 29.4696C19.1743 29.4762 18.8234 29.4127 18.4949 29.2827C18.1665 29.1528 17.8672 28.9589 17.6142 28.7124C17.3612 28.466 17.1596 28.1718 17.0211 27.8468C16.8827 27.5219 16.81 27.1727 16.8074 26.8196C16.7993 26.4618 16.8635 26.1061 16.996 25.7738C17.1286 25.4414 17.3269 25.1392 17.5789 24.8853C17.831 24.6313 18.1317 24.4309 18.4631 24.2959C18.7945 24.1608 19.1497 24.0941 19.5074 24.0996C19.8611 24.0969 20.2117 24.1643 20.5392 24.2978C20.8666 24.4313 21.1644 24.6283 21.4154 24.8774C21.6664 25.1265 21.8656 25.4229 22.0015 25.7493C22.1375 26.0758 22.2075 26.4259 22.2074 26.7796C22.2088 27.1323 22.1404 27.4819 22.0063 27.8082C21.8722 28.1345 21.675 28.4311 21.426 28.6811C21.177 28.931 20.8812 29.1293 20.5554 29.2646C20.2295 29.3999 19.8802 29.4696 19.5274 29.4696ZM19.5274 25.4696C19.3528 25.4709 19.1801 25.5066 19.0192 25.5746C18.8584 25.6427 18.7125 25.7417 18.5899 25.8662C18.4673 25.9906 18.3705 26.138 18.3048 26.2998C18.2392 26.4617 18.2061 26.6349 18.2074 26.8096C18.2101 27.1535 18.3479 27.4827 18.5911 27.7259C18.8343 27.9691 19.1635 28.1069 19.5074 28.1096C19.8589 28.1073 20.1961 27.9701 20.4492 27.7263C20.7023 27.4825 20.8521 27.1507 20.8674 26.7996C20.8597 26.4432 20.7132 26.1038 20.4593 25.8536C20.2054 25.6034 19.8639 25.4621 19.5074 25.4596L19.5274 25.4696Z" fill="#EF4C23"/>
<path d="M12.7875 22.7496C12.4349 22.755 12.0848 22.6896 11.7579 22.5575C11.431 22.4253 11.1339 22.229 10.884 21.9801C10.6342 21.7313 10.4368 21.4349 10.3034 21.1084C10.1701 20.782 10.1034 20.4322 10.1075 20.0796C10.102 19.7218 10.1688 19.3666 10.3038 19.0352C10.4388 18.7039 10.6393 18.4032 10.8932 18.1511C11.1472 17.899 11.4494 17.7007 11.7817 17.5682C12.1141 17.4356 12.4698 17.3715 12.8275 17.3796C13.1803 17.3822 13.5291 17.4544 13.8539 17.5922C14.1787 17.7299 14.4731 17.9304 14.7203 18.1822C14.9674 18.434 15.1624 18.7321 15.2941 19.0594C15.4257 19.3867 15.4914 19.7368 15.4875 20.0896C15.4875 20.4423 15.4174 20.7915 15.2813 21.1169C15.1451 21.4422 14.9456 21.7372 14.6943 21.9848C14.443 22.2323 14.1451 22.4274 13.8177 22.5587C13.4904 22.69 13.1402 22.7549 12.7875 22.7496ZM12.7875 21.3896C13.1386 21.3818 13.4728 21.2375 13.7193 20.9873C13.9657 20.7371 14.105 20.4008 14.1075 20.0496C14.092 19.6994 13.9419 19.3687 13.6885 19.1265C13.4352 18.8843 13.098 18.7492 12.7475 18.7496C12.4018 18.7549 12.0722 18.8966 11.8306 19.1438C11.5889 19.3911 11.4548 19.7239 11.4575 20.0696C11.4561 20.2459 11.4902 20.4206 11.558 20.5834C11.6257 20.7462 11.7256 20.8936 11.8516 21.0169C11.9777 21.1401 12.1273 21.2367 12.2915 21.3007C12.4558 21.3647 12.6313 21.395 12.8075 21.3896H12.7875Z" fill="#EF4C23"/>
</svg>
