<svg width="44" height="42" viewBox="0 0 44 42" fill="none" xmlns="http://www.w3.org/2000/svg">
<path d="M42.9899 39.0263V39.3263C42.8351 39.9637 42.8351 40.6289 42.9899 41.2663C42.9899 41.9463 42.9899 41.9463 42.3099 41.9463H0.459938C0.268383 41.7104 0.144016 41.4271 0.0999376 41.1263C0.0451383 40.4942 0.0451383 39.8585 0.0999376 39.2263C0.146653 38.7658 0.329499 38.3296 0.625153 37.9734C0.920806 37.6172 1.31587 37.3571 1.75994 37.2263C2.15994 37.0963 2.20994 36.9063 2.20994 36.5463C2.20994 30.1197 2.20994 23.693 2.20994 17.2663C2.20994 16.7663 2.06994 16.6563 1.59994 16.6763C1.3844 16.7004 1.16621 16.6755 0.961655 16.6035C0.757095 16.5314 0.571452 16.4141 0.418579 16.2603C0.265707 16.1065 0.149555 15.9201 0.0787966 15.7151C0.0080383 15.5101 -0.0154979 15.2917 0.00994128 15.0763V5.53634C-0.0154979 5.32096 0.0080383 5.10262 0.0787966 4.89762C0.149555 4.69261 0.265707 4.50623 0.418579 4.3524C0.571452 4.19856 0.757095 4.08125 0.961655 4.0092C1.16621 3.93716 1.3844 3.91225 1.59994 3.93634C2.24994 3.93634 2.89994 3.93634 3.59994 3.93634C3.74749 3.9589 3.89818 3.92657 4.0235 3.84548C4.14882 3.7644 4.24005 3.64018 4.27994 3.49634C4.69994 2.49634 5.17994 1.49634 5.62994 0.496341C5.68385 0.337474 5.79083 0.202023 5.93289 0.112781C6.07495 0.0235383 6.24341 -0.0140462 6.40993 0.006343C16.4766 0.006343 26.5533 0.006343 36.6399 0.006343C36.8132 -0.0163355 36.989 0.0222137 37.1369 0.115329C37.2848 0.208444 37.3955 0.350281 37.4499 0.516345C37.8899 1.51635 38.3599 2.51635 38.7799 3.51635C38.9199 3.84635 39.0699 4.00634 39.4499 3.97634C39.8299 3.94634 40.3999 3.97634 40.8599 3.97634C41.2727 3.88747 41.703 3.93152 42.0892 4.10217C42.4754 4.27282 42.7977 4.56131 43.0099 4.92634V15.8263C42.853 16.1378 42.606 16.395 42.3011 16.5644C41.9962 16.7338 41.6473 16.8076 41.2999 16.7763C40.8499 16.7163 40.8099 16.9263 40.8199 17.2963C40.8199 23.7563 40.8199 30.213 40.8199 36.6663V37.0063C40.8199 37.1063 40.8199 37.1963 40.9699 37.2263C41.431 37.328 41.8559 37.5528 42.1993 37.8768C42.5427 38.2009 42.7917 38.6119 42.9199 39.0663C42.9199 39.0663 42.9599 39.0163 42.9899 39.0263ZM21.4599 40.8663H40.6999C41.6499 40.8663 41.6499 40.8663 41.6399 39.8663C41.6299 38.8663 41.2099 38.3663 40.1299 38.3663H31.1299C30.9371 38.3862 30.7428 38.3862 30.5499 38.3663C30.4105 38.3421 30.2847 38.2677 30.1963 38.1572C30.1079 38.0467 30.063 37.9077 30.0699 37.7663C30.0628 37.6271 30.1036 37.4897 30.1855 37.3769C30.2673 37.2641 30.3854 37.1827 30.5199 37.1463C30.6957 37.1212 30.8742 37.1212 31.0499 37.1463C33.6999 37.1463 36.3399 37.1463 38.9899 37.1463C39.3499 37.1463 39.4599 37.0663 39.4499 36.6863C39.4499 35.3463 39.4499 33.9963 39.4499 32.6863C39.4499 32.2963 39.3699 32.1863 38.9599 32.1863H24.1499C23.1499 32.1863 22.7699 31.7963 22.7699 30.7963V22.6663C22.7699 21.5563 23.1299 21.1963 24.2599 21.1963H39.0099C39.3799 21.1963 39.5099 21.1363 39.4999 20.7363C39.4999 19.5863 39.4999 18.4263 39.4999 17.2763C39.4999 16.8663 39.3999 16.7763 38.9999 16.7763H23.2199C22.5299 16.7763 22.1699 16.5463 22.2199 16.1063C22.2699 15.6663 22.5599 15.4563 23.2199 15.4563H41.4599C41.5899 15.4563 41.6899 15.3863 41.6899 15.2463C41.748 14.8158 41.7243 14.3781 41.6199 13.9563C41.5299 13.7463 41.0299 13.9563 40.7099 13.8863H40.4599C40.3743 13.8909 40.2886 13.8771 40.2087 13.8458C40.1289 13.8145 40.0566 13.7664 39.9969 13.7048C39.9372 13.6432 39.8914 13.5695 39.8626 13.4887C39.8338 13.4079 39.8227 13.3218 39.8299 13.2363C39.8253 13.1494 39.8394 13.0624 39.8713 12.9813C39.9031 12.9003 39.9519 12.8269 40.0144 12.7663C40.077 12.7057 40.1518 12.6591 40.2338 12.6298C40.3158 12.6005 40.4031 12.5891 40.4899 12.5963H41.4599C41.5599 12.5963 41.7299 12.6463 41.7299 12.4763C41.8156 12.0304 41.8156 11.5723 41.7299 11.1263C41.6399 10.8663 41.1499 11.0663 40.8399 11.0263C40.7901 11.0213 40.7398 11.0213 40.6899 11.0263C40.1699 11.0263 39.8999 10.7663 39.9099 10.3563C39.9199 9.94635 40.1899 9.72633 40.7199 9.71633H41.4599C41.5799 9.71633 41.6999 9.71635 41.6899 9.55635C41.7422 9.10892 41.7186 8.65588 41.6199 8.21634C41.5299 7.99634 40.9899 8.21634 40.6199 8.14634C40.5099 8.14634 40.3899 8.14634 40.2799 8.14634C40.1344 8.1175 40.0044 8.03661 39.9142 7.9188C39.824 7.801 39.7798 7.65436 39.7899 7.50634C39.7833 7.35825 39.8318 7.21296 39.926 7.09848C40.0201 6.984 40.1534 6.90843 40.2999 6.88634C40.4297 6.87635 40.5601 6.87635 40.6899 6.88634C41.6899 6.88634 41.6899 6.88635 41.6899 5.94635C41.6899 5.31635 41.6899 5.31634 41.0599 5.31634H1.54993C1.39993 5.31634 1.29994 5.37634 1.30994 5.54634C1.24 5.95864 1.25703 6.38101 1.35994 6.78634C1.48994 7.03634 2.01994 6.78634 2.35994 6.87634H2.49994C2.66968 6.87634 2.83246 6.94377 2.95248 7.06379C3.07251 7.18382 3.13994 7.34661 3.13994 7.51635C3.13994 7.68608 3.07251 7.84887 2.95248 7.96889C2.83246 8.08891 2.66968 8.15634 2.49994 8.15634C2.16994 8.15634 1.84994 8.15634 1.49994 8.15634C1.35994 8.15634 1.24994 8.15634 1.24994 8.35634C1.18586 8.78332 1.20968 9.2189 1.31994 9.63635C1.43994 9.88635 1.96994 9.69634 2.31994 9.72634H2.41994C2.80994 9.72634 3.11994 9.92634 3.11994 10.3763C3.11994 10.8263 2.81994 11.0063 2.41994 11.0263C2.12695 11.0463 1.83293 11.0463 1.53994 11.0263C1.29994 11.0263 1.23994 11.1063 1.24994 11.3363C1.24994 11.7363 1.12994 12.2263 1.31994 12.5163C1.50994 12.8063 2.00994 12.5763 2.37994 12.6063C2.47633 12.596 2.57355 12.596 2.66994 12.6063C2.80449 12.6427 2.92254 12.7241 3.00441 12.8369C3.08628 12.9497 3.12706 13.0871 3.11994 13.2263C3.12764 13.3675 3.08443 13.5066 2.99818 13.6186C2.91192 13.7305 2.78835 13.8078 2.64994 13.8363C2.50702 13.8518 2.36286 13.8518 2.21994 13.8363C1.21994 13.8363 1.27994 13.8363 1.21994 14.8363C1.21994 15.3163 1.36994 15.4163 1.81994 15.4163H19.4599C19.6398 15.4064 19.8201 15.4064 19.9999 15.4163C20.1574 15.4291 20.3035 15.5035 20.4065 15.6233C20.5094 15.7431 20.561 15.8987 20.5499 16.0563C20.5584 16.2133 20.5059 16.3676 20.4035 16.4868C20.301 16.606 20.1564 16.6811 19.9999 16.6963C19.8403 16.7115 19.6796 16.7115 19.5199 16.6963H4.18994C3.53994 16.6963 3.53994 16.6963 3.53994 17.3663V29.0563C3.53994 31.583 3.53994 34.113 3.53994 36.6463C3.53994 36.9863 3.61994 37.0963 3.96994 37.0763C4.53607 37.0414 5.10381 37.0414 5.66994 37.0763C6.06994 37.0763 6.17994 36.9763 6.17994 36.5663C6.17994 31.9763 6.17994 27.3863 6.17994 22.7863C6.15161 22.555 6.17686 22.3202 6.25375 22.1002C6.33064 21.8801 6.4571 21.6807 6.62336 21.5174C6.78962 21.354 6.99122 21.2311 7.21258 21.1581C7.43393 21.0851 7.66912 21.0639 7.89994 21.0963H16.9999C18.3199 21.0963 18.8599 21.6263 18.8599 22.9463C18.8599 27.4863 18.8599 32.0263 18.8599 36.5763C18.8599 36.9863 18.9699 37.0763 19.3699 37.0763C22.0799 37.0763 24.7899 37.0763 27.4999 37.0763C27.6297 37.0663 27.7601 37.0663 27.8899 37.0763C28.0544 37.0763 28.2121 37.1417 28.3283 37.2579C28.4446 37.3742 28.5099 37.5319 28.5099 37.6963C28.5182 37.7784 28.5095 37.8612 28.4843 37.9397C28.4592 38.0182 28.4181 38.0907 28.3637 38.1526C28.3092 38.2146 28.2426 38.2646 28.168 38.2997C28.0934 38.3347 28.0124 38.354 27.9299 38.3563C27.7536 38.3715 27.5763 38.3715 27.3999 38.3563C19.3999 38.3563 11.3999 38.3563 3.33994 38.3563C1.86994 38.3563 1.33994 38.7063 1.38994 40.3563C1.38994 40.7763 1.48994 40.8863 1.91994 40.8863L21.4599 40.8663ZM7.45994 29.7763C7.45994 32.0463 7.45994 34.3163 7.45994 36.5863C7.45994 36.9663 7.51994 37.1063 7.94994 37.1063C11.0199 37.1063 14.0799 37.1063 17.1499 37.1063C17.5399 37.1063 17.6199 36.9863 17.6199 36.6163C17.6199 32.0763 17.6199 27.5397 17.6199 23.0063C17.6199 22.5263 17.4699 22.3863 17.0099 22.3863C14.0166 22.3863 11.0166 22.3863 8.00994 22.3863C7.56994 22.3863 7.40993 22.5163 7.40993 22.9663C7.45993 25.2363 7.45994 27.5363 7.45994 29.7763ZM31.8399 22.3963C29.4099 22.3963 26.9799 22.3963 24.5399 22.3963C24.1999 22.3963 24.1099 22.4863 24.1099 22.8263C24.1099 25.353 24.1099 27.883 24.1099 30.4163C24.1099 30.7563 24.2099 30.8463 24.5499 30.8463C29.3966 30.8463 34.2466 30.8463 39.0999 30.8463C39.4399 30.8463 39.5299 30.7463 39.5299 30.4163C39.5299 27.883 39.5299 25.353 39.5299 22.8263C39.5299 22.4763 39.4299 22.3963 39.0999 22.3963C36.6499 22.4063 34.2299 22.3963 31.8099 22.3963H31.8399ZM5.45994 3.88634H37.5099C37.1599 3.11634 36.7899 2.39634 36.5099 1.63634C36.4645 1.4459 36.3482 1.27993 36.1847 1.17219C36.0212 1.06445 35.8229 1.02302 35.6299 1.05634C26.2033 1.05634 16.7733 1.05634 7.33994 1.05634H6.99994C6.91388 1.03818 6.82412 1.05408 6.74953 1.1007C6.67495 1.14731 6.62133 1.22102 6.59994 1.30634C6.25994 2.16634 5.87994 3.00634 5.45994 3.88634Z" fill="#EF4C23"/>
<path d="M42.9899 41.2663C42.8351 40.6289 42.8351 39.9637 42.9899 39.3263V41.2663Z" fill="#EF4C23"/>
<path d="M29.6499 10.2964C29.6558 10.8819 29.4873 11.456 29.1659 11.9455C28.8445 12.435 28.3847 12.8177 27.8451 13.045C27.3054 13.2723 26.7103 13.3339 26.1355 13.2218C25.5608 13.1098 25.0324 12.8292 24.6176 12.4158C24.2028 12.0025 23.9205 11.475 23.8065 10.9007C23.6924 10.3263 23.752 9.73099 23.9774 9.19056C24.2028 8.65012 24.584 8.18901 25.0724 7.86593C25.5608 7.54286 26.1343 7.37244 26.7198 7.37638C27.1049 7.37238 27.4869 7.44512 27.8435 7.59032C28.2001 7.73553 28.5243 7.9503 28.797 8.22211C29.0698 8.49392 29.2856 8.81733 29.4321 9.17347C29.5785 9.5296 29.6525 9.91132 29.6499 10.2964ZM25.0498 10.2964C25.032 10.5259 25.0619 10.7566 25.1375 10.974C25.2131 11.1914 25.3328 11.3909 25.4892 11.5598C25.6455 11.7287 25.8351 11.8635 26.046 11.9557C26.257 12.0479 26.4847 12.0955 26.7149 12.0955C26.945 12.0955 27.1727 12.0479 27.3837 11.9557C27.5946 11.8635 27.7842 11.7287 27.9405 11.5598C28.0969 11.3909 28.2166 11.1914 28.2922 10.974C28.3678 10.7566 28.3976 10.5259 28.3798 10.2964C28.362 9.86289 28.1792 9.45261 27.8687 9.14957C27.5582 8.84653 27.1436 8.67368 26.7099 8.66639C26.2713 8.66638 25.8506 8.83989 25.5396 9.14904C25.2286 9.45819 25.0525 9.87785 25.0498 10.3164V10.2964Z" fill="#EF4C23"/>
<path d="M32.7499 10.2463C32.7499 10.9963 32.7499 11.7563 32.7499 12.5063C32.7499 13.0363 32.4599 13.3163 32.0199 13.2563C31.9423 13.25 31.8668 13.2284 31.7976 13.1928C31.7284 13.1572 31.6669 13.1082 31.6167 13.0487C31.5665 12.9892 31.5286 12.9204 31.5051 12.8462C31.4816 12.772 31.4731 12.6939 31.4799 12.6163V8.04632C31.4603 7.90683 31.492 7.76496 31.5693 7.64719C31.6466 7.52942 31.7641 7.4438 31.8999 7.40632C32.046 7.35799 32.2043 7.36143 32.3482 7.41606C32.492 7.47069 32.6127 7.57319 32.6899 7.70631C33.3199 8.63631 33.9599 9.54631 34.5999 10.4663C34.7799 10.3763 34.6899 10.2263 34.6899 10.1163C34.6899 9.40632 34.6899 8.69632 34.6899 7.97632C34.6899 7.80923 34.7563 7.64899 34.8744 7.53084C34.9926 7.41269 35.1528 7.34631 35.3199 7.34631C35.487 7.34631 35.6472 7.41269 35.7654 7.53084C35.8835 7.64899 35.9499 7.80923 35.9499 7.97632C35.9499 9.50632 35.9499 11.0263 35.9499 12.5463C35.9557 12.7039 35.9058 12.8585 35.8088 12.9829C35.7119 13.1073 35.5742 13.1935 35.4199 13.2263C35.2692 13.2675 35.109 13.2562 34.9655 13.1945C34.8219 13.1327 34.7036 13.0241 34.6299 12.8863L32.7999 10.2563L32.7499 10.2463Z" fill="#EF4C23"/>
<path d="M9.18987 7.37631C9.76069 7.36171 10.3201 7.53763 10.7799 7.87631C10.8648 7.91584 10.9403 7.97301 11.0015 8.04401C11.0626 8.11501 11.1079 8.19821 11.1344 8.28807C11.1609 8.37794 11.168 8.47242 11.1551 8.56523C11.1422 8.65803 11.1098 8.74702 11.0599 8.8263C10.8399 9.1563 10.4899 9.20631 10.0599 8.95631C9.7432 8.72372 9.35003 8.62007 8.95986 8.66632C8.78986 8.66632 8.60986 8.78632 8.57986 8.99632C8.54986 9.20632 8.73986 9.27631 8.89986 9.34631L10.0599 9.8263C10.4277 9.94045 10.747 10.1741 10.967 10.4902C11.1871 10.8063 11.2954 11.1868 11.2747 11.5714C11.254 11.956 11.1056 12.3227 10.8529 12.6134C10.6003 12.9042 10.2578 13.1022 9.87986 13.1763C9.41643 13.3036 8.92718 13.3029 8.4641 13.1744C8.00102 13.0458 7.58141 12.7942 7.24986 12.4463C7.12654 12.3296 7.05462 12.1687 7.04993 11.999C7.04524 11.8293 7.10817 11.6646 7.22486 11.5413C7.34156 11.418 7.50247 11.3461 7.67219 11.3414C7.84191 11.3367 8.00653 11.3996 8.12986 11.5163C8.28432 11.6723 8.47054 11.7932 8.67587 11.8709C8.8812 11.9485 9.10084 11.9811 9.31986 11.9663C9.46006 11.9812 9.60104 11.9463 9.71807 11.8677C9.8351 11.7891 9.92071 11.6718 9.95986 11.5363C10.0399 11.2163 9.74986 11.0963 9.51986 10.9963C9.28986 10.8963 8.85986 10.7263 8.51986 10.5963C7.51986 10.2063 7.12986 9.59632 7.27986 8.77632C7.36274 8.34497 7.60569 7.96092 7.95995 7.70125C8.31422 7.44158 8.75358 7.3255 9.18987 7.37631Z" fill="#EF4C23"/>
<path d="M17.6199 12.6063C17.6245 12.749 17.5806 12.8891 17.4952 13.0036C17.4098 13.118 17.288 13.2001 17.1499 13.2363C17.0176 13.2813 16.8735 13.2778 16.7435 13.2266C16.6135 13.1753 16.5059 13.0795 16.4399 12.9563C16.4399 12.9563 16.4399 12.8963 16.4399 12.8663C16.2899 12.6463 16.3299 12.2163 16.0699 12.1763C15.4874 12.1312 14.9023 12.1312 14.3199 12.1763C14.1499 12.1763 14.1699 12.3963 14.1099 12.5163C14.0499 12.6363 13.9599 13.0263 13.7099 13.1663C13.6038 13.2435 13.4761 13.2851 13.3449 13.2851C13.2137 13.2851 13.0859 13.2435 12.9799 13.1663C12.8629 13.076 12.7797 12.9491 12.7434 12.8058C12.7071 12.6626 12.72 12.5114 12.7799 12.3763C12.9999 11.7663 13.2399 11.1663 13.4699 10.5663C13.7999 9.70629 14.1299 8.84629 14.4699 7.98629C14.5164 7.8233 14.6148 7.67992 14.7501 7.57784C14.8855 7.47575 15.0504 7.42053 15.2199 7.42053C15.3894 7.42053 15.5543 7.47575 15.6896 7.57784C15.8249 7.67992 15.9233 7.8233 15.9699 7.98629C16.4999 9.41629 17.0499 10.8563 17.5899 12.2863C17.6098 12.3918 17.6199 12.4989 17.6199 12.6063ZM15.1599 9.6063C15.0658 9.89883 14.9556 10.1859 14.8299 10.4663C14.6699 10.7963 14.8299 10.8163 15.0999 10.8263C15.3699 10.8363 15.6799 10.7663 15.4399 10.3463C15.3399 10.1663 15.2799 9.94629 15.1599 9.62629V9.6063Z" fill="#EF4C23"/>
<path d="M19.5199 10.3563V8.16626C19.5199 7.61626 19.7199 7.38625 20.1599 7.37625C20.5999 7.36625 20.8099 7.62626 20.8099 8.15626C20.8099 9.29626 20.8099 10.4263 20.8099 11.5663C20.8099 11.9163 20.9199 12.0163 21.2499 11.9763C21.4424 11.9512 21.6374 11.9512 21.8299 11.9763C21.9113 11.9774 21.9917 11.9952 22.066 12.0284C22.1404 12.0616 22.2072 12.1096 22.2624 12.1695C22.3176 12.2294 22.36 12.2999 22.3871 12.3767C22.4142 12.4535 22.4253 12.535 22.4199 12.6163C22.4241 12.6979 22.4113 12.7796 22.3823 12.8561C22.3532 12.9325 22.3086 13.0021 22.2513 13.0604C22.1939 13.1187 22.125 13.1644 22.0491 13.1947C21.9731 13.225 21.8916 13.2391 21.8099 13.2363C21.2599 13.2363 20.7099 13.2363 20.1599 13.2363C19.6099 13.2363 19.5299 12.9363 19.5199 12.5263V10.3563Z" fill="#EF4C23"/>
<path d="M9.0799 30.7863V30.1563C9.09935 30.0016 9.17459 29.8594 9.29151 29.7562C9.40843 29.6531 9.55898 29.5962 9.71489 29.5962C9.8708 29.5962 10.0214 29.6531 10.1383 29.7562C10.2552 29.8594 10.3304 30.0016 10.3499 30.1563C10.3799 30.6225 10.3799 31.0902 10.3499 31.5564C10.3518 31.6387 10.3361 31.7205 10.3039 31.7962C10.2717 31.872 10.2237 31.9401 10.1632 31.9959C10.1026 32.0517 10.0309 32.094 9.95273 32.1199C9.87457 32.1459 9.79179 32.1549 9.70989 32.1463C9.62835 32.1537 9.5462 32.1433 9.46901 32.116C9.39182 32.0888 9.32142 32.0452 9.26259 31.9882C9.20376 31.9313 9.15788 31.8624 9.12808 31.7861C9.09828 31.7099 9.08525 31.6281 9.08989 31.5463C9.08989 31.3063 9.08989 31.0663 9.08989 30.8263L9.0799 30.7863Z" fill="#EF4C23"/>
</svg>
