<svg width="43" height="43" viewBox="0 0 43 43" fill="none" xmlns="http://www.w3.org/2000/svg">
<path d="M22.36 0.00999451C23.7093 2.99271 24.7384 6.11016 25.43 9.31C26.3118 13.1741 26.6484 17.1426 26.43 21.1C26.386 22.0868 26.2723 23.0692 26.09 24.04C26.24 24.12 26.31 23.98 26.39 23.9C28.7248 21.5305 31.3888 19.5097 34.3 17.9C36.5484 16.6291 38.9124 15.5744 41.36 14.75C41.574 14.6469 41.8158 14.6164 42.0487 14.6634C42.2815 14.7103 42.4927 14.832 42.65 15.01C42.8148 15.1906 42.9166 15.4199 42.9401 15.6633C42.9635 15.9068 42.9073 16.1512 42.78 16.36C40.4272 21.5852 36.9231 26.2105 32.53 29.89C32.2606 30.0518 32.0178 30.2542 31.81 30.49C32.76 30.66 33.68 30.8 34.59 31C36.4746 31.407 38.3018 32.0451 40.03 32.9C40.258 32.9901 40.4544 33.1453 40.5949 33.3462C40.7354 33.5471 40.8136 33.7849 40.82 34.03C40.8323 34.2827 40.7658 34.5329 40.6297 34.7461C40.4935 34.9593 40.2944 35.1249 40.06 35.22C37.7787 36.3615 35.3207 37.1087 32.79 37.43C31.6311 37.5949 30.4597 37.6551 29.29 37.61C28.85 37.61 28.9 37.76 29.04 38.04C29.4969 39.0432 29.8326 40.0973 30.04 41.18C30.0948 41.383 30.0948 41.597 30.04 41.8C29.96 42.13 29.8 42.27 29.41 42.32C27.27 42.58 25.69 41.44 24.14 40.24C23.4717 39.6738 22.8741 39.0291 22.36 38.32C22.19 38.42 22.27 38.57 22.27 38.68C22.27 39.68 22.27 40.76 22.27 41.79C22.27 42.14 22.2 42.33 21.78 42.31C20.78 42.25 20.78 42.54 20.78 41.31V38.31C20.59 38.31 20.55 38.44 20.48 38.53C19.1956 40.1094 17.5347 41.3405 15.65 42.11C14.8666 42.3395 14.0384 42.3704 13.24 42.2C12.86 42.2 12.86 41.62 12.92 41.2C13.0634 40.4514 13.2674 39.7156 13.53 39C13.6582 38.6168 13.8119 38.2427 13.99 37.88C14.16 37.54 14.07 37.49 13.72 37.5C10.6415 37.5717 7.58027 37.0206 4.72 35.88C4.15 35.65 3.59 35.38 3.03 35.12C2.78715 35.0491 2.57262 34.904 2.41656 34.7048C2.26051 34.5057 2.17078 34.2627 2.16 34.01C2.16827 33.7575 2.25167 33.5132 2.39952 33.3083C2.54737 33.1035 2.75296 32.9474 2.99 32.86C5.40428 31.6973 7.99123 30.934 10.65 30.6L11.21 30.51L10.12 29.62C7.18196 27.1275 4.65438 24.1882 2.63 20.91C1.69462 19.4326 0.862632 17.8923 0.14 16.3C0.102396 16.2305 0.0552749 16.1665 0 16.11V15.43C0.56 14.6 0.87 14.5 1.84 14.84L3.21 15.34C6.85763 16.7122 10.279 18.6235 13.36 21.01C14.4241 21.8433 15.4267 22.7524 16.36 23.73C16.45 23.82 16.52 23.99 16.66 23.93C16.8 23.87 16.71 23.67 16.66 23.55C16.61 22.97 16.52 22.39 16.47 21.81C16.0634 15.6425 16.9454 9.45791 19.06 3.64999C19.49 2.41999 19.99 1.22 20.45 0L22.36 0.00999451ZM23.9 31.56C24.02 31.67 24.12 31.56 24.21 31.56C25.459 31.011 26.7904 30.6731 28.15 30.56C28.9569 30.4968 29.7265 30.1938 30.36 29.69C34.4772 26.6574 37.8633 22.7417 40.27 18.23C40.6296 17.636 40.9406 17.014 41.2 16.37C36.0367 18.1522 31.3431 21.0784 27.47 24.93C26.2848 25.9249 25.4245 27.2519 25 28.74C24.6978 29.7109 24.3371 30.6626 23.92 31.59H23.86C23.86 31.59 23.89 31.6 23.85 31.58L23.9 31.56ZM1.97 16.47H1.88V16.58C2.51306 17.8915 3.22434 19.1638 4.01 20.39C6.25565 24.0496 9.1939 27.2358 12.66 29.77C13.2488 30.2794 13.9922 30.5754 14.77 30.61C15.2254 30.6325 15.6776 30.6995 16.12 30.81C17.1467 31.0123 18.1514 31.3137 19.12 31.71C19.18 31.51 19.06 31.4 19.01 31.27C18.5373 30.2583 18.1428 29.2119 17.83 28.14C17.6842 27.5914 17.4177 27.0824 17.05 26.65C14.4861 23.5659 11.3481 21.0086 7.81 19.12C5.95275 18.0515 3.99709 17.1641 1.97 16.47ZM21.47 32.74C21.59 32.58 21.68 32.45 21.77 32.31C22.5464 30.9827 23.1831 29.5785 23.67 28.12C24.9205 24.093 25.3389 19.8538 24.9 15.66C24.5678 11.7997 23.7514 7.99653 22.47 4.34C22.18 3.49 21.84 2.65999 21.47 1.70999L20.97 3.00999C19.2475 7.49208 18.2353 12.2156 17.97 17.01C17.6669 21.1307 18.2429 25.2688 19.66 29.15C20.133 30.408 20.7398 31.6116 21.47 32.74ZM20.3 34.01C18.3097 32.6591 15.9653 31.9252 13.56 31.9C10.2268 31.8493 6.92723 32.5715 3.92 34.01C4.51049 34.3308 5.12989 34.5953 5.77 34.8C8.63136 35.9135 11.7129 36.3449 14.77 36.06C16.758 35.8597 18.6618 35.1539 20.3 34.01ZM38.96 34.01C37.7169 33.3726 36.4051 32.8794 35.05 32.54C32.1171 31.6881 29.0097 31.6363 26.05 32.39C24.8269 32.7317 23.6752 33.2906 22.65 34.04C28.13 37.38 33.55 36.33 38.96 34.07V34.01ZM14.47 41.01C17.09 39.94 19.23 38.52 20.25 35.86C18.923 36.5461 17.5056 37.041 16.04 37.33C15.992 37.3375 15.9464 37.3558 15.9066 37.3835C15.8667 37.4112 15.8337 37.4476 15.81 37.49C15.1974 38.5932 14.7461 39.7786 14.47 41.01ZM28.47 41.01C28.1761 39.786 27.7151 38.6083 27.1 37.51C27.01 37.35 26.87 37.35 26.73 37.32C25.5635 37.0823 24.4313 36.6993 23.36 36.18C23.1284 36.016 22.861 35.9097 22.58 35.87C23.76 38.52 25.87 40.01 28.49 41.01H28.47ZM16.77 24.01C16.77 24.01 16.77 24.01 16.71 24.07C16.7009 24.0959 16.7009 24.1241 16.71 24.15C16.77 24.15 16.79 24.15 16.78 24.08C16.77 24.01 16.81 24.01 16.79 24.01H16.77Z" fill="#EF4C23"/>
<path d="M16.79 24.01C16.79 24.01 16.84 24.01 16.84 24.08C16.84 24.15 16.84 24.17 16.77 24.15C16.7608 24.1241 16.7608 24.0959 16.77 24.07C16.77 24.07 16.77 24.01 16.79 24.01Z" fill="#EF4C23"/>
<path d="M1.87994 16.5399V16.4299H1.96994L1.87994 16.5399Z" fill="#EF4C23"/>
<path d="M23.85 31.5801C23.85 31.5801 23.85 31.6301 23.85 31.6501H23.91L23.85 31.5801Z" fill="#EF4C23"/>
</svg>
