<svg width="40" height="40" viewBox="0 0 40 40" fill="none" xmlns="http://www.w3.org/2000/svg">
<path d="M28.5346 13.0817C27.7596 12.1563 27.2602 11.0318 27.0934 9.83633C26.9267 8.64086 27.0992 7.42258 27.5914 6.32046C28.0837 5.21833 28.8757 4.27671 29.8772 3.60301C30.8788 2.92931 32.0495 2.55064 33.2559 2.51019C34.4622 2.46974 35.6557 2.76913 36.7001 3.37424C37.7445 3.97934 38.5979 4.86578 39.1628 5.93246C39.7277 6.99914 39.9815 8.20312 39.8952 9.40708C39.8089 10.611 39.3859 11.7665 38.6746 12.7417C38.1504 13.4494 37.4883 14.0436 36.7281 14.4883C35.9679 14.9331 35.1255 15.2193 34.2518 15.3295C33.378 15.4398 32.4909 15.3719 31.6441 15.13C30.7973 14.888 30.0082 14.477 29.3246 13.9217L26.3246 16.9217C26.7421 17.2019 27.119 17.5384 27.4446 17.9217C27.766 18.5316 28.0272 19.1712 28.2246 19.8317C28.3646 20.2517 28.3046 20.8317 28.5746 21.0717C28.8446 21.3117 29.3546 21.1917 29.7646 21.2217C30.2344 21.2575 30.6741 21.4665 30.9984 21.8082C31.3227 22.15 31.5085 22.6 31.5197 23.071C31.531 23.542 31.3668 24.0003 31.0591 24.3571C30.7514 24.7138 30.3221 24.9436 29.8546 25.0017L29.4146 25.0617C29.3878 25.3058 29.4243 25.5528 29.5206 25.7787C29.617 26.0047 29.7699 26.202 29.9646 26.3517C30.5146 26.7317 31.0146 27.1717 31.5346 27.5817C31.9477 27.8893 32.2812 28.2912 32.5073 28.754C32.7335 29.2167 32.8457 29.7268 32.8346 30.2417V36.4717C32.8346 37.1017 32.6546 37.2917 32.0146 37.2817C31.6546 37.2817 31.5446 37.3817 31.5446 37.7517C31.5778 38.0451 31.5435 38.3423 31.4444 38.6205C31.3453 38.8987 31.184 39.1506 30.9728 39.357C30.7615 39.5634 30.506 39.7189 30.2255 39.8115C29.9451 39.9042 29.6472 39.9316 29.3546 39.8917H26.0346C25.7458 39.9304 25.4519 39.9024 25.1755 39.81C24.8991 39.7176 24.6476 39.5632 24.4401 39.3586C24.2325 39.154 24.0746 38.9046 23.9783 38.6295C23.8821 38.3545 23.85 38.061 23.8846 37.7717C23.8846 37.3717 23.7346 37.2817 23.3746 37.2817C21.0946 37.2817 18.8213 37.2817 16.5546 37.2817C16.1746 37.2817 16.0446 37.3717 16.0446 37.7717C16.0756 38.0612 16.0406 38.3539 15.9424 38.6279C15.8442 38.902 15.6852 39.1503 15.4775 39.3542C15.2697 39.5581 15.0185 39.7124 14.7426 39.8055C14.4668 39.8986 14.1735 39.928 13.8846 39.8917C12.7446 39.8917 11.6146 39.8917 10.4746 39.8917C10.1936 39.9179 9.91031 39.8818 9.64483 39.7861C9.37935 39.6903 9.13824 39.5372 8.93868 39.3376C8.73912 39.1381 8.58601 38.897 8.49024 38.6315C8.39448 38.366 8.35843 38.0827 8.38464 37.8017C8.38464 37.3917 8.25462 37.2717 7.85462 37.2817C7.28462 37.2817 7.09463 37.0917 7.09463 36.5217C7.09463 34.395 7.09463 32.2683 7.09463 30.1417C7.0907 29.6506 7.20277 29.1655 7.42172 28.7258C7.64066 28.2862 7.96029 27.9045 8.35462 27.6117C8.88462 27.1917 9.35463 26.7317 9.95463 26.3517C10.1493 26.2003 10.3039 26.0037 10.405 25.7788C10.5061 25.5539 10.5506 25.3077 10.5346 25.0617L10.0646 25.0017C9.59608 24.9383 9.16799 24.7026 8.86398 24.3405C8.55997 23.9784 8.40188 23.5159 8.42063 23.0435C8.43938 22.571 8.63361 22.1226 8.96536 21.7857C9.2971 21.4488 9.74253 21.2477 10.2146 21.2217H10.3046C11.3746 21.2217 11.3046 21.2217 11.6246 20.2217C11.7958 19.5006 12.0439 18.7999 12.3646 18.1317C12.6733 17.718 13.0366 17.3479 13.4446 17.0317L10.4446 14.0317C9.15732 15.0471 7.5316 15.5342 5.898 15.3939C4.26441 15.2536 2.74557 14.4964 1.65028 13.2763C0.554986 12.0562 -0.0345367 10.4647 0.00156536 8.82553C0.0376674 7.18632 0.696682 5.62238 1.84463 4.45168C2.92811 3.3551 4.37 2.68499 5.90679 2.56381C7.44359 2.44263 8.97266 2.87847 10.2146 3.79168C10.9253 4.29842 11.5208 4.94974 11.962 5.70288C12.4032 6.45602 12.6802 7.29395 12.7746 8.16168C12.8875 9.04995 12.8171 9.95194 12.5677 10.8119C12.3183 11.6719 11.8952 12.4716 11.3246 13.1617C11.9546 13.7417 12.5746 14.3117 13.1846 14.9017C13.7946 15.4917 14.2846 16.0017 14.8446 16.5417C14.9848 16.6707 15.1646 16.7483 15.3546 16.7617C16.5546 16.7617 17.7546 16.7617 18.9546 16.7617C19.2946 16.7617 19.3646 16.6117 19.3646 16.3217C19.3646 15.3217 19.3646 14.3217 19.3646 13.3217C19.3646 12.9317 19.2446 12.8017 18.8646 12.7217C17.6264 12.5279 16.4754 11.9653 15.562 11.1072C14.6486 10.249 14.0152 9.13539 13.7446 7.91168C13.4437 6.66297 13.5249 5.35265 13.9776 4.15062C14.4304 2.9486 15.2338 1.91032 16.2837 1.1704C17.3337 0.430476 18.5817 0.0230518 19.8659 0.000949455C21.1502 -0.0211529 22.4115 0.343086 23.4863 1.04644C24.561 1.74979 25.3997 2.75982 25.8936 3.94555C26.3874 5.13128 26.5136 6.43803 26.2559 7.69636C25.9981 8.95469 25.3682 10.1066 24.4479 11.0026C23.5276 11.8987 22.3594 12.4976 21.0946 12.7217C20.6846 12.7917 20.5646 12.9517 20.5746 13.3517C20.5746 14.3517 20.5746 15.3517 20.5746 16.3517C20.5746 16.6817 20.6646 16.8117 21.0146 16.8117C22.1846 16.8117 23.3446 16.8117 24.5146 16.8117C24.6773 16.8274 24.8404 16.7849 24.9746 16.6917L28.5346 13.0817ZM28.1546 25.7417C28.1546 25.6917 28.1546 25.6717 28.1546 25.6617C27.8246 24.0417 27.4946 22.4217 27.1546 20.8117C27.1546 20.7017 26.9046 20.5817 26.7646 20.5717C26.1346 20.5717 25.5046 20.5717 24.8746 20.5717H13.2846C12.9046 20.5717 12.7346 20.6717 12.6846 21.0617C12.6346 21.4517 12.4646 22.0617 12.3646 22.5817C12.1346 23.5817 11.9146 24.6717 11.6846 25.7617L28.1546 25.7417ZM31.6146 33.5417C31.5546 33.3417 31.5646 33.1617 31.4746 33.0917C30.8246 32.5817 30.1646 32.0917 29.4746 31.6017C29.3337 31.5648 29.1856 31.5648 29.0446 31.6017H10.8446C10.7071 31.5648 10.5622 31.5648 10.4246 31.6017C9.74463 32.0817 9.08463 32.6017 8.42463 33.0817C8.38668 33.1208 8.35869 33.1685 8.34303 33.2207C8.32736 33.2729 8.32449 33.3281 8.33463 33.3817C8.33463 33.4517 8.49463 33.5117 8.59463 33.5317C8.70744 33.547 8.82181 33.547 8.93462 33.5317H31.6046L31.6146 33.5417ZM11.8746 27.0317C11.8746 27.0917 11.8746 27.1417 11.8746 27.1517C12.0127 27.2349 12.1564 27.3084 12.3046 27.3717C12.842 27.5847 13.3234 27.9181 13.7117 28.3463C14.1 28.7745 14.385 29.2861 14.5446 29.8417C14.6446 30.2217 14.8146 30.3117 15.1846 30.3117C17.4246 30.3117 19.6646 30.3117 21.8946 30.3117C22.8946 30.3117 23.8146 30.3117 24.7646 30.3117C24.9146 30.3117 25.1646 30.1817 25.1946 30.0617C25.3582 29.4381 25.67 28.8633 26.1035 28.3862C26.5371 27.9092 27.0795 27.5439 27.6846 27.3217C27.7946 27.2717 27.8946 27.1817 28.1046 27.0517L11.8746 27.0317ZM37.3346 12.3317C38.5146 11.4917 39.0446 9.00168 38.4346 7.33168C38.0644 6.211 37.3219 5.25072 36.3305 4.61038C35.3391 3.97004 34.1584 3.6882 32.9846 3.81168C31.9054 3.92519 30.888 4.37098 30.073 5.08748C29.2579 5.80399 28.6855 6.75587 28.4346 7.81168C28.0146 9.69168 28.8546 11.8117 29.6946 12.3117C29.7909 11.7202 30.0187 11.1579 30.3615 10.6664C30.7042 10.1748 31.1529 9.76652 31.6746 9.47168C30.7646 7.89168 30.8346 6.67168 31.8846 5.74168C32.3132 5.34858 32.8681 5.12148 33.4493 5.10131C34.0305 5.08114 34.5998 5.26923 35.0546 5.63168C35.4643 6.01607 35.7704 6.49759 35.9446 7.03168C36.0752 7.45628 36.0903 7.908 35.9884 8.34037C35.8865 8.77275 35.6711 9.17015 35.3646 9.49168C35.8822 9.79041 36.3272 10.2 36.6678 10.691C37.0084 11.182 37.2361 11.7423 37.3346 12.3317ZM10.2446 12.3317C11.4646 11.3317 11.9246 8.94168 11.2446 7.16168C10.8639 6.13897 10.1711 5.26195 9.26434 4.65483C8.35755 4.0477 7.28274 3.74124 6.19212 3.77885C5.1015 3.81645 4.05035 4.19622 3.18754 4.86437C2.32473 5.53252 1.69399 6.45518 1.38464 7.50168C0.874637 9.21168 1.38464 11.5017 2.55464 12.3417C2.64221 11.7485 2.86202 11.1826 3.19782 10.6858C3.53363 10.189 3.97683 9.77406 4.49464 9.47168C3.56464 7.97168 3.65463 6.66168 4.70463 5.74168C5.16617 5.34794 5.75296 5.13165 6.35963 5.13165C6.9663 5.13165 7.55309 5.34794 8.01463 5.74168C9.09463 6.65168 9.18463 7.93168 8.28463 9.45168C9.77463 10.8817 9.77464 10.8817 10.2446 12.3217V12.3317ZM23.8046 9.76168C25.1046 8.67168 25.5146 6.16168 24.7146 4.31168C24.2656 3.26941 23.4874 2.40303 22.499 1.84523C21.5107 1.28743 20.3668 1.06895 19.2425 1.22325C18.1181 1.37755 17.0754 1.89612 16.2738 2.69955C15.4723 3.50298 14.9563 4.54698 14.8046 5.67168C14.5746 7.06168 15.1646 9.14168 16.0646 9.67168C16.269 9.13111 16.513 8.60635 16.7946 8.10168C17.1472 7.60107 17.5313 7.12343 17.9446 6.67168C17.1546 5.26168 17.2446 4.01168 18.3146 3.12168C18.7726 2.74979 19.3446 2.5468 19.9346 2.5468C20.5246 2.5468 21.0966 2.74979 21.5546 3.12168C22.6546 4.00168 22.7546 5.21168 21.8646 6.87168C23.3746 8.33168 23.3746 8.33168 23.8046 9.75168V9.76168ZM26.7446 19.3017C26.7484 19.2351 26.7484 19.1683 26.7446 19.1017C26.7331 19.0549 26.7127 19.0108 26.6846 18.9717C26.489 18.6408 26.2043 18.3716 25.8631 18.1948C25.5218 18.018 25.1377 17.9407 24.7546 17.9717H15.2246C15.0151 17.9515 14.8041 17.9515 14.5946 17.9717C14.2619 18.041 13.9523 18.194 13.6951 18.4162C13.4379 18.6384 13.2415 18.9225 13.1246 19.2417L26.7446 19.3017ZM33.5246 14.3017C34.2846 14.0717 35.0346 13.8817 35.7546 13.6317C35.8487 13.5712 35.9281 13.4904 35.9869 13.3952C36.0458 13.3 36.0826 13.1929 36.0946 13.0817C36.1166 12.7287 36.066 12.3749 35.9461 12.0422C35.8261 11.7095 35.6393 11.4049 35.3971 11.1472C35.1549 10.8895 34.8624 10.6841 34.5378 10.5437C34.2132 10.4033 33.8633 10.3308 33.5096 10.3308C33.156 10.3308 32.806 10.4033 32.4814 10.5437C32.1568 10.6841 31.8644 10.8895 31.6222 11.1472C31.38 11.4049 31.1932 11.7095 31.0732 12.0422C30.9532 12.3749 30.9027 12.7287 30.9246 13.0817C30.9246 13.3817 31.0146 13.5917 31.3046 13.6717C32.0246 13.8517 32.7546 14.0317 33.5246 14.2717V14.3017ZM19.9546 11.7117C20.7146 11.4917 21.4646 11.3017 22.1846 11.0517C22.2814 10.9956 22.3635 10.9174 22.4243 10.8236C22.4851 10.7298 22.5229 10.6229 22.5346 10.5117C22.5681 10.1546 22.5265 9.7944 22.4124 9.45434C22.2984 9.11428 22.1144 8.80186 21.8723 8.53719C21.6302 8.27251 21.3354 8.06143 21.0069 7.91754C20.6783 7.77364 20.3233 7.70011 19.9646 7.70168C19.6067 7.70101 19.2524 7.7737 18.9236 7.91526C18.5949 8.05682 18.2986 8.26424 18.0531 8.52474C17.8076 8.78523 17.618 9.09327 17.4962 9.42985C17.3744 9.76642 17.3228 10.1244 17.3446 10.4817C17.3446 10.7917 17.4346 10.9917 17.7346 11.0717L19.9546 11.7117ZM6.39463 14.3017C7.16463 14.0717 7.91464 13.8817 8.63464 13.6317C8.72394 13.5764 8.79986 13.5019 8.85693 13.4138C8.91399 13.3256 8.95077 13.2258 8.96462 13.1217C9.00058 12.7662 8.96259 12.4071 8.85304 12.067C8.74349 11.7269 8.56476 11.4131 8.32807 11.1454C8.09139 10.8778 7.80186 10.6619 7.47773 10.5116C7.1536 10.3612 6.80186 10.2795 6.44463 10.2717C6.08634 10.27 5.73142 10.341 5.40135 10.4804C5.07127 10.6198 4.77291 10.8247 4.52427 11.0827C4.27563 11.3407 4.08188 11.6464 3.95475 11.9814C3.82762 12.3164 3.76975 12.6737 3.78463 13.0317C3.76866 13.1606 3.80057 13.2909 3.87431 13.3978C3.94804 13.5047 4.05847 13.5808 4.18463 13.6117L6.39463 14.3017ZM8.34463 36.0317H16.0546V34.8117H8.34463V36.0317ZM31.5546 34.7617H23.8446V36.0317H31.5846C31.5846 35.7117 31.5846 35.4217 31.5846 35.1317C31.582 35.0211 31.572 34.9109 31.5546 34.8017V34.7617ZM9.67463 37.3717C9.47463 38.3717 9.67463 38.7017 10.6746 38.7017H13.7446C14.7446 38.7017 14.9546 38.3717 14.7446 37.3717H9.67463ZM30.2646 37.3717H25.1546C25.0046 38.4517 25.2046 38.6917 26.2546 38.6917H29.1646C30.1946 38.7017 30.4146 38.4517 30.2546 37.3817L30.2646 37.3717ZM19.9646 36.0917H21.7646C22.6546 36.0917 22.5646 36.2617 22.5846 35.2617C22.5846 34.8917 22.4946 34.7517 22.1046 34.7617C20.8046 34.7617 19.5046 34.7617 18.2146 34.7617C17.2146 34.7617 17.3546 34.5617 17.3346 35.6417C17.3346 35.9717 17.4246 36.1017 17.7746 36.0917C18.4946 36.0817 19.2246 36.1017 19.9546 36.1017L19.9646 36.0917ZM26.5146 30.2717C27.3946 30.2717 28.1846 30.2717 28.9746 30.2717C29.048 30.2551 29.1166 30.2223 29.1755 30.1755C29.2343 30.1288 29.2819 30.0693 29.3146 30.0017C29.5546 29.4717 29.7746 28.9317 29.9646 28.3817C29.9845 28.3041 29.9858 28.2229 29.9684 28.1447C29.951 28.0666 29.9155 27.9936 29.8646 27.9317C29.7929 27.8971 29.7143 27.8792 29.6346 27.8792C29.555 27.8792 29.4764 27.8971 29.4046 27.9317C28.8046 28.2017 28.2046 28.5017 27.6246 28.8217C27.3452 28.9719 27.1009 29.1797 26.9078 29.4314C26.7147 29.6831 26.5773 29.9729 26.5046 30.2817L26.5146 30.2717ZM13.4146 30.2717C13.3425 29.9549 13.2046 29.6568 13.01 29.3967C12.8153 29.1366 12.5682 28.9202 12.2846 28.7617C11.7046 28.4417 11.1146 28.1417 10.5046 27.8717C10.4288 27.8438 10.3474 27.8347 10.2673 27.8451C10.1871 27.8556 10.1107 27.8853 10.0446 27.9317C9.9975 27.9955 9.96501 28.0689 9.94946 28.1466C9.9339 28.2244 9.93566 28.3047 9.95463 28.3817C10.1446 28.9217 10.3646 29.4417 10.5946 29.9617C10.6446 30.0817 10.8046 30.2517 10.9146 30.2617C11.6746 30.2917 12.5146 30.2817 13.4046 30.2817L13.4146 30.2717ZM34.8046 7.67168C34.8046 7.41697 34.7292 7.16796 34.5879 6.95605C34.4466 6.74413 34.2457 6.57879 34.0106 6.48086C33.7754 6.38294 33.5166 6.35682 33.2666 6.40579C33.0167 6.45476 32.7868 6.57663 32.606 6.75604C32.4252 6.93545 32.3015 7.16437 32.2506 7.41394C32.1997 7.66351 32.2239 7.92257 32.32 8.15845C32.4161 8.39434 32.5799 8.59649 32.7907 8.73943C33.0015 8.88238 33.2499 8.95971 33.5046 8.96168C33.8442 8.95911 34.1694 8.82374 34.4104 8.58453C34.6515 8.34532 34.7894 8.02126 34.7946 7.68168L34.8046 7.67168ZM5.11463 7.67168C5.11466 7.92596 5.18985 8.17456 5.33073 8.38625C5.47161 8.59793 5.6719 8.76326 5.90646 8.86145C6.14101 8.95965 6.39935 8.98634 6.64903 8.93816C6.8987 8.88999 7.12858 8.7691 7.30976 8.59068C7.49094 8.41227 7.61534 8.18429 7.66735 7.93538C7.71936 7.68648 7.69665 7.42776 7.60208 7.19172C7.5075 6.95568 7.34527 6.75286 7.13578 6.60874C6.92629 6.46462 6.67888 6.38562 6.42463 6.38168C6.25391 6.37904 6.08433 6.41005 5.92559 6.47294C5.76685 6.53584 5.62207 6.62939 5.49949 6.74826C5.37691 6.86712 5.27896 7.00896 5.21121 7.16569C5.14346 7.32242 5.10723 7.49096 5.10462 7.66168L5.11463 7.67168ZM19.9546 6.38168C20.1329 6.39742 20.3125 6.3759 20.482 6.31847C20.6515 6.26105 20.8072 6.16898 20.9392 6.04812C21.0712 5.92726 21.1766 5.78026 21.2487 5.61646C21.3209 5.45266 21.3581 5.27565 21.3581 5.09668C21.3581 4.91771 21.3209 4.7407 21.2487 4.5769C21.1766 4.4131 21.0712 4.2661 20.9392 4.14524C20.8072 4.02438 20.6515 3.93232 20.482 3.87489C20.3125 3.81747 20.1329 3.79594 19.9546 3.81168C19.6334 3.84005 19.3344 3.9877 19.1167 4.22555C18.8989 4.4634 18.7781 4.7742 18.7781 5.09668C18.7781 5.41917 18.8989 5.72996 19.1167 5.96781C19.3344 6.20566 19.6334 6.35332 19.9546 6.38168ZM31.5146 31.5517C31.6761 31.1321 31.7196 30.6763 31.6403 30.2338C31.5609 29.7913 31.3618 29.379 31.0646 29.0417C30.8746 29.5217 30.6646 29.9917 30.4946 30.4817C30.4811 30.5446 30.4821 30.6097 30.4977 30.6722C30.5133 30.7346 30.5431 30.7926 30.5846 30.8417C30.8646 31.0817 31.1846 31.3017 31.5046 31.5417L31.5146 31.5517ZM8.32462 31.4617L8.45463 31.5217C8.75463 31.3017 9.05463 31.0917 9.33463 30.8517C9.3771 30.8109 9.40922 30.7606 9.42835 30.705C9.44748 30.6493 9.45307 30.5899 9.44463 30.5317C9.26463 30.0217 9.04463 29.5317 8.81463 28.9517C8.11463 29.7617 8.36463 30.6317 8.31463 31.4517L8.32462 31.4617ZM11.0946 22.5317H10.3046C10.2187 22.5246 10.1323 22.5357 10.051 22.5645C9.96968 22.5932 9.89541 22.6388 9.83305 22.6983C9.77068 22.7579 9.72163 22.83 9.68916 22.9098C9.65668 22.9897 9.64151 23.0755 9.64463 23.1617C9.64463 23.5617 9.87463 23.7717 10.2646 23.8217C10.6546 23.8717 10.9046 23.7617 10.9346 23.3117C10.9446 23.0317 11.0246 22.8317 11.0846 22.5217L11.0946 22.5317ZM28.7946 22.5317C28.8795 22.9527 29.0138 23.3622 29.1946 23.7517C29.2646 23.8617 29.7546 23.7517 29.9846 23.6717C30.0766 23.6049 30.1498 23.5155 30.1971 23.4122C30.2444 23.3088 30.2642 23.1949 30.2546 23.0817C30.209 22.9624 30.1393 22.8537 30.0498 22.7625C29.9603 22.6713 29.8531 22.5996 29.7346 22.5517C29.4208 22.4972 29.1005 22.4904 28.7846 22.5317H28.7946Z" fill="#EF4C23"/>
</svg>
