<svg width="42" height="42" viewBox="0 0 42 42" fill="none" xmlns="http://www.w3.org/2000/svg">
<path d="M11.1942 24.74C10.7665 24.7726 10.3364 24.7286 9.92417 24.61C9.50262 24.4308 9.15283 24.1162 8.93007 23.716C8.70732 23.3157 8.62431 22.8527 8.69417 22.4C8.76495 21.972 8.97295 21.5787 9.28681 21.2792C9.60066 20.9798 10.0034 20.7905 10.4342 20.74C11.0503 20.705 11.668 20.705 12.2842 20.74C12.7645 20.7952 13.2086 21.0225 13.5342 21.38C13.7842 20.63 14.0142 19.93 14.2542 19.24C14.3993 18.7196 14.6934 18.253 15.1002 17.8977C15.5071 17.5423 16.009 17.3137 16.5442 17.24C17.6175 17.0679 18.6989 16.9511 19.7842 16.89C24.1177 16.5662 28.4727 16.6767 32.7842 17.22C33.2957 17.2724 33.7821 17.4682 34.1872 17.7849C34.5923 18.1015 34.8998 18.5262 35.0742 19.01C35.3642 19.76 35.6042 20.54 35.8942 21.37C36.7942 20.44 37.8942 20.74 38.9842 20.75C39.4785 20.7909 39.9374 21.0225 40.264 21.3957C40.5906 21.769 40.7592 22.2546 40.7342 22.75C40.751 23.2514 40.5729 23.7398 40.2372 24.1127C39.9016 24.4856 39.4346 24.714 38.9342 24.75H38.1642C38.3942 25.05 38.5942 25.28 38.7742 25.52C39.3814 26.3851 39.7848 27.3766 39.9542 28.42C39.9857 28.7703 40.1546 29.0939 40.4242 29.32C40.7449 29.5862 41.0014 29.9215 41.1745 30.3006C41.3477 30.6798 41.433 31.0932 41.4242 31.51V35.45C41.4328 35.8653 41.3399 36.2765 41.1534 36.6477C40.9669 37.0189 40.6925 37.3389 40.3542 37.58C40.2696 37.6368 40.2012 37.7146 40.1557 37.8057C40.1101 37.8968 40.0889 37.9982 40.0942 38.1C40.0942 38.56 40.0942 39.01 40.0942 39.46C40.0943 39.7277 40.0406 39.9928 39.9364 40.2394C39.8322 40.4861 39.6794 40.7093 39.4873 40.8958C39.2952 41.0823 39.0676 41.2284 38.818 41.3253C38.5684 41.4222 38.3018 41.468 38.0342 41.46H35.4642C35.1914 41.4683 34.9198 41.4207 34.6661 41.3201C34.4124 41.2195 34.182 41.0681 33.989 40.8751C33.7961 40.6821 33.6446 40.4517 33.544 40.198C33.4435 39.9443 33.3959 39.6727 33.4042 39.4C33.4042 38.98 33.5942 38.4 33.3142 38.19C33.0342 37.98 32.5442 38.12 32.1442 38.12C26.9442 38.12 21.7542 38.12 16.5542 38.12C16.1442 38.12 16.0142 38.22 16.0542 38.63C16.0842 38.9359 16.0842 39.244 16.0542 39.55C16.0335 40.0664 15.8137 40.5548 15.4408 40.9127C15.068 41.2707 14.571 41.4704 14.0542 41.47C13.1342 41.47 12.2042 41.47 11.2842 41.47C10.7537 41.47 10.245 41.2592 9.86995 40.8842C9.49488 40.5091 9.28417 40.0004 9.28417 39.47C9.28417 39.27 9.28417 39.08 9.28417 38.88C9.35172 38.5793 9.33104 38.2656 9.2246 37.9765C9.11817 37.6873 8.93051 37.435 8.68417 37.25C8.42437 37.0251 8.22112 36.7424 8.09083 36.4244C7.96054 36.1065 7.90687 35.7624 7.93417 35.42V31.62C7.92508 31.1634 8.02034 30.7107 8.2127 30.2966C8.40506 29.8824 8.68944 29.5176 9.04417 29.23C9.24099 29.07 9.36967 28.8412 9.40417 28.59C9.56327 27.2751 10.1137 26.0383 10.9842 25.04C11.1142 24.96 11.2142 24.91 11.1942 24.74ZM31.1042 36.74C31.7342 36.74 32.3042 36.74 32.8642 36.74C33.4242 36.74 33.4342 36.64 33.4242 36.19C33.3792 35.6072 33.5628 35.0297 33.9361 34.5799C34.3093 34.1301 34.8431 33.8432 35.4242 33.78L39.0042 33.08C40.0742 32.86 40.0742 32.86 40.0742 31.76C40.0941 31.5178 40.0644 31.274 39.987 31.0437C39.9097 30.8133 39.7862 30.6011 39.6242 30.42C39.5991 30.379 39.5657 30.3439 39.5261 30.3168C39.4865 30.2897 39.4416 30.2713 39.3944 30.2628C39.3471 30.2543 39.2986 30.2559 39.2521 30.2674C39.2055 30.279 39.1619 30.3003 39.1242 30.33C38.6842 30.57 38.2342 30.79 37.7742 31C36.7906 31.4731 35.662 31.5469 34.6253 31.2056C33.5886 30.8644 32.7244 30.1348 32.2142 29.17C32.1555 29.0951 32.1129 29.009 32.089 28.917C32.0652 28.8249 32.0606 28.7289 32.0757 28.635C32.0907 28.5411 32.125 28.4513 32.1763 28.3713C32.2277 28.2913 32.2951 28.2227 32.3742 28.17C32.5087 28.0838 32.6578 28.0228 32.8142 27.99C34.3042 27.49 35.8142 26.99 37.2842 26.5C37.6942 26.37 37.6842 26.23 37.4242 25.96C37.1201 25.626 36.7853 25.3213 36.4242 25.05C36.3003 24.9486 36.1539 24.8784 35.9973 24.8453C35.8407 24.8123 35.6784 24.8173 35.5242 24.86C33.0865 25.3984 30.6136 25.7627 28.1242 25.95C23.3431 26.2892 18.5381 25.9219 13.8642 24.86C13.7882 24.8281 13.7066 24.8116 13.6242 24.8116C13.5418 24.8116 13.4602 24.8281 13.3842 24.86C12.7265 25.2253 12.1726 25.7518 11.7742 26.39C13.2942 26.9 14.7742 27.39 16.2442 27.87C17.5242 28.26 17.7342 28.64 16.8542 29.76C16.4052 30.377 15.7929 30.8565 15.0862 31.1444C14.3796 31.4324 13.6065 31.5174 12.8542 31.39C11.9971 31.2047 11.1806 30.8659 10.4442 30.39C10.3838 30.3459 10.3145 30.3156 10.2412 30.3013C10.1678 30.287 10.0922 30.2889 10.0197 30.3071C9.94719 30.3252 9.87955 30.359 9.82157 30.4062C9.76359 30.4533 9.71668 30.5127 9.68417 30.58C9.36299 31.1942 9.244 31.8941 9.34417 32.58C9.34417 32.83 9.40417 32.9 9.65417 32.95C11.0242 33.21 12.3842 33.49 13.7542 33.77C14.0856 33.7826 14.4108 33.864 14.709 34.0092C15.0073 34.1543 15.272 34.3599 15.4865 34.6129C15.701 34.8659 15.8604 35.1608 15.9547 35.4788C16.049 35.7968 16.076 36.1309 16.0342 36.46C16.0342 36.72 16.1242 36.79 16.3742 36.78C16.8742 36.78 17.3742 36.78 17.8842 36.78C18.3942 36.78 18.2842 36.67 18.1342 36.35C17.6842 35.35 17.2242 34.35 16.8442 33.26C16.6997 32.9046 16.6469 32.5186 16.6905 32.1374C16.7342 31.7563 16.8728 31.3922 17.0938 31.0786C17.3148 30.7651 17.6111 30.512 17.9553 30.3428C18.2996 30.1735 18.6809 30.0935 19.0642 30.11H30.3742C30.5693 30.1041 30.7643 30.1243 30.9542 30.17C31.2995 30.2511 31.6218 30.4096 31.8968 30.6336C32.1718 30.8576 32.3923 31.1412 32.5416 31.4629C32.6909 31.7847 32.7651 32.1361 32.7587 32.4908C32.7522 32.8454 32.6651 33.1939 32.5042 33.51C32.0542 34.55 31.5942 35.62 31.1042 36.75V36.74ZM24.6742 24.63C25.6042 24.63 26.5242 24.63 27.4442 24.63C29.9395 24.4878 32.4202 24.1534 34.8642 23.63C35.0542 23.63 35.2042 23.56 35.1042 23.26C34.6742 22.05 34.3042 20.83 33.8842 19.62C33.7848 19.3413 33.6058 19.098 33.3693 18.9202C33.1329 18.7425 32.8494 18.638 32.5542 18.62C31.5542 18.49 30.6242 18.39 29.6442 18.32C25.3885 17.98 21.1092 18.0806 16.8742 18.62C16.5727 18.6444 16.2861 18.7612 16.0534 18.9545C15.8208 19.1477 15.6534 19.4081 15.5742 19.7C15.1742 20.88 14.7942 22.07 14.3742 23.24C14.2642 23.55 14.3742 23.64 14.6342 23.69C17.9345 24.3818 21.3027 24.6972 24.6742 24.63ZM24.7342 31.44H19.1342C18.971 31.4313 18.8082 31.4627 18.66 31.5316C18.5118 31.6004 18.3827 31.7044 18.284 31.8347C18.1853 31.9649 18.1201 32.1174 18.094 32.2787C18.0679 32.44 18.0816 32.6052 18.1342 32.76C18.5642 33.81 19.0242 34.85 19.4742 35.89C19.5797 36.1567 19.7675 36.3829 20.0102 36.5357C20.2529 36.6885 20.538 36.7601 20.8242 36.74H28.6642C28.9576 36.7559 29.2481 36.6756 29.4918 36.5114C29.7354 36.3471 29.9188 36.1079 30.0142 35.83C30.4042 34.89 30.8142 33.96 31.2142 33.02C31.6142 32.08 31.2142 31.44 30.1442 31.44H24.7342ZM12.5042 36.75H14.3542C14.5042 36.75 14.6642 36.75 14.7042 36.54C14.7422 36.3819 14.7457 36.2176 14.7144 36.0581C14.6831 35.8985 14.6177 35.7477 14.5228 35.6157C14.4279 35.4838 14.3056 35.3739 14.1643 35.2935C14.023 35.2131 13.8661 35.1642 13.7042 35.15L10.3242 34.47C9.32417 34.27 9.32417 34.27 9.32417 35.33C9.31046 35.5217 9.33848 35.7141 9.40628 35.894C9.47409 36.0738 9.58007 36.2368 9.71693 36.3718C9.85379 36.5068 10.0183 36.6105 10.1991 36.6757C10.3799 36.741 10.5727 36.7664 10.7642 36.75H12.5042ZM36.8842 36.75H38.0042C39.7942 36.75 40.0842 36.44 40.0642 34.64C40.0642 34.36 40.0642 34.25 39.7042 34.33C38.4042 34.62 37.1042 34.86 35.8042 35.12C34.9642 35.29 34.7442 35.58 34.8042 36.42C34.8042 36.67 34.8742 36.76 35.1342 36.75C35.6842 36.73 36.2842 36.75 36.8642 36.75H36.8842ZM36.7642 38.12H35.9342C34.7042 38.12 34.7042 38.12 34.7642 39.35C34.7547 39.4517 34.768 39.5542 34.803 39.6502C34.838 39.7462 34.8938 39.8332 34.9665 39.905C35.0393 39.9767 35.127 40.0314 35.2234 40.0652C35.3199 40.0989 35.4226 40.1108 35.5242 40.1C36.0742 40.1 36.6242 40.1 37.1742 40.1C38.8442 40.16 38.7542 39.92 38.7542 38.45C38.7542 38.19 38.6642 38.11 38.4242 38.12H36.7642ZM12.7042 38.12H11.8642C10.6342 38.12 10.6342 38.12 10.6942 39.35C10.6828 39.4521 10.6947 39.5555 10.7291 39.6523C10.7634 39.7492 10.8192 39.837 10.8924 39.9092C10.9655 39.9814 11.0541 40.036 11.1514 40.0691C11.2487 40.1021 11.3522 40.1127 11.4542 40.1H13.1142C14.7042 40.1 14.6942 40 14.6842 38.44C14.6842 38.18 14.5842 38.11 14.3342 38.12H12.7042ZM15.5942 29.12L11.3342 27.69C11.1942 27.69 11.0742 27.69 11.0342 27.81C10.8884 28.1817 10.8302 28.5821 10.8642 28.98C10.9242 29.25 11.3242 29.28 11.5742 29.41C11.8662 29.5818 12.1703 29.7322 12.4842 29.86C13.0166 30.0769 13.6038 30.1202 14.1623 29.9837C14.7207 29.8472 15.2218 29.538 15.5942 29.1V29.12ZM35.8142 30.12C36.5221 30.0833 37.2096 29.8702 37.8142 29.5C38.7542 29.03 38.7542 29.03 38.4342 28.02C38.43 27.9734 38.43 27.9265 38.4342 27.88C38.4342 27.68 38.2742 27.67 38.1042 27.73C36.7942 28.17 35.4742 28.62 34.1542 29.05C33.8842 29.14 33.9042 29.23 34.0842 29.4C34.5869 29.8143 35.213 30.05 35.8642 30.07L35.8142 30.12ZM11.5142 23.42H12.4342C12.5242 23.42 12.6242 23.42 12.6742 23.33C12.7263 23.2071 12.7491 23.0738 12.7409 22.9406C12.7326 22.8074 12.6935 22.678 12.6265 22.5626C12.5596 22.4471 12.4667 22.3488 12.3552 22.2755C12.2437 22.2021 12.1167 22.1557 11.9842 22.14C11.5445 22.115 11.1038 22.115 10.6642 22.14C10.5824 22.1371 10.501 22.1512 10.425 22.1815C10.349 22.2118 10.2802 22.2575 10.2228 22.3158C10.1655 22.3741 10.1208 22.4437 10.0918 22.5202C10.0628 22.5966 10.05 22.6783 10.0542 22.76C10.0469 22.8454 10.058 22.9315 10.0868 23.0123C10.1157 23.0931 10.1615 23.1668 10.2212 23.2284C10.2809 23.29 10.3531 23.3381 10.433 23.3694C10.5128 23.4007 10.5985 23.4146 10.6842 23.41L11.5142 23.42ZM37.8642 23.42H38.7942C38.872 23.4213 38.9494 23.407 39.0215 23.3778C39.0937 23.3486 39.1593 23.3052 39.2144 23.2502C39.2694 23.1951 39.3128 23.1295 39.342 23.0573C39.3712 22.9851 39.3855 22.9078 39.3842 22.83C39.3986 22.7489 39.3954 22.6656 39.3745 22.5859C39.3537 22.5061 39.3159 22.4319 39.2636 22.3682C39.2113 22.3045 39.1459 22.2529 39.0717 22.217C38.9976 22.181 38.9165 22.1616 38.8342 22.16C38.3481 22.1249 37.8602 22.1249 37.3742 22.16C36.9042 22.16 36.6942 22.56 36.7442 23.16C36.7942 23.76 37.1642 23.34 37.3842 23.4C37.5447 23.4152 37.7067 23.405 37.8642 23.37V23.42Z" fill="#EF4C23"/>
<path d="M6.0442 24.76C6.0442 28.8 6.0442 32.84 6.0442 36.88C6.0442 37.28 6.1042 37.43 6.5542 37.42C8.0242 37.42 8.02421 37.42 8.02421 38.85C8.02421 39.47 8.02421 40.09 8.02421 40.7C8.02421 41.31 7.80421 41.45 7.33421 41.46H0.704204C0.609038 41.4696 0.51293 41.4577 0.42295 41.4253C0.33297 41.3929 0.251405 41.3407 0.184253 41.2726C0.117101 41.2044 0.0660701 41.1221 0.0349115 41.0317C0.00375285 40.9413 -0.00674088 40.845 0.00420317 40.75V38.12C0.00420317 37.66 0.274204 37.45 0.704204 37.41H0.864204C1.2242 37.41 1.72421 37.57 1.92421 37.32C2.12421 37.07 1.9842 36.61 1.9842 36.24V1.08C1.9842 0.180002 2.1642 0 3.0642 0H5.0642C5.7742 0 6.0642 0.229998 6.0042 0.919998C6.0042 1.31 6.1142 1.36 6.4642 1.36H26.4042C27.2342 1.36 27.4042 1.52 27.4042 2.36V11.08C27.4042 11.91 27.2342 12.08 26.4042 12.08C19.8142 12.08 13.2242 12.08 6.6342 12.08C6.1042 12.08 6.0142 12.23 6.0242 12.71C6.0542 16.71 6.0442 20.73 6.0442 24.76ZM16.0442 2.76H6.4742C6.1642 2.76 6.0342 2.76 6.0342 3.16C6.0342 5.56 6.0342 7.97 6.0342 10.37C6.0342 10.68 6.1042 10.77 6.4342 10.77C12.8342 10.77 19.2409 10.77 25.6542 10.77C25.9842 10.77 26.0442 10.67 26.0442 10.36C26.0442 7.98 26.0442 5.59 26.0442 3.21C26.0442 2.85 25.9742 2.75 25.6042 2.76H16.0442ZM4.6842 19.42V1.99C4.6842 1.88 4.6842 1.76 4.6842 1.65C4.6842 1.54 4.5942 1.34 4.3742 1.36C4.1542 1.38 4.1142 1.36 3.9842 1.36C3.3442 1.36 3.3442 1.36 3.3442 2V36.61C3.3442 37.41 3.3442 37.39 4.1642 37.42C4.5842 37.42 4.69421 37.32 4.69421 36.89C4.67421 31.07 4.6842 25.28 4.6842 19.42ZM4.0642 40.1H5.76421C6.68421 40.1 6.66421 40.1 6.67421 39.19C6.67421 38.84 6.5642 38.76 6.2342 38.77C4.9242 38.77 3.6042 38.77 2.2942 38.77C1.2942 38.77 1.36421 38.77 1.35421 39.71C1.35421 40.04 1.4742 40.11 1.7742 40.1C2.5342 40.09 3.2942 40.1 4.0642 40.1Z" fill="#EF4C23"/>
<path d="M18.7042 6.27997H18.5942L17.3942 4.45997C17.1842 4.14997 16.9342 3.88997 16.5142 4.01997C16.3422 4.07728 16.1968 4.19496 16.1049 4.35123C16.013 4.5075 15.9807 4.69178 16.0142 4.86996C16.0142 6.04996 16.0142 7.22997 16.0142 8.41997C16.0142 9.41997 16.0142 9.41997 17.0142 9.41997C17.3442 9.41997 17.4342 9.31997 17.4242 9.00997C17.4242 8.38997 17.4242 7.75997 17.4242 7.13997C17.882 7.68465 18.3029 8.25926 18.6842 8.85997C18.9042 9.20997 19.1542 9.50996 19.6142 9.36996C20.0742 9.22996 20.1142 8.82997 20.1142 8.41997C20.1142 7.26997 20.1142 6.11997 20.1142 4.96997C20.1142 3.96997 20.1142 4.03997 19.1842 3.96997C18.7942 3.96997 18.7342 4.09997 18.7442 4.43997C18.7242 5.05997 18.7042 5.65997 18.7042 6.27997ZM7.32422 6.94997V8.40997C7.32422 9.47997 7.32422 9.46997 8.38422 9.40997C8.62422 9.40997 8.70422 9.33997 8.69422 9.09997C8.69422 8.62997 8.69422 8.15997 8.69422 7.68997C8.69422 7.57997 8.61422 7.40997 8.82422 7.38997C9.18422 7.38997 9.52422 7.38997 9.75422 7.73997C9.97268 8.13982 10.0634 8.59699 10.0142 9.04996C10.0142 9.32996 10.0942 9.42997 10.3742 9.40997C10.6173 9.39497 10.8611 9.39497 11.1042 9.40997C11.3042 9.40997 11.3942 9.34997 11.3942 9.12997C11.4609 8.46644 11.3286 7.79808 11.0142 7.20997C10.9515 7.13592 10.9171 7.04202 10.9171 6.94497C10.9171 6.84792 10.9515 6.75402 11.0142 6.67997C11.2048 6.44554 11.3216 6.15994 11.3501 5.85919C11.3786 5.55844 11.3174 5.25599 11.1742 4.98997C11.0392 4.68789 10.8184 4.4321 10.5393 4.25433C10.2602 4.07657 9.93507 3.98465 9.60422 3.98997H8.17422C7.57422 3.98997 7.33422 4.24996 7.33422 4.86996C7.33422 5.48996 7.32422 6.27997 7.32422 6.91997V6.94997ZM12.0142 6.69997C12.0142 7.29997 12.0142 7.89997 12.0142 8.49997C12.0142 9.09997 12.2242 9.41997 12.9442 9.41997H14.4042C15.4042 9.41997 15.4042 9.41997 15.4042 8.41997C15.4042 8.12997 15.2942 8.05997 15.0342 8.06997H13.7642C13.5342 8.06997 13.3442 8.06997 13.3442 7.73997C13.3442 7.40997 13.5342 7.43997 13.7442 7.43997H14.4242C15.4242 7.43997 15.4242 7.43997 15.4242 6.43997C15.4242 6.16997 15.3542 6.05997 15.0742 6.07997C14.6342 6.07997 14.1942 6.07997 13.7542 6.07997C13.5342 6.07997 13.3742 6.07997 13.3642 5.76997C13.3542 5.45997 13.5142 5.39997 13.7742 5.41997H14.4042C15.4742 5.41997 15.4642 5.41997 15.4042 4.41997C15.4042 4.14997 15.2942 4.08997 15.0542 4.09997C14.3042 4.09997 13.5642 4.09997 12.8142 4.09997C12.2642 4.09997 12.0142 4.35997 12.0142 4.91997C12.0142 5.47997 12.0142 6.04997 12.0142 6.66997V6.69997ZM22.7442 4.02997H21.3842C20.5842 4.02997 20.6942 3.91997 20.6942 4.71997C20.6942 5.51997 20.5842 5.38997 21.3442 5.39997H21.6842C21.9642 5.39997 22.0442 5.46997 22.0442 5.74997C22.0442 6.65997 22.0442 7.55997 22.0442 8.46997C22.0442 9.37997 22.0442 9.46997 23.0442 9.46997C23.3842 9.46997 23.4442 9.34996 23.4342 9.04996C23.4342 7.97996 23.4342 6.90997 23.4342 5.83997C23.4342 5.52997 23.5142 5.42997 23.8342 5.42997C24.8342 5.42997 24.8342 5.42997 24.8342 4.42997C24.8342 4.06997 24.7042 3.99997 24.3842 4.01997C23.7842 4.01997 23.2642 3.99997 22.7442 3.99997V4.02997Z" fill="#EF4C23"/>
<path d="M18.7042 6.27991C18.7042 5.68991 18.7042 5.08991 18.7042 4.48991C18.7042 4.14991 18.7042 4.00991 19.1442 4.01991C20.0742 4.01991 20.0742 4.01991 20.0742 5.01991C20.0742 6.16991 20.0742 7.31991 20.0742 8.46991C20.0742 8.87991 20.0742 9.26991 19.5742 9.41991C19.0742 9.56991 18.8642 9.25991 18.6442 8.90991C18.2629 8.3092 17.842 7.73459 17.3842 7.18991C17.3842 7.80991 17.3842 8.43991 17.3842 9.05991C17.3842 9.36991 17.3042 9.46991 16.9742 9.46991C15.9742 9.46991 15.9742 9.46991 15.9742 8.46991C15.9742 7.27991 15.9742 6.09991 15.9742 4.91991C15.9407 4.74172 15.9729 4.55745 16.0649 4.40118C16.1568 4.24491 16.3022 4.12723 16.4742 4.06991C16.8942 3.93991 17.1442 4.19991 17.3542 4.50991L18.5942 6.27991H18.7042Z" fill="#EF4C23"/>
<path d="M7.32422 6.92001C7.32422 6.24001 7.32422 5.56001 7.32422 4.92001C7.32422 4.28001 7.56422 4.05001 8.16422 4.04001H9.62422C9.95508 4.03469 10.2802 4.12661 10.5593 4.30438C10.8384 4.48215 11.0592 4.73793 11.1942 5.04001C11.3374 5.30604 11.3986 5.60849 11.3701 5.90924C11.3416 6.20999 11.2248 6.49558 11.0342 6.73001C10.9715 6.80406 10.9371 6.89796 10.9371 6.99501C10.9371 7.09205 10.9715 7.18596 11.0342 7.26001C11.3486 7.84812 11.4809 8.51648 11.4142 9.18001C11.4142 9.40001 11.3242 9.47001 11.1242 9.46001C10.8811 9.44502 10.6373 9.44502 10.3942 9.46001C10.1142 9.46001 10.0142 9.38001 10.0342 9.10001C10.0834 8.64704 9.99269 8.18986 9.77422 7.79001C9.54422 7.39001 9.20422 7.43002 8.84422 7.44002C8.63422 7.44002 8.71422 7.63001 8.71422 7.74001C8.71422 8.21001 8.71422 8.68001 8.71422 9.15001C8.71422 9.39001 8.64422 9.45001 8.40422 9.46001C7.34422 9.46001 7.34422 9.46001 7.34422 8.46001L7.32422 6.92001Z" fill="#EF4C23"/>
<path d="M12.0142 6.67C12.0142 6.05 12.0142 5.44 12.0142 4.82C12.0142 4.2 12.2642 4.01 12.8142 4C13.5642 4 14.3042 4 15.0542 4C15.2942 4 15.3942 4 15.4042 4.32C15.4042 5.32 15.4042 5.32 14.4042 5.32H13.7742C13.5142 5.32 13.3642 5.32 13.3642 5.67C13.3642 6.02 13.5342 5.98 13.7542 5.98C14.1942 5.98 14.6342 5.98 15.0742 5.98C15.3542 5.98 15.4142 6.07 15.4242 6.34C15.4242 7.34 15.4242 7.34 14.4242 7.34H13.7442C13.5342 7.34 13.3542 7.34 13.3442 7.64C13.3342 7.94 13.5342 7.98 13.7642 7.97H15.0342C15.2942 7.97 15.3942 8.03 15.4042 8.32C15.4042 9.32 15.4042 9.32 14.4042 9.32H12.9442C12.2242 9.32 12.0142 9.11 12.0142 8.4C12.0142 7.69 12.0142 7.28 12.0142 6.67Z" fill="#EF4C23"/>
<path d="M22.7442 4C23.2642 4 23.7442 4 24.3042 4C24.6242 4 24.7542 4 24.7542 4.41C24.7542 5.41 24.7542 5.41 23.7542 5.41C23.4342 5.41 23.3442 5.51 23.3542 5.82C23.3542 6.89 23.3542 7.96 23.3542 9.03C23.3542 9.33 23.3542 9.45 22.9642 9.45C21.9642 9.45 21.9642 9.45 21.9642 8.45C21.9642 7.45 21.9642 6.64 21.9642 5.73C21.9642 5.45 21.8842 5.34 21.6042 5.38H21.2642C20.5042 5.38 20.6142 5.49 20.6142 4.7C20.6142 3.91 20.5042 4.02 21.3042 4.01L22.7442 4Z" fill="#EF4C23"/>
</svg>
