<svg width="43" height="44" viewBox="0 0 43 44" fill="none" xmlns="http://www.w3.org/2000/svg">
<path d="M2.92593 43.0302C2.92593 42.8802 2.73592 42.8802 2.62592 42.8202C2.26492 42.649 1.96027 42.3783 1.74771 42.04C1.53516 41.7017 1.42353 41.3097 1.42593 40.9102C1.42593 40.2702 1.42593 39.6402 1.42593 39.0102C1.43944 38.8988 1.41656 38.786 1.36069 38.6887C1.30481 38.5913 1.21895 38.5147 1.11593 38.4702C0.755709 38.2818 0.458597 37.9919 0.261322 37.6365C0.0640483 37.281 -0.0247395 36.8756 0.00592847 36.4702C0.00592847 33.3902 0.00592847 30.3002 0.00592847 27.2202C-0.000458137 26.8953 0.0611861 26.5727 0.186905 26.273C0.312625 25.9733 0.499634 25.7033 0.735924 25.4802C1.55592 24.6802 2.36593 23.8602 3.29593 22.9502H2.17593C1.89174 22.9584 1.60886 22.9088 1.34442 22.8044C1.07998 22.7 0.839491 22.543 0.637528 22.3429C0.435564 22.1428 0.276336 21.9038 0.169487 21.6403C0.0626386 21.3769 0.0103901 21.0944 0.015923 20.8102C0.00888501 20.5208 0.0612101 20.2329 0.169671 19.9645C0.278131 19.696 0.440433 19.4527 0.646561 19.2493C0.85269 19.046 1.09828 18.8871 1.36819 18.7823C1.6381 18.6776 1.92661 18.6292 2.21593 18.6402H3.67593C4.11826 18.6308 4.5487 18.7838 4.88593 19.0702C5.19593 19.3702 5.26593 19.2102 5.36593 18.9202C5.73593 17.7602 6.13592 16.6102 6.51592 15.4602C6.65257 14.992 6.8861 14.5578 7.20136 14.1857C7.51661 13.8136 7.90657 13.5119 8.34592 13.3002C8.42842 13.2711 8.49835 13.2144 8.5439 13.1397C8.58945 13.065 8.60782 12.9769 8.59592 12.8902C8.57998 10.1942 9.43196 7.5646 11.0259 5.3902C11.965 4.03003 13.1692 2.87361 14.5663 1.99035C15.9633 1.10709 17.5245 0.515199 19.1559 0.250198C21.4877 -0.222695 23.9058 -0.0224845 26.1281 0.827451C28.3503 1.67739 30.2849 3.14197 31.7059 5.0502C33.4436 7.22487 34.3889 9.92653 34.3859 12.7102C34.3669 12.8494 34.395 12.9909 34.4657 13.1123C34.5363 13.2337 34.6455 13.328 34.7759 13.3802C35.175 13.585 35.5291 13.8674 35.8176 14.2108C36.1061 14.5542 36.3231 14.9518 36.4559 15.3802L37.7659 19.2802C38.8259 18.2802 40.0759 18.5502 41.2659 18.6502C42.1759 18.7202 42.6559 19.4302 42.9659 20.2402V21.5102C42.8059 21.5102 42.7959 21.6302 42.7459 21.7202C42.562 22.0883 42.275 22.3949 41.9199 22.6026C41.5648 22.8104 41.1569 22.9103 40.7459 22.8902C40.4459 22.8902 40.1459 22.8902 39.8459 22.8902L39.7759 23.0102C40.1659 23.3802 40.5759 23.7102 40.9359 24.1002C41.7634 24.7791 42.4439 25.6196 42.9359 26.5702V37.1902C42.6634 37.7929 42.1993 38.2886 41.6159 38.6002C41.4759 38.6602 41.5259 38.8302 41.5259 38.9502C41.5259 39.5902 41.5259 40.2202 41.5259 40.8502C41.5236 41.4075 41.3173 41.9447 40.9459 42.3602C40.6495 42.6342 40.3121 42.8602 39.9459 43.0302H33.8059C33.7635 42.9913 33.7165 42.9577 33.6659 42.9302C33.224 42.7815 32.8433 42.4913 32.583 42.1044C32.3227 41.7175 32.1972 41.2556 32.2259 40.7902C32.2259 40.2902 32.2259 39.7902 32.2259 39.2802C32.2259 38.7702 32.1259 38.7402 31.6959 38.7402C25.6959 38.7402 19.7859 38.7402 13.8359 38.7402C12.9459 38.7402 12.0559 38.7402 11.1659 38.7402C10.8059 38.7402 10.7259 38.8402 10.7459 39.1802C10.7459 39.7602 10.7459 40.3402 10.7459 40.9302C10.7442 41.4522 10.5481 41.9549 10.1959 42.3402C9.89898 42.6162 9.56179 42.8455 9.19592 43.0202L2.92593 43.0302ZM21.4559 37.2902H40.5459C41.2859 37.2902 41.5459 37.0802 41.5459 36.2902C41.5459 33.2902 41.5459 30.3502 41.5459 27.3802C41.5622 27.1947 41.5355 27.008 41.4679 26.8346C41.4002 26.6611 41.2935 26.5056 41.1559 26.3802C40.0559 25.3002 38.9759 24.2102 37.8959 23.1002C37.8155 23.0232 37.7193 22.9645 37.614 22.9282C37.5087 22.892 37.3967 22.879 37.2859 22.8902H29.9859C29.7606 22.8827 29.5403 22.9574 29.3659 23.1002C27.1229 24.8226 24.374 25.7562 21.5459 25.7562C18.7179 25.7562 15.969 24.8226 13.7259 23.1002C13.5436 22.9394 13.309 22.8505 13.0659 22.8502C10.6059 22.8502 8.15259 22.8502 5.70593 22.8502C5.60245 22.8462 5.49928 22.8637 5.4029 22.9016C5.30652 22.9394 5.21903 22.9969 5.14593 23.0702C4.09926 24.1502 3.03593 25.2169 1.95593 26.2702C1.80072 26.4114 1.67825 26.5848 1.59706 26.7782C1.51588 26.9717 1.47794 27.1805 1.48592 27.3902C1.48592 30.2902 1.48592 33.2002 1.48592 36.1102C1.48592 36.9802 1.66593 37.1102 2.54593 37.1102L21.4559 37.2902ZM32.9259 12.9902C32.9366 9.96487 31.7463 7.05894 29.6165 4.91035C27.4866 2.76175 24.5912 1.54608 21.5659 1.5302C18.5309 1.52223 15.6169 2.71956 13.4643 4.85906C11.3116 6.99857 10.0965 9.9052 10.0859 12.9402C10.0832 15.9692 11.2798 18.8761 13.4142 21.0254C15.5485 23.1748 18.447 24.3917 21.4759 24.4102C24.5075 24.4102 27.4153 23.208 29.5617 21.0672C31.7081 18.9264 32.918 16.0217 32.9259 12.9902ZM6.06593 21.4902H11.8459C10.196 19.6196 9.11672 17.3153 8.73592 14.8502C8.39305 15.0489 8.13374 15.3651 8.00593 15.7402C7.37593 17.6802 6.73593 19.5702 6.08593 21.4902H6.06593ZM31.1259 21.4902H36.6459C36.8959 21.4902 36.9359 21.4902 36.8559 21.1902C36.2559 19.4302 35.6759 17.6602 35.0759 15.8902C35.0211 15.6647 34.9199 15.453 34.7787 15.2688C34.6375 15.0846 34.4595 14.9318 34.2559 14.8202C33.8831 17.3085 32.8036 19.6374 31.1459 21.5302L31.1259 21.4902ZM6.12592 38.7102H3.20593C2.93593 38.7102 2.84593 38.7802 2.85593 39.0602C2.85593 39.6302 2.85593 40.2002 2.85593 40.7602C2.84266 40.8667 2.85405 40.9748 2.88922 41.0761C2.92439 41.1775 2.98239 41.2695 3.05875 41.3448C3.1351 41.4202 3.22776 41.4771 3.32958 41.5109C3.43139 41.5448 3.53963 41.5548 3.64593 41.5402H8.50593C8.60806 41.5516 8.71144 41.5396 8.8083 41.5053C8.90516 41.471 8.99298 41.4152 9.06516 41.342C9.13734 41.2689 9.19201 41.1803 9.22505 41.083C9.25809 40.9857 9.26865 40.8822 9.25593 40.7802C9.25593 40.2202 9.25593 39.6502 9.25593 39.0802C9.25593 38.7702 9.16592 38.7002 8.87592 38.7102C8.03592 38.7702 7.10593 38.7502 6.18593 38.7502L6.12592 38.7102ZM36.8359 38.7102C35.8959 38.7102 34.9559 38.7102 34.0159 38.7102C33.7059 38.7102 33.6259 38.8002 33.6459 39.0902C33.6459 39.6402 33.6459 40.1902 33.6459 40.7402C33.6459 41.2902 33.8959 41.5402 34.4559 41.5402H39.2159C39.7959 41.5402 40.0359 41.2902 40.0459 40.7102C40.0559 40.1302 40.0459 39.6402 40.0459 39.1002C40.0459 38.7602 39.9259 38.7002 39.6259 38.7102H36.8359ZM3.04593 21.4902H3.96593C4.07593 21.4902 4.19593 21.4902 4.25593 21.3902C4.31297 21.2569 4.33807 21.1122 4.32922 20.9675C4.32036 20.8228 4.27781 20.6821 4.20494 20.5568C4.13208 20.4315 4.03092 20.3249 3.90955 20.2457C3.78819 20.1664 3.64997 20.1166 3.50593 20.1002H2.14593C2.05277 20.0988 1.96029 20.1163 1.87408 20.1516C1.78786 20.1869 1.70969 20.2393 1.64428 20.3057C1.57887 20.372 1.52758 20.4509 1.49348 20.5376C1.45939 20.6244 1.44321 20.7171 1.44592 20.8102C1.44457 20.8999 1.46125 20.9889 1.49494 21.072C1.52864 21.1551 1.57868 21.2306 1.64209 21.294C1.7055 21.3575 1.781 21.4075 1.86411 21.4412C1.94722 21.4749 2.03625 21.4915 2.12592 21.4902H3.04593ZM39.8159 21.4902C40.1559 21.4902 40.4959 21.4902 40.8159 21.4902C40.9017 21.4902 40.9866 21.473 41.0656 21.4396C41.1445 21.4062 41.216 21.3573 41.2757 21.2957C41.3354 21.2342 41.3821 21.1612 41.4131 21.0813C41.444 21.0013 41.4586 20.9159 41.4559 20.8302C41.4656 20.7443 41.4575 20.6572 41.4321 20.5746C41.4067 20.4919 41.3645 20.4153 41.3082 20.3497C41.2519 20.284 41.1827 20.2306 41.1049 20.1929C41.0271 20.1551 40.9423 20.1338 40.8559 20.1302C40.3238 20.0802 39.7881 20.0802 39.2559 20.1302C38.7759 20.1302 38.5659 20.5802 38.6359 21.2502C38.6359 21.7402 39.0559 21.4302 39.2659 21.4902C39.4818 21.5424 39.7053 21.556 39.9259 21.5302L39.8159 21.4902Z" fill="#EF4C23"/>
<path d="M21.5159 27.2702C24.0359 27.2702 26.5159 27.2702 29.0559 27.2702C29.4095 27.2181 29.7703 27.2889 30.078 27.471C30.3856 27.653 30.6214 27.9352 30.7459 28.2702C30.8622 28.6108 30.8603 28.9805 30.7405 29.3198C30.6208 29.6591 30.3901 29.9482 30.0859 30.1402C29.4559 30.6702 28.8159 31.1402 28.1859 31.7302C27.771 32.0992 27.2309 32.2959 26.6759 32.2802H16.3159C15.8097 32.2939 15.3158 32.1233 14.9259 31.8002L13.0159 30.2202C12.7017 30.0269 12.4624 29.7328 12.3371 29.3858C12.2117 29.0389 12.2078 28.6597 12.3259 28.3102C12.4533 27.9686 12.6956 27.682 13.0113 27.4995C13.3269 27.317 13.6963 27.2501 14.0559 27.3102C16.5259 27.2602 19.0159 27.2702 21.5159 27.2702ZM13.6359 28.8402C14.3359 29.4202 15.0059 29.9502 15.6359 30.5202C15.7684 30.6454 15.9263 30.7405 16.0989 30.7991C16.2714 30.8578 16.4546 30.8786 16.6359 30.8602C19.8159 30.8602 22.9959 30.8602 26.1759 30.8602C26.4367 30.8822 26.6993 30.85 26.9471 30.7656C27.1948 30.6813 27.4226 30.5467 27.6159 30.3702C28.1259 29.8902 28.6859 29.4702 29.2159 29.0202C29.2859 28.9602 29.3959 28.9102 29.3359 28.7902C29.2759 28.6702 29.1959 28.7302 29.1159 28.7302H14.1959C14.0021 28.6987 13.8034 28.7377 13.6359 28.8402Z" fill="#EF4C23"/>
<path d="M35.8459 32.3102H33.1759C32.8448 32.33 32.516 32.2437 32.2373 32.0639C31.9586 31.884 31.7444 31.6201 31.6259 31.3102C31.5078 30.9948 31.4956 30.6495 31.5912 30.3265C31.6869 30.0035 31.8851 29.7205 32.156 29.5202C32.876 28.9202 33.6059 28.3302 34.3259 27.7202C34.6591 27.4325 35.0857 27.2761 35.5259 27.2802H38.6359C38.8387 27.2717 39.041 27.3054 39.23 27.3794C39.419 27.4534 39.5904 27.566 39.7334 27.7099C39.8765 27.8539 39.9879 28.0261 40.0607 28.2156C40.1334 28.405 40.1659 28.6075 40.156 28.8102C40.156 29.4802 40.156 30.1402 40.156 30.8102C40.1646 31.0139 40.1306 31.2171 40.056 31.4068C39.9814 31.5965 39.8679 31.7684 39.7229 31.9116C39.5778 32.0548 39.4044 32.166 39.2137 32.2381C39.0231 32.3102 38.8195 32.3416 38.616 32.3302L35.8459 32.3102ZM35.8459 30.8602H38.3759C38.6459 30.8602 38.7459 30.7902 38.7359 30.5102C38.7109 30.0406 38.7109 29.5699 38.7359 29.1002C38.7359 28.7802 38.6259 28.7202 38.3459 28.7302C37.4659 28.7302 36.5859 28.7302 35.7159 28.7302C35.5366 28.7178 35.3589 28.7712 35.2159 28.8802C34.5659 29.4402 33.9059 29.9802 33.2159 30.5402C33.1359 30.6002 33.026 30.6502 33.046 30.7602C33.066 30.8702 33.236 30.8502 33.336 30.8502L35.8459 30.8602Z" fill="#EF4C23"/>
<path d="M7.15593 32.3102H4.43593C4.23263 32.316 4.03032 32.2796 3.84181 32.2032C3.65331 32.1269 3.48269 32.0122 3.34077 31.8665C3.19885 31.7209 3.0887 31.5473 3.01729 31.3569C2.94588 31.1664 2.91478 30.9632 2.92593 30.7602C2.92593 30.0935 2.92593 29.4435 2.92593 28.8102C2.91239 28.6027 2.94363 28.3947 3.01752 28.2004C3.09141 28.0061 3.20622 27.8299 3.35418 27.6838C3.50214 27.5378 3.67978 27.4253 3.87505 27.3539C4.07032 27.2825 4.27865 27.2539 4.48593 27.2702H7.54593C7.97134 27.2585 8.3867 27.4005 8.71593 27.6702L10.9259 29.5302C11.1915 29.7344 11.3838 30.0192 11.474 30.3419C11.5641 30.6646 11.5473 31.0078 11.4259 31.3202C11.3072 31.6257 11.0958 31.8864 10.8215 32.0658C10.5471 32.2451 10.2234 32.3341 9.89593 32.3202L7.15593 32.3102ZM7.15593 30.8602H9.63593C9.75593 30.8602 9.92593 30.9402 9.97593 30.7802C10.0259 30.6202 9.85593 30.5702 9.75593 30.4902L7.92593 28.9202C7.79544 28.7988 7.6241 28.731 7.44593 28.7302C6.51593 28.7302 5.59593 28.7302 4.66593 28.7302C4.43593 28.7302 4.35593 28.8002 4.35593 29.0402C4.38093 29.5265 4.38093 30.0138 4.35593 30.5002C4.35593 30.8202 4.46593 30.8702 4.74593 30.8602H7.15593Z" fill="#EF4C23"/>
<path d="M21.4659 35.9003H15.3859C15.1932 35.9122 15 35.8884 14.8159 35.8303C14.6674 35.7826 14.5402 35.6845 14.4562 35.5531C14.3723 35.4217 14.3368 35.2651 14.3559 35.1103C14.3565 34.9618 14.4072 34.8178 14.4997 34.7017C14.5923 34.5855 14.7213 34.504 14.8659 34.4703C15.0584 34.4451 15.2534 34.4451 15.4459 34.4703H27.6059C27.749 34.4603 27.8927 34.4603 28.0359 34.4703C28.2101 34.4804 28.3741 34.5562 28.4947 34.6823C28.6153 34.8085 28.6836 34.9757 28.6859 35.1503C28.6956 35.2397 28.6874 35.3301 28.6619 35.4163C28.6364 35.5025 28.5941 35.5828 28.5374 35.6525C28.4806 35.7223 28.4107 35.7801 28.3314 35.8226C28.2522 35.8651 28.1654 35.8915 28.0759 35.9003C27.9162 35.9155 27.7555 35.9155 27.5959 35.9003H21.4659Z" fill="#EF4C23"/>
<path d="M6.9259 34.4203H9.2159C9.7759 34.4203 10.1159 34.7003 10.1259 35.1403C10.1359 35.5803 9.79589 35.8803 9.23589 35.8903H4.5659C3.9759 35.8903 3.66589 35.6303 3.66589 35.1603C3.66589 34.6903 3.9559 34.4203 4.5459 34.4203H6.9259Z" fill="#EF4C23"/>
<path d="M36.2259 34.4203H38.5159C39.1059 34.4203 39.4159 34.6803 39.4159 35.1403C39.4159 35.6003 39.1159 35.8903 38.4959 35.8903H33.9259C33.3459 35.8903 33.0159 35.6103 33.0059 35.1603C32.9959 34.7103 33.3459 34.4203 33.9459 34.4203H36.2259Z" fill="#EF4C23"/>
<path d="M22.2259 8.68027C22.2402 7.81078 22.5562 6.97327 23.1199 6.31109C23.6835 5.6489 24.4598 5.20321 25.3159 5.05027C25.5529 4.99726 25.8001 5.01278 26.0287 5.09502C26.2572 5.17726 26.4576 5.32282 26.6065 5.51471C26.7554 5.7066 26.8467 5.9369 26.8696 6.1787C26.8925 6.42051 26.8461 6.66384 26.7359 6.88027C26.6259 7.14027 26.5059 7.39027 26.7359 7.64027C26.9659 7.89027 27.2459 7.79027 27.5259 7.64027C27.742 7.53288 27.9841 7.48877 28.2242 7.51303C28.4643 7.53729 28.6926 7.62892 28.8829 7.77737C29.0731 7.92582 29.2176 8.12502 29.2995 8.35202C29.3814 8.57901 29.3975 8.82453 29.3459 9.06027C29.2352 9.90464 28.8327 10.6837 28.2081 11.2626C27.5835 11.8415 26.7762 12.1838 25.9259 12.2303C25.0659 12.2303 24.8159 12.9003 24.3059 13.3003C24.1759 13.4103 24.4059 13.5003 24.4759 13.5803L28.1459 17.2703C28.3149 17.4062 28.4512 17.5782 28.5449 17.7738C28.6386 17.9693 28.6873 18.1834 28.6873 18.4003C28.6873 18.6171 28.6386 18.8312 28.5449 19.0268C28.4512 19.2223 28.3149 19.3944 28.1459 19.5303L27.3659 20.3203C27.2262 20.4917 27.05 20.6299 26.8502 20.7248C26.6505 20.8197 26.4321 20.869 26.2109 20.869C25.9897 20.869 25.7713 20.8197 25.5715 20.7248C25.3718 20.6299 25.1956 20.4917 25.0559 20.3203C23.8359 19.1069 22.6259 17.8936 21.4259 16.6803C21.3259 16.5903 21.2559 16.3503 21.0559 16.4603C20.9579 16.5168 20.879 16.6012 20.8292 16.7027C20.7793 16.8042 20.7608 16.9182 20.7759 17.0303C20.7964 17.6504 20.6606 18.2658 20.381 18.8198C20.1014 19.3737 19.687 19.8484 19.1759 20.2003C18.6964 20.5658 18.1179 20.7784 17.5159 20.8103C17.2968 20.8263 17.0774 20.7856 16.8786 20.6922C16.6798 20.5988 16.5083 20.4559 16.3808 20.2771C16.2532 20.0983 16.1738 19.8897 16.1502 19.6713C16.1265 19.453 16.1595 19.2322 16.2459 19.0303C16.3659 18.7403 16.5459 18.4703 16.2459 18.1903C15.9459 17.9103 15.6859 18.0903 15.3959 18.1903C15.1813 18.2783 14.9468 18.3064 14.7175 18.2715C14.4882 18.2366 14.2727 18.14 14.094 17.9922C13.9153 17.8443 13.7801 17.6506 13.703 17.4319C13.6258 17.2131 13.6095 16.9775 13.6559 16.7503C13.8168 15.8979 14.2668 15.1271 14.9298 14.5679C15.5929 14.0086 16.4286 13.6951 17.2959 13.6803C17.4059 13.6803 17.5159 13.6803 17.6359 13.6803C17.7165 13.6696 17.793 13.6382 17.8578 13.5891C17.9227 13.54 17.9737 13.475 18.0059 13.4003C18.0859 13.2603 17.8959 13.2003 17.8159 13.1103C17.4859 12.7603 17.1259 12.4303 16.8159 12.1103C16.6359 11.9203 16.5159 11.9103 16.3059 12.1103C16.1721 12.2922 15.9974 12.4401 15.7959 12.542C15.5944 12.6439 15.3717 12.697 15.1459 12.697C14.9201 12.697 14.6974 12.6439 14.4959 12.542C14.2944 12.4401 14.1197 12.2922 13.9859 12.1103C13.5259 11.6603 13.0559 11.2103 12.6159 10.7303C12.4803 10.6014 12.3724 10.4462 12.2987 10.2743C12.2249 10.1024 12.1869 9.91733 12.1869 9.73027C12.1869 9.54321 12.2249 9.35811 12.2987 9.1862C12.3724 9.0143 12.4803 8.85918 12.6159 8.73027C13.6159 7.65027 14.7359 6.59027 15.8059 5.53027C15.9743 5.36237 16.1849 5.24308 16.4155 5.18499C16.6461 5.1269 16.8881 5.13218 17.1159 5.20027C17.9559 5.40027 18.7859 5.60027 19.6159 5.84027C19.8535 5.91184 20.0686 6.04361 20.2403 6.2228C20.4121 6.40199 20.5345 6.62252 20.5959 6.86299C20.6573 7.10346 20.6555 7.35571 20.5906 7.59527C20.5258 7.83483 20.4002 8.05357 20.2259 8.23027C19.6259 8.88027 19.6259 8.88027 20.2259 9.50027C21.1659 10.5003 21.2259 10.4503 22.0759 9.36027C22.2959 9.10027 22.1859 8.89027 22.2259 8.68027ZM25.1359 6.68027C24.6616 6.86147 24.2634 7.19908 24.007 7.63729C23.7506 8.07549 23.6515 8.58806 23.7259 9.09027C23.756 9.30502 23.7314 9.52389 23.6545 9.72664C23.5776 9.92939 23.4508 10.1095 23.2859 10.2503C21.8159 11.6803 20.3459 13.1103 18.9259 14.6003C18.7433 14.8203 18.505 14.9874 18.236 15.0841C17.9669 15.1808 17.6768 15.2037 17.3959 15.1503C16.9145 15.1034 16.4324 15.2326 16.0389 15.5139C15.6455 15.7952 15.3673 16.2096 15.2559 16.6803C15.6062 16.5721 15.98 16.5654 16.334 16.661C16.688 16.7565 17.0076 16.9505 17.2559 17.2203C17.5204 17.4845 17.7057 17.8175 17.7905 18.1816C17.8753 18.5457 17.8564 18.9264 17.7359 19.2803C18.2309 19.1077 18.6513 18.7699 18.9263 18.3236C19.2013 17.8774 19.3142 17.35 19.2459 16.8303C19.2013 16.6503 19.2076 16.4615 19.2641 16.2849C19.3206 16.1083 19.4251 15.9509 19.5659 15.8303C21.1459 14.2636 22.7192 12.6903 24.2859 11.1103C24.4238 10.9533 24.6018 10.8368 24.8009 10.7734C25 10.7099 25.2126 10.702 25.4159 10.7503C25.9193 10.8259 26.4329 10.7124 26.8576 10.4317C27.2823 10.151 27.5881 9.72305 27.7159 9.23027C27.2271 9.37057 26.7039 9.32697 26.2451 9.1077C25.7863 8.88844 25.4237 8.50871 25.2259 8.04027C25.0997 7.59731 25.0859 7.12988 25.1859 6.68027V6.63027C25.1859 6.63027 25.1659 6.68027 25.1359 6.68027ZM19.2159 7.16027L17.1259 6.63027C17.0128 6.59064 16.8901 6.58766 16.7752 6.62177C16.6603 6.65588 16.559 6.72534 16.4859 6.82027C15.7759 7.55027 15.0559 8.27027 14.3259 8.99027C13.5959 9.71027 13.6459 9.66027 14.3259 10.3403C14.5859 10.6003 14.8359 11.0203 15.1359 11.0603C15.4359 11.1003 15.6759 10.6203 15.9359 10.3703L19.2159 7.16027ZM23.1659 14.4303L22.9759 14.5903C22.8278 14.7651 22.6637 14.9258 22.4859 15.0703C22.1559 15.3103 22.2359 15.4903 22.4859 15.7403C23.4859 16.7403 24.4859 17.6803 25.4159 18.6603C26.1959 19.4403 26.1859 19.4303 26.9359 18.6603C27.1059 18.4803 27.1059 18.3803 26.9359 18.2003C25.7459 17.0303 24.5759 15.8403 23.3859 14.6603C23.3259 14.5503 23.2459 14.4903 23.1659 14.4103V14.4303ZM20.0559 11.3303L19.8859 11.1403L19.3059 10.5503C18.5159 9.77027 18.5159 9.78027 17.7559 10.6203C17.6059 10.7703 17.6059 10.8603 17.7559 11.0003C18.1459 11.3703 18.5159 11.7603 18.8959 12.1303C18.9559 12.2003 19.0159 12.2903 19.1259 12.2803C19.4786 12.0008 19.7915 11.6745 20.0559 11.3103V11.3303Z" fill="#EF4C23"/>
<path d="M25.136 6.68018C25.136 6.68018 25.206 6.68018 25.236 6.68018V6.73018L25.136 6.68018Z" fill="#EF4C23"/>
</svg>
