<svg width="41" height="40" viewBox="0 0 41 40" fill="none" xmlns="http://www.w3.org/2000/svg">
<path d="M9.23697 19.7349L11.517 20.3249C12.517 20.5849 13.517 20.8449 14.587 21.0849C15.1017 21.1743 15.5819 21.4035 15.9752 21.7474C16.3685 22.0913 16.6597 22.5367 16.817 23.0349C16.8429 23.1173 16.893 23.19 16.9607 23.2435C17.0285 23.297 17.1108 23.3289 17.197 23.3349L19.857 23.9249C19.955 23.9545 20.0594 23.9562 20.1583 23.9297C20.2573 23.9032 20.3469 23.8496 20.417 23.7749C20.7506 23.4521 21.1592 23.2173 21.606 23.0916C22.0529 22.9659 22.524 22.9533 22.977 23.0549C27.0503 23.8616 31.117 24.6783 35.177 25.5049C35.577 25.5849 35.697 25.5749 35.727 25.0949C36.017 20.8749 36.347 16.6549 36.657 12.4249C36.737 11.3249 36.807 10.2249 36.897 9.12492C36.9094 9.03086 36.8986 8.93517 36.8655 8.84626C36.8324 8.75734 36.7779 8.67791 36.707 8.61493C35.267 7.18493 33.837 5.74493 32.407 4.31493C32.1261 4.07181 31.9143 3.75884 31.7932 3.40765C31.672 3.05647 31.6457 2.67953 31.717 2.31493C31.787 1.93493 31.857 1.55492 31.917 1.16492C31.9501 0.898745 32.0636 0.648981 32.2422 0.448894C32.4209 0.248808 32.6562 0.107896 32.917 0.0449255C33.179 -0.0246724 33.4559 -0.0131881 33.7112 0.0778654C33.9665 0.168919 34.1882 0.335258 34.347 0.554924C35.347 1.68492 36.347 2.82493 37.347 3.95493C38.347 5.08493 39.117 5.95493 40.007 6.95493C40.2282 7.19359 40.3467 7.50965 40.337 7.83492C40.337 15.4949 40.337 23.1549 40.337 30.8349C40.3449 31.9648 40.1286 33.0851 39.7004 34.1308C39.2723 35.1764 38.6409 36.1268 37.8429 36.9267C37.0448 37.7266 36.096 38.3602 35.0513 38.7907C34.0066 39.2213 32.8869 39.4402 31.757 39.4349C30.0753 39.5498 28.3861 39.3877 26.757 38.9549C24.7997 38.3332 23.0694 37.1475 21.7833 35.5464C20.4971 33.9454 19.7122 32.0002 19.527 29.9549C19.5309 29.739 19.4841 29.5252 19.3903 29.3307C19.2965 29.1361 19.1583 28.9663 18.987 28.8349C18.927 28.7849 18.867 28.7149 18.817 28.6649C17.997 27.8449 17.977 27.8449 16.977 28.4749C16.9282 28.5017 16.8859 28.5389 16.8531 28.5838C16.8202 28.6287 16.7977 28.6803 16.787 28.7349C15.947 32.7349 12.027 35.5249 7.00698 34.3149C5.02473 33.834 3.2597 32.7052 1.99168 31.1075C0.723655 29.5098 0.0251858 27.5346 0.00697643 25.4949C0.00697643 23.1749 0.00697643 20.8549 0.00697643 18.4949C-0.0202038 18.2853 0.0326386 18.0731 0.154971 17.9008C0.277304 17.7284 0.46013 17.6085 0.666972 17.5649L10.767 14.2149C13.767 13.2149 16.667 12.2649 19.607 11.2149C20.5431 10.8356 21.5861 10.8142 22.537 11.1549C24.977 12.0249 27.467 12.7649 29.927 13.5649C30.2234 13.6442 30.484 13.8221 30.6658 14.0693C30.8475 14.3166 30.9397 14.6183 30.927 14.9249C30.927 15.2649 30.927 15.6049 30.927 15.9249C30.9247 16.2931 30.8304 16.6549 30.6527 16.9774C30.4751 17.2999 30.2197 17.5728 29.9097 17.7715C29.5997 17.9702 29.245 18.0883 28.8778 18.1151C28.5106 18.1419 28.1425 18.0765 27.807 17.9249C25.807 17.0649 23.737 16.1749 21.697 15.2949C21.5479 15.2057 21.381 15.1504 21.2081 15.1331C21.0353 15.1159 20.8607 15.137 20.697 15.1949C16.977 16.6449 13.237 18.0649 9.49697 19.4849L9.23697 19.7349ZM20.867 27.8849C20.867 28.3549 20.867 28.8249 20.867 29.2949C20.9163 31.2656 21.6113 33.1657 22.8452 34.7031C24.0791 36.2405 25.7836 37.3302 27.697 37.8049C29.1314 38.0924 30.5991 38.1766 32.057 38.0549C33.6915 37.9885 35.2541 37.3651 36.4855 36.2883C37.7169 35.2115 38.5431 33.7459 38.827 32.1349C38.9374 30.8046 38.9774 29.4694 38.947 28.1349C38.947 27.7049 38.797 27.5949 38.427 27.5249L31.757 26.2049C28.757 25.5949 25.757 24.9849 22.757 24.4049C22.5313 24.3434 22.2941 24.3369 22.0654 24.3862C21.8367 24.4354 21.6232 24.5389 21.4429 24.6878C21.2625 24.8368 21.1206 25.027 21.0291 25.2423C20.9376 25.4576 20.8991 25.6917 20.917 25.9249C20.857 26.6149 20.867 27.2649 20.867 27.9149V27.8849ZM1.40697 22.8349V25.1749C1.3731 26.2906 1.57755 27.4007 2.00667 28.4311C2.43579 29.4615 3.07973 30.3885 3.8955 31.1504C4.71128 31.9122 5.68014 32.4913 6.73745 32.849C7.79477 33.2068 8.91621 33.3349 10.027 33.2249C11.3321 33.1372 12.5717 32.6212 13.5536 31.7569C14.5354 30.8926 15.2045 29.7284 15.457 28.4449C15.6654 26.8835 15.6989 25.3038 15.557 23.7349C15.5407 23.4381 15.4239 23.1556 15.2258 22.9339C15.0277 22.7121 14.7601 22.5644 14.467 22.5149C13.637 22.2949 12.807 22.0949 11.967 21.8849C8.59364 21.0449 5.21697 20.1983 1.83697 19.3449C1.49697 19.2549 1.39697 19.3449 1.40697 19.6749C1.42697 20.7349 1.40697 21.7849 1.40697 22.8349ZM3.18697 18.2649C4.44697 18.5849 5.56697 18.8549 6.67697 19.1449C6.81961 19.1767 6.96895 19.1554 7.09697 19.0849L12.097 17.1749C14.617 16.1749 17.187 15.3449 19.657 14.2549C20.1602 14.0339 20.7084 13.9341 21.2572 13.9636C21.8061 13.9931 22.3404 14.1511 22.817 14.4249C24.597 15.2349 26.407 15.9849 28.207 16.7449C28.987 17.0749 29.527 16.7449 29.537 15.8749C29.5218 15.7454 29.5218 15.6145 29.537 15.4849C29.607 15.0849 29.427 14.9249 29.057 14.8049C26.5236 14.0049 23.997 13.1949 21.477 12.3749C21.2471 12.2949 20.9969 12.2949 20.767 12.3749L9.12697 16.2649L3.18697 18.2649ZM33.347 1.47493C33.147 1.67493 33.227 1.92493 33.167 2.13493C33.0736 2.38493 33.0621 2.65811 33.1339 2.91511C33.2058 3.1721 33.3575 3.39964 33.567 3.56493C35.017 4.95493 36.417 6.40493 37.857 7.81493C38.03 7.96979 38.1624 8.16472 38.2426 8.38264C38.3228 8.60057 38.3484 8.83484 38.317 9.06493C38.177 10.5149 38.087 11.9749 37.977 13.4249C37.797 15.8849 37.6136 18.3449 37.427 20.8049C37.317 22.3749 37.197 23.9349 37.097 25.5049C37.097 25.6649 36.987 25.8749 37.277 25.9249L38.967 26.2749V25.6549C38.967 20.0349 38.967 14.4249 38.967 8.81493C39.0021 8.52119 38.966 8.22329 38.8615 7.94651C38.7571 7.66972 38.5874 7.4222 38.367 7.22493C38.1094 6.97395 37.872 6.70312 37.657 6.41492L33.347 1.47493ZM19.547 27.3849C19.547 26.6749 19.547 26.0849 19.547 25.4949C19.547 25.2849 19.427 25.2549 19.277 25.2249C18.597 25.0749 17.917 24.9349 17.277 24.7749C17.067 24.7749 17.027 24.7749 17.027 24.9949V26.7349C17.027 27.0249 17.147 26.9549 17.327 26.8849C18.447 26.3949 18.447 26.3949 19.327 27.2549L19.547 27.3849Z" fill="#EF4C23"/>
<path d="M35.217 30.1549C35.347 30.1549 35.397 30.1549 35.437 30.2949L35.827 31.1849C35.947 31.4349 35.707 31.4449 35.577 31.4949L31.037 33.4949C29.647 34.0849 28.257 34.6649 26.887 35.2749C26.547 35.4249 26.417 35.3549 26.287 35.0349C25.917 34.1749 25.907 34.1849 26.747 33.8249L34.997 30.2949L35.217 30.1549Z" fill="#EF4C23"/>
<path d="M33.847 29.2549C33.847 29.4449 33.637 29.4549 33.497 29.5149L28.727 31.7349C28.077 32.0349 27.427 32.3149 26.787 32.6349C26.547 32.7449 26.467 32.6349 26.357 32.4749C25.877 31.5449 25.867 31.5449 26.817 31.1049C28.817 30.1749 30.817 29.2649 32.817 28.3249C33.217 28.1349 33.407 28.2049 33.517 28.6149C33.627 28.7949 33.747 29.0149 33.847 29.2549Z" fill="#EF4C23"/>
<path d="M34.5169 34.635C34.5169 34.785 34.3769 34.805 34.2769 34.845L30.0869 36.635C29.9069 36.715 29.7869 36.715 29.7269 36.505C29.7346 36.4754 29.7346 36.4445 29.7269 36.415C29.2969 35.415 29.2969 35.465 30.2669 35.065C31.3869 34.605 32.5069 34.135 33.6069 33.635C33.9869 33.455 34.1569 33.535 34.2669 33.915C34.3358 34.1597 34.4193 34.4002 34.5169 34.635Z" fill="#EF4C23"/>
</svg>
