<svg width="41" height="41" viewBox="0 0 41 41" fill="none" xmlns="http://www.w3.org/2000/svg">
<path d="M0.0182342 20.1353C0.0182342 16.1353 0.0182342 12.2453 0.0182342 8.30533C-0.0233895 7.9992 0.00647651 7.68758 0.105492 7.39492C0.204507 7.10226 0.36998 6.83652 0.588928 6.61854C0.807876 6.40056 1.07434 6.23627 1.36744 6.13856C1.66053 6.04084 1.97229 6.01236 2.27824 6.05534C6.58824 6.05534 10.9082 6.05534 15.2782 6.05534C15.6868 6.02737 16.0945 6.12062 16.4503 6.32342C16.8061 6.52622 17.0941 6.82953 17.2782 7.19534C17.4082 7.43534 17.5882 7.40534 17.7682 7.40534H21.2282C22.0182 7.40534 22.1782 7.58534 22.2282 8.40534C22.1881 8.79097 22.1881 9.17971 22.2282 9.56534C22.2817 9.89725 22.4286 10.2071 22.6518 10.4585C22.8749 10.71 23.165 10.8927 23.4882 10.9853C23.7962 11.0951 24.1291 11.1149 24.4479 11.0423C24.7667 10.9697 25.0582 10.8077 25.2882 10.5753C25.5582 10.3253 25.8082 10.0453 26.0882 9.78534C26.1519 9.70425 26.2331 9.63868 26.3258 9.59359C26.4184 9.5485 26.5202 9.52507 26.6232 9.52507C26.7263 9.52507 26.828 9.5485 26.9207 9.59359C27.0134 9.63868 27.0946 9.70425 27.1582 9.78534C28.0882 10.6853 28.9982 11.6053 29.9082 12.5353C29.9932 12.5997 30.0621 12.6828 30.1095 12.7782C30.1569 12.8737 30.1816 12.9788 30.1816 13.0853C30.1816 13.1919 30.1569 13.297 30.1095 13.3924C30.0621 13.4878 29.9932 13.571 29.9082 13.6353C29.6882 13.8753 29.4482 14.1053 29.2282 14.3353C28.9736 14.5854 28.7973 14.9041 28.7206 15.2526C28.6439 15.6011 28.6702 15.9644 28.7963 16.2983C28.9224 16.6321 29.1429 16.9221 29.4309 17.1328C29.7189 17.3436 30.0619 17.4661 30.4182 17.4853C30.7882 17.4853 31.1682 17.4853 31.5382 17.4853C31.9082 17.4853 32.2982 17.7353 32.3182 18.2653V18.3653C32.3182 19.4953 32.3182 19.4953 33.4482 19.4953C34.2882 19.4953 35.1382 19.4953 35.9782 19.4953C36.1107 19.512 36.2451 19.4861 36.362 19.4214C36.4788 19.3567 36.572 19.2565 36.6282 19.1353C36.8333 18.7712 37.1503 18.4831 37.5323 18.3137C37.9143 18.1443 38.3408 18.1028 38.7482 18.1953C39.0724 18.2639 39.3744 18.4118 39.6272 18.6259C39.88 18.8401 40.0757 19.1136 40.1966 19.4221C40.3175 19.7305 40.3599 20.0642 40.32 20.393C40.2801 20.7219 40.1591 21.0358 39.9679 21.3063C39.7767 21.5769 39.5213 21.7957 39.2246 21.9431C38.9279 22.0906 38.5993 22.162 38.2682 22.151C37.9371 22.14 37.6139 22.0469 37.3276 21.8801C37.0414 21.7133 36.8011 21.478 36.6282 21.1953C36.5676 21.0762 36.4716 20.9787 36.3535 20.916C36.2354 20.8534 36.1009 20.8287 35.9682 20.8453C34.8882 20.8453 33.7982 20.8453 32.7082 20.8453C32.3882 20.8453 32.2882 20.9353 32.3182 21.2453C32.3332 21.5385 32.3332 21.8322 32.3182 22.1253C32.3246 22.2228 32.3096 22.3205 32.2743 22.4116C32.2389 22.5027 32.184 22.585 32.1135 22.6526C32.043 22.7203 31.9586 22.7717 31.8661 22.8032C31.7736 22.8348 31.6754 22.8458 31.5782 22.8353C31.2082 22.8353 30.8282 22.8353 30.4582 22.8353C30.0896 22.8365 29.7305 22.9528 29.4311 23.1679C29.1317 23.3831 28.907 23.6863 28.7882 24.0353C28.6422 24.3727 28.6062 24.7474 28.6852 25.1064C28.7641 25.4654 28.9541 25.7904 29.2282 26.0353C29.4682 26.2753 29.7082 26.5053 29.9482 26.7553C30.0187 26.8182 30.0751 26.8952 30.1137 26.9814C30.1523 27.0676 30.1723 27.1609 30.1723 27.2553C30.1723 27.3498 30.1523 27.4431 30.1137 27.5293C30.0751 27.6154 30.0187 27.6925 29.9482 27.7553C29.0282 28.6953 28.0982 29.6253 27.1582 30.5353C27.0958 30.6182 27.015 30.6854 26.9221 30.7316C26.8293 30.7779 26.727 30.802 26.6232 30.802C26.5195 30.802 26.4172 30.7779 26.3243 30.7316C26.2315 30.6854 26.1507 30.6182 26.0882 30.5353C25.8382 30.3053 25.6082 30.0553 25.3682 29.8153C25.1209 29.5446 24.7948 29.3584 24.4359 29.2831C24.077 29.2077 23.7036 29.247 23.3682 29.3953C23.0227 29.5267 22.726 29.7614 22.5184 30.0673C22.3109 30.3732 22.2026 30.7357 22.2082 31.1053C22.2082 31.4253 22.2082 31.7553 22.2082 32.1053C22.2082 32.7153 21.9982 32.9253 21.3882 32.9353C20.2082 32.9353 19.0182 32.9353 17.8382 32.9353C17.7138 32.9213 17.5881 32.9465 17.4787 33.0074C17.3693 33.0684 17.2817 33.1621 17.2282 33.2753C17.062 33.5847 16.8132 33.8419 16.5096 34.0185C16.206 34.195 15.8593 34.2839 15.5082 34.2753H2.02824C1.75696 34.2757 1.48845 34.2208 1.23904 34.1141C0.989636 34.0074 0.764547 33.8511 0.577461 33.6546C0.390375 33.4582 0.245206 33.2258 0.150787 32.9714C0.0563687 32.7171 0.0146723 32.4463 0.0282363 32.1753C0.0082363 28.1453 0.0182342 24.1453 0.0182342 20.1353ZM1.38824 20.1353C1.38824 24.0653 1.38824 27.9853 1.38824 31.9153C1.38824 32.6853 1.55824 32.9153 2.31824 32.9153H15.1682C15.9282 32.9153 16.1682 32.7253 16.1682 31.9153V8.37533C16.1682 7.65533 15.9682 7.44533 15.3082 7.43533H13.0182C12.3982 7.43533 12.2282 7.60534 12.1582 8.23534C12.1203 8.73936 11.893 9.21033 11.5219 9.55354C11.1509 9.89676 10.6637 10.0868 10.1582 10.0853H7.42824C6.92119 10.0866 6.4326 9.89519 6.0613 9.54989C5.69001 9.20458 5.46373 8.73114 5.42824 8.22534C5.42824 7.62534 5.17824 7.44533 4.55824 7.43533H2.37823C1.53823 7.43533 1.37823 7.58534 1.37823 8.43534C1.37823 12.3353 1.38824 16.2453 1.38824 20.1553V20.1353ZM17.4782 12.9853C20.9182 12.2853 23.7582 13.2053 25.6882 16.1553C26.4962 17.3122 26.9294 18.6893 26.9294 20.1003C26.9294 21.5114 26.4962 22.8885 25.6882 24.0453C23.7682 27.0453 20.9082 28.0453 17.4282 27.2953C17.4282 28.5853 17.4282 29.8653 17.4282 31.1453C17.4282 31.4853 17.5382 31.5453 17.8382 31.5353C18.6782 31.5353 19.5282 31.5353 20.3682 31.5353C20.6882 31.5353 20.7782 31.4453 20.7682 31.1353C20.7341 30.3486 21.0106 29.58 21.5382 28.9953C21.8254 28.6508 22.1827 28.3713 22.5863 28.1756C22.9899 27.9798 23.4305 27.8722 23.8789 27.8599C24.3273 27.8476 24.7731 27.9309 25.1868 28.1042C25.6005 28.2776 25.9726 28.5371 26.2782 28.8653C26.5082 29.0853 26.6382 29.0853 26.8482 28.8653C27.2682 28.4153 27.7082 27.9753 28.1582 27.5553C28.4182 27.3253 28.3782 27.1853 28.1582 26.9553C27.859 26.6883 27.6163 26.364 27.4445 26.0016C27.2728 25.6392 27.1754 25.246 27.1582 24.8453C27.1333 24.4064 27.1994 23.9671 27.3524 23.555C27.5053 23.1428 27.7418 22.7667 28.0469 22.4503C28.3521 22.1338 28.7194 21.8839 29.1257 21.7161C29.5321 21.5483 29.9687 21.4664 30.4082 21.4753C30.7382 21.4753 30.8582 21.3953 30.8382 21.0553C30.8382 20.4553 30.8382 19.8553 30.8382 19.2553C30.8382 18.9153 30.7582 18.8153 30.4082 18.8153C29.9325 18.8366 29.4586 18.7443 29.0256 18.546C28.5926 18.3478 28.213 18.0493 27.9182 17.6753C27.4069 17.076 27.1395 16.3064 27.1691 15.5191C27.1988 14.7319 27.5233 13.9845 28.0782 13.4253C28.4082 13.0953 28.3582 12.9253 28.0782 12.6453C27.6719 12.2753 27.2847 11.8848 26.9182 11.4753C26.6782 11.2153 26.5182 11.2053 26.2682 11.4753C26.0169 11.7652 25.7109 12.0028 25.3678 12.1744C25.0246 12.346 24.651 12.4482 24.2682 12.4753C23.8246 12.5117 23.3783 12.4548 22.9579 12.3083C22.5376 12.1618 22.1526 11.9289 21.8276 11.6247C21.5027 11.3205 21.245 10.9516 21.0712 10.5418C20.8973 10.132 20.8112 9.69041 20.8182 9.24534C20.8182 8.87534 20.7182 8.77534 20.3582 8.79534C19.4982 8.79534 18.6382 8.79534 17.7782 8.79534C17.6082 8.79534 17.4682 8.79534 17.4682 9.03534C17.4782 10.3353 17.4782 11.6653 17.4782 13.0053V12.9853ZM17.4782 20.1353C17.4782 21.8953 17.4782 23.6453 17.4782 25.3953C17.4782 25.7453 17.5882 25.8553 17.8982 25.9453C18.7856 26.1773 19.7144 26.2027 20.6131 26.0196C21.5119 25.8365 22.3567 25.4498 23.0827 24.8892C23.8086 24.3286 24.3964 23.609 24.8008 22.7858C25.2052 21.9625 25.4155 21.0575 25.4155 20.1403C25.4155 19.2231 25.2052 18.3181 24.8008 17.4949C24.3964 16.6716 23.8086 15.9521 23.0827 15.3915C22.3567 14.8309 21.5119 14.4442 20.6131 14.2611C19.7144 14.078 18.7856 14.1034 17.8982 14.3353C17.5882 14.4253 17.4582 14.5253 17.4682 14.8753C17.4882 16.6553 17.4782 18.4053 17.4782 20.1553V20.1353ZM6.65823 7.43533C6.6962 7.58987 6.72294 7.74695 6.73824 7.90534C6.82824 8.58534 6.97824 8.72534 7.66824 8.72534H9.60824C10.6082 8.72534 10.6682 8.64534 10.7882 7.72534C10.7882 7.53534 10.7882 7.47534 10.6082 7.47534L6.65823 7.43533ZM38.2982 20.8053C38.4555 20.7857 38.6001 20.7093 38.705 20.5906C38.8099 20.4718 38.8678 20.3188 38.8678 20.1603C38.8678 20.0019 38.8099 19.8489 38.705 19.7301C38.6001 19.6113 38.4555 19.5349 38.2982 19.5153C38.2068 19.5039 38.114 19.5121 38.0259 19.5393C37.9379 19.5665 37.8566 19.6121 37.7875 19.6731C37.7185 19.7341 37.6631 19.8091 37.6253 19.8931C37.5874 19.9771 37.5678 20.0682 37.5678 20.1603C37.5678 20.2525 37.5874 20.3436 37.6253 20.4276C37.6631 20.5116 37.7185 20.5866 37.7875 20.6476C37.8566 20.7086 37.9379 20.7542 38.0259 20.7814C38.114 20.8086 38.2068 20.8167 38.2982 20.8053Z" fill="#EF4C23"/>
<path d="M22.8282 36.7353C22.8282 36.2353 22.8282 35.7353 22.8282 35.2253C22.8282 34.9653 22.9082 34.9153 23.1582 34.9053C24.1582 34.9053 24.1582 34.9053 24.1582 35.9053C24.1582 36.3653 24.1582 36.8153 24.1582 37.2653C24.1582 37.5053 24.2282 37.5653 24.4582 37.5653H36.0382C36.3482 37.5653 36.4182 37.3753 36.5382 37.1853C36.7252 36.9448 36.9646 36.7501 37.2382 36.6162C37.5118 36.4823 37.8124 36.4127 38.117 36.4126C38.4216 36.4126 38.7223 36.4821 38.9959 36.6159C39.2696 36.7497 39.509 36.9443 39.6961 37.1847C39.8831 37.4252 40.0127 37.7052 40.075 38.0034C40.1374 38.3015 40.1308 38.61 40.0557 38.9053C39.9807 39.2005 39.8392 39.4747 39.6421 39.7069C39.445 39.9391 39.1974 40.1233 38.9182 40.2453C38.4941 40.3962 38.0308 40.3949 37.6075 40.2416C37.1842 40.0884 36.8274 39.7927 36.5982 39.4053C36.5287 39.2652 36.4171 39.1503 36.279 39.0768C36.1409 39.0033 35.9833 38.9748 35.8282 38.9953H23.9182C22.9782 38.9953 22.8482 38.8653 22.8382 37.9353L22.8282 36.7353ZM38.2982 38.9153C38.385 38.9188 38.4714 38.9034 38.5516 38.8703C38.6318 38.8371 38.7038 38.787 38.7628 38.7233C38.8217 38.6596 38.8661 38.5839 38.893 38.5013C38.9198 38.4188 38.9284 38.3314 38.9182 38.2453C38.9183 38.16 38.9011 38.0755 38.8676 37.997C38.8341 37.9186 38.785 37.8478 38.7232 37.7888C38.6615 37.7299 38.5885 37.6842 38.5086 37.6543C38.4286 37.6245 38.3435 37.6112 38.2582 37.6153C38.0876 37.6205 37.9259 37.6927 37.808 37.8162C37.6901 37.9396 37.6255 38.1046 37.6283 38.2753C37.6267 38.3623 37.6432 38.4487 37.6767 38.5291C37.7102 38.6094 37.76 38.682 37.823 38.7421C37.8859 38.8022 37.9607 38.8487 38.0425 38.8785C38.1243 38.9083 38.2114 38.9208 38.2982 38.9153Z" fill="#EF4C23"/>
<path d="M29.8283 1.33529H35.9682C36.0851 1.34986 36.2036 1.32788 36.3075 1.27237C36.4113 1.21686 36.4954 1.13054 36.5483 1.02529C36.7675 0.632468 37.1128 0.325033 37.5283 0.152654C37.9438 -0.0197254 38.4053 -0.0469788 38.8382 0.0752919C39.2624 0.194188 39.6354 0.449769 39.8994 0.802366C40.1634 1.15496 40.3036 1.58485 40.2983 2.02529C40.3143 2.4755 40.1778 2.91793 39.911 3.28092C39.6442 3.64391 39.2627 3.90619 38.8283 4.02529C38.3964 4.14842 37.9357 4.12266 37.5203 3.95215C37.1049 3.78163 36.759 3.4763 36.5382 3.08529C36.4854 2.98003 36.4013 2.89372 36.2975 2.83821C36.1936 2.7827 36.0751 2.76072 35.9582 2.77529H24.6082C24.2682 2.77529 24.1782 2.86529 24.1882 3.20529C24.1882 3.85529 24.1882 4.50529 24.1882 5.20529C24.1882 5.42529 24.1883 5.49529 23.8983 5.51529C22.8183 5.51529 22.8283 5.51529 22.8283 4.51529C22.8283 3.78529 22.8283 3.05529 22.8283 2.32529C22.8283 1.59529 23.0582 1.47529 23.6782 1.47529L29.8283 1.33529ZM38.9182 2.02529C38.9183 1.94085 38.9014 1.85726 38.8685 1.77949C38.8356 1.70172 38.7873 1.63136 38.7267 1.57259C38.6661 1.51382 38.5942 1.46784 38.5155 1.43738C38.4367 1.40692 38.3527 1.39261 38.2683 1.39529C38.1825 1.39525 38.0976 1.41244 38.0186 1.44585C37.9396 1.47925 37.8682 1.52819 37.8085 1.58976C37.7488 1.65132 37.7021 1.72426 37.6711 1.80423C37.6401 1.8842 37.6256 1.96958 37.6283 2.05529C37.6335 2.22594 37.7056 2.38767 37.8291 2.50555C37.9526 2.62343 38.1175 2.688 38.2882 2.68529C38.3736 2.68539 38.458 2.66815 38.5365 2.63463C38.6149 2.60111 38.6858 2.552 38.7447 2.49029C38.8036 2.42857 38.8493 2.35554 38.8792 2.27561C38.909 2.19567 38.9223 2.11051 38.9182 2.02529Z" fill="#EF4C23"/>
<path d="M40.2983 9.44523C40.2961 9.87625 40.1548 10.2951 39.8953 10.6392C39.6358 10.9834 39.2721 11.2345 38.8583 11.3552C38.4301 11.4957 37.9663 11.4827 37.5466 11.3185C37.1269 11.1543 36.7774 10.8491 36.5583 10.4552C36.5009 10.3278 36.4034 10.2226 36.2806 10.1558C36.1578 10.0889 36.0165 10.0642 35.8783 10.0852C35.1283 10.0852 34.3883 10.0852 33.6383 10.0852C33.5203 10.0748 33.4018 10.0974 33.2958 10.1503C33.1899 10.2033 33.1007 10.2846 33.0383 10.3852C32.5883 11.0152 32.0983 11.6252 31.6483 12.2552C31.4883 12.4752 31.3883 12.4952 31.1583 12.3352C30.3283 11.7252 30.3183 11.7352 30.9183 10.9252C31.3383 10.3552 31.7783 9.78523 32.1883 9.20523C32.2975 9.0438 32.4477 8.91429 32.6234 8.82995C32.7991 8.74561 32.994 8.70948 33.1883 8.72523C34.1183 8.72523 35.0383 8.72523 35.9583 8.72523C36.0829 8.74087 36.2093 8.71632 36.319 8.65517C36.4287 8.59402 36.516 8.49945 36.5683 8.38523C36.7921 7.99785 37.1393 7.69669 37.5545 7.52991C37.9696 7.36313 38.4287 7.34036 38.8583 7.46523C39.2838 7.58911 39.656 7.85077 39.9167 8.20915C40.1773 8.56752 40.3115 9.0023 40.2983 9.44523ZM38.2983 8.77523C38.1277 8.78046 37.9659 8.85262 37.848 8.97612C37.7301 9.09961 37.6656 9.26453 37.6683 9.43523C37.6569 9.52668 37.665 9.6195 37.6922 9.70755C37.7194 9.7956 37.7651 9.87685 37.8261 9.94593C37.887 10.015 37.962 10.0703 38.046 10.1082C38.13 10.1461 38.2211 10.1657 38.3133 10.1657C38.4054 10.1657 38.4966 10.1461 38.5806 10.1082C38.6646 10.0703 38.7395 10.015 38.8005 9.94593C38.8615 9.87685 38.9071 9.7956 38.9343 9.70755C38.9615 9.6195 38.9697 9.52668 38.9583 9.43523C38.9632 9.34378 38.9482 9.25235 38.9142 9.16731C38.8802 9.08227 38.828 9.00567 38.7614 8.94285C38.6948 8.88002 38.6152 8.83247 38.5283 8.80353C38.4414 8.77458 38.3493 8.76492 38.2583 8.77523H38.2983Z" fill="#EF4C23"/>
<path d="M40.2983 30.9153C40.3005 31.3497 40.1611 31.7731 39.9013 32.1213C39.6415 32.4695 39.2754 32.7236 38.8583 32.8453C38.4369 32.9698 37.9862 32.952 37.5759 32.7948C37.1656 32.6375 36.8185 32.3495 36.5883 31.9753C36.5239 31.8411 36.4184 31.731 36.2871 31.6608C36.1558 31.5907 36.0056 31.5642 35.8583 31.5853C34.9383 31.5853 34.0083 31.5853 33.0883 31.5853C32.9263 31.5944 32.7648 31.5614 32.6193 31.4895C32.4739 31.4177 32.3495 31.3094 32.2583 31.1753C31.6883 30.4153 31.1183 29.6453 30.5383 28.8953C30.3783 28.6753 30.3883 28.5553 30.6083 28.3853C31.4283 27.7453 31.4183 27.7353 32.0183 28.5553C32.1767 28.7394 32.3237 28.9331 32.4583 29.1353C32.6147 29.5544 32.9215 29.9002 33.3189 30.1054C33.7164 30.3106 34.1761 30.3605 34.6083 30.2453C34.8008 30.2203 34.9958 30.2203 35.1883 30.2453C35.5009 30.326 35.8314 30.3023 36.1293 30.1777C36.4272 30.0531 36.6762 29.8345 36.8383 29.5553C37.0951 29.2243 37.4594 28.9932 37.8683 28.902C38.2772 28.8107 38.7051 28.8649 39.0783 29.0553C39.4429 29.2097 39.7535 29.4689 39.9707 29.8C40.1879 30.1312 40.3019 30.5193 40.2983 30.9153ZM38.9183 30.9153C38.9238 30.7435 38.8621 30.5764 38.7463 30.4494C38.6306 30.3224 38.4698 30.2456 38.2983 30.2353C38.1273 30.235 37.9627 30.3001 37.8381 30.4172C37.7136 30.5343 37.6385 30.6946 37.6283 30.8653C37.6254 31.0353 37.6883 31.1999 37.8038 31.3248C37.9193 31.4496 38.0785 31.525 38.2483 31.5353C38.3327 31.5407 38.4173 31.5291 38.497 31.5011C38.5768 31.4731 38.6502 31.4293 38.7127 31.3724C38.7752 31.3155 38.8256 31.2466 38.861 31.1698C38.8963 31.0929 38.9158 31.0098 38.9183 30.9253V30.9153Z" fill="#EF4C23"/>
<path d="M14.8082 21.1853V29.9053C14.8082 30.7153 14.6082 30.9053 13.8082 30.9053H3.68823C2.88823 30.9053 2.68823 30.7053 2.68823 29.9053V12.4253C2.68823 11.6153 2.86823 11.4253 3.68823 11.4253H13.8682C14.6282 11.4253 14.8682 11.6053 14.8682 12.3653L14.8082 21.1853ZM13.4282 22.5453C13.4282 20.3353 13.4282 18.1353 13.4282 15.9253C13.4282 15.5853 13.3582 15.4553 12.9782 15.4553C10.1382 15.4553 7.29824 15.4553 4.45824 15.4553C4.10824 15.4553 4.02824 15.5653 4.02824 15.8953C4.02824 20.3153 4.02824 24.7253 4.02824 29.1353C4.02824 29.4753 4.11824 29.5653 4.45824 29.5653C7.29824 29.5653 10.1382 29.5653 12.9782 29.5653C13.3382 29.5653 13.4282 29.4853 13.4282 29.1153C13.4182 26.9253 13.4282 24.7353 13.4282 22.5453ZM8.70824 12.8053H4.91824C4.09824 12.8053 4.11823 12.8053 4.08823 13.6453C4.08823 14.0053 4.16824 14.1053 4.53824 14.1053C7.22824 14.1053 9.92823 14.1053 12.6182 14.1053C13.4882 14.1053 13.4782 14.1053 13.4882 13.2053C13.4882 12.8953 13.4082 12.7953 13.0882 12.8053C11.5982 12.8153 10.1482 12.8053 8.70824 12.8053Z" fill="#EF4C23"/>
<path d="M10.7483 27.5453H10.4083C9.34834 27.5453 9.40834 27.5453 9.40834 26.5453C9.40834 26.2953 9.46834 26.2053 9.72834 26.2053C10.4283 26.2053 11.1183 26.2053 11.8183 26.2053C12.0483 26.2053 12.1183 26.2753 12.1283 26.5053C12.1883 27.5853 12.1983 27.5853 11.1283 27.5853L10.7483 27.5453Z" fill="#EF4C23"/>
<path d="M5.38824 17.4353C5.38824 16.7953 5.38823 16.7953 6.15823 16.7953C6.74823 16.7953 6.74824 16.7953 6.74824 17.6153C6.74824 18.1653 6.74824 18.1053 5.92824 18.1753C5.10824 18.2453 5.40824 17.7953 5.38824 17.4353Z" fill="#EF4C23"/>
<path d="M9.42835 17.5052C9.42835 18.1652 9.42835 18.1652 8.61835 18.1652C8.05835 18.1652 8.05835 18.1652 8.05835 17.3552C8.05835 16.7952 8.05835 16.8452 8.90835 16.7852C9.59835 16.7352 9.39835 17.1652 9.42835 17.5052Z" fill="#EF4C23"/>
</svg>
