<svg width="40" height="38" viewBox="0 0 40 38" fill="none" xmlns="http://www.w3.org/2000/svg">
<path d="M10.8659 17.0266C10.8659 17.3166 10.6959 17.4966 10.4259 17.4866C10.3666 17.4907 10.3071 17.4811 10.2521 17.4586C10.197 17.4362 10.1478 17.4014 10.1083 17.357C10.0687 17.3126 10.0398 17.2598 10.0238 17.2025C10.0078 17.1453 10.0051 17.0851 10.0159 17.0266C10.0129 16.9738 10.0212 16.9209 10.0404 16.8715C10.0595 16.8221 10.0891 16.7774 10.127 16.7404C10.1649 16.7035 10.2103 16.6751 10.2602 16.6572C10.31 16.6393 10.3631 16.6323 10.4159 16.6366C10.4714 16.6311 10.5274 16.637 10.5805 16.6539C10.6336 16.6708 10.6827 16.6983 10.7248 16.7348C10.7669 16.7713 10.8012 16.816 10.8254 16.8662C10.8497 16.9164 10.8635 16.971 10.8659 17.0266Z" fill="#EF4C23"/>
<path d="M11.1759 15.6267C11.1759 15.9067 11.0059 16.0867 10.7459 16.0867C10.6883 16.0912 10.6304 16.0832 10.5762 16.0632C10.522 16.0432 10.4727 16.0116 10.4319 15.9708C10.391 15.9299 10.3595 15.8807 10.3394 15.8264C10.3194 15.7722 10.3114 15.7143 10.3159 15.6567C10.3131 15.603 10.3215 15.5493 10.3405 15.4989C10.3595 15.4486 10.3887 15.4027 10.4262 15.3642C10.4638 15.3257 10.5089 15.2954 10.5588 15.2752C10.6086 15.2549 10.6621 15.2452 10.7159 15.2467C10.7714 15.2398 10.8276 15.2442 10.8813 15.2598C10.9349 15.2754 10.9848 15.3018 11.0279 15.3374C11.071 15.373 11.1063 15.417 11.1318 15.4668C11.1572 15.5165 11.1723 15.5709 11.1759 15.6267Z" fill="#EF4C23"/>
<path d="M11.7559 17.7466C11.7589 17.8034 11.7498 17.8602 11.7291 17.9132C11.7084 17.9662 11.6766 18.0142 11.636 18.0539C11.5953 18.0937 11.5465 18.1243 11.4931 18.1437C11.4396 18.1632 11.3826 18.171 11.3259 18.1666C11.0359 18.1666 10.9259 17.9866 10.9259 17.7266C10.9211 17.6733 10.9282 17.6196 10.9468 17.5694C10.9653 17.5192 10.9948 17.4738 11.0331 17.4365C11.0714 17.3991 11.1176 17.3708 11.1682 17.3535C11.2189 17.3362 11.2727 17.3305 11.3259 17.3366C11.3821 17.3307 11.4389 17.3371 11.4924 17.3554C11.5459 17.3736 11.5947 17.4033 11.6356 17.4422C11.6765 17.4812 11.7085 17.5287 11.7292 17.5812C11.75 17.6338 11.7591 17.6902 11.7559 17.7466Z" fill="#EF4C23"/>
<path d="M1.57593 26.0267C1.05445 25.7535 0.626976 25.3302 0.348845 24.8113C0.0707136 24.2925 -0.045261 23.7021 0.0159285 23.1167C0.0159285 18.8067 0.0159285 14.4867 0.0159285 10.1667C-0.0052802 9.73806 0.0741131 9.31044 0.247755 8.918C0.421398 8.52557 0.684469 8.17923 1.01593 7.90667C1.55044 7.5064 2.20928 7.30804 2.87593 7.34667C3.31593 7.34667 3.87592 7.53667 4.13592 7.25667C4.39592 6.97667 4.20593 6.45666 4.20593 6.03666C4.1034 4.95116 4.25048 3.8566 4.63592 2.83667C4.99015 1.99452 5.58763 1.27724 6.35188 0.776648C7.11614 0.276052 8.0124 0.0149158 8.92593 0.0266667C10.7459 -0.0333333 12.5659 0.0266667 14.3759 0.0266667C15.6085 0.042393 16.7857 0.541769 17.6536 1.41718C18.5215 2.29259 19.0108 3.47394 19.0159 4.70667C19.0159 5.45667 19.0159 6.20666 19.0159 6.94666C19.0159 7.25666 19.0859 7.36667 19.4159 7.35667C19.9798 7.31691 20.5463 7.33702 21.1059 7.41667C21.7019 7.52422 22.2414 7.83723 22.6305 8.30128C23.0196 8.76532 23.2339 9.35106 23.2359 9.95667C23.2359 10.5767 23.2359 11.2067 23.2359 11.9567C23.6755 11.5558 24.1989 11.2581 24.768 11.0851C25.3371 10.9121 25.9377 10.8682 26.5259 10.9567C28.4259 10.9567 30.3259 10.9567 32.2259 10.9567C32.8429 10.9196 33.4571 11.066 33.9909 11.3774C34.5248 11.6888 34.9545 12.1514 35.2259 12.7067C36.5859 15.3067 37.9259 17.9167 39.2759 20.5267C39.4989 20.9979 39.6052 21.5158 39.5859 22.0367C39.5859 24.6467 39.5859 27.2567 39.5859 29.8767C39.5982 30.3121 39.522 30.7456 39.3618 31.1507C39.2017 31.5559 38.9611 31.9243 38.6544 32.2337C38.3478 32.5432 37.9816 32.7872 37.5779 32.951C37.1742 33.1148 36.7415 33.195 36.3059 33.1867C35.9659 33.1867 35.6159 33.1867 35.3059 33.1867C34.9959 33.1867 34.9159 33.2867 34.8559 33.5467C34.6971 34.4448 34.2536 35.2681 33.5909 35.8947C32.9283 36.5214 32.0815 36.9183 31.1759 37.0267C30.0748 37.195 28.9511 36.9325 28.0385 36.2937C27.126 35.6549 26.4947 34.6889 26.2759 33.5967C26.2059 33.2267 26.0759 33.1367 25.7159 33.1367H15.9359C15.5859 33.1367 15.4759 33.2367 15.4059 33.5767C15.2066 34.5627 14.6748 35.4503 13.8993 36.0911C13.1238 36.7318 12.1518 37.0868 11.1459 37.0967C10.139 37.1012 9.16151 36.7571 8.3795 36.1227C7.59749 35.4884 7.05915 34.6029 6.85593 33.6167C6.77593 33.2567 6.64593 33.1267 6.25593 33.1367C5.25593 33.1367 4.25593 33.1367 3.25593 33.1367C2.93372 33.1589 2.61049 33.1117 2.30803 32.9985C2.00557 32.8852 1.73089 32.7084 1.50252 32.4801C1.27414 32.2517 1.09738 31.977 0.984114 31.6746C0.870852 31.3721 0.82373 31.0489 0.84593 30.7267C0.84593 29.8667 0.84593 29.0067 0.84593 28.1467C0.811236 27.7618 0.858333 27.374 0.984145 27.0086C1.10996 26.6432 1.31163 26.3086 1.57593 26.0267ZM12.3659 25.3967C15.5459 25.3967 18.7259 25.3967 21.9059 25.3967C22.3559 25.3967 22.4259 25.2667 22.4259 24.8567C22.4259 20.7767 22.4259 16.7033 22.4259 12.6367C22.4259 11.8067 22.4259 10.9767 22.4259 10.1567C22.4456 9.89996 22.4093 9.64205 22.3196 9.40072C22.23 9.15938 22.089 8.94038 21.9065 8.7588C21.724 8.57723 21.5042 8.43741 21.2624 8.34899C21.0206 8.26058 20.7625 8.22567 20.5059 8.24667C20.1559 8.24667 19.7959 8.24667 19.4359 8.24667C19.0759 8.24667 19.0459 8.30667 19.0559 8.61667C19.0559 9.51667 19.0559 10.4067 19.0559 11.2967C19.0695 11.4915 19.0433 11.6871 18.979 11.8715C18.9146 12.0559 18.8134 12.2253 18.6815 12.3693C18.5496 12.5134 18.3898 12.6291 18.2118 12.7094C18.0337 12.7898 17.8412 12.8331 17.6459 12.8367C17.4507 12.8359 17.2577 12.7948 17.079 12.7161C16.9003 12.6373 16.7398 12.5226 16.6075 12.379C16.4751 12.2354 16.3738 12.0661 16.3099 11.8816C16.246 11.6971 16.2208 11.5013 16.2359 11.3067C16.2359 10.4133 16.2359 9.52333 16.2359 8.63667C16.2359 8.35667 16.2359 8.24667 15.8759 8.24667H7.45593C7.18593 8.24667 7.10593 8.32667 7.10593 8.59667C7.10593 9.49667 7.10593 10.3867 7.10593 11.2767C7.12256 11.4756 7.09765 11.6758 7.03277 11.8646C6.9679 12.0535 6.86446 12.2267 6.72905 12.3734C6.59364 12.5201 6.4292 12.637 6.24618 12.7168C6.06317 12.7965 5.86556 12.8374 5.66592 12.8367C5.47148 12.8291 5.28053 12.7826 5.10428 12.7002C4.92803 12.6177 4.77005 12.5008 4.63962 12.3564C4.50918 12.212 4.40893 12.043 4.34476 11.8593C4.28058 11.6756 4.25378 11.4809 4.26593 11.2867C4.26593 10.7267 4.26593 10.1767 4.26593 9.62667C4.26593 9.07667 4.46593 8.62667 4.17593 8.32667C3.88593 8.02667 3.33593 8.25667 2.90593 8.25667C2.63394 8.21617 2.35624 8.23997 2.09511 8.32616C1.83397 8.41235 1.59668 8.55852 1.40224 8.75297C1.20779 8.94742 1.0616 9.18472 0.975416 9.44585C0.889229 9.70698 0.865431 9.98468 0.905928 10.2567V23.3967C0.872144 23.6718 0.902368 23.951 0.994231 24.2126C1.08609 24.4741 1.23712 24.7109 1.43553 24.9045C1.63394 25.098 1.87438 25.2432 2.13811 25.3285C2.40183 25.4139 2.68172 25.4372 2.95593 25.3967H12.3659ZM23.2659 22.1367C23.2659 24.7167 23.2659 27.2967 23.2659 29.8767C23.2464 30.202 23.2947 30.5278 23.4079 30.8334C23.521 31.139 23.6965 31.4177 23.9231 31.6519C24.1497 31.8861 24.4226 32.0705 24.7244 32.1936C25.0261 32.3166 25.3502 32.3756 25.6759 32.3667C26.0559 32.3667 26.1959 32.2867 26.2759 31.8967C26.467 30.9778 26.9482 30.1447 27.6485 29.52C28.3489 28.8953 29.2313 28.512 30.1659 28.4267C31.1356 28.3559 32.1019 28.6025 32.9191 29.1293C33.7363 29.656 34.36 30.4343 34.6959 31.3467C34.8259 31.6867 34.6959 32.1867 35.0459 32.3467C35.4135 32.4071 35.7884 32.4071 36.1559 32.3467H36.4959C37.0937 32.3209 37.6585 32.0651 38.0721 31.6328C38.4858 31.2005 38.7165 30.625 38.7159 30.0267C38.7159 29.2467 38.7159 28.4667 38.7159 27.6867C38.7288 27.6215 38.7283 27.5544 38.7145 27.4894C38.7006 27.4244 38.6737 27.3629 38.6354 27.3087C38.597 27.2544 38.5481 27.2086 38.4914 27.1738C38.4348 27.1391 38.3717 27.1162 38.3059 27.1067C37.8128 26.9355 37.3838 26.6178 37.0764 26.196C36.769 25.7742 36.5979 25.2685 36.5859 24.7467C36.5845 24.2331 36.7345 23.7305 37.0173 23.3018C37.3002 22.8731 37.7032 22.5374 38.1759 22.3367C38.7659 22.0867 38.8059 22.0167 38.6359 21.3367C38.5752 21.1198 38.4949 20.9089 38.3959 20.7067C37.1159 18.2367 35.8159 15.7667 34.5459 13.2867C34.3408 12.824 33.9989 12.4351 33.5663 12.1724C33.1338 11.9096 32.6311 11.7855 32.1259 11.8167C30.0359 11.8167 27.9459 11.8167 25.8459 11.8167C25.4969 11.7784 25.1438 11.8192 24.8127 11.936C24.4815 12.0528 24.181 12.2426 23.9332 12.4913C23.6854 12.7401 23.4968 13.0414 23.3813 13.3729C23.2658 13.7045 23.2263 14.0578 23.2659 14.4067C23.2659 16.98 23.2659 19.5433 23.2659 22.0967V22.1367ZM23.4459 32.3667C23.0637 31.9744 22.7753 31.5008 22.6021 30.9813C22.4289 30.4617 22.3755 29.9098 22.4459 29.3667C22.4459 28.4867 22.4459 27.6167 22.4459 26.7367C22.4459 26.3167 22.3159 26.2367 21.9359 26.2367C16.3159 26.2367 10.7059 26.2367 5.09593 26.2367C4.43593 26.2367 3.76593 26.2367 3.09593 26.2367C2.75161 26.2479 2.42352 26.3857 2.17445 26.6237C1.92538 26.8617 1.77281 27.1832 1.74592 27.5267C1.74592 27.7767 1.80593 27.8467 2.03593 27.8367C2.29555 27.8167 2.55632 27.8167 2.81593 27.8367C2.87406 27.8372 2.93137 27.8504 2.98387 27.8754C3.03637 27.9004 3.08281 27.9365 3.11993 27.9812C3.15706 28.026 3.18398 28.0783 3.19884 28.1345C3.21369 28.1907 3.21611 28.2494 3.20593 28.3067C3.20349 28.3597 3.19024 28.4117 3.16699 28.4595C3.14374 28.5072 3.11097 28.5497 3.07071 28.5844C3.03045 28.619 2.98353 28.6451 2.93284 28.661C2.88215 28.6768 2.82875 28.6822 2.77592 28.6767C2.53282 28.6917 2.28903 28.6917 2.04593 28.6767C1.81593 28.6767 1.73593 28.7467 1.73593 28.9867C1.73593 29.6167 1.73593 30.2467 1.73593 30.8767C1.72823 31.073 1.76225 31.2687 1.83574 31.451C1.90922 31.6332 2.0205 31.7978 2.16225 31.9338C2.30399 32.0699 2.47296 32.1744 2.65803 32.2404C2.84311 32.3064 3.04007 32.3324 3.23593 32.3167C4.29593 32.3167 5.34593 32.3167 6.40593 32.3167C6.65593 32.3167 6.77593 32.2667 6.81593 31.9867C6.89167 31.4567 7.07915 30.9488 7.36593 30.4967C7.81769 29.7495 8.48014 29.1526 9.27009 28.7807C10.06 28.4089 10.9423 28.2787 11.8059 28.4067C12.7014 28.5563 13.5294 28.9768 14.1784 29.6116C14.8275 30.2463 15.2664 31.0648 15.4359 31.9567C15.4359 32.1567 15.4359 32.3167 15.7559 32.3167C18.2759 32.3167 20.7859 32.3267 23.4459 32.3267V32.3667ZM11.6559 7.36667C13.0559 7.36667 14.4459 7.36667 15.8359 7.36667C16.1659 7.36667 16.2359 7.26667 16.2259 6.96667C16.2259 6.29667 16.2259 5.63667 16.2259 4.96667C16.2491 4.69496 16.2139 4.42145 16.1225 4.16451C16.0312 3.90757 15.8859 3.67316 15.6964 3.47706C15.507 3.28095 15.2777 3.12769 15.024 3.02758C14.7704 2.92747 14.4983 2.88283 14.2259 2.89667H9.22593C8.9543 2.8716 8.68044 2.90563 8.4232 2.99642C8.16596 3.08721 7.93142 3.23261 7.7357 3.42264C7.53998 3.61266 7.38772 3.8428 7.28937 4.09724C7.19101 4.35169 7.14889 4.62441 7.16592 4.89667C7.16592 5.58667 7.16592 6.26666 7.16592 6.94666C7.16592 7.24666 7.24593 7.31667 7.54593 7.31667C8.86593 7.33667 10.2659 7.34667 11.6559 7.34667V7.36667ZM18.1859 7.85667V4.85667C18.2011 4.336 18.1099 3.81771 17.9178 3.3335C17.7258 2.84929 17.4371 2.40934 17.0692 2.04054C16.7014 1.67175 16.2621 1.38187 15.7784 1.18863C15.2947 0.995386 14.7766 0.902846 14.2559 0.916666H9.08594C8.55873 0.901089 8.03396 0.994291 7.54436 1.19045C7.05475 1.38662 6.61082 1.68154 6.24022 2.05683C5.86962 2.43213 5.58029 2.87974 5.3903 3.37177C5.20031 3.8638 5.11372 4.3897 5.13592 4.91667C5.13592 6.84667 5.13592 8.77667 5.13592 10.7167C5.13592 10.9567 5.13592 11.2067 5.13592 11.4467C5.13847 11.5159 5.15481 11.5838 5.18397 11.6466C5.21314 11.7094 5.25456 11.7658 5.30578 11.8123C5.35701 11.8589 5.41704 11.8948 5.48231 11.9178C5.54759 11.9409 5.61681 11.9507 5.68593 11.9467C5.75566 11.9537 5.8261 11.9459 5.89265 11.924C5.95921 11.902 6.0204 11.8663 6.07226 11.8191C6.12413 11.772 6.1655 11.7145 6.19369 11.6503C6.22189 11.5861 6.23628 11.5168 6.23593 11.4467C6.24603 11.3002 6.24603 11.1532 6.23593 11.0067C6.23593 9.00667 6.23593 7.00667 6.23593 5.00667C6.20779 4.61947 6.26316 4.23075 6.3983 3.86682C6.53344 3.50289 6.74519 3.17223 7.01922 2.89725C7.29326 2.62227 7.62318 2.40937 7.98665 2.27297C8.35011 2.13658 8.73864 2.07986 9.12593 2.10667C10.8059 2.10667 12.4959 2.10667 14.1859 2.10667C14.5726 2.0876 14.959 2.15039 15.3197 2.29093C15.6804 2.43147 16.0074 2.6466 16.2793 2.92224C16.5512 3.19788 16.7618 3.52781 16.8973 3.89046C17.0329 4.2531 17.0903 4.64029 17.0659 5.02667C17.0659 7.10667 17.0659 9.17667 17.0659 11.2567C17.0659 11.6467 17.1559 11.9467 17.5959 11.9867C18.0359 12.0267 18.1659 11.7467 18.1759 11.2467L18.1859 7.85667ZM11.1059 29.2567C10.6437 29.2593 10.1865 29.3529 9.76039 29.5322C9.33432 29.7116 8.94776 29.9731 8.62276 30.3018C8.29775 30.6305 8.04068 31.02 7.86621 31.4481C7.69174 31.8762 7.60329 32.3344 7.60593 32.7967C7.61891 33.7226 7.9932 34.6068 8.64894 35.2607C9.30468 35.9146 10.19 36.2863 11.1159 36.2967C12.0505 36.2914 12.9453 35.9178 13.6062 35.257C14.2671 34.5961 14.6407 33.7013 14.6459 32.7667C14.6473 32.3019 14.5565 31.8414 14.379 31.4119C14.2014 30.9824 13.9406 30.5923 13.6114 30.2641C13.2823 29.9359 12.8915 29.6761 12.4614 29.4998C12.0314 29.3235 11.5707 29.234 11.1059 29.2367V29.2567ZM34.1059 32.7967C34.1139 32.3346 34.0298 31.8757 33.8585 31.4465C33.6871 31.0173 33.4321 30.6266 33.1081 30.2971C32.7842 29.9675 32.3978 29.7058 31.9717 29.5272C31.5455 29.3486 31.088 29.2566 30.6259 29.2567C30.1628 29.2447 29.7019 29.3243 29.2696 29.4908C28.8373 29.6574 28.4421 29.9076 28.1067 30.2272C27.7714 30.5468 27.5024 30.9294 27.3152 31.3532C27.128 31.777 27.0263 32.2335 27.0159 32.6967C27.0052 33.6321 27.3652 34.5338 28.0173 35.2046C28.6694 35.8754 29.5605 36.2609 30.4959 36.2767C30.9569 36.278 31.4135 36.1885 31.8399 36.0133C32.2663 35.8381 32.6539 35.5807 32.9808 35.2557C33.3077 34.9307 33.5673 34.5445 33.7449 34.1191C33.9225 33.6938 34.0146 33.2376 34.0159 32.7767L34.1059 32.7967ZM38.7659 24.7067C38.7659 24.2367 38.7659 23.7667 38.7659 23.2967C38.7659 23.1067 38.7659 23.0367 38.5159 23.1167C38.2257 23.2591 37.9795 23.4775 37.8034 23.7487C37.6274 24.0198 37.528 24.3336 37.5159 24.6567C37.5244 24.9832 37.6221 25.3012 37.7984 25.5761C37.9746 25.8511 38.2228 26.0726 38.5159 26.2167C38.7359 26.3067 38.8059 26.2167 38.8059 26.0167C38.7159 25.5667 38.7159 25.1267 38.7159 24.6867L38.7659 24.7067Z" fill="#EF4C23"/>
<path d="M15.1159 20.3267C15.2479 20.7615 15.3449 21.2063 15.4059 21.6567C15.4512 22.044 15.4309 22.4361 15.3459 22.8167C15.3134 23.0321 15.2261 23.2356 15.0923 23.4075C14.9585 23.5795 14.7827 23.7141 14.5818 23.7984C14.381 23.8828 14.1618 23.9141 13.9453 23.8892C13.7289 23.8644 13.5224 23.7843 13.3459 23.6567C12.6318 23.1443 12.0632 22.4551 11.6959 21.6567C11.3659 22.0767 11.1659 22.5867 10.8059 22.9767C10.5486 23.2911 10.2328 23.5526 9.8759 23.7467C9.69069 23.8565 9.48042 23.9171 9.26516 23.9225C9.0499 23.928 8.83682 23.8782 8.64627 23.7779C8.45571 23.6777 8.29405 23.5302 8.17669 23.3497C8.05933 23.1691 7.99021 22.9615 7.9759 22.7467C7.86868 21.8741 7.98925 20.9887 8.32589 20.1767C7.5658 20.4859 6.74382 20.6126 5.9259 20.5467C5.70516 20.5459 5.48771 20.493 5.29133 20.3922C5.09495 20.2914 4.92518 20.1456 4.79589 19.9667C4.62129 19.7094 4.54087 19.3997 4.5682 19.09C4.59553 18.7802 4.72893 18.4894 4.94589 18.2667C5.2935 17.8353 5.72139 17.4753 6.2059 17.2067L6.85589 16.8167C6.38833 16.5747 5.94614 16.2866 5.5359 15.9567C5.34092 15.785 5.16031 15.5977 4.99589 15.3967C4.79183 15.214 4.64912 14.9729 4.58724 14.7061C4.52537 14.4393 4.54737 14.16 4.6502 13.9062C4.75304 13.6524 4.9317 13.4365 5.16181 13.288C5.39193 13.1395 5.66226 13.0657 5.93589 13.0767C6.71477 12.9954 7.50166 13.1088 8.2259 13.4067C8.3459 13.2467 8.22589 13.1267 8.16589 12.9967C7.96453 12.3504 7.89649 11.67 7.96589 10.9967C7.96669 10.7441 8.03833 10.4968 8.17268 10.2829C8.30703 10.069 8.49871 9.89705 8.7259 9.78666C8.96434 9.67759 9.22937 9.64031 9.48864 9.67938C9.74791 9.71845 9.99019 9.83217 10.1859 10.0067C10.6754 10.3857 11.0807 10.8625 11.3759 11.4067L11.7059 11.9667C11.9365 11.5302 12.2006 11.1122 12.4959 10.7167C12.731 10.403 13.0185 10.1323 13.3459 9.91666C13.5184 9.78957 13.7202 9.70818 13.9326 9.68007C14.145 9.65196 14.3611 9.67804 14.5607 9.75589C14.7603 9.83373 14.937 9.96082 15.0743 10.1253C15.2116 10.2898 15.305 10.4863 15.3459 10.6967C15.5045 11.3781 15.4769 12.0896 15.2659 12.7567C15.2659 12.9267 15.1759 13.0967 15.1359 13.2767V13.3667H15.2459C15.9932 13.091 16.794 12.9918 17.5859 13.0767C17.8323 13.0874 18.0707 13.1675 18.2736 13.3078C18.4765 13.448 18.6357 13.6427 18.7329 13.8694C18.83 14.0961 18.8612 14.3456 18.8228 14.5893C18.7845 14.8329 18.6781 15.0608 18.5159 15.2467C18.2832 15.5977 17.9843 15.9 17.6359 16.1367C17.3059 16.3667 16.9559 16.5667 16.5759 16.8167L17.5759 17.4267C17.9836 17.7016 18.3252 18.0636 18.5759 18.4867C18.7011 18.6757 18.7742 18.8944 18.788 19.1207C18.8017 19.347 18.7555 19.573 18.6541 19.7758C18.5527 19.9786 18.3997 20.1511 18.2104 20.2759C18.0211 20.4007 17.8022 20.4734 17.5759 20.4867C16.7815 20.5748 15.9774 20.479 15.2259 20.2067H15.1059L15.1159 20.3267ZM9.4759 16.7867C9.47323 17.0737 9.52778 17.3584 9.63639 17.6241C9.745 17.8898 9.90549 18.1311 10.1085 18.3341C10.3114 18.5371 10.5528 18.6975 10.8185 18.8062C11.0842 18.9148 11.3689 18.9693 11.6559 18.9667C12.2354 18.9643 12.7911 18.7364 13.2055 18.3314C13.6199 17.9263 13.8603 17.3759 13.8759 16.7967C13.8607 16.21 13.6209 15.6516 13.2059 15.2366C12.791 14.8217 12.2325 14.5818 11.6459 14.5667C11.065 14.5772 10.5116 14.816 10.1055 15.2315C9.69934 15.647 9.47318 16.2057 9.4759 16.7867ZM8.7359 22.0267C8.7359 22.3567 8.7359 22.7967 9.0659 22.9667C9.3959 23.1367 9.7359 22.7767 9.9759 22.5367C10.5267 21.9392 10.9277 21.2194 11.1459 20.4367C11.2859 20.0167 11.3359 19.7167 10.7459 19.6567C10.4763 19.5964 10.2235 19.4768 10.0059 19.3067C9.7959 19.1767 9.7059 19.2167 9.5859 19.4167C9.08889 20.2019 8.79665 21.0993 8.7359 22.0267ZM6.21589 19.6667C7.03385 19.6338 7.83524 19.4258 8.5659 19.0567C9.1659 18.7467 9.23589 18.6567 8.90589 18.0567C8.72589 17.7567 8.90589 17.2067 8.44589 17.1567C8.05557 17.1641 7.6736 17.2708 7.3359 17.4667C6.61888 17.7398 5.99211 18.2073 5.52589 18.8167C5.26589 19.1867 5.37589 19.4567 5.80589 19.5767C5.93772 19.6316 6.07522 19.6719 6.21589 19.6967V19.6667ZM11.2159 13.4367C11.0187 12.4563 10.5431 11.5536 9.8459 10.8367C9.6359 10.6267 9.39589 10.3567 9.04589 10.5167C8.69589 10.6767 8.7359 10.9967 8.7359 11.2867C8.75598 12.2759 9.04648 13.2408 9.57589 14.0767C9.63589 14.1867 9.72589 14.4067 9.88589 14.2467C10.2859 13.8967 11.0159 14.0267 11.2359 13.4667L11.2159 13.4367ZM14.5559 11.4367C14.5559 11.1067 14.6259 10.6467 14.2059 10.4867C13.7859 10.3267 13.5359 10.7067 13.2859 10.9767C12.6842 11.6616 12.2646 12.4869 12.0659 13.3767C12.0159 13.5867 12.0659 13.6767 12.2559 13.7167C12.6181 13.7805 12.9604 13.9277 13.2559 14.1467C13.4759 14.3067 13.5959 14.2367 13.7059 14.0367C14.2008 13.2783 14.4998 12.409 14.5759 11.5067L14.5559 11.4367ZM17.0259 19.6367C17.3359 19.6367 17.7059 19.6367 17.8659 19.3167C18.0259 18.9967 17.7259 18.7067 17.5059 18.4867C16.8787 17.8754 16.1033 17.4377 15.2559 17.2167C14.9059 17.1167 14.6359 17.1667 14.5559 17.6067C14.5067 17.8305 14.4113 18.0417 14.2759 18.2267C14.2331 18.276 14.2029 18.335 14.1882 18.3987C14.1734 18.4623 14.1744 18.5286 14.1912 18.5917C14.208 18.6549 14.24 18.7129 14.2844 18.7609C14.3288 18.8088 14.3842 18.8451 14.4459 18.8667C15.2175 19.3601 16.1019 19.6491 17.0159 19.7067L17.0259 19.6367ZM14.5359 22.0667C14.5049 21.121 14.2256 20.2001 13.7259 19.3967C13.5759 19.1667 13.4559 19.1467 13.2359 19.3067C13.0264 19.4592 12.7883 19.5681 12.5359 19.6267C12.0359 19.7067 12.0459 20.0067 12.1459 20.3667C12.3687 21.1514 12.7652 21.8759 13.3059 22.4867C13.5359 22.7467 13.7959 23.0867 14.1959 22.9367C14.5959 22.7867 14.5359 22.4267 14.5559 22.1367L14.5359 22.0667ZM14.8859 16.3167C15.9747 16.1178 16.9647 15.5577 17.6959 14.7267C17.8359 14.5567 17.9859 14.3567 17.8659 14.1167C17.7459 13.8767 17.4859 13.8267 17.2459 13.8167C16.2717 13.7898 15.3103 14.0432 14.4759 14.5467C14.2159 14.6967 14.0759 14.8867 14.2959 15.2167C14.4776 15.4834 14.5972 15.7876 14.6459 16.1067C14.6859 16.3267 14.7259 16.4367 14.9059 16.3867L14.8859 16.3167ZM6.3159 13.7967C5.9759 13.7967 5.57589 13.7367 5.41589 14.1267C5.25589 14.5167 5.57589 14.7367 5.79589 14.9567C6.43356 15.5856 7.23322 16.0252 8.10589 16.2267C8.39589 16.3067 8.6559 16.2267 8.7059 15.8767C8.73732 15.6666 8.81971 15.4675 8.94589 15.2967C9.21589 14.9067 9.06589 14.6667 8.71589 14.4867C7.9812 14.0987 7.16652 13.8864 6.3359 13.8667L6.3159 13.7967Z" fill="#EF4C23"/>
<path d="M30.5459 22.0266H26.6959C26.452 22.0517 26.2057 22.0221 25.9747 21.94C25.7437 21.8579 25.5339 21.7253 25.3605 21.552C25.1872 21.3786 25.0546 21.1688 24.9725 20.9379C24.8904 20.7069 24.8608 20.4605 24.8859 20.2166C24.8859 18.5499 24.8859 16.8833 24.8859 15.2166C24.8576 14.9813 24.8827 14.7427 24.9592 14.5183C25.0357 14.294 25.1617 14.0898 25.3278 13.9208C25.494 13.7518 25.696 13.6223 25.919 13.5419C26.1419 13.4616 26.3801 13.4324 26.6159 13.4566C28.3059 13.4566 29.9959 13.4566 31.6759 13.4566C32.0232 13.4323 32.3695 13.5151 32.6682 13.6939C32.9668 13.8728 33.2034 14.139 33.3459 14.4566C34.2259 16.1766 35.1259 17.8766 35.9959 19.5966C36.1436 19.8508 36.2193 20.1405 36.2149 20.4344C36.2105 20.7284 36.1262 21.0156 35.971 21.2653C35.8159 21.515 35.5957 21.7178 35.334 21.8519C35.0724 21.986 34.7792 22.0464 34.4859 22.0266H30.5459ZM30.5459 21.1666H34.2959C35.2959 21.1666 35.5859 20.6666 35.1359 19.7966C34.2859 18.1566 33.4259 16.5266 32.5959 14.8866C32.5243 14.6976 32.3925 14.5373 32.2208 14.4307C32.0491 14.3241 31.8471 14.2769 31.6459 14.2966H26.6459C25.9359 14.2966 25.7159 14.5266 25.7159 15.2266V20.2266C25.7159 20.9566 25.9659 21.2266 26.7159 21.2266L30.5459 21.1666Z" fill="#EF4C23"/>
<path d="M26.4559 24.0266C26.1959 24.0266 25.9359 24.0266 25.6759 24.0266C25.6159 24.0339 25.555 24.028 25.4974 24.0095C25.4398 23.9911 25.3869 23.9603 25.3422 23.9195C25.2976 23.8787 25.2623 23.8287 25.2388 23.773C25.2153 23.7172 25.2041 23.6571 25.2059 23.5966C25.2014 23.539 25.2094 23.4811 25.2295 23.4269C25.2495 23.3727 25.281 23.3234 25.3219 23.2826C25.3627 23.2417 25.412 23.2102 25.4662 23.1902C25.5204 23.1701 25.5783 23.1621 25.6359 23.1666C26.1893 23.1666 26.7393 23.1666 27.2859 23.1666C27.3435 23.1621 27.4015 23.1701 27.4557 23.1902C27.5099 23.2102 27.5591 23.2417 27.6 23.2826C27.6409 23.3234 27.6724 23.3727 27.6924 23.4269C27.7124 23.4811 27.7205 23.539 27.7159 23.5966C27.7174 23.6543 27.7069 23.7117 27.6851 23.7652C27.6634 23.8187 27.6309 23.8671 27.5896 23.9075C27.5483 23.9478 27.4992 23.9792 27.4452 23.9997C27.3912 24.0202 27.3336 24.0294 27.2759 24.0266C27.0059 24.0266 26.7359 24.0266 26.4559 24.0266Z" fill="#EF4C23"/>
<path d="M13.2959 32.7667C13.2907 33.3389 13.0618 33.8863 12.6581 34.2919C12.2544 34.6974 11.7081 34.9289 11.1359 34.9367C10.554 34.9315 9.9975 34.698 9.58604 34.2865C9.17459 33.8751 8.94113 33.3185 8.93591 32.7367C8.94625 32.1627 9.17955 31.6152 9.58644 31.2102C9.99333 30.8052 10.5419 30.5744 11.1159 30.5667C11.4043 30.5653 11.69 30.6214 11.9564 30.7318C12.2228 30.8421 12.4646 31.0044 12.6675 31.2093C12.8705 31.4141 13.0306 31.6573 13.1385 31.9247C13.2464 32.1921 13.2999 32.4783 13.2959 32.7667ZM11.1359 31.4267C10.7849 31.4267 10.4481 31.5654 10.199 31.8127C9.94984 32.0599 9.80855 32.3957 9.80591 32.7467C9.81595 33.083 9.95404 33.4027 10.1919 33.6406C10.4298 33.8785 10.7496 34.0166 11.0859 34.0267C11.2596 34.032 11.4326 34.0027 11.5949 33.9405C11.7572 33.8783 11.9054 33.7845 12.0311 33.6644C12.1567 33.5444 12.2572 33.4005 12.3267 33.2412C12.3962 33.0819 12.4334 32.9104 12.4359 32.7367C12.4334 32.3918 12.2959 32.0616 12.0529 31.8167C11.8099 31.5719 11.4808 31.4319 11.1359 31.4267Z" fill="#EF4C23"/>
<path d="M28.386 32.7467C28.3833 32.1728 28.608 31.6213 29.0109 31.2128C29.4138 30.8043 29.9622 30.5719 30.536 30.5667C31.1169 30.5666 31.6746 30.7953 32.0882 31.2033C32.5018 31.6113 32.7381 32.1657 32.746 32.7467C32.7381 33.3285 32.5021 33.884 32.0888 34.2936C31.6755 34.7032 31.1178 34.9341 30.536 34.9367C30.251 34.934 29.9693 34.8753 29.707 34.7638C29.4448 34.6524 29.207 34.4903 29.0074 34.287C28.8077 34.0836 28.6501 33.8429 28.5435 33.5786C28.4368 33.3143 28.3833 33.0316 28.386 32.7467ZM30.556 34.0267C30.9063 34.019 31.2402 33.8764 31.4879 33.6286C31.7357 33.3809 31.8783 33.047 31.886 32.6967C31.8731 32.3464 31.7255 32.0147 31.474 31.7706C31.2225 31.5265 30.8864 31.389 30.536 31.3867C30.1928 31.3944 29.8662 31.5356 29.6254 31.7801C29.3846 32.0247 29.2485 32.3534 29.246 32.6967C29.2405 32.8711 29.2705 33.0448 29.3342 33.2073C29.3979 33.3698 29.4938 33.5177 29.6163 33.642C29.7387 33.7664 29.8852 33.8646 30.0467 33.9307C30.2082 33.9968 30.3815 34.0294 30.556 34.0267Z" fill="#EF4C23"/>
<path d="M15.1959 13.3467H15.0859V13.2567L15.1959 13.3467Z" fill="#EF4C23"/>
<path d="M15.116 20.3267V20.2267H15.236L15.116 20.3267Z" fill="#EF4C23"/>
<path d="M12.6959 15.6766C12.6359 15.9166 12.5059 16.1066 12.2359 16.0866C12.1778 16.0861 12.1205 16.0728 12.068 16.0479C12.0155 16.0229 11.969 15.9868 11.9319 15.9421C11.8948 15.8973 11.8679 15.845 11.853 15.7888C11.8382 15.7326 11.8357 15.6738 11.8459 15.6166C11.8485 15.5641 11.8614 15.5125 11.8839 15.465C11.9064 15.4174 11.938 15.3748 11.9771 15.3395C12.0161 15.3042 12.0617 15.2769 12.1112 15.2593C12.1608 15.2416 12.2134 15.2339 12.2659 15.2366C12.5459 15.2366 12.6459 15.4366 12.6959 15.6766Z" fill="#EF4C23"/>
<path d="M11.546 17.0266C11.4905 17.0296 11.435 17.0208 11.3832 17.0006C11.3314 16.9804 11.2845 16.9494 11.2457 16.9096C11.2069 16.8699 11.177 16.8222 11.1581 16.77C11.1391 16.7177 11.1316 16.662 11.136 16.6066C11.1329 16.5524 11.1415 16.4982 11.1612 16.4476C11.1809 16.3971 11.2112 16.3513 11.25 16.3134C11.2889 16.2755 11.3354 16.2464 11.3864 16.2279C11.4375 16.2095 11.4919 16.2023 11.546 16.2066C11.6027 16.1977 11.6608 16.2025 11.7153 16.2206C11.7698 16.2388 11.8193 16.2697 11.8594 16.3108C11.8995 16.3519 11.9292 16.402 11.946 16.457C11.9628 16.5119 11.9662 16.5701 11.956 16.6266C11.9608 16.6812 11.9534 16.7362 11.9343 16.7876C11.9152 16.839 11.885 16.8855 11.8458 16.9238C11.8065 16.9621 11.7593 16.9911 11.7074 17.0089C11.6556 17.0267 11.6004 17.0328 11.546 17.0266Z" fill="#EF4C23"/>
<path d="M31.8059 16.6166C31.7997 16.7082 31.7743 16.7974 31.7312 16.8784C31.6881 16.9594 31.6283 17.0303 31.5559 17.0866L29.0159 19.6566C28.7959 19.8766 28.5559 20.0766 28.2659 19.7866C27.9759 19.4966 28.1959 19.2566 28.4059 19.0466L31.0159 16.4366C31.1759 16.2866 31.3358 16.1566 31.5658 16.2566C31.6347 16.2892 31.6935 16.3399 31.7358 16.4033C31.778 16.4667 31.8023 16.5405 31.8059 16.6166Z" fill="#EF4C23"/>
<path d="M29.746 15.9367C29.7403 16.0805 29.6794 16.2166 29.576 16.3167L28.336 17.5467C28.136 17.7567 27.906 17.8667 27.666 17.6367C27.426 17.4067 27.506 17.1767 27.716 16.9667L29.016 15.6867C29.0756 15.6095 29.1613 15.5567 29.2571 15.5383C29.3528 15.5199 29.452 15.5371 29.536 15.5867C29.5999 15.6199 29.6534 15.6702 29.6904 15.732C29.7275 15.7938 29.7468 15.8646 29.746 15.9367Z" fill="#EF4C23"/>
</svg>
