<svg width="43" height="43" viewBox="0 0 43 43" fill="none" xmlns="http://www.w3.org/2000/svg">
<path d="M23.57 42.9403H1.94C1.94 42.7703 1.84001 42.7703 1.74001 42.7303C1.38211 42.5782 1.05859 42.3554 0.788818 42.0753C0.519047 41.7953 0.308566 41.4636 0.169998 41.1003C0.169998 41.0103 0.12 40.9103 0 40.8903V1.94027C0.24 1.94027 0.200004 1.73027 0.270004 1.60027C0.49109 1.11693 0.847982 0.708321 1.2972 0.424233C1.74641 0.140146 2.26855 -0.00716017 2.8 0.000267674H22.96C23.3838 0.000222815 23.8016 0.0995569 24.18 0.290276C24.699 0.548824 25.1293 0.956042 25.4161 1.46005C25.7028 1.96405 25.833 2.542 25.79 3.12026V25.1403C25.79 25.4603 25.79 25.7903 25.79 26.1403C25.79 26.4903 25.85 26.4803 26.11 26.4803C28.06 26.4803 30.01 26.4803 31.96 26.4803C32.1642 26.4926 32.3685 26.4595 32.5583 26.3832C32.7481 26.3069 32.9185 26.1893 33.0573 26.0391C33.196 25.8888 33.2997 25.7096 33.3607 25.5144C33.4217 25.3192 33.4385 25.1128 33.41 24.9103C33.2424 21.6375 32.6783 18.3972 31.73 15.2603C31.7214 15.188 31.6936 15.1194 31.6497 15.0614C31.6058 15.0034 31.5472 14.9582 31.48 14.9303C31.0031 14.7511 30.6016 14.4146 30.3416 13.9765C30.0816 13.5384 29.9788 13.0247 30.05 12.5203C30.05 12.2403 29.96 12.1703 29.69 12.1803C29.12 12.1803 28.55 12.1803 27.98 12.1803C27.8789 12.1902 27.7768 12.1786 27.6805 12.1462C27.5842 12.1138 27.4959 12.0615 27.4212 11.9925C27.3466 11.9236 27.2874 11.8396 27.2476 11.7461C27.2077 11.6527 27.1881 11.5518 27.19 11.4503C27.1923 11.3486 27.2155 11.2485 27.2582 11.1562C27.3009 11.0639 27.3622 10.9814 27.4382 10.9139C27.5142 10.8463 27.6033 10.7951 27.7 10.7635C27.7966 10.7319 27.8988 10.7206 28 10.7303C28.4862 10.7003 28.9738 10.7003 29.46 10.7303C29.96 10.7803 30.06 10.6003 30.05 10.1203C30.0323 9.81975 30.0787 9.51892 30.1863 9.23777C30.2939 8.95662 30.4601 8.70159 30.6739 8.48968C30.8877 8.27776 31.1442 8.11381 31.4263 8.00874C31.7084 7.90366 32.0097 7.85987 32.31 7.88027C33.48 7.88027 34.65 7.88027 35.82 7.88027C36.0074 7.87174 36.1946 7.90237 36.3695 7.97021C36.5445 8.03805 36.7033 8.14161 36.836 8.27429C36.9687 8.40696 37.0722 8.56581 37.1401 8.74075C37.2079 8.91568 37.2385 9.10284 37.23 9.29028C37.23 10.7203 37.23 12.1503 37.23 13.5803C37.2419 13.8257 37.1856 14.0696 37.0673 14.2849C36.9491 14.5003 36.7735 14.6786 36.56 14.8003C36.25 14.9703 36.27 15.1103 36.4 15.3903C37.6107 18.1015 38.348 21.0001 38.58 23.9603C38.58 24.2503 38.68 24.3803 38.99 24.4403C40.0229 24.6581 40.9604 25.1972 41.6681 25.9804C42.3759 26.7636 42.8176 27.7507 42.93 28.8003C42.93 29.2303 43.08 29.8003 42.74 30.0603C42.5154 30.2688 42.3507 30.5336 42.2628 30.8272C42.1749 31.1208 42.167 31.4326 42.24 31.7303C42.24 31.8003 42.24 31.8603 42.24 31.9303C42.1384 32.7932 41.7913 33.6088 41.24 34.2803C41.4871 34.3488 41.7452 34.3692 42 34.3403C42.62 34.3403 42.94 34.5903 42.94 35.0703C42.94 35.5503 42.64 35.8103 42.01 35.8203H26.29C25.9 35.8203 25.77 35.8903 25.78 36.3103C25.78 37.5403 25.78 38.7803 25.78 40.0103C25.7988 40.5825 25.646 41.1473 25.3413 41.632C25.0366 42.1167 24.5938 42.4992 24.07 42.7303C23.91 42.7703 23.7 42.7503 23.57 42.9403ZM17.57 17.8003C17.66 17.8003 17.69 17.8603 17.72 17.8603H20.6C21.0974 17.8261 21.5914 17.9644 21.9989 18.2517C22.4064 18.539 22.7026 18.9578 22.8375 19.4378C22.9725 19.9178 22.938 20.4296 22.74 20.8872C22.5419 21.3448 22.1923 21.7202 21.75 21.9503C21.64 22.0203 21.52 22.0403 21.51 22.2103C21.4156 22.861 21.4556 23.5242 21.6276 24.1589C21.7996 24.7936 22.0999 25.3862 22.51 25.9003C22.6657 26.0763 22.8564 26.2179 23.0699 26.316C23.2834 26.4141 23.515 26.4667 23.75 26.4703C24.19 26.4703 24.32 26.3803 24.32 25.9203C24.32 18.3603 24.32 10.8003 24.32 3.23026C24.32 1.92026 23.84 1.44027 22.54 1.44027C21.8211 1.32761 21.087 1.35819 20.38 1.53027C19.7491 1.95615 19.2059 2.49935 18.78 3.13027C18.465 3.51315 18.0651 3.81734 17.6121 4.0187C17.159 4.22006 16.6653 4.31304 16.17 4.29028C13.9833 4.29028 11.7933 4.29028 9.60001 4.29028C9.11278 4.3147 8.62648 4.22633 8.17899 4.03207C7.73149 3.83781 7.33487 3.54289 7.02 3.17027C6.5 2.57027 6.02001 1.79028 5.35001 1.51028C4.55768 1.34007 3.74088 1.31634 2.94 1.44027C2.74 1.42684 2.53944 1.45652 2.3519 1.52729C2.16436 1.59806 1.9942 1.70827 1.85294 1.85049C1.71167 1.9927 1.6026 2.16359 1.53308 2.3516C1.46356 2.53961 1.43523 2.74036 1.45 2.94027V36.3903C1.43135 36.5941 1.45795 36.7995 1.52789 36.9919C1.59783 37.1842 1.70938 37.3588 1.85458 37.503C1.99979 37.6473 2.17507 37.7577 2.36789 37.8264C2.56071 37.895 2.7663 37.9203 2.97 37.9003H22.79C22.9974 37.9171 23.2059 37.8884 23.401 37.8163C23.5962 37.7442 23.7732 37.6304 23.9199 37.4828C24.0665 37.3352 24.1792 37.1574 24.25 36.9618C24.3209 36.7662 24.3481 36.5575 24.33 36.3503C24.33 35.9003 24.22 35.7903 23.78 35.8003H5.42C5.19428 35.8166 4.96746 35.7929 4.75 35.7303C4.60881 35.6811 4.48641 35.5893 4.3998 35.4674C4.31318 35.3456 4.26665 35.1998 4.26665 35.0503C4.26665 34.9008 4.31318 34.755 4.3998 34.6331C4.48641 34.5113 4.60881 34.4194 4.75 34.3703C4.94249 34.3447 5.13752 34.3447 5.33 34.3703H11.51C11.7004 34.4052 11.897 34.3771 12.07 34.2903C11.447 33.6077 11.0066 32.7787 10.79 31.8803C10.7 31.5303 10.84 31.0303 10.55 30.8803C10.26 30.7303 9.83 30.8803 9.45 30.8803C9.23001 30.9112 9.00583 30.8901 8.79549 30.8186C8.58514 30.7472 8.3945 30.6274 8.23888 30.4688C8.08326 30.3103 7.967 30.1175 7.89946 29.9058C7.83192 29.6942 7.81499 29.4696 7.85001 29.2503C7.87211 26.5827 8.82735 24.0071 10.55 21.9703C10.64 21.8703 10.75 21.8003 10.6 21.6603C10.3155 21.375 10.114 21.0176 10.0171 20.6265C9.92023 20.2355 9.9316 19.8254 10.05 19.4403H4.7C4.52031 19.4552 4.33969 19.4552 4.16 19.4403C4.07008 19.4341 3.98234 19.4098 3.90202 19.3689C3.82171 19.3279 3.75048 19.2712 3.6926 19.2022C3.63471 19.1331 3.59136 19.053 3.56514 18.9668C3.53892 18.8805 3.53036 18.7899 3.53999 18.7003C3.53453 18.6103 3.54756 18.5202 3.57828 18.4354C3.60899 18.3507 3.65674 18.2731 3.71858 18.2075C3.78042 18.1419 3.85504 18.0897 3.93784 18.0541C4.02063 18.0184 4.10985 18.0001 4.2 18.0003C4.45978 17.9853 4.72021 17.9853 4.98 18.0003C5.23 18.0003 5.3 17.9503 5.19 17.7003C5.00672 17.2993 4.92104 16.8607 4.94 16.4203V9.61027C4.92392 9.20686 4.99254 8.80456 5.14143 8.42928C5.29033 8.05401 5.51621 7.71411 5.8045 7.43147C6.0928 7.14882 6.43712 6.92972 6.81526 6.78828C7.19341 6.64684 7.59699 6.5862 8 6.61027C10.2667 6.61027 12.5367 6.61027 14.81 6.61027C15.2213 6.58201 15.6339 6.64239 16.0199 6.78732C16.4058 6.93224 16.7562 7.15834 17.0472 7.45034C17.3383 7.74234 17.5632 8.09342 17.7069 8.47985C17.8506 8.86628 17.9096 9.27906 17.88 9.69027V15.9703C17.9251 16.5908 17.8152 17.2128 17.56 17.7803L17.57 17.8003ZM25.45 29.3103H41.03C41.27 29.3103 41.55 29.4003 41.5 28.9503C41.4047 28.129 41.0295 27.3656 40.4377 26.7884C39.8459 26.2111 39.0734 25.8551 38.25 25.7803C37.35 25.7203 37.25 25.5903 37.19 24.6903C37.0106 21.5814 36.265 18.5313 34.99 15.6903C34.9239 15.4477 34.7689 15.2388 34.5558 15.1054C34.3427 14.972 34.0871 14.9237 33.84 14.9703C33.22 15.0303 33.22 14.9703 33.39 15.6103C34.1921 18.583 34.698 21.6278 34.9 24.7003C34.9279 25.1158 34.8689 25.5326 34.7269 25.9242C34.5848 26.3157 34.3628 26.6734 34.0749 26.9744C33.7871 27.2754 33.4397 27.5132 33.0549 27.6726C32.6702 27.832 32.2564 27.9095 31.84 27.9003C29.16 27.9003 26.49 27.9003 23.84 27.9003C23.3676 27.9144 22.8985 27.8166 22.471 27.6151C22.0435 27.4135 21.6697 27.1137 21.38 26.7403C20.4226 25.5913 19.9588 24.1101 20.09 22.6203C20.09 22.2703 20.02 22.1603 19.64 22.1603C17.53 22.1603 15.42 22.1603 13.31 22.1603C12.9901 22.1256 12.6667 22.1767 12.3732 22.3086C12.0796 22.4404 11.8266 22.6481 11.64 22.9103C11.5855 22.988 11.5254 23.0615 11.46 23.1303C10.2333 24.762 9.51974 26.7218 9.41 28.7603C9.41 29.1903 9.45999 29.3003 9.89999 29.3003C15.05 29.2803 20.25 29.2903 25.44 29.2903L25.45 29.3103ZM16.45 12.8703V9.61027C16.45 8.39027 15.9 7.86026 14.7 7.87026C14.41 7.87026 14.31 7.94027 14.32 8.24027C14.32 9.05027 14.32 9.87028 14.32 10.6803C14.3303 10.8791 14.2984 11.0778 14.2264 11.2634C14.1544 11.4489 14.0439 11.6171 13.9022 11.757C13.7605 11.8968 13.5908 12.005 13.4043 12.0745C13.2178 12.144 13.0186 12.1732 12.82 12.1603C11.93 12.1603 11.04 12.1603 10.14 12.1603C9.92882 12.1804 9.71581 12.1536 9.51619 12.0818C9.31657 12.01 9.13529 11.895 8.98529 11.745C8.83529 11.595 8.72027 11.4137 8.64848 11.2141C8.57669 11.0145 8.5499 10.8014 8.57001 10.5903V8.21027C8.57001 8.08027 8.65 7.90026 8.41 7.87026C7.25 7.74026 6.41 8.32027 6.41 9.35027C6.41 11.6903 6.41 14.0303 6.41 16.3503C6.3904 16.5495 6.41469 16.7507 6.4812 16.9395C6.54771 17.1284 6.65481 17.3003 6.79495 17.4433C6.93509 17.5863 7.10486 17.6969 7.29233 17.7672C7.47979 17.8375 7.68039 17.8658 7.88 17.8503H14.88C15.0841 17.8642 15.2887 17.8337 15.4797 17.7606C15.6708 17.6876 15.8437 17.5739 15.9864 17.4274C16.1291 17.2809 16.2382 17.1051 16.3062 16.9122C16.3741 16.7193 16.3993 16.5139 16.38 16.3103C16.46 15.1503 16.45 14.0003 16.45 12.8503V12.8703ZM24.32 39.0203C23.4464 39.3627 22.5015 39.4829 21.57 39.3703H4.67C3.58406 39.5069 2.48121 39.3871 1.45 39.0203V39.6203C1.45 41.0303 1.9 41.4903 3.3 41.4903H22.88C23.2421 41.5013 23.5941 41.3705 23.8612 41.1258C24.1283 40.8812 24.2893 40.5419 24.31 40.1803C24.3345 39.7874 24.3378 39.3935 24.32 39.0003V39.0203ZM34.69 34.3303C34.3061 33.8701 34.0195 33.3369 33.8476 32.7628C33.6757 32.1887 33.6221 31.5857 33.69 30.9903C33.69 30.6903 33.51 30.7803 33.38 30.7803H26.11C25.8 30.7803 25.74 30.8803 25.74 31.1703C25.74 32.0803 25.74 32.9803 25.74 33.8903C25.74 34.2603 25.83 34.3503 26.2 34.3503C28.08 34.3503 29.96 34.3503 31.84 34.3503L34.69 34.3303ZM15.78 30.7803H12.86C12.11 30.7803 12.11 30.7803 12.26 31.5003C12.4491 32.305 12.9117 33.0192 13.5688 33.5209C14.2258 34.0225 15.0366 34.2806 15.8627 34.2511C16.6889 34.2216 17.4792 33.9063 18.0987 33.3591C18.7183 32.8118 19.1287 32.0664 19.26 31.2503C19.31 30.8803 19.26 30.7503 18.82 30.7703C17.82 30.7803 16.8 30.7603 15.78 30.7603V30.7803ZM37.94 30.7803H35.94C35.17 30.7803 35.04 30.9203 35.13 31.6903C35.1436 31.8218 35.167 31.9522 35.2 32.0803C35.3425 32.7969 35.7557 33.4311 36.3537 33.8509C36.9517 34.2708 37.6885 34.444 38.4109 34.3345C39.1334 34.225 39.7858 33.8413 40.2326 33.2632C40.6794 32.6851 40.8862 31.957 40.81 31.2303C40.81 30.9103 40.69 30.7503 40.32 30.7703C39.5 30.7803 38.72 30.7603 37.94 30.7603V30.7803ZM19.3 34.3303H24.03C24.27 34.3303 24.33 34.2403 24.33 34.0103C24.33 33.0103 24.33 32.0103 24.33 31.0103C24.33 30.8003 24.26 30.7203 24.05 30.7203H21.05C20.87 30.7203 20.79 30.7803 20.77 30.9703C20.7041 32.2257 20.1812 33.4137 19.3 34.3103V34.3303ZM16.46 19.3303H12.37C11.76 19.3303 11.47 19.5703 11.48 20.0403C11.49 20.5103 11.79 20.7203 12.35 20.7203H20.57C21.13 20.7203 21.44 20.4603 21.44 20.0303C21.44 19.6003 21.14 19.3403 20.59 19.3303H16.46ZM18.28 1.45026C16.7 1.36026 7.96 1.40026 7.53 1.45026C7.77962 1.89263 8.15024 2.25463 8.59837 2.49375C9.04651 2.73287 9.55355 2.83921 10.06 2.80027C11.97 2.70027 13.9 2.71027 15.81 2.80027C16.3067 2.82093 16.7995 2.70508 17.235 2.46531C17.6704 2.22554 18.0319 1.87103 18.28 1.44027V1.45026ZM12.86 9.32028C12.86 8.93028 12.86 8.54027 12.86 8.16027C12.86 7.78027 12.78 7.86027 12.56 7.86027H10.33C10.08 7.86027 10.03 7.95027 10.04 8.17027C10.04 8.92027 10.04 9.66028 10.04 10.4003C10.04 10.6403 10.12 10.7103 10.34 10.7003C11.04 10.7003 11.74 10.7003 12.43 10.7003C12.82 10.7003 12.9 10.5703 12.86 10.2303C12.82 9.89026 12.86 9.62027 12.86 9.31027V9.32028ZM33.36 9.32028H32.36C31.77 9.32028 31.53 9.56027 31.52 10.1403C31.51 10.7203 31.52 11.4703 31.52 12.1403C31.52 13.5403 31.52 13.5803 32.97 13.5803C33.39 13.5803 33.36 13.4503 33.23 13.1403C32.8722 12.2791 32.7987 11.3262 33.02 10.4203C33.11 10.0403 33.24 9.69027 33.36 9.30027V9.32028ZM35.77 11.4303C35.77 10.8303 35.77 10.2303 35.77 9.63027C35.77 9.31027 35.62 9.30028 35.39 9.32028C35.2946 9.34378 35.2053 9.38708 35.1278 9.44738C35.0502 9.50768 34.9862 9.58362 34.94 9.67027C34.6174 10.0928 34.4154 10.595 34.3555 11.1233C34.2956 11.6516 34.3801 12.1862 34.6 12.6703C34.709 12.9596 34.8835 13.2198 35.11 13.4303C35.177 13.4999 35.2623 13.5491 35.3562 13.5721C35.45 13.5951 35.5484 13.591 35.64 13.5603C35.87 13.5003 35.76 13.2903 35.76 13.1503C35.77 12.5403 35.77 11.9403 35.77 11.4103V11.4303Z" fill="#EF4C23"/>
<path d="M15.78 24.9902C17.1984 25.0083 18.561 25.5455 19.61 26.5002C19.7019 26.5601 19.7803 26.6384 19.8402 26.7302C19.9002 26.822 19.9404 26.9252 19.9583 27.0334C19.9761 27.1416 19.9713 27.2523 19.944 27.3585C19.9168 27.4647 19.8678 27.564 19.8 27.6502C19.5 28.0002 19.09 27.9902 18.65 27.6502C17.8669 26.9119 16.8313 26.5006 15.755 26.5006C14.6787 26.5006 13.6431 26.9119 12.86 27.6502C12.4 28.0402 12.02 28.0602 11.7 27.7102C11.38 27.3602 11.44 26.9402 11.9 26.5302C12.96 25.5572 14.3413 25.0089 15.78 24.9902Z" fill="#EF4C23"/>
</svg>
