<svg width="41" height="38" viewBox="0 0 41 38" fill="none" xmlns="http://www.w3.org/2000/svg">
<path d="M18.1309 3.67999V0.919998C18.1309 0.199998 18.3409 0 19.0709 0H29.2909C29.9909 0 30.2209 0.230002 30.2209 0.940002V9.02C30.2209 9.15 30.1309 9.34999 30.3009 9.39999C30.4709 9.44999 30.5409 9.21999 30.6009 9.09999C30.9709 8.37999 31.3309 7.65 31.7009 6.92C31.7288 6.85878 31.7433 6.79227 31.7433 6.72499C31.7433 6.65771 31.7288 6.59122 31.7009 6.53C31.5126 6.05732 31.4302 5.54909 31.4596 5.04112C31.489 4.53316 31.6294 4.03782 31.8709 3.59C31.9573 3.42327 32.076 3.27546 32.2203 3.15526C32.3645 3.03505 32.5313 2.94487 32.7109 2.89C33.7016 2.56483 34.7702 2.56483 35.7609 2.89C35.9782 2.96385 36.1753 3.08723 36.3367 3.25037C36.4981 3.41351 36.6194 3.61194 36.6909 3.83C37.0358 4.69004 37.0358 5.64995 36.6909 6.50999C36.6558 6.5708 36.6373 6.63978 36.6373 6.70999C36.6373 6.78021 36.6558 6.8492 36.6909 6.91C37.0609 7.65 37.4409 8.38 37.8009 9.13C37.8341 9.21942 37.8968 9.29486 37.9785 9.34393C38.0603 9.39301 38.1564 9.41277 38.2509 9.39999C38.5909 9.39999 38.9309 9.39999 39.2509 9.39999C40.0509 9.39999 40.2509 9.7 40.1309 10.5C39.9009 11.58 39.6809 12.66 39.4509 13.74L36.9309 25.83C36.9004 26.0054 36.8604 26.179 36.8109 26.35C36.7775 26.5016 36.6901 26.636 36.565 26.728C36.4399 26.82 36.2856 26.8633 36.1309 26.85H11.1609C9.8909 26.85 9.4109 27.33 9.4109 28.58C9.4109 28.85 9.4109 29.13 9.4109 29.4C9.39236 29.5963 9.4174 29.7944 9.48422 29.9799C9.55103 30.1655 9.65799 30.334 9.79745 30.4734C9.9369 30.6129 10.1054 30.7199 10.291 30.7867C10.4765 30.8535 10.6746 30.8785 10.8709 30.86H37.5509C37.7402 30.8573 37.9229 30.9292 38.0595 31.0602C38.1961 31.1912 38.2757 31.3708 38.2809 31.56C38.2816 31.6538 38.2623 31.7467 38.2242 31.8325C38.1862 31.9183 38.1303 31.995 38.0602 32.0574C37.9902 32.1199 37.9076 32.1667 37.8181 32.1947C37.7285 32.2228 37.6341 32.2314 37.5409 32.22H35.0109C35.9009 34.44 35.6309 35.96 34.1809 36.98C33.5477 37.4324 32.7774 37.6516 32.0009 37.6006C31.2244 37.5496 30.4895 37.2313 29.9209 36.7C29.3288 36.1355 28.9573 35.3785 28.873 34.5647C28.7887 33.751 28.9971 32.9339 29.4609 32.26H16.1909C16.4971 32.7066 16.6946 33.2186 16.7676 33.7552C16.8405 34.2917 16.7869 34.8379 16.6109 35.35C16.3828 36.0369 15.9279 36.6258 15.3209 37.02C14.7143 37.4352 13.9876 37.6387 13.2536 37.599C12.5195 37.5592 11.8191 37.2784 11.2609 36.8C9.9509 35.7 9.75091 34.21 10.6409 32.25C10.1288 32.2279 9.63357 32.0599 9.21369 31.7658C8.79381 31.4717 8.46671 31.0638 8.2709 30.59C7.98852 29.8665 7.89995 29.0818 8.01396 28.3136C8.12796 27.5454 8.44059 26.8203 8.92091 26.21C9.0181 26.0972 9.13716 26.0054 9.2709 25.94C9.9409 25.76 9.85091 25.31 9.73091 24.8C8.73757 20.6867 7.7609 16.5733 6.8009 12.46C6.17423 9.79332 5.54757 7.11 4.92091 4.41C4.86091 4.11 4.75091 4.02 4.45091 4.03C3.26091 4.03 2.08091 4.03 0.890909 4.03C0.300909 4.03 0.0209099 3.82 0.000909944 3.38C-0.0190901 2.94 0.290904 2.67999 0.900904 2.67999C2.3309 2.67999 3.7609 2.67999 5.1909 2.67999C5.29477 2.666 5.40038 2.67282 5.5016 2.70004C5.60281 2.72727 5.6976 2.77436 5.78044 2.83858C5.86327 2.9028 5.93249 2.98286 5.98408 3.0741C6.03567 3.16533 6.06857 3.26591 6.0809 3.37C6.2709 4.21 6.4809 5.04 6.6609 5.88C6.7409 6.23 6.8209 6.47 7.2109 6.13C7.29075 6.07165 7.37823 6.02455 7.4709 5.99001C7.79986 5.89659 8.10194 5.72638 8.35229 5.49342C8.60263 5.26046 8.79408 4.97139 8.9109 4.64999C9.19673 4.13645 9.59839 3.69665 10.0839 3.36549C10.5695 3.03434 11.1256 2.82097 11.708 2.74234C12.2905 2.66371 12.8832 2.72198 13.4392 2.91252C13.9952 3.10307 14.4991 3.42063 14.9109 3.84C15.1409 4.08 15.2709 4.14999 15.5809 3.95999C15.8901 3.76513 16.2355 3.6346 16.5963 3.57619C16.9571 3.51777 17.326 3.53266 17.6809 3.62L18.1309 3.67999ZM26.1309 5.38C26.1309 4.18 26.1309 2.98 26.1309 1.78C26.1309 1.44 26.0509 1.33999 25.7109 1.34999C23.7609 1.34999 21.8109 1.34999 19.8709 1.34999C19.5609 1.34999 19.4509 1.41001 19.4609 1.74001C19.4609 4.16001 19.4609 6.57667 19.4609 8.99001C19.4609 9.31001 19.5409 9.39 19.8609 9.39C21.8609 9.39 23.7809 9.39 25.7409 9.39C26.0809 9.39 26.1309 9.28 26.1309 8.98C26.1509 7.78 26.1509 6.58 26.1509 5.38H26.1309ZM12.8109 9.38C14.4209 9.38 16.0309 9.38 17.6309 9.38C18.0009 9.38 18.1409 9.32 18.1209 8.92C18.1209 7.92 18.1209 6.92 18.1209 5.92C18.1209 5.23 17.8909 4.92 17.1909 4.92C16.9318 4.89092 16.6697 4.93223 16.4321 5.03958C16.1945 5.14693 15.9903 5.31635 15.8409 5.53C15.2609 6.29 14.7909 6.24999 14.3909 5.39999C14.1547 4.91364 13.7625 4.52039 13.2767 4.28296C12.791 4.04553 12.2398 3.9776 11.7109 4.09C11.1968 4.19197 10.7315 4.46291 10.389 4.85973C10.0465 5.25655 9.84657 5.75647 9.8209 6.28C9.77424 6.86 9.51424 7.14 9.0409 7.12C7.5909 7.06 7.0909 7.66 7.4109 9.03C7.4809 9.34 7.6309 9.39 7.9109 9.39L12.8109 9.38ZM23.4909 10.74C22.7509 10.74 22.0009 10.74 21.2609 10.74C20.9009 10.74 20.8209 10.85 20.8509 11.18C20.8509 11.81 20.9309 12.45 20.9309 13.08C20.9309 13.33 21.0109 13.41 21.2709 13.41H25.6909C25.9109 13.41 26.0109 13.41 26.0209 13.11C26.0209 12.43 26.0209 11.75 26.1009 11.11C26.1009 10.85 26.0309 10.78 25.7809 10.79C25.0409 10.75 24.2809 10.74 23.5109 10.74H23.4909ZM7.81091 10.74C8.00091 11.55 8.1809 12.32 8.3509 13.09C8.3509 13.25 8.3509 13.4 8.6309 13.4H12.9109C13.1209 13.4 13.1309 13.33 13.1009 13.14C13.0009 12.44 12.9209 11.73 12.8409 11.02C12.8409 10.82 12.7509 10.75 12.5409 10.75C10.9909 10.75 9.4309 10.74 7.7909 10.74H7.81091ZM11.5009 17.44H13.3009C13.5309 17.44 13.6609 17.44 13.6109 17.13C13.5009 16.44 13.4209 15.75 13.3509 15.06C13.3509 14.79 13.2109 14.75 12.9809 14.75H9.09091C8.77091 14.75 8.7609 14.85 8.8309 15.12C9.0009 15.77 9.1609 16.43 9.2909 17.12C9.3509 17.41 9.48091 17.48 9.75091 17.47C10.3609 17.43 10.9409 17.44 11.5209 17.44H11.5009ZM17.5009 18.81C16.8409 18.81 16.1809 18.81 15.5009 18.81C15.2409 18.81 15.1809 18.89 15.2209 19.15C15.3309 19.82 15.4209 20.5 15.4709 21.15C15.4709 21.43 15.6109 21.46 15.8309 21.46C17.0809 21.46 18.3209 21.46 19.5709 21.46C19.8309 21.46 19.9009 21.38 19.8809 21.13C19.8409 20.4633 19.8109 19.7967 19.7909 19.13C19.7909 18.9 19.7109 18.83 19.4809 18.83C18.8509 18.82 18.1909 18.81 17.5209 18.81H17.5009ZM33.8209 13.39H37.9609C38.1509 13.39 38.2009 13.29 38.2309 13.13C38.3709 12.44 38.5209 11.74 38.6809 11.05C38.7509 10.76 38.6209 10.74 38.3909 10.74C37.0909 10.74 35.8009 10.74 34.5009 10.74C34.1809 10.74 34.1309 10.87 34.1009 11.13C34.0509 11.85 33.9509 12.57 33.8409 13.39H33.8209ZM34.2009 34.21C34.2009 33.6796 33.9902 33.1709 33.6151 32.7958C33.2401 32.4207 32.7313 32.21 32.2009 32.21C31.6705 32.21 31.1618 32.4207 30.7867 32.7958C30.4116 33.1709 30.2009 33.6796 30.2009 34.21C30.2009 34.7404 30.4116 35.2491 30.7867 35.6242C31.1618 35.9993 31.6705 36.21 32.2009 36.21C32.7313 36.21 33.2401 35.9993 33.6151 35.6242C33.9902 35.2491 34.2009 34.7404 34.2009 34.21ZM13.3609 36.21C13.8778 36.2104 14.3747 36.0107 14.7476 35.6528C15.1204 35.2948 15.3402 34.8064 15.3609 34.29C15.3668 34.0273 15.3209 33.7661 15.2259 33.5212C15.1308 33.2763 14.9885 33.0525 14.8069 32.8626C14.6254 32.6727 14.4082 32.5204 14.1678 32.4145C13.9275 32.3085 13.6686 32.2509 13.4059 32.245C13.1433 32.2391 12.882 32.285 12.6371 32.38C12.3922 32.4751 12.1684 32.6174 11.9785 32.799C11.7886 32.9805 11.6363 33.1977 11.5304 33.438C11.4244 33.6784 11.3668 33.9374 11.3609 34.2C11.3596 34.4652 11.411 34.728 11.5121 34.9731C11.6133 35.2182 11.7622 35.4408 11.9502 35.6278C12.1381 35.8149 12.3614 35.9627 12.6071 36.0626C12.8527 36.1626 13.1157 36.2126 13.3809 36.21H13.3609ZM28.8409 5.39V2.23C28.8409 1.35 28.8409 1.36 27.9509 1.34C27.5909 1.34 27.4909 1.44 27.4909 1.8C27.4909 4.01 27.4909 6.22 27.4909 8.42C27.4909 9.42 27.4909 9.42 28.4909 9.42C28.7709 9.42 28.8409 9.33999 28.8409 9.06999C28.8509 7.81999 28.8609 6.61 28.8609 5.39H28.8409ZM23.4809 22.82C22.9009 22.82 22.3109 22.82 21.7309 22.82C21.3909 22.82 21.3209 22.92 21.3509 23.23C21.3509 23.86 21.4209 24.49 21.4309 25.12C21.4309 25.4 21.5209 25.48 21.7909 25.48C22.9109 25.48 24.0309 25.48 25.1509 25.48C25.4109 25.48 25.5209 25.41 25.5209 25.13C25.5209 24.48 25.5209 23.83 25.6009 23.19C25.6009 22.86 25.5109 22.81 25.2309 22.82C24.6709 22.84 24.0809 22.82 23.5009 22.82H23.4809ZM35.1209 18.82H33.4209C33.2409 18.82 33.1309 18.82 33.1109 19.06C33.0409 19.77 32.9409 20.48 32.8409 21.18C32.8409 21.37 32.8409 21.48 33.0609 21.48H36.2709C36.4509 21.48 36.5209 21.48 36.5609 21.25C36.6909 20.53 36.8409 19.82 37.0009 19.11C37.0509 18.9 37.0009 18.82 36.7709 18.83C36.2409 18.82 35.6909 18.81 35.1409 18.81L35.1209 18.82ZM12.4909 22.82C11.9709 22.82 11.4909 22.82 10.9409 22.82C10.6909 22.82 10.6409 22.82 10.7109 23.11C10.8909 23.82 11.0609 24.52 11.2109 25.23C11.2609 25.45 11.3809 25.47 11.5509 25.47C12.4809 25.47 13.4009 25.47 14.3209 25.47C14.6009 25.47 14.6409 25.37 14.6009 25.13C14.5009 24.45 14.4109 23.78 14.3509 23.13C14.3509 22.85 14.2109 22.84 13.9909 22.84L12.4909 22.82ZM36.4909 9.38C36.2009 8.77 35.9409 8.24 35.6709 7.7C35.5509 7.46 35.4309 7.21 35.2909 6.97C35.1509 6.73 33.4109 6.6 33.2309 6.97C32.8209 7.75 32.4409 8.54 32.0309 9.36H32.2009L36.4909 9.38ZM18.2109 10.74H14.4909C14.3109 10.74 14.2409 10.74 14.2609 10.99C14.3609 11.71 14.4509 12.43 14.5309 13.15C14.5309 13.33 14.6109 13.4 14.8009 13.4C15.2709 13.4 15.7409 13.4 16.2009 13.4C16.2813 13.4042 16.3612 13.3846 16.4305 13.3437C16.4999 13.3028 16.5557 13.2424 16.5909 13.17L18.2109 10.74ZM28.7909 13.35C29.1509 13.35 29.5109 13.35 29.8609 13.35C30.2109 13.35 30.2009 13.28 30.1909 13.02C30.1909 12.39 30.1909 11.75 30.1909 11.12C30.1909 10.73 30.0609 10.66 29.7209 10.69C29.3809 10.72 29.0409 10.69 28.7209 10.69C28.4009 10.69 27.8309 10.56 27.5909 10.76C27.3509 10.96 27.4809 11.51 27.4609 11.91C27.4409 12.31 27.2009 12.99 27.4609 13.26C27.7209 13.53 28.3609 13.35 28.7909 13.35ZM28.0009 17.44H31.7909C31.9809 17.44 31.9709 17.31 31.9809 17.18C32.0709 16.47 32.1509 15.77 32.2509 15.06C32.2509 14.83 32.2509 14.77 31.9809 14.74C31.7027 14.7097 31.4213 14.7466 31.1603 14.8475C30.8993 14.9484 30.6663 15.1104 30.4809 15.32C29.7209 16.02 28.9209 16.67 28.0209 17.44H28.0009ZM23.0909 14.75C23.2509 15.23 23.3709 15.66 23.5309 16.08C23.6909 16.5 23.6709 17.18 24.0709 17.38C24.4709 17.58 25.0209 17.44 25.5009 17.44H25.5509C25.7509 17.44 25.8409 17.39 25.8509 17.18C25.8509 16.46 25.8509 15.75 25.9309 15.04C25.9309 14.83 25.9309 14.75 25.6609 14.75H23.0909ZM19.7109 16.18C19.7109 15.82 19.6609 15.47 19.6609 15.11C19.6609 14.75 19.5909 14.73 19.3009 14.75C18.8509 14.75 18.3909 14.75 17.9409 14.75C17.6509 14.75 17.5909 14.84 17.6409 15.11C17.7609 15.76 17.8609 16.41 17.9509 17.11C18.0009 17.4 18.1209 17.52 18.4309 17.49C18.7409 17.46 19.4309 17.67 19.6809 17.38C19.9309 17.09 19.7309 16.58 19.7309 16.18H19.7109ZM20.0609 24.18H19.9709C19.9709 23.84 19.9709 23.5 19.9709 23.18C19.9709 22.86 19.9109 22.82 19.6409 22.84C19.3709 22.86 18.8309 22.84 18.4309 22.84C18.0309 22.84 18.1009 22.92 18.1109 23.16C18.1109 23.83 18.1109 24.49 18.1109 25.16C18.1109 25.39 18.1109 25.51 18.4209 25.5C18.8509 25.5 19.2909 25.5 19.7309 25.5C19.9809 25.5 20.0809 25.44 20.0509 25.18C20.0209 24.92 20.0809 24.5 20.0809 24.18H20.0609ZM15.7909 17.44C15.904 17.4298 16.0178 17.4298 16.1309 17.44C16.5409 17.5 16.6309 17.32 16.5509 16.95C16.4682 16.5869 16.4048 16.2198 16.3609 15.85C16.1809 14.69 16.1809 14.7 15.0109 14.74C14.7409 14.74 14.6809 14.82 14.7209 15.08C14.7909 15.59 14.8509 16.08 14.9009 16.62C15.0209 17.44 15.0209 17.44 15.7909 17.44ZM30.6509 21.44C31.4109 21.44 31.4109 21.44 31.5109 20.67C31.5109 20.45 31.5609 20.22 31.5909 20C31.5909 19.61 31.8709 19.05 31.6509 18.87C31.4309 18.69 30.8509 18.81 30.4309 18.78C30.1709 18.78 30.1009 18.88 30.0909 19.12C30.0909 19.65 30.0209 20.18 29.9809 20.71C29.9509 21.46 29.9509 21.46 30.6809 21.46L30.6509 21.44ZM27.0609 20.29C27.0609 20.5 27.0609 20.79 27.0609 21.08C27.0609 21.21 26.9409 21.47 27.2209 21.43C27.6609 21.38 28.1309 21.62 28.5409 21.29C28.5409 21.29 28.5409 21.17 28.5409 21.11C28.5409 20.49 28.6209 19.88 28.7109 19.27C28.7709 18.85 28.6309 18.74 28.2309 18.78C27.9579 18.8001 27.6839 18.8001 27.4109 18.78C27.2109 18.78 27.1209 18.83 27.1209 19.04C27.1609 19.46 27.1209 19.84 27.0909 20.31L27.0609 20.29ZM36.3309 17.42V17.32L33.5609 15.02C33.4609 15.82 33.3809 16.51 33.2909 17.2C33.2909 17.33 33.2909 17.42 33.4509 17.42H36.3309ZM10.3309 21.51L12.5909 18.79H9.9709C9.8309 18.79 9.6909 18.79 9.7409 18.99L10.3309 21.51ZM26.9109 24.11C26.9109 24.45 26.9109 24.79 26.9109 25.11C26.9109 25.43 26.9809 25.45 27.2309 25.43C27.4809 25.41 27.7509 25.43 28.0009 25.43C28.2509 25.43 28.2609 25.35 28.2709 25.18C28.3209 24.47 28.3809 23.76 28.4409 23.05C28.4409 22.95 28.5009 22.8 28.3209 22.79C27.9075 22.7405 27.4889 22.7574 27.0809 22.84C26.8809 22.91 27.0209 23.38 26.9709 23.66C26.9209 23.94 26.9509 23.99 26.9409 24.13L26.9109 24.11ZM30.2809 25.45C30.4609 25.32 30.8709 25.7 30.9409 25.19C31.0509 24.47 31.1209 23.75 31.2309 23.02C31.2309 22.84 31.2309 22.8 31.0309 22.8H30.0309C29.8109 22.8 29.7609 22.89 29.7509 23.08C29.7509 23.65 29.6709 24.22 29.6109 24.78C29.5509 25.34 29.5909 25.47 30.3109 25.47L30.2809 25.45ZM34.2009 5.31999H35.2609C35.3609 5.31999 35.4809 5.37 35.5509 5.22C35.7209 4.78 35.4309 4.08999 34.9809 4.03999C34.4655 3.98982 33.9464 3.98982 33.4309 4.03999C33.0009 4.03999 32.8209 4.48999 32.8709 5.03999C32.9209 5.58999 33.2609 5.24999 33.4709 5.28999C33.7223 5.3285 33.9766 5.34523 34.2309 5.34L34.2009 5.31999ZM25.6609 19.32L22.8409 21.44H25.4009C25.5409 21.44 25.6609 21.44 25.6609 21.25V19.32ZM23.9509 18.89V18.79H21.4809C21.3609 18.79 21.2009 18.79 21.2109 18.96C21.2109 19.58 21.2609 20.2 21.2909 20.9L23.9509 18.89ZM32.6109 22.89C32.5109 23.74 32.4209 24.48 32.3309 25.22C32.3309 25.36 32.3309 25.43 32.5009 25.43H34.6509L32.6109 22.89ZM21.0209 15.82C21.0209 16.01 21.0209 16.21 21.0209 16.4C21.0709 17.4 21.0709 17.4 22.1409 17.4C22.3909 17.4 22.4909 17.4 22.3909 17.07C22.1409 16.37 21.9009 15.67 21.6909 14.95C21.5909 14.63 21.3609 14.7 21.1509 14.71C20.9409 14.72 21.0009 14.94 20.9909 15.08C20.9809 15.22 21.0509 15.61 21.0509 15.86L21.0209 15.82ZM31.5409 11.99C31.5409 12.34 31.5409 12.7 31.5409 13.06C31.5409 13.24 31.5409 13.41 31.7909 13.34C32.0409 13.27 32.3709 13.58 32.4409 13.12C32.5109 12.66 32.5809 12.06 32.6509 11.54C32.7709 10.69 32.7709 10.7 31.9109 10.69C31.6209 10.69 31.5009 10.75 31.5309 11.06C31.5609 11.37 31.5709 11.72 31.5709 12.03L31.5409 11.99ZM15.7309 22.92C15.8209 23.67 15.9509 24.42 15.9909 25.17C15.9909 25.59 16.2609 25.5 16.5109 25.52C16.7609 25.54 16.7709 25.29 16.7809 25.11C16.7809 24.66 16.7809 24.21 16.7809 23.76C16.7809 22.81 16.7809 22.81 15.7809 22.88C15.7627 22.8912 15.7459 22.9047 15.7309 22.92ZM35.4509 14.82L37.5509 16.56L37.9209 14.82H35.4509ZM12.2009 21.51C12.8509 21.51 13.3809 21.51 13.9109 21.51C14.0109 21.51 14.1709 21.51 14.1409 21.36C14.0709 20.76 13.9909 20.17 13.9009 19.48L12.2009 21.51ZM34.3309 22.89L35.8409 24.76L36.2409 22.89H34.3309ZM18.0809 13.44H19.2909C19.4109 13.44 19.5909 13.49 19.5809 13.29C19.5809 12.68 19.5809 12.07 19.5009 11.45H19.4009L18.0809 13.44ZM27.3609 16.25L29.0309 14.81C27.2609 14.81 27.2609 14.81 27.3009 16.13C27.3009 16.1 27.3209 16.13 27.3609 16.2V16.25Z" fill="#EF4C23"/>
<path d="M22.8409 2.67004H24.1109C24.2065 2.65839 24.3034 2.66715 24.3953 2.69575C24.4872 2.72435 24.572 2.77213 24.644 2.83593C24.7161 2.89974 24.7738 2.97812 24.8133 3.06588C24.8528 3.15365 24.8732 3.2488 24.8732 3.34504C24.8732 3.44129 24.8528 3.53644 24.8133 3.6242C24.7738 3.71196 24.7161 3.79033 24.644 3.85414C24.572 3.91794 24.4872 3.96574 24.3953 3.99433C24.3034 4.02293 24.2065 4.0317 24.1109 4.02005C23.2709 4.02005 22.4309 4.02005 21.5809 4.02005C21.4846 4.03128 21.3871 4.02212 21.2946 3.99314C21.2021 3.96417 21.1168 3.91605 21.0441 3.85189C20.9715 3.78774 20.9132 3.709 20.873 3.62081C20.8328 3.53262 20.8117 3.43695 20.8109 3.34004C20.8171 3.24357 20.8427 3.14935 20.8862 3.06298C20.9296 2.97662 20.99 2.89989 21.0637 2.83737C21.1374 2.77484 21.223 2.72781 21.3153 2.69906C21.4076 2.67031 21.5047 2.66044 21.6009 2.67004H22.8409Z" fill="#EF4C23"/>
<path d="M32.901 34.23C32.901 34.3197 32.883 34.4085 32.8481 34.4911C32.8132 34.5738 32.7621 34.6485 32.6977 34.711C32.6334 34.7735 32.5571 34.8224 32.4735 34.8549C32.3899 34.8874 32.3006 34.9027 32.211 34.9C32.1217 34.8987 32.0335 34.8798 31.9515 34.8445C31.8695 34.8091 31.7953 34.7579 31.733 34.6938C31.6708 34.6297 31.6218 34.554 31.5889 34.471C31.5559 34.388 31.5396 34.2993 31.541 34.21C31.541 34.0297 31.6126 33.8567 31.7401 33.7292C31.8677 33.6017 32.0406 33.53 32.221 33.53C32.4013 33.53 32.5743 33.6017 32.7018 33.7292C32.8293 33.8567 32.901 34.0297 32.901 34.21V34.23Z" fill="#EF4C23"/>
<path d="M13.431 33.5501C13.6106 33.55 13.7831 33.6199 13.912 33.745C14.0408 33.8701 14.1158 34.0405 14.121 34.2201C14.1159 34.4005 14.0412 34.572 13.9126 34.6987C13.784 34.8254 13.6115 34.8975 13.431 34.9C13.3414 34.9029 13.2522 34.8872 13.1689 34.8539C13.0857 34.8206 13.0102 34.7704 12.9473 34.7066C12.8843 34.6427 12.8353 34.5665 12.8033 34.4828C12.7712 34.3991 12.7568 34.3096 12.761 34.2201C12.7567 34.1309 12.7711 34.0419 12.8033 33.9587C12.8354 33.8754 12.8846 33.7999 12.9477 33.7368C13.0108 33.6737 13.0864 33.6245 13.1696 33.5923C13.2528 33.5602 13.3419 33.5458 13.431 33.5501Z" fill="#EF4C23"/>
</svg>
