<svg width="43" height="43" viewBox="0 0 43 43" fill="none" xmlns="http://www.w3.org/2000/svg">
<path d="M2.40826 42.0558C2.1675 41.5268 2.0676 40.9447 2.11827 40.3658C2.11827 32.9391 2.11827 25.5058 2.11827 18.0658C2.11827 17.6458 2.03826 17.4858 1.56826 17.5058C1.24207 17.5328 0.916304 17.4488 0.643961 17.2672C0.371619 17.0856 0.168721 16.8173 0.0682627 16.5058C-0.030949 16.1917 -0.0217911 15.8533 0.0942636 15.5451C0.210318 15.2368 0.426544 14.9764 0.708262 14.8057L13.0682 5.66575C13.6482 5.23575 14.2383 4.79575 14.8283 4.37575C15.0795 4.16225 15.3985 4.04504 15.7283 4.04504C16.058 4.04504 16.377 4.16225 16.6283 4.37575L21.1683 7.72575C21.6483 8.08575 21.7583 8.50575 21.4783 8.88575C21.1983 9.26575 20.7682 9.25575 20.2882 8.88575C18.8682 7.82575 17.4483 6.78575 16.0283 5.71575C15.9909 5.67642 15.9459 5.64509 15.8961 5.62369C15.8462 5.60228 15.7925 5.59125 15.7383 5.59125C15.684 5.59125 15.6303 5.60228 15.5805 5.62369C15.5306 5.64509 15.4856 5.67642 15.4483 5.71575L1.87826 15.7158C1.78826 15.7758 1.70827 15.8558 1.52827 16.0058H13.9583C14.0484 16.0044 14.1379 16.021 14.2216 16.0546C14.3052 16.0882 14.3814 16.1381 14.4456 16.2013C14.5098 16.2646 14.5608 16.34 14.5956 16.4232C14.6304 16.5064 14.6483 16.5956 14.6483 16.6858C14.6621 16.8752 14.6005 17.0624 14.4768 17.2067C14.3532 17.3509 14.1776 17.4404 13.9883 17.4557C13.8284 17.4657 13.6681 17.4657 13.5083 17.4557C10.3383 17.4557 7.17827 17.4557 4.00827 17.4557C3.61827 17.4557 3.53826 17.5658 3.53826 17.9358C3.53826 25.4891 3.53826 33.0357 3.53826 40.5757C3.53826 40.9657 3.64826 41.0557 4.01826 41.0457C8.21826 41.0457 12.4216 41.0457 16.6283 41.0457C17.0783 41.0457 17.1483 40.9058 17.1483 40.5058C17.1483 38.5058 17.1483 36.6057 17.1483 34.6557C17.1839 33.5476 17.6452 32.4959 18.4363 31.7191C19.2274 30.9423 20.2874 30.5003 21.396 30.4848C22.5046 30.4694 23.5764 30.8817 24.3889 31.6362C25.2013 32.3906 25.6917 33.4291 25.7582 34.5358C25.7582 36.5358 25.7582 38.5358 25.7582 40.4758C25.7582 40.8958 25.8283 41.0958 26.2983 41.0358C26.6541 41.0008 27.0125 41.0008 27.3683 41.0358C27.7783 41.0358 27.9083 40.9757 27.9083 40.5257C27.9083 36.6457 27.9083 32.7657 27.9083 28.8857C27.9083 28.7357 27.9083 28.5957 27.9083 28.4457C27.9056 28.3596 27.9201 28.2737 27.951 28.1932C27.9818 28.1126 28.0284 28.0391 28.0879 27.9767C28.1475 27.9143 28.2189 27.8645 28.2979 27.83C28.3769 27.7955 28.462 27.777 28.5483 27.7757C28.7271 27.7467 28.9102 27.7891 29.058 27.8939C29.2058 27.9987 29.3065 28.1574 29.3383 28.3357C29.3585 28.4784 29.3585 28.6231 29.3383 28.7657C29.3383 32.7657 29.3383 36.7657 29.3383 40.7657C29.3202 41.1807 29.2217 41.5883 29.0483 41.9657L2.40826 42.0558ZM18.6483 37.6158C18.6483 38.6158 18.6483 39.6158 18.6483 40.6758C18.6483 41.0258 18.7583 41.1057 19.0883 41.0957H23.9583C24.2883 41.0957 24.3683 40.9957 24.3583 40.6857C24.3583 38.6857 24.3583 36.6858 24.3583 34.6858C24.3621 34.2141 24.2451 33.7493 24.0183 33.3357C23.7261 32.7976 23.2661 32.3696 22.7084 32.1169C22.1506 31.8641 21.5255 31.8005 20.9283 31.9358C20.3248 32.0479 19.777 32.361 19.3739 32.8239C18.9709 33.2869 18.7363 33.8726 18.7083 34.4857C18.6083 35.5057 18.6483 36.5658 18.6483 37.6158Z" fill="#EF4C23"/>
<path d="M42.9583 4.75572C42.9426 4.75286 42.9264 4.75319 42.9107 4.7567C42.8951 4.76021 42.8803 4.76683 42.8672 4.77615C42.8542 4.78547 42.8431 4.79732 42.8347 4.81098C42.8263 4.82465 42.8207 4.83986 42.8183 4.85571C42.4388 5.92304 41.7407 6.84808 40.8183 7.50572L33.7583 13.9057C33.6743 13.9645 33.616 14.0533 33.5955 14.1537C33.5751 14.2542 33.594 14.3588 33.6483 14.4457C34.1189 15.5037 34.2076 16.6922 33.8994 17.8084C33.5912 18.9245 32.9051 19.8991 31.9583 20.5657C31.5198 20.8953 31.2203 21.3767 31.1184 21.9157C30.8484 22.9157 30.5683 23.9757 30.3183 25.0157C30.2795 25.1808 30.2082 25.3366 30.1086 25.4739C30.0091 25.6113 29.8832 25.7275 29.7383 25.8157C29.0341 26.2924 28.1985 26.5372 27.3484 26.5157C25.325 26.4592 23.3514 25.8761 21.6223 24.8239C19.8932 23.7717 18.4683 22.2868 17.4883 20.5157C16.4738 18.879 15.937 16.9913 15.9384 15.0657C15.9407 14.6125 16.0046 14.1617 16.1284 13.7257C16.204 13.2945 16.4106 12.8971 16.7202 12.5875C17.0297 12.278 17.4271 12.0713 17.8583 11.9957C18.9883 11.7857 20.0883 11.4257 21.1983 11.1357C21.2834 11.1229 21.3648 11.0922 21.4372 11.0457C21.5096 10.9991 21.5713 10.9378 21.6184 10.8657C22.2341 9.82292 23.2033 9.03552 24.3502 8.64652C25.497 8.25752 26.7453 8.29271 27.8684 8.74571C28.0054 8.83308 28.1712 8.86317 28.3301 8.82951C28.4891 8.79584 28.6285 8.70112 28.7184 8.56571C31.0384 5.98571 33.3784 3.42571 35.7184 0.855715C35.9403 0.568207 36.2299 0.340115 36.5615 0.191797C36.893 0.0434796 37.2561 -0.020447 37.6183 0.00571612C38.5383 0.0857161 39.4683 0.00571612 40.3983 0.00571612C40.657 0.00210069 40.9097 0.0828375 41.1183 0.235712C41.8867 0.763141 42.4541 1.53497 42.7283 2.42571C42.7283 2.53571 42.7283 2.69571 42.8983 2.73571L42.9583 4.75572ZM24.1383 24.4157C24.3683 23.5957 24.5984 22.7857 24.8384 21.9857C24.9984 21.4357 25.2984 21.2457 25.7484 21.3757C25.8512 21.4013 25.947 21.4493 26.0292 21.5162C26.1113 21.5831 26.1777 21.6673 26.2235 21.7628C26.2694 21.8583 26.2936 21.9628 26.2944 22.0687C26.2952 22.1747 26.2727 22.2795 26.2283 22.3757C26.0383 23.0957 25.8383 23.8057 25.6483 24.5257C25.6483 24.6657 25.4783 24.8557 25.7583 24.9157C26.6844 25.1707 27.6623 25.1707 28.5884 24.9157C28.7094 24.8755 28.8171 24.8031 28.8999 24.7061C28.9827 24.6092 29.0375 24.4915 29.0584 24.3657C29.3384 23.2157 29.6383 22.0757 29.9583 20.9357C30.0033 20.8251 30.013 20.7033 29.9861 20.587C29.9593 20.4707 29.8972 20.3654 29.8084 20.2857C27.3017 17.7924 24.7983 15.2957 22.2983 12.7957C22.2298 12.7096 22.1362 12.647 22.0305 12.6166C21.9247 12.5861 21.8122 12.5893 21.7083 12.6257C20.5683 12.9457 19.4284 13.2557 18.2784 13.5257C18.1272 13.5479 17.9863 13.6151 17.8739 13.7185C17.7615 13.822 17.6829 13.9569 17.6483 14.1057C17.4382 14.9563 17.4382 15.8452 17.6483 16.6957C17.7083 17.0157 17.8283 17.0157 18.0683 16.9457C18.7683 16.7457 19.4783 16.5657 20.1783 16.3757C20.8783 16.1857 21.0883 16.3757 21.1783 16.8457C21.2683 17.3157 21.1183 17.5957 20.5683 17.7557C19.7683 17.9957 18.9584 18.2257 18.1284 18.4557C18.5484 19.4794 19.1106 20.4389 19.7983 21.3057C19.9883 21.5557 20.1084 21.4657 20.2784 21.3057L22.2784 19.3057C22.3678 19.1908 22.4835 19.0991 22.6157 19.0382C22.748 18.9773 22.8929 18.949 23.0383 18.9557C23.1701 18.9643 23.2964 19.0115 23.4013 19.0916C23.5063 19.1716 23.5853 19.2809 23.6284 19.4057C23.686 19.55 23.6967 19.7089 23.659 19.8596C23.6213 20.0104 23.5371 20.1455 23.4183 20.2457C22.7283 20.9357 22.0484 21.6357 21.3484 22.3057C21.1284 22.5157 21.1384 22.6257 21.3484 22.8157C22.1857 23.475 23.1114 24.0135 24.0984 24.4157H24.1383ZM38.7283 1.05571C38.344 1.07546 37.968 1.1745 37.6238 1.34659C37.2796 1.51868 36.9747 1.76011 36.7283 2.05571C34.4283 4.60904 32.1183 7.14905 29.7983 9.67571C29.6483 9.84571 29.5983 9.94571 29.7983 10.1357C30.6983 11.0057 31.5783 11.8857 32.4483 12.7757C32.6383 12.9757 32.7283 12.9257 32.8983 12.7757L35.9583 9.92571C37.5183 8.50571 39.0884 7.10571 40.6284 5.66571C41.0226 5.29757 41.2951 4.81789 41.4094 4.29075C41.5238 3.76362 41.4746 3.21413 41.2683 2.71572C41.0587 2.20905 40.6993 1.77854 40.2382 1.48186C39.7771 1.18518 39.2363 1.03649 38.6884 1.05571H38.7283ZM32.6183 16.5657C32.626 16.0675 32.5305 15.573 32.3377 15.1135C32.145 14.654 31.8592 14.2394 31.4984 13.8957C30.5684 12.9657 29.6384 12.0457 28.7184 11.1157C28.3813 10.7228 27.9633 10.4074 27.493 10.1911C27.0226 9.97487 26.511 9.86291 25.9934 9.86291C25.4757 9.86291 24.9641 9.97487 24.4937 10.1911C24.0234 10.4074 23.6054 10.7228 23.2683 11.1157C23.0583 11.3357 23.0583 11.4357 23.2683 11.6457C24.3683 12.7257 25.4483 13.8257 26.5383 14.9157C27.9717 16.3424 29.405 17.769 30.8384 19.1957C30.9484 19.3057 31.0184 19.5057 31.2484 19.2957C31.6564 18.9631 31.9895 18.5479 32.2256 18.0774C32.4617 17.6069 32.5956 17.0917 32.6183 16.5657Z" fill="#EF4C23"/>
<path d="M20.0183 2.79574C20.0209 2.13258 20.2848 1.49717 20.7528 1.02731C21.2208 0.557444 21.8552 0.290997 22.5183 0.285739C22.8791 0.229682 23.2477 0.252364 23.5989 0.352237C23.95 0.452109 24.2754 0.626807 24.5527 0.864322C24.83 1.10184 25.0525 1.39655 25.2051 1.72821C25.3577 2.05988 25.4368 2.42065 25.4368 2.78574C25.4368 3.15083 25.3577 3.5116 25.2051 3.84326C25.0525 4.17493 24.83 4.46964 24.5527 4.70716C24.2754 4.94467 23.95 5.11936 23.5989 5.21923C23.2477 5.31911 22.8791 5.3418 22.5183 5.28574C22.1905 5.28706 21.8656 5.22362 21.5623 5.09908C21.2591 4.97453 20.9834 4.79133 20.7512 4.55998C20.5189 4.32863 20.3346 4.05369 20.2088 3.75093C20.083 3.44818 20.0183 3.12358 20.0183 2.79574ZM23.5683 2.79574C23.5683 2.51859 23.4582 2.25279 23.2622 2.05681C23.0663 1.86084 22.8005 1.75074 22.5233 1.75074C22.2462 1.75074 21.9804 1.86084 21.7844 2.05681C21.5884 2.25279 21.4783 2.51859 21.4783 2.79574C21.4783 3.07289 21.5884 3.33869 21.7844 3.53466C21.9804 3.73064 22.2462 3.84074 22.5233 3.84074C22.8005 3.84074 23.0663 3.73064 23.2622 3.53466C23.4582 3.33869 23.5683 3.07289 23.5683 2.79574Z" fill="#EF4C23"/>
<path d="M32.1783 27.1457C32.1822 26.6486 32.3331 26.1638 32.612 25.7522C32.8908 25.3407 33.2852 25.0208 33.7454 24.8328C34.2056 24.6449 34.7112 24.5972 35.1984 24.6959C35.6856 24.7946 36.1328 25.0352 36.4836 25.3874C36.8344 25.7396 37.0733 26.1877 37.17 26.6753C37.2668 27.1629 37.2171 27.6683 37.0273 28.1278C36.8376 28.5872 36.5161 28.9803 36.1035 29.2575C35.6908 29.5348 35.2054 29.6837 34.7083 29.6857C34.3744 29.6884 34.0434 29.6245 33.7346 29.4977C33.4258 29.3708 33.1454 29.1837 32.9098 28.9472C32.6742 28.7106 32.4881 28.4295 32.3625 28.1201C32.2369 27.8108 32.1743 27.4796 32.1783 27.1457ZM35.7283 27.1457C35.7393 27.0078 35.7217 26.8692 35.6764 26.7384C35.6311 26.6077 35.5592 26.4878 35.4652 26.3863C35.3713 26.2848 35.2573 26.2039 35.1304 26.1487C35.0035 26.0936 34.8666 26.0653 34.7283 26.0657C34.5874 26.0631 34.4474 26.0885 34.3165 26.1406C34.1856 26.1927 34.0663 26.2703 33.9658 26.369C33.8652 26.4677 33.7853 26.5855 33.7308 26.7154C33.6763 26.8453 33.6483 26.9848 33.6483 27.1257C33.6533 27.4036 33.7653 27.6688 33.9608 27.8662C34.1564 28.0636 34.4205 28.1781 34.6983 28.1857C34.8329 28.1898 34.967 28.1666 35.0925 28.1175C35.218 28.0684 35.3323 27.9945 35.4285 27.9002C35.5247 27.8059 35.6008 27.6931 35.6523 27.5686C35.7039 27.4441 35.7297 27.3105 35.7283 27.1757V27.1457Z" fill="#EF4C23"/>
<path d="M7.51833 4.23571C7.16235 5.04294 6.52158 5.69082 5.71833 6.05571C5.57956 6.06307 5.44174 6.02897 5.32242 5.95773C5.20311 5.8865 5.10769 5.78135 5.04833 5.65571C4.97443 5.53729 4.94129 5.39796 4.95392 5.25895C4.96656 5.11993 5.0243 4.98886 5.11834 4.88571C5.51834 4.45571 5.93833 4.04571 6.35833 3.65571C6.45561 3.56634 6.57891 3.51039 6.71023 3.496C6.84154 3.48161 6.97401 3.50954 7.08834 3.57571C7.21489 3.63407 7.32239 3.72698 7.39846 3.84374C7.47453 3.9605 7.51607 4.09637 7.51833 4.23571Z" fill="#EF4C23"/>
<path d="M8.95831 2.82581C8.81841 2.838 8.67796 2.80958 8.5538 2.74395C8.42964 2.67832 8.32703 2.57828 8.2583 2.4558C8.17802 2.35106 8.13452 2.22278 8.13452 2.09081C8.13452 1.95884 8.17802 1.83055 8.2583 1.72581C8.65151 1.23465 9.10131 0.791578 9.59833 0.405801C9.73444 0.310211 9.90242 0.271369 10.0667 0.297502C10.2309 0.323635 10.3786 0.412696 10.4783 0.545808C10.6029 0.654066 10.6801 0.806925 10.6932 0.971498C10.7063 1.13607 10.6543 1.2992 10.5483 1.42581C10.1583 1.87581 9.7183 2.2858 9.2883 2.6958C9.24497 2.7387 9.19339 2.77234 9.13666 2.79469C9.07993 2.81703 9.01926 2.82762 8.95831 2.82581Z" fill="#EF4C23"/>
<path d="M39.3383 18.1757C39.3383 18.4557 39.3383 18.7257 39.3383 19.0057C39.3151 19.1706 39.2354 19.3224 39.1128 19.4352C38.9903 19.5479 38.8324 19.6147 38.6661 19.6242C38.4998 19.6336 38.3354 19.5851 38.2009 19.4869C38.0663 19.3887 37.97 19.247 37.9283 19.0857C37.8384 18.5059 37.8384 17.9156 37.9283 17.3357C37.9368 17.2496 37.9628 17.166 38.0045 17.0902C38.0463 17.0143 38.103 16.9478 38.1713 16.8945C38.2395 16.8412 38.3179 16.8023 38.4016 16.7802C38.4853 16.758 38.5726 16.7531 38.6583 16.7657C38.8317 16.7603 39.0002 16.8233 39.1275 16.9413C39.2548 17.0592 39.3305 17.2224 39.3383 17.3957C39.3383 17.6557 39.3383 17.9157 39.3383 18.1757Z" fill="#EF4C23"/>
<path d="M39.3383 22.5057C39.3383 22.7657 39.3383 23.0257 39.3383 23.2857C39.3101 23.4536 39.2232 23.606 39.0932 23.7159C38.9633 23.8258 38.7986 23.8861 38.6283 23.8861C38.4581 23.8861 38.2934 23.8258 38.1634 23.7159C38.0334 23.606 37.9466 23.4536 37.9183 23.2857C37.8683 22.7368 37.8683 22.1846 37.9183 21.6357C37.9204 21.5449 37.9415 21.4555 37.9803 21.3733C38.0191 21.2911 38.0747 21.218 38.1435 21.1586C38.2123 21.0993 38.2927 21.055 38.3797 21.0287C38.4666 21.0023 38.5582 20.9945 38.6483 21.0057C38.7385 21.0044 38.828 21.021 38.9116 21.0546C38.9953 21.0881 39.0714 21.138 39.1356 21.2013C39.1998 21.2646 39.2508 21.34 39.2856 21.4231C39.3204 21.5063 39.3383 21.5956 39.3383 21.6857C39.3383 21.9357 39.3383 22.1957 39.3383 22.4557V22.5057Z" fill="#EF4C23"/>
<path d="M10.7083 5.25572C10.721 5.40315 10.6886 5.55094 10.6154 5.67952C10.5421 5.8081 10.4316 5.91141 10.2983 5.97572C10.1845 6.04171 10.053 6.07044 9.92209 6.05788C9.79118 6.04533 9.66745 5.99212 9.5683 5.90572C9.1483 5.51572 8.74832 5.11572 8.36832 4.69572C8.30399 4.63759 8.25257 4.56662 8.21738 4.48739C8.18219 4.40816 8.164 4.32242 8.164 4.23572C8.164 4.14902 8.18219 4.06329 8.21738 3.98406C8.25257 3.90482 8.30399 3.83385 8.36832 3.77572C8.4196 3.706 8.48427 3.64723 8.55856 3.60284C8.63286 3.55846 8.71527 3.52937 8.80096 3.51726C8.88666 3.50515 8.9739 3.51027 9.05759 3.53233C9.14127 3.55439 9.21971 3.59294 9.2883 3.64572C9.77015 4.02766 10.2064 4.46387 10.5883 4.94572C10.6284 4.9865 10.6597 5.03504 10.6803 5.08834C10.7009 5.14165 10.7105 5.1986 10.7083 5.25572Z" fill="#EF4C23"/>
<path d="M7.49832 2.07572C7.49771 2.21165 7.46016 2.34487 7.38971 2.46112C7.31925 2.57737 7.21855 2.67228 7.09832 2.73572C6.99292 2.81444 6.86486 2.85697 6.7333 2.85697C6.60174 2.85697 6.47372 2.81444 6.36831 2.73572C5.92045 2.34119 5.49637 1.92045 5.09831 1.47572C5.03499 1.34776 5.01114 1.20385 5.0298 1.06229C5.04846 0.920741 5.10878 0.787933 5.20311 0.680748C5.29743 0.573563 5.42149 0.496842 5.55952 0.460335C5.69755 0.423828 5.84332 0.429185 5.9783 0.475723C6.55278 0.861776 7.04833 1.35391 7.43832 1.92572C7.46278 1.97382 7.48286 2.02402 7.49832 2.07572Z" fill="#EF4C23"/>
<path d="M36.4983 19.6457C36.7383 19.6457 36.9883 19.6457 37.2283 19.6457C37.4166 19.6338 37.602 19.6971 37.7435 19.8218C37.8851 19.9466 37.9714 20.1224 37.9833 20.3107C37.9953 20.499 37.9319 20.6843 37.8072 20.8259C37.6825 20.9675 37.5066 21.0538 37.3183 21.0657C36.7697 21.1207 36.2169 21.1207 35.6683 21.0657C35.5775 21.0608 35.4887 21.0374 35.4072 20.9971C35.3258 20.9568 35.2533 20.9002 35.1944 20.831C35.1355 20.7618 35.0912 20.6813 35.0644 20.5944C35.0376 20.5075 35.0287 20.4161 35.0383 20.3257C35.0395 20.2325 35.0596 20.1405 35.0973 20.0552C35.1351 19.9699 35.1898 19.8932 35.258 19.8297C35.3262 19.7661 35.4066 19.717 35.4943 19.6854C35.582 19.6538 35.6752 19.6403 35.7683 19.6457C36.0083 19.6457 36.2583 19.6457 36.4983 19.6457Z" fill="#EF4C23"/>
<path d="M40.7683 21.0958C40.5283 21.0958 40.2883 21.0958 40.0383 21.0958C39.9411 21.0919 39.8456 21.0689 39.7573 21.0281C39.669 20.9873 39.5896 20.9295 39.5236 20.858C39.4577 20.7865 39.4065 20.7026 39.3729 20.6113C39.3394 20.52 39.3242 20.423 39.3283 20.3258C39.3307 20.2325 39.3521 20.1407 39.391 20.0559C39.43 19.9711 39.4857 19.8951 39.5549 19.8324C39.6241 19.7698 39.7052 19.7219 39.7935 19.6915C39.8817 19.6611 39.9752 19.649 40.0683 19.6558C40.5349 19.6558 41.0049 19.6558 41.4783 19.6558C41.6676 19.6476 41.8526 19.7144 41.993 19.8417C42.1334 19.969 42.2179 20.1465 42.2283 20.3358C42.2284 20.5322 42.1525 20.7211 42.0164 20.8628C41.8803 21.0045 41.6946 21.088 41.4983 21.0958C41.2583 21.1058 41.0183 21.0958 40.7683 21.0958Z" fill="#EF4C23"/>
<path d="M7.17834 32.8757C7.17834 31.8757 7.17834 31.8757 8.17834 31.8757C9.17834 31.8757 9.24835 31.8757 9.24835 32.9457C9.24835 34.0157 9.24835 33.9457 8.24835 33.9457H8.19833C7.17833 33.9357 7.17834 33.9357 7.17834 32.8757Z" fill="#EF4C23"/>
<path d="M12.8583 32.8958C12.8583 33.8958 12.8583 33.8958 11.8583 33.8958C10.8583 33.8958 10.7783 33.8958 10.7783 32.8058C10.7783 31.7158 10.7783 31.8058 11.7783 31.8058C12.7783 31.8058 12.8583 31.8258 12.8583 32.8958Z" fill="#EF4C23"/>
<path d="M9.2883 36.4857C9.2883 37.4857 9.2883 37.4857 8.2883 37.4857C7.2883 37.4857 7.21832 37.4857 7.21832 36.4157C7.21832 35.3457 7.21832 35.4157 8.21832 35.4157C9.21832 35.4157 9.2883 35.4057 9.2883 36.4857Z" fill="#EF4C23"/>
<path d="M11.8183 35.4058C12.8183 35.4058 12.8183 35.4058 12.8183 36.4658C12.8183 37.5258 12.8183 37.4658 11.8183 37.4658C10.8183 37.4658 10.7683 37.4658 10.7683 36.4658C10.7683 35.4658 10.7583 35.4058 11.8183 35.4058Z" fill="#EF4C23"/>
<path d="M8.23834 26.7758C7.17834 26.7758 7.17834 26.7758 7.17834 25.7758C7.17834 24.7758 7.17835 24.6958 8.24835 24.6958C9.31835 24.6958 9.24835 24.6958 9.24835 25.6958C9.28835 26.7758 9.28834 26.7758 8.23834 26.7758Z" fill="#EF4C23"/>
<path d="M8.24835 23.1958C7.17835 23.1958 7.17834 23.1958 7.17834 22.1058C7.17834 21.0158 7.17834 21.1058 8.17834 21.1058C9.17834 21.1058 9.24835 21.1058 9.24835 22.1858C9.24835 23.2658 9.28835 23.1958 8.24835 23.1958Z" fill="#EF4C23"/>
<path d="M11.8483 24.6658C12.8483 24.6658 12.8483 24.6658 12.8483 25.6658C12.8483 26.6658 12.8483 26.7758 11.7683 26.7758C10.6883 26.7758 10.7683 26.7758 10.7683 25.7758C10.7683 24.7758 10.7583 24.6658 11.8483 24.6658Z" fill="#EF4C23"/>
<path d="M11.7583 23.1857C10.7583 23.1857 10.7583 23.1857 10.7583 22.1857C10.7583 21.1857 10.7583 21.0957 11.8583 21.0957C12.9583 21.0957 12.8583 21.0957 12.8583 22.0957C12.8583 23.0957 12.8583 23.1857 11.7583 23.1857Z" fill="#EF4C23"/>
</svg>
