<svg width="43" height="44" viewBox="0 0 43 44" fill="none" xmlns="http://www.w3.org/2000/svg">
<path d="M42.9665 27.32V35.79C42.8665 35.79 42.8365 35.88 42.8065 35.95C42.6338 36.3748 42.3305 36.7336 41.9403 36.9745C41.5502 37.2154 41.0936 37.3259 40.6365 37.29C39.9065 37.29 39.1765 37.29 38.4465 37.29C38.0665 37.29 37.9665 37.38 37.9665 37.77C37.9665 39.1969 37.3996 40.5653 36.3907 41.5742C35.3817 42.5832 34.0133 43.15 32.5865 43.15C31.1596 43.15 29.7912 42.5832 28.7822 41.5742C27.7733 40.5653 27.2065 39.1969 27.2065 37.77C27.2065 37.37 27.0765 37.31 26.7165 37.31C23.2465 37.31 19.7165 37.31 16.2965 37.31C15.8765 37.31 15.7665 37.4 15.7665 37.84C15.7466 39.2669 15.1607 40.6274 14.1377 41.6223C13.1147 42.6171 11.7383 43.1649 10.3115 43.145C8.8846 43.1251 7.52407 42.5392 6.52919 41.5162C5.53431 40.4932 4.98657 39.1169 5.00646 37.69C5.00646 37.38 4.90646 37.31 4.61646 37.32C3.83646 37.32 3.06646 37.32 2.28646 37.32C1.98041 37.3425 1.67311 37.2987 1.38558 37.1914C1.09805 37.0842 0.8371 36.9161 0.620579 36.6986C0.404058 36.4811 0.237086 36.2194 0.131092 35.9314C0.0250988 35.6434 -0.0174224 35.3359 0.00645859 35.03V15.91C-0.01406 15.6048 0.0307743 15.2988 0.137959 15.0123C0.245143 14.7259 0.412208 14.4656 0.62801 14.2488C0.843812 14.0321 1.10339 13.8639 1.38938 13.7554C1.67537 13.647 1.9812 13.6008 2.28646 13.62C3.08646 13.62 3.87646 13.62 4.67646 13.62C4.92646 13.62 5.01646 13.56 5.00646 13.3C5.00646 12.45 5.00646 11.61 5.00646 10.76C5.00646 10.48 4.88646 10.42 4.64646 10.36C3.73646 10.15 2.82646 9.91 1.91646 9.68C1.7146 9.63055 1.52574 9.53828 1.36266 9.40945C1.19958 9.28062 1.06609 9.11824 0.971257 8.93331C0.876421 8.74838 0.822447 8.54522 0.812992 8.33761C0.803538 8.13 0.838828 7.92278 0.916462 7.73C1.03726 7.4599 1.22609 7.22576 1.46447 7.05048C1.70285 6.8752 1.98263 6.76478 2.27646 6.73L19.8165 2.36C19.9334 2.34074 20.0432 2.29078 20.1345 2.21524C20.2259 2.13969 20.2956 2.04127 20.3365 1.93C20.4906 1.55389 20.7175 1.2119 21.0041 0.923615C21.2906 0.635331 21.6313 0.406423 22.0065 0.25C22.1265 0.25 22.3065 0.25 22.3165 0H23.9665C23.9665 0.08 24.0465 0.0900006 24.1065 0.110001C24.5391 0.214721 24.9431 0.414422 25.289 0.694622C25.6349 0.974823 25.9142 1.3285 26.1065 1.73C26.2565 2.05 26.3865 2.03 26.6665 1.87C27.2608 1.51238 27.9557 1.35889 28.6454 1.43291C29.335 1.50693 29.9816 1.8044 30.4865 2.28C30.8235 2.61554 31.0907 3.01454 31.2726 3.45393C31.4546 3.89333 31.5476 4.36443 31.5465 4.84C31.9639 4.39687 32.4769 4.05485 33.0465 3.84C33.6575 3.63925 34.3025 3.5628 34.9435 3.61518C35.5845 3.66755 36.2086 3.84768 36.7789 4.14496C37.3492 4.44223 37.8543 4.85064 38.2643 5.34613C38.6744 5.84161 38.9811 6.41414 39.1665 7.03C39.2166 7.18478 39.2369 7.34765 39.2265 7.51C39.2038 7.68675 39.1385 7.85536 39.0363 8.0013C38.934 8.14725 38.7978 8.26616 38.6394 8.34782C38.481 8.42948 38.3052 8.47143 38.127 8.47007C37.9488 8.4687 37.7736 8.42407 37.6165 8.34C36.9665 8.04 36.7365 8.15 36.6165 8.86C36.5649 9.19105 36.5349 9.52508 36.5265 9.86C36.4791 10.5177 36.2327 11.1455 35.8201 11.6599C35.4075 12.1743 34.8482 12.551 34.2165 12.74C33.761 12.8728 33.2822 12.9058 32.8128 12.8367C32.3434 12.7677 31.8944 12.5983 31.4965 12.34C31.4288 12.7196 31.2969 13.0848 31.1065 13.42C30.9265 13.68 30.9265 13.82 31.2365 13.99C31.5509 14.1785 31.8094 14.4474 31.9851 14.7691C32.1609 15.0908 32.2477 15.4536 32.2365 15.82C32.2557 16.1531 32.2557 16.4869 32.2365 16.82C32.2365 17.14 32.3365 17.2 32.6165 17.19C33.5565 17.19 34.5065 17.19 35.4465 17.19C35.9025 17.1603 36.3567 17.2721 36.7468 17.5102C37.137 17.7482 37.4442 18.1009 37.6265 18.52C38.7565 20.78 39.8965 23.03 41.0165 25.3C41.0771 25.4623 41.1719 25.6096 41.2943 25.7321C41.4168 25.8546 41.5642 25.9494 41.7265 26.01C42.3565 26.23 42.6165 26.82 42.9665 27.32ZM11.3065 15.08H2.44646C1.67646 15.08 1.44646 15.3 1.44646 16.08C1.44646 18.14 1.44646 20.21 1.44646 22.27C1.44646 24.51 1.44646 26.75 1.44646 28.99C1.44646 29.3 1.52645 29.41 1.84645 29.39C2.41645 29.39 2.98646 29.39 3.55646 29.39C3.74759 29.3847 3.93785 29.4177 4.11599 29.4872C4.29413 29.5566 4.45653 29.6611 4.59359 29.7944C4.73064 29.9278 4.83956 30.0872 4.91391 30.2634C4.98827 30.4395 5.02654 30.6288 5.02646 30.82C5.05647 31.3062 5.05647 31.7938 5.02646 32.28C5.02647 32.6602 4.87613 33.0249 4.60823 33.2947C4.34034 33.5645 3.97663 33.7174 3.59645 33.72H2.67646C1.41646 33.72 1.41646 33.72 1.45646 34.99C1.45646 35.58 1.69646 35.82 2.28646 35.82C3.17646 35.82 4.06647 35.82 4.96647 35.82C5.07549 35.8338 5.18583 35.8081 5.27755 35.7476C5.36926 35.687 5.43628 35.5957 5.46647 35.49C5.90247 34.41 6.69699 33.5131 7.71647 32.95C8.36544 32.5773 9.08538 32.345 9.82976 32.2679C10.5741 32.1909 11.3264 32.2709 12.038 32.5027C12.7495 32.7346 13.4045 33.1131 13.9606 33.6139C14.5167 34.1147 14.9616 34.7266 15.2665 35.41C15.3114 35.5425 15.4004 35.6556 15.5188 35.7302C15.6371 35.8049 15.7775 35.8366 15.9165 35.82C19.6365 35.82 23.3465 35.82 27.0665 35.82C27.1992 35.8372 27.3336 35.8063 27.4455 35.7329C27.5574 35.6596 27.6393 35.5486 27.6765 35.42C28.2198 34.1715 29.2329 33.1872 30.4965 32.68C30.5873 32.6543 30.6657 32.5966 30.7171 32.5175C30.7686 32.4385 30.7897 32.3434 30.7765 32.25V15.94C30.7929 15.8254 30.7826 15.7086 30.7463 15.5987C30.7101 15.4888 30.6489 15.3888 30.5675 15.3064C30.4862 15.2241 30.3869 15.1617 30.2774 15.1242C30.1679 15.0866 30.0512 15.0749 29.9365 15.09C29.4165 15.09 28.9365 15.09 28.3865 15.09C27.7963 15.1297 27.2085 14.9827 26.7065 14.67C26.4065 14.45 26.2865 14.46 26.0865 14.82C25.8474 15.2829 25.4982 15.68 25.0696 15.9763C24.6411 16.2726 24.1463 16.4591 23.6288 16.5194C23.1113 16.5796 22.5869 16.5118 22.1017 16.3218C21.6165 16.1319 21.1855 15.8256 20.8465 15.43C20.7564 15.3113 20.6374 15.2177 20.5009 15.1581C20.3643 15.0986 20.2147 15.0751 20.0665 15.09C17.1665 15.09 14.2265 15.08 11.3065 15.08ZM21.5065 8.24C21.5065 9.87 21.5065 11.49 21.5065 13.11C21.4943 13.418 21.5489 13.725 21.6665 14.01C21.8338 14.3814 22.1242 14.6836 22.4886 14.8658C22.8529 15.048 23.2689 15.0989 23.6665 15.01C24.0687 14.9324 24.4307 14.7153 24.6886 14.397C24.9465 14.0787 25.0839 13.6796 25.0765 13.27C25.0765 11.99 25.0765 10.71 25.0765 9.42C25.0666 9.31494 25.079 9.20898 25.1129 9.10904C25.1468 9.00911 25.2014 8.91745 25.2731 8.84006C25.3448 8.76266 25.4321 8.70128 25.5292 8.65991C25.6262 8.61855 25.731 8.59813 25.8365 8.6C25.9384 8.60184 26.0387 8.62529 26.1309 8.6688C26.223 8.71232 26.3049 8.7749 26.3711 8.85241C26.4372 8.92993 26.4862 9.0206 26.5147 9.11845C26.5432 9.21629 26.5506 9.31907 26.5365 9.42C26.5365 10.17 26.5365 10.91 26.5365 11.66C26.5156 11.9069 26.5465 12.1554 26.6271 12.3897C26.7078 12.624 26.8365 12.8388 27.005 13.0205C27.1735 13.2022 27.3781 13.3467 27.6056 13.4447C27.8332 13.5428 28.0787 13.5923 28.3265 13.59C28.5708 13.5938 28.8131 13.5462 29.0378 13.4502C29.2624 13.3541 29.4643 13.2119 29.6303 13.0327C29.7964 12.8534 29.9228 12.6412 30.0014 12.4099C30.08 12.1786 30.109 11.9333 30.0865 11.69C30.0865 10.83 30.0865 9.97 30.0865 9.11C30.0865 7.63 30.0865 6.11 30.0865 4.68C30.0892 4.44379 30.0444 4.20944 29.9546 3.99093C29.8649 3.77241 29.7321 3.5742 29.5641 3.4081C29.3962 3.242 29.1965 3.11141 28.977 3.02412C28.7575 2.93683 28.5226 2.89461 28.2865 2.9C27.8108 2.91824 27.3612 3.12213 27.034 3.46796C26.7069 3.81379 26.5283 4.27403 26.5365 4.75C26.5365 5.04 26.5365 5.33 26.5365 5.62C26.5365 6.16 26.2665 6.48 25.8265 6.48C25.3865 6.48 25.0765 6.15 25.0765 5.61C25.0765 4.84 25.0765 4.08 25.0765 3.32C25.0901 3.01877 25.026 2.71911 24.8905 2.44973C24.755 2.18036 24.5526 1.95032 24.3026 1.78167C24.0527 1.61303 23.7636 1.51143 23.463 1.48662C23.1625 1.46181 22.8607 1.51462 22.5865 1.64C22.2728 1.77364 22.0083 2.00114 21.8293 2.29123C21.6502 2.58132 21.5654 2.91975 21.5865 3.26C21.5065 4.93 21.5165 6.59 21.5065 8.24ZM20.0465 3.85L2.50646 8.23V8.32L20.0365 12.7L20.0465 3.85ZM36.6765 27.26C35.3265 27.26 33.9765 27.26 32.6765 27.26C32.3465 27.26 32.2665 27.36 32.2765 27.67C32.2765 29.07 32.2765 30.46 32.2765 31.86C32.2765 32.15 32.2765 32.27 32.6665 32.28C33.7118 32.2645 34.7374 32.5657 35.6084 33.144C36.4794 33.7223 37.155 34.5506 37.5465 35.52C37.5759 35.6166 37.6377 35.7002 37.7215 35.7566C37.8052 35.8131 37.9059 35.839 38.0065 35.83C38.9165 35.83 39.8265 35.83 40.7365 35.83C41.2965 35.83 41.5365 35.59 41.5465 35.03C41.5565 34.47 41.5465 33.93 41.5465 33.38C41.5465 33.06 41.4365 33 41.1565 33.01C40.5831 33.01 40.0131 33.01 39.4465 33.01C39.2511 33.0169 39.0564 32.9837 38.8743 32.9124C38.6923 32.8411 38.5268 32.7332 38.3881 32.5955C38.2494 32.4577 38.1405 32.293 38.0679 32.1114C37.9954 31.9299 37.9609 31.7354 37.9665 31.54C37.9665 31.09 37.9665 30.63 37.9665 30.18C37.9592 29.9798 37.9938 29.7803 38.068 29.5942C38.1422 29.4082 38.2544 29.2396 38.3975 29.0994C38.5405 28.9592 38.7113 28.8503 38.8988 28.7798C39.0863 28.7093 39.2865 28.6787 39.4865 28.69C40.0665 28.69 40.6565 28.69 41.2365 28.69C41.4565 28.69 41.5465 28.69 41.5565 28.4C41.6065 27.55 41.3665 27.28 40.5565 27.28L36.6765 27.26ZM39.5765 25.78C39.5065 25.59 39.4565 25.46 39.3965 25.33C38.3965 23.27 37.3965 21.22 36.3265 19.16C36.2493 18.9989 36.1244 18.8654 35.9688 18.7778C35.8131 18.6901 35.6342 18.6525 35.4565 18.67C34.5165 18.67 33.5765 18.67 32.6365 18.67C32.3065 18.67 32.2365 18.77 32.2365 19.08C32.2365 21.1933 32.2365 23.3033 32.2365 25.41C32.2365 25.73 32.3365 25.8 32.6365 25.8H39.5765V25.78ZM10.3965 33.71C9.62159 33.708 8.86352 33.9358 8.21801 34.3644C7.57249 34.7931 7.06849 35.4034 6.76969 36.1184C6.47088 36.8333 6.39068 37.6208 6.53919 38.3813C6.6877 39.1418 7.05826 39.8412 7.60408 40.3912C8.14991 40.9412 8.84649 41.3171 9.60584 41.4715C10.3652 41.6258 11.1532 41.5516 11.8705 41.2583C12.5877 40.9649 13.2018 40.4656 13.6354 39.8234C14.069 39.1812 14.3025 38.4249 14.3065 37.65C14.3118 37.1336 14.2145 36.6214 14.0202 36.1429C13.826 35.6645 13.5386 35.2294 13.1749 34.8628C12.8112 34.4963 12.3783 34.2056 11.9013 34.0078C11.4244 33.8099 10.9128 33.7086 10.3965 33.71ZM36.4965 37.63C36.4984 36.8547 36.2705 36.0962 35.8414 35.4505C35.4123 34.8048 34.8013 34.3008 34.0858 34.0022C33.3703 33.7037 32.5823 33.6241 31.8215 33.7734C31.0607 33.9227 30.3613 34.2943 29.8117 34.8411C29.2621 35.3879 28.8869 36.0854 28.7338 36.8455C28.5806 37.6055 28.6562 38.3938 28.9511 39.1109C29.2459 39.8279 29.7468 40.4414 30.3903 40.8738C31.0339 41.3062 31.7912 41.538 32.5665 41.54C33.0816 41.5426 33.5922 41.4434 34.0689 41.2481C34.5456 41.0528 34.979 40.7652 35.3442 40.4019C35.7094 40.0385 35.9992 39.6066 36.1969 39.1309C36.3947 38.6552 36.4965 38.1452 36.4965 37.63ZM37.4965 6.75C37.3565 6.56 37.2765 6.42 37.1765 6.3C35.9865 4.85 33.3465 4.4 32.1765 6.55C31.6171 7.60412 31.427 8.8152 31.6365 9.99C31.69 10.2751 31.8139 10.5423 31.9971 10.7673C32.1802 10.9924 32.4167 11.168 32.685 11.2783C32.9533 11.3886 33.2449 11.4301 33.5334 11.3989C33.8218 11.3678 34.0979 11.265 34.3365 11.1C34.6015 10.9139 34.8136 10.6621 34.9521 10.3694C35.0906 10.0766 35.1507 9.75294 35.1265 9.43C35.1665 7.78 35.8065 6.63 37.4565 6.75H37.4965ZM8.98647 13.62H11.1265C11.2565 13.62 11.4665 13.71 11.4765 13.48C11.4765 13.04 11.4765 12.6 11.4765 12.17C11.4765 12.01 11.3165 12.03 11.2165 12.01L6.83646 10.91C6.57646 10.84 6.52646 10.91 6.52646 11.15C6.52646 11.87 6.52646 12.58 6.52646 13.29C6.52646 13.6 6.65647 13.64 6.90647 13.63C7.55647 13.61 8.24646 13.62 8.94646 13.62H8.98647ZM2.52646 30.83C2.33342 30.845 2.1395 30.845 1.94646 30.83C1.52646 30.76 1.43646 30.94 1.44646 31.33C1.44646 32.26 1.44646 32.26 2.38646 32.26C2.69646 32.26 3.00646 32.26 3.30646 32.26C3.60646 32.26 3.55646 32.26 3.58646 32.02C3.73646 30.92 3.66646 30.83 2.58646 30.83H2.52646ZM40.4565 31.52C40.7165 31.52 40.9765 31.52 41.2365 31.52C41.4965 31.52 41.5065 31.46 41.5165 31.25C41.5865 30.12 41.5965 30.13 40.5165 30.13H40.1265C39.4365 30.13 39.4365 30.13 39.4365 30.81C39.4365 31.49 39.4365 31.51 40.1065 31.51L40.4565 31.52ZM17.1665 13.62V13.51L13.5965 12.62C12.8665 12.44 12.8665 12.45 12.8765 13.22C12.8765 13.39 12.7965 13.62 13.1265 13.62C14.5165 13.61 15.8665 13.62 17.1665 13.62Z" fill="#EF4C23"/>
<path d="M15.7864 17.92H25.4764C26.7064 17.92 27.2164 18.44 27.2264 19.66C27.2907 20.0776 27.2717 20.5038 27.1704 20.914C27.0692 21.3242 26.8877 21.7103 26.6364 22.05C26.3495 22.4275 25.9448 22.6985 25.4864 22.82C25.1264 22.9 25.0764 23.07 25.0764 23.39C25.0764 25.29 25.0764 27.19 25.0764 29.09C25.0764 30.32 24.5564 30.83 23.3364 30.83H8.16642C6.97642 30.83 6.44642 30.31 6.44642 29.12C6.44642 27.2 6.44642 25.29 6.44642 23.37C6.44642 23.08 6.39641 22.93 6.06641 22.83C5.54665 22.6835 5.0905 22.368 4.76998 21.9334C4.44946 21.4988 4.28284 20.9698 4.29642 20.43C4.29642 20.11 4.29642 19.78 4.29642 19.43C4.28334 19.2265 4.31361 19.0226 4.38523 18.8317C4.45685 18.6408 4.5682 18.4673 4.71189 18.3227C4.85558 18.1781 5.02835 18.0656 5.21876 17.9927C5.40917 17.9198 5.61287 17.8882 5.81641 17.9C6.95641 17.9 8.08642 17.9 9.22642 17.9L15.7864 17.92ZM15.7864 26.52H23.1664C23.4864 26.52 23.6164 26.46 23.6064 26.1C23.6064 25.06 23.6064 24.02 23.6064 22.98C23.6064 22.54 23.2064 22.52 22.9964 22.31C22.7864 22.1 22.7264 22.39 22.6064 22.47C22.1724 22.7915 21.6466 22.965 21.1064 22.965C20.5663 22.965 20.0404 22.7915 19.6064 22.47C19.3864 22.3 19.2764 22.28 19.0464 22.47C18.6185 22.8057 18.0903 22.9882 17.5464 22.9882C17.0025 22.9882 16.4743 22.8057 16.0464 22.47C16.0099 22.4309 15.9658 22.3998 15.9168 22.3785C15.8678 22.3572 15.8149 22.3462 15.7614 22.3462C15.708 22.3462 15.6551 22.3572 15.6061 22.3785C15.557 22.3998 15.5129 22.4309 15.4764 22.47C15.0464 22.8008 14.519 22.9802 13.9764 22.9802C13.4338 22.9802 12.9065 22.8008 12.4764 22.47C12.2164 22.27 12.0864 22.3 11.8364 22.47C11.4088 22.7703 10.899 22.9315 10.3764 22.9315C9.85387 22.9315 9.34402 22.7703 8.91642 22.47C8.79642 22.39 8.68643 22.11 8.48643 22.3C8.28643 22.49 7.85643 22.53 7.87643 23.01C7.87643 24.01 7.87643 25.01 7.87643 26.08C7.87643 26.43 7.98641 26.5 8.31641 26.5L15.7864 26.52ZM15.7864 27.99H8.87643C7.93643 27.99 7.95641 27.99 7.92641 28.91C7.92641 29.29 8.01643 29.39 8.40643 29.39C13.1664 29.39 17.9364 29.39 22.7064 29.39C23.6564 29.39 23.6364 29.39 23.6564 28.39C23.6564 28.05 23.5664 27.97 23.2264 27.97C20.7064 28.03 18.2264 28.03 15.7464 28.03L15.7864 27.99ZM17.5964 19.4H17.4464C16.4464 19.4 16.4464 19.4 16.5264 20.4C16.5155 20.6062 16.5657 20.8111 16.6706 20.9889C16.7756 21.1668 16.9306 21.3098 17.1164 21.4C17.3043 21.5033 17.5204 21.5436 17.7328 21.5148C17.9453 21.486 18.1429 21.3896 18.2964 21.24C18.4755 21.0015 18.599 20.7259 18.6578 20.4335C18.7167 20.1411 18.7094 19.8392 18.6364 19.55C18.4464 19.26 18.0764 19.47 17.7864 19.42C17.7106 19.406 17.6335 19.3993 17.5564 19.4H17.5964ZM6.84641 19.4C5.77641 19.4 5.77641 19.4 5.84641 20.35C5.83334 20.4995 5.85251 20.6502 5.90261 20.7917C5.95271 20.9333 6.03258 21.0624 6.13683 21.1705C6.24109 21.2785 6.36731 21.3629 6.50697 21.418C6.64662 21.4732 6.79647 21.4977 6.94642 21.49C7.66642 21.49 7.94642 20.95 7.94642 19.83C7.94642 18.98 7.29642 19.58 6.99642 19.4C6.91642 19.38 6.85642 19.4 6.80642 19.4H6.84641ZM21.1464 19.4C20.0364 19.4 20.0364 19.4 20.1464 20.46C20.1464 20.46 20.1464 20.55 20.1464 20.6C20.1603 20.7397 20.2034 20.8748 20.273 20.9968C20.3425 21.1187 20.437 21.2246 20.5502 21.3076C20.6634 21.3906 20.7928 21.4489 20.9299 21.4786C21.0671 21.5083 21.209 21.5087 21.3464 21.48C22.0364 21.39 22.3464 20.83 22.2364 19.71C22.1764 19.06 21.6464 19.54 21.3564 19.4C21.274 19.3824 21.1888 19.3824 21.1064 19.4H21.1464ZM24.7864 19.4C23.6464 19.4 23.6464 19.4 23.6964 20.4C23.6964 20.6652 23.8018 20.9196 23.9893 21.1071C24.1768 21.2946 24.4312 21.4 24.6964 21.4C24.9616 21.4 25.216 21.2946 25.4035 21.1071C25.5911 20.9196 25.6964 20.6652 25.6964 20.4C25.7964 19.4 25.7964 19.4 24.7464 19.4H24.7864ZM10.4264 19.4C9.32641 19.4 9.32641 19.4 9.42641 20.4C9.42098 20.4632 9.42098 20.5268 9.42641 20.59C9.46596 20.8507 9.60689 21.0852 9.81852 21.2426C10.0302 21.3999 10.2954 21.4672 10.5564 21.43C11.3964 21.3 11.5564 20.81 11.4964 19.66C11.4464 19 10.9064 19.5 10.6364 19.35C10.5505 19.3485 10.4652 19.3656 10.3864 19.4H10.4264ZM14.0164 19.4C12.8364 19.4 12.8464 19.4 13.0164 20.54C13.0279 20.7259 13.0911 20.9049 13.1989 21.0569C13.3067 21.2089 13.4547 21.3277 13.6264 21.4C13.8041 21.4864 14.0034 21.5183 14.1992 21.4916C14.3949 21.4649 14.5784 21.3809 14.7264 21.25C14.9202 21.0153 15.0534 20.7367 15.1145 20.4386C15.1755 20.1404 15.1624 19.8319 15.0764 19.54C14.8964 19.22 14.4964 19.47 14.1964 19.4C14.1236 19.3875 14.0492 19.3875 13.9764 19.4H14.0164Z" fill="#EF4C23"/>
<path d="M35.1064 28.67C35.3464 28.67 35.5864 28.67 35.8264 28.67C35.92 28.6699 36.0127 28.6887 36.099 28.7251C36.1852 28.7615 36.2633 28.8149 36.3286 28.882C36.3939 28.9491 36.445 29.0287 36.479 29.1159C36.5129 29.2032 36.5291 29.2964 36.5264 29.39C36.5346 29.4799 36.5243 29.5706 36.4961 29.6563C36.4679 29.7421 36.4224 29.8212 36.3624 29.8887C36.3025 29.9562 36.2293 30.0106 36.1474 30.0487C36.0655 30.0868 35.9767 30.1076 35.8864 30.11C35.3572 30.15 34.8256 30.15 34.2964 30.11C34.2031 30.1036 34.1119 30.0789 34.0282 30.0372C33.9445 29.9956 33.8698 29.9378 33.8084 29.8671C33.7471 29.7965 33.7004 29.7145 33.6708 29.6257C33.6413 29.537 33.6296 29.4433 33.6364 29.35C33.6415 29.1695 33.7162 28.998 33.8448 28.8713C33.9733 28.7446 34.1459 28.6725 34.3264 28.67C34.5864 28.66 34.8464 28.67 35.1064 28.67Z" fill="#EF4C23"/>
<path d="M7.89639 37.6299C7.88958 37.2971 7.95012 36.9663 8.07435 36.6575C8.19859 36.3487 8.38395 36.0682 8.61932 35.8328C8.8547 35.5974 9.13523 35.4121 9.44404 35.2878C9.75286 35.1636 10.0836 35.1031 10.4164 35.1099C11.0805 35.1178 11.7148 35.3864 12.1825 35.8579C12.6502 36.3293 12.9138 36.9658 12.9164 37.6299C12.9085 38.3019 12.6367 38.9439 12.1596 39.4172C11.6825 39.8906 11.0384 40.1573 10.3664 40.1599C10.0381 40.156 9.71376 40.0874 9.41194 39.9582C9.11012 39.8289 8.83672 39.6414 8.60736 39.4065C8.37799 39.1716 8.19715 38.8937 8.07516 38.5889C7.95317 38.2841 7.89243 37.9582 7.89639 37.6299ZM11.4364 37.6299C11.4366 37.4934 11.4089 37.3582 11.355 37.2328C11.301 37.1074 11.2219 36.9944 11.1226 36.9007C11.0233 36.807 10.9059 36.7346 10.7775 36.6881C10.6492 36.6415 10.5127 36.6217 10.3764 36.6299C10.2399 36.6296 10.1047 36.6574 9.97932 36.7113C9.85391 36.7653 9.74089 36.8444 9.6472 36.9437C9.55351 37.043 9.48116 37.1604 9.43458 37.2888C9.38801 37.4171 9.36821 37.5536 9.3764 37.6899C9.3764 37.967 9.48649 38.2328 9.68246 38.4288C9.87844 38.6248 10.1442 38.7349 10.4214 38.7349C10.6986 38.7349 10.9643 38.6248 11.1603 38.4288C11.3563 38.2328 11.4664 37.967 11.4664 37.6899L11.4364 37.6299Z" fill="#EF4C23"/>
<path d="M35.0764 37.6499C35.0777 37.9782 35.0143 38.3036 34.8899 38.6074C34.7655 38.9112 34.5825 39.1876 34.3512 39.4206C34.12 39.6537 33.8452 39.839 33.5423 39.9658C33.2395 40.0927 32.9147 40.1586 32.5864 40.1599C31.9144 40.1521 31.2724 39.8802 30.7991 39.4032C30.3257 38.9261 30.059 38.282 30.0564 37.6099C30.0617 36.9451 30.3295 36.3092 30.8015 35.8409C31.2735 35.3727 31.9115 35.1099 32.5764 35.1099C32.9093 35.1058 33.2395 35.1689 33.5474 35.2956C33.8552 35.4223 34.1342 35.6099 34.3678 35.8471C34.6013 36.0843 34.7844 36.3663 34.9062 36.6762C35.028 36.986 35.0859 37.3172 35.0764 37.6499ZM32.5964 36.5699C32.3855 36.558 32.1758 36.6094 31.9943 36.7175C31.8127 36.8256 31.6677 36.9855 31.5776 37.1766C31.4876 37.3678 31.4568 37.5814 31.4891 37.7902C31.5214 37.999 31.6153 38.1934 31.7588 38.3484C31.9024 38.5034 32.089 38.612 32.2947 38.6603C32.5004 38.7085 32.7158 38.6942 32.9133 38.6191C33.1107 38.544 33.2813 38.4116 33.403 38.239C33.5247 38.0663 33.5921 37.8612 33.5964 37.6499C33.602 37.3755 33.5009 37.1095 33.3144 36.9081C33.1279 36.7066 32.8705 36.5854 32.5964 36.5699Z" fill="#EF4C23"/>
</svg>
