<svg width="41" height="37" viewBox="0 0 41 37" fill="none" xmlns="http://www.w3.org/2000/svg">
<path d="M20 36.0285H3.49C2.7 36.0285 2.56 35.8985 2.56 35.1085C2.56 28.9285 2.56 22.7451 2.56 16.5585C2.57719 16.4208 2.54693 16.2813 2.47421 16.1632C2.40149 16.045 2.29066 15.9552 2.16 15.9085C1.53096 15.6328 0.993601 15.1834 0.611004 14.6131C0.228407 14.0427 0.0164466 13.3751 0 12.6885C0 11.9285 0 11.1685 0 10.3985C0.0946216 9.83899 0.309573 9.30674 0.630001 8.83846C1.89 6.10846 3.2 3.38846 4.46 0.658459C4.53476 0.45708 4.67238 0.285126 4.85249 0.168057C5.03259 0.0509885 5.24561 -0.00497244 5.46 0.0084578C15.12 0.0084578 24.7867 0.0084578 34.46 0.0084578C34.691 -0.0217802 34.9254 0.0296136 35.1226 0.153767C35.3198 0.277921 35.4674 0.46704 35.54 0.688458C36.96 3.75846 38.41 6.81846 39.85 9.87846C39.85 9.94846 39.95 10.0285 39.95 10.0985C39.95 11.5385 40.26 13.0185 39.47 14.3785C39.1035 15.0538 38.5231 15.5885 37.82 15.8985C37.47 16.0485 37.41 16.2485 37.41 16.5985C37.41 22.7451 37.41 28.8951 37.41 35.0485C37.41 35.8985 37.28 36.0485 36.41 36.0485L20 36.0285ZM13.52 14.5485C13.1863 15.0693 12.7313 15.5016 12.1941 15.8082C11.6569 16.1149 11.0534 16.2869 10.4352 16.3096C9.81701 16.3322 9.20254 16.2047 8.64436 15.938C8.08618 15.6714 7.60089 15.2735 7.23 14.7785C7.02 14.4985 6.95 14.6685 6.82 14.7785C6.51549 15.2 6.12398 15.5512 5.67196 15.8082C5.21993 16.0653 4.71795 16.2223 4.2 16.2685C3.8 16.2685 3.74 16.4285 3.74 16.7785C3.74 19.9085 3.74 23.0485 3.74 26.1785C3.74 28.8985 3.74 31.6285 3.74 34.3585C3.74 34.8085 3.87 34.8885 4.28 34.8685C5.11 34.8685 5.94 34.8685 6.76 34.8685C7.18 34.8685 7.26 34.7385 7.26 34.3585C7.26 31.3585 7.26 28.4485 7.26 25.4885C7.26 24.7185 7.41 24.5685 8.2 24.5685C10.52 24.5685 12.8533 24.5685 15.2 24.5685C15.92 24.5685 16.08 24.7285 16.08 25.4585C16.08 28.4585 16.08 31.4585 16.08 34.4585C16.08 34.7685 16.08 34.9185 16.49 34.9185H35.96C36.31 34.9185 36.35 34.7885 36.35 34.4985C36.35 33.3785 36.35 32.2585 36.35 31.1385C36.35 26.3718 36.35 21.6018 36.35 16.8285C36.35 16.4785 36.29 16.3085 35.89 16.3185C35.4816 16.314 35.0802 16.2111 34.72 16.0185C34.036 15.7066 33.4487 15.2161 33.02 14.5985C32.6649 15.1359 32.1823 15.5769 31.6151 15.8823C31.048 16.1877 30.4141 16.3478 29.77 16.3485C29.1118 16.3488 28.4641 16.1842 27.8859 15.8698C27.3077 15.5553 26.8175 15.1011 26.46 14.5485C26.1243 15.0723 25.6658 15.5063 25.1242 15.8126C24.5827 16.1188 23.9745 16.2882 23.3526 16.306C22.7306 16.3237 22.1138 16.1893 21.5557 15.9143C20.9975 15.6394 20.515 15.2323 20.15 14.7285C19.98 14.4885 19.91 14.6285 19.81 14.7285C19.3697 15.3162 18.7689 15.7642 18.08 16.0185C17.2656 16.3247 16.3716 16.3461 15.5435 16.0792C14.7154 15.8122 14.0022 15.2727 13.52 14.5485ZM8.4 30.3485C8.4 31.7185 8.4 33.0985 8.4 34.4785C8.4 34.7685 8.46 34.8685 8.77 34.8685C10.67 34.8685 12.57 34.8685 14.47 34.8685C14.78 34.8685 14.84 34.7685 14.84 34.4785C14.84 31.7085 14.84 28.9285 14.84 26.1585C14.84 25.8485 14.77 25.7385 14.44 25.7385C12.56 25.7385 10.68 25.7385 8.79 25.7385C8.46 25.7385 8.39 25.8485 8.4 26.1585C8.41 27.5485 8.4 28.9485 8.4 30.3485ZM29.51 9.69846C30.27 9.69846 31.04 9.69846 31.8 9.69846C32.08 9.69846 32.21 9.69846 32.13 9.32846C31.51 6.69846 30.92 4.05846 30.33 1.42846C30.28 1.16846 30.14 1.17846 29.96 1.17846H25.68C25.41 1.17846 25.31 1.23846 25.36 1.52846C25.84 4.1418 26.31 6.75179 26.77 9.35846C26.77 9.62846 26.92 9.70846 27.18 9.70846C27.96 9.68846 28.73 9.69846 29.51 9.69846ZM10.51 9.69846C11.24 9.69846 11.97 9.69846 12.7 9.69846C13.1 9.69846 13.23 9.56846 13.27 9.19846C13.31 8.82846 13.45 8.19846 13.54 7.66846L14.65 1.50846C14.65 1.27846 14.65 1.16846 14.37 1.16846C12.93 1.16846 11.49 1.16846 10.04 1.16846C9.85 1.16846 9.73 1.16846 9.68 1.42846C9.1 4.09512 8.50333 6.73179 7.89 9.33846C7.82 9.62846 7.89 9.69846 8.18 9.69846C8.92 9.68846 9.7 9.69846 10.48 9.69846H10.51ZM19.44 5.46846C19.44 4.16846 19.44 2.86846 19.44 1.57846C19.44 1.25846 19.35 1.16846 19.04 1.17846C18.11 1.17846 17.19 1.17846 16.26 1.17846C15.99 1.17846 15.87 1.23846 15.82 1.52846C15.3667 4.12846 14.9033 6.72512 14.43 9.31846C14.37 9.63846 14.43 9.70846 14.76 9.70846C16.18 9.70846 17.61 9.70846 19.03 9.70846C19.35 9.70846 19.45 9.62846 19.44 9.30846C19.4 8.02846 19.41 6.74846 19.41 5.46846H19.44ZM20.6 5.40846C20.6 6.69846 20.6 7.99846 20.6 9.29846C20.6 9.59846 20.66 9.70846 20.99 9.70846C22.4033 9.70846 23.8133 9.70846 25.22 9.70846C25.55 9.70846 25.66 9.70846 25.59 9.27846C25.12 6.70846 24.67 4.12846 24.22 1.53846C24.17 1.25846 24.06 1.16846 23.78 1.17846C22.86 1.17846 21.93 1.17846 21.01 1.17846C20.65 1.17846 20.59 1.28846 20.59 1.61846C20.58 2.87846 20.57 4.13846 20.57 5.40846H20.6ZM35.93 9.69846C36.66 9.69846 37.39 9.69846 38.12 9.69846C38.42 9.69846 38.49 9.63846 38.35 9.34846C37.1033 6.7218 35.8633 4.08512 34.63 1.43846C34.5972 1.35089 34.5361 1.27679 34.4564 1.22788C34.3767 1.17897 34.2829 1.15806 34.19 1.16846C33.41 1.16846 32.63 1.16846 31.85 1.16846C31.57 1.16846 31.51 1.21846 31.57 1.51846C32.1767 4.11846 32.77 6.72179 33.35 9.32846C33.42 9.63846 33.56 9.69846 33.84 9.69846C34.51 9.68846 35.2 9.69846 35.9 9.69846H35.93ZM8.54 1.18846H5.77C5.69085 1.18581 5.61314 1.21008 5.54957 1.25731C5.486 1.30453 5.44032 1.37192 5.42 1.44846C4.18 4.08846 2.95 6.71846 1.7 9.35846C1.58 9.61846 1.57 9.71846 1.91 9.71846C3.37 9.71846 4.83 9.71846 6.29 9.71846C6.33623 9.72547 6.3834 9.72288 6.42858 9.71084C6.47376 9.69879 6.51597 9.67756 6.55257 9.64847C6.58917 9.61937 6.61938 9.58304 6.64131 9.54175C6.66323 9.50045 6.6764 9.45508 6.68 9.40846C7.26 6.67846 7.88 3.96846 8.51 1.18846H8.54ZM3.81 10.9185C3.06 10.9185 2.31 10.9185 1.57 10.9185C1.26 10.9185 1.18 11.0085 1.19 11.3085C1.19 11.7685 1.19 12.2485 1.19 12.7085C1.22695 13.3368 1.49056 13.9303 1.93191 14.379C2.37326 14.8277 2.96239 15.1011 3.59 15.1485C4.15746 15.1991 4.72607 15.0647 5.2109 14.7655C5.69573 14.4664 6.07077 14.0184 6.28 13.4885C6.45711 12.766 6.5212 12.0205 6.47 11.2785C6.47 10.9985 6.39 10.9185 6.12 10.9285L3.81 10.9185ZM16.81 10.9185H15.81C15.28 10.9185 14.57 10.7385 14.27 11.0085C13.97 11.2785 14.18 12.0085 14.17 12.5885C14.1714 13.17 14.3699 13.7338 14.7332 14.1879C15.0964 14.642 15.603 14.9595 16.17 15.0885C16.7322 15.219 17.3216 15.1639 17.8498 14.9313C18.378 14.6987 18.8167 14.3013 19.1 13.7985C19.4399 12.9382 19.5602 12.0068 19.45 11.0885C19.45 10.8485 19.25 10.9285 19.13 10.9285L16.81 10.9185ZM23.24 10.9185H20.9C20.77 10.9185 20.57 10.8385 20.58 11.0785C20.4975 11.8834 20.5618 12.6966 20.77 13.4785C21.0011 14.0571 21.4281 14.5362 21.9763 14.8323C22.5246 15.1284 23.1594 15.2226 23.77 15.0985C24.3585 14.9803 24.8876 14.6614 25.267 14.1962C25.6464 13.7311 25.8525 13.1487 25.85 12.5485C25.85 12.1785 25.85 11.7985 25.85 11.4385C25.85 11.0785 25.85 10.8985 25.37 10.9185C24.66 10.9485 23.94 10.9185 23.2 10.9185H23.24ZM36.24 10.9185C35.48 10.9185 34.72 10.9185 33.96 10.9185C33.64 10.9185 33.57 11.0085 33.58 11.3085C33.59 11.6085 33.58 12.1785 33.58 12.6185C33.6079 13.2961 33.8937 13.9375 34.3788 14.4115C34.864 14.8855 35.5119 15.1563 36.19 15.1685C36.86 15.1804 37.5092 14.9352 38.004 14.4832C38.4987 14.0312 38.8015 13.4069 38.85 12.7385C38.85 12.2485 38.85 11.7385 38.85 11.2785C38.85 10.9985 38.77 10.9185 38.49 10.9285L36.24 10.9185ZM29.76 10.9185H28.76C28.25 10.9185 27.56 10.7485 27.26 11.0085C26.96 11.2685 27.16 12.0085 27.16 12.5385C27.1624 13.1839 27.4058 13.8051 27.8423 14.2805C28.2788 14.7559 28.8771 15.0511 29.52 15.1085C30.1718 15.171 30.8237 14.99 31.3499 14.6004C31.8762 14.2108 32.2396 13.6401 32.37 12.9985C32.4233 12.42 32.4466 11.8393 32.44 11.2585C32.44 10.9585 32.32 10.9085 32.07 10.9185H29.76ZM10.36 10.9185H8.08C7.8 10.9185 7.66 10.9185 7.69 11.2785C7.72 11.6385 7.69 12.0885 7.69 12.4985C7.69391 12.8473 7.76667 13.192 7.9041 13.5127C8.04153 13.8333 8.24094 14.1237 8.49086 14.3671C8.74079 14.6106 9.03633 14.8022 9.36052 14.9312C9.6847 15.0601 10.0312 15.1237 10.38 15.1185C10.7257 15.1172 11.0677 15.0471 11.3859 14.9121C11.7042 14.7771 11.9924 14.58 12.2335 14.3323C12.4747 14.0846 12.664 13.7913 12.7905 13.4695C12.917 13.1478 12.978 12.8041 12.97 12.4585C12.97 12.0585 12.97 11.6485 12.97 11.2485C12.97 10.8485 12.91 10.9085 12.65 10.9185H10.36Z" fill="#EF4C23"/>
<path d="M26.06 29.1584H19.34C18.96 29.1584 18.72 28.9484 18.72 28.5584C18.7149 28.48 18.7272 28.4015 18.7561 28.3285C18.785 28.2554 18.8298 28.1897 18.8872 28.1362C18.9447 28.0826 19.0133 28.0424 19.0881 28.0186C19.163 27.9948 19.2422 27.9879 19.32 27.9984C19.81 28.0484 19.86 27.8284 19.86 27.4184C19.86 25.4784 19.86 23.5284 19.86 21.5784C19.86 20.6684 20.15 20.3784 21.05 20.3784H31.12C31.99 20.3784 32.28 20.6684 32.28 21.5584C32.28 23.5584 32.28 25.5584 32.28 27.4884C32.28 27.8284 32.28 28.0384 32.74 27.9984C32.8242 27.9803 32.9114 27.9814 32.9951 28.0018C33.0788 28.0222 33.1568 28.0613 33.2232 28.1162C33.2896 28.171 33.3427 28.2402 33.3785 28.3185C33.4143 28.3969 33.4319 28.4823 33.43 28.5684C33.43 28.9284 33.16 29.1584 32.69 29.1584H26.06ZM26.06 27.9684H30.68C31 27.9684 31.13 27.9084 31.13 27.5484C31.13 25.6884 31.13 23.8284 31.13 21.9584C31.13 21.6384 31.04 21.5484 30.72 21.5484C27.64 21.5484 24.56 21.5484 21.48 21.5484C21.12 21.5484 21.07 21.6784 21.07 21.9984C21.07 23.8484 21.07 25.6884 21.07 27.5384C21.07 27.8784 21.15 27.9784 21.5 27.9684C22.98 27.9584 24.5 27.9684 26.03 27.9684H26.06Z" fill="#EF4C23"/>
</svg>
