<svg width="49" height="45" viewBox="0 0 49 45" fill="none" xmlns="http://www.w3.org/2000/svg">
<path d="M29.69 37.1221H20.69C20.9691 38.1783 20.9131 39.2951 20.5297 40.3181C20.1463 41.341 19.4545 42.2195 18.55 42.8321C17.6766 43.5052 16.6076 43.8751 15.5051 43.886C14.4025 43.8968 13.3264 43.5479 12.44 42.8921C11.5053 42.2851 10.7857 41.3989 10.3835 40.3594C9.98137 39.32 9.91716 38.1802 10.2 37.1021H8.2C7.61 37.1021 7.37 36.8621 7.37 36.2821C7.37 35.4921 7.37 34.6921 7.37 33.9021C7.37 33.2621 7.60001 33.0321 8.26001 33.0321H20.34C24.8 33.0321 29.26 33.0321 33.73 33.0321C34.12 33.0321 34.2 32.9221 34.2 32.5521C34.2 28.1255 34.2 23.6955 34.2 19.2621C34.1594 18.8581 34.2092 18.4502 34.3456 18.0678C34.482 17.6854 34.7017 17.338 34.9888 17.0509C35.2759 16.7638 35.6232 16.5441 36.0056 16.4077C36.3881 16.2713 36.796 16.2216 37.2 16.2621H42.2C42.7555 16.23 43.307 16.373 43.777 16.6707C44.247 16.9685 44.6118 17.4062 44.82 17.9221C45.94 20.3321 47.05 22.7421 48.18 25.1521C48.2891 25.4042 48.3403 25.6776 48.33 25.9521V34.5721C48.33 34.8421 48.33 35.0621 48.66 35.1621C48.7689 35.2003 48.8612 35.2749 48.9213 35.3733C48.9815 35.4717 49.0057 35.5879 48.99 35.7021C48.99 36.6121 48.99 37.5221 48.99 38.4221C48.99 38.8821 48.71 39.1021 48.16 39.1021H43C42.22 39.1021 41.44 39.1021 40.66 39.1021C40.35 39.1021 40.23 39.1921 40.16 39.5121C40.0805 40.2612 39.8446 40.9852 39.4675 41.6372C39.0905 42.2893 38.5807 42.855 37.9712 43.2976C37.3617 43.7402 36.666 44.0498 35.9292 44.2065C35.1925 44.3632 34.431 44.3634 33.6941 44.2072C32.9573 44.051 32.2614 43.7417 31.6516 43.2995C31.0418 42.8573 30.5317 42.292 30.1543 41.6401C29.7768 40.9883 29.5404 40.2644 29.4605 39.5154C29.3805 38.7664 29.4587 38.009 29.69 37.2921C29.69 37.2921 29.69 37.2421 29.69 37.1221ZM35.59 25.8321V32.4021C35.59 33.0321 35.59 33.0321 36.24 33.0321H41.45C42.07 33.0321 42.3 33.2721 42.31 33.8821C42.31 34.1421 42.31 34.4021 42.31 34.6621C42.31 34.9221 42.37 35.0821 42.7 35.0721C44 35.0721 45.3 35.0721 46.59 35.0721C46.94 35.0721 46.98 34.9521 46.98 34.6621C46.98 31.8221 46.98 28.9821 46.98 26.1421C46.9829 25.8994 46.9281 25.6595 46.82 25.4421C45.82 23.1621 44.71 20.8921 43.67 18.6121C43.5584 18.3038 43.3501 18.0398 43.0762 17.8596C42.8022 17.6793 42.4773 17.5925 42.15 17.6121C40.51 17.6121 38.87 17.6121 37.23 17.6121C36.1 17.6121 35.6 18.1121 35.6 19.2421L35.59 25.8321ZM30.89 38.4021C30.8901 39.1902 31.1231 39.9608 31.5596 40.6169C31.9961 41.2731 32.6167 41.7858 33.3435 42.0905C34.0704 42.3952 34.871 42.4784 35.645 42.3296C36.4189 42.1809 37.1317 41.8068 37.6938 41.2544C38.2559 40.7019 38.6423 39.9958 38.8044 39.2245C38.9666 38.4532 38.8973 37.6513 38.6052 36.9193C38.3132 36.1873 37.8114 35.5578 37.1629 35.11C36.5144 34.6622 35.748 34.4159 34.96 34.4021C33.8907 34.4019 32.8638 34.8204 32.0993 35.5681C31.3348 36.3157 30.8935 37.3331 30.87 38.4021H30.89ZM15.44 42.4521C16.229 42.4521 17.0003 42.2187 17.657 41.7813C18.3137 41.344 18.8263 40.7222 19.1305 39.9942C19.4347 39.2662 19.5167 38.4645 19.3664 37.69C19.2161 36.9154 18.84 36.2027 18.2856 35.6413C17.7312 35.08 17.0232 34.6951 16.2506 34.5352C15.478 34.3752 14.6753 34.4473 13.9436 34.7424C13.2119 35.0375 12.5838 35.5424 12.1383 36.1936C11.6928 36.8448 11.4499 37.6132 11.44 38.4021C11.445 39.4627 11.8637 40.4794 12.6071 41.2358C13.3504 41.9923 14.3597 42.4287 15.42 42.4521H15.44ZM19.1 34.4521C19.4441 34.8306 19.7583 35.2352 20.04 35.6621C20.12 35.8221 20.25 35.7821 20.37 35.7821H30.01C30.13 35.7821 30.26 35.7821 30.34 35.6621C30.6167 35.2316 30.9312 34.8266 31.28 34.4521H19.1ZM38.49 34.4521C39.3622 35.2437 39.955 36.296 40.18 37.4521C40.24 37.7821 40.37 37.8521 40.68 37.8521H46.81C47.66 37.8521 47.64 37.8521 47.66 36.9821C47.66 36.6321 47.6 36.5221 47.22 36.5221C45.62 36.5221 44.01 36.5221 42.41 36.5221C40.96 36.5221 40.93 36.5221 40.93 35.0721C40.925 34.9755 40.925 34.8787 40.93 34.7821C40.93 34.5321 40.84 34.4921 40.62 34.4921L38.49 34.4521ZM11.82 34.4521H11.64H9.69C8.69 34.4521 8.69 34.4521 8.69 35.4521C8.69 35.6821 8.74001 35.7921 9.01001 35.7821C9.49001 35.7821 10.01 35.7821 10.47 35.7821C10.59 35.7821 10.73 35.7821 10.81 35.6721C11.0966 35.2197 11.4283 34.7976 11.8 34.4121L11.82 34.4521Z" fill="#EF4C23"/>
<path d="M20.12 31.7421H8.39001C7.57001 31.7421 7.39001 31.5521 7.39001 30.7421V9.86206C7.39001 9.06206 7.57001 8.86206 8.39001 8.86206H31.96C32.75 8.86206 32.96 9.06206 32.96 9.86206V30.7321C32.96 31.5321 32.76 31.7321 31.96 31.7321L20.12 31.7421ZM20.12 10.2421H9.12001C8.78001 10.2421 8.69002 10.3321 8.69002 10.6721C8.69002 17.1054 8.69002 23.5321 8.69002 29.9521C8.69002 30.3321 8.81002 30.3921 9.15002 30.3921C16.4834 30.3921 23.79 30.3921 31.07 30.3921C31.44 30.3921 31.52 30.2921 31.52 29.9321C31.52 23.5254 31.52 17.1154 31.52 10.7021C31.52 10.3021 31.4 10.2321 31.03 10.2321C27.44 10.2421 23.8 10.2421 20.17 10.2421H20.12Z" fill="#EF4C23"/>
<path d="M36.91 22.2422C36.91 21.4222 36.91 20.6122 36.91 19.8022C36.91 19.1522 37.1 18.9522 37.74 18.9522H41.48C41.651 18.9364 41.8226 18.9753 41.97 19.0634C42.1173 19.1515 42.2329 19.2841 42.3 19.4422L45.52 25.9222C45.83 26.5522 45.52 27.0222 44.83 27.0222H40.4C40.2043 27.0353 40.0101 26.9795 39.8512 26.8644C39.6923 26.7493 39.5786 26.5822 39.53 26.3922C39.35 25.7922 38.99 25.6422 38.38 25.6622C36.92 25.6622 36.91 25.6622 36.91 24.1822V22.2422ZM38.27 22.3122V23.2422C38.27 24.3722 38.27 24.3922 39.38 24.3722C39.5936 24.3361 39.813 24.3792 39.9971 24.4933C40.1812 24.6075 40.3173 24.7848 40.38 24.9922C40.43 25.1422 40.53 25.2822 40.59 25.4322C40.6159 25.5243 40.6756 25.6033 40.7571 25.6533C40.8387 25.7034 40.9362 25.7208 41.03 25.7022C41.86 25.7022 42.69 25.7022 43.51 25.7022C43.77 25.7022 43.88 25.7022 43.73 25.3822C42.93 23.7955 42.1334 22.2055 41.34 20.6122C41.3058 20.5318 41.2463 20.4648 41.1704 20.4215C41.0946 20.3781 41.0066 20.3608 40.92 20.3722C40.15 20.3722 39.37 20.3722 38.59 20.3722C38.36 20.3722 38.28 20.4322 38.29 20.6722C38.28 21.2422 38.27 21.7622 38.27 22.3322V22.3122Z" fill="#EF4C23"/>
<path d="M38.24 29.7122H37.24C37.03 29.7122 36.93 29.7122 36.92 29.4322C36.87 28.3422 36.86 28.3522 37.92 28.3522C38.37 28.3522 38.83 28.3522 39.28 28.3522C39.56 28.3522 39.62 28.4422 39.62 28.7122C39.62 29.7122 39.62 29.7122 38.62 29.7122H38.24Z" fill="#EF4C23"/>
<path d="M34.9299 36.4221C35.4604 36.4221 35.9691 36.6328 36.3442 37.0079C36.7192 37.383 36.9299 37.8917 36.9299 38.4221C36.9299 38.8177 36.8126 39.2044 36.5929 39.5333C36.3731 39.8622 36.0608 40.1185 35.6953 40.2699C35.3299 40.4213 34.9277 40.4609 34.5398 40.3837C34.1518 40.3065 33.7954 40.116 33.5157 39.8363C33.236 39.5566 33.0455 39.2003 32.9684 38.8123C32.8912 38.4243 32.9308 38.0222 33.0822 37.6568C33.2336 37.2913 33.4899 36.9789 33.8188 36.7592C34.1477 36.5394 34.5344 36.4221 34.9299 36.4221ZM35.5399 38.4221C35.5387 38.3372 35.5205 38.2534 35.4865 38.1756C35.4525 38.0978 35.4033 38.0275 35.3419 37.9689C35.2805 37.9102 35.208 37.8644 35.1287 37.8341C35.0494 37.8037 34.9648 37.7895 34.8799 37.7921C34.7093 37.7973 34.5475 37.8695 34.4297 37.993C34.3118 38.1165 34.2472 38.2814 34.2499 38.4521C34.2385 38.5436 34.2467 38.6364 34.2739 38.7244C34.3011 38.8125 34.3467 38.8937 34.4077 38.9628C34.4687 39.0319 34.5437 39.0872 34.6277 39.1251C34.7117 39.163 34.8028 39.1826 34.8949 39.1826C34.9871 39.1826 35.0782 39.163 35.1622 39.1251C35.2462 39.0872 35.3212 39.0319 35.3822 38.9628C35.4432 38.8937 35.4888 38.8125 35.516 38.7244C35.5432 38.6364 35.5513 38.5436 35.5399 38.4521V38.4221Z" fill="#EF4C23"/>
<path d="M13.42 38.4022C13.4266 37.8717 13.6437 37.3657 14.0234 36.9953C14.4032 36.6249 14.9145 36.4205 15.445 36.4272C15.9754 36.4338 16.4815 36.6509 16.8519 37.0306C17.2222 37.4104 17.4266 37.9217 17.42 38.4522C17.4133 38.9826 17.1963 39.4887 16.8165 39.859C16.6285 40.0424 16.4061 40.187 16.1622 40.2845C15.9183 40.382 15.6576 40.4304 15.395 40.4272C14.8645 40.4205 14.3585 40.2035 13.9881 39.8237C13.6177 39.4439 13.4133 38.9326 13.42 38.4022ZM15.42 37.7822C15.2493 37.7874 15.0876 37.8595 14.9697 37.983C14.8518 38.1065 14.7873 38.2715 14.79 38.4422C14.7912 38.5279 14.8097 38.6126 14.8443 38.6911C14.8789 38.7696 14.929 38.8403 14.9915 38.8991C15.054 38.9579 15.1277 39.0035 15.2081 39.0332C15.2886 39.0629 15.3743 39.0762 15.46 39.0722C15.5453 39.0723 15.6297 39.055 15.7082 39.0215C15.7867 38.988 15.8575 38.9389 15.9164 38.8772C15.9753 38.8154 16.0211 38.7424 16.0509 38.6625C16.0807 38.5825 16.094 38.4974 16.09 38.4122C16.0874 38.3259 16.0677 38.241 16.032 38.1625C15.9963 38.0839 15.9453 38.0133 15.882 37.9546C15.8187 37.896 15.7444 37.8505 15.6633 37.8209C15.5823 37.7913 15.4962 37.7781 15.41 37.7822H15.42Z" fill="#EF4C23"/>
<path d="M10.0499 22.1121C10.0499 21.6221 10.0499 21.1121 10.0499 20.6521C10.0288 20.2622 10.0961 19.8726 10.2467 19.5125C10.3974 19.1523 10.6275 18.8308 10.9199 18.5721C12.0472 17.4479 13.2871 16.4427 14.6199 15.5721C19.0499 13.0521 23.5599 12.7821 28.0599 15.3421C28.8001 15.7528 29.3992 16.3771 29.7792 17.1334C30.1591 17.8898 30.3023 18.7431 30.1899 19.5821C30.0899 20.8421 29.9699 22.1021 29.8099 23.3521C29.6829 24.3938 29.1696 25.3499 28.3715 26.0313C27.5734 26.7127 26.5487 27.0699 25.4999 27.0321C24.0047 26.9882 22.544 26.5723 21.2499 25.8221C20.4051 25.3315 19.4507 25.0607 18.4741 25.0345C17.4975 25.0083 16.5299 25.2275 15.6599 25.6721C14.7502 26.1081 13.7585 26.3467 12.7499 26.3721C12.3998 26.3856 12.0506 26.328 11.7234 26.2026C11.3961 26.0773 11.0978 25.8869 10.8463 25.6429C10.5948 25.3989 10.3955 25.1064 10.2603 24.7831C10.1251 24.4598 10.057 24.1125 10.0599 23.7621C10.0399 23.2421 10.0499 22.6621 10.0499 22.1121ZM21.6899 14.9421C21.1799 14.9421 20.6899 15.0021 20.1399 15.0621C16.6999 15.4321 14.1399 17.3421 11.7499 19.6721C11.5838 19.8313 11.4729 20.0394 11.4333 20.266C11.3938 20.4927 11.4276 20.726 11.5299 20.9321C11.6115 21.1319 11.7496 21.3035 11.9272 21.4261C12.1048 21.5486 12.3142 21.6167 12.5299 21.6221C12.8029 21.642 13.077 21.642 13.3499 21.6221C14.6034 21.4416 15.8295 21.1057 16.9999 20.6221C18.4767 20.1206 20.0907 20.2139 21.4999 20.8821C22.2424 21.2809 22.934 21.7678 23.5599 22.3321C24.0722 22.7379 24.7031 22.9654 25.3565 22.9798C26.0099 22.9942 26.6502 22.7949 27.1799 22.4121C27.6386 22.0257 28.013 21.5491 28.2799 21.0121C28.532 20.6267 28.6991 20.1919 28.7699 19.7369C28.8408 19.2818 28.8138 18.8169 28.6908 18.373C28.5677 17.9292 28.3515 17.5167 28.0565 17.1631C27.7615 16.8094 27.3945 16.5227 26.9799 16.3221C25.3554 15.4379 23.5394 14.9642 21.6899 14.9421ZM25.3099 25.6421C25.9452 25.7071 26.5841 25.5598 27.1269 25.2233C27.6696 24.8868 28.0857 24.38 28.3099 23.7821C28.3099 23.6521 28.4099 23.5021 28.3099 23.4121C28.2099 23.3221 28.1099 23.4121 28.0299 23.5021C27.2026 24.1215 26.1806 24.4237 25.1495 24.354C24.1183 24.2843 23.1464 23.8472 22.4099 23.1221C21.8685 22.5799 21.2072 22.1725 20.4794 21.9328C19.7516 21.6931 18.9776 21.6277 18.2199 21.7421C17.3396 21.946 16.4742 22.21 15.6299 22.5321C14.4919 22.9313 13.2783 23.0681 12.0799 22.9321C11.4099 22.8321 11.4199 22.7921 11.4199 23.4621V23.6121C11.4041 23.8116 11.4345 24.012 11.5088 24.1978C11.5831 24.3837 11.6992 24.5498 11.8483 24.6834C11.9973 24.8169 12.1752 24.9143 12.368 24.9678C12.5608 25.0214 12.7634 25.0297 12.9599 24.9921C13.7517 24.9146 14.5235 24.6979 15.2399 24.3521C16.3285 23.8356 17.5287 23.5989 18.7319 23.6635C19.935 23.7281 21.103 24.092 22.1299 24.7221C23.0994 25.2826 24.1909 25.5984 25.3099 25.6421Z" fill="#EF4C23"/>
<path d="M24.75 16.9421C25.4611 16.9079 26.1638 17.1082 26.75 17.5121C26.9888 17.6613 27.1873 17.8668 27.3281 18.1106C27.4689 18.3545 27.5477 18.6291 27.5576 18.9105C27.5675 19.1919 27.5081 19.4714 27.3848 19.7245C27.2614 19.9776 27.0778 20.1966 26.85 20.3621C26.2665 20.7791 25.5672 21.0032 24.85 21.0032C24.1328 21.0032 23.4335 20.7791 22.85 20.3621C22.596 20.1661 22.4001 19.9048 22.2831 19.6061C22.1661 19.3073 22.1325 18.9824 22.186 18.6661C22.2394 18.3498 22.3777 18.0539 22.5863 17.8101C22.7949 17.5663 23.0657 17.3838 23.37 17.2821C23.7961 17.0599 24.2694 16.9433 24.75 16.9421ZM24.84 19.6221C25.2328 19.6344 25.6189 19.5186 25.94 19.2921C26.23 19.0721 26.22 18.8521 25.94 18.6321C25.6156 18.4311 25.2416 18.3245 24.86 18.3245C24.4784 18.3245 24.1043 18.4311 23.78 18.6321C23.44 18.8821 23.45 19.1221 23.78 19.3621C24.0998 19.5517 24.4687 19.6422 24.84 19.6221Z" fill="#EF4C23"/>
<path d="M0 1.13212C0.00848347 0.90748 0.0318755 0.683654 0.0700073 0.462116C0.0944659 0.324343 0.169608 0.200718 0.280655 0.115582C0.391702 0.0304453 0.530599 -0.0100332 0.669998 0.00211586C0.817641 -0.00945081 0.964112 0.0358976 1.07939 0.128865C1.19467 0.221832 1.27003 0.355374 1.29001 0.502116C1.3454 0.883448 1.3454 1.27078 1.29001 1.65212C1.28489 1.80869 1.21972 1.9573 1.10802 2.06714C0.996315 2.17698 0.846642 2.23963 0.690002 2.24212C0.609059 2.24344 0.528658 2.22864 0.453491 2.19858C0.378325 2.16852 0.309889 2.1238 0.252182 2.06703C0.194475 2.01025 0.148649 1.94255 0.117371 1.86789C0.0860918 1.79322 0.0699964 1.71307 0.0700073 1.63212C0.0599996 1.45226 0.0599996 1.27198 0.0700073 1.09212L0 1.13212Z" fill="#EF4C23"/>
</svg>
