<svg width="40" height="42" viewBox="0 0 40 42" fill="none" xmlns="http://www.w3.org/2000/svg">
<path d="M1.84 41.8448C1.3894 41.4408 0.977614 40.9955 0.610001 40.5148C0.216928 39.8734 0.00604135 39.137 0 38.3848V10.1948C0 9.6448 0.239996 9.3548 0.659996 9.3648C1.08 9.3748 1.3 9.6548 1.3 10.1848C1.3 11.3348 1.3 12.4848 1.3 13.6348C1.3 21.7881 1.3 29.9381 1.3 38.0848C1.2628 38.5629 1.34685 39.0427 1.54438 39.4797C1.74191 39.9167 2.04652 40.2968 2.43 40.5848C2.905 40.933 3.48115 41.1157 4.07 41.1048C10.01 41.1048 15.95 41.1048 21.89 41.1048C22.2575 41.1205 22.6242 41.0594 22.9668 40.9257C23.3094 40.7919 23.6204 40.5882 23.88 40.3276C24.1397 40.0671 24.3422 39.7553 24.4747 39.4123C24.6073 39.0692 24.667 38.7022 24.65 38.3348C24.65 34.8448 24.65 31.3348 24.65 27.8648C24.65 27.4748 24.45 27.5148 24.2 27.5048C23.95 27.4948 23.76 27.5048 23.76 27.8748C23.76 29.6148 23.76 31.3448 23.76 33.0848C23.77 33.2313 23.77 33.3783 23.76 33.5248C23.7587 33.6071 23.7411 33.6883 23.7081 33.7637C23.6751 33.8391 23.6274 33.9071 23.5678 33.9639C23.5083 34.0207 23.438 34.0651 23.3611 34.0944C23.2842 34.1237 23.2022 34.1375 23.12 34.1348C23.0336 34.1422 22.9467 34.1309 22.8651 34.1015C22.7835 34.0721 22.7093 34.0254 22.6475 33.9646C22.5858 33.9037 22.5379 33.8302 22.5073 33.7491C22.4766 33.6681 22.4639 33.5813 22.47 33.4948C22.47 32.9548 22.47 32.4248 22.47 31.8848C22.47 30.6048 22.47 29.3248 22.47 28.0348C22.47 27.6248 22.39 27.4948 21.95 27.5048C17.37 27.5048 12.79 27.5048 8.21999 27.5048C7.7212 27.5441 7.22282 27.4238 6.79682 27.1614C6.37082 26.899 6.03926 26.508 5.85 26.0448C5.72333 25.7272 5.66539 25.3864 5.68 25.0448C5.68 19.5448 5.68 14.0448 5.68 8.5448C5.66112 8.21208 5.71445 7.87922 5.83634 7.56906C5.95823 7.2589 6.14578 6.97878 6.38613 6.74793C6.62648 6.51708 6.91392 6.34097 7.22874 6.23169C7.54357 6.1224 7.87831 6.08253 8.21 6.1148H21.95C22.35 6.1148 22.52 6.0548 22.49 5.5948C22.49 4.9348 22.49 4.2648 22.49 3.5948C22.49 3.0848 22.32 2.9248 21.82 2.9148C20.9 2.9148 19.97 2.9148 19.04 2.9148C18.78 2.9148 18.69 3.0248 18.61 3.2448C18.06 4.8448 18.05 4.8448 16.38 4.8448H9.13C8.13 4.8448 7.85 4.6648 7.52 3.7248C7.19 2.7848 7.24 2.9248 6.41 2.9248H4.25999C3.63999 2.9248 3.49 3.0748 3.49 3.7048V38.0348C3.49 38.8248 3.58999 38.9248 4.39999 38.9248H21.64C22.38 38.9248 22.49 38.8148 22.49 38.0848C22.49 37.5648 22.49 37.0848 22.49 36.5248C22.49 35.9648 22.75 35.7848 23.15 35.7948C23.2406 35.7914 23.3309 35.8075 23.4147 35.8422C23.4986 35.8768 23.5739 35.9292 23.6356 35.9957C23.6973 36.0621 23.744 36.1411 23.7723 36.2273C23.8007 36.3134 23.8101 36.4047 23.8 36.4948C23.8 37.1648 23.8 37.8348 23.8 38.4948C23.7818 38.9626 23.579 39.4041 23.236 39.7227C22.893 40.0413 22.4378 40.211 21.97 40.1948C15.97 40.1948 9.99666 40.1948 4.05 40.1948C3.58216 40.211 3.12695 40.0413 2.78398 39.7227C2.44102 39.4041 2.23823 38.9626 2.21999 38.4948C2.215 38.3982 2.215 38.3014 2.21999 38.2048V3.6248C2.19586 3.30108 2.25377 2.9765 2.38836 2.6811C2.52295 2.38569 2.72988 2.12901 2.99 1.9348C3.27926 1.72143 3.6306 1.609 3.99 1.6148H7.38C7.62521 1.606 7.86622 1.68019 8.06403 1.82537C8.26184 1.97055 8.40487 2.17823 8.46999 2.4148C8.84999 3.4948 8.84999 3.4948 9.96999 3.4948H16.69C16.8288 3.5188 16.9716 3.48861 17.0888 3.41047C17.206 3.33232 17.2888 3.21217 17.32 3.0748C17.83 1.5948 17.85 1.5948 19.43 1.5948H21.91C22.1586 1.58236 22.407 1.62131 22.6398 1.70922C22.8727 1.79713 23.0849 1.93211 23.2632 2.10572C23.4415 2.27934 23.5821 2.48786 23.6762 2.71827C23.7702 2.94867 23.8158 3.196 23.81 3.4448C23.81 4.1948 23.81 4.9448 23.81 5.6848C23.81 6.0448 23.97 6.0748 24.25 6.0748C24.53 6.0748 24.71 6.0748 24.7 5.7048C24.7 4.8748 24.7 4.0448 24.7 3.2148C24.6711 2.59215 24.422 2 23.997 1.54396C23.5721 1.08791 22.9991 0.7976 22.38 0.724799C22.1402 0.709837 21.8998 0.709837 21.66 0.724799H4.38C3.97561 0.682365 3.56685 0.730797 3.18358 0.866557C2.80031 1.00232 2.4522 1.22198 2.16469 1.50949C1.87717 1.797 1.65751 2.14511 1.52175 2.52838C1.38599 2.91166 1.33756 3.32041 1.38 3.7248V6.6448C1.39485 6.78775 1.39485 6.93185 1.38 7.0748C1.37659 7.15695 1.35604 7.23747 1.31969 7.31122C1.28333 7.38496 1.23196 7.45029 1.16888 7.50301C1.10579 7.55574 1.03238 7.5947 0.953362 7.6174C0.874338 7.64009 0.791448 7.64602 0.709999 7.6348C0.632315 7.64038 0.554323 7.62969 0.481003 7.60342C0.407683 7.57715 0.340645 7.53588 0.28418 7.48224C0.227714 7.4286 0.183061 7.36377 0.153069 7.29189C0.123076 7.22001 0.10841 7.14267 0.110001 7.0648C0.0315826 5.5881 0.0583109 4.1077 0.189995 2.6348C0.274827 2.13036 0.459075 1.64781 0.732033 1.21519C1.00499 0.782581 1.36122 0.408536 1.78 0.1148C1.93737 0.0241464 2.1194 -0.0143596 2.3 0.00479997H23.67C23.8966 -0.00187018 24.1187 0.0686507 24.3 0.2048C24.8248 0.580796 25.2508 1.07824 25.5416 1.65464C25.8324 2.23104 25.9794 2.86926 25.97 3.5148C25.97 4.24147 25.97 4.97147 25.97 5.7048C25.97 6.0548 26.08 6.1248 26.41 6.1248C27.75 6.1248 29.1 6.1248 30.41 6.1248C30.5565 6.11504 30.7035 6.11504 30.85 6.1248C30.9966 6.14689 31.1298 6.22246 31.224 6.33694C31.3181 6.45142 31.3666 6.59671 31.36 6.7448C31.3747 6.89373 31.3323 7.04269 31.2413 7.16152C31.1503 7.28035 31.0176 7.36016 30.87 7.3848C30.6772 7.40473 30.4828 7.40473 30.29 7.3848H8.38C7.31 7.3848 7.02 7.6648 7.02 8.7348C7.02 11.9048 7.02 15.0648 7.02 18.2348C7.02 18.6348 7.11 18.7448 7.52 18.7448C9.52 18.7448 11.61 18.7448 13.66 18.7448C14.1706 18.7201 14.6782 18.8357 15.1278 19.079C15.5774 19.3224 15.9518 19.6841 16.2104 20.1251C16.4691 20.5661 16.602 21.0694 16.5949 21.5806C16.5877 22.0918 16.4408 22.5912 16.17 23.0248C15.9148 23.4749 15.5365 23.8429 15.0795 24.0855C14.6225 24.3282 14.1058 24.4355 13.59 24.3948C11.59 24.3948 9.59 24.3948 7.59 24.3948C7.18 24.3948 7.02 24.4548 7.04 24.9148C7.04 25.9148 7.37 26.2248 8.38 26.2248H36.67C37.67 26.2248 37.96 25.8948 37.96 24.9348C37.96 19.5148 37.96 14.0948 37.96 8.6748C37.96 7.6748 37.66 7.3948 36.68 7.3948H33.95C33.4 7.3948 33.13 7.1448 33.14 6.7148C33.15 6.2848 33.38 6.1148 33.9 6.1148C34.9 6.1148 35.9 6.1148 36.9 6.1148C37.2011 6.11216 37.4997 6.16918 37.7787 6.28258C38.0576 6.39598 38.3113 6.5635 38.5251 6.77548C38.739 6.98746 38.9087 7.2397 39.0245 7.51764C39.1404 7.79557 39.2 8.0937 39.2 8.3948C39.2 14.0148 39.2 19.6315 39.2 25.2448C39.2011 25.5635 39.1359 25.879 39.0086 26.1712C38.8814 26.4634 38.6947 26.7259 38.4606 26.9422C38.2265 27.1584 37.95 27.3237 37.6486 27.4274C37.3473 27.5312 37.0276 27.5711 36.71 27.5448H26.6C25.97 27.5448 25.97 27.5448 25.97 28.1948C25.97 31.4648 25.97 34.7448 25.97 38.0248C26.017 38.7405 25.8799 39.4563 25.5718 40.104C25.2637 40.7517 24.7949 41.3097 24.21 41.7248C24.21 41.7248 24.09 41.7948 24.13 41.8748L1.84 41.8448ZM10.55 23.1148C11.55 23.1148 12.66 23.1148 13.71 23.1148C13.9275 23.1504 14.1501 23.1383 14.3625 23.0794C14.5749 23.0204 14.7719 22.9159 14.9398 22.7732C15.1078 22.6305 15.2427 22.453 15.3353 22.253C15.4278 22.053 15.4758 21.8352 15.4758 21.6148C15.4758 21.3944 15.4278 21.1766 15.3353 20.9766C15.2427 20.7766 15.1078 20.5991 14.9398 20.4564C14.7719 20.3137 14.5749 20.2092 14.3625 20.1502C14.1501 20.0913 13.9275 20.0792 13.71 20.1148C11.59 20.1148 9.46 20.1148 7.34 20.1148C7.06 20.1148 6.98 20.2048 6.99 20.4748C6.99 21.2348 6.99 22.0048 6.99 22.7648C6.99 23.1248 7.11 23.1848 7.43 23.1748L10.55 23.1148Z" fill="#EF4C23"/>
<path d="M12.9899 29.9849C13.9899 29.9849 15.0999 29.9849 16.1499 29.9849C16.6179 29.9603 17.0823 30.0793 17.4809 30.3259C17.8794 30.5725 18.1931 30.935 18.3799 31.3649C18.5841 31.7833 18.6617 32.2522 18.6031 32.7141C18.5445 33.176 18.3522 33.6107 18.0499 33.9649C17.8101 34.2446 17.5101 34.4663 17.1724 34.6135C16.8347 34.7608 16.468 34.8296 16.0999 34.8149C13.9899 34.8149 11.8799 34.8149 9.77992 34.8149C9.31302 34.847 8.84732 34.7372 8.44398 34.4998C8.04064 34.2624 7.71852 33.9086 7.51992 33.4849C7.31451 33.083 7.22709 32.6311 7.2678 32.1816C7.3085 31.7321 7.47566 31.3033 7.74992 30.9449C7.99205 30.628 8.30845 30.3756 8.67119 30.2099C9.03394 30.0442 9.43188 29.9704 9.82991 29.9949C10.9099 29.9749 11.9499 29.9849 12.9899 29.9849ZM12.9899 31.2849H9.86992C9.07992 31.2849 8.61992 31.7049 8.60992 32.3949C8.60721 32.554 8.63877 32.7119 8.70246 32.8578C8.76615 33.0037 8.86047 33.1342 8.97903 33.2404C9.09759 33.3467 9.23763 33.4262 9.38961 33.4735C9.5416 33.5209 9.702 33.535 9.85992 33.5149C11.9499 33.5149 14.0499 33.5149 16.1399 33.5149C16.2956 33.5301 16.4528 33.5128 16.6015 33.4642C16.7502 33.4155 16.8871 33.3365 17.0037 33.2322C17.1203 33.1278 17.2139 33.0004 17.2786 32.858C17.3434 32.7156 17.3779 32.5613 17.3799 32.4049C17.3814 32.2456 17.3485 32.0878 17.2836 31.9423C17.2187 31.7969 17.1232 31.6671 17.0037 31.5618C16.8842 31.4565 16.7434 31.3781 16.5909 31.3321C16.4384 31.286 16.2778 31.2733 16.1199 31.2949L12.9899 31.2849Z" fill="#EF4C23"/>
<path d="M13.25 9.34478H15.63C15.8127 9.31469 16 9.32804 16.1766 9.38375C16.3532 9.43946 16.5143 9.53597 16.6467 9.66546C16.7791 9.79496 16.8792 9.9538 16.9388 10.1291C16.9984 10.3045 17.016 10.4914 16.99 10.6748C16.99 11.6748 16.99 12.6748 16.99 13.6748C17.0094 13.8546 16.988 14.0365 16.9272 14.2069C16.8664 14.3773 16.7679 14.5317 16.639 14.6587C16.5102 14.7856 16.3543 14.8818 16.183 14.94C16.0117 14.9982 15.8295 15.0169 15.65 14.9948H10.84C10.6518 15.0184 10.4607 14.9982 10.2816 14.9357C10.1025 14.8732 9.94033 14.7702 9.80768 14.6346C9.67503 14.4991 9.57552 14.3347 9.51694 14.1543C9.45836 13.9739 9.44228 13.7824 9.46997 13.5948C9.46997 12.5948 9.46997 11.6548 9.46997 10.6848C9.44926 10.4998 9.47151 10.3125 9.53498 10.1375C9.59846 9.96256 9.70144 9.80458 9.83593 9.6759C9.97042 9.54721 10.1328 9.45129 10.3104 9.39559C10.488 9.3399 10.6761 9.32593 10.86 9.35478L13.25 9.34478ZM13.19 13.7048C13.92 13.7048 14.65 13.7048 15.38 13.7048C15.61 13.7048 15.69 13.6348 15.69 13.3948C15.69 12.5881 15.69 11.7781 15.69 10.9648C15.69 10.7148 15.62 10.6348 15.36 10.6348C13.94 10.6348 12.51 10.6348 11.08 10.6348C10.85 10.6348 10.78 10.6948 10.78 10.9348C10.78 11.7448 10.78 12.5548 10.78 13.3648C10.78 13.6748 10.9 13.7048 11.15 13.7048C11.83 13.6948 12.51 13.7048 13.19 13.7048Z" fill="#EF4C23"/>
<path d="M29.38 23.4448C29.2536 23.4553 29.1264 23.4553 29 23.4448C28.5 23.3448 28.25 23.5648 28.11 24.0548C28.0978 24.1561 28.0623 24.2532 28.0062 24.3385C27.9502 24.4237 27.8751 24.4949 27.7869 24.5462C27.6987 24.5976 27.5998 24.6278 27.498 24.6345C27.3961 24.6412 27.2942 24.6241 27.2 24.5848C26.82 24.4248 26.72 24.0948 26.91 23.5848L28.59 19.1848C28.73 18.8048 28.94 18.5048 29.37 18.5048C29.8 18.5048 30.01 18.7948 30.15 19.1748C30.7 20.6448 31.27 22.1148 31.82 23.5848C32.01 24.0948 31.91 24.4248 31.54 24.5848C31.4469 24.6291 31.3444 24.65 31.2413 24.6455C31.1383 24.641 31.038 24.6113 30.9491 24.559C30.8603 24.5067 30.7856 24.4333 30.7317 24.3454C30.6778 24.2575 30.6463 24.1577 30.64 24.0548C30.48 23.2048 29.87 23.4848 29.38 23.4448ZM28.88 22.1148C29.98 22.2148 29.98 22.2148 29.61 21.2748C29.61 21.1348 29.49 20.9948 29.39 20.7648L28.88 22.1148Z" fill="#EF4C23"/>
<path d="M23.31 21.5648V19.6148C23.31 18.6148 23.45 18.4748 24.47 18.4848C24.9046 18.4583 25.3408 18.4817 25.77 18.5548C26.2248 18.6524 26.6315 18.9055 26.9198 19.2705C27.2082 19.6356 27.3603 20.0897 27.35 20.5548C27.34 21.0118 27.1738 21.4516 26.879 21.8009C26.5843 22.1503 26.1788 22.3881 25.73 22.4748L25.3 22.5248C24.62 22.5248 24.62 22.5248 24.62 23.2248V23.8548C24.62 24.3448 24.39 24.6048 23.99 24.6148C23.59 24.6248 23.32 24.3548 23.31 23.8448C23.3 23.1148 23.31 22.3248 23.31 21.5648ZM24.61 20.4548C24.76 20.7048 24.3 21.2848 25.06 21.2348C25.82 21.1848 26.06 20.9648 26.06 20.5148C26.06 20.0648 25.67 19.8048 25.06 19.7648C24.45 19.7248 24.68 20.1748 24.61 20.4548Z" fill="#EF4C23"/>
<path d="M33.63 20.3148L34.56 18.9048C34.83 18.5148 35.17 18.3948 35.5 18.6048C35.83 18.8148 35.9 19.1648 35.66 19.6048C35.5555 19.8041 35.4351 19.9947 35.3 20.1748C34.8783 20.6439 34.5691 21.2029 34.3958 21.8093C34.2226 22.4158 34.1898 23.0538 34.3 23.6748C34.315 23.8044 34.315 23.9352 34.3 24.0648C34.2976 24.1463 34.2786 24.2264 34.2442 24.3003C34.2097 24.3742 34.1606 24.4403 34.0998 24.4946C34.039 24.5489 33.9677 24.5902 33.8904 24.616C33.813 24.6418 33.7313 24.6516 33.65 24.6448C33.5672 24.6521 33.4837 24.6415 33.4053 24.6137C33.3269 24.5859 33.2554 24.5416 33.1957 24.4837C33.1359 24.4259 33.0893 24.3558 33.059 24.2784C33.0287 24.2009 33.0154 24.1179 33.02 24.0348C33.02 23.3848 33.02 22.7448 33.02 22.0948C33.031 21.8522 32.9606 21.6129 32.82 21.4148L31.66 19.6748C31.39 19.2548 31.42 18.8548 31.75 18.6748C32.08 18.4948 32.43 18.5348 32.75 18.9748C33.07 19.4148 33.3 19.8148 33.63 20.3148Z" fill="#EF4C23"/>
<path d="M25.67 12.0349C25.6839 12.2346 25.6839 12.4351 25.67 12.6349C25.65 12.7907 25.5696 12.9324 25.4462 13.0297C25.3228 13.1269 25.1662 13.1719 25.01 13.1549C24.862 13.1632 24.7166 13.1136 24.6046 13.0165C24.4925 12.9194 24.4227 12.7825 24.41 12.6349C24.3751 12.2323 24.3751 11.8274 24.41 11.4249C24.4151 11.3473 24.4354 11.2715 24.4699 11.2019C24.5043 11.1322 24.5522 11.0701 24.6107 11.019C24.6693 10.9679 24.7373 10.9288 24.811 10.9041C24.8846 10.8794 24.9625 10.8694 25.04 10.8749C25.1959 10.8665 25.349 10.9193 25.4666 11.022C25.5842 11.1247 25.6572 11.2692 25.67 11.4249C25.6809 11.628 25.6809 11.8317 25.67 12.0349Z" fill="#EF4C23"/>
<path d="M31.47 12.0148C31.4551 11.8218 31.4551 11.6279 31.47 11.4348C31.4803 11.2792 31.5508 11.1337 31.6666 11.0292C31.7823 10.9247 31.9342 10.8693 32.0901 10.8748C32.2383 10.8578 32.3873 10.8995 32.5051 10.9912C32.6229 11.0828 32.7001 11.2169 32.72 11.3648C32.8101 11.7935 32.8101 12.2362 32.72 12.6648C32.6977 12.8124 32.6203 12.946 32.5034 13.0388C32.3865 13.1316 32.2388 13.1766 32.0901 13.1648C31.9332 13.1705 31.7801 13.1155 31.6628 13.0111C31.5454 12.9068 31.4728 12.7613 31.46 12.6048C31.445 12.4085 31.445 12.2112 31.46 12.0148H31.47Z" fill="#EF4C23"/>
<path d="M26.7499 12.0248C26.7399 11.8316 26.7399 11.638 26.7499 11.4448C26.7692 11.2927 26.8434 11.1528 26.9584 11.0514C27.0735 10.95 27.2216 10.894 27.3749 10.894C27.5283 10.894 27.6764 10.95 27.7915 11.0514C27.9065 11.1528 27.9806 11.2927 27.9999 11.4448C28.0449 11.8436 28.0449 12.2461 27.9999 12.6448C27.9712 12.785 27.8924 12.91 27.7784 12.9965C27.6643 13.083 27.5227 13.125 27.3799 13.1148C27.3029 13.1148 27.2267 13.0995 27.1556 13.0697C27.0846 13.04 27.0202 12.9964 26.9662 12.9414C26.9123 12.8865 26.8697 12.8214 26.8412 12.7499C26.8126 12.6783 26.7986 12.6018 26.7999 12.5248C26.7399 12.3848 26.7499 12.2048 26.7499 12.0248Z" fill="#EF4C23"/>
<path d="M22.38 12.1148C22.3951 12.2911 22.3951 12.4684 22.38 12.6448C22.377 12.7276 22.3562 12.8088 22.3191 12.8829C22.2821 12.9571 22.2296 13.0224 22.1651 13.0745C22.1007 13.1266 22.0258 13.1643 21.9456 13.1851C21.8654 13.2058 21.7816 13.2091 21.7 13.1948C21.6217 13.198 21.5436 13.1844 21.471 13.1549C21.3984 13.1255 21.3329 13.0809 21.2789 13.024C21.2249 12.9672 21.1837 12.8995 21.1581 12.8255C21.1324 12.7515 21.1228 12.6728 21.13 12.5948C21.13 12.2548 21.13 11.9214 21.13 11.5948C21.1212 11.5098 21.1309 11.424 21.1585 11.3431C21.1861 11.2623 21.231 11.1884 21.2899 11.1266C21.3489 11.0648 21.4205 11.0165 21.5 10.9852C21.5794 10.9538 21.6647 10.94 21.75 10.9448C22.16 10.9448 22.36 11.2048 22.39 11.6048C22.39 11.7748 22.39 11.9548 22.39 12.1348L22.38 12.1148Z" fill="#EF4C23"/>
</svg>
