<svg width="52" height="52" viewBox="0 0 52 52" fill="none" xmlns="http://www.w3.org/2000/svg">
<path d="M11.4216 33.6626C11.4216 27.256 11.4216 20.8615 11.4216 14.4669C11.4216 13.939 11.5404 13.7831 12.0869 13.7831C16.613 13.7831 21.1392 13.7831 25.6653 13.7831H26.188C26.2117 14.2106 26.2117 14.6392 26.188 15.0668C26.188 15.6067 26.3187 15.7746 26.8651 15.7626C30.5478 15.7626 34.2305 15.7626 37.9013 15.7626C38.1334 15.7314 38.3695 15.7561 38.5903 15.8346C38.3408 15.8346 38.0914 15.8346 37.8419 15.8346H26.093H25.9266H13.9639C13.5362 15.8346 13.5006 16.0266 13.5006 16.3745C13.5006 18.486 13.5006 20.6095 13.5006 22.7331C13.5006 25.4804 13.5006 28.2278 13.5006 30.9752C13.5006 31.4431 13.6431 31.5751 14.0945 31.5511C14.8786 31.5511 15.6745 31.5511 16.4705 31.5511H26.1286H26.2474V33.6386H21.056L11.4216 33.6626Z" fill="#EF4C23"/>
<path d="M38.295 15.8359C38.0762 15.7573 37.8423 15.7326 37.6123 15.7638C33.9754 15.7638 30.3268 15.7638 26.6782 15.7638C26.1367 15.7638 25.9602 15.6078 26.0073 15.0676C26.0308 14.6397 26.0308 14.2109 26.0073 13.7831H28.9144H40.5783C40.5783 20.4096 40.5783 27.0361 40.5783 33.6626H31.0565H26.0073V31.5858H26.6899H37.9654C38.2714 31.5858 38.4951 31.5858 38.4951 31.1536C38.4951 26.2078 38.4951 21.2659 38.4951 16.328C38.5068 16.112 38.5657 15.8959 38.295 15.8359Z" fill="#EF4C23"/>
<path d="M11.2194 33.6626H20.8197C20.8197 34.0664 20.8197 34.4701 20.8197 34.8501C20.8197 35.2302 20.9504 35.3489 21.3306 35.3489C22.8871 35.3489 24.4436 35.3489 26 35.3489V36.9759H10.6491C10.3687 36.9625 10.0902 36.9228 9.81736 36.8571C9.38799 36.5132 9.06984 36.0503 8.90284 35.5263C8.73584 35.0023 8.72745 34.4407 8.87871 33.912C8.93812 33.627 9.12823 33.6745 9.31834 33.6745L11.2194 33.6626Z" fill="#EF4C23"/>
<path d="M26 36.9538V35.3492H29.5891C31.3119 35.3492 31.3119 35.3492 31.1683 33.6626H42.7612C43.0843 33.6626 43.2278 33.7446 43.2159 34.0842C43.2039 34.4239 43.2159 34.7284 43.2159 35.0447C43.2481 35.3024 43.2204 35.564 43.1348 35.8098C43.0492 36.0557 42.9078 36.2793 42.7214 36.4641C42.535 36.6488 42.3083 36.7899 42.0583 36.8768C41.8083 36.9636 41.5414 36.9939 41.2777 36.9655H34.1712L26 36.9538Z" fill="#EF4C23"/>
<path d="M32.4331 25.4644C32.4331 24.7283 32.4331 23.9922 32.4331 23.256C32.4331 22.8267 32.5047 22.6549 32.9704 22.6672C33.9615 22.6672 33.9615 22.6672 33.9495 21.6366V21.4526C33.9495 21.1704 33.866 21.0723 33.5913 21.0723C32.2898 21.0723 31.0002 21.0723 29.6987 21.0723C29.4479 21.0723 29.3763 21.1581 29.3524 21.4158C29.2568 22.6426 29.2449 22.6426 30.427 22.6426C30.7853 22.6426 30.8927 22.7653 30.8927 23.1211C30.8927 24.4829 30.8927 25.8324 30.8927 27.1819C30.8927 28.5315 30.8927 28.4088 32.0868 28.2984C32.3853 28.2984 32.4928 28.188 32.4928 27.8812C32.4211 27.1329 32.4331 26.2741 32.4331 25.4644Z" fill="#EF4C23"/>
<path d="M32.4936 25.4524C32.4936 26.2667 32.4936 27.0934 32.4936 27.9201C32.4936 28.2285 32.3865 28.3272 32.089 28.3396C30.8988 28.4012 30.8988 28.4136 30.8988 27.2168C30.8988 26.0199 30.8988 24.5023 30.8988 23.1328C30.8988 22.775 30.7917 22.6639 30.4347 22.6516C29.2445 22.6516 29.2445 22.6516 29.3635 21.4177C29.3635 21.1586 29.4588 21.0723 29.7087 21.0723C31.006 21.0723 32.2913 21.0723 33.5886 21.0723C33.8623 21.0723 33.9813 21.171 33.9456 21.4548V21.6398C33.9456 22.6763 33.9456 22.7009 32.9697 22.6763C32.5055 22.6763 32.4103 22.8367 32.4341 23.2685C32.5174 23.9718 32.4936 24.6627 32.4936 25.4524Z" fill="#EF4C23"/>
<path d="M23.363 21.0723H26.0001C26.0001 23.4813 26.0001 25.8903 26.0001 28.2993L25.9325 28.3614H25.0534C25.0534 26.6478 25.0534 24.9466 25.0534 23.2329C25.0534 22.8232 24.9317 22.6493 24.4584 22.6866C24.089 22.7052 23.7189 22.7052 23.3495 22.6866V21.0723H23.363Z" fill="#EF4C23"/>
<path d="M26 28.2993C26 25.8903 26 23.4813 26 21.0723C26.5431 21.0723 27.0649 21.0723 27.6506 21.0723C27.8742 21.0723 28.0233 21.0723 27.9807 21.4324C27.9807 22.5996 27.9807 22.6741 27.0329 22.6741C26.7135 22.6741 26.6283 22.7983 26.6283 23.1584C26.6283 24.6817 26.6283 26.209 26.6283 27.7405C26.6283 27.9516 26.7135 28.1752 26.5431 28.3614L26 28.2993Z" fill="#EF4C23"/>
<path d="M23.3482 24.76C23.3483 25.2401 23.2607 25.7155 23.0905 26.158C22.9203 26.6005 22.6709 27.0013 22.3571 27.3368C22.0432 27.6722 21.6713 27.9356 21.263 28.1114C20.8548 28.2872 20.4186 28.3719 19.98 28.3604C19.5437 28.3573 19.1124 28.2589 18.7113 28.071C18.3102 27.8831 17.9474 27.6095 17.6442 27.2662C17.3409 26.9228 17.1033 26.5167 16.9454 26.0716C16.7874 25.6265 16.7122 25.1513 16.7241 24.674C16.7225 24.1934 16.809 23.7173 16.9787 23.274C17.1484 22.8307 17.3977 22.4292 17.7118 22.0934C18.026 21.7576 18.3986 21.4943 18.8075 21.3191C19.2164 21.1439 19.6533 21.0604 20.0923 21.0736C20.5286 21.0767 20.9599 21.1751 21.361 21.363C21.7621 21.5509 22.1249 21.8245 22.4282 22.1678C22.7314 22.5112 22.969 22.9173 23.1269 23.3624C23.2849 23.8075 23.3601 24.2827 23.3482 24.76ZM20.0698 26.7384C20.5474 26.732 21.0038 26.5215 21.3415 26.1519C21.6793 25.7822 21.8716 25.2827 21.8774 24.76C21.8657 24.2362 21.6681 23.738 21.3265 23.371C20.9849 23.0039 20.5261 22.797 20.0474 22.7939C19.5667 22.7938 19.1051 22.9993 18.761 23.3667C18.417 23.7341 18.2178 24.2341 18.2061 24.76C18.2014 25.0282 18.2466 25.2945 18.3389 25.543C18.4312 25.7914 18.5687 26.0167 18.743 26.2052C18.9173 26.3937 19.1248 26.5414 19.3529 26.6394C19.581 26.7374 19.8249 26.7836 20.0698 26.7752V26.7384Z" fill="#EF4C23"/>
<path d="M23.3495 23.0603C23.7804 23.0777 24.2123 23.0777 24.6432 23.0603C25.1954 23.0603 25.3374 23.1879 25.3374 23.5707C25.3374 25.1715 25.3374 26.7607 25.3374 28.3615C25.1895 28.1805 25.1388 27.9654 25.1954 27.7583C25.1954 26.4243 25.1954 25.1019 25.1954 23.7679C25.1954 23.3039 25.0219 23.1183 24.375 23.1531C24.205 23.1924 24.0255 23.2045 23.8486 23.1885C23.6716 23.1725 23.5015 23.1288 23.3495 23.0603Z" fill="#EF4C23"/>
<path d="M52 26C52 40.3594 40.3594 52 26 52C11.6406 52 0 40.3594 0 26C0 11.6406 11.6406 0 26 0C40.3594 0 52 11.6406 52 26ZM0.430374 26C0.430374 40.1217 11.8783 51.5696 26 51.5696C40.1217 51.5696 51.5696 40.1217 51.5696 26C51.5696 11.8783 40.1217 0.430374 26 0.430374C11.8783 0.430374 0.430374 11.8783 0.430374 26Z" fill="#EF4C23"/>
</svg>
