<svg width="43" height="30" viewBox="0 0 43 30" fill="none" xmlns="http://www.w3.org/2000/svg">
<path d="M42.9565 23.5412C42.6465 23.9112 42.4065 24.3712 41.8865 24.5412C41.7565 24.5412 41.7965 24.7312 41.7865 24.8412C41.5985 26.0018 41.0599 27.0771 40.243 27.9226C39.426 28.7681 38.37 29.3434 37.2165 29.5712C36.0459 29.7892 34.8364 29.6332 33.7594 29.1253C32.6825 28.6173 31.7928 27.7832 31.2165 26.7412C30.9043 26.207 30.6909 25.621 30.5865 25.0112C30.5865 24.7312 30.4565 24.6112 30.1265 24.6212C26.0865 24.6212 22.0465 24.6212 18.0065 24.6212C17.7465 24.6212 17.5965 24.6212 17.5365 24.9612C17.3158 26.2583 16.6492 27.4377 15.6519 28.2959C14.6546 29.1542 13.389 29.6374 12.0735 29.6623C10.7579 29.6872 9.47497 29.2522 8.44589 28.4323C7.41681 27.6124 6.70617 26.459 6.43652 25.1712C6.31652 24.6212 6.06651 24.5912 5.64651 24.6212C5.57555 24.6253 5.50663 24.6466 5.44568 24.6832C5.38472 24.7197 5.33354 24.7705 5.29651 24.8312C5.13005 25.0431 4.91505 25.2119 4.66964 25.3233C4.42424 25.4347 4.15563 25.4854 3.8865 25.4712H1.74652C1.5116 25.4896 1.2755 25.4565 1.05468 25.3743C0.833865 25.2921 0.633647 25.1627 0.467984 24.9951C0.302321 24.8275 0.175187 24.6258 0.0954864 24.4041C0.0157861 24.1823 -0.0145856 23.9459 0.00649719 23.7112C0.00649719 22.7112 0.00649719 21.7112 0.00649719 20.7812C-0.00792185 20.4882 0.0627708 20.1972 0.210049 19.9435C0.357328 19.6897 0.574915 19.484 0.836514 19.3512C0.937677 19.3051 1.02138 19.2277 1.07538 19.1306C1.12937 19.0334 1.15079 18.9214 1.1365 18.8112C1.1365 18.4712 1.1365 18.1312 1.1365 17.8112C1.13502 17.7329 1.14967 17.6552 1.17956 17.5828C1.20945 17.5104 1.25394 17.445 1.31024 17.3906C1.36653 17.3362 1.43343 17.2939 1.50677 17.2665C1.58011 17.2391 1.65832 17.2271 1.73651 17.2312C1.81824 17.223 1.90079 17.2313 1.97921 17.2558C2.05764 17.2802 2.13033 17.3203 2.1929 17.3735C2.25547 17.4267 2.30664 17.4921 2.34335 17.5656C2.38006 17.639 2.40155 17.7192 2.40652 17.8012C2.4365 18.0737 2.4365 18.3487 2.40652 18.6212C2.40652 19.0112 2.46651 19.1812 2.89651 19.1412C3.26925 19.1113 3.64377 19.1113 4.01651 19.1412C4.45063 19.1491 4.86416 19.3278 5.16742 19.6385C5.47067 19.9492 5.63921 20.367 5.6365 20.8012C5.6365 21.5212 5.6365 22.2312 5.6365 22.9412C5.6365 23.1212 5.55651 23.3512 5.89651 23.3412C6.23651 23.3312 6.2865 23.3412 6.3565 23.0112C6.58045 21.6934 7.2636 20.4973 8.28491 19.6349C9.30622 18.7725 10.5998 18.2995 11.9365 18.2995C13.2732 18.2995 14.5668 18.7725 15.5881 19.6349C16.6094 20.4973 17.2926 21.6934 17.5165 23.0112C17.5165 23.3612 17.7365 23.3712 18.0065 23.3712C19.9165 23.3712 21.8365 23.3712 23.7465 23.3712C24.1065 23.3712 24.2065 23.2812 24.2065 22.9112C24.2065 19.5412 24.2065 16.1612 24.2065 12.7912V3.08119C24.2065 1.77119 23.6965 1.26119 22.3765 1.26119H4.21652C2.92652 1.26119 2.4165 1.77119 2.4165 3.06119V14.9412C2.43159 15.1008 2.43159 15.2615 2.4165 15.4212C2.41019 15.5027 2.38784 15.5822 2.3507 15.655C2.31356 15.7278 2.26237 15.7926 2.2001 15.8456C2.13783 15.8986 2.0657 15.9387 1.98785 15.9637C1.91 15.9887 1.82799 15.998 1.74652 15.9912C1.66833 15.9953 1.59012 15.9833 1.51678 15.9559C1.44344 15.9285 1.37654 15.8862 1.32025 15.8318C1.26395 15.7774 1.21946 15.712 1.18957 15.6396C1.15968 15.5672 1.14503 15.4895 1.14651 15.4112C1.14651 15.2912 1.14651 15.1812 1.14651 15.0712C1.14651 11.0112 1.14651 6.95119 1.14651 2.89119C1.09814 2.21156 1.3066 1.53853 1.73065 1.00522C2.1547 0.471917 2.76347 0.117182 3.43652 0.0111881C3.64626 -0.00372936 3.85676 -0.00372936 4.06649 0.0111881H22.5765C22.9757 -0.0179767 23.3765 0.0400357 23.751 0.181202C24.1255 0.322367 24.4649 0.543307 24.7456 0.828704C25.0262 1.1141 25.2414 1.45712 25.3762 1.83399C25.5111 2.21085 25.5624 2.61254 25.5265 3.01119C25.5265 9.63119 25.5265 16.2512 25.5265 22.8712C25.5265 23.3612 25.6565 23.4512 26.1165 23.4412C27.4365 23.4412 28.7465 23.4412 30.0665 23.4412C30.4165 23.4412 30.5465 23.3512 30.6265 22.9912C30.7737 22.2299 31.0754 21.5068 31.5131 20.8667C31.9508 20.2266 32.5151 19.6831 33.1712 19.2698C33.8272 18.8564 34.5611 18.5821 35.3274 18.4636C36.0938 18.3452 36.8763 18.3852 37.6265 18.5812H37.7665C37.9737 18.7288 38.2246 18.8022 38.4787 18.7895C38.7327 18.7768 38.9751 18.6787 39.1665 18.5112C39.4665 18.2612 39.9065 18.3412 40.2965 18.3512C40.5265 18.3512 40.6265 18.3512 40.5965 18.0412C40.569 17.5031 40.3863 16.9844 40.0705 16.5478C39.7546 16.1113 39.3191 15.7756 38.8165 15.5812C38.01 15.2418 37.1729 14.9806 36.3165 14.8012C36.0265 14.7312 35.9465 14.8012 35.8465 15.0812C35.6692 15.5631 35.3472 15.9783 34.9248 16.2701C34.5023 16.5619 33.9999 16.716 33.4865 16.7112C33.3158 16.7249 33.1441 16.7034 32.9821 16.648C32.82 16.5926 32.6711 16.5045 32.5446 16.3892C32.418 16.2739 32.3164 16.1338 32.2462 15.9776C32.1761 15.8214 32.1387 15.6524 32.1365 15.4812C32.1365 13.9212 32.1365 12.3612 32.1365 10.8012C32.1218 10.606 32.1595 10.4104 32.2456 10.2346C32.3317 10.0588 32.4633 9.90919 32.6265 9.80119C32.8665 9.64119 32.8265 9.49119 32.7565 9.28119C32.5451 8.66121 32.1847 8.10263 31.707 7.65452C31.2292 7.20641 30.6487 6.88248 30.0165 6.71119C29.2651 6.49954 28.4948 6.36221 27.7165 6.30119C27.555 6.29598 27.3943 6.27589 27.2365 6.24119C27.155 6.22825 27.0771 6.19865 27.0075 6.15422C26.938 6.1098 26.8784 6.05151 26.8324 5.983C26.7864 5.91449 26.755 5.83723 26.7403 5.75605C26.7255 5.67487 26.7276 5.59151 26.7465 5.51119C26.754 5.43356 26.7768 5.35818 26.8136 5.28942C26.8504 5.22065 26.9005 5.15987 26.9609 5.11058C27.0214 5.0613 27.091 5.02448 27.1658 5.00227C27.2405 4.98006 27.319 4.9729 27.3965 4.98119C28.9446 4.9902 30.4664 5.38182 31.8265 6.12119C32.9703 6.85857 33.7922 8.00202 34.1265 9.32119C34.1552 9.44477 34.2114 9.56025 34.2911 9.65897C34.3708 9.75769 34.4718 9.83708 34.5865 9.89119C35.0038 10.0954 35.3554 10.4127 35.6011 10.807C35.8469 11.2012 35.9769 11.6566 35.9765 12.1212C35.9765 12.5412 35.7965 13.1212 36.0565 13.3412C36.3165 13.5612 36.8165 13.5512 37.2065 13.6412C38.2692 13.8927 39.2829 14.3184 40.2065 14.9012C40.6963 15.2635 41.0969 15.733 41.3777 16.2737C41.6584 16.8144 41.8119 17.4121 41.8265 18.0212C41.8238 18.1399 41.8542 18.257 41.9142 18.3594C41.9743 18.4619 42.0616 18.5456 42.1665 18.6012C42.52 18.8426 42.7837 19.1942 42.9165 19.6012L42.9565 23.5412ZM11.9565 19.6212C11.3799 19.6132 10.8074 19.7202 10.2726 19.936C9.73776 20.1518 9.25132 20.472 8.84167 20.878C8.43202 21.2839 8.10738 21.7674 7.88672 22.3002C7.66606 22.833 7.5538 23.4045 7.55652 23.9812C7.55651 25.1464 8.0187 26.2641 8.8417 27.0889C9.6647 27.9138 10.7813 28.3785 11.9465 28.3812C13.1018 28.3659 14.2062 27.9029 15.0269 27.0896C15.8476 26.2764 16.3207 25.1763 16.3465 24.0212C16.3465 22.8594 15.8871 21.7448 15.0684 20.9205C14.2497 20.0962 13.1382 19.6291 11.9765 19.6212H11.9565ZM40.5165 23.9812C40.4627 22.857 39.9783 21.7967 39.1638 21.0202C38.3492 20.2436 37.2669 19.8104 36.1415 19.8104C35.0161 19.8104 33.9338 20.2436 33.1193 21.0202C32.3047 21.7967 31.8203 22.857 31.7665 23.9812C31.7382 24.5733 31.8304 25.165 32.0374 25.7205C32.2445 26.2759 32.5622 26.7836 32.9713 27.2127C33.3803 27.6417 33.8722 27.9833 34.4171 28.2167C34.9621 28.4501 35.5487 28.5704 36.1415 28.5704C36.7343 28.5704 37.3209 28.4501 37.8659 28.2167C38.4108 27.9833 38.9027 27.6417 39.3117 27.2127C39.7208 26.7836 40.0385 26.2759 40.2456 25.7205C40.4527 25.165 40.5448 24.5733 40.5165 23.9812ZM1.26651 22.3112C1.26651 22.7712 1.26651 23.2212 1.26651 23.6712C1.2532 23.7397 1.25639 23.8104 1.27581 23.8775C1.29524 23.9445 1.33036 24.006 1.37823 24.0568C1.4261 24.1076 1.48537 24.1463 1.55114 24.1696C1.61692 24.193 1.6873 24.2004 1.7565 24.1912H3.84649C3.91524 24.2031 3.98585 24.1985 4.05246 24.1777C4.11906 24.157 4.17976 24.1207 4.22958 24.0718C4.2794 24.023 4.31689 23.963 4.33896 23.8968C4.36102 23.8306 4.36704 23.7602 4.3565 23.6912V20.9212C4.3565 20.6112 4.2165 20.4312 3.8865 20.4312H1.74652C1.40652 20.4312 1.25651 20.6012 1.26651 20.9412C1.27651 21.2812 1.26651 21.8612 1.26651 22.3112ZM33.4865 13.1512C33.4865 13.7912 33.4865 14.4212 33.4865 15.0512C33.4865 15.4712 33.6365 15.4812 33.9465 15.3512C34.1565 15.2761 34.3402 15.1417 34.4751 14.9641C34.61 14.7866 34.6904 14.5736 34.7065 14.3512C34.7065 13.5812 34.7065 12.8012 34.7065 12.0212C34.685 11.7763 34.5906 11.5435 34.4356 11.3528C34.2805 11.1621 34.0718 11.0222 33.8365 10.9512C33.5965 10.8512 33.4765 10.9512 33.4865 11.2012C33.4865 11.8212 33.4865 12.4912 33.4865 13.1512ZM39.8065 19.6112C40.6339 20.3294 41.2783 21.2344 41.6865 22.2512C41.6865 21.5112 41.6865 20.7912 41.6865 20.0612C41.6865 19.7912 41.5665 19.6212 41.2865 19.6212L39.8065 19.6112Z" fill="#EF4C23"/>
<path d="M6.04648 12.4112C6.03634 11.7769 6.15923 11.1475 6.40726 10.5636C6.65528 9.97976 7.02293 9.45433 7.48648 9.02124L12.5365 3.97123C12.958 3.49746 13.4715 3.1145 14.0458 2.84568C14.6202 2.57685 15.2432 2.42781 15.877 2.40764C16.5108 2.38746 17.1421 2.49658 17.7323 2.72832C18.3226 2.96007 18.8594 3.3096 19.3102 3.75561C19.761 4.20161 20.1162 4.73474 20.3542 5.3225C20.5922 5.91026 20.708 6.54033 20.6946 7.17431C20.6811 7.80828 20.5387 8.43288 20.276 9.01002C20.0133 9.58716 19.6357 10.1047 19.1665 10.5312C17.4765 12.2212 15.7965 13.9112 14.1065 15.5812C13.5154 16.2117 12.7609 16.6658 11.927 16.893C11.0932 17.1202 10.2126 17.1115 9.38336 16.8679C8.55414 16.6243 7.8088 16.1554 7.23026 15.5133C6.65172 14.8713 6.26268 14.0813 6.10648 13.2312C6.09684 13.1515 6.09684 13.0709 6.10648 12.9912C6.04648 12.8012 6.04648 12.6012 6.04648 12.4112ZM10.4065 15.7812C10.8707 15.8167 11.3373 15.7549 11.7763 15.6C12.2154 15.445 12.6173 15.2002 12.9565 14.8812C13.7165 14.1612 14.4465 13.4012 15.2065 12.6712C15.2933 12.5988 15.3546 12.5006 15.3816 12.3909C15.4086 12.2811 15.3998 12.1656 15.3565 12.0612C15.0707 11.0229 14.5207 10.0763 13.7601 9.31394C12.9995 8.55155 12.0542 7.99935 11.0165 7.71123C10.9201 7.67382 10.8145 7.66719 10.7142 7.69226C10.6139 7.71733 10.5239 7.77287 10.4565 7.85123C9.72648 8.61123 8.94648 9.33123 8.23648 10.1012C7.77697 10.5567 7.4668 11.1411 7.34714 11.7769C7.22748 12.4127 7.30396 13.0699 7.56647 13.6612C7.78279 14.2523 8.16659 14.7675 8.67093 15.144C9.17527 15.5204 9.77836 15.7419 10.4065 15.7812ZM16.4865 11.3212C17.1565 10.6512 17.8465 10.0412 18.4865 9.32124C19.0399 8.69389 19.3386 7.88216 19.3238 7.04571C19.309 6.20925 18.9818 5.4086 18.4065 4.80123C17.8403 4.18653 17.0619 3.80957 16.2285 3.74646C15.3951 3.68335 14.5688 3.9388 13.9165 4.46123C13.2065 5.03123 12.6065 5.72123 11.9165 6.35123C11.6865 6.57123 11.8365 6.60124 12.0465 6.68124C12.9522 7.02188 13.7814 7.53848 14.4865 8.20124C15.3953 9.06444 16.0816 10.135 16.4865 11.3212Z" fill="#EF4C23"/>
<path d="M26.6865 12.0012C26.6865 11.3612 26.6865 10.7312 26.6865 10.1012C26.6835 9.91436 26.7208 9.72905 26.7958 9.55791C26.8709 9.38677 26.9819 9.23382 27.1214 9.10949C27.261 8.98516 27.4256 8.89237 27.6043 8.83745C27.7829 8.78252 27.9713 8.76675 28.1565 8.79122C28.672 8.85593 29.1806 8.96636 29.6765 9.12121C29.9184 9.18119 30.1393 9.306 30.3155 9.48221C30.4917 9.65841 30.6166 9.87934 30.6765 10.1212C31.0139 11.394 31.1886 12.7045 31.1965 14.0212C31.2049 14.3339 31.092 14.6377 30.8813 14.8688C30.6706 15.1 30.3786 15.2407 30.0665 15.2612C29.3374 15.3112 28.6057 15.3112 27.8765 15.2612C27.5546 15.2457 27.252 15.1034 27.0347 14.8654C26.8173 14.6275 26.703 14.3132 26.7165 13.9912C26.6765 13.3312 26.6865 12.7112 26.6865 12.0012ZM27.9565 12.0012C27.9565 12.1512 27.9565 12.3012 27.9565 12.4412C27.9565 12.9412 27.7365 13.6212 28.0565 13.8812C28.3765 14.1412 29.0065 13.8812 29.5065 13.9612C29.8365 13.9612 29.8765 13.8512 29.8565 13.5712C29.7965 12.8112 29.7265 12.0512 29.6065 11.3012C29.4465 10.3012 29.3765 10.2412 28.3865 10.0812H28.2865C28.0465 10.0212 27.9365 10.0812 27.9465 10.3612C27.9765 10.9412 27.9565 11.4912 27.9565 12.0412V12.0012Z" fill="#EF4C23"/>
<path d="M11.9665 22.0812C12.4479 22.1161 12.8982 22.3319 13.2269 22.6853C13.5556 23.0388 13.7384 23.5035 13.7384 23.9862C13.7384 24.4688 13.5556 24.9336 13.2269 25.287C12.8982 25.6404 12.4479 25.8563 11.9665 25.8912C11.4851 25.8563 11.0348 25.6404 10.7061 25.287C10.3773 24.9336 10.1946 24.4688 10.1946 23.9862C10.1946 23.5035 10.3773 23.0388 10.7061 22.6853C11.0348 22.3319 11.4851 22.1161 11.9665 22.0812ZM11.9665 23.3812C11.8851 23.3812 11.8044 23.3972 11.7292 23.4284C11.654 23.4595 11.5856 23.5052 11.5281 23.5628C11.4705 23.6203 11.4248 23.6887 11.3937 23.7639C11.3625 23.8391 11.3465 23.9198 11.3465 24.0012C11.3568 24.1647 11.4305 24.3179 11.5518 24.428C11.6732 24.5382 11.8327 24.5967 11.9965 24.5912C12.074 24.5899 12.1504 24.5733 12.2215 24.5425C12.2926 24.5116 12.3569 24.467 12.4108 24.4113C12.4646 24.3556 12.507 24.2898 12.5354 24.2177C12.5639 24.1456 12.5778 24.0687 12.5765 23.9912C12.5765 23.9102 12.5604 23.8301 12.5291 23.7554C12.4978 23.6807 12.452 23.613 12.3943 23.5563C12.3366 23.4995 12.2682 23.4548 12.193 23.4247C12.1178 23.3946 12.0374 23.3798 11.9565 23.3812H11.9665Z" fill="#EF4C23"/>
<path d="M36.1565 22.0813C36.6379 22.1162 37.0882 22.3321 37.417 22.6855C37.7457 23.0389 37.9284 23.5036 37.9284 23.9863C37.9284 24.4689 37.7457 24.9337 37.417 25.2871C37.0882 25.6405 36.6379 25.8564 36.1565 25.8913C35.8948 25.9103 35.6319 25.8751 35.3843 25.788C35.1367 25.7008 34.9097 25.5636 34.7176 25.3848C34.5254 25.2061 34.3721 24.9897 34.2673 24.749C34.1625 24.5084 34.1084 24.2488 34.1084 23.9863C34.1084 23.7238 34.1625 23.4642 34.2673 23.2236C34.3721 22.9829 34.5254 22.7665 34.7176 22.5877C34.9097 22.409 35.1367 22.2718 35.3843 22.1846C35.6319 22.0975 35.8948 22.0623 36.1565 22.0813ZM36.7565 23.9913C36.7592 23.9113 36.7456 23.8316 36.7166 23.757C36.6875 23.6824 36.6436 23.6145 36.5875 23.5575C36.5314 23.5004 36.4642 23.4554 36.3901 23.4251C36.316 23.3948 36.2366 23.3799 36.1565 23.3813C36.0752 23.3764 35.9937 23.3894 35.9179 23.4193C35.8421 23.4492 35.7737 23.4952 35.7175 23.5543C35.6613 23.6133 35.6187 23.6839 35.5926 23.7611C35.5665 23.8383 35.5576 23.9203 35.5665 24.0013C35.5638 24.0778 35.5766 24.1541 35.604 24.2256C35.6315 24.297 35.673 24.3623 35.7262 24.4173C35.7794 24.4724 35.8432 24.5162 35.9137 24.5461C35.9842 24.576 36.0599 24.5913 36.1365 24.5913C36.2173 24.5954 36.2981 24.5829 36.3739 24.5544C36.4497 24.526 36.5188 24.4823 36.5769 24.426C36.6351 24.3698 36.681 24.3021 36.7119 24.2273C36.7428 24.1525 36.758 24.0722 36.7565 23.9913Z" fill="#EF4C23"/>
</svg>
