<svg width="43" height="43" viewBox="0 0 43 43" fill="none" xmlns="http://www.w3.org/2000/svg">
<path d="M0 36.3254C0.238865 36.1307 0.519499 35.9938 0.82 35.9254C1.09 35.9254 1.01 35.6654 1.02 35.5054V22.4254C1.02 21.1954 1.53 20.6854 2.76 20.6754C3.82 20.6754 3.76 20.6754 3.9 19.6754C4.14829 17.1997 4.9405 14.8094 6.22 12.6754C6.30465 12.5745 6.35105 12.4471 6.35105 12.3154C6.35105 12.1837 6.30465 12.0563 6.22 11.9554C5.53563 11.0007 5.221 9.83008 5.33454 8.66093C5.44808 7.49178 5.98207 6.40357 6.83734 5.59839C7.69261 4.79321 8.81103 4.3258 9.9849 4.28295C11.1588 4.24009 12.3083 4.62472 13.22 5.3654C13.3534 5.52856 13.5415 5.63776 13.7493 5.6727C13.9571 5.70765 14.1706 5.66597 14.35 5.5554C16.4797 4.62038 18.7842 4.14992 21.11 4.17539C21.2416 4.18491 21.3731 4.15595 21.4885 4.09203C21.6039 4.02811 21.6983 3.93199 21.76 3.81539C22.5376 2.60614 23.6156 1.61932 24.8887 0.951357C26.1618 0.283396 27.5864 -0.0428488 29.0233 0.00451076C30.4603 0.0518703 31.8603 0.471211 33.0867 1.22155C34.313 1.97189 35.3237 3.02756 36.02 4.28539C36.6949 5.45846 37.0675 6.78098 37.1042 8.13386C37.1408 9.48674 36.8404 10.8275 36.23 12.0354C36.1341 12.1974 36.0835 12.3822 36.0835 12.5704C36.0835 12.7586 36.1341 12.9434 36.23 13.1054C37.74 15.7542 38.4908 18.7678 38.4 21.8154C38.4 22.1354 38.49 22.2354 38.77 22.2954C39.6998 22.484 40.5486 22.9556 41.2 23.6454C41.5443 23.9512 41.8136 24.3321 41.987 24.7587C42.1604 25.1853 42.2333 25.6461 42.2 26.1054C42.15 26.8512 42.15 27.5996 42.2 28.3454C42.2188 28.7839 42.0845 29.2152 41.82 29.5654C40.51 31.3454 39.19 33.1054 37.88 34.8854C37.7 35.1254 37.61 35.0554 37.46 34.8854C36.76 33.8854 36.03 32.9954 35.34 32.0354C35.11 31.7154 35 31.7754 34.8 32.0354C34.1879 32.8749 33.4835 33.6431 32.7 34.3254C32.5975 34.3896 32.5217 34.4889 32.4868 34.6047C32.4518 34.7206 32.4601 34.8452 32.51 34.9554C32.8764 36.1319 33.0222 37.3659 32.94 38.5954C32.9564 38.8062 32.927 39.018 32.8541 39.2165C32.7811 39.4149 32.6662 39.5953 32.5171 39.7453C32.3681 39.8952 32.1885 40.0113 31.9905 40.0855C31.7925 40.1598 31.5809 40.1904 31.37 40.1754C30.8554 40.1099 30.3346 40.1099 29.82 40.1754C29.34 40.3054 29.25 40.9354 28.91 41.2854C28.2424 42.0014 27.3862 42.5144 26.44 42.7654C26.35 42.7654 26.23 42.7654 26.2 42.8854H24.2C24.2 42.7454 24.11 42.7354 24.02 42.7054C23.4089 42.541 22.8377 42.2541 22.3409 41.8622C21.8441 41.4702 21.4321 40.9814 21.13 40.4254C21.0794 40.3263 20.9994 40.2452 20.9009 40.1933C20.8025 40.1414 20.6904 40.1212 20.58 40.1354H13.44C13.3234 40.1223 13.2057 40.1462 13.1035 40.2036C13.0012 40.261 12.9195 40.3491 12.87 40.4554C12.5496 41.0182 12.1186 41.5103 11.6031 41.9021C11.0875 42.2939 10.498 42.5774 9.87 42.7354C9.78 42.7354 9.63 42.7354 9.6 42.8854H7.64C7.59 42.6854 7.41 42.7254 7.28 42.6854C6.37221 42.4766 5.57616 41.934 5.05 41.1654C4.82922 40.7574 4.4766 40.4364 4.04975 40.2547C3.6229 40.0731 3.14707 40.0416 2.7 40.1654C2.44 40.1654 2.18 40.1654 1.93 40.1654C1.27535 40.2501 0.611037 40.1166 0.0400009 39.7854L0 36.3254ZM7.35 13.4254C6.18124 15.4716 5.47151 17.7475 5.27 20.0954C5.22 20.5954 5.38 20.6754 5.84 20.6654H20.15C21.32 20.6654 21.83 21.1854 21.84 22.3654C21.84 23.0254 21.84 23.6954 21.84 24.3654C21.84 24.7454 21.92 24.8654 22.31 24.8554C24.31 24.8554 26.24 24.8554 28.2 24.8554C28.7261 24.81 29.2501 24.9636 29.6685 25.2857C30.0869 25.6079 30.3694 26.0752 30.46 26.5954C30.81 27.9654 31.13 29.3354 31.46 30.7054C31.64 31.4454 31.84 32.1854 32.04 32.9654C32.7446 32.3026 33.3904 31.5799 33.97 30.8054C34.22 30.4954 34.19 30.2954 33.97 29.9754C33.4507 29.3394 33.1024 28.5813 32.9582 27.773C32.814 26.9647 32.8787 26.1329 33.1462 25.3566C33.4136 24.5803 33.8749 23.8852 34.4864 23.3372C35.0978 22.7892 35.8391 22.4065 36.64 22.2254C36.96 22.1454 37.03 21.9954 37.04 21.6954C37.0648 20.4935 36.9541 19.2925 36.71 18.1154C36.3925 16.6044 35.8534 15.1486 35.11 13.7954C35.0434 13.8595 34.9832 13.9298 34.93 14.0054L29.09 21.4254C28.74 21.8654 28.76 21.8654 28.42 21.4254C26.7 19.2354 24.97 17.0454 23.26 14.8454C22.5711 14.0609 21.952 13.2177 21.41 12.3254C20.3684 10.3358 20.1425 8.01877 20.78 5.8654C20.78 5.6554 20.93 5.5054 20.58 5.5154C18.5816 5.59203 16.6148 6.03964 14.78 6.8354C14.49 6.9554 14.54 7.0854 14.62 7.3054C14.9053 8.05243 14.9945 8.86011 14.8789 9.65138C14.7634 10.4427 14.447 11.1911 13.96 11.8254C12.78 13.4554 11.55 15.0454 10.36 16.6654C10.1 17.0254 9.98 16.9954 9.73 16.6654C8.96 15.5654 8.16 14.5254 7.35 13.4454V13.4254ZM2.43 29.0154C2.43 30.8354 2.43 32.6554 2.43 34.4654C2.43 34.9354 2.22 35.5754 2.51 35.8254C2.8 36.0754 3.41 35.8254 3.88 35.9054C3.9979 35.9193 4.11712 35.8946 4.21986 35.8351C4.32259 35.7757 4.40333 35.6845 4.45 35.5754C4.87365 34.8356 5.48516 34.2209 6.22268 33.7934C6.96019 33.3659 7.79753 33.1407 8.65 33.1407C9.50247 33.1407 10.3398 33.3659 11.0773 33.7934C11.8148 34.2209 12.4263 34.8356 12.85 35.5754C12.9043 35.6886 12.9916 35.7827 13.1006 35.8452C13.2095 35.9077 13.3348 35.9357 13.46 35.9254H19.98C20.31 35.9254 20.43 35.8554 20.43 35.5054C20.43 31.1654 20.43 26.8321 20.43 22.5054C20.43 22.1654 20.32 22.1054 20.01 22.1054C18.45 22.1054 16.9 22.1054 15.34 22.1054C14.95 22.1054 14.89 22.2454 14.9 22.5854C14.9 24.0154 14.9 25.4454 14.9 26.8654C14.9 27.3854 14.9 27.3854 14.42 27.1554C13.57 26.7254 12.7 26.3154 11.86 25.8654C11.7265 25.782 11.5724 25.7378 11.415 25.7378C11.2576 25.7378 11.1035 25.782 10.97 25.8654C10.11 26.3254 9.23 26.7354 8.37 27.1854C8.05 27.3554 7.94 27.3254 7.94 26.9254C7.94 25.4854 7.94 24.0354 7.94 22.5954C7.94 22.2254 7.87 22.0954 7.47 22.0954C5.93 22.0954 4.38 22.0954 2.84 22.0954C2.46 22.0954 2.39 22.2054 2.4 22.5654C2.44 24.7154 2.43 26.8754 2.43 29.0354V29.0154ZM28.34 1.3254C27.0894 1.36764 25.877 1.76666 24.8458 2.4754C23.8146 3.18414 23.0076 4.17302 22.52 5.3254C21.9337 6.48008 21.6935 7.77959 21.8283 9.06758C21.9631 10.3556 22.4672 11.5772 23.28 12.5854C24.96 14.8454 26.75 17.0254 28.48 19.2554C28.7 19.5454 28.82 19.5354 29.04 19.2554C30.58 17.2554 32.11 15.2554 33.69 13.3254C34.9635 11.9107 35.6749 10.0788 35.69 8.17539C35.6711 7.23863 35.4643 6.31518 35.082 5.4598C34.6996 4.60442 34.1494 3.83452 33.4639 3.19571C32.7785 2.55691 31.9718 2.0622 31.0916 1.74093C30.2115 1.41966 29.2758 1.27836 28.34 1.3254ZM21.88 34.4654C22.02 34.4654 22.08 34.3754 22.16 34.3054C22.6577 33.8653 23.2423 33.5348 23.8759 33.3352C24.5096 33.1356 25.1781 33.0715 25.8381 33.1469C26.4981 33.2223 27.1349 33.4357 27.7072 33.7731C28.2795 34.1105 28.7745 34.5644 29.16 35.1054C29.3327 35.4114 29.5982 35.6548 29.9181 35.8003C30.2379 35.9459 30.5958 35.9862 30.94 35.9154C31.24 35.9154 31.29 35.8454 31.21 35.5554C30.91 34.4287 30.63 33.2987 30.37 32.1654C30.3 31.8754 30.18 31.7754 29.88 31.7854C28.6 31.7854 27.31 31.7854 26.03 31.7854C25.8392 31.7981 25.648 31.7706 25.4684 31.7049C25.2889 31.6392 25.1251 31.5367 24.9876 31.4039C24.8501 31.2711 24.7419 31.111 24.67 30.9338C24.5981 30.7567 24.564 30.5665 24.57 30.3754C24.57 29.9954 24.57 29.6254 24.57 29.2554C24.5387 29.0323 24.5594 28.8049 24.6306 28.5912C24.7018 28.3774 24.8215 28.183 24.9803 28.0232C25.1391 27.8634 25.3328 27.7425 25.5461 27.67C25.7595 27.5975 25.9867 27.5754 26.21 27.6054H28.84C28.96 27.6054 29.15 27.7054 29.17 27.4654C29.1915 27.3167 29.1793 27.1651 29.1342 27.0219C29.089 26.8786 29.0122 26.7473 28.9094 26.6378C28.8066 26.5283 28.6805 26.4433 28.5404 26.3892C28.4002 26.3352 28.2497 26.3133 28.1 26.3254C26.17 26.3254 24.24 26.3254 22.31 26.3254C21.93 26.3254 21.82 26.4254 21.83 26.8054C21.83 29.2554 21.83 31.7054 21.83 34.1554C21.84 34.2254 21.79 34.3254 21.88 34.4654ZM41.2 26.9454C41.2063 26.4 41.0827 25.8609 40.8396 25.3726C40.5965 24.8844 40.2407 24.4609 39.8017 24.1372C39.3627 23.8135 38.853 23.5988 38.3147 23.5109C37.7764 23.423 37.2249 23.4643 36.7057 23.6315C36.1865 23.7988 35.7145 24.087 35.3287 24.4726C34.9428 24.8581 34.6542 25.3299 34.4866 25.849C34.319 26.368 34.2773 26.9195 34.3648 27.4579C34.4523 27.9963 34.6666 28.5061 34.99 28.9454C35.81 30.0754 36.67 31.1654 37.49 32.2954C37.71 32.5954 37.81 32.5954 38.03 32.2954C38.84 31.1754 39.69 30.0854 40.5 28.9754C40.9524 28.3953 41.1987 27.681 41.2 26.9454ZM6.64 8.99539C6.61359 9.62499 6.80032 10.2451 7.17 10.7554C8.05 12.0054 8.99 13.2054 9.9 14.4254C10.05 14.6354 10.14 14.6054 10.28 14.4254C11.15 13.2454 12.04 12.0954 12.89 10.9154C13.3184 10.3176 13.5421 9.59739 13.5277 8.86211C13.5133 8.12682 13.2615 7.4159 12.81 6.8354C12.3692 6.26007 11.758 5.83866 11.0635 5.63131C10.369 5.42396 9.62676 5.44126 8.94269 5.68074C8.25862 5.92022 7.66767 6.36965 7.25416 6.96488C6.84065 7.56012 6.6257 8.27076 6.64 8.99539ZM25.33 41.4554C26.0108 41.4514 26.6751 41.2455 27.2388 40.8638C27.8024 40.4821 28.2402 39.9416 28.4966 39.311C28.753 38.6803 28.8165 37.9878 28.679 37.321C28.5416 36.6542 28.2094 36.0432 27.7245 35.5654C27.2397 35.0875 26.6239 34.7642 25.9552 34.6365C25.2865 34.5088 24.5949 34.5824 23.9681 34.8479C23.3412 35.1135 22.8072 35.559 22.4338 36.1282C22.0603 36.6974 21.8641 37.3646 21.87 38.0454C21.8713 38.4945 21.9611 38.939 22.1342 39.3534C22.3072 39.7678 22.5603 40.1441 22.8788 40.4608C23.1973 40.7774 23.575 41.0282 23.9905 41.1989C24.4059 41.3696 24.8509 41.4567 25.3 41.4554H25.33ZM12.13 38.0054C12.126 37.3246 11.9201 36.6603 11.5384 36.0966C11.1567 35.533 10.6163 35.0952 9.9856 34.8388C9.35494 34.5824 8.66238 34.5189 7.99561 34.6563C7.32884 34.7938 6.71784 35.126 6.23997 35.6108C5.7621 36.0957 5.43884 36.7115 5.31113 37.3802C5.18342 38.0489 5.25699 38.7404 5.52253 39.3673C5.78808 39.9942 6.23365 40.5281 6.80284 40.9016C7.37203 41.2751 8.03924 41.4713 8.72 41.4654C9.16913 41.4602 9.61283 41.3665 10.0258 41.1898C10.4387 41.0131 10.8128 40.7568 11.1267 40.4355C11.4405 40.1142 11.688 39.7342 11.855 39.3172C12.022 38.9003 12.1053 38.4545 12.1 38.0054H12.13ZM13.53 25.0854V22.4154C13.53 22.2354 13.53 22.1054 13.27 22.1054C12.07 22.1054 10.87 22.1054 9.67 22.1054C9.5 22.1054 9.4 22.1054 9.4 22.3454V25.0454C9.8634 24.9053 10.3045 24.6999 10.71 24.4354C10.9243 24.2683 11.1883 24.1776 11.46 24.1776C11.7317 24.1776 11.9957 24.2683 12.21 24.4354C12.6271 24.6768 13.0578 24.8938 13.5 25.0854H13.53ZM16.99 37.3254H14.51C13.51 37.3254 13.57 37.3254 13.51 38.3254C13.51 38.6854 13.61 38.7354 13.94 38.7354H19.39C20.39 38.7354 20.39 38.7354 20.46 37.7354C20.46 37.4354 20.36 37.3954 20.11 37.3954L16.99 37.3254ZM27.99 30.3754H28.99C29.99 30.3754 29.99 30.3754 29.74 29.3754C29.7369 29.318 29.7214 29.2619 29.6946 29.211C29.6678 29.16 29.6304 29.1155 29.5848 29.0804C29.5392 29.0453 29.4866 29.0204 29.4306 29.0074C29.3745 28.9945 29.3163 28.9938 29.26 29.0054C28.52 29.0054 27.77 29.0054 27.03 29.0054C26.03 29.0054 26.03 29.0054 26.03 30.0054C26.03 30.3054 26.15 30.3554 26.4 30.3454C26.9 30.3254 27.43 30.3754 27.97 30.3754H27.99ZM2.44 37.3254H1.37C1.23 37.3254 1.06 37.3254 1.06 37.5254C1.06 37.7254 1.06 38.1754 1.06 38.5254C1.06 38.8754 1.19 38.7054 1.33 38.7054H3.57C3.77 38.7054 3.85 38.6454 3.83 38.4254C3.81 38.2054 3.93 37.5854 3.75 37.4254C3.57 37.2654 3.08 37.3654 2.75 37.3454L2.44 37.3254ZM30.74 38.6954C31.51 38.6954 31.52 38.6954 31.51 38.1454C31.51 37.1954 31.61 37.3354 30.95 37.3254C30.1 37.3254 30.09 37.3254 30.12 38.4354C30.13 38.9854 30.64 38.5354 30.74 38.6954Z" fill="#EF4C23"/>
<path d="M16.27 18.6154C16.27 17.9154 16.27 17.9154 17.08 17.9154C17.7 17.9154 17.7 17.9154 17.7 18.7354C17.7 19.3254 17.7 19.2654 16.8 19.3454C16.07 19.3954 16.3 18.9254 16.27 18.6154Z" fill="#EF4C23"/>
<path d="M20.46 18.6654C20.46 19.3254 20.46 19.3254 19.65 19.3254C19.03 19.3254 19.03 19.3254 19.03 18.5154C19.03 17.9154 19.03 17.9154 19.87 17.9154C20.46 17.9154 20.46 17.9154 20.46 18.6654Z" fill="#EF4C23"/>
<path d="M22.5 19.3254C21.81 19.3254 21.81 19.3254 21.81 18.4954C21.81 17.9154 21.81 17.9154 22.61 17.9154C23.24 17.9154 23.24 17.9154 23.24 18.7754C23.23 19.4154 23.34 19.3254 22.5 19.3254Z" fill="#EF4C23"/>
<path d="M28.75 13.7754C28.0195 13.7767 27.2959 13.6338 26.6207 13.3549C25.9456 13.0759 25.3321 12.6664 24.8155 12.1499C24.299 11.6333 23.8895 11.0199 23.6105 10.3447C23.3316 9.66954 23.1887 8.94594 23.19 8.21542C23.1582 7.4661 23.2783 6.7181 23.5432 6.01641C23.808 5.31473 24.212 4.67387 24.731 4.13242C25.25 3.59096 25.8731 3.1601 26.5629 2.86576C27.2528 2.57142 27.995 2.41968 28.745 2.41968C29.495 2.41968 30.2372 2.57142 30.9271 2.86576C31.6169 3.1601 32.24 3.59096 32.759 4.13242C33.278 4.67387 33.682 5.31473 33.9468 6.01641C34.2117 6.7181 34.3318 7.4661 34.3 8.21542C34.3053 8.94621 34.1654 9.67078 33.8885 10.3471C33.6116 11.0234 33.2032 11.638 32.6869 12.1552C32.1706 12.6724 31.5567 13.082 30.8809 13.3601C30.2051 13.6382 29.4808 13.7794 28.75 13.7754ZM28.75 4.10542C27.934 4.1074 27.1369 4.35105 26.4593 4.80562C25.7816 5.26019 25.2538 5.9053 24.9425 6.65955C24.6311 7.4138 24.5502 8.24338 24.7098 9.04359C24.8695 9.8438 25.2627 10.5788 25.8397 11.1558C26.4166 11.7327 27.1516 12.1259 27.9518 12.2856C28.752 12.4452 29.5816 12.3643 30.3359 12.0529C31.0901 11.7416 31.7352 11.2138 32.1898 10.5362C32.6444 9.85852 32.888 9.0614 32.89 8.24542C32.894 7.70064 32.7896 7.16049 32.583 6.6564C32.3763 6.15231 32.0715 5.69434 31.6863 5.3091C31.3011 4.92387 30.8431 4.61907 30.339 4.41243C29.8349 4.20579 29.2948 4.10143 28.75 4.10542Z" fill="#EF4C23"/>
<path d="M37.79 24.8454C38.0614 24.8531 38.3287 24.9144 38.5763 25.0258C38.8239 25.1372 39.0471 25.2965 39.233 25.4944C39.4188 25.6924 39.5638 25.9251 39.6593 26.1793C39.7549 26.4334 39.7994 26.704 39.79 26.9754C39.7821 27.5244 39.5585 28.0484 39.1674 28.4339C38.7763 28.8193 38.2492 29.0354 37.7 29.0354C37.149 29.0173 36.6266 28.7862 36.2424 28.3909C35.8582 27.9955 35.6423 27.4666 35.64 26.9154C35.6452 26.6383 35.705 26.3649 35.8158 26.1109C35.9267 25.8569 36.0865 25.6272 36.2862 25.435C36.4858 25.2427 36.7214 25.0917 36.9795 24.9906C37.2375 24.8894 37.5129 24.8401 37.79 24.8454ZM37.79 26.2854C37.7001 26.2796 37.6099 26.2929 37.5255 26.3244C37.4411 26.3559 37.3643 26.4049 37.3001 26.4682C37.2359 26.5314 37.1858 26.6075 37.153 26.6915C37.1203 26.7754 37.1056 26.8654 37.11 26.9554C37.1152 27.1269 37.187 27.2897 37.3103 27.4092C37.4335 27.5287 37.5984 27.5954 37.77 27.5954C37.8587 27.5998 37.9473 27.5854 38.0301 27.5531C38.1128 27.5209 38.1878 27.4715 38.2502 27.4083C38.3125 27.345 38.3607 27.2693 38.3917 27.186C38.4227 27.1028 38.4358 27.014 38.43 26.9254C38.4304 26.8413 38.4132 26.758 38.3793 26.681C38.3455 26.604 38.2959 26.535 38.2336 26.4784C38.1714 26.4218 38.098 26.3789 38.0181 26.3526C37.9382 26.3262 37.8537 26.3169 37.77 26.3254L37.79 26.2854Z" fill="#EF4C23"/>
<path d="M10.04 11.0153C9.50939 10.9786 9.01246 10.742 8.64956 10.3531C8.28666 9.96427 8.08484 9.4522 8.08484 8.92031C8.08484 8.38843 8.28666 7.87636 8.64956 7.48751C9.01246 7.09865 9.50939 6.86199 10.04 6.82531C10.3273 6.80545 10.6156 6.84489 10.887 6.94118C11.1584 7.03747 11.4071 7.18855 11.6176 7.38504C11.8282 7.58152 11.9961 7.81921 12.1108 8.08332C12.2256 8.34744 12.2848 8.63234 12.2848 8.92031C12.2848 9.20829 12.2256 9.49319 12.1108 9.7573C11.9961 10.0214 11.8282 10.2591 11.6176 10.4556C11.4071 10.6521 11.1584 10.8032 10.887 10.8994C10.6156 10.9957 10.3273 11.0352 10.04 11.0153ZM10.04 9.58531C10.2023 9.56537 10.3518 9.48675 10.4601 9.36425C10.5685 9.24176 10.6283 9.08386 10.6283 8.92031C10.6283 8.75677 10.5685 8.59887 10.4601 8.47637C10.3518 8.35388 10.2023 8.27526 10.04 8.25531C9.94584 8.24374 9.85028 8.25231 9.75966 8.28044C9.66905 8.30857 9.58544 8.35563 9.51437 8.4185C9.44331 8.48137 9.38641 8.55861 9.34743 8.64512C9.30846 8.73163 9.28831 8.82543 9.28831 8.92031C9.28831 9.0152 9.30846 9.109 9.34743 9.19551C9.38641 9.28202 9.44331 9.35926 9.51437 9.42213C9.58544 9.485 9.66905 9.53205 9.75966 9.56018C9.85028 9.58832 9.94584 9.59689 10.04 9.58531Z" fill="#EF4C23"/>
<path d="M27.38 38.0854C27.3677 38.5021 27.2315 38.9058 26.989 39.2448C26.7464 39.5839 26.4084 39.8431 26.0181 39.9895C25.6277 40.1358 25.2026 40.1626 24.7969 40.0665C24.3912 39.9704 24.0233 39.7558 23.7401 39.4498C23.4568 39.1439 23.271 38.7606 23.2064 38.3488C23.1417 37.9369 23.2011 37.5151 23.377 37.1371C23.5529 36.7591 23.8373 36.4421 24.194 36.2263C24.5507 36.0105 24.9636 35.9058 25.38 35.9254C25.9273 35.9588 26.4407 36.202 26.8132 36.6043C27.1858 37.0067 27.3888 37.5372 27.38 38.0854ZM25.28 38.6854C25.458 38.6883 25.6303 38.6223 25.7607 38.5011C25.8912 38.38 25.9697 38.2132 25.98 38.0354C25.9709 37.8561 25.8969 37.6862 25.7718 37.5575C25.6467 37.4287 25.479 37.3497 25.3 37.3354C25.1232 37.338 24.9542 37.4094 24.8291 37.5345C24.704 37.6596 24.6326 37.8285 24.63 38.0054C24.6229 38.094 24.6346 38.183 24.6644 38.2667C24.6941 38.3505 24.7412 38.4269 24.8026 38.4911C24.864 38.5554 24.9383 38.6059 25.0206 38.6393C25.1028 38.6728 25.1913 38.6885 25.28 38.6854Z" fill="#EF4C23"/>
<path d="M10.75 38.0054C10.7698 38.2913 10.7306 38.5783 10.6348 38.8484C10.539 39.1186 10.3886 39.3661 10.1931 39.5757C9.99755 39.7853 9.76098 39.9524 9.4981 40.0666C9.23522 40.1809 8.95165 40.2398 8.66502 40.2398C8.37838 40.2398 8.09481 40.1809 7.83193 40.0666C7.56905 39.9524 7.33248 39.7853 7.13693 39.5757C6.94138 39.3661 6.79103 39.1186 6.69522 38.8484C6.59941 38.5783 6.5602 38.2913 6.58001 38.0054C6.5602 37.7194 6.59941 37.4324 6.69522 37.1623C6.79103 36.8921 6.94138 36.6446 7.13693 36.435C7.33248 36.2255 7.56905 36.0583 7.83193 35.9441C8.09481 35.8298 8.37838 35.7709 8.66502 35.7709C8.95165 35.7709 9.23522 35.8298 9.4981 35.9441C9.76098 36.0583 9.99755 36.2255 10.1931 36.435C10.3886 36.6446 10.539 36.8921 10.6348 37.1623C10.7306 37.4324 10.7698 37.7194 10.75 38.0054ZM9.33001 38.0054C9.33002 37.9152 9.31211 37.826 9.27731 37.7428C9.24252 37.6597 9.19153 37.5842 9.12732 37.521C9.06312 37.4577 8.98697 37.4078 8.90331 37.3742C8.81965 37.3406 8.73015 37.324 8.64001 37.3254C8.45964 37.3357 8.29023 37.4153 8.16723 37.5476C8.04422 37.68 7.97714 37.8547 7.98001 38.0354C7.98001 38.2131 8.0506 38.3835 8.17625 38.5091C8.3019 38.6348 8.47232 38.7054 8.65001 38.7054C8.82771 38.7054 8.99813 38.6348 9.12377 38.5091C9.24942 38.3835 9.32001 38.2131 9.32001 38.0354L9.33001 38.0054Z" fill="#EF4C23"/>
</svg>
