<svg width="44" height="43" viewBox="0 0 44 43" fill="none" xmlns="http://www.w3.org/2000/svg">
<path d="M0.0599976 9.61308C0.299998 9.61308 0.22 9.36308 0.25 9.22308C0.716337 6.86617 1.91477 4.71662 3.67448 3.0808C5.4342 1.44499 7.66538 0.406401 10.05 0.113076C13.0671 -0.242834 16.1238 0.24527 18.88 1.52308C21.3674 2.62112 23.5752 4.26572 25.3394 6.33462C27.1036 8.40351 28.3787 10.8435 29.07 13.4731C30.1753 17.1366 30.4453 21.0014 29.86 24.7831C29.6266 26.2058 29.2341 27.5979 28.69 28.9331C28.57 29.2331 28.58 29.3531 28.92 29.4331C29.4269 29.5472 29.9275 29.6874 30.42 29.8531C30.67 29.9431 30.8 29.8531 30.91 29.6331C31.5325 28.5355 32.547 27.7139 33.75 27.3331C35.0133 26.8724 36.3021 26.4851 37.61 26.1731C38.718 25.889 39.745 25.3515 40.61 24.6031C40.7474 24.467 40.918 24.3692 41.1048 24.3194C41.2916 24.2695 41.4882 24.2694 41.6752 24.3189C41.8621 24.3684 42.0328 24.4659 42.1705 24.6017C42.3081 24.7375 42.4079 24.9069 42.46 25.0931C43.2545 27.8221 43.1952 30.7288 42.29 33.4231C41.9151 34.4084 41.3057 35.2876 40.5147 35.9845C39.7236 36.6815 38.7747 37.1752 37.75 37.4231C37.43 37.5031 37.31 37.6031 37.4 37.9731C37.52 38.5581 37.6101 39.1489 37.67 39.7431C37.765 40.2611 37.6598 40.7959 37.3759 41.2395C37.0919 41.6831 36.6502 42.0024 36.14 42.1331C35.3331 42.3685 34.5113 42.5489 33.68 42.6731C33.59 42.6731 33.48 42.6731 33.44 42.7731H28.44C28.28 42.4831 27.96 42.5631 27.72 42.4931C26.595 42.1947 25.5487 41.6545 24.6541 40.9101C23.7594 40.1657 23.0379 39.235 22.54 38.1831C22.28 37.6531 22.3 37.6531 21.84 38.0231C20.0353 39.5184 17.9211 40.5943 15.65 41.1731C14.1731 41.6025 12.6054 41.61 11.1244 41.1947C9.64344 40.7794 8.30828 39.9579 7.27 38.8231C4.66 36.0631 4.27 32.8231 5.63 29.3031C6.03356 28.5493 6.39738 27.7749 6.72 26.9831C7.07258 25.7991 7.04195 24.5339 6.63248 23.3683C6.223 22.2028 5.45564 21.1964 4.44 20.4931C2.18676 18.7816 0.664788 16.2808 0.179993 13.4931C0.179993 13.3631 0.18 13.1831 0 13.1431L0.0599976 9.61308ZM21.58 34.6131L21.46 34.6731L21.13 34.9631C19.3667 36.6817 17.1733 37.8941 14.78 38.4731C13.7022 38.7602 12.562 38.7078 11.515 38.323C10.4681 37.9383 9.56536 37.2399 8.92999 36.3231C8.23525 35.4416 7.82575 34.3692 7.75607 33.249C7.68639 32.1287 7.95985 31.0139 8.53999 30.0531C9.75611 27.9935 10.1524 25.5516 9.64999 23.2131C9.59053 22.9064 9.60373 22.5901 9.68854 22.2894C9.77334 21.9888 9.9274 21.7122 10.1384 21.4818C10.3493 21.2514 10.6113 21.0736 10.9033 20.9627C11.1953 20.8518 11.5093 20.8108 11.82 20.8431C12.76 20.9331 13.69 21.0431 14.62 21.1831C17.8683 21.627 21.0408 22.5118 24.05 23.8131C24.6099 24.023 25.1461 24.2911 25.65 24.6131C26.55 25.2531 26.71 26.1231 26.19 27.4431C25.81 28.4431 25.82 28.4431 26.81 28.7631C27.07 28.8531 27.16 28.7631 27.26 28.5531C28.0926 26.541 28.5665 24.3986 28.66 22.2231C28.8185 18.5811 28.1625 14.9495 26.74 11.5931C25.5307 8.54913 23.4418 5.93455 20.74 4.08308C18.2999 2.48307 15.4748 1.56786 12.56 1.43308C10.3951 1.25219 8.22981 1.77624 6.38722 2.92702C4.54464 4.07779 3.1236 5.79357 2.33621 7.81828C1.54883 9.84298 1.43732 12.068 2.01833 14.1613C2.59933 16.2546 3.8417 18.1038 5.56 19.4331C7.03425 20.4903 8.05786 22.0625 8.42824 23.8385C8.79861 25.6144 8.48876 27.4647 7.56 29.0231C6.99075 30.0373 6.64949 31.1635 6.56 32.3231C6.46928 33.3795 6.61732 34.4427 6.99316 35.4342C7.36901 36.4256 7.96303 37.3198 8.73125 38.0506C9.49947 38.7813 10.4222 39.3299 11.4312 39.6558C12.4401 39.9817 13.5095 40.0764 14.56 39.9331C17.2908 39.4412 19.8238 38.1781 21.86 36.2931C21.911 36.2567 21.9498 36.2056 21.9712 36.1467C21.9926 36.0878 21.9957 36.0238 21.98 35.9631C21.8 35.5531 21.72 35.1131 21.62 34.6331L21.58 34.6131ZM11.4 25.3431C11.3678 27.2288 10.8512 29.0745 9.89999 30.7031C9.48465 31.3902 9.27096 32.1803 9.28334 32.9831C9.29572 33.7859 9.53367 34.5691 9.97 35.2431C10.4926 36.0801 11.292 36.7075 12.2292 37.0163C13.1664 37.3251 14.1822 37.2956 15.1 36.9331C17.4867 36.1603 19.6145 34.7453 21.25 32.8431C21.3531 32.7428 21.4353 32.6232 21.4919 32.4911C21.5486 32.3589 21.5785 32.2169 21.58 32.0731C21.6422 30.6791 21.8296 29.2935 22.14 27.9331C22.1702 27.7165 22.2575 27.5118 22.3931 27.3402C22.5287 27.1686 22.7076 27.0362 22.9113 26.9568C23.1151 26.8773 23.3364 26.8536 23.5523 26.8881C23.7683 26.9226 23.9711 27.0141 24.14 27.1531C24.66 27.5431 24.66 27.5431 24.89 26.9331C24.9437 26.8136 24.9872 26.6899 25.02 26.5631C25.0565 26.4823 25.0752 26.3947 25.075 26.306C25.0747 26.2174 25.0554 26.1299 25.0185 26.0493C24.9815 25.9687 24.9277 25.8971 24.8607 25.8391C24.7937 25.7811 24.715 25.7381 24.63 25.7131C23.1747 25.0446 21.6823 24.4603 20.16 23.9631C17.4698 23.0996 14.6873 22.5559 11.87 22.3431C11.25 22.3431 11.04 22.5431 11.16 23.1531C11.3156 23.8728 11.3961 24.6067 11.4 25.3431ZM35.46 40.8831C35.4294 40.8281 35.396 40.7747 35.36 40.7231C33.2995 38.7181 30.8719 37.1291 28.21 36.0431C28.1117 36.0227 28.0186 35.9822 27.9367 35.9243C27.8547 35.8663 27.7856 35.792 27.7336 35.7061C27.6816 35.6202 27.648 35.5245 27.6347 35.425C27.6214 35.3255 27.6287 35.2243 27.6563 35.1277C27.6839 35.0312 27.7311 34.9414 27.795 34.8639C27.8588 34.7864 27.938 34.723 28.0275 34.6775C28.117 34.632 28.2149 34.6055 28.3152 34.5996C28.4154 34.5936 28.5158 34.6085 28.61 34.6431C28.9535 34.724 29.2884 34.8378 29.61 34.9831C31.5988 35.902 33.4499 37.0934 35.11 38.5231L36.2 39.4331C36.0529 37.8049 35.6653 36.2076 35.05 34.6931C34.8062 34.0735 34.433 33.513 33.9554 33.0491C33.4777 32.5852 32.9065 32.2286 32.28 32.0031C31.28 31.6331 30.28 31.3331 29.28 31.0031C27.7248 30.6831 26.2208 30.1515 24.81 29.4231C24.37 29.1631 23.95 28.8731 23.5 28.5831C22.9449 30.8557 22.8666 33.2187 23.27 35.5231C23.4527 36.8012 23.9997 37.9996 24.8457 38.975C25.6916 39.9504 26.8006 40.6614 28.04 41.0231C30.481 41.6485 33.0463 41.5966 35.46 40.8731V40.8831ZM41.25 26.0531C39.983 26.9493 38.5419 27.5693 37.02 27.8731C35.9349 28.1205 34.8714 28.455 33.84 28.8731C33.2578 29.1264 32.7563 29.5345 32.39 30.0531C32.25 30.2631 32.19 30.3731 32.51 30.4831C33.1982 30.7071 33.8438 31.0451 34.42 31.4831C34.5141 31.5695 34.6372 31.6175 34.765 31.6175C34.8928 31.6175 35.0159 31.5695 35.11 31.4831C35.8523 31.0514 36.6281 30.6802 37.43 30.3731C38.07 30.1131 38.5 30.2231 38.67 30.6731C38.84 31.1231 38.61 31.4831 37.97 31.7431C37.33 32.0031 36.68 32.3331 36.03 32.6331C35.79 32.7331 35.72 32.8631 35.87 33.1031C36.3668 33.9016 36.7378 34.7718 36.97 35.6831C37.06 36.0231 37.17 36.0531 37.47 35.9631C38.3669 35.7164 39.1838 35.2397 39.8398 34.5802C40.4957 33.9207 40.9681 33.1013 41.21 32.2031C41.7075 30.1814 41.7212 28.071 41.25 26.0431V26.0531Z" fill="#EF4C23"/>
<path d="M27.2799 20.113C27.3726 20.6648 27.2776 21.2317 27.0099 21.723C26.745 22.1269 26.3429 22.4213 25.8779 22.5518C25.4129 22.6824 24.9163 22.6401 24.4799 22.433C22.4029 21.6078 20.2669 20.9392 18.0899 20.433C14.9458 19.6975 11.7289 19.3184 8.49994 19.303C7.98054 19.2743 7.47265 19.1387 7.00806 18.9047C6.54347 18.6707 6.13219 18.3433 5.79994 17.943C4.06449 16.2848 3.04844 14.0121 2.96994 11.613C2.92035 10.5068 3.10094 9.40238 3.50029 8.36958C3.89964 7.33678 4.50904 6.39812 5.28993 5.61304C6.31618 4.50644 7.6081 3.68033 9.04317 3.21306C10.4782 2.74579 12.0089 2.65284 13.4899 2.94304C16.2111 3.32334 18.7822 4.42013 20.94 6.12107C23.0978 7.822 24.7647 10.0659 25.7699 12.623C26.721 15.0082 27.2326 17.5457 27.2799 20.113ZM25.8199 19.823C25.7387 17.6651 25.3098 15.5344 24.5499 13.513C23.7613 11.267 22.403 9.26422 20.608 7.70064C18.813 6.13706 16.6429 5.06627 14.3099 4.59304C12.4536 4.04615 10.4641 4.17005 8.68994 4.94304C7.4285 5.4706 6.35161 6.36004 5.59522 7.49909C4.83882 8.63813 4.43682 9.97573 4.43994 11.343C4.42342 12.4197 4.64112 13.4871 5.07797 14.4713C5.51482 15.4555 6.16038 16.333 6.96994 17.043C7.18355 17.2871 7.44422 17.4855 7.73633 17.6264C8.02844 17.7673 8.34598 17.8478 8.66994 17.863C13.5099 17.8842 18.3124 18.7123 22.8799 20.313C23.5999 20.563 24.2999 20.853 25.0199 21.113C25.5599 21.313 25.8199 21.113 25.8199 20.543C25.8299 20.283 25.8199 20.053 25.8199 19.823Z" fill="#EF4C23"/>
<path d="M15.13 11.1031C15.073 12.115 14.6293 13.0662 13.8905 13.7601C13.1518 14.4539 12.1747 14.8373 11.1612 14.8309C10.1477 14.8245 9.17554 14.4287 8.44568 13.7256C7.71582 13.0224 7.28415 12.0656 7.23999 11.0531C7.25284 10.0129 7.6704 9.01866 8.4041 8.28123C9.13779 7.5438 10.1299 7.12121 11.17 7.10308C11.6942 7.10036 12.2136 7.20226 12.6979 7.40282C13.1822 7.60337 13.6216 7.89855 13.9904 8.27106C14.3592 8.64357 14.6499 9.08593 14.8456 9.57222C15.0413 10.0585 15.138 10.579 15.13 11.1031ZM13.67 11.1031C13.6753 10.7784 13.6162 10.4558 13.4962 10.154C13.3762 9.85222 13.1977 9.57719 12.9708 9.34477C12.744 9.11235 12.4733 8.92715 12.1746 8.79985C11.8758 8.67255 11.5548 8.60568 11.23 8.60308C10.567 8.60308 9.93108 8.86647 9.46223 9.33531C8.99339 9.80415 8.73 10.44 8.73 11.1031C8.73 11.7661 8.99339 12.402 9.46223 12.8708C9.93108 13.3397 10.567 13.6031 11.23 13.6031C11.5577 13.6047 11.8823 13.5399 12.1843 13.4128C12.4863 13.2857 12.7595 13.0988 12.9874 12.8634C13.2154 12.628 13.3933 12.349 13.5106 12.043C13.6279 11.737 13.6821 11.4105 13.67 11.0831V11.1031Z" fill="#EF4C23"/>
</svg>
