<svg width="43" height="43" viewBox="0 0 43 43" fill="none" xmlns="http://www.w3.org/2000/svg">
<path d="M23.3964 42.0361H20.2864C19.8623 41.5995 19.4005 41.2013 18.9064 40.8461C18.7464 40.6961 18.6864 40.8461 18.6064 40.9361C18.3741 41.1947 18.0824 41.3929 17.7563 41.5135C17.4303 41.6341 17.0798 41.6734 16.7352 41.6281C16.3905 41.5828 16.0621 41.4542 15.7783 41.2535C15.4945 41.0528 15.2639 40.7859 15.1064 40.4761C15.0768 40.396 15.0183 40.33 14.9423 40.291C14.8664 40.2521 14.7786 40.2432 14.6964 40.2661C14.1677 40.3749 13.6178 40.3054 13.1329 40.0683C12.6479 39.8313 12.2553 39.4401 12.0164 38.9561C12.0007 38.9114 11.9763 38.8702 11.9447 38.835C11.913 38.7997 11.8748 38.771 11.832 38.7506C11.7893 38.7301 11.7429 38.7183 11.6956 38.7159C11.6483 38.7134 11.601 38.7202 11.5564 38.7361C11.033 38.8681 10.4804 38.8207 9.98719 38.6013C9.494 38.3819 9.08873 38.0032 8.83636 37.5261C8.71636 37.3361 8.64636 37.2761 8.39636 37.3261C8.0232 37.4184 7.63264 37.414 7.26164 37.3134C6.89063 37.2127 6.55143 37.0191 6.27612 36.7508C6.00081 36.4825 5.79849 36.1484 5.68829 35.7801C5.5781 35.4118 5.56366 35.0215 5.64636 34.6461C5.64636 34.5361 5.70636 34.3561 5.64636 34.3261C5.31005 34.101 4.9429 33.9259 4.55636 33.8061C4.33636 33.8061 4.27636 34.1161 4.19636 34.3061C4.03228 34.8745 3.67194 35.3663 3.1794 35.694C2.68686 36.0218 2.09404 36.1642 1.50636 36.0961C1.30356 36.105 1.10115 36.071 0.912415 35.9962C0.723682 35.9215 0.552892 35.8076 0.411248 35.6622C0.269603 35.5168 0.160301 35.3431 0.0905231 35.1524C0.0207454 34.9618 -0.00793216 34.7586 0.00636327 34.5561V15.4161C-0.0179246 15.1595 0.0275965 14.9011 0.138108 14.6682C0.248619 14.4353 0.420009 14.2367 0.634156 14.0932C0.848302 13.9498 1.09724 13.8669 1.35463 13.8533C1.61202 13.8397 1.8683 13.896 2.09636 14.0161L8.85636 16.7261C9.19636 16.8661 9.31636 16.8361 9.29636 16.4461C9.29636 15.7461 9.29636 15.0461 9.29636 14.3461V12.7161C8.94094 12.9294 8.5522 13.0815 8.14636 13.1661C7.66608 13.2195 7.18158 13.1133 6.76768 12.8638C6.35378 12.6144 6.03352 12.2357 5.85636 11.7861C5.67517 11.3203 5.66191 10.8059 5.81886 10.3314C5.97581 9.85693 6.29316 9.45193 6.71636 9.18606C10.5364 6.58606 14.3864 4.02606 18.1464 1.34606C18.7203 0.855961 19.3872 0.486495 20.107 0.259707C20.8269 0.03292 21.5851 -0.0465414 22.3364 0.0260648C22.7165 0.052293 23.0842 0.172561 23.4064 0.376063C26.1964 2.30606 28.9964 4.20606 31.7864 6.12606C33.2864 7.12606 34.7864 8.12607 36.2864 9.20607C36.7563 9.50986 37.0886 9.98564 37.2119 10.5315C37.3353 11.0773 37.24 11.6497 36.9464 12.1261C36.655 12.6114 36.1847 12.963 35.6368 13.1051C35.0888 13.2473 34.5069 13.1686 34.0164 12.8861C33.9264 12.8861 33.8464 12.7261 33.6764 12.8061C33.6764 13.9361 33.6764 15.0861 33.6764 16.2361C33.6764 16.6961 33.8064 16.6761 34.1664 16.5361C36.3264 15.7061 38.4964 14.8961 40.6664 14.0861C41.8264 13.6561 42.3464 13.8261 42.9764 14.8461V33.6461C42.7164 34.0561 42.4764 34.5161 41.9764 34.5761C40.6664 34.7461 39.7464 34.6461 39.0364 33.3461C38.6864 32.7161 38.3364 32.0661 38.0364 31.4161C37.9064 31.1561 37.7864 31.0861 37.4864 31.2161C36.2364 31.7661 34.9864 32.2861 33.7164 32.7861C33.4164 32.9061 33.3564 33.0261 33.4364 33.3461C33.552 33.796 33.5508 34.268 33.433 34.7174C33.3153 35.1668 33.0848 35.5787 32.7634 35.9141C32.442 36.2496 32.0403 36.4974 31.5963 36.6343C31.1524 36.7711 30.6808 36.7924 30.2264 36.6961C29.9964 36.6961 29.9064 36.6961 29.8264 36.9261C29.6861 37.474 29.3669 37.9594 28.9195 38.3054C28.4721 38.6514 27.922 38.8381 27.3564 38.8361C27.307 38.8291 27.2566 38.8322 27.2085 38.8451C27.1603 38.8581 27.1152 38.8807 27.076 38.9115C27.0367 38.9423 27.0041 38.9808 26.9802 39.0245C26.9562 39.0683 26.9413 39.1164 26.9364 39.1661C26.8052 39.7007 26.4766 40.1659 26.0165 40.4682C25.5565 40.7706 24.9992 40.8877 24.4564 40.7961C24.3064 40.7961 24.2064 40.7961 24.1564 40.9361C23.9928 41.3573 23.7325 41.7341 23.3964 42.0361ZM32.2364 14.5761C32.2364 13.7261 32.2364 12.8861 32.2364 12.0461C32.2504 11.9366 32.2324 11.8254 32.1844 11.726C32.1365 11.6266 32.0607 11.5433 31.9664 11.4861L21.7864 4.53607C21.7 4.45807 21.5877 4.41488 21.4714 4.41488C21.355 4.41488 21.2427 4.45807 21.1564 4.53607C17.7897 6.85607 14.4164 9.16273 11.0364 11.4561C10.935 11.5172 10.8537 11.6064 10.8022 11.713C10.7507 11.8195 10.7313 11.9387 10.7464 12.0561C10.7464 13.5461 10.7464 15.0561 10.7464 16.5361C10.6897 17.1231 10.8342 17.712 11.1564 18.2061C11.3842 18.5753 11.4956 19.0046 11.4759 19.438C11.4563 19.8714 11.3066 20.2889 11.0464 20.6361C10.9564 20.7961 10.8464 20.9361 11.1164 21.0461C12.1752 21.5911 13.3815 21.7805 14.5564 21.5861C15.3313 21.4075 16.116 21.2739 16.9064 21.1861C16.9964 21.1861 17.1464 21.1861 17.1664 21.1061C17.4064 20.5861 17.9064 20.2061 17.8864 19.5461C17.8864 18.1861 17.8864 16.8261 17.8864 15.4561C17.8645 15.2406 17.8908 15.0229 17.9635 14.8188C18.0362 14.6147 18.1533 14.4294 18.3065 14.2762C18.4597 14.123 18.645 14.0059 18.8491 13.9332C19.0532 13.8605 19.2708 13.8342 19.4864 13.8561C20.7964 13.8561 22.1164 13.8561 23.4264 13.8561C23.65 13.8265 23.8775 13.8488 24.0912 13.9213C24.3048 13.9937 24.499 14.1144 24.6585 14.2739C24.818 14.4335 24.9387 14.6276 25.0112 14.8413C25.0836 15.0549 25.1059 15.2824 25.0764 15.5061C25.0764 16.5961 25.0764 17.6861 25.0764 18.7661C25.0642 18.8934 25.0877 19.0217 25.1442 19.1364C25.2007 19.2512 25.288 19.348 25.3964 19.4161C26.3964 20.1661 27.4664 20.9361 28.4964 21.6861C28.774 21.9076 29.1055 22.0513 29.457 22.1023C29.8085 22.1532 30.1673 22.1097 30.4964 21.9761L32.1864 21.4161C32.4164 21.3361 32.4364 21.2361 32.3164 21.0361C32.1964 20.8361 31.9364 20.3561 31.7664 20.0361C31.5493 19.6688 31.46 19.24 31.5125 18.8166C31.5649 18.3933 31.7562 17.9992 32.0564 17.6961C32.1828 17.5534 32.2476 17.3664 32.2364 17.1761C32.2264 16.2661 32.2364 15.4161 32.2364 14.5761ZM15.0264 33.2861C15.5721 33.2566 16.1121 33.4096 16.5611 33.7211C17.0102 34.0325 17.3428 34.4846 17.5064 35.0061C17.5964 35.2861 17.7264 35.3161 17.9764 35.3261C18.3278 35.335 18.6716 35.4299 18.9778 35.6026C19.284 35.7752 19.5432 36.0203 19.7327 36.3164C19.9222 36.6125 20.0362 36.9505 20.0647 37.3009C20.0933 37.6512 20.0354 38.0032 19.8964 38.3261C19.8009 38.5855 19.6907 38.8392 19.5664 39.0861C19.4564 39.2861 19.4964 39.3961 19.6764 39.5261C20.2064 39.9261 20.6764 40.3461 21.2564 40.7461C21.3463 40.823 21.4505 40.8814 21.563 40.918C21.6755 40.9546 21.7941 40.9687 21.9121 40.9594C22.0301 40.9501 22.145 40.9177 22.2504 40.8639C22.3558 40.8101 22.4496 40.7361 22.5264 40.6461C22.6672 40.463 22.7314 40.2323 22.7052 40.0027C22.6791 39.7732 22.5648 39.5628 22.3864 39.4161C22.1464 39.1561 21.8764 38.9161 21.6364 38.6561C21.5246 38.5328 21.4627 38.3724 21.4627 38.2061C21.4627 38.0397 21.5246 37.8793 21.6364 37.7561C21.7266 37.619 21.8634 37.5193 22.0215 37.4751C22.1795 37.431 22.3482 37.4456 22.4964 37.5161C22.6551 37.5955 22.7976 37.7041 22.9164 37.8361C23.3364 38.2361 23.7364 38.6661 24.1664 39.0661C24.2384 39.1439 24.3258 39.206 24.4231 39.2485C24.5203 39.291 24.6253 39.3129 24.7314 39.3129C24.8375 39.3129 24.9424 39.291 25.0396 39.2485C25.1369 39.206 25.2243 39.1439 25.2964 39.0661C25.3689 38.9961 25.4267 38.9122 25.4661 38.8194C25.5056 38.7267 25.5259 38.6269 25.5259 38.5261C25.5259 38.4253 25.5056 38.3255 25.4661 38.2327C25.4267 38.1399 25.3689 38.056 25.2964 37.9861L24.8164 37.4961C24.0464 36.7261 23.2664 35.9661 22.5164 35.1861C22.4154 35.1088 22.3367 35.0061 22.2883 34.8885C22.2399 34.7709 22.2235 34.6426 22.2408 34.5166C22.2581 34.3907 22.3084 34.2715 22.3867 34.1713C22.4649 34.0711 22.5683 33.9934 22.6864 33.9461C22.8443 33.8809 23.0194 33.8701 23.1842 33.9153C23.3489 33.9606 23.4939 34.0593 23.5964 34.1961C24.5364 35.1961 25.4764 36.0761 26.4264 37.0161C26.5783 37.1763 26.7746 37.2876 26.9902 37.3357C27.2057 37.3838 27.4307 37.3665 27.6364 37.2861C27.8388 37.22 28.0189 37.099 28.1567 36.9365C28.2944 36.7741 28.3843 36.5766 28.4164 36.3661C28.4461 36.1174 28.4023 35.8656 28.2903 35.6416C28.1783 35.4176 28.0031 35.2314 27.7864 35.1061L24.6964 32.4161C24.5192 32.294 24.3971 32.1073 24.3564 31.8961C24.3296 31.7518 24.3502 31.6028 24.4151 31.4713C24.48 31.3397 24.5856 31.2326 24.7164 31.1661C24.8748 31.0694 25.0626 31.0324 25.2459 31.0617C25.4292 31.091 25.596 31.1848 25.7164 31.3261C27.0497 32.5261 28.413 33.7227 29.8064 34.9161C29.9391 35.0501 30.0984 35.1548 30.2741 35.2235C30.4498 35.2922 30.6379 35.3233 30.8263 35.3148C31.0148 35.3063 31.1993 35.2585 31.3681 35.1743C31.5369 35.0901 31.6862 34.9715 31.8064 34.8261C32.0028 34.544 32.0842 34.1976 32.034 33.8576C31.9839 33.5175 31.8059 33.2094 31.5364 32.9961L22.7364 25.1861C22.4964 24.9761 22.3964 24.9661 22.1864 25.1861C21.3564 26.1861 20.5064 27.0761 19.6564 28.0161C19.2435 28.4938 18.6716 28.8056 18.0464 28.8939C17.4212 28.9822 16.7853 28.8408 16.2564 28.4961C15.7453 28.1563 15.3733 27.6443 15.2081 27.0533C15.0429 26.4623 15.0955 25.8316 15.3564 25.2761C15.6364 24.6361 15.9264 24.0061 16.2064 23.3661C16.2664 23.2161 16.4664 23.0361 16.3164 22.8961C16.1664 22.7561 15.9764 22.8261 15.8064 22.8961L15.6164 22.9461C14.8935 23.1239 14.1507 23.208 13.4064 23.1961C12.4325 23.0958 11.4825 22.8321 10.5964 22.4161C10.3164 22.2961 10.2064 22.3561 10.0864 22.6061C9.60636 23.6061 9.08636 24.5461 8.62636 25.5161L5.31636 32.1161C5.26636 32.2161 5.13636 32.3561 5.23636 32.4161C5.52741 32.6199 5.84773 32.7784 6.18636 32.8861C6.46636 32.9661 6.44636 32.6161 6.52636 32.4561C6.67009 32.1226 6.89105 31.8282 7.171 31.5969C7.45095 31.3657 7.78186 31.2044 8.13644 31.1262C8.49102 31.0481 8.8591 31.0554 9.21031 31.1475C9.56152 31.2396 9.88579 31.4139 10.1564 31.6561C10.3564 31.8261 10.4464 31.8361 10.6564 31.6561C10.977 31.4041 11.3548 31.2351 11.7564 31.1641C12.1579 31.093 12.5708 31.122 12.9584 31.2486C13.346 31.3752 13.6965 31.5954 13.9787 31.8897C14.2609 32.1841 14.4662 32.5435 14.5764 32.9361C14.6664 33.2161 14.7864 33.4161 15.0264 33.2861ZM22.0264 19.2861C21.5802 19.2651 21.135 19.344 20.7233 19.517C20.3115 19.69 19.9436 19.9527 19.6464 20.2861C19.0487 20.9111 18.5588 21.6309 18.1964 22.4161L16.6864 25.7761C16.5351 26.0222 16.4819 26.3162 16.5375 26.5997C16.5931 26.8832 16.7533 27.1353 16.9864 27.3061C17.2388 27.4595 17.5399 27.5118 17.8292 27.4524C18.1186 27.3931 18.3747 27.2265 18.5464 26.9861C19.3764 26.0761 20.1864 25.1561 21.0264 24.2461C21.2264 24.0361 21.2164 23.9061 21.0264 23.7061C20.9496 23.6472 20.8875 23.5715 20.8447 23.4848C20.8019 23.3981 20.7796 23.3028 20.7796 23.2061C20.7796 23.1094 20.8019 23.014 20.8447 22.9273C20.8875 22.8406 20.9496 22.7649 21.0264 22.7061C21.0792 22.6334 21.1466 22.5725 21.2242 22.5271C21.3018 22.4818 21.388 22.4531 21.4772 22.4427C21.5665 22.4324 21.657 22.4407 21.7429 22.4671C21.8288 22.4935 21.9083 22.5374 21.9764 22.5961C22.1719 22.7418 22.3589 22.8987 22.5364 23.0661L32.0764 31.4361C32.1591 31.5333 32.2721 31.5999 32.3972 31.6253C32.5223 31.6507 32.6523 31.6334 32.7664 31.5761C34.0864 31.0061 35.4264 30.4661 36.7664 29.9361C37.0664 29.8261 37.1064 29.7261 36.9564 29.4361C35.7564 27.2561 34.5664 25.0561 33.3864 22.8661C33.2764 22.6561 33.1864 22.5761 32.9364 22.6861C32.4364 22.8961 31.9364 23.0461 31.3964 23.2661C30.7461 23.5631 30.0248 23.6691 29.3165 23.5717C28.6083 23.4743 27.9423 23.1776 27.3964 22.7161C26.0464 21.7161 24.6764 20.7161 23.3164 19.7161C22.9367 19.4487 22.4899 19.2929 22.0264 19.2661V19.2861ZM1.47636 15.3561V34.1061C1.47636 34.6661 1.71636 34.8161 2.23636 34.5861C2.44108 34.483 2.60111 34.3088 2.68636 34.0961C3.52636 32.4061 4.38636 30.7161 5.23636 29.0261C6.76303 25.9661 8.29636 22.9127 9.83636 19.8661C10.1864 19.1561 10.0664 18.8661 9.31636 18.5561L6.39636 17.3661L1.47636 15.3561ZM41.5264 24.2761C41.5264 21.4361 41.5264 18.5961 41.5264 15.7561C41.5264 15.3961 41.4764 15.3161 41.1064 15.4661C38.6464 16.4661 36.1764 17.3661 33.7164 18.3161C32.9364 18.6061 32.8264 18.8461 33.2164 19.5761C35.4764 23.7561 37.733 27.9327 39.9864 32.1061C40.1164 32.3561 40.2364 32.6061 40.3764 32.8361C40.4827 32.9946 40.6382 33.1137 40.8189 33.1752C40.9996 33.2366 41.1955 33.2369 41.3764 33.1761C41.6764 33.1061 41.5064 32.7661 41.5064 32.5561C41.5197 29.7961 41.5264 27.0294 41.5264 24.2561V24.2761ZM35.7864 10.9961C35.7811 10.8587 35.7383 10.7255 35.6624 10.6108C35.5866 10.4962 35.4807 10.4046 35.3564 10.3461L33.3564 8.97607L22.0764 1.25606C21.9228 1.1257 21.7278 1.05414 21.5264 1.05414C21.3249 1.05414 21.13 1.1257 20.9764 1.25606L7.59636 10.4161C7.51274 10.4638 7.43937 10.5275 7.38049 10.6037C7.32161 10.6799 7.27837 10.7669 7.25328 10.8599C7.22818 10.9528 7.22172 11.0498 7.23426 11.1453C7.24681 11.2407 7.27811 11.3328 7.32636 11.4161C7.38223 11.4922 7.45313 11.556 7.53466 11.6036C7.61619 11.6512 7.70662 11.6816 7.80035 11.6928C7.89409 11.7041 7.98914 11.696 8.07961 11.669C8.17009 11.642 8.25407 11.5968 8.32636 11.5361C9.20636 10.9561 10.0764 10.3661 10.9464 9.76606L20.7864 3.06607C21.4664 2.59607 21.5764 2.60607 22.2564 3.06607L32.9564 10.4161L34.6864 11.5961C34.7986 11.6766 34.9332 11.72 35.0714 11.72C35.2095 11.72 35.3442 11.6766 35.4564 11.5961C35.5634 11.5385 35.6514 11.4513 35.71 11.3448C35.7685 11.2384 35.7951 11.1172 35.7864 10.9961ZM23.6164 18.1561C23.6164 17.2461 23.6164 16.3961 23.6164 15.5361C23.6164 15.3561 23.5164 15.3361 23.3664 15.3361H19.6164C19.4764 15.3361 19.3664 15.3361 19.3664 15.5261C19.3664 16.5261 19.3664 17.4361 19.3664 18.4661C19.9902 18.0578 20.7077 17.815 21.4512 17.7608C22.1948 17.7066 22.9399 17.8426 23.6164 18.1561ZM9.93636 36.1561C9.91399 36.3964 9.97274 36.6372 10.1032 36.8402C10.2337 37.0432 10.4285 37.1967 10.6564 37.2761C10.8823 37.3572 11.1298 37.3543 11.3538 37.2681C11.5778 37.1818 11.7633 37.0178 11.8764 36.8061C12.3364 35.8961 12.7764 34.9661 13.1864 34.0361C13.2811 33.7834 13.276 33.5041 13.1719 33.2551C13.0678 33.0061 12.8727 32.8062 12.6264 32.6961C12.5056 32.6339 12.3734 32.597 12.2379 32.5876C12.1024 32.5783 11.9664 32.5966 11.8382 32.6415C11.71 32.6864 11.5923 32.757 11.4922 32.8489C11.3922 32.9408 11.3119 33.0521 11.2564 33.1761C10.8264 34.0461 10.4264 34.9361 10.0264 35.8161C9.98046 35.9281 9.95018 36.0458 9.93636 36.1661V36.1561ZM14.2964 38.8061C14.4825 38.8009 14.6635 38.7439 14.819 38.6414C14.9744 38.5389 15.0982 38.3951 15.1764 38.2261C15.5064 37.5461 15.8264 36.8461 16.1164 36.1461C16.1672 36.0246 16.1935 35.8943 16.1939 35.7627C16.1942 35.6311 16.1686 35.5006 16.1184 35.3789C16.0682 35.2572 15.9945 35.1466 15.9015 35.0534C15.8085 34.9603 15.698 34.8864 15.5764 34.8361C15.3469 34.7243 15.0834 34.7046 14.8399 34.7808C14.5964 34.857 14.3912 35.0235 14.2664 35.2461C13.889 35.9414 13.5551 36.6595 13.2664 37.3961C13.2147 37.5587 13.2019 37.7312 13.2291 37.8997C13.2563 38.0682 13.3227 38.2279 13.4229 38.3661C13.5231 38.5042 13.6543 38.6169 13.806 38.6951C13.9578 38.7732 14.1257 38.8147 14.2964 38.8161V38.8061ZM9.49636 33.4161C9.51505 33.2262 9.46612 33.0358 9.35818 32.8785C9.25025 32.7211 9.09024 32.607 8.90636 32.5561C8.71899 32.482 8.51025 32.4834 8.32384 32.5598C8.13744 32.6362 7.98783 32.7818 7.90636 32.9661C7.61303 33.5394 7.34303 34.1094 7.09636 34.6761C6.99994 34.8764 6.98685 35.1067 7.05995 35.3166C7.13305 35.5266 7.28639 35.699 7.48636 35.7961C7.58304 35.8498 7.68992 35.8826 7.80008 35.8924C7.91024 35.9021 8.02122 35.8887 8.12585 35.8529C8.23049 35.8171 8.32643 35.7597 8.40748 35.6844C8.48853 35.6092 8.55288 35.5178 8.59636 35.4161C8.88636 34.8661 9.13636 34.3161 9.40636 33.7561C9.44629 33.6456 9.4764 33.5318 9.49636 33.4161ZM17.8964 36.7761C17.7737 36.7666 17.651 36.7928 17.5428 36.8513C17.4346 36.9098 17.3456 36.9983 17.2864 37.1061C16.9564 37.7661 16.6464 38.4461 16.3564 39.1061C16.3248 39.198 16.3117 39.2952 16.3178 39.3922C16.3239 39.4892 16.349 39.584 16.3917 39.6713C16.4344 39.7586 16.4939 39.8366 16.5668 39.9009C16.6396 39.9652 16.7244 40.0145 16.8164 40.0461C16.8938 40.0832 16.9783 40.1036 17.0641 40.1058C17.15 40.1081 17.2354 40.0921 17.3147 40.0591C17.394 40.0261 17.4654 39.9766 17.5243 39.9141C17.5832 39.8515 17.6282 39.7772 17.6564 39.6961C17.9864 39.0461 18.2864 38.3961 18.5664 37.6961C18.5956 37.5923 18.6005 37.4831 18.5807 37.3772C18.5608 37.2712 18.5167 37.1712 18.4519 37.0851C18.387 36.9989 18.3032 36.9289 18.2068 36.8805C18.1104 36.8321 18.0042 36.8066 17.8964 36.8061V36.7761Z" fill="#EF4C23"/>
<path d="M18.6263 9.57605C18.6316 8.81305 18.9384 8.0831 19.4798 7.54543C20.0212 7.00777 20.7533 6.70604 21.5163 6.70605C21.8945 6.70867 22.2685 6.78576 22.6169 6.93291C22.9653 7.08007 23.2813 7.29442 23.5469 7.56371C23.8125 7.833 24.0224 8.15196 24.1647 8.50239C24.307 8.85282 24.3789 9.22784 24.3763 9.60605C24.371 10.3691 24.0642 11.099 23.5228 11.6367C22.9814 12.1743 22.2493 12.4761 21.4863 12.4761C21.1081 12.4734 20.7341 12.3963 20.3857 12.2492C20.0373 12.102 19.7212 11.8877 19.4557 11.6184C19.1901 11.3491 18.9801 11.0301 18.8378 10.6797C18.6955 10.3293 18.6237 9.95426 18.6263 9.57605ZM21.5263 10.9961C21.9012 10.9882 22.2577 10.8323 22.5181 10.5626C22.7785 10.2928 22.9217 9.93097 22.9163 9.55605C22.9011 9.18977 22.7468 8.84307 22.4848 8.58664C22.2228 8.33022 21.8728 8.18337 21.5063 8.17605C21.1305 8.17867 20.7708 8.32912 20.5051 8.59486C20.2394 8.86059 20.0889 9.22026 20.0863 9.59605C20.0889 9.78254 20.1282 9.96668 20.202 10.138C20.2758 10.3093 20.3826 10.4643 20.5163 10.5943C20.65 10.7243 20.808 10.8267 20.9813 10.8957C21.1546 10.9646 21.3398 10.9987 21.5263 10.9961Z" fill="#EF4C23"/>
</svg>
