<svg width="40" height="40" viewBox="0 0 40 40" fill="none" xmlns="http://www.w3.org/2000/svg">
<path d="M31.5608 15.2757C31.5608 19.2757 31.5608 23.2757 31.5608 27.2757C31.5608 27.6157 31.6208 27.7257 31.9908 27.7557C33.6308 27.8557 35.2608 28.0057 36.8908 28.1457C37.1857 28.1256 37.4815 28.1711 37.7568 28.2789C38.032 28.3868 38.28 28.5544 38.4827 28.7695C38.6854 28.9847 38.838 29.2422 38.9293 29.5234C39.0206 29.8045 39.0484 30.1025 39.0108 30.3957C39.0108 31.4457 39.0108 32.5057 39.0108 33.5557C39.0298 34.0813 38.8411 34.5932 38.4855 34.9806C38.1299 35.368 37.636 35.5998 37.1108 35.6257C36.1108 35.6857 35.1108 35.6257 34.0508 35.6257C33.7208 35.6257 33.5708 35.6957 33.4708 36.0257C33.2488 36.8855 32.747 37.647 32.0445 38.1902C31.342 38.7333 30.4788 39.0273 29.5908 39.0257C28.7045 39.0251 27.8435 38.7301 27.1431 38.1871C26.4426 37.6441 25.9424 36.8839 25.7208 36.0257C25.6308 35.7357 25.5308 35.6457 25.2308 35.6457H13.1108C12.8408 35.6457 12.7308 35.7157 12.6508 35.9957C12.4296 36.8522 11.9308 37.6112 11.2324 38.154C10.534 38.6969 9.67534 38.9929 8.79078 38.9957C7.90859 39.0058 7.04782 38.7239 6.34246 38.194C5.6371 37.6641 5.12673 36.9158 4.89078 36.0657C4.88129 35.9964 4.85761 35.9297 4.82123 35.8699C4.78486 35.81 4.73655 35.7584 4.67933 35.718C4.6221 35.6777 4.55719 35.6496 4.48862 35.6354C4.42006 35.6212 4.34931 35.6213 4.28078 35.6357C3.61092 35.6963 2.93568 35.649 2.28078 35.4957C1.63062 35.304 1.05874 34.9095 0.648581 34.3698C0.238426 33.8301 0.0114641 33.1735 0.000784776 32.4957C0.000784776 31.4957 0.000784776 30.4957 0.000784776 29.4957C-0.00960603 29.113 0.0833516 28.7345 0.269889 28.4002C0.456426 28.0658 0.729643 27.7879 1.06078 27.5957C1.74601 27.1586 2.51639 26.8723 3.32078 26.7557C3.86078 26.6657 4.40077 26.5557 4.94077 26.4457C5.65886 26.2242 6.30002 25.8048 6.79078 25.2357C7.00454 25.0492 7.17253 24.816 7.28178 24.5542C7.39102 24.2923 7.43859 24.0089 7.42078 23.7257C7.42078 17.0057 7.42078 10.2857 7.42078 3.56572C7.39208 3.09416 7.46314 2.62184 7.62934 2.1796C7.79554 1.73736 8.05313 1.33514 8.38531 0.999192C8.71748 0.663245 9.11677 0.401124 9.55711 0.229939C9.99744 0.058754 10.4689 -0.017647 10.9408 0.0057226H28.0108C28.4829 -0.0219069 28.9555 0.050733 29.3975 0.218861C29.8395 0.386989 30.2409 0.646797 30.5753 0.981194C30.9097 1.31559 31.1695 1.717 31.3376 2.15901C31.5058 2.60102 31.5784 3.07362 31.5508 3.54572L31.5608 15.2757ZM30.1908 27.5057C30.1908 27.3857 30.1908 27.3057 30.1908 27.2257C30.1908 20.0857 30.1908 12.9457 30.1908 5.80572C30.1908 5.44572 30.0808 5.39572 29.7608 5.39572C22.9074 5.39572 16.0608 5.39572 9.22079 5.39572C8.84079 5.39572 8.74078 5.47572 8.74078 5.86572C8.74078 11.5191 8.74078 17.1657 8.74078 22.8057C8.74078 22.9357 8.68078 23.0957 8.82078 23.2357C10.0373 22.3742 11.5309 21.9963 13.0108 22.1757C14.1308 22.1757 14.1308 22.1757 14.1408 21.0557C14.1408 20.3957 14.3508 20.1757 15.0108 20.1657H17.4408C18.8108 20.1657 18.8408 20.1657 18.8408 21.5557C18.8408 22.1757 18.8408 22.2057 19.4908 22.1757C21.3848 22.0817 23.2491 22.6747 24.7408 23.8457C25.9808 24.7957 27.2508 25.6957 28.5108 26.6057C29.0018 27.0197 29.5741 27.3263 30.1908 27.5057ZM19.1408 34.2657H25.1408C25.3408 34.2657 25.5108 34.2657 25.6008 33.9957C25.8075 33.1211 26.3027 32.3416 27.0066 31.7828C27.7105 31.224 28.5821 30.9186 29.4808 30.9157C30.3773 30.903 31.2521 31.1918 31.9648 31.7358C32.6775 32.2799 33.1867 33.0476 33.4108 33.9157C33.4908 34.1957 33.6108 34.2557 33.8808 34.2557C34.8008 34.2557 35.7308 34.2557 36.6508 34.2557C37.3408 34.2557 37.5608 34.0357 37.5608 33.3657V30.4857C37.5608 29.7357 37.3608 29.4857 36.5608 29.4857L31.0808 29.0657C30.0206 29.0294 28.9945 28.6816 28.1308 28.0657C26.8708 27.1257 25.5808 26.2257 24.3208 25.2757C23.14 24.2414 21.6394 23.6447 20.0708 23.5857C17.3608 23.5857 14.6508 23.5857 11.9408 23.5857C10.9418 23.5735 9.97726 23.95 9.25078 24.6357C8.93078 24.9357 8.62078 25.2557 8.32078 25.5657C7.32078 26.6857 6.20078 27.7657 4.54078 27.9157C4.13078 27.9157 3.74078 28.0657 3.34078 28.1357C2.78058 28.2384 2.24463 28.4453 1.76078 28.7457C1.62298 28.8169 1.50727 28.9244 1.42618 29.0566C1.3451 29.1888 1.30173 29.3406 1.30077 29.4957C1.30077 30.4957 1.30077 31.4957 1.30077 32.4957C1.31123 32.9635 1.50443 33.4086 1.839 33.7357C2.17356 34.0628 2.62289 34.2458 3.09078 34.2457C3.43078 34.2457 3.78078 34.2457 4.09078 34.2457C4.40078 34.2457 4.66078 34.1657 4.79078 33.7557C5.04204 32.8998 5.57218 32.1525 6.29694 31.6325C7.0217 31.1124 7.89949 30.8496 8.79078 30.8857C9.67339 30.9024 10.5257 31.2106 11.2148 31.7623C11.904 32.314 12.3913 33.0782 12.6008 33.9357C12.6908 34.2657 12.8708 34.2357 13.0908 34.2357L19.1408 34.2657ZM19.4908 4.04572H29.8608C30.0208 4.04572 30.1908 4.11572 30.2108 3.80572C30.2675 3.49497 30.2517 3.17531 30.1645 2.87169C30.0773 2.56807 29.9211 2.28871 29.7082 2.05541C29.4952 1.8221 29.2312 1.64118 28.9367 1.52675C28.6423 1.41231 28.3254 1.36747 28.0108 1.39572H10.9408C10.6476 1.3679 10.3518 1.40517 10.0747 1.50489C9.79757 1.60461 9.54588 1.7643 9.33762 1.97257C9.12936 2.18083 8.96967 2.43251 8.86996 2.70964C8.77024 2.98678 8.73295 3.28251 8.76078 3.57572C8.76078 4.00572 8.89077 4.05572 9.27077 4.05572C12.6808 4.03572 16.0808 4.04572 19.4908 4.04572ZM8.75078 32.2957C8.04748 32.3007 7.37365 32.5789 6.87168 33.0715C6.36971 33.5641 6.07893 34.2326 6.06078 34.9357C6.06847 35.6407 6.35056 36.3149 6.84719 36.8153C7.34382 37.3156 8.01591 37.6028 8.72079 37.6157C9.07383 37.6211 9.42437 37.5558 9.75184 37.4238C10.0793 37.2917 10.3771 37.0956 10.6277 36.8468C10.8783 36.5981 11.0766 36.3018 11.2111 35.9753C11.3456 35.6489 11.4135 35.2988 11.4108 34.9457C11.4108 34.5969 11.3419 34.2515 11.2081 33.9293C11.0743 33.6071 10.8782 33.3146 10.6311 33.0683C10.3839 32.8221 10.0906 32.6271 9.76797 32.4946C9.4453 32.362 9.09963 32.2944 8.75078 32.2957ZM29.5508 32.2957C28.8478 32.2957 28.1732 32.5729 27.6733 33.0671C27.1735 33.5614 26.8887 34.2328 26.8808 34.9357C26.8808 35.6404 27.1593 36.3165 27.6557 36.8167C28.1521 37.3168 28.8261 37.6004 29.5308 37.6057C29.8831 37.6097 30.2327 37.5439 30.5594 37.4121C30.8862 37.2803 31.1837 37.0852 31.4346 36.8379C31.6856 36.5906 31.8852 36.2961 32.0218 35.9714C32.1585 35.6466 32.2295 35.2981 32.2308 34.9457C32.2203 34.241 31.9336 33.5685 31.4325 33.0729C30.9313 32.5773 30.2556 32.2983 29.5508 32.2957ZM16.4608 22.1757C16.7008 22.1757 16.9508 22.1757 17.1908 22.1757C17.4308 22.1757 17.4508 22.0457 17.4608 21.8557C17.4708 21.6657 17.4608 21.5357 17.1708 21.5457C16.7208 21.5457 16.2708 21.5457 15.8208 21.5457C15.6008 21.5457 15.4708 21.5457 15.4708 21.8457C15.4708 22.1457 15.5808 22.1957 15.8408 22.1757C16.1008 22.1557 16.2508 22.1757 16.4608 22.1757Z" fill="#EF4C23"/>
<path d="M19.4909 8.72571C20.6532 8.70574 21.8068 8.93046 22.8766 9.38528C23.9465 9.8401 24.9087 10.5148 25.7009 11.3657C26.1747 11.8781 26.5479 12.4752 26.8008 13.1257C26.8841 13.2942 26.8971 13.4888 26.8372 13.6668C26.7772 13.8449 26.649 13.9919 26.4809 14.0757C26.39 14.1136 26.2922 14.1322 26.1938 14.1303C26.0954 14.1284 25.9984 14.1061 25.909 14.0647C25.8197 14.0233 25.74 13.9638 25.6748 13.89C25.6097 13.8161 25.5607 13.7295 25.5309 13.6357C25.0172 12.4812 24.1294 11.5336 23.0109 10.9457C21.6119 10.2046 20.0109 9.9356 18.4466 10.1789C16.8823 10.4222 15.4386 11.1647 14.3309 12.2957C13.9914 12.6856 13.7116 13.1237 13.5009 13.5957C13.2709 14.0657 12.9109 14.2457 12.5009 14.0657C12.0909 13.8857 12.0109 13.5057 12.2209 13.0657C12.6899 12.0589 13.3851 11.1741 14.2524 10.4802C15.1198 9.78636 16.1357 9.30228 17.2209 9.06571C17.9568 8.84163 18.7216 8.72707 19.4909 8.72571Z" fill="#EF4C23"/>
<path d="M24.8508 14.6757C24.8508 15.1157 24.6908 15.3457 24.3808 15.4257C24.2995 15.4557 24.213 15.4691 24.1264 15.4652C24.0398 15.4612 23.9548 15.44 23.8766 15.4027C23.7983 15.3654 23.7283 15.3129 23.6706 15.2481C23.613 15.1834 23.5688 15.1078 23.5408 15.0257C23.3417 14.5886 23.0541 14.1976 22.696 13.8774C22.338 13.5573 21.9174 13.3149 21.4608 13.1657C20.6456 12.8326 19.7592 12.7121 18.8847 12.8153C18.0101 12.9185 17.1761 13.2421 16.4608 13.7557C16.0319 14.0778 15.6886 14.5001 15.4608 14.9857C15.4313 15.0849 15.3795 15.1761 15.3094 15.2523C15.2392 15.3284 15.1526 15.3876 15.0562 15.4252C14.9597 15.4628 14.856 15.4779 14.7528 15.4693C14.6496 15.4608 14.5497 15.4287 14.4608 15.3757C14.3784 15.3267 14.3069 15.2614 14.2504 15.1839C14.1939 15.1064 14.1537 15.0183 14.1322 14.9249C14.1107 14.8314 14.1084 14.7346 14.1253 14.6402C14.1423 14.5458 14.1782 14.4558 14.2308 14.3757C14.6339 13.5912 15.2263 12.9197 15.9545 12.422C16.6827 11.9244 17.5235 11.6163 18.4008 11.5257C19.3928 11.3275 20.4185 11.3791 21.3856 11.6759C22.3527 11.9726 23.2308 12.5052 23.9408 13.2257C24.3714 13.6165 24.6862 14.1181 24.8508 14.6757Z" fill="#EF4C23"/>
<path d="M22.8708 16.1358C22.8681 16.2753 22.8224 16.4106 22.7402 16.5233C22.6579 16.636 22.5429 16.7206 22.4108 16.7658C22.2664 16.821 22.1074 16.8253 21.9602 16.7781C21.8129 16.7308 21.6861 16.6347 21.6008 16.5058C21.1965 15.9626 20.6016 15.5925 19.9356 15.4701C19.2696 15.3477 18.5819 15.4819 18.0108 15.8458C17.7612 15.9935 17.5545 16.2038 17.4108 16.4558C17.3666 16.5428 17.3043 16.6195 17.2282 16.6807C17.1521 16.7419 17.0639 16.7863 16.9694 16.8109C16.8748 16.8355 16.7762 16.8397 16.6799 16.8233C16.5836 16.8069 16.4919 16.7702 16.4108 16.7158C16.3309 16.6638 16.2627 16.5959 16.2104 16.5162C16.158 16.4366 16.1228 16.3469 16.1068 16.253C16.0908 16.159 16.0945 16.0628 16.1176 15.9703C16.1406 15.8779 16.1826 15.7912 16.2408 15.7158C16.5018 15.2955 16.8522 14.9379 17.267 14.6683C17.6817 14.3987 18.1508 14.2237 18.6408 14.1558C19.3727 13.9922 20.1358 14.0377 20.8431 14.287C21.5504 14.5363 22.1733 14.9794 22.6408 15.5658C22.7606 15.7354 22.8394 15.9305 22.8708 16.1358Z" fill="#EF4C23"/>
<path d="M19.4708 16.8458C19.5596 16.8418 19.6483 16.8555 19.7318 16.8861C19.8152 16.9167 19.8918 16.9636 19.9569 17.0241C20.0221 17.0846 20.0745 17.1575 20.1112 17.2385C20.148 17.3194 20.1682 17.4069 20.1708 17.4958C20.1735 17.6824 20.1026 17.8626 19.9734 17.9973C19.8443 18.1321 19.6673 18.2105 19.4808 18.2158C19.3029 18.2058 19.1352 18.1293 19.0111 18.0015C18.887 17.8737 18.8155 17.7039 18.8108 17.5258C18.8066 17.4371 18.8207 17.3485 18.8522 17.2654C18.8837 17.1824 18.9318 17.1067 18.9936 17.043C19.0555 16.9793 19.1297 16.9289 19.2118 16.895C19.2938 16.8611 19.382 16.8443 19.4708 16.8458Z" fill="#EF4C23"/>
<path d="M21.4708 28.9458H17.7808C16.9908 28.9458 16.7808 28.7158 16.7808 27.9458V25.7158C16.7808 25.1658 17.0408 24.8958 17.5808 24.8958H21.4208C21.6326 24.895 21.8392 24.9615 22.0108 25.0858L25.7708 27.5858C26.0808 27.7958 26.2908 28.0458 26.1908 28.4258C26.0908 28.8058 25.7608 28.9658 25.3708 28.9658L21.4708 28.9458ZM23.1008 27.5458C22.6572 27.0454 22.0952 26.6643 21.4663 26.4372C20.8374 26.2101 20.1617 26.1443 19.5008 26.2458C19.3545 26.2609 19.207 26.2609 19.0608 26.2458C18.0608 26.2458 18.1308 26.2458 18.1408 27.2458C18.1408 27.5358 18.2708 27.5858 18.5208 27.5858H23.1008V27.5458Z" fill="#EF4C23"/>
<path d="M12.4107 28.9457H9.69074C8.81074 28.9457 8.54075 28.4657 8.93075 27.6657C9.32075 26.8657 9.67075 26.2257 10.0107 25.4957C10.0889 25.2981 10.2279 25.1305 10.4077 25.0172C10.5875 24.9039 10.7987 24.8509 11.0107 24.8657C12.4407 24.8657 13.8607 24.8657 15.2907 24.8657C15.9407 24.8657 16.1708 25.0957 16.1708 25.7457C16.1708 26.3957 16.1708 27.2357 16.1708 27.9857C16.1708 28.7357 15.9408 28.9257 15.1708 28.9857L12.4107 28.9457ZM12.6907 27.5457H13.9007C14.8207 27.5457 14.8107 27.5457 14.7907 26.6057C14.7907 26.3357 14.7107 26.2457 14.4307 26.2457C13.6707 26.2457 12.9108 26.2457 12.1408 26.2457C11.0808 26.2457 11.1407 26.2457 10.6807 27.2457C10.5807 27.5057 10.6808 27.5557 10.8908 27.5457H12.6907Z" fill="#EF4C23"/>
<path d="M19.5008 3.3758H18.7808C18.6943 3.37877 18.608 3.36358 18.5277 3.3312C18.4474 3.29881 18.3747 3.24996 18.3144 3.18777C18.2541 3.12559 18.2075 3.05147 18.1776 2.97018C18.1477 2.88888 18.1352 2.80223 18.1408 2.7158C18.1312 2.63407 18.1381 2.55122 18.1613 2.47226C18.1845 2.39329 18.2234 2.31983 18.2757 2.2563C18.328 2.19277 18.3927 2.14048 18.4657 2.10258C18.5388 2.06469 18.6188 2.04197 18.7008 2.0358C19.2163 1.98563 19.7354 1.98563 20.2508 2.0358C20.3366 2.03907 20.4206 2.06039 20.4976 2.09836C20.5745 2.13633 20.6426 2.1901 20.6973 2.25616C20.752 2.32222 20.7922 2.39909 20.8152 2.48173C20.8382 2.56438 20.8436 2.65095 20.8308 2.7358C20.8337 2.82147 20.8188 2.90681 20.787 2.98642C20.7552 3.06603 20.7073 3.13819 20.6462 3.19833C20.5851 3.25848 20.5122 3.3053 20.4321 3.33585C20.352 3.36639 20.2664 3.37999 20.1808 3.3758H19.5008Z" fill="#EF4C23"/>
</svg>
