<svg width="41" height="23" viewBox="0 0 41 23" fill="none" xmlns="http://www.w3.org/2000/svg">
<path d="M14.7804 0H28.5604C29.3504 0 29.5604 0.19 29.5604 1C29.5604 2.12 29.5604 3.24 29.5604 4.36C29.5604 4.66 29.6404 4.74 29.9404 4.74C31.3204 4.74 32.7004 4.74 34.0804 4.74C34.6492 4.71244 35.2152 4.83574 35.721 5.09741C36.2267 5.35908 36.6543 5.74981 36.9604 6.23C37.6804 7.31 38.4104 8.38 39.1104 9.48C39.8942 10.7223 40.3102 12.1611 40.3104 13.63V20.01C40.3104 20.59 40.0704 20.83 39.4904 20.83C38.9104 20.83 38.3204 20.83 37.7304 20.83C37.6227 20.8156 37.5132 20.8359 37.4179 20.8881C37.3225 20.9402 37.2463 21.0215 37.2004 21.12C36.9129 21.6503 36.4875 22.0932 35.9691 22.4018C35.4508 22.7104 34.8587 22.8733 34.2554 22.8733C33.6522 22.8733 33.0601 22.7104 32.5417 22.4018C32.0234 22.0932 31.598 21.6503 31.3104 21.12C31.2706 21.0346 31.2045 20.9641 31.1217 20.9191C31.0389 20.8741 30.9438 20.8569 30.8504 20.87H13.4904C13.3887 20.8613 13.2868 20.8845 13.199 20.9365C13.1111 20.9885 13.0417 21.0666 13.0004 21.16C12.7127 21.6811 12.2904 22.1155 11.7778 22.418C11.2651 22.7206 10.6807 22.8801 10.0854 22.8801C9.49016 22.8801 8.90576 22.7206 8.39309 22.418C7.88042 22.1155 7.45821 21.6811 7.17043 21.16C7.11662 21.0476 7.02862 20.9552 6.91904 20.8959C6.80946 20.8366 6.68393 20.8136 6.56043 20.83H2.86043C2.69984 20.8393 2.53961 20.8064 2.39573 20.7344C2.25185 20.6625 2.12935 20.5541 2.04044 20.42C1.43044 19.59 0.82043 18.78 0.20043 17.97C0.0642811 17.7887 -0.00623692 17.5666 0.000433233 17.34V0.789999C0.000433233 0.209999 0.260437 0 0.910437 0H14.7804ZM14.7804 1.35H1.78043C1.54043 1.35 1.33043 1.3 1.34043 1.7C1.34043 6.6 1.34043 11.5 1.34043 16.4C1.34043 16.71 1.43043 16.78 1.72043 16.77C3.72043 16.77 5.72043 16.77 7.72043 16.77C7.93006 16.7766 8.13646 16.7171 8.31043 16.6C8.83217 16.2789 9.43279 16.1088 10.0454 16.1088C10.6581 16.1088 11.2587 16.2789 11.7804 16.6C12.0022 16.728 12.2544 16.7936 12.5104 16.79C17.5104 16.79 22.6004 16.79 27.6404 16.79C28.0504 16.79 28.1804 16.72 28.1804 16.27C28.1804 11.47 28.1804 6.66667 28.1804 1.86C28.1804 1.4 28.0404 1.35 27.6404 1.36L14.7804 1.35ZM29.5204 11.42C29.5204 13.06 29.5204 14.7 29.5204 16.34C29.5204 16.72 29.6304 16.79 29.9804 16.78C30.5904 16.78 31.2104 16.78 31.8304 16.78C32.0544 16.7865 32.2758 16.7311 32.4704 16.62C33.0006 16.2817 33.6165 16.102 34.2454 16.102C34.8744 16.102 35.4902 16.2817 36.0204 16.62C36.1195 16.7038 36.2414 16.7561 36.3704 16.77H38.7204C38.8704 16.77 38.9604 16.77 38.9504 16.56C38.9922 15.1825 38.9588 13.8038 38.8504 12.43C38.8504 12.11 38.6404 12.09 38.3904 12.09H34.4504C34.2812 12.1104 34.1097 12.0781 33.9594 11.9976C33.8091 11.917 33.6873 11.7922 33.6104 11.64C33.0904 10.64 32.5604 9.74 32.0404 8.79L30.6504 6.28C30.4204 5.87 30.0404 6.05 29.7304 6.07C29.4204 6.09 29.6004 6.38 29.6004 6.55C29.5304 8.18 29.5404 9.8 29.5404 11.42H29.5204ZM13.2004 18.14C13.3001 18.4289 13.3704 18.727 13.4104 19.03C13.4104 19.46 13.6204 19.48 13.9704 19.48H29.9704C30.2537 19.5424 30.5472 19.5424 30.8304 19.48C31.0304 19.37 30.8304 18.99 30.9804 18.75C30.9804 18.75 30.9804 18.62 31.0404 18.57C31.2104 18.22 31.0404 18.18 30.7404 18.18H13.2004V18.14ZM32.0404 6.06C32.8904 7.59 33.7004 9.06 34.4904 10.48C34.5352 10.5727 34.6098 10.6478 34.7022 10.6931C34.7947 10.7384 34.8997 10.7514 35.0004 10.73H37.7204C37.8704 10.73 38.0804 10.81 38.1604 10.66C38.2404 10.51 38.0904 10.36 38.0104 10.23C37.2704 9.1 36.5304 7.98 35.7804 6.87C35.6239 6.62931 35.4108 6.43057 35.1598 6.29113C34.9088 6.15168 34.6275 6.07577 34.3404 6.07C33.5804 6.04 32.8504 6.06 32.0404 6.06ZM32.2404 19.47C32.2404 20.0004 32.4512 20.5091 32.8262 20.8842C33.2013 21.2593 33.71 21.47 34.2404 21.47C34.7709 21.47 35.2796 21.2593 35.6547 20.8842C36.0297 20.5091 36.2404 20.0004 36.2404 19.47C36.2404 18.9396 36.0297 18.4309 35.6547 18.0558C35.2796 17.6807 34.7709 17.47 34.2404 17.47C33.71 17.47 33.2013 17.6807 32.8262 18.0558C32.4512 18.4309 32.2404 18.9396 32.2404 19.47ZM8.09043 19.47C8.09043 20.0004 8.30114 20.5091 8.67621 20.8842C9.05129 21.2593 9.56 21.47 10.0904 21.47C10.6209 21.47 11.1296 21.2593 11.5046 20.8842C11.8797 20.5091 12.0904 20.0004 12.0904 19.47C12.0904 18.9396 11.8797 18.4309 11.5046 18.0558C11.1296 17.6807 10.6209 17.47 10.0904 17.47C9.82609 17.47 9.56439 17.5224 9.32043 17.6241C9.07646 17.7259 8.85508 17.875 8.6691 18.0628C8.48312 18.2507 8.33622 18.4735 8.2369 18.7185C8.13757 18.9635 8.08779 19.2257 8.09043 19.49V19.47ZM6.94044 18.14H2.07044L2.96044 19.35C2.99642 19.393 3.04307 19.4258 3.09572 19.4451C3.14838 19.4644 3.20517 19.4696 3.26043 19.46H6.42043C6.57043 19.46 6.71044 19.46 6.71044 19.24C6.74156 18.8718 6.81882 18.5089 6.94044 18.16V18.14ZM38.1504 18.14C37.3904 18.14 37.3904 18.14 37.5404 18.88C37.575 19.0039 37.5951 19.1314 37.6004 19.26C37.6004 19.43 37.6704 19.49 37.8304 19.48C37.9898 19.46 38.1511 19.46 38.3104 19.48C38.7804 19.55 38.9504 19.41 38.9204 18.9C38.8704 18.14 38.9004 18.14 38.1504 18.14Z" fill="#EF4C23"/>
<path d="M12.0804 9.41001C12.0804 8.35001 12.0804 7.30001 12.0804 6.25001C12.0578 6.0639 12.0989 5.87562 12.1969 5.71582C12.295 5.55603 12.4442 5.43414 12.6204 5.37001L18.3804 2.80001C18.5134 2.73757 18.6585 2.7052 18.8054 2.7052C18.9523 2.7052 19.0974 2.73757 19.2304 2.80001C20.9171 3.46667 22.6104 4.10667 24.3104 4.72001C24.4817 4.77167 24.6303 4.87994 24.732 5.02708C24.8338 5.17422 24.8825 5.35154 24.8704 5.53001C24.8704 7.69001 24.8704 9.85001 24.8704 12.01C24.8816 12.1713 24.8411 12.3319 24.7548 12.4686C24.6685 12.6053 24.5408 12.7108 24.3904 12.77L18.4904 15.4C18.3879 15.4449 18.2773 15.4681 18.1654 15.4681C18.0535 15.4681 17.9429 15.4449 17.8404 15.4L12.5604 13.4C12.4068 13.3485 12.2755 13.246 12.1882 13.1096C12.1009 12.9732 12.0629 12.811 12.0804 12.65C12.0804 11.58 12.0804 10.49 12.0804 9.41001ZM20.7904 7.65001C20.1704 7.92001 19.6504 8.17001 19.1104 8.38001C19.0108 8.41015 18.9255 8.47541 18.8703 8.56368C18.8151 8.65195 18.7938 8.75724 18.8104 8.86001C18.8104 10.19 18.8104 11.52 18.8104 12.86V13.72L23.3204 11.72C23.3742 11.7059 23.421 11.6728 23.4522 11.6269C23.4835 11.5809 23.4971 11.5252 23.4904 11.47V6.47001C23.1104 6.64001 22.7904 6.79001 22.4904 6.92001C22.4357 6.93072 22.3836 6.95223 22.3373 6.98328C22.291 7.01432 22.2513 7.05428 22.2206 7.10083C22.1899 7.14737 22.1687 7.19956 22.1584 7.25436C22.1481 7.30916 22.1487 7.36547 22.1604 7.42001C22.1604 7.84001 22.1604 8.26001 22.1604 8.68001C22.1604 9.10001 21.9004 9.46001 21.4804 9.46001C21.3831 9.45507 21.2878 9.43042 21.2002 9.38755C21.1127 9.34469 21.0348 9.2845 20.9712 9.21064C20.9076 9.13678 20.8597 9.05077 20.8304 8.95784C20.801 8.86491 20.7908 8.76699 20.8004 8.67001C20.7804 8.33001 20.7904 8.03001 20.7904 7.65001ZM13.4504 7.06001C13.4504 8.77001 13.4504 10.42 13.4504 12.06C13.4504 12.31 13.6104 12.35 13.7704 12.41C14.8604 12.81 15.9604 13.2 17.0404 13.63C17.4204 13.78 17.4604 13.63 17.4604 13.32C17.4604 12 17.4604 10.67 17.4604 9.32001C17.4604 8.53001 17.4604 8.52001 16.7204 8.24001L13.4504 7.06001ZM19.6104 6.66001C19.1704 6.22001 19.1004 5.86001 19.3504 5.55001C19.4726 5.40843 19.6444 5.31914 19.8304 5.30053C20.0165 5.28193 20.2026 5.33543 20.3504 5.45001C20.4533 5.49397 20.5535 5.54406 20.6504 5.60001C21.2104 5.98001 21.7004 5.79001 22.2604 5.42001L18.9404 4.18001C18.8807 4.15294 18.8159 4.13894 18.7504 4.13894C18.6849 4.13894 18.6201 4.15294 18.5604 4.18001L14.5604 5.96001L18.0004 7.25001C18.1108 7.27166 18.2253 7.25019 18.3204 7.19001L19.6104 6.66001Z" fill="#EF4C23"/>
<path d="M7.72032 8.73999H9.95031C10.4803 8.73999 10.7303 8.95999 10.7303 9.38999C10.7339 9.4881 10.7162 9.58583 10.6784 9.67644C10.6406 9.76706 10.5837 9.84842 10.5115 9.91494C10.4392 9.98145 10.3535 10.0315 10.2601 10.0618C10.1667 10.092 10.0678 10.1016 9.97032 10.09H5.45031C5.35315 10.0999 5.25499 10.0891 5.16232 10.0583C5.06964 10.0274 4.98457 9.97726 4.91273 9.91109C4.84089 9.84492 4.78391 9.76425 4.74557 9.67442C4.70723 9.58459 4.6884 9.48764 4.69032 9.38999C4.69032 8.95999 4.95031 8.73999 5.48031 8.73999H7.72032Z" fill="#EF4C23"/>
<path d="M8.3804 12.7599H6.7704C6.2904 12.7599 6.0404 12.5199 6.0404 12.0999C6.03602 12.006 6.05145 11.9122 6.08572 11.8246C6.11999 11.737 6.1723 11.6576 6.23927 11.5916C6.30624 11.5255 6.38638 11.4744 6.47444 11.4413C6.5625 11.4083 6.65652 11.3942 6.75039 11.3999C7.86039 11.3999 8.96039 11.3999 10.0604 11.3999C10.1545 11.395 10.2485 11.4106 10.3359 11.4456C10.4234 11.4806 10.5022 11.5343 10.5668 11.6027C10.6315 11.6712 10.6805 11.7529 10.7105 11.8422C10.7405 11.9315 10.7507 12.0263 10.7404 12.1199C10.7428 12.2103 10.7254 12.3002 10.6894 12.3832C10.6535 12.4661 10.5998 12.5402 10.5321 12.6003C10.4645 12.6603 10.3845 12.7048 10.2978 12.7307C10.2112 12.7565 10.1199 12.7631 10.0304 12.7499L8.3804 12.7599Z" fill="#EF4C23"/>
<path d="M9.06039 7.38999H8.06039C7.9744 7.39575 7.88816 7.38323 7.80736 7.35324C7.72655 7.32326 7.65303 7.27649 7.59161 7.21602C7.5302 7.15555 7.4823 7.08275 7.45106 7.00242C7.41983 6.92209 7.40597 6.83606 7.4104 6.74999C7.39922 6.66458 7.40595 6.57779 7.43017 6.49513C7.4544 6.41248 7.49558 6.33578 7.55108 6.26992C7.60659 6.20406 7.67522 6.15049 7.75258 6.11262C7.82994 6.07476 7.91433 6.05342 8.00039 6.04999C8.7297 6.00499 9.46109 6.00499 10.1904 6.04999C10.2763 6.05444 10.3602 6.07699 10.4367 6.11617C10.5132 6.15534 10.5806 6.21025 10.6345 6.27729C10.6883 6.34433 10.7273 6.42199 10.749 6.50517C10.7707 6.58836 10.7746 6.6752 10.7604 6.75999C10.7632 6.84216 10.7491 6.92403 10.7189 7.00051C10.6887 7.07699 10.6431 7.14646 10.585 7.2046C10.5269 7.26273 10.4574 7.3083 10.3809 7.33847C10.3044 7.36864 10.2226 7.38277 10.1404 7.37999C9.77039 7.40999 9.41039 7.38999 9.06039 7.38999Z" fill="#EF4C23"/>
<path d="M33.2303 13.43C33.5703 13.43 33.9203 13.43 34.2303 13.43C34.3159 13.4241 34.4018 13.4366 34.4821 13.4666C34.5624 13.4967 34.6354 13.5436 34.696 13.6043C34.7567 13.6649 34.8036 13.7379 34.8337 13.8182C34.8638 13.8986 34.8763 13.9844 34.8703 14.07C34.8802 14.1597 34.871 14.2505 34.8433 14.3365C34.8156 14.4224 34.77 14.5015 34.7095 14.5685C34.6491 14.6356 34.5752 14.6891 34.4926 14.7255C34.41 14.762 34.3206 14.7805 34.2303 14.78C33.5403 14.78 32.8403 14.78 32.1403 14.78C32.0537 14.7817 31.9677 14.7652 31.8878 14.7316C31.8079 14.6979 31.736 14.648 31.6766 14.5848C31.6173 14.5217 31.5718 14.4468 31.5432 14.365C31.5145 14.2832 31.5033 14.1964 31.5103 14.11C31.5044 14.0205 31.5177 13.9307 31.5493 13.8468C31.5809 13.7628 31.6301 13.6866 31.6935 13.6232C31.7569 13.5597 31.8332 13.5106 31.9171 13.479C32.0011 13.4474 32.0908 13.4341 32.1803 13.44C32.5503 13.42 32.8903 13.43 33.2303 13.43Z" fill="#EF4C23"/>
<path d="M16.6005 10.78C16.3539 10.7495 16.114 10.6786 15.8904 10.57C15.4304 10.4 14.9704 10.24 14.5304 10.05C14.4439 10.0235 14.3638 9.97911 14.2954 9.91981C14.227 9.86052 14.1717 9.78758 14.1331 9.70567C14.0945 9.62376 14.0734 9.53469 14.0712 9.44417C14.0691 9.35365 14.0858 9.26367 14.1204 9.18C14.1439 9.09695 14.1844 9.01971 14.2394 8.95322C14.2944 8.88672 14.3627 8.83244 14.4399 8.79385C14.5171 8.75526 14.6014 8.7332 14.6876 8.7291C14.7738 8.72499 14.8599 8.73892 14.9404 8.77C15.6004 8.98 16.2504 9.23 16.8904 9.5C16.9637 9.5275 17.0307 9.56954 17.0873 9.6236C17.1439 9.67766 17.189 9.74262 17.2198 9.81457C17.2506 9.88651 17.2666 9.96395 17.2667 10.0422C17.2668 10.1205 17.2511 10.198 17.2204 10.27C17.1832 10.4091 17.1034 10.533 16.9923 10.6245C16.8811 10.7159 16.7441 10.7703 16.6005 10.78Z" fill="#EF4C23"/>
</svg>
