<svg width="43" height="39" viewBox="0 0 43 39" fill="none" xmlns="http://www.w3.org/2000/svg">
<path d="M0 37.6295C0.169727 37.6795 0.350277 37.6795 0.520004 37.6295H41.44C41.62 37.6295 41.91 37.5095 41.95 37.7595C42.03 38.1218 42.03 38.4972 41.95 38.8595C41.95 38.8595 41.77 38.9095 41.68 38.9095H0.51001H0.030014L0 37.6295Z" fill="#EF4C23"/>
<path d="M16.2601 2.94955C16.7356 2.94779 17.2047 3.0591 17.6287 3.27429C18.0528 3.48948 18.4196 3.80239 18.6989 4.18721C18.9783 4.57204 19.1621 5.01775 19.2354 5.4876C19.3086 5.95745 19.2691 6.43798 19.1201 6.88955C19.0516 7.02959 19.0394 7.19051 19.0859 7.33928C19.1324 7.48805 19.2341 7.61339 19.3701 7.68955C20.7501 8.83955 22.1101 10.0096 23.4701 11.1896C23.5529 11.2948 23.6738 11.3632 23.8066 11.38C23.9395 11.3968 24.0736 11.3608 24.1801 11.2795C24.5732 11.033 25.0224 10.8899 25.4858 10.8637C25.9491 10.8374 26.4116 10.9289 26.8301 11.1295C26.8659 11.1533 26.9062 11.1696 26.9485 11.1775C26.9909 11.1853 27.0343 11.1846 27.0763 11.1752C27.1183 11.1659 27.158 11.1482 27.193 11.1232C27.228 11.0981 27.2576 11.0663 27.2801 11.0295C28.9801 9.02955 30.6867 7.02955 32.4001 5.02955C32.4697 4.95693 32.5086 4.86019 32.5086 4.75955C32.5086 4.65891 32.4697 4.56217 32.4001 4.48955C32.0378 3.86913 31.9102 3.1393 32.0405 2.43278C32.1708 1.72625 32.5503 1.08994 33.1101 0.639549C33.7041 0.17355 34.4521 -0.0513019 35.2047 0.00986676C35.9572 0.0710354 36.659 0.413726 37.1701 0.969549C37.6186 1.46518 37.8888 2.09644 37.9377 2.76313C37.9867 3.42982 37.8115 4.09375 37.4401 4.64955C37.0664 5.19323 36.5239 5.59858 35.8966 5.80285C35.2694 6.00713 34.5922 5.99893 33.9701 5.77955C33.8329 5.70696 33.6729 5.69037 33.5237 5.73326C33.3745 5.77615 33.2478 5.87518 33.1701 6.00955C31.5501 7.90955 29.9267 9.80622 28.3001 11.6995C28.1968 11.7789 28.1286 11.8954 28.11 12.0242C28.0913 12.1531 28.1236 12.2842 28.2001 12.3895C28.5258 12.9648 28.6524 13.6316 28.5602 14.2862C28.4679 14.9408 28.1621 15.5467 27.6901 16.0096C27.201 16.48 26.5669 16.7708 25.8912 16.8344C25.2156 16.898 24.5383 16.7306 23.9701 16.3596C23.3981 15.9795 22.9739 15.4146 22.7682 14.7594C22.5626 14.1042 22.5879 13.3983 22.8401 12.7595C22.8918 12.6648 22.9051 12.5538 22.8772 12.4495C22.8492 12.3452 22.7822 12.2557 22.6901 12.1995C21.2401 10.9795 19.8001 9.73955 18.3601 8.50955C18.3291 8.47073 18.2906 8.43854 18.2468 8.41492C18.2031 8.3913 18.1551 8.37672 18.1057 8.37205C18.0562 8.36739 18.0063 8.37273 17.959 8.38776C17.9116 8.40279 17.8678 8.42721 17.8301 8.45955C17.4111 8.72524 16.9312 8.87941 16.4359 8.90741C15.9405 8.93542 15.4463 8.83632 15.0001 8.61955C14.921 8.56789 14.8251 8.54844 14.7322 8.56517C14.6392 8.58191 14.5562 8.63356 14.5001 8.70955C12.8901 10.4495 11.2801 12.1695 9.65006 13.8995C9.55655 13.9677 9.49362 14.0699 9.47491 14.184C9.45619 14.2982 9.48318 14.4151 9.55006 14.5095C9.8623 15.0932 9.97277 15.7637 9.86425 16.4166C9.75573 17.0696 9.43431 17.6683 8.95006 18.1196C8.47951 18.5481 7.88486 18.8159 7.2521 18.8842C6.61933 18.9525 5.98123 18.8178 5.43006 18.4995C4.87691 18.1826 4.43912 17.6976 4.1802 17.115C3.92127 16.5325 3.85467 15.8825 3.99006 15.2595C4.13549 14.6127 4.49108 14.0323 5.00127 13.609C5.51146 13.1856 6.14752 12.9432 6.81007 12.9195C7.26618 12.8915 7.72158 12.9847 8.13006 13.1895C8.17666 13.2191 8.22866 13.2392 8.28304 13.2487C8.33743 13.2582 8.39314 13.2569 8.44701 13.2448C8.50088 13.2327 8.55184 13.2101 8.59698 13.1784C8.64211 13.1466 8.68054 13.1062 8.71006 13.0595C10.3001 11.3495 11.8901 9.64955 13.5001 7.94955C13.6019 7.86697 13.6688 7.74897 13.6874 7.61916C13.7059 7.48936 13.6747 7.35734 13.6001 7.24955C13.4068 6.86032 13.3004 6.43375 13.2883 5.99935C13.2761 5.56495 13.3585 5.13309 13.5296 4.73366C13.7008 4.33423 13.9568 3.97675 14.2797 3.68597C14.6026 3.39519 14.9849 3.17804 15.4001 3.04955C15.6783 2.96457 15.9697 2.93069 16.2601 2.94955ZM5.26006 15.9495C5.25471 16.177 5.29505 16.4032 5.37871 16.6147C5.46237 16.8263 5.58763 17.0189 5.74709 17.1812C5.90655 17.3434 6.09696 17.472 6.30703 17.5594C6.5171 17.6467 6.74256 17.691 6.97005 17.6896C7.19581 17.6935 7.42012 17.6525 7.62984 17.5689C7.83957 17.4852 8.03053 17.3606 8.19158 17.2024C8.35263 17.0441 8.48054 16.8553 8.56785 16.6471C8.65515 16.4389 8.7001 16.2153 8.70006 15.9895C8.70545 15.5315 8.52996 15.0897 8.21169 14.7602C7.89342 14.4307 7.45804 14.24 7.00005 14.2295C6.54459 14.2215 6.10433 14.3933 5.77482 14.7079C5.44531 15.0224 5.25315 15.4542 5.24006 15.9095L5.26006 15.9495ZM27.4001 13.8895C27.3957 13.4483 27.2239 13.0253 26.9194 12.7059C26.615 12.3866 26.2006 12.1949 25.7601 12.1695C25.5248 12.1629 25.2905 12.2034 25.0712 12.2889C24.8518 12.3743 24.6519 12.5029 24.4831 12.667C24.3143 12.8311 24.1802 13.0274 24.0886 13.2443C23.9971 13.4611 23.95 13.6942 23.9501 13.9295C23.9731 14.3726 24.1655 14.7898 24.4875 15.0951C24.8095 15.4003 25.2364 15.5702 25.6801 15.5695C26.1311 15.5592 26.5605 15.3741 26.8777 15.0532C27.1949 14.7323 27.375 14.3007 27.3801 13.8495L27.4001 13.8895ZM36.7401 2.99955C36.7457 2.56406 36.5821 2.14339 36.2836 1.82624C35.9851 1.50909 35.5751 1.32025 35.1401 1.29955C34.9046 1.29155 34.67 1.33036 34.4497 1.41373C34.2293 1.4971 34.0278 1.62337 33.8566 1.78522C33.6855 1.94707 33.5481 2.14128 33.4526 2.3566C33.3571 2.57191 33.3052 2.80405 33.3001 3.03955C33.3312 3.49055 33.5264 3.91454 33.8489 4.23143C34.1713 4.54832 34.5986 4.73619 35.0501 4.75955C35.2786 4.75316 35.5035 4.70127 35.7118 4.60692C35.92 4.51257 36.1074 4.37765 36.2629 4.21006C36.4183 4.04247 36.5389 3.84556 36.6174 3.63084C36.6959 3.41613 36.7308 3.18791 36.7201 2.95955L36.7401 2.99955ZM16.3001 7.68955C16.5283 7.69627 16.7556 7.65693 16.9683 7.57388C17.1811 7.49084 17.3749 7.36578 17.5382 7.20618C17.7015 7.04658 17.831 6.85571 17.919 6.64496C18.0069 6.43421 18.0515 6.20791 18.0501 5.97955C18.0554 5.52773 17.8817 5.09215 17.5669 4.76799C17.2521 4.44384 16.8218 4.25745 16.3701 4.24955C16.1433 4.23881 15.9167 4.27306 15.7033 4.35033C15.4898 4.42759 15.2938 4.54634 15.1265 4.69972C14.9591 4.8531 14.8238 5.03809 14.7283 5.24402C14.6328 5.44994 14.579 5.67274 14.5701 5.89955C14.5633 6.12781 14.6027 6.35509 14.6857 6.56782C14.7688 6.78054 14.8938 6.97436 15.0534 7.13769C15.213 7.30102 15.4039 7.43052 15.6146 7.51847C15.8254 7.60641 16.0517 7.65099 16.2801 7.64955L16.3001 7.68955Z" fill="#EF4C23"/>
<path d="M38.18 22.3395V34.2695C38.18 35.0795 38.03 35.2695 37.18 35.2695H32.65C31.96 35.2695 31.78 35.0995 31.78 34.4095V10.4095C31.78 9.76946 31.98 9.56946 32.63 9.56946C34.19 9.56946 35.74 9.56946 37.3 9.56946C37.94 9.56946 38.15 9.77946 38.15 10.4195L38.18 22.3395ZM36.91 22.3395C36.91 18.6128 36.91 14.8828 36.91 11.1495C36.91 10.8095 36.84 10.6995 36.49 10.7095C35.49 10.7095 34.49 10.7095 33.49 10.7095C33.18 10.7095 33.08 10.7795 33.08 11.1095C33.08 18.5828 33.08 26.0495 33.08 33.5095C33.08 33.8695 33.21 33.9295 33.52 33.9195C34.52 33.9195 35.52 33.9195 36.52 33.9195C36.92 33.9195 36.99 33.7995 36.99 33.4295C36.9367 29.7628 36.91 26.0795 36.91 22.3795V22.3395Z" fill="#EF4C23"/>
<path d="M19.49 26.4195C19.49 29.0495 19.49 31.6795 19.49 34.2995C19.49 35.0795 19.35 35.2195 18.59 35.2195H13.97C13.29 35.2195 13.09 35.0395 13.09 34.3595V18.4995C13.09 17.8595 13.31 17.6495 13.94 17.6495H18.66C19.31 17.6495 19.49 17.8295 19.49 18.4895C19.5 21.1395 19.49 23.7795 19.49 26.4195ZM18.24 26.4195C18.24 24.0695 18.24 21.7195 18.24 19.4195C18.24 19.0595 18.16 18.9495 17.78 18.9595C16.78 18.9595 15.78 18.9595 14.78 18.9595C14.45 18.9595 14.37 19.0495 14.37 19.3695C14.37 24.1229 14.37 28.8762 14.37 33.6295C14.37 33.9295 14.45 34.0095 14.75 33.9995C15.75 33.9995 16.75 33.9995 17.82 33.9995C18.16 33.9995 18.25 33.9195 18.25 33.5795C18.23 31.1695 18.24 28.7995 18.24 26.4295V26.4195Z" fill="#EF4C23"/>
<path d="M22.47 27.7795V21.3095C22.47 20.5595 22.63 20.3995 23.38 20.3995H28C28.66 20.3995 28.87 20.5995 28.87 21.2695V34.3595C28.87 35.0395 28.68 35.2195 27.99 35.2195H23.32C22.63 35.2195 22.47 35.0595 22.47 34.3495V27.7795ZM27.58 27.8395C27.58 25.9095 27.58 23.9795 27.58 22.0495C27.58 21.7495 27.58 21.6295 27.19 21.6395C26.19 21.6395 25.19 21.6395 24.12 21.6395C23.79 21.6395 23.69 21.7195 23.69 22.0595C23.69 25.8795 23.69 29.6929 23.69 33.4995C23.69 33.8495 23.76 33.9795 24.14 33.9695C25.14 33.9695 26.14 33.9695 27.14 33.9695C27.48 33.9695 27.56 33.8795 27.56 33.5395C27.57 31.6395 27.57 29.7395 27.57 27.8395H27.58Z" fill="#EF4C23"/>
<path d="M10.18 31.0995C10.18 32.1895 10.18 33.2795 10.18 34.3595C10.18 35.0495 10 35.2195 9.31004 35.2195H4.64005C3.96005 35.2195 3.79004 35.0395 3.79004 34.3495V27.8395C3.79004 27.1495 3.97004 26.9695 4.65004 26.9695C6.21004 26.9695 7.76004 26.9695 9.32004 26.9695C10 26.9695 10.18 27.1595 10.18 27.8395C10.19 28.9295 10.18 30.0195 10.18 31.0995ZM5.05003 31.0995C5.05003 31.9395 5.05003 32.7795 5.05003 33.6195C5.05003 33.8695 5.11004 33.9595 5.37004 33.9495H8.57004C8.85004 33.9495 8.93004 33.8695 8.93004 33.5895C8.93004 31.9195 8.93004 30.2595 8.93004 28.5895C8.93004 28.2895 8.84004 28.1995 8.54004 28.1995C7.54004 28.1995 6.47004 28.1995 5.43004 28.1995C5.09004 28.1995 5.04004 28.3195 5.04004 28.6195C5.06004 29.4595 5.05003 30.2795 5.05003 31.1095V31.0995Z" fill="#EF4C23"/>
</svg>
