<svg width="42" height="43" viewBox="0 0 42 43" fill="none" xmlns="http://www.w3.org/2000/svg">
<path d="M38.5163 42.3811H1.60629C1.60629 42.3811 1.60629 42.3111 1.60629 42.3011C1.0937 41.9969 0.673677 41.5589 0.391343 41.034C0.10901 40.509 -0.0249602 39.9171 0.00382933 39.3218C0.0326189 38.7265 0.22308 38.1502 0.554746 37.655C0.886413 37.1598 1.34675 36.7643 1.88629 36.5111C2.69629 36.1111 3.45629 35.6111 4.25629 35.1811C4.3961 35.1236 4.51353 35.0224 4.59104 34.8926C4.66855 34.7628 4.70197 34.6114 4.68629 34.4611C4.68629 29.0811 4.68629 23.6911 4.68629 18.3011C4.68629 17.2411 4.68629 17.2411 3.59629 17.2311C3.2876 17.2656 2.9751 17.2305 2.68174 17.1284C2.38838 17.0263 2.12162 16.8598 1.90102 16.6411C1.68043 16.4224 1.51161 16.1571 1.40697 15.8647C1.30232 15.5722 1.2645 15.26 1.29629 14.9511C1.29629 11.5411 1.29629 8.13107 1.29629 4.72107C1.28656 4.4164 1.33941 4.11297 1.45155 3.82952C1.5637 3.54608 1.73276 3.28863 1.94831 3.07309C2.16385 2.85754 2.4213 2.68848 2.70474 2.57633C2.98819 2.46419 3.29162 2.41134 3.59629 2.42107C11.8763 2.42107 20.1563 2.42107 28.4263 2.42107C28.6154 2.44871 28.8085 2.4242 28.9847 2.35019C29.1609 2.27617 29.3136 2.15546 29.4263 2.00107C29.7296 1.61133 30.0944 1.27358 30.5063 1.00107C31.3151 0.332821 32.3374 -0.0221281 33.3863 0.00106915C34.3863 0.0810692 35.3863 0.00106915 36.3863 0.00106915C36.7101 0.00169001 37.0303 0.0698061 37.3263 0.20107C38.4376 0.670069 39.4102 1.41597 40.1513 2.36764C40.8925 3.3193 41.3774 4.44499 41.5599 5.63732C41.7425 6.82965 41.6164 8.04885 41.1939 9.17864C40.7714 10.3084 40.0664 11.3111 39.1463 12.0911C39.0478 12.1691 38.9698 12.27 38.9193 12.385C38.8687 12.5001 38.8471 12.6257 38.8563 12.7511C38.8563 13.5811 38.8563 14.4111 38.8563 15.2411C38.8563 15.7715 38.6456 16.2802 38.2705 16.6553C37.8954 17.0304 37.3867 17.2411 36.8563 17.2411C36.5633 17.2611 36.2693 17.2611 35.9763 17.2411C35.6263 17.2411 35.5163 17.2411 35.5163 17.6711C35.5163 23.2911 35.5163 28.9077 35.5163 34.5211C35.505 34.654 35.5356 34.7872 35.6037 34.902C35.6718 35.0167 35.7741 35.1073 35.8963 35.1611C36.7663 35.6411 37.6263 36.1611 38.4763 36.6211C39.1168 36.9708 39.621 37.526 39.9076 38.1972C40.1942 38.8684 40.2466 39.6165 40.0563 40.3211C39.8058 41.1698 39.2594 41.9007 38.5163 42.3811ZM5.97629 25.8711C5.97629 28.6411 5.97629 31.4211 5.97629 34.1911C5.97629 34.5311 5.97629 34.6711 6.40629 34.6611C8.95629 34.6611 11.5063 34.6611 14.0563 34.6611C14.3963 34.6611 14.4963 34.6011 14.4063 34.2311C13.9363 32.2911 13.5063 30.3511 13.0663 28.4011C12.9956 28.1089 12.9917 27.8045 13.0549 27.5106C13.1181 27.2167 13.2467 26.9408 13.4312 26.7035C13.6157 26.4661 13.8513 26.2734 14.1205 26.1397C14.3898 26.006 14.6857 25.9347 14.9863 25.9311C18.3663 25.9311 21.7363 25.9311 25.1163 25.9311C25.4175 25.932 25.7146 26.001 25.9854 26.1329C26.2563 26.2647 26.4938 26.4561 26.6803 26.6926C26.8669 26.9291 26.9975 27.2047 27.0626 27.4988C27.1277 27.7929 27.1256 28.0979 27.0563 28.3911C26.6163 30.3211 26.1463 32.3211 25.7163 34.2111C25.6363 34.5511 25.6663 34.6611 26.0463 34.6611C28.6163 34.6611 31.1763 34.6611 33.7363 34.6611C34.0563 34.6611 34.1463 34.5811 34.1463 34.2511C34.1463 28.7111 34.1463 23.1644 34.1463 17.6111C34.1463 17.2511 34.0163 17.2311 33.7263 17.2311H30.1463C29.7163 17.2311 29.1463 17.0411 28.8863 17.3111C28.6263 17.5811 28.8163 18.1111 28.8063 18.5311C28.8063 19.0615 28.5956 19.5702 28.2205 19.9453C27.8454 20.3204 27.3367 20.5311 26.8063 20.5311C26.0363 20.5311 25.2763 20.5311 24.5163 20.5311C24.2163 20.5311 24.1163 20.5911 24.1263 20.9111C24.1263 21.6311 24.1263 22.3711 24.1263 23.1011C24.1263 23.6611 23.8863 23.9111 23.3363 23.9111H16.8263C16.2463 23.9111 16.0263 23.6611 16.0163 23.0611C16.0063 22.4611 16.0163 21.6711 16.0163 20.9711C16.0163 20.6411 15.9563 20.5211 15.5963 20.5311C14.8863 20.5311 14.1763 20.5311 13.4563 20.5311C13.1726 20.5515 12.8878 20.5111 12.621 20.4127C12.3541 20.3143 12.1113 20.1601 11.9088 19.9604C11.7062 19.7607 11.5486 19.5201 11.4465 19.2546C11.3443 18.9892 11.2999 18.705 11.3163 18.4211C11.3012 18.1446 11.3012 17.8675 11.3163 17.5911C11.3163 17.2711 11.2263 17.1811 10.9163 17.1911C9.43629 17.1911 7.91629 17.1911 6.48629 17.1911C6.07629 17.1911 5.94629 17.2611 5.94629 17.7111C5.99629 20.4511 5.97629 23.1611 5.97629 25.8711ZM28.1463 3.80107H3.65629C2.79629 3.80107 2.65629 3.97107 2.65629 4.80107C2.65629 8.11107 2.65629 11.4211 2.65629 14.7311C2.65629 15.7311 2.80629 15.8411 3.74629 15.8411H36.6363C37.2563 15.8411 37.4763 15.6011 37.4863 14.9811C37.4863 14.5411 37.4863 14.1011 37.4863 13.6611C37.4863 13.2211 37.3763 13.2011 37.0063 13.3511C35.6973 13.8631 34.2646 13.9693 32.8944 13.6558C31.5243 13.3422 30.2803 12.6235 29.3243 11.5931C28.3684 10.5627 27.7448 9.26835 27.5347 7.87859C27.3245 6.48883 27.5377 5.06801 28.1463 3.80107ZM20.0263 41.3711H24.0263C28.2663 41.3711 32.4963 41.3711 36.7363 41.3711C37.1774 41.4028 37.6156 41.2788 37.9747 41.0207C38.3338 40.7626 38.591 40.3868 38.7016 39.9587C38.8122 39.5305 38.7692 39.0771 38.58 38.6774C38.3909 38.2777 38.0675 37.957 37.6663 37.7711L34.9463 36.2011C34.7536 36.0845 34.5315 36.0255 34.3063 36.0311H5.83629C5.64314 36.0169 5.44972 36.0549 5.27629 36.1411C4.27629 36.7211 3.27629 37.2811 2.27629 37.8811C1.85981 38.1116 1.54957 38.4954 1.41141 38.951C1.27325 39.4065 1.31804 39.898 1.53629 40.3211C1.72804 40.6578 2.01346 40.9315 2.35786 41.109C2.70226 41.2866 3.09081 41.3602 3.47629 41.3211L20.0263 41.3711ZM34.4563 12.4911C35.2035 12.4911 35.9434 12.3439 36.6338 12.0579C37.3241 11.772 37.9514 11.3529 38.4797 10.8245C39.0081 10.2961 39.4272 9.66888 39.7132 8.97854C39.9991 8.2882 40.1463 7.54829 40.1463 6.80107C40.1463 6.05385 39.9991 5.31394 39.7132 4.6236C39.4272 3.93326 39.0081 3.306 38.4797 2.77763C37.9514 2.24927 37.3241 1.83014 36.6338 1.54419C35.9434 1.25825 35.2035 1.11107 34.4563 1.11107C32.9472 1.11107 31.4999 1.71055 30.4328 2.77763C29.3658 3.84471 28.7663 5.29199 28.7663 6.80107C28.7663 8.31015 29.3658 9.75743 30.4328 10.8245C31.4999 11.8916 32.9472 12.4911 34.4563 12.4911ZM20.0563 30.6611H15.4363C15.0963 30.6611 14.9763 30.6611 15.0763 31.0811C15.3563 32.1611 15.5963 33.2511 15.8363 34.3411C15.8369 34.3891 15.8481 34.4364 15.8689 34.4797C15.8898 34.523 15.9198 34.5612 15.9569 34.5917C15.9941 34.6222 16.0374 34.6442 16.0839 34.6561C16.1305 34.6681 16.179 34.6698 16.2263 34.6611C18.7863 34.6611 21.3463 34.6611 23.9063 34.6611C24.1463 34.6611 24.2363 34.5711 24.2863 34.3411C24.5163 33.2611 24.7563 32.1911 25.0263 31.1211C25.1163 30.7611 25.0763 30.6511 24.6763 30.6511C23.1463 30.6811 21.5963 30.6611 20.0563 30.6611ZM20.0563 17.2311H13.7063C12.7063 17.2311 12.7063 17.2311 12.7063 18.2311C12.7063 19.0411 12.8863 19.2311 13.7063 19.2311H25.8763C27.4363 19.2311 27.4163 19.2311 27.4263 17.6611C27.4263 17.3111 27.3163 17.2411 26.9963 17.2511C24.6863 17.2411 22.3863 17.2311 20.0863 17.2311H20.0563ZM20.0063 29.2311H24.3263C25.4663 29.2311 25.4663 29.2311 25.6763 28.1111C25.7054 28.0129 25.7116 27.9094 25.6944 27.8085C25.6773 27.7076 25.6373 27.6119 25.5774 27.5289C25.5175 27.4458 25.4394 27.3776 25.3491 27.3295C25.2588 27.2813 25.1586 27.2545 25.0563 27.2511C24.9131 27.2411 24.7694 27.2411 24.6263 27.2511H15.3663C14.5063 27.2511 14.2663 27.5611 14.4663 28.4011C14.5022 28.4915 14.529 28.5853 14.5463 28.6811C14.5463 29.1711 14.8163 29.2611 15.2663 29.2511C16.8563 29.2511 18.4463 29.3211 20.0363 29.3211L20.0063 29.2311ZM20.0763 20.5311H18.9863C18.4663 20.5311 17.7563 20.3511 17.4863 20.6111C17.2163 20.8711 17.4263 21.6111 17.3763 22.1911C17.3763 22.4711 17.4563 22.5511 17.7263 22.5411H21.1463C21.6563 22.5411 22.3663 22.7311 22.6363 22.4611C22.9063 22.1911 22.7063 21.4611 22.7463 20.8811C22.7463 20.6011 22.6663 20.5311 22.3963 20.5311C21.6263 20.5811 20.8663 20.5711 20.1463 20.5711L20.0763 20.5311Z" fill="#EF4C23"/>
<path d="M8.97632 33.3212H7.97632C7.88706 33.3312 7.79668 33.322 7.71126 33.2942C7.62585 33.2664 7.54736 33.2207 7.48106 33.1601C7.41477 33.0994 7.3622 33.0254 7.32689 32.9428C7.29158 32.8602 7.27434 32.771 7.27632 32.6812C7.25132 32.2115 7.25132 31.7408 7.27632 31.2712C7.27497 31.1854 7.29086 31.1003 7.32305 31.0208C7.35524 30.9414 7.40307 30.8692 7.4637 30.8086C7.52432 30.7479 7.59652 30.7001 7.67599 30.6679C7.75546 30.6357 7.84059 30.6198 7.92632 30.6212C8.10697 30.6183 8.28173 30.6854 8.41405 30.8084C8.54638 30.9314 8.62602 31.1008 8.63632 31.2812C8.71632 31.9612 8.71632 31.9612 9.42632 31.9612C9.61953 31.9512 9.81312 31.9512 10.0063 31.9612C10.0954 31.9648 10.1827 31.9866 10.2629 32.0254C10.3432 32.0641 10.4146 32.119 10.4727 32.1865C10.5309 32.254 10.5745 32.3328 10.6009 32.4179C10.6273 32.503 10.636 32.5926 10.6263 32.6812C10.6279 32.7669 10.6116 32.852 10.5786 32.9312C10.5456 33.0103 10.4965 33.0818 10.4345 33.141C10.3725 33.2002 10.2989 33.2459 10.2183 33.2752C10.1377 33.3045 10.0519 33.3167 9.96632 33.3112H8.96632L8.97632 33.3212Z" fill="#EF4C23"/>
<path d="M31.4463 21.2011C31.4463 20.7811 31.4463 20.3611 31.4463 19.9411C31.4408 19.8471 31.4546 19.7531 31.4869 19.6647C31.5191 19.5763 31.569 19.4955 31.6337 19.4271C31.6983 19.3587 31.7762 19.3043 31.8626 19.2671C31.9491 19.23 32.0422 19.2109 32.1363 19.2111C32.2304 19.2093 32.3238 19.2273 32.4105 19.2641C32.4971 19.3008 32.5751 19.3554 32.6392 19.4243C32.7034 19.4931 32.7523 19.5748 32.7828 19.6638C32.8133 19.7528 32.8247 19.8473 32.8163 19.9411C32.8163 20.8111 32.8163 21.6911 32.8163 22.5711C32.8312 22.6661 32.8248 22.7633 32.7975 22.8556C32.7703 22.9479 32.7229 23.0329 32.6588 23.1047C32.5947 23.1764 32.5155 23.2331 32.4269 23.2705C32.3382 23.3079 32.2424 23.3252 32.1463 23.3211C32.0528 23.3252 31.9594 23.3101 31.8721 23.2765C31.7847 23.2429 31.7052 23.1917 31.6385 23.126C31.5719 23.0603 31.5195 22.9815 31.4847 22.8946C31.4499 22.8077 31.4334 22.7146 31.4363 22.6211C31.4263 22.1111 31.4463 21.6611 31.4463 21.2011Z" fill="#EF4C23"/>
<path d="M8.67627 28.321C8.67627 28.641 8.67627 28.971 8.67627 29.321C8.67904 29.415 8.66256 29.5086 8.62786 29.596C8.59316 29.6834 8.54096 29.7627 8.47447 29.8292C8.40798 29.8957 8.32861 29.9479 8.24121 29.9826C8.15382 30.0173 8.06026 30.0338 7.96627 30.031C7.87655 30.0298 7.78799 30.0105 7.70585 29.9744C7.62371 29.9383 7.54967 29.886 7.48811 29.8207C7.42655 29.7554 7.37874 29.6784 7.3475 29.5943C7.31626 29.5102 7.30224 29.4207 7.30627 29.331C7.30627 28.671 7.30627 28.001 7.30627 27.331C7.29454 27.2341 7.3035 27.1358 7.33257 27.0426C7.36164 26.9495 7.41014 26.8635 7.47488 26.7905C7.53962 26.7174 7.61913 26.6589 7.70814 26.6189C7.79716 26.5788 7.89366 26.5581 7.99127 26.5581C8.08888 26.5581 8.18538 26.5788 8.2744 26.6189C8.36341 26.6589 8.44292 26.7174 8.50766 26.7905C8.5724 26.8635 8.6209 26.9495 8.64997 27.0426C8.67904 27.1358 8.688 27.2341 8.67627 27.331C8.68627 27.631 8.66627 27.971 8.67627 28.321Z" fill="#EF4C23"/>
<path d="M32.8263 24.951C32.8412 25.094 32.8412 25.2381 32.8263 25.381C32.8086 25.5447 32.7275 25.695 32.6004 25.7996C32.4733 25.9043 32.3103 25.9551 32.1463 25.941C32.0653 25.9478 31.9838 25.9384 31.9066 25.9133C31.8293 25.8882 31.7579 25.8479 31.6964 25.7948C31.6349 25.7418 31.5846 25.6769 31.5486 25.6041C31.5125 25.5314 31.4913 25.4521 31.4863 25.371C31.4613 25.1116 31.4613 24.8504 31.4863 24.591C31.4745 24.4941 31.4835 24.3958 31.5126 24.3027C31.5416 24.2095 31.5901 24.1235 31.6549 24.0505C31.7196 23.9774 31.7991 23.9189 31.8881 23.8789C31.9771 23.8388 32.0736 23.8181 32.1713 23.8181C32.2689 23.8181 32.3654 23.8388 32.4544 23.8789C32.5434 23.9189 32.6229 23.9774 32.6876 24.0505C32.7524 24.1235 32.8009 24.2095 32.83 24.3027C32.859 24.3958 32.868 24.4941 32.8563 24.591C32.8563 24.701 32.8563 24.811 32.8563 24.931L32.8263 24.951Z" fill="#EF4C23"/>
<path d="M16.7162 14.5311H9.55622C8.84622 14.5311 8.63622 14.3211 8.62622 13.6111V11.3211C8.62622 10.7411 8.87622 10.5011 9.46622 10.5011H23.9662C24.5262 10.5011 24.7662 10.7511 24.7762 11.3011V13.7311C24.7762 14.2911 24.5262 14.5311 23.9662 14.5311H16.7162ZM16.7162 13.1611H22.6062C23.4562 13.1611 23.4262 13.1611 23.4562 12.3011C23.4562 11.9311 23.3562 11.8611 23.0062 11.8611H10.8162C9.98622 11.8611 10.0162 11.8611 9.97622 12.7011C9.97622 13.1011 10.1062 13.1611 10.4662 13.1611C12.5462 13.1511 14.6162 13.1611 16.6862 13.1611H16.7162Z" fill="#EF4C23"/>
<path d="M13.3362 9.16109H9.48622C8.86622 9.16109 8.63622 8.93109 8.62622 8.32109V5.94109C8.62622 5.38109 8.88622 5.12109 9.42622 5.12109H17.2562C17.8162 5.12109 18.0562 5.37109 18.0562 5.92109C18.0562 6.72776 18.0562 7.53776 18.0562 8.35109C18.0562 8.94109 17.8162 9.16109 17.2262 9.16109H13.3362ZM13.3362 7.80109H15.8162C16.7062 7.80109 16.6962 7.80109 16.7062 6.89109C16.7062 6.57109 16.6262 6.48109 16.3062 6.49109H10.8662C9.98622 6.49109 10.0062 6.49109 9.98622 7.39109C9.98622 7.74109 10.0862 7.8211 10.4162 7.8111C11.3862 7.7911 12.3562 7.80109 13.3362 7.80109Z" fill="#EF4C23"/>
<path d="M22.3763 9.16114H20.1463C20.0454 9.17734 19.9422 9.16991 19.8447 9.13943C19.7472 9.10895 19.6581 9.05626 19.5844 8.98549C19.5107 8.91473 19.4545 8.82782 19.4201 8.73163C19.3857 8.63544 19.3741 8.53258 19.3863 8.43115C19.3863 7.57115 19.3863 6.71115 19.3863 5.85115C19.3741 5.74971 19.3857 5.64685 19.4201 5.55066C19.4545 5.45447 19.5107 5.36757 19.5844 5.2968C19.6581 5.22604 19.7472 5.17334 19.8447 5.14286C19.9422 5.11238 20.0454 5.10495 20.1463 5.12115H24.7663C24.8641 5.11498 24.9622 5.13006 25.0537 5.16535C25.1452 5.20064 25.228 5.2553 25.2964 5.3256C25.3648 5.39589 25.4172 5.48015 25.45 5.57259C25.4827 5.66503 25.4951 5.76347 25.4863 5.86115C25.4863 6.71115 25.4863 7.55115 25.4863 8.39115C25.4996 8.49631 25.4885 8.60313 25.4538 8.70332C25.4192 8.8035 25.3619 8.89435 25.2865 8.96882C25.211 9.04329 25.1194 9.09939 25.0188 9.13274C24.9182 9.16609 24.8112 9.17581 24.7063 9.16114H22.3763ZM22.3763 7.80115H23.1463C24.1463 7.80115 24.1463 7.80115 24.0763 6.80115C24.0763 6.54115 23.9863 6.47115 23.7363 6.48115H21.7363C20.6863 6.48115 20.7363 6.48115 20.7363 7.48115C20.7363 7.70115 20.8263 7.75114 21.0263 7.74114L22.3763 7.80115Z" fill="#EF4C23"/>
<path d="M5.60623 12.5312C5.27623 12.5312 4.95623 12.5312 4.60623 12.5312C4.51622 12.5353 4.42632 12.5209 4.34207 12.4889C4.25782 12.457 4.18101 12.4081 4.11637 12.3453C4.05172 12.2826 4.00062 12.2072 3.9662 12.124C3.93178 12.0407 3.91477 11.9512 3.91623 11.8612C3.91196 11.7681 3.92715 11.6752 3.96081 11.5883C3.99448 11.5014 4.04589 11.4226 4.11177 11.3567C4.17764 11.2908 4.25652 11.2394 4.34338 11.2057C4.43024 11.1721 4.52317 11.1569 4.61623 11.1611C5.27623 11.1611 5.94623 11.1611 6.61623 11.1611C6.70574 11.1556 6.79543 11.1687 6.87966 11.1995C6.96388 11.2303 7.04081 11.2782 7.10562 11.3402C7.17043 11.4022 7.22171 11.4769 7.25624 11.5597C7.29076 11.6425 7.30778 11.7315 7.30623 11.8212C7.3104 11.9147 7.29523 12.008 7.26166 12.0954C7.22809 12.1827 7.17685 12.2622 7.11114 12.3289C7.04543 12.3955 6.96667 12.4479 6.87979 12.4827C6.79291 12.5175 6.69978 12.534 6.60623 12.5312C6.28623 12.5512 5.94623 12.5312 5.60623 12.5312Z" fill="#EF4C23"/>
<path d="M5.62631 7.15113C5.28631 7.15113 4.94631 7.15113 4.62631 7.15113C4.54108 7.15519 4.45592 7.1419 4.37599 7.11206C4.29606 7.08223 4.22302 7.03647 4.16131 6.97756C4.09959 6.91865 4.05048 6.84781 4.01696 6.76936C3.98344 6.6909 3.96621 6.60645 3.96631 6.52113C3.95951 6.4323 3.9705 6.34302 3.99863 6.25849C4.02676 6.17396 4.07147 6.09589 4.13013 6.02885C4.18879 5.96181 4.26024 5.90714 4.34028 5.86803C4.42033 5.82893 4.50736 5.80619 4.59631 5.80113C5.29631 5.80113 5.98631 5.80113 6.67631 5.80113C6.76681 5.79817 6.85692 5.81415 6.94089 5.84805C7.02485 5.88194 7.10081 5.93301 7.16389 5.99797C7.22697 6.06293 7.27578 6.14036 7.30719 6.22528C7.3386 6.31021 7.35193 6.40075 7.34631 6.49113C7.35257 6.58115 7.33911 6.67145 7.30687 6.75573C7.27462 6.84001 7.22437 6.91624 7.15962 6.97909C7.09486 7.04194 7.01717 7.08989 6.93197 7.11961C6.84676 7.14932 6.7561 7.16008 6.66631 7.15113H5.62631Z" fill="#EF4C23"/>
<path d="M5.6163 9.84107C5.2763 9.84107 4.9363 9.84107 4.6163 9.84107C4.52654 9.83856 4.4382 9.81803 4.35654 9.78069C4.27487 9.74336 4.20154 9.68999 4.14091 9.62376C4.08027 9.55753 4.03357 9.47979 4.00357 9.39515C3.97358 9.31051 3.9609 9.22071 3.9663 9.13107C3.96483 9.04492 3.98106 8.95938 4.01397 8.87974C4.04688 8.8001 4.09577 8.72806 4.15764 8.66808C4.2195 8.60809 4.29301 8.56144 4.37362 8.53099C4.45423 8.50055 4.54023 8.48696 4.6263 8.49108C5.29297 8.49108 5.95963 8.49108 6.6263 8.49108C6.71586 8.48689 6.80531 8.50128 6.88904 8.53334C6.97277 8.5654 7.04897 8.61443 7.11283 8.67735C7.1767 8.74028 7.22685 8.81574 7.26015 8.89899C7.29344 8.98223 7.30915 9.07146 7.3063 9.16107C7.30765 9.25075 7.29098 9.33978 7.25728 9.42289C7.22359 9.506 7.17355 9.5815 7.11014 9.64491C7.04672 9.70833 6.97122 9.75837 6.88811 9.79206C6.805 9.82576 6.71597 9.84242 6.6263 9.84107C6.3063 9.86107 5.9563 9.84107 5.6163 9.84107Z" fill="#EF4C23"/>
<path d="M34.5262 4.53111C33.9346 4.52646 33.3485 4.64599 32.8059 4.88197C32.2633 5.11796 31.7763 5.46515 31.3762 5.90111C30.9862 6.32111 30.5962 6.38111 30.2862 6.10111C29.9762 5.82111 29.9762 5.40111 30.3862 4.95111C30.9141 4.37986 31.5556 3.92527 32.2695 3.61652C32.9834 3.30778 33.754 3.15169 34.5317 3.15828C35.3095 3.16487 36.0773 3.33399 36.7859 3.65479C37.4945 3.9756 38.1281 4.44099 38.6462 5.02111C38.7857 5.1446 38.8735 5.31616 38.892 5.50153C38.9106 5.6869 38.8585 5.87245 38.7462 6.02111C38.6643 6.08862 38.5696 6.13893 38.4678 6.16901C38.3659 6.1991 38.2591 6.20835 38.1536 6.19621C38.0481 6.18408 37.9462 6.1508 37.8539 6.09838C37.7615 6.04596 37.6807 5.97547 37.6162 5.89111C37.2253 5.46055 36.7481 5.11699 36.2158 4.8827C35.6835 4.64841 35.1078 4.52862 34.5262 4.53111Z" fill="#EF4C23"/>
<path d="M34.4663 5.59106C34.9504 5.59105 35.4279 5.70297 35.8616 5.91808C36.2953 6.13318 36.6734 6.44565 36.9663 6.83106C37.0341 6.89552 37.088 6.97308 37.1249 7.05903C37.1618 7.14498 37.1808 7.23753 37.1808 7.33106C37.1808 7.42459 37.1618 7.51715 37.1249 7.6031C37.088 7.68905 37.0341 7.76661 36.9663 7.83106C36.8156 7.93991 36.6299 7.98892 36.4451 7.9686C36.2604 7.94827 36.0897 7.86006 35.9663 7.72107C34.9163 6.72107 34.1163 6.72107 33.0663 7.72107C33.0073 7.79336 32.9345 7.85331 32.8523 7.89747C32.7701 7.94163 32.6799 7.96914 32.587 7.97843C32.4942 7.98772 32.4004 7.9786 32.311 7.9516C32.2217 7.9246 32.1385 7.88024 32.0663 7.82106C31.9998 7.75589 31.9469 7.6781 31.9109 7.59224C31.8748 7.50638 31.8562 7.41419 31.8562 7.32106C31.8562 7.22794 31.8748 7.13574 31.9109 7.04989C31.9469 6.96403 31.9998 6.88624 32.0663 6.82106C32.3468 6.44743 32.7087 6.14252 33.1245 5.92942C33.5403 5.71632 33.9992 5.60062 34.4663 5.59106Z" fill="#EF4C23"/>
<path d="M33.2563 9.32117C33.2536 8.99401 33.3803 8.67905 33.6088 8.44491C33.8373 8.21077 34.1491 8.07643 34.4763 8.07117C34.8071 8.07625 35.1232 8.20927 35.3581 8.44232C35.593 8.67538 35.7286 8.99035 35.7363 9.32117C35.7242 9.64809 35.5903 9.95869 35.3608 10.1919C35.1314 10.425 34.823 10.5639 34.4963 10.5812C34.1656 10.5759 33.8502 10.4409 33.6182 10.2051C33.3862 9.96939 33.2562 9.6519 33.2563 9.32117Z" fill="#EF4C23"/>
</svg>
