<svg width="38" height="46" viewBox="0 0 38 46" fill="none" xmlns="http://www.w3.org/2000/svg">
<path d="M26.54 0.0199995C26.9158 0.355589 27.3284 0.647456 27.77 0.889999C28.03 1.07 28.09 1.18 27.89 1.47C27.29 2.3 26.75 3.18 26.15 4.02C25.95 4.3 26.01 4.4 26.27 4.59C27.6991 5.58499 28.9105 6.86068 29.8303 8.33927C30.7501 9.81785 31.3591 11.4683 31.62 13.19C31.7241 13.6794 31.7612 14.1806 31.73 14.68C32.4018 14.3188 33.1577 14.1427 33.92 14.17C34.9163 14.2105 35.8597 14.6291 36.5583 15.3406C37.2568 16.0521 37.6579 17.0031 37.68 18C37.68 21.73 37.74 25.47 37.68 29.2C37.6486 29.8427 37.4625 30.4683 37.1377 31.0238C36.8129 31.5793 36.3588 32.0481 35.8141 32.3907C35.2694 32.7332 34.65 32.9393 34.0087 32.9914C33.3673 33.0435 32.7229 32.9401 32.13 32.69C31.78 32.54 31.71 32.57 31.73 32.95C31.7819 33.5306 31.7584 34.1155 31.66 34.69C31.5016 35.3612 31.1169 35.9573 30.5705 36.3781C30.0241 36.7988 29.3494 37.0184 28.66 37C27.77 37 27.77 37 27.77 37.91C27.77 39.24 27.77 40.57 27.77 41.91C27.7819 42.9709 27.372 43.993 26.6302 44.7516C25.8885 45.5102 24.8759 45.9431 23.815 45.955C22.7541 45.9669 21.732 45.557 20.9734 44.8152C20.2148 44.0735 19.7819 43.0609 19.77 42C19.77 40.49 19.77 39 19.77 37.48C19.77 37.06 19.65 36.97 19.27 37C18.914 37.03 18.556 37.03 18.2 37C17.89 37 17.79 37.08 17.79 37.4C17.79 39.03 17.79 40.66 17.79 42.28C17.6348 43.2084 17.1572 44.0523 16.4411 44.6633C15.7251 45.2743 14.8165 45.6132 13.8752 45.6203C12.9339 45.6275 12.0203 45.3025 11.295 44.7025C10.5698 44.1025 10.0793 43.2659 9.91 42.34C9.84 40.8 9.91 39.26 9.91 37.72C9.91 37.01 9.91 37 9.21 37.01C8.41125 37.0651 7.62139 36.8149 7 36.31C6.66188 36.0259 6.39065 35.6706 6.20569 35.2696C6.02073 34.8686 5.92659 34.4316 5.93 33.99C5.93 33.53 5.93 33.06 5.93 32.54C5.29444 32.8615 4.59226 33.0294 3.88 33.03C2.85578 33.0145 1.87786 32.6008 1.15355 31.8764C0.429237 31.1521 0.015482 30.1742 0 29.15C0 25.46 0 21.77 0 18.08C0.00226422 17.4275 0.166549 16.7858 0.478096 16.2125C0.789643 15.6391 1.2387 15.1522 1.78494 14.7953C2.33119 14.4384 2.95752 14.2227 3.6077 14.1677C4.25787 14.1127 4.91154 14.22 5.51 14.48C5.97 14.68 5.97 14.48 6 14.16C6.21785 10.9478 7.64758 7.93818 10 5.74C10.5354 5.23769 11.1107 4.77953 11.72 4.37C11.06 3.37 10.43 2.42 9.72 1.47C9.53 1.2 9.59 1.09 9.84 0.929999C10.3017 0.669301 10.737 0.364548 11.14 0.0199995H11.23C11.81 1.08 12.56 2.02 13.23 3.02C13.39 3.29 13.53 3.36 13.86 3.23C15.4399 2.5527 17.141 2.20345 18.86 2.20345C20.579 2.20345 22.2801 2.5527 23.86 3.23C24.13 3.34 24.24 3.29 24.39 3.06C25.01 2.12 25.65 1.18 26.28 0.24C26.28 0.17 26.41 0.11 26.37 0L26.54 0.0199995ZM18.9 16.16H8.37C8.03 16.16 7.94 16.24 7.96 16.57C7.96 17.44 7.96 18.31 7.96 19.17C7.96 24.0633 7.96 28.95 7.96 33.83C7.96 34.66 8.3 35 9.12 35C9.94 35 10.68 35 11.45 35C11.81 35 11.93 35.07 11.92 35.45C11.92 37.59 11.92 39.73 11.92 41.86C11.916 42.1461 11.9634 42.4306 12.06 42.7C12.248 43.104 12.5655 43.4336 12.9622 43.6366C13.3589 43.8395 13.812 43.9042 14.2496 43.8204C14.6872 43.7365 15.0843 43.5089 15.3779 43.1737C15.6714 42.8385 15.8446 42.4149 15.87 41.97C15.87 39.81 15.87 37.64 15.87 35.48C15.87 35.06 15.99 35 16.37 35C18.01 35 19.65 35 21.3 35C21.76 35 21.89 35.11 21.88 35.58C21.88 37.73 21.88 39.88 21.88 42.03C21.8814 42.3101 21.9441 42.5865 22.0637 42.8399C22.1832 43.0932 22.3568 43.3173 22.5721 43.4964C22.7875 43.6755 23.0394 43.8054 23.3102 43.8768C23.5811 43.9483 23.8643 43.9596 24.14 43.91C24.6291 43.8292 25.0708 43.5696 25.3794 43.1816C25.688 42.7936 25.8414 42.3048 25.81 41.81C25.81 39.67 25.81 37.5333 25.81 35.4C25.81 35.09 25.88 34.99 26.2 35C26.97 35 27.75 35 28.53 35C29.31 35 29.78 34.66 29.78 33.77C29.78 28.04 29.78 22.32 29.78 16.6C29.78 16.26 29.71 16.16 29.35 16.16H18.9ZM18.84 14.16H28.68C29.84 14.16 29.84 14.16 29.58 13C29.0781 10.4648 27.6917 8.19039 25.6682 6.58267C23.6448 4.97495 21.1159 4.1385 18.5328 4.2226C15.9498 4.3067 13.4807 5.30587 11.566 7.04181C9.65144 8.77775 8.41594 11.1375 8.08 13.7C8.03 14.09 8.08 14.17 8.48 14.17C11.91 14.15 15.38 14.16 18.84 14.16ZM5.92 23.6C5.92 21.76 5.92 19.93 5.92 18.09C5.92132 17.8362 5.87231 17.5846 5.77579 17.3499C5.67927 17.1151 5.53716 16.9018 5.35767 16.7223C5.17819 16.5428 4.96491 16.4007 4.73015 16.3042C4.49539 16.2077 4.24382 16.1587 3.99 16.16C3.71694 16.1595 3.44668 16.2149 3.19586 16.3229C2.94504 16.4308 2.71898 16.5889 2.53161 16.7876C2.34423 16.9862 2.19952 17.2211 2.10637 17.4777C2.01322 17.7344 1.97361 18.0074 1.99 18.28C1.99 20.87 1.99 23.47 1.99 26.07C1.99 27.07 1.99 28.07 1.99 29.07C1.99 29.6004 2.20072 30.1091 2.57579 30.4842C2.95086 30.8593 3.45956 31.07 3.99 31.07C4.25267 31.0635 4.51149 31.0053 4.75166 30.8988C4.99184 30.7922 5.20867 30.6394 5.38976 30.449C5.57085 30.2587 5.71265 30.0345 5.80706 29.7893C5.90147 29.5441 5.94665 29.2827 5.94 29.02C5.93 27.18 5.92 25.39 5.92 23.6ZM31.8 23.6C31.8 25.41 31.8 27.22 31.8 29.02C31.7812 29.3339 31.8397 29.6476 31.9705 29.9335C32.1013 30.2195 32.3002 30.469 32.55 30.66C32.8261 30.8862 33.1616 31.0282 33.5162 31.069C33.8708 31.1098 34.2297 31.0476 34.55 30.89C34.899 30.7491 35.1954 30.5029 35.3979 30.1856C35.6005 29.8684 35.6991 29.4959 35.68 29.12C35.68 25.43 35.68 21.74 35.68 18.06C35.677 17.8944 35.6535 17.7298 35.61 17.57C35.4732 17.1253 35.1857 16.7423 34.7969 16.4867C34.4081 16.2312 33.9425 16.1192 33.48 16.17C33.0098 16.2242 32.5762 16.4502 32.2625 16.8046C31.9487 17.1589 31.7769 17.6167 31.78 18.09C31.79 19.91 31.8 21.73 31.8 23.55V23.6Z" fill="#EF4C23"/>
<path d="M24.8301 10.2099C24.8301 11.2099 24.8301 11.2099 23.8301 11.2099C22.8301 11.2099 22.8301 11.2099 22.8301 10.2099C22.8301 9.20993 22.8301 9.20993 23.8301 9.20993C24.8301 9.20993 24.8301 9.17993 24.8301 10.2099Z" fill="#EF4C23"/>
<path d="M14.8901 10.2C14.8901 11.2 14.8901 11.2 13.8901 11.2C12.8901 11.2 12.8901 11.2 12.8901 10.2C12.8901 9.19995 12.8901 9.19995 13.8901 9.19995C14.8901 9.19995 14.8401 9.19995 14.8401 10.13L14.8901 10.2Z" fill="#EF4C23"/>
</svg>
