<svg width="41" height="50" viewBox="0 0 41 50" fill="none" xmlns="http://www.w3.org/2000/svg">
<path d="M39.2643 1.37137L39.5343 1.08212L39.3148 0.752894L39.2948 0.722894L39.1464 0.500211H38.8788H24.7554C24.6335 0.497539 24.5124 0.520223 24.3996 0.566865C24.287 0.61349 24.1853 0.683001 24.1009 0.770934C22.5667 2.30093 21.0374 3.83144 19.5082 5.36184C17.4679 7.4038 15.4278 9.44557 13.3762 11.4857L13.3761 11.4858C11.6198 13.2338 9.86852 14.9854 8.11765 16.7366C5.66767 19.1871 3.2184 21.6368 0.756916 24.075L0.756913 24.075L0.755229 24.0767C0.751027 24.0809 0.745802 24.086 0.739872 24.0919C0.714491 24.117 0.676206 24.1548 0.650059 24.1846C0.64941 24.1853 0.648606 24.1862 0.647658 24.1873C0.621966 24.2161 0.490826 24.3631 0.500504 24.5857C0.509714 24.7975 0.642825 24.9324 0.664165 24.954C0.665126 24.955 0.665861 24.9557 0.666347 24.9562C0.679768 24.9703 0.724295 25.0137 0.744841 25.0336C0.750544 25.0392 0.754399 25.0429 0.755229 25.0438L7.68523 31.9738L7.69058 31.9791L7.6961 31.9843C7.70126 31.9892 7.70985 31.9974 7.72019 32.0074C7.74616 32.0324 7.78309 32.068 7.80385 32.0862C7.80461 32.0868 7.80559 32.0877 7.80678 32.0888C7.83418 32.1134 7.97546 32.2402 8.18878 32.2402C8.40211 32.2402 8.54339 32.1134 8.57078 32.0888C8.57198 32.0877 8.57295 32.0868 8.57371 32.0862C8.59447 32.068 8.6314 32.0324 8.65738 32.0074C8.66771 31.9974 8.67631 31.9892 8.68146 31.9843L8.6871 31.979L8.69257 31.9735L16.2824 24.3737L16.2826 24.3735L39.1124 1.53369L39.1185 1.52763L39.1243 1.52137L39.2643 1.37137Z" stroke="#EF4C23"/>
<path d="M26.7292 35.2279L26.418 34.8389L26.0278 35.1487C25.9506 35.2101 25.8799 35.2792 25.8169 35.3551L19.012 42.1799L18.8896 42.2929L18.5072 42.6459L18.8752 43.0138C19.1674 43.306 19.4581 43.5935 19.748 43.8802C20.1793 44.3067 20.6088 44.7314 21.0387 45.1673C21.3653 45.514 21.7106 45.8491 22.0465 46.1752L22.0497 46.1783C22.0499 46.1784 22.05 46.1786 22.0502 46.1788C22.6475 46.7611 23.2383 47.3538 23.8307 47.9481C24.0286 48.1466 24.2267 48.3453 24.4252 48.5438L24.4323 48.5509L24.4396 48.5577L24.5696 48.6777L24.7133 48.8103H24.9088H39.1188H40.0265L39.5413 48.043C39.4846 47.9534 39.4139 47.8735 39.332 47.8063C35.2672 43.7283 31.1925 39.6603 27.1078 35.6021C27.0412 35.5313 26.9684 35.464 26.9114 35.4114C26.9004 35.4014 26.8901 35.3918 26.8805 35.3829C26.8109 35.3181 26.7644 35.272 26.7292 35.2279Z" stroke="#EF4C23"/>
<path d="M18.7395 28.2013L18.3375 28.9402H19.0016L23.0947 33.0433L23.0947 33.0433L23.0971 33.0457L25.8245 35.7431C25.825 35.7437 25.8282 35.7473 25.8407 35.7614L25.8411 35.7619C25.8539 35.7763 25.8818 35.8079 25.917 35.8397C25.9961 35.9113 26.1406 36.0102 26.3487 36.0102H26.542L26.685 35.8802L26.795 35.7802L26.8043 35.7718L26.8131 35.7629L39.0712 23.445C39.1962 23.3509 39.2892 23.2195 39.3361 23.0689L39.5381 22.4202H38.8587H24.866C24.7392 22.4171 24.6131 22.4409 24.496 22.4899C24.3798 22.5387 24.2751 22.6113 24.1887 22.703L18.9401 27.9517C18.8589 28.0221 18.791 28.1067 18.7395 28.2013Z" stroke="#EF4C23"/>
<path d="M19.1787 27.9402H19.0976L19.0206 27.9658L18.9306 27.9958L18.8182 28.0333L18.7345 28.1173L15.9945 30.8673L15.9856 30.8763L15.9771 30.8857L15.8871 30.9857L15.7343 31.1555L15.7393 31.1963C15.1944 31.6965 14.818 32.0672 14.2047 32.7583C13.8142 33.1985 13.4206 33.5944 13.0197 33.9976C12.7784 34.2404 12.5345 34.4857 12.287 34.7449L12.287 34.7449L12.284 34.7482C12.237 34.7983 12.1742 34.8596 12.1045 34.9278C12.0761 34.9556 12.0465 34.9845 12.0163 35.0143C11.9693 35.0607 11.9187 35.1114 11.8784 35.1556C11.8592 35.1767 11.8333 35.206 11.8095 35.2384C11.798 35.2539 11.7788 35.2811 11.7604 35.3159L11.7597 35.3172C11.7486 35.338 11.6987 35.4317 11.6987 35.5602V35.5604V35.5607V35.5609V35.5611V35.5614V35.5616V35.5618V35.5621V35.5623V35.5626V35.5628V35.5631V35.5633V35.5636V35.5638V35.564V35.5643V35.5645V35.5648V35.565V35.5653V35.5656V35.5658V35.5661V35.5663V35.5666V35.5668V35.5671V35.5673V35.5676V35.5679V35.5681V35.5684V35.5686V35.5689V35.5692V35.5694V35.5697V35.57V35.5702V35.5705V35.5708V35.571V35.5713V35.5716V35.5718V35.5721V35.5724V35.5727V35.5729V35.5732V35.5735V35.5738V35.574V35.5743V35.5746V35.5749V35.5751V35.5754V35.5757V35.576V35.5763V35.5765V35.5768V35.5771V35.5774V35.5777V35.578V35.5782V35.5785V35.5788V35.5791V35.5794V35.5797V35.58V35.5802V35.5805V35.5808V35.5811V35.5814V35.5817V35.582V35.5823V35.5826V35.5829V35.5832V35.5835V35.5837V35.584V35.5843V35.5846V35.5849V35.5852V35.5855V35.5858V35.5861V35.5864V35.5867V35.587V35.5873V35.5876V35.5879V35.5882V35.5885V35.5888V35.5891V35.5894V35.5897V35.59V35.5903V35.5906V35.5909V35.5912V35.5915V35.5918V35.5921V35.5924V35.5927V35.5931V35.5934V35.5937V35.594V35.5943V35.5946V35.5949V35.5952V35.5955V35.5958V35.5961V35.5964V35.5967V35.597V35.5974V35.5977V35.598V35.5983V35.5986V35.5989V35.5992V35.5995V35.5998V35.6001V35.6004V35.6008V35.6011V35.6014V35.6017V35.602V35.6023V35.6026V35.6029V35.6032V35.6036V35.6039V35.6042V35.6045V35.6048V35.6051V35.6054V35.6057V35.6061V35.6064V35.6067V35.607V35.6073V35.6076V35.6079V35.6082V35.6086V35.6089V35.6092V35.6095V35.6098V35.6101V35.6104V35.6107V35.6111V35.6114V35.6117V35.612V35.6123V35.6126V35.6129V35.6132V35.6136V35.6139V35.6142V35.6145V35.6148V35.6151V35.6154V35.6157V35.616V35.6164V35.6167V35.617V35.6173V35.6176V35.6179V35.6182V35.6185V35.6188V35.6191V35.6195V35.6198V35.6201V35.6204V35.6207V35.621V35.6213V35.6216V35.6219V35.6222V35.6225V35.6229V35.6232V35.6235V35.6238V35.6241V35.6244V35.6247V35.625V35.6253V35.6256V35.6259V35.6262V35.6265V35.6268V35.6271V35.6274V35.6277V35.628V35.6283V35.6286V35.6289V35.6292V35.6295V35.6298V35.6301V35.6304V35.6307V35.631V35.6313V35.6316V35.6319V35.6322V35.6325V35.6328V35.6331V35.6334V35.6337V35.634V35.6343V35.6346V35.6349V35.6352V35.6355V35.6358V35.6361V35.6364V35.6366V35.6369V35.6372V35.6375V35.6378V35.6381V35.6384V35.6387V35.639V35.6392V35.6395V35.6398V35.6401V35.6404V35.6407V35.6409V35.6412V35.6415V35.6418V35.6421V35.6424V35.6426V35.6429V35.6432V35.6435V35.6437V35.644V35.6443V35.6446V35.6448V35.6451V35.6454V35.6457V35.6459V35.6462V35.6465V35.6468V35.647V35.6473V35.6476V35.6478V35.6481V35.6484V35.6486V35.6489V35.6492V35.6494V35.6497V35.6499V35.6502V35.6505V35.6507V35.651V35.6512V35.6515V35.6517V35.652V35.6523V35.6525V35.6528V35.653V35.6533V35.6535V35.6538V35.654V35.6543V35.6545V35.6548V35.655V35.6553V35.6555V35.6557V35.656V35.6562V35.6565V35.6567V35.6569V35.6572V35.6574V35.6577V35.6579V35.6581V35.6584V35.6586V35.6588V35.659V35.6593V35.6595V35.6597V35.66V35.6602V35.6604V35.6606V35.6609V35.6611V35.6613V35.6615V35.6617V35.662V35.6622V35.6624V35.6626V35.6628V35.663V35.6632V35.6635V35.6637V35.6639V35.6641V35.6643V35.6645V35.6647V35.6649V35.6651V35.6653V35.6655V35.6657V35.6659V35.6661V35.6663V35.6665V35.6667V35.6669V35.6671V35.6673V35.6674V35.6676V35.6678V35.668V35.6682V35.6684V35.6685V35.6687V35.6689V35.6691V35.6693V35.6694V35.6696V35.6698V35.67V35.6701V35.6703V35.6705V35.6706V35.6708V35.671V35.6711V35.6713V35.6715V35.6716V35.6718V35.6719V35.6721V35.6722V35.6724V35.6725V35.6727V35.6728V35.673V35.6731V35.6733V35.6734V35.6736V35.6737V35.6738V35.674V35.6741V35.6743V35.6744V35.6745V35.6747V35.6748V35.6749V35.675V35.6752V35.6753V35.6754V35.6755V35.6757V35.6758V35.6759V35.676V35.6761V35.6762V35.6763V35.6765V35.6766V35.6767V35.6768V35.6769V35.677V35.6771V35.6772V35.6773V35.6774V35.6775V35.6776V35.6777V35.6777V35.6778V35.6779V35.678V35.6781V35.6782V35.6783V35.6783V35.6784V35.6785V35.6786V35.6786V35.6787V35.6788V35.6788V35.6789V35.679V35.679V35.6791V35.6792V35.6792V35.6793V35.6793V35.6794V35.6794V35.6795V35.6795V35.6796V35.6796V35.6797V35.6797V35.6798V35.6798V35.6798V35.6799V35.6799V35.6799V35.68V35.68V35.68V35.68V35.6801V35.6801V35.6801V35.6801V35.6801V35.6801V35.6802V35.6802V35.6802V35.6802V35.6802V35.9155L11.8801 36.0655C11.8849 36.0695 11.8894 36.074 11.8934 36.0788L11.9091 36.0978L11.9266 36.1151C12.3839 36.5688 12.8411 37.0276 13.2997 37.4879C14.1057 38.2968 14.9161 39.1101 15.7391 39.9077C16.0479 40.2123 16.3594 40.525 16.6722 40.839C17.08 41.2482 17.4899 41.6597 17.8987 42.0583V42.1013L18.038 42.2465C18.2826 42.5012 18.54 42.7588 18.8096 43.0076L18.9532 43.1402H19.1487H19.2187H19.4142L19.5579 43.0076L19.6879 42.8876L19.6953 42.8807L19.7025 42.8735L26.5525 36.0135L26.5587 36.0073L26.5646 36.0009C26.5856 35.9785 26.6088 35.9583 26.634 35.9408L27.9448 35.0302H26.5177C26.5052 35.0203 26.4908 35.0097 26.4746 34.9992L23.8036 32.3379L23.8016 32.336L19.6974 28.2017C19.6958 28.2 19.6922 28.1958 19.685 28.1876C19.6725 28.1732 19.6446 28.1413 19.6082 28.1085C19.5286 28.0369 19.3845 27.9402 19.1787 27.9402ZM15.8589 31.0629L15.8589 31.0629C15.8593 31.0625 15.8594 31.0625 15.8589 31.0629ZM26.629 35.1412C26.6306 35.1429 26.6315 35.1439 26.6315 35.1439C26.6315 35.1439 26.6306 35.1431 26.629 35.1412Z" stroke="#EF4C23"/>
<path d="M19.2187 42.6902V42.1902H19.2187H19.2187H19.2187H19.2187H19.2187H19.2186H19.2186H19.2186H19.2186H19.2186H19.2186H19.2186H19.2185H19.2185H19.2185H19.2185H19.2185H19.2184H19.2184H19.2184H19.2184H19.2183H19.2183H19.2183H19.2182H19.2182H19.2182H19.2181H19.2181H19.218H19.218H19.218H19.2179H19.2179H19.2178H19.2178H19.2177H19.2177H19.2176H19.2176H19.2175H19.2175H19.2174H19.2174H19.2173H19.2172H19.2172H19.2171H19.2171H19.217H19.2169H19.2169H19.2168H19.2167H19.2167H19.2166H19.2165H19.2165H19.2164H19.2163H19.2162H19.2162H19.2161H19.216H19.2159H19.2158H19.2158H19.2157H19.2156H19.2155H19.2154H19.2153H19.2153H19.2152H19.2151H19.215H19.2149H19.2148H19.2147H19.2146H19.2145H19.2144H19.2143H19.2142H19.2141H19.214H19.2139H19.2138H19.2137H19.2136H19.2135H19.2134H19.2133H19.2132H19.2131H19.213H19.2129H19.2127H19.2126H19.2125H19.2124H19.2123H19.2122H19.2121H19.2119H19.2118H19.2117H19.2116H19.2115H19.2113H19.2112H19.2111H19.211H19.2108H19.2107H19.2106H19.2105H19.2103H19.2102H19.2101H19.2099H19.2098H19.2097H19.2096H19.2094H19.2093H19.2092H19.209H19.2089H19.2087H19.2086H19.2085H19.2083H19.2082H19.208H19.2079H19.2078H19.2076H19.2075H19.2073H19.2072H19.207H19.2069H19.2067H19.2066H19.2064H19.2063H19.2061H19.206H19.2058H19.2057H19.2055H19.2054H19.2052H19.2051H19.2049H19.2048H19.2046H19.2045H19.2043H19.2041H19.204H19.2038H19.2037H19.2035H19.2033H19.2032H19.203H19.2029H19.2027H19.2025H19.2024H19.2022H19.202H19.2019H19.2017H19.2015H19.2014H19.2012H19.201H19.2009H19.2007H19.2005H19.2004H19.2002H19.2H19.1999H19.1997H19.1995H19.1993H19.1992H19.199H19.1988H19.1986H19.1985H19.1983H19.1981H19.1979H19.1978H19.1976H19.1974H19.1972H19.1971H19.1969H19.1967H19.1965H19.1963H19.1962H19.196H19.1958H19.1956H19.1954H19.1953H19.1951H19.1949H19.1947H19.1945H19.1944H19.1942H19.194H19.1938H19.1936H19.1934H19.1933H19.1931H19.1929H19.1927H19.1925H19.1923H19.1921H19.192H19.1918H19.1916H19.1914H19.1912H19.191H19.1908H19.1906H19.1905H19.1903H19.1901H19.1899H19.1897H19.1895H19.1893H19.1891H19.189H19.1888H19.1886H19.1884H19.1882H19.188H19.1878H19.1876H19.1874H19.1872H19.1871H19.1869H19.1867H19.1865H19.1863H19.1861H19.1859H19.1857H19.1855H19.1853H19.1851H19.1849H19.1848H19.1846H19.1844H19.1842H19.184H19.1838H19.1836H19.1834H19.1832H19.183H19.1828H19.1826H19.1825H19.1823H19.1821H19.1819H19.1817H19.1815H19.1813H19.1811H19.1809H19.1807H19.1805H19.1803H19.1802H19.18H19.1798H19.1796H19.1794H19.1792H19.179H19.1788H19.1786H19.1784H19.1782H19.1781H19.1779H19.1777H19.1775H19.1773H19.1771H19.1769H19.1767H19.1765H19.1764H19.1762H19.176H19.1758H19.1756H19.1754H19.1752H19.175H19.1748H19.1747H19.1745H19.1743H19.1741H19.1739H19.1737H19.1735H19.1734H19.1732H19.173H19.1728H19.1726H19.1724H19.1723H19.1721H19.1719H19.1717H19.1715H19.1713H19.1712H19.171H19.1708H19.1706H19.1704H19.1702H19.1701H19.1699H19.1697H19.1695H19.1693H19.1692H19.169H19.1688H19.1686H19.1685H19.1683H19.1681H19.1679H19.1678H19.1676H19.1674H19.1672H19.1671H19.1669H19.1667H19.1665H19.1664H19.1662H19.166H19.1659H19.1657H19.1655H19.1653H19.1652H19.165H19.1648H19.1647H19.1645H19.1643H19.1642H19.164H19.1638H19.1637H19.1635H19.1633H19.1632H19.163H19.1629H19.1627H19.1625H19.1624H19.1622H19.1621H19.1619H19.1617H19.1616H19.1614H19.1613H19.1611H19.161H19.1608H19.1607H19.1605H19.1603H19.1602H19.16H19.1599H19.1597H19.1596H19.1594H19.1593H19.1591H19.159H19.1589H19.1587H19.1586H19.1584H19.1583H19.1581H19.158H19.1579H19.1577H19.1576H19.1574H19.1573H19.1572H19.157H19.1569H19.1567H19.1566H19.1565H19.1563H19.1562H19.1561H19.1559H19.1558H19.1557H19.1556H19.1554H19.1553H19.1552H19.1551H19.1549H19.1548H19.1547H19.1546H19.1544H19.1543H19.1542H19.1541H19.154H19.1538H19.1537H19.1536H19.1535H19.1534H19.1533H19.1532H19.153H19.1529H19.1528H19.1527H19.1526H19.1525H19.1524H19.1523H19.1522H19.1521H19.152H19.1519H19.1518H19.1517H19.1516H19.1515H19.1514H19.1513H19.1512H19.1511H19.151H19.1509H19.1508H19.1508H19.1507H19.1506H19.1505H19.1504H19.1503H19.1502H19.1502H19.1501H19.15H19.1499H19.1498H19.1498H19.1497H19.1496H19.1495H19.1495H19.1494H19.1493H19.1493H19.1492H19.1491H19.1491H19.149H19.1489H19.1489H19.1488H19.1487H19.1487V42.6902V43.1902H19.1487H19.1488H19.1489H19.1489H19.149H19.1491H19.1491H19.1492H19.1493H19.1493H19.1494H19.1495H19.1495H19.1496H19.1497H19.1498H19.1498H19.1499H19.15H19.1501H19.1502H19.1502H19.1503H19.1504H19.1505H19.1506H19.1507H19.1508H19.1508H19.1509H19.151H19.1511H19.1512H19.1513H19.1514H19.1515H19.1516H19.1517H19.1518H19.1519H19.152H19.1521H19.1522H19.1523H19.1524H19.1525H19.1526H19.1527H19.1528H19.1529H19.153H19.1532H19.1533H19.1534H19.1535H19.1536H19.1537H19.1538H19.154H19.1541H19.1542H19.1543H19.1544H19.1546H19.1547H19.1548H19.1549H19.1551H19.1552H19.1553H19.1554H19.1556H19.1557H19.1558H19.1559H19.1561H19.1562H19.1563H19.1565H19.1566H19.1567H19.1569H19.157H19.1572H19.1573H19.1574H19.1576H19.1577H19.1579H19.158H19.1581H19.1583H19.1584H19.1586H19.1587H19.1589H19.159H19.1591H19.1593H19.1594H19.1596H19.1597H19.1599H19.16H19.1602H19.1603H19.1605H19.1607H19.1608H19.161H19.1611H19.1613H19.1614H19.1616H19.1617H19.1619H19.1621H19.1622H19.1624H19.1625H19.1627H19.1629H19.163H19.1632H19.1633H19.1635H19.1637H19.1638H19.164H19.1642H19.1643H19.1645H19.1647H19.1648H19.165H19.1652H19.1653H19.1655H19.1657H19.1659H19.166H19.1662H19.1664H19.1665H19.1667H19.1669H19.1671H19.1672H19.1674H19.1676H19.1678H19.1679H19.1681H19.1683H19.1685H19.1686H19.1688H19.169H19.1692H19.1693H19.1695H19.1697H19.1699H19.1701H19.1702H19.1704H19.1706H19.1708H19.171H19.1712H19.1713H19.1715H19.1717H19.1719H19.1721H19.1723H19.1724H19.1726H19.1728H19.173H19.1732H19.1734H19.1735H19.1737H19.1739H19.1741H19.1743H19.1745H19.1747H19.1748H19.175H19.1752H19.1754H19.1756H19.1758H19.176H19.1762H19.1764H19.1765H19.1767H19.1769H19.1771H19.1773H19.1775H19.1777H19.1779H19.1781H19.1782H19.1784H19.1786H19.1788H19.179H19.1792H19.1794H19.1796H19.1798H19.18H19.1802H19.1803H19.1805H19.1807H19.1809H19.1811H19.1813H19.1815H19.1817H19.1819H19.1821H19.1823H19.1825H19.1826H19.1828H19.183H19.1832H19.1834H19.1836H19.1838H19.184H19.1842H19.1844H19.1846H19.1848H19.1849H19.1851H19.1853H19.1855H19.1857H19.1859H19.1861H19.1863H19.1865H19.1867H19.1869H19.1871H19.1872H19.1874H19.1876H19.1878H19.188H19.1882H19.1884H19.1886H19.1888H19.189H19.1891H19.1893H19.1895H19.1897H19.1899H19.1901H19.1903H19.1905H19.1906H19.1908H19.191H19.1912H19.1914H19.1916H19.1918H19.192H19.1921H19.1923H19.1925H19.1927H19.1929H19.1931H19.1933H19.1934H19.1936H19.1938H19.194H19.1942H19.1944H19.1945H19.1947H19.1949H19.1951H19.1953H19.1954H19.1956H19.1958H19.196H19.1962H19.1963H19.1965H19.1967H19.1969H19.1971H19.1972H19.1974H19.1976H19.1978H19.1979H19.1981H19.1983H19.1985H19.1986H19.1988H19.199H19.1992H19.1993H19.1995H19.1997H19.1999H19.2H19.2002H19.2004H19.2005H19.2007H19.2009H19.201H19.2012H19.2014H19.2015H19.2017H19.2019H19.202H19.2022H19.2024H19.2025H19.2027H19.2029H19.203H19.2032H19.2033H19.2035H19.2037H19.2038H19.204H19.2041H19.2043H19.2045H19.2046H19.2048H19.2049H19.2051H19.2052H19.2054H19.2055H19.2057H19.2058H19.206H19.2061H19.2063H19.2064H19.2066H19.2067H19.2069H19.207H19.2072H19.2073H19.2075H19.2076H19.2078H19.2079H19.208H19.2082H19.2083H19.2085H19.2086H19.2087H19.2089H19.209H19.2092H19.2093H19.2094H19.2096H19.2097H19.2098H19.2099H19.2101H19.2102H19.2103H19.2105H19.2106H19.2107H19.2108H19.211H19.2111H19.2112H19.2113H19.2115H19.2116H19.2117H19.2118H19.2119H19.2121H19.2122H19.2123H19.2124H19.2125H19.2126H19.2127H19.2129H19.213H19.2131H19.2132H19.2133H19.2134H19.2135H19.2136H19.2137H19.2138H19.2139H19.214H19.2141H19.2142H19.2143H19.2144H19.2145H19.2146H19.2147H19.2148H19.2149H19.215H19.2151H19.2152H19.2153H19.2153H19.2154H19.2155H19.2156H19.2157H19.2158H19.2158H19.2159H19.216H19.2161H19.2162H19.2162H19.2163H19.2164H19.2165H19.2165H19.2166H19.2167H19.2167H19.2168H19.2169H19.2169H19.217H19.2171H19.2171H19.2172H19.2172H19.2173H19.2174H19.2174H19.2175H19.2175H19.2176H19.2176H19.2177H19.2177H19.2178H19.2178H19.2179H19.2179H19.218H19.218H19.218H19.2181H19.2181H19.2182H19.2182H19.2182H19.2183H19.2183H19.2183H19.2184H19.2184H19.2184H19.2184H19.2185H19.2185H19.2185H19.2185H19.2185H19.2186H19.2186H19.2186H19.2186H19.2186H19.2186H19.2186H19.2187H19.2187H19.2187H19.2187H19.2187H19.2187V42.6902Z" stroke="#EF4C23"/>
</svg>
