<svg width="39" height="39" viewBox="0 0 39 39" fill="none" xmlns="http://www.w3.org/2000/svg">
<path d="M19.059 2.99163L19.0478 2.99108L19.0365 2.99103C14.9554 2.97472 11.0249 4.53124 8.06147 7.33724C6.49924 8.80435 5.24585 10.5688 4.37486 12.5269C3.50374 14.4854 3.03272 16.5982 2.98946 18.7412C2.94619 20.8843 3.33156 23.0144 4.12292 25.0064C4.91398 26.9977 6.09477 28.8109 7.596 30.3396C10.1626 33.0054 13.5982 34.6649 17.2817 35.0183C19.3551 35.2584 21.4556 35.0878 23.463 34.516C25.4403 33.9528 27.2892 33.0113 28.9074 31.7441C29.4333 32.4265 30.1006 32.9856 30.8622 33.384C28.5525 35.2855 25.8145 36.5998 22.8823 37.2116L22.8788 37.2123C19.2957 37.9873 15.5612 37.6478 12.1766 36.2394L12.1766 36.2393L12.1662 36.2352C9.82715 35.3225 7.70222 33.9356 5.9251 32.1618C4.14797 30.3881 2.75709 28.2658 1.83993 25.9284L1.8401 25.9283L1.83475 25.9157C0.762933 23.3898 0.326105 20.6399 0.562436 17.9062C0.935577 13.9817 2.11722 10.6876 4.09555 8.00666C6.07388 5.32567 8.86932 3.23005 12.5132 1.73403C14.8892 0.772257 17.4529 0.36388 20.0102 0.53985L20.0101 0.539972L20.0212 0.540488C24.1165 0.73129 28.0284 2.29468 31.1271 4.97896L31.1292 4.98075C33.6205 7.11495 35.5016 9.87133 36.5809 12.9691C37.6269 15.971 37.8837 19.1895 37.3293 22.3162C36.6016 21.8593 35.7845 21.5615 34.9319 21.4432C35.2801 19.2208 35.1492 16.9491 34.5473 14.7804C33.9323 12.5646 32.8404 10.5099 31.3481 8.76035C28.7411 5.57664 24.987 3.5454 20.8958 3.10474C20.4544 3.04341 19.9753 3.02633 19.5244 3.01025C19.3648 3.00456 19.2087 2.99899 19.059 2.99163Z" stroke="#EF4C23"/>
<path d="M19.0364 10.891C20.6492 10.8858 22.2277 11.3574 23.5733 12.2467C24.9189 13.136 25.9716 14.4033 26.599 15.8893C27.2264 17.3753 27.4004 19.0136 27.0993 20.5982C26.7982 22.1828 26.0353 23.643 24.9065 24.7953C23.7778 25.9475 22.3336 26.7403 20.7555 27.074C19.1774 27.4077 17.5359 27.2674 16.0373 26.6708C14.5387 26.0741 13.25 25.0478 12.3332 23.7207C11.4163 22.3937 10.9123 20.8253 10.8844 19.2127C10.8669 18.1294 11.0646 17.0534 11.466 16.047C11.8674 15.0405 12.4645 14.1237 13.2228 13.3497C13.981 12.5757 14.8853 11.9598 15.8833 11.5377C16.8812 11.1157 17.9529 10.8959 19.0364 10.891Z" stroke="#EF4C23"/>
<path d="M33.9047 31.191C33.2084 31.1908 32.528 30.9828 31.9506 30.5938C31.3731 30.2048 30.9248 29.6524 30.6629 29.0073C30.4011 28.3621 30.3376 27.6535 30.4807 26.9721C30.6237 26.2906 30.9667 25.6673 31.4659 25.1819C31.965 24.6965 32.5976 24.371 33.2828 24.247C33.9679 24.123 34.6745 24.2062 35.3121 24.4859C35.9497 24.7656 36.4894 25.2292 36.8622 25.8173C37.2349 26.4054 37.4238 27.0913 37.4047 27.7873C37.3796 28.6988 36.9998 29.5645 36.3461 30.2002C35.6925 30.8359 34.8165 31.1914 33.9047 31.191Z" stroke="#EF4C23"/>
</svg>
