<svg width="39" height="39" viewBox="0 0 39 39" fill="none" xmlns="http://www.w3.org/2000/svg">
<path d="M19.0345 3.49103C15.0816 3.47522 11.2746 4.98298 8.40448 7.70103C6.89046 9.12269 5.67576 10.8325 4.83171 12.7301C3.98766 14.6278 3.53128 16.6749 3.48936 18.7513C3.44743 20.8278 3.82083 22.8917 4.5876 24.8218C5.35437 26.7519 6.49907 28.5094 7.95448 29.991C10.4396 32.573 13.7671 34.18 17.3345 34.521C19.3442 34.7545 21.3802 34.5893 23.3261 34.0351C25.2719 33.4809 27.0894 32.5484 28.6745 31.291C28.9345 31.081 29.0445 31.081 29.2445 31.361C29.8036 32.1139 30.5476 32.7098 31.4045 33.091C31.7045 33.221 31.7145 33.321 31.4645 33.531C29.0341 35.613 26.1172 37.0474 22.9845 37.701C19.3016 38.4975 15.4633 38.1486 11.9845 36.701C9.58113 35.7632 7.39782 34.3382 5.57188 32.5157C3.74593 30.6932 2.31684 28.5126 1.37448 26.111C0.270478 23.5093 -0.179299 20.6767 0.0644798 17.861C0.82448 9.86103 4.89448 4.32103 12.3245 1.27103C14.7711 0.280448 17.4111 -0.140178 20.0445 0.0410296C24.2519 0.237056 28.2709 1.84326 31.4545 4.60103C34.0129 6.79273 35.9447 9.62336 37.0531 12.8046C38.1615 15.9859 38.407 19.404 37.7645 22.711C37.7145 22.991 37.6645 23.161 37.3345 22.921C36.5634 22.3717 35.6652 22.0275 34.7245 21.921C34.4745 21.921 34.3645 21.831 34.4145 21.511C34.7806 19.3129 34.6615 17.0613 34.0655 14.9141C33.4695 12.7669 32.4111 10.776 30.9645 9.08103C28.4388 5.99459 24.7999 4.02608 20.8345 3.60103C20.2645 3.52103 19.6445 3.52103 19.0345 3.49103Z" fill="#EF4C23"/>
<path d="M19.0344 10.391C20.746 10.3854 22.421 10.8859 23.8489 11.8296C25.2769 12.7732 26.3939 14.118 27.0596 15.6948C27.7254 17.2716 27.9101 19.01 27.5905 20.6915C27.271 22.373 26.4614 23.9225 25.2637 25.1452C24.066 26.3678 22.5335 27.2091 20.8589 27.5632C19.1844 27.9173 17.4425 27.7684 15.8524 27.1353C14.2622 26.5022 12.8947 25.4131 11.9218 24.0049C10.9489 22.5967 10.414 20.9324 10.3844 19.221C10.3659 18.0715 10.5757 16.9297 11.0016 15.8618C11.4275 14.7939 12.061 13.8211 12.8656 12.9998C13.6701 12.1785 14.6297 11.525 15.6886 11.0772C16.7475 10.6294 17.8847 10.3962 19.0344 10.391Z" fill="#EF4C23"/>
<path d="M33.9045 31.691C33.1087 31.6907 32.3312 31.4531 31.6712 31.0085C31.0112 30.5639 30.4989 29.9326 30.1996 29.1953C29.9004 28.4579 29.8278 27.6481 29.9913 26.8693C30.1548 26.0906 30.5468 25.3782 31.1173 24.8235C31.6878 24.2687 32.4107 23.8967 33.1938 23.755C33.9768 23.6133 34.7843 23.7084 35.513 24.028C36.2417 24.3477 36.8585 24.8775 37.2845 25.5496C37.7105 26.2217 37.9264 27.0056 37.9045 27.801C37.8758 28.8427 37.4418 29.8321 36.6947 30.5586C35.9477 31.2851 34.9466 31.6914 33.9045 31.691Z" fill="#EF4C23"/>
</svg>
