<svg width="26" height="44" viewBox="0 0 26 44" fill="none" xmlns="http://www.w3.org/2000/svg">
<path d="M12.6307 5.48126C8.63073 5.48126 4.54073 5.48126 0.490727 5.48126C0.100727 5.48126 -0.0192683 5.39127 0.0107317 4.99127C-0.0160562 4.13064 0.00731638 3.26918 0.0807314 2.41126C0.172011 1.87732 0.452855 1.39422 0.871694 1.0507C1.29053 0.707182 1.81924 0.526297 2.36073 0.541266H5.26073C5.37592 0.56067 5.49428 0.544219 5.5998 0.494139C5.70533 0.444058 5.79292 0.362768 5.85073 0.261267C6.00073 0.00126684 6.60073 0.0312668 6.79073 0.261267C6.98073 0.491267 7.31073 0.631267 7.59073 0.261267C7.87073 -0.108733 8.39073 -0.038735 8.50073 0.181265C8.61073 0.401265 8.94073 0.511267 9.24073 0.511267H22.8707C23.4037 0.480905 23.9307 0.636919 24.3613 0.952562C24.7919 1.26821 25.0993 1.72381 25.2307 2.24127C25.3057 2.71739 25.3259 3.20055 25.2907 3.68127C25.2907 4.12127 25.2907 4.56126 25.2907 5.00126C25.2907 5.44126 25.2007 5.45127 24.8507 5.45127C23.3807 5.45127 21.9207 5.45127 20.4507 5.45127L12.6307 5.48126ZM11.3607 3.48126C12.0407 3.48126 12.7307 3.48126 13.4207 3.48126C13.7407 3.48126 13.9907 3.38127 13.9807 3.03127C13.9707 2.68127 13.7507 2.59126 13.4407 2.59126H9.27073C8.97073 2.59126 8.74073 2.70127 8.74073 3.03127C8.74073 3.36127 8.97073 3.48126 9.30073 3.48126C9.98073 3.45126 10.6707 3.46127 11.3607 3.46127V3.48126ZM16.0507 3.48126C16.3707 3.48126 16.6007 3.37127 16.5907 3.03127C16.5807 2.69127 16.3707 2.59126 16.0507 2.59126C15.7307 2.59126 15.5007 2.68127 15.5007 3.05127C15.5007 3.42127 15.7507 3.47127 16.0507 3.46127V3.48126Z" fill="#EF4C23"/>
<path d="M12.6406 38.3813C16.6406 38.3813 20.7506 38.3813 24.8106 38.3813C25.2006 38.3813 25.3206 38.4813 25.3006 38.8713C25.3006 39.5813 25.3006 40.3013 25.3006 41.0213C25.3047 41.3271 25.2471 41.6305 25.1311 41.9134C25.0151 42.1963 24.8431 42.4528 24.6255 42.6676C24.4079 42.8824 24.1491 43.0511 23.8648 43.1634C23.5804 43.2757 23.2762 43.3295 22.9706 43.3213H2.57059C2.22908 43.3552 1.88431 43.3131 1.56093 43.1982C1.23756 43.0833 0.943548 42.8984 0.699927 42.6567C0.456307 42.415 0.269092 42.1225 0.151656 41.8C0.0342202 41.4775 -0.0105374 41.1331 0.0205907 40.7913V39.0213C0.0205907 38.3813 0.0205913 38.3813 0.630591 38.3813H12.6406ZM12.6406 41.2913H14.7506C15.0706 41.2913 15.2606 41.1513 15.2506 40.8213C15.2406 40.4913 15.0406 40.4013 14.7506 40.4013H10.6106C10.3106 40.4013 10.0706 40.4913 10.0606 40.8213C10.0506 41.1513 10.2906 41.2913 10.6206 41.2913H12.6406Z" fill="#EF4C23"/>
<path d="M24.3907 22.0113V35.3313C24.3907 36.0313 24.2407 36.1813 23.5407 36.1813H5.11068C5.02409 36.1863 4.93728 36.1863 4.85068 36.1813C4.55068 36.1813 4.28068 36.0713 4.25068 35.7213C4.22068 35.3713 4.51069 35.3013 4.76069 35.2413C4.92006 35.2213 5.0813 35.2213 5.24068 35.2413H22.8407C23.5707 35.2413 23.5107 35.3213 23.5107 34.5913V8.4813C23.5107 8.1513 23.5107 7.85131 23.9407 7.87131C24.3707 7.89131 24.3907 8.17131 24.3907 8.50131V22.0113Z" fill="#EF4C23"/>
<path d="M20.4005 17.0914H22.2505C22.5705 17.0914 22.9105 17.0914 22.9105 17.5214C22.9105 17.9514 22.5605 17.9714 22.2305 17.9714H18.7505C18.5091 17.9549 18.2668 17.9882 18.0386 18.0692C17.8105 18.1501 17.6014 18.277 17.4243 18.4419C17.2472 18.6069 17.1057 18.8064 17.0088 19.0282C16.9118 19.25 16.8614 19.4893 16.8605 19.7314C16.8641 19.9734 16.9168 20.2123 17.0154 20.4334C17.1139 20.6546 17.2563 20.8534 17.4339 21.0179C17.6115 21.1825 17.8207 21.3092 18.0487 21.3906C18.2767 21.472 18.5189 21.5063 18.7605 21.4914C19.478 21.4429 20.1986 21.4697 20.9105 21.5714C21.5465 21.7095 22.1087 22.0785 22.4884 22.6071C22.8681 23.1356 23.0383 23.7862 22.9662 24.433C22.894 25.0798 22.5846 25.6769 22.0978 26.1088C21.611 26.5407 20.9813 26.7768 20.3305 26.7714C19.0905 26.7714 17.8405 26.7714 16.6005 26.7714C16.2805 26.7714 15.9805 26.7714 15.9805 26.3414C15.9805 25.9114 16.2905 25.8914 16.6205 25.8914H20.2305C20.6973 25.8914 21.145 25.7059 21.475 25.3759C21.8051 25.0458 21.9906 24.5981 21.9906 24.1314C21.9906 23.6646 21.8051 23.2169 21.475 22.8868C21.145 22.5568 20.6973 22.3714 20.2305 22.3714C19.4997 22.4199 18.7659 22.393 18.0405 22.2914C17.4055 22.1534 16.844 21.7851 16.4644 21.2576C16.0847 20.7301 15.9138 20.0808 15.9847 19.4348C16.0555 18.7887 16.363 18.1918 16.8478 17.7591C17.3327 17.3264 17.9607 17.0885 18.6105 17.0914C19.1705 17.0814 19.7505 17.0914 20.4005 17.0914Z" fill="#EF4C23"/>
<path d="M7.31054 21.9714C7.30154 21.3037 7.32825 20.6361 7.39054 19.9714C7.53752 19.1112 8.00048 18.3371 8.68865 17.8006C9.37682 17.2641 10.2406 17.004 11.1105 17.0713C11.4005 17.0713 11.6305 17.1913 11.6305 17.5313C11.6305 17.8713 11.4105 17.9613 11.1005 17.9613C10.7081 17.9232 10.3121 17.9732 9.94135 18.1075C9.57064 18.2419 9.23459 18.4573 8.9577 18.738C8.6808 19.0188 8.47004 19.3577 8.34078 19.7303C8.21153 20.1028 8.16703 20.4994 8.21054 20.8913C8.21054 21.7813 8.15054 22.6813 8.21054 23.5713C8.29091 24.2288 8.61726 24.8313 9.12395 25.2578C9.63063 25.6843 10.28 25.9031 10.9415 25.8702C11.603 25.8372 12.2275 25.555 12.6892 25.0803C13.151 24.6055 13.4159 23.9735 13.4305 23.3113C13.5271 22.1137 13.4835 20.9089 13.3005 19.7214C13.2874 19.6673 13.2857 19.6112 13.2955 19.5565C13.3053 19.5018 13.3264 19.4497 13.3575 19.4036C13.3885 19.3575 13.4289 19.3183 13.4759 19.2887C13.5229 19.259 13.5756 19.2395 13.6305 19.2314C13.6837 19.2131 13.74 19.2063 13.796 19.2113C13.8519 19.2163 13.9062 19.233 13.9552 19.2603C14.0043 19.2877 14.047 19.3251 14.0807 19.37C14.1143 19.415 14.1381 19.4666 14.1505 19.5214C14.2397 19.7654 14.2903 20.0218 14.3005 20.2813C14.3907 21.4797 14.3907 22.683 14.3005 23.8814C14.1765 24.696 13.7681 25.4405 13.1478 25.983C12.5274 26.5255 11.7351 26.831 10.9112 26.8453C10.0872 26.8597 9.28479 26.5821 8.64591 26.0615C8.00704 25.541 7.57296 24.8112 7.42054 24.0013C7.34475 23.3274 7.30802 22.6496 7.31054 21.9714Z" fill="#EF4C23"/>
<path d="M4.75071 21.9713C4.75071 23.1613 4.75071 24.3513 4.75071 25.5313C4.75071 25.8313 4.84071 25.9313 5.12071 25.8913C5.29706 25.8764 5.47436 25.8764 5.65071 25.8913C5.70904 25.8876 5.76746 25.8971 5.82164 25.919C5.87583 25.9409 5.9244 25.9747 5.96376 26.0179C6.00313 26.0611 6.03228 26.1126 6.04906 26.1686C6.06584 26.2246 6.06982 26.2836 6.06071 26.3413C6.06848 26.3966 6.06366 26.4529 6.04661 26.506C6.02956 26.5591 6.00072 26.6076 5.96225 26.648C5.92378 26.6884 5.87667 26.7196 5.82446 26.7392C5.77224 26.7588 5.71627 26.7664 5.66071 26.7613H2.89071C2.83293 26.7613 2.77571 26.75 2.72233 26.7278C2.66895 26.7057 2.62044 26.6733 2.57958 26.6325C2.53873 26.5916 2.50631 26.5431 2.4842 26.4897C2.46209 26.4363 2.45071 26.3791 2.45071 26.3213C2.45071 26.2636 2.46209 26.2063 2.4842 26.153C2.50631 26.0996 2.53873 26.0511 2.57958 26.0102C2.62044 25.9694 2.66895 25.9369 2.72233 25.9148C2.77571 25.8927 2.83293 25.8813 2.89071 25.8813H3.02071C3.86071 25.8813 3.86071 25.8813 3.86071 25.0413C3.86071 22.8113 3.86071 20.5813 3.86071 18.3613C3.86071 18.0313 3.79071 17.9113 3.46071 17.9613C3.27101 17.9763 3.08042 17.9763 2.89071 17.9613C2.83136 17.9657 2.77177 17.9573 2.71588 17.9369C2.66 17.9164 2.6091 17.8844 2.56655 17.8428C2.52401 17.8011 2.49078 17.751 2.46909 17.6956C2.44739 17.6402 2.43772 17.5808 2.44071 17.5213C2.43441 17.462 2.44146 17.402 2.46134 17.3458C2.48123 17.2895 2.51345 17.2384 2.55564 17.1963C2.59782 17.1541 2.64891 17.1219 2.70516 17.102C2.7614 17.0821 2.82138 17.075 2.88071 17.0813C3.81071 17.0813 4.73071 17.0813 5.65071 17.0813C5.70663 17.0766 5.7629 17.0843 5.81549 17.1038C5.86809 17.1234 5.91569 17.1544 5.95489 17.1945C5.99409 17.2347 6.0239 17.283 6.0422 17.3361C6.0605 17.3891 6.06682 17.4456 6.06071 17.5013C6.06622 17.5565 6.06074 17.6123 6.04459 17.6654C6.02843 17.7184 6.00192 17.7678 5.96659 17.8105C5.93126 17.8533 5.88781 17.8887 5.83874 17.9145C5.78967 17.9404 5.73596 17.9563 5.68071 17.9613C5.62082 17.9663 5.56061 17.9663 5.50071 17.9613C4.75071 17.9613 4.75071 17.9613 4.75071 18.7513V21.9713Z" fill="#EF4C23"/>
<path d="M2.59071 36.2213C2.34608 36.2529 2.09746 36.2184 1.87071 36.1213C1.78839 36.0899 1.71803 36.0335 1.66957 35.9599C1.62112 35.8863 1.59703 35.7993 1.60071 35.7113C1.60511 35.6217 1.6388 35.536 1.6966 35.4673C1.75441 35.3987 1.83313 35.3509 1.92071 35.3313C2.26893 35.2216 2.64248 35.2216 2.99071 35.3313C3.21071 35.4013 3.36071 35.5113 3.36071 35.7613C3.35967 35.8651 3.32197 35.9652 3.25426 36.0439C3.18655 36.1226 3.0932 36.1748 2.99071 36.1913C2.85866 36.2143 2.7247 36.2243 2.59071 36.2213Z" fill="#EF4C23"/>
<path d="M12.8006 18.6813C12.5206 18.6213 12.3306 18.4813 12.3506 18.2113C12.3515 18.1525 12.3649 18.0946 12.3896 18.0413C12.4144 17.988 12.4501 17.9405 12.4944 17.9018C12.5387 17.8632 12.5906 17.8343 12.6468 17.817C12.703 17.7997 12.7622 17.7943 12.8206 17.8013C12.8806 17.8001 12.9401 17.8124 12.9947 17.8373C13.0492 17.8622 13.0975 17.8991 13.1359 17.9452C13.1744 17.9913 13.2019 18.0454 13.2166 18.1036C13.2312 18.1618 13.2326 18.2225 13.2206 18.2813C13.2006 18.5413 13.0106 18.6413 12.8006 18.6813Z" fill="#EF4C23"/>
<path d="M11.3605 3.46129C10.6705 3.46129 9.98054 3.46129 9.30054 3.46129C8.97054 3.46129 8.73054 3.37129 8.74054 3.01129C8.75054 2.65129 8.97053 2.57129 9.27053 2.57129H13.4405C13.7505 2.57129 13.9705 2.69129 13.9805 3.01129C13.9905 3.33129 13.7405 3.46129 13.4205 3.46129C12.7505 3.45129 12.0405 3.46129 11.3605 3.46129Z" fill="#EF4C23"/>
<path d="M16.0505 3.46129C15.7305 3.46129 15.5105 3.38129 15.5005 3.03129C15.4905 2.68129 15.7305 2.57129 16.0505 2.57129C16.3705 2.57129 16.5905 2.69129 16.5905 3.01129C16.5905 3.33129 16.3705 3.49129 16.0505 3.46129Z" fill="#EF4C23"/>
<path d="M12.6406 41.2914H10.6406C10.3106 41.2914 10.0706 41.1714 10.0806 40.8214C10.0906 40.4714 10.3306 40.4014 10.6306 40.4014H14.7506C15.0406 40.4014 15.2406 40.5014 15.2506 40.8214C15.2606 41.1414 15.0706 41.2914 14.7506 41.2914H12.6406Z" fill="#EF4C23"/>
</svg>
