<svg width="36" height="40" viewBox="0 0 36 40" fill="none" xmlns="http://www.w3.org/2000/svg">
<path d="M0.146936 19.5144V4.87859C0.146936 3.58471 0.662909 2.34382 1.58135 1.42891C2.4998 0.513994 3.74548 0 5.04436 0H33.6943C34.6248 0 35.4084 0.170752 35.7757 1.09768C35.9623 1.53005 35.9858 2.01505 35.8418 2.4633C35.6978 2.91156 35.3961 3.29287 34.9921 3.53698C29.1887 8.65951 23.4342 13.782 17.6063 18.8802C16.8227 19.5632 16.8961 19.8559 17.6063 20.5145C23.3118 25.3931 28.9683 30.54 34.7473 35.565C35.0166 35.8089 35.3105 36.0528 35.5553 36.3211C35.7856 36.5654 35.9349 36.8742 35.9831 37.2058C36.0313 37.5374 35.976 37.8758 35.8247 38.175C35.7164 38.4965 35.5089 38.7757 35.2319 38.9728C34.9549 39.17 34.6224 39.2749 34.282 39.2727H2.44871C0.661153 39.2727 0 38.736 0 36.9797L0.146936 19.5144ZM29.3846 35.5406C24.2668 31.0035 19.3693 26.6859 14.4964 22.3196C13.9822 21.8561 13.7618 22.1488 13.419 22.4415C11.0927 24.5149 8.86434 26.7347 6.39114 28.613L5.43615 29.4179C4.93767 29.9135 4.59607 30.5438 4.45365 31.2308C4.31123 31.9179 4.37424 32.6314 4.63489 33.2832C4.89554 33.9349 5.34238 34.4961 5.92005 34.8974C6.49773 35.2986 7.18086 35.5222 7.88486 35.5406C14.7168 35.5406 21.5242 35.5406 28.3561 35.5406H29.3846ZM8.12975 22.3196L24.1933 8.07407C24.5998 7.72465 24.8886 7.25928 25.0209 6.74094C25.1531 6.22259 25.1223 5.6763 24.9326 5.17597C24.7429 4.67564 24.4035 4.24543 23.9603 3.94356C23.5171 3.6417 22.9916 3.48274 22.4547 3.4882H19.2959C19.0764 3.50137 18.8616 3.55773 18.6641 3.65402C18.4665 3.75032 18.2901 3.88464 18.145 4.04923L4.18732 16.3921C4.04215 16.4993 3.92438 16.6392 3.84355 16.8002C3.76272 16.9612 3.72109 17.139 3.72206 17.319C3.72206 18.3435 3.72206 19.3436 3.72206 20.3681C3.70998 20.8819 3.849 21.3879 4.122 21.824C4.39501 22.26 4.79007 22.607 5.25854 22.8222C5.727 23.0373 6.24843 23.1113 6.75859 23.035C7.26874 22.9587 7.74536 22.7355 8.12975 22.3928V22.3196ZM8.12975 8.07407C8.52449 7.71746 8.80187 7.25037 8.92555 6.73402C9.04923 6.21767 9.01343 5.67614 8.82284 5.1804C8.63225 4.68467 8.29576 4.25785 7.85747 3.95589C7.41919 3.65393 6.89956 3.49091 6.36667 3.4882H4.35873C3.99142 3.4882 3.72206 3.4882 3.72206 4.00045C3.72206 4.5127 3.72206 5.41524 3.72206 6.12264C3.69833 6.64108 3.83029 7.15479 4.10108 7.59816C4.37187 8.04152 4.76921 8.3944 5.24232 8.61172C5.71543 8.82903 6.24283 8.90092 6.75715 8.81818C7.27147 8.73545 7.74935 8.50186 8.12975 8.14725V8.07407Z" fill="#EF4C23"/>
</svg>
