<svg width="32" height="45" viewBox="0 0 32 45" fill="none" xmlns="http://www.w3.org/2000/svg">
<path d="M3.86 44.75C3.7 44.6 3.49 44.62 3.3 44.57C2.35432 44.2783 1.52546 43.6943 0.932533 42.9019C0.339602 42.1095 0.0131191 41.1496 0 40.16V4.59C0.00792286 3.36991 0.498167 2.20248 1.36373 1.34254C2.22929 0.4826 3.39988 -2.57228e-05 4.62 1.02825e-09H23.38C24.6036 -2.86523e-06 25.7772 0.485372 26.6433 1.34963C27.5094 2.21388 27.9974 3.38643 28 4.61C28 13.19 28 21.77 28 30.35V30.89C28.5005 30.7638 29.0223 30.7468 29.53 30.84C30.1539 30.9702 30.7145 31.3101 31.1184 31.8031C31.5223 32.2962 31.7452 32.9127 31.75 33.55C31.75 36.95 31.75 40.34 31.75 43.74C31.7433 43.9439 31.6846 44.1428 31.5796 44.3178C31.4747 44.4928 31.3268 44.6381 31.15 44.74H30.45C30.2262 44.5898 30.0486 44.3801 29.9373 44.1346C29.8261 43.889 29.7854 43.6174 29.82 43.35C29.82 40.13 29.82 36.91 29.82 33.69C29.82 33.01 29.47 32.61 28.9 32.61C28.33 32.61 27.98 33.03 27.97 33.7C27.96 34.37 27.97 34.84 27.97 35.41C27.9702 35.6446 27.8799 35.8702 27.7178 36.0397C27.5557 36.2093 27.3343 36.3097 27.1 36.32C26.9786 36.3338 26.8556 36.3227 26.7386 36.2875C26.6216 36.2522 26.5131 36.1935 26.4195 36.1149C26.3259 36.0363 26.2493 35.9395 26.1944 35.8303C26.1395 35.7212 26.1074 35.602 26.1 35.48C26.09 35.3068 26.09 35.1332 26.1 34.96C26.1 34.16 26.1 33.36 26.1 32.56C26.1018 32.4388 26.0782 32.3185 26.0308 32.2069C25.9834 32.0953 25.9132 31.9949 25.8247 31.912C25.7362 31.8292 25.6313 31.7658 25.5169 31.7258C25.4024 31.6858 25.2808 31.6702 25.16 31.68C24.62 31.68 24.29 32.07 24.28 32.68C24.28 33.55 24.28 34.43 24.28 35.3C24.2936 35.4309 24.2795 35.5632 24.2387 35.6883C24.1978 35.8134 24.1312 35.9286 24.0431 36.0263C23.9549 36.1241 23.8473 36.2022 23.727 36.2557C23.6068 36.3092 23.4766 36.3368 23.345 36.3368C23.2134 36.3368 23.0832 36.3092 22.963 36.2557C22.8427 36.2022 22.7351 36.1241 22.6469 36.0263C22.5588 35.9286 22.4922 35.8134 22.4513 35.6883C22.4105 35.5632 22.3964 35.4309 22.41 35.3V31.8C22.4196 31.6629 22.4009 31.5253 22.3549 31.3958C22.309 31.2663 22.2369 31.1476 22.1431 31.0472C22.0492 30.9468 21.9357 30.8668 21.8096 30.8122C21.6834 30.7577 21.5474 30.7297 21.41 30.73C21.1499 30.7578 20.911 30.8865 20.7446 31.0884C20.5782 31.2903 20.4976 31.5493 20.52 31.81C20.52 32.96 20.52 34.11 20.52 35.26C20.5328 35.4013 20.5155 35.5436 20.4691 35.6777C20.4227 35.8117 20.3484 35.9343 20.2509 36.0374C20.1535 36.1405 20.0353 36.2217 19.9041 36.2756C19.7729 36.3295 19.6317 36.3548 19.49 36.35C19.2371 36.3127 19.0081 36.18 18.8501 35.9792C18.692 35.7783 18.6168 35.5245 18.64 35.27V27.27C18.64 26.57 18.64 25.87 18.64 25.17C18.6454 25.0533 18.6272 24.9366 18.5865 24.8271C18.5458 24.7175 18.4835 24.6173 18.4032 24.5324C18.323 24.4475 18.2264 24.3796 18.1193 24.3328C18.0123 24.286 17.8969 24.2612 17.78 24.26C17.18 24.26 16.78 24.64 16.78 25.36C16.78 29.28 16.78 33.2 16.78 37.12C16.8025 37.2932 16.7793 37.4692 16.7126 37.6306C16.6459 37.792 16.5382 37.9332 16.4 38.04C16.2417 38.1447 16.0587 38.2062 15.8693 38.2185C15.6799 38.2308 15.4905 38.1934 15.32 38.11C14.13 37.7 12.93 37.3 11.73 36.91C11.6351 36.8605 11.5312 36.8305 11.4246 36.8218C11.3179 36.8131 11.2105 36.826 11.1089 36.8595C11.0072 36.8931 10.9134 36.9467 10.8328 37.0172C10.7523 37.0877 10.6867 37.1737 10.64 37.27C10.5558 37.4627 10.546 37.6797 10.6125 37.8792C10.679 38.0786 10.817 38.2464 11 38.35C11.73 38.97 12.47 39.58 13.2 40.21C14.334 41.1006 15.4189 42.052 16.45 43.06C17.1 43.74 16.97 44.33 16.13 44.71L3.86 44.75ZM26.11 29.99V29.48C26.11 22.31 26.11 15.15 26.11 7.98C26.11 7.56 26.01 7.45 25.58 7.46C17.8533 7.46 10.12 7.46 2.38 7.46C1.94 7.46 1.86 7.59 1.86 8C1.86 17.1733 1.86 26.35 1.86 35.53C1.86 36.01 1.86 36.53 1.86 36.97C1.86 37.21 1.92 37.3 2.17 37.3H8.4C8.62 37.3 8.71 37.3 8.77 37C8.92116 36.3472 9.31581 35.7767 9.87334 35.405C10.4309 35.0333 11.1093 34.8885 11.77 35C12.6891 35.2036 13.5865 35.495 14.45 35.87C14.82 36 14.91 35.95 14.91 35.55C14.91 32.91 14.91 30.27 14.91 27.64C14.91 27 14.99 27.08 14.35 27.08H6.85C6.61697 27.0992 6.38246 27.072 6.16 27C5.97727 26.9093 5.82664 26.7649 5.72833 26.5862C5.63002 26.4074 5.58873 26.2029 5.61 26C5.65362 25.7723 5.77985 25.5688 5.96443 25.4285C6.14902 25.2882 6.37893 25.2211 6.61 25.24H14.5C14.84 25.24 14.93 25.15 14.97 24.82C15.035 24.1718 15.328 23.5677 15.7968 23.1153C16.2657 22.663 16.8799 22.3918 17.53 22.35C17.9215 22.3233 18.3143 22.3789 18.683 22.5132C19.0517 22.6475 19.3882 22.8575 19.6709 23.1298C19.9535 23.402 20.1759 23.7304 20.3239 24.0939C20.4719 24.4573 20.5421 24.8478 20.53 25.24C20.53 26.4 20.53 27.55 20.53 28.7C20.53 28.83 20.45 29.04 20.76 28.97C21.2894 28.8248 21.8502 28.8426 22.3693 29.021C22.8884 29.1993 23.3417 29.5301 23.67 29.97C23.76 30.07 23.82 30.15 23.99 30.07C24.3183 29.9096 24.6764 29.8196 25.0415 29.8058C25.4066 29.792 25.7706 29.8548 26.11 29.99ZM14 5.59H25.4C26.11 5.59 26.11 5.59 26.11 4.89C26.1448 4.49669 26.0949 4.10048 25.9635 3.72813C25.8322 3.35577 25.6224 3.01594 25.3485 2.73158C25.0745 2.44721 24.7428 2.22493 24.3756 2.07975C24.0084 1.93456 23.6143 1.86986 23.22 1.89C17.0667 1.89 10.9167 1.89 4.77 1.89C4.17103 1.85389 3.57661 2.01397 3.07677 2.34599C2.57694 2.67801 2.19893 3.16388 2 3.73C1.88157 4.19371 1.82773 4.67156 1.84 5.15C1.84 5.52 1.92 5.6 2.29 5.6L14 5.59ZM13.3 42.88C12.2 41.94 11.21 41.06 10.19 40.22C9.77 39.88 9.47 39.33 8.96 39.22C8.41224 39.1498 7.85776 39.1498 7.31 39.22H2.25C2.1 39.22 1.87 39.12 1.88 39.43C1.86902 39.8765 1.90928 40.3227 2 40.76C2.15394 41.3957 2.52711 41.9568 3.05387 42.3445C3.58064 42.7323 4.22725 42.9219 4.88 42.88C7.13 42.88 9.39 42.88 11.64 42.88H13.3Z" fill="#EF4C23"/>
<path d="M18.6598 16.49L16.8698 18.88L16.5998 19.22C16.5284 19.3292 16.435 19.4224 16.3256 19.4935C16.2163 19.5647 16.0933 19.6123 15.9645 19.6333C15.8357 19.6543 15.704 19.6483 15.5776 19.6156C15.4513 19.583 15.3332 19.5243 15.2307 19.4435C15.1283 19.3627 15.0438 19.2614 14.9827 19.1461C14.9215 19.0309 14.885 18.9041 14.8755 18.774C14.866 18.6439 14.8837 18.5132 14.9275 18.3903C14.9713 18.2673 15.0402 18.1549 15.1298 18.06C15.8198 17.12 16.5098 16.19 17.2298 15.27C17.2787 15.2269 17.3179 15.1738 17.3448 15.1143C17.3716 15.0548 17.3855 14.9903 17.3855 14.925C17.3855 14.8598 17.3716 14.7952 17.3448 14.7358C17.3179 14.6763 17.2787 14.6232 17.2298 14.58C16.5098 13.66 15.8198 12.73 15.1298 11.79C15.0238 11.6641 14.9527 11.5125 14.9237 11.3505C14.8946 11.1884 14.9087 11.0216 14.9643 10.8667C15.02 10.7118 15.1154 10.5742 15.241 10.4677C15.3665 10.3613 15.5179 10.2896 15.6798 10.26C15.8742 10.2314 16.0727 10.2608 16.2506 10.3444C16.4284 10.428 16.5777 10.5621 16.6798 10.73L18.4298 13.07L18.6498 13.33L20.5898 10.74C20.6918 10.5721 20.8411 10.438 21.019 10.3544C21.1968 10.2708 21.3954 10.2414 21.5898 10.27C21.752 10.3014 21.9029 10.3755 22.027 10.4846C22.151 10.5937 22.2438 10.7338 22.2958 10.8907C22.3477 11.0475 22.3569 11.2154 22.3225 11.3769C22.288 11.5385 22.2112 11.688 22.0998 11.81C21.4331 12.75 20.7331 13.68 19.9998 14.6C19.9567 14.6394 19.9224 14.6873 19.8988 14.7406C19.8753 14.794 19.8632 14.8517 19.8632 14.91C19.8632 14.9684 19.8753 15.026 19.8988 15.0794C19.9224 15.1328 19.9567 15.1807 19.9998 15.22C20.6898 16.12 21.3698 17.03 21.9998 17.94C22.1338 18.0287 22.2445 18.1483 22.3224 18.2888C22.4004 18.4293 22.4433 18.5866 22.4477 18.7472C22.452 18.9078 22.4175 19.0671 22.3472 19.2116C22.2769 19.3561 22.1728 19.4815 22.0438 19.5772C21.9147 19.6729 21.7645 19.7361 21.6058 19.7615C21.4471 19.7868 21.2847 19.7736 21.1322 19.7228C20.9798 19.6721 20.8418 19.5854 20.73 19.47C20.6181 19.3546 20.5357 19.214 20.4898 19.06L18.6598 16.49Z" fill="#EF4C23"/>
<path d="M13.0698 13.9699C13.1381 14.8967 13.1146 15.8278 12.9998 16.7499C12.7893 17.6403 12.258 18.4218 11.5076 18.9452C10.7571 19.4685 9.84013 19.6969 8.93188 19.5868C8.02363 19.4767 7.18782 19.0357 6.58419 18.3482C5.98057 17.6607 5.65148 16.7748 5.65982 15.8599C5.65982 14.3499 5.65982 12.8599 5.65982 11.3199C5.65982 10.6699 6.04982 10.2299 6.59982 10.2399C6.85272 10.2577 7.08944 10.3708 7.26209 10.5565C7.43475 10.7421 7.53044 10.9864 7.52982 11.2399C7.52982 12.7199 7.52982 14.2399 7.52982 15.6899C7.51031 15.9712 7.55604 16.2531 7.66345 16.5138C7.77086 16.7745 7.93705 17.0068 8.14903 17.1926C8.36102 17.3785 8.61309 17.5129 8.88556 17.5852C9.15803 17.6576 9.44354 17.6661 9.71982 17.6099C10.161 17.5307 10.5587 17.2949 10.8398 16.9458C11.1209 16.5967 11.2665 16.1578 11.2498 15.7099C11.2498 14.2399 11.2498 12.7599 11.2498 11.2899C11.2361 11.157 11.2491 11.0226 11.2882 10.8947C11.3273 10.7669 11.3917 10.6482 11.4774 10.5456C11.5632 10.443 11.6687 10.3587 11.7876 10.2976C11.9065 10.2365 12.0365 10.1999 12.1698 10.1899C12.3072 10.1896 12.4433 10.2176 12.5694 10.2722C12.6955 10.3267 12.809 10.4067 12.9029 10.5071C12.9967 10.6075 13.0688 10.7262 13.1148 10.8557C13.1607 10.9853 13.1794 11.1229 13.1698 11.2599C13.0798 12.1399 13.0698 12.9699 13.0698 13.9699Z" fill="#EF4C23"/>
<path d="M9.35987 23.3499H6.69986C6.56039 23.3639 6.41953 23.3485 6.28641 23.3045C6.1533 23.2606 6.03091 23.1892 5.92718 23.0949C5.82346 23.0006 5.74072 22.8855 5.68433 22.7572C5.62794 22.6288 5.59916 22.4901 5.59987 22.3499C5.59987 21.7799 6.02987 21.4199 6.68987 21.4099H11.9999C12.6699 21.4099 13.0999 21.7999 13.0899 22.4099C13.0824 22.544 13.0479 22.6753 12.9886 22.7958C12.9293 22.9163 12.8462 23.0237 12.7445 23.1114C12.6428 23.1991 12.5244 23.2655 12.3965 23.3065C12.2685 23.3474 12.1336 23.3622 11.9999 23.3499H9.35987Z" fill="#EF4C23"/>
<path d="M8.40991 30.77H6.56991C6.44369 30.7796 6.31685 30.7632 6.19716 30.7221C6.07747 30.6809 5.96744 30.6157 5.87382 30.5305C5.7802 30.4453 5.70496 30.3419 5.6527 30.2266C5.60045 30.1113 5.57227 29.9866 5.56991 29.86C5.55381 29.7317 5.56588 29.6014 5.60527 29.4782C5.64466 29.355 5.71044 29.2419 5.79801 29.1467C5.88558 29.0515 5.99285 28.9765 6.11234 28.927C6.23184 28.8775 6.36068 28.8547 6.48991 28.86C7.74324 28.86 8.99324 28.86 10.2399 28.86C10.3695 28.8549 10.4987 28.8778 10.6186 28.9272C10.7385 28.9767 10.8463 29.0514 10.9346 29.1464C11.0229 29.2414 11.0897 29.3543 11.1303 29.4775C11.1709 29.6006 11.1844 29.7311 11.1699 29.86C11.1623 29.9835 11.1303 30.1044 11.0759 30.2155C11.0215 30.3267 10.9456 30.426 10.8527 30.5077C10.7598 30.5895 10.6516 30.6521 10.5345 30.692C10.4173 30.7318 10.2934 30.7482 10.1699 30.74L8.40991 30.77Z" fill="#EF4C23"/>
</svg>
