<svg width="31" height="46" viewBox="0 0 31 46" fill="none" xmlns="http://www.w3.org/2000/svg">
<path d="M18.2372 0.0300007C18.7072 0.220001 19.2372 0.27 19.6772 0.51C20.3595 0.811006 20.9394 1.30416 21.346 1.92924C21.7527 2.55432 21.9685 3.28428 21.9672 4.03C22.052 5.25877 22.4628 6.44273 23.1572 7.46C23.2972 7.7 23.5572 7.63 23.7572 7.65C24.3179 7.70852 24.8598 7.88488 25.3475 8.16751C25.8352 8.45015 26.2577 8.83267 26.5872 9.29C27.1466 10.0478 27.4417 10.9682 27.4272 11.91C27.4272 14.14 27.4272 16.36 27.4272 18.59C27.4272 18.91 27.4872 19.03 27.8372 19C29.5972 18.83 30.5472 19.72 30.4272 21.66C30.3672 22.66 30.4272 23.59 30.4272 24.55C30.4433 24.8322 30.3994 25.1145 30.2984 25.3785C30.1974 25.6424 30.0416 25.882 29.8413 26.0814C29.641 26.2807 29.4007 26.4354 29.1363 26.5351C28.8719 26.6349 28.5893 26.6774 28.3072 26.66C27.4272 26.66 27.4272 26.66 27.4272 27.54V33.72C27.4531 34.3887 27.3165 35.0537 27.0292 35.658C26.7418 36.2624 26.3122 36.788 25.7772 37.19C25.228 37.6236 24.5642 37.8877 23.8672 37.95C23.7088 37.9532 23.5544 37.9997 23.4204 38.0842C23.2865 38.1688 23.1782 38.2884 23.1072 38.43C22.493 39.5615 22.1186 40.8074 22.0072 42.09C21.9044 42.8421 21.5849 43.548 21.0877 44.1215C20.5905 44.6951 19.9371 45.1115 19.2072 45.32C18.6754 45.5131 18.1129 45.608 17.5472 45.6C14.9972 45.6 12.4472 45.6 9.89722 45.6C9.08703 45.6351 8.28316 45.443 7.57635 45.0454C6.86955 44.6478 6.28795 44.0606 5.89722 43.35C5.61575 42.9201 5.45355 42.4232 5.42722 41.91C5.41093 40.5851 5.00392 39.2945 4.25722 38.2C4.13722 38.01 3.97722 38.01 3.80722 37.99C3.25397 37.955 2.71405 37.8053 2.22171 37.5505C1.72937 37.2957 1.29536 36.9414 0.947221 36.51C0.32608 35.7603 -0.00722731 34.8135 0.00722267 33.84C0.00722267 26.5067 0.00722267 19.1533 0.00722267 11.78C-0.0501118 10.8474 0.235406 9.9261 0.810037 9.1894C1.38467 8.45269 2.20877 7.95144 3.12722 7.78C4.32722 7.58 4.59722 6.78 4.97722 5.99C5.25686 5.36009 5.40326 4.67918 5.40722 3.99C5.4433 3.03511 5.81179 2.12281 6.44901 1.41072C7.08624 0.698632 7.95218 0.23149 8.89722 0.0900002C8.95722 0.0900002 9.04722 0.09 9.07722 0L18.2372 0.0300007ZM1.56722 22.81C1.56722 26.45 1.56722 30.1 1.56722 33.75C1.55057 34.1074 1.60785 34.4643 1.73548 34.7986C1.8631 35.1328 2.05833 35.4371 2.30895 35.6924C2.55957 35.9477 2.86018 36.1485 3.19197 36.2823C3.52376 36.4161 3.8796 36.48 4.23722 36.47C10.5572 36.47 16.8906 36.47 23.2372 36.47C23.5902 36.4741 23.9404 36.4071 24.267 36.273C24.5936 36.1389 24.8898 35.9404 25.138 35.6894C25.3862 35.4384 25.5814 35.14 25.7118 34.8119C25.8422 34.4839 25.9053 34.1329 25.8972 33.78C25.8972 26.47 25.8972 19.16 25.8972 11.85C25.9136 11.5846 25.8901 11.3183 25.8272 11.06C25.6841 10.4796 25.3386 9.96938 24.8528 9.62108C24.367 9.27277 23.7728 9.10927 23.1772 9.16H4.27722C3.99863 9.14355 3.71912 9.16712 3.44722 9.23C2.87421 9.37661 2.37138 9.72086 2.02743 10.202C1.68347 10.6832 1.52049 11.2704 1.56722 11.86V22.81ZM21.3372 38.04H5.94722C5.94722 38.11 5.94722 38.17 5.99722 38.22C6.54525 39.2568 6.84319 40.4075 6.86722 41.58C6.87251 42.0954 7.0436 42.5955 7.35517 43.0061C7.66675 43.4167 8.10225 43.7161 8.59722 43.86C9.06096 44.0149 9.54856 44.086 10.0372 44.07C12.3672 44.07 14.6972 44.07 17.0372 44.07C17.3916 44.0666 17.7455 44.0432 18.0972 44C18.7382 43.9445 19.3345 43.6489 19.7666 43.1722C20.1987 42.6956 20.4347 42.0733 20.4272 41.43C20.4272 41.1833 20.4472 40.9333 20.4872 40.68C20.6 39.7539 20.8885 38.8579 21.3372 38.04ZM5.97722 7.57H21.4272C20.7997 6.45732 20.4563 5.20709 20.4272 3.93C20.4118 3.5344 20.294 3.14957 20.0854 2.81306C19.8769 2.47656 19.5846 2.19987 19.2372 2.01C18.6509 1.68512 17.9871 1.52609 17.3172 1.55H10.2472C9.89245 1.55176 9.53824 1.57849 9.18722 1.63C8.60894 1.69349 8.06997 1.95356 7.66042 2.36674C7.25088 2.77993 6.99559 3.32117 6.93722 3.9C6.93722 4.23 6.93722 4.55 6.87722 4.9C6.75099 5.83943 6.44545 6.74585 5.97722 7.57ZM27.4272 22.82V24.16C27.4272 25.09 27.4272 25.07 28.3472 25.08C28.7872 25.08 28.9172 24.9 28.9072 24.49C28.9072 23.55 28.9072 22.62 28.9072 21.69C28.9072 20.44 29.0572 20.57 27.7572 20.55C27.4272 20.55 27.4272 20.66 27.4272 20.87C27.4272 21.52 27.4272 22.17 27.4272 22.82Z" fill="#EF4C23"/>
<path d="M19.9371 31.2501C20.3571 30.3901 20.7471 29.6201 21.1171 28.8301C21.1917 28.5718 21.3575 28.3493 21.5837 28.204C21.8099 28.0587 22.0812 28.0005 22.3471 28.0401C22.7371 28.0401 23.1471 28.0401 23.5471 28.0401C23.6434 28.0413 23.7385 28.0619 23.8267 28.1005C23.9149 28.1392 23.9944 28.1951 24.0606 28.265C24.1268 28.335 24.1783 28.4175 24.2121 28.5076C24.2458 28.5978 24.2612 28.6939 24.2571 28.7901C24.26 28.984 24.1877 29.1714 24.0553 29.3131C23.9229 29.4548 23.7408 29.5397 23.5471 29.5501H23.4271C22.5871 29.3701 22.2071 29.7901 21.9071 30.5501C21.4871 31.5501 20.9571 32.4901 20.4771 33.4501C20.2971 33.8101 20.0971 34.1201 19.6171 34.0701C19.1371 34.0201 18.9471 33.7301 18.8271 33.3001C18.2671 31.2301 17.6871 29.1501 17.1071 27.0701C16.9471 27.0701 16.9271 27.2001 16.8771 27.2901C16.4871 27.9901 16.0071 28.6301 15.6771 29.3601C15.6215 29.4652 15.5354 29.551 15.4301 29.6064C15.3248 29.6617 15.2053 29.6839 15.0871 29.6701C14.5971 29.6701 14.0871 29.6701 13.6171 29.6701C13.5089 29.6609 13.4004 29.6847 13.3058 29.7382C13.2113 29.7917 13.135 29.8725 13.0871 29.9701C12.2871 31.2101 11.4571 32.4401 10.6471 33.6701C10.5799 33.8108 10.4806 33.9338 10.3574 34.0293C10.2341 34.1248 10.0902 34.1901 9.93714 34.2201C9.48714 34.2801 9.18714 34.0401 9.04714 33.4901C8.46714 31.3634 7.89047 29.2267 7.31714 27.0801C7.12714 27.0801 7.10714 27.2301 7.03714 27.3301C6.45714 28.1801 5.87714 29.0401 5.31714 29.9101C5.2235 30.0891 5.07784 30.2355 4.89933 30.3301C4.72083 30.4248 4.51785 30.4631 4.31714 30.4401C3.84714 30.4401 3.36714 30.4401 2.89714 30.4401C2.80378 30.4422 2.71104 30.4242 2.62526 30.3873C2.53948 30.3504 2.46265 30.2954 2.40002 30.2262C2.33739 30.1569 2.29042 30.0749 2.26231 29.9859C2.23421 29.8968 2.22562 29.8027 2.23714 29.7101C2.23034 29.6168 2.24204 29.5231 2.27156 29.4343C2.30109 29.3456 2.34786 29.2635 2.40919 29.1929C2.47052 29.1223 2.5452 29.0645 2.62893 29.0228C2.71267 28.9811 2.80382 28.9564 2.89714 28.9501C3.02973 28.9302 3.16455 28.9302 3.29714 28.9501C3.56684 29.0055 3.84743 28.9648 4.09032 28.8352C4.33321 28.7055 4.52311 28.495 4.62714 28.2401C5.29714 27.1101 6.06714 26.0301 6.77714 24.9301C7.00714 24.5901 7.25714 24.3201 7.71714 24.4101C8.17714 24.5001 8.28714 24.8101 8.38714 25.1901C8.94714 27.3201 9.52714 29.4301 10.1071 31.5601C10.2871 31.5601 10.3171 31.4001 10.3771 31.3001C10.9671 30.4301 11.5571 29.5601 12.1271 28.6801C12.2107 28.5227 12.3387 28.3933 12.4951 28.308C12.6515 28.2226 12.8296 28.1851 13.0071 28.2001H13.1371C13.6471 28.2001 14.2571 28.3901 14.6571 28.1201C15.0571 27.8501 15.2271 27.2801 15.4971 26.8401C15.8671 26.2201 16.2471 25.6001 16.6071 24.9801C16.6827 24.8002 16.8136 24.6489 16.9807 24.5483C17.1479 24.4476 17.3428 24.4027 17.5371 24.4201C17.9371 24.4801 18.0771 24.8101 18.1771 25.1801C18.6971 27.1801 19.2371 29.1101 19.7671 31.0701L19.9371 31.2501Z" fill="#EF4C23"/>
<path d="M13.6572 13.72H8.58718C7.88718 13.72 7.58717 13.4 7.63717 12.81C7.6418 12.6682 7.69497 12.5322 7.78779 12.4248C7.88062 12.3174 8.00747 12.2451 8.14718 12.22C8.32096 12.1798 8.49879 12.1597 8.67718 12.16H18.7272C19.4272 12.16 19.7272 12.4 19.7272 12.91C19.7272 13.42 19.4072 13.72 18.7872 13.72H13.6572Z" fill="#EF4C23"/>
<path d="M11.0272 16.75C10.1772 16.75 9.3172 16.75 8.4572 16.75C8.3375 16.7666 8.21556 16.7536 8.10205 16.7121C7.98853 16.6707 7.88688 16.6021 7.80598 16.5123C7.72509 16.4226 7.66742 16.3144 7.63799 16.1971C7.60857 16.0799 7.6083 15.9573 7.6372 15.84C7.64767 15.692 7.70926 15.5522 7.81141 15.4446C7.91356 15.3369 8.04993 15.2682 8.1972 15.25C8.32678 15.2352 8.45762 15.2352 8.5872 15.25C10.2139 15.25 11.8439 15.25 13.4772 15.25C14.2172 15.25 14.5472 15.6 14.4172 16.18C14.3806 16.3712 14.272 16.541 14.1139 16.6545C13.9557 16.768 13.76 16.8165 13.5672 16.79C12.7172 16.76 11.8772 16.75 11.0272 16.75Z" fill="#EF4C23"/>
<path d="M16.727 18.26C17.437 18.26 18.147 18.26 18.857 18.26C19.567 18.26 19.747 18.49 19.757 18.99C19.767 19.49 19.437 19.78 18.857 19.78H14.557C14.037 19.78 13.747 19.55 13.707 19.13C13.682 19.024 13.682 18.9137 13.7071 18.8077C13.7321 18.7017 13.7816 18.6031 13.8515 18.5196C13.9214 18.4361 14.0098 18.37 14.1097 18.3267C14.2096 18.2834 14.3183 18.264 14.427 18.27C15.197 18.27 15.967 18.27 16.737 18.27L16.727 18.26Z" fill="#EF4C23"/>
<path d="M9.86723 19.7801H8.42723C7.88723 19.7801 7.59723 19.4901 7.59723 19.0101C7.59148 18.903 7.6097 18.7961 7.65058 18.697C7.69145 18.5979 7.75393 18.5091 7.83347 18.4373C7.91301 18.3654 8.00759 18.3122 8.11031 18.2815C8.21304 18.2509 8.32131 18.2435 8.42723 18.2601C9.42056 18.2601 10.4206 18.2601 11.4272 18.2601C11.5305 18.2501 11.6348 18.2622 11.733 18.2957C11.8312 18.3291 11.9212 18.3831 11.9969 18.4541C12.0726 18.5251 12.1323 18.6114 12.172 18.7073C12.2117 18.8031 12.2306 18.9064 12.2272 19.0101C12.2194 19.2205 12.1289 19.4194 11.9754 19.5635C11.8219 19.7077 11.6177 19.7855 11.4072 19.7801H9.86723Z" fill="#EF4C23"/>
<path d="M17.847 16.7501C17.477 16.7501 17.107 16.7501 16.737 16.7501C16.6364 16.7514 16.5365 16.7327 16.4431 16.6951C16.3498 16.6575 16.2648 16.6017 16.1932 16.531C16.1215 16.4603 16.0647 16.3761 16.0258 16.2832C15.987 16.1904 15.967 16.0907 15.967 15.9901C15.9582 15.8898 15.9712 15.7887 16.0049 15.6939C16.0387 15.599 16.0926 15.5126 16.1628 15.4404C16.2331 15.3683 16.3181 15.3121 16.412 15.2758C16.5059 15.2395 16.6065 15.2239 16.707 15.2301C17.467 15.2301 18.247 15.2301 19.017 15.2301C19.1175 15.2206 19.2187 15.2336 19.3135 15.268C19.4083 15.3025 19.4942 15.3577 19.565 15.4295C19.6359 15.5012 19.6898 15.5879 19.7231 15.6831C19.7563 15.7784 19.7679 15.8798 19.757 15.9801C19.7599 16.0841 19.7413 16.1876 19.7025 16.2842C19.6636 16.3808 19.6054 16.4683 19.5313 16.5415C19.4572 16.6146 19.3689 16.6717 19.2719 16.7093C19.1748 16.7469 19.0711 16.7642 18.967 16.7601C18.597 16.7701 18.217 16.7501 17.847 16.7501Z" fill="#EF4C23"/>
</svg>
