<svg width="43" height="43" viewBox="0 0 43 43" fill="none" xmlns="http://www.w3.org/2000/svg">
<path d="M29.6167 0C30.1503 0.153921 30.6592 0.383266 31.1279 0.681089C31.362 0.851361 31.3514 0.968424 31.1279 1.1387C31.0764 1.18307 31.03 1.23304 30.9896 1.28768C30.8087 1.47924 30.6703 1.75593 30.4575 1.86235C30.2446 1.96877 30.0318 1.63887 29.787 1.57501C29.4424 1.46711 29.0839 1.40976 28.7228 1.40475H13.7282C13.3885 1.37798 13.0472 1.42962 12.7306 1.55571C12.414 1.68179 12.1306 1.87894 11.9023 2.13193C11.674 2.38492 11.5068 2.68699 11.4138 3.01482C11.3208 3.34265 11.3043 3.68748 11.3657 4.02268C11.3657 4.18231 11.4295 4.23553 11.5892 4.22488C11.7488 4.21424 12.0042 4.22488 12.2064 4.22488H22.2738C22.6037 4.22488 22.6994 4.32066 22.6675 4.63992C22.6356 4.95918 22.7739 5.39551 22.6037 5.59771C22.4334 5.7999 21.9651 5.66156 21.6246 5.66156C18.3681 5.66156 15.1117 5.66156 11.8446 5.66156C11.4295 5.66156 11.355 5.77862 11.3657 6.16173C11.3657 7.22593 11.3657 8.29014 11.3657 9.42883L12.0149 9.30112C12.7492 9.17342 12.7492 9.17342 12.7492 8.44976C12.7492 8.06665 12.7492 7.68354 12.7492 7.28978C12.7492 7.11951 12.813 7.03437 12.9939 7.05566C12.9939 7.05566 12.9939 7.05566 13.0791 7.05566C13.4302 7.05566 13.8878 6.94923 14.1433 7.11951C14.3987 7.28978 14.1965 7.78995 14.2177 8.18371C14.2337 8.41756 14.2337 8.65223 14.2177 8.88609C14.2177 9.19471 14.3029 9.27984 14.5902 9.31177C16.5187 9.53631 18.3256 10.369 19.7492 11.6892C21.1727 13.0095 22.1389 14.7486 22.5079 16.6548C22.5307 16.7352 22.5485 16.8169 22.5611 16.8995C22.5611 17.1549 22.5611 17.5168 22.7101 17.6445C22.8591 17.7722 23.2422 17.6445 23.5189 17.6445C23.7956 17.6445 24.2106 17.6445 24.5831 17.6445C24.9555 17.6445 24.8491 17.7296 24.8598 17.9318C24.8598 19.1024 24.8598 19.1024 23.7211 19.1024C23.5155 19.1131 23.3094 19.1131 23.1038 19.1024C22.7633 19.1024 22.6675 19.1982 22.6249 19.5175C22.4842 20.8097 22.0626 22.0555 21.3898 23.1676C20.717 24.2798 19.8092 25.2314 18.73 25.9559C17.4774 26.8489 16.0064 27.3858 14.4732 27.5096C14.2603 27.5096 14.1965 27.616 14.2071 27.8182C14.2071 28.361 14.2071 28.8824 14.2071 29.4358C14.2071 29.6487 14.1326 29.7125 13.9198 29.7232C12.7598 29.7764 12.7598 29.787 12.7492 28.659C12.7492 28.3184 12.8875 27.9034 12.7492 27.5948C12.6108 27.2861 12.1319 27.4671 11.8127 27.4032C9.87725 27.0437 8.10856 26.072 6.76734 24.6311C5.42611 23.1902 4.58333 21.3566 4.36323 19.4004C4.36323 19.1344 4.25681 19.0811 4.01205 19.0918C3.49059 19.0918 2.94784 19.0918 2.44767 19.0918C2.22419 19.0918 2.17097 19.0279 2.16033 18.8151C2.16033 17.6445 2.09648 17.6445 3.22453 17.6445C3.56508 17.6445 4.00141 17.7509 4.23554 17.6445C4.46966 17.5381 4.36324 17.0059 4.43774 16.676C4.71174 15.2495 5.32061 13.9084 6.21424 12.7631C7.10786 11.6179 8.26068 10.7012 9.57782 10.0886C9.68433 10.0551 9.77618 9.98616 9.83812 9.89324C9.90006 9.80033 9.92838 9.68904 9.91837 9.57782C9.91837 7.66226 9.91837 5.73605 9.91837 3.82048C9.89541 3.21891 10.019 2.62078 10.2786 2.07759C10.5381 1.53441 10.9258 1.06245 11.4082 0.702369C11.8501 0.444004 12.3129 0.223295 12.7917 0.0425691L29.6167 0ZM18.4426 24.317L18.6555 24.168C19.8969 23.0437 20.747 21.5523 21.0819 19.9112C21.2415 19.1024 21.2415 19.1024 20.4114 19.1024C19.8367 19.1024 19.8367 19.1024 19.8367 18.5384C19.8367 17.6551 19.8367 17.6551 20.7307 17.6551C21.2308 17.6551 21.2308 17.6551 21.1457 17.1443C20.8941 15.5934 20.1806 14.1544 19.0984 13.0153C18.0163 11.8762 16.6157 11.0899 15.0798 10.7591C14.1965 10.5675 14.1965 10.5675 14.1965 11.4508C14.1912 11.5075 14.1912 11.5645 14.1965 11.6211C14.2603 11.9297 14.122 12.0361 13.824 11.9936C13.526 11.951 13.0365 12.1319 12.8236 11.9297C12.6108 11.7275 12.7491 11.3018 12.7598 10.9719C12.7704 10.642 12.664 10.6314 12.4086 10.6633C10.7187 10.9088 9.15534 11.6998 7.95654 12.9158C6.75775 14.1319 5.98923 15.7065 5.76799 17.3997C5.76799 17.5913 5.76799 17.6445 5.98083 17.6338H6.88539C7.0663 17.6338 7.11952 17.687 7.1408 17.868C7.24722 19.0599 7.25787 19.0599 6.0766 19.0811H5.95954C5.76798 19.0811 5.70412 19.0811 5.73605 19.3366C5.97509 21.1552 6.84064 22.8336 8.18372 24.0829C8.25821 24.1467 8.31142 24.2638 8.44977 24.2212C8.42393 23.3198 8.64283 22.4282 9.08318 21.6412C9.52353 20.8542 10.1689 20.2012 10.9506 19.7516C11.1741 19.592 11.0464 19.5281 10.9506 19.4217C10.5655 19.0443 10.2735 18.5824 10.098 18.0726C9.92256 17.5627 9.86833 17.019 9.93966 16.4845C10.0237 15.7636 10.3283 15.0862 10.8119 14.545C11.2955 14.0038 11.9345 13.6253 12.6415 13.461C13.3484 13.2968 14.0889 13.355 14.7615 13.6276C15.4342 13.9002 16.0062 14.3739 16.3994 14.984C16.7998 15.5851 17.0046 16.2954 16.9856 17.0175C16.9665 17.7396 16.7246 18.4381 16.2929 19.0173L15.8034 19.6132L16.4206 20.0709C17.0765 20.5618 17.6033 21.2048 17.9555 21.9445C18.3078 22.6842 18.4749 23.4984 18.4426 24.317ZM9.92901 24.317C9.93965 24.4978 9.93965 24.679 9.92901 24.8598C9.92901 25.1897 10.0141 25.3387 10.3121 25.4664C10.998 25.7412 11.7116 25.941 12.4405 26.0623C12.7066 26.0623 12.7704 26.0623 12.7598 25.7643C12.7491 25.4664 12.6002 24.9768 12.8343 24.7746C13.0684 24.5724 13.5154 24.7746 13.8985 24.7001C14.2816 24.6256 14.2497 24.8065 14.239 25.062C14.2284 25.3174 14.239 25.5834 14.239 25.8495C14.239 26.1155 14.3242 26.0942 14.5051 26.0623C15.2945 25.9487 16.0644 25.7267 16.7931 25.4025C16.8834 25.3753 16.9604 25.3157 17.0095 25.2352C17.0586 25.1547 17.0763 25.0589 17.0592 24.9662C17.0592 24.5086 17.0592 24.0616 16.9953 23.604C16.9008 22.6768 16.4418 21.8252 15.7193 21.2364C14.9968 20.6477 14.0701 20.3701 13.1429 20.4646C12.2157 20.5592 11.3641 21.0182 10.7753 21.7406C10.1866 22.4631 9.90896 23.3898 10.0035 24.317H9.92901ZM13.4409 18.996C14.0054 18.996 14.5467 18.7718 14.9459 18.3726C15.345 17.9735 15.5693 17.4321 15.5693 16.8676C15.5693 16.3031 15.345 15.7617 14.9459 15.3626C14.5467 14.9634 14.0054 14.7392 13.4409 14.7392C12.8857 14.7531 12.3579 14.9834 11.9701 15.3811C11.5824 15.7788 11.3655 16.3122 11.3657 16.8676C11.3572 17.1507 11.4052 17.4326 11.5071 17.6968C11.6089 17.961 11.7624 18.2023 11.9586 18.4065C12.1549 18.6106 12.3899 18.7736 12.6499 18.8858C12.9099 18.998 13.1896 19.0572 13.4728 19.0599L13.4409 18.996Z" fill="#EF4C23"/>
<path d="M32.5647 20.06L37.4388 15.8032C37.907 15.3988 38.354 14.9625 38.8542 14.59C39.1106 14.3738 39.4144 14.2211 39.741 14.1446C40.0676 14.0681 40.4076 14.0699 40.7334 14.1498C41.0592 14.2297 41.3614 14.3854 41.6156 14.6043C41.8697 14.8232 42.0685 15.0991 42.1958 15.4095C42.3927 15.8226 42.4624 16.2849 42.3961 16.7378C42.3298 17.1906 42.1304 17.6136 41.8233 17.9529C40.9506 18.9213 40.0886 19.911 39.216 20.9007C36.8322 23.5896 34.4519 26.2892 32.0752 28.9993C31.9214 29.1546 31.824 29.3569 31.7985 29.574C31.6548 30.7835 31.0709 31.8979 30.1582 32.7045C29.2456 33.5112 28.068 33.9538 26.85 33.9479C25.2749 33.9479 23.6573 33.9479 22.1355 33.9479C21.9487 33.9825 21.7557 33.9475 21.5929 33.8495C21.4301 33.7514 21.3089 33.5971 21.2523 33.4158C21.2073 33.2407 21.2266 33.0553 21.3067 32.8932C21.3867 32.7312 21.5222 32.6032 21.6886 32.5325C22.0028 32.3529 22.259 32.0871 22.4268 31.7665C22.5947 31.4458 22.6672 31.0838 22.6357 30.7233C22.5259 29.6338 22.6982 28.5344 23.1359 27.5307C23.4958 26.7676 24.0481 26.1112 24.7384 25.6261C25.4288 25.141 26.2335 24.8438 27.0734 24.7638C27.2231 24.7524 27.3651 24.6927 27.4778 24.5935L31.011 21.4648C31.128 21.369 31.309 21.2839 31.1174 21.0817C31.1174 21.0817 31.1174 20.922 31.1174 20.8369C31.1174 18.7085 31.1174 16.5801 31.1174 14.5049C31.1174 14.2069 31.1813 14.0686 31.5005 14.1111C31.8198 14.1537 32.2774 13.9728 32.5115 14.175C32.7456 14.3772 32.5754 14.8241 32.5754 15.1647C32.5647 16.7823 32.5647 18.3999 32.5647 20.06ZM41.0783 16.3566C41.0671 16.1911 41.0073 16.0327 40.9062 15.9012C40.8052 15.7697 40.6676 15.671 40.5106 15.6175C40.3536 15.5641 40.1843 15.5582 40.024 15.6007C39.8637 15.6432 39.7196 15.7322 39.6097 15.8564L28.9677 25.2746C28.7655 25.4449 28.7655 25.53 28.9677 25.7109C29.6382 26.3601 30.3086 27.0199 30.9578 27.701C31.16 27.9245 31.2558 27.8819 31.4473 27.701L35.4913 23.1036L40.7484 17.1547C40.9455 16.9337 41.0618 16.6523 41.0783 16.3566ZM23.6999 32.4793C24.9025 32.4793 26.0412 32.4793 27.1692 32.4793C27.9606 32.424 28.7092 32.0991 29.2902 31.5589C29.8712 31.0186 30.2494 30.2955 30.3618 29.5101C30.3801 29.4375 30.3778 29.3613 30.3552 29.2899C30.3327 29.2185 30.2908 29.1547 30.2341 29.1057C29.3083 28.1905 28.3824 27.254 27.4566 26.3282C27.4198 26.2806 27.3703 26.2443 27.3138 26.2236C27.2573 26.2029 27.1961 26.1986 27.1373 26.2111C26.2286 26.3291 25.4009 26.7944 24.828 27.5094C24.3088 28.213 24.046 29.0729 24.083 29.9465C24.185 30.8098 24.0527 31.6847 23.6999 32.4793Z" fill="#EF4C23"/>
<path d="M32.5646 2.80957H40.014C40.7483 2.80957 40.9824 3.0437 40.9824 3.76735V11.8021C40.9824 12.4832 40.727 12.7386 40.0353 12.7386H25.03C24.3383 12.7386 24.0723 12.4725 24.0723 11.7914C24.0723 9.12029 24.0723 6.47043 24.0723 3.76735C24.0723 3.06498 24.317 2.82021 25.0088 2.82021L32.5646 2.80957ZM32.5646 11.3232C34.7781 11.3232 36.981 11.3232 39.1946 11.3232C39.5458 11.3232 39.6096 11.2168 39.6096 10.8869C39.6096 8.80102 39.6096 6.71519 39.6096 4.62936C39.6096 4.31009 39.5138 4.24624 39.2159 4.25689C34.7569 4.25689 30.3085 4.25689 25.8495 4.25689C25.5302 4.25689 25.4557 4.35266 25.4664 4.65064C25.4664 6.77904 25.4664 8.82231 25.4664 10.9081C25.4664 11.27 25.5834 11.3338 25.9133 11.3232C28.1588 11.2806 30.3723 11.2913 32.5646 11.2913V11.3232Z" fill="#EF4C23"/>
<path d="M8.51362 38.8965H1.0642C0.191556 38.8965 0 38.6943 0 37.8323V32.7242C0 32.0537 0.244778 31.8089 0.925867 31.8089H9.4927C9.79067 31.8089 9.89709 31.8089 9.88645 31.4365C9.88645 30.4787 9.88645 29.5315 9.88645 28.5738C9.88645 28.329 9.93966 28.2226 10.2057 28.2439C10.482 28.2651 10.7595 28.2651 11.0358 28.2439C11.3018 28.2439 11.355 28.3396 11.3444 28.5738C11.3444 29.4996 11.3444 30.4255 11.3444 31.3513C11.3444 31.6919 11.3444 31.8196 11.7807 31.8089C13.2068 31.8089 14.6221 31.8089 16.0375 31.8089C16.7612 31.8089 16.9847 32.0431 16.9847 32.788V37.9175C16.9847 38.6411 16.7506 38.8859 16.0269 38.8965H8.51362ZM8.51362 33.2243H1.75594C1.50053 33.2243 1.40475 33.2243 1.40475 33.5649C1.40475 34.7461 1.40475 35.938 1.40475 37.1193C1.40475 37.3854 1.4686 37.4705 1.74529 37.4705H15.2075C15.5054 37.4705 15.5693 37.3747 15.5586 37.098C15.5586 35.9345 15.5586 34.7745 15.5586 33.6181C15.5586 33.3095 15.4948 33.2243 15.1755 33.2243C12.9939 33.235 10.7804 33.2243 8.55619 33.2243H8.51362Z" fill="#EF4C23"/>
<path d="M21.2203 42.4086C18.613 42.4086 15.995 42.4086 13.3877 42.4086C12.8484 42.4054 12.3174 42.2745 11.8383 42.0266C11.3592 41.7788 10.9457 41.421 10.6315 40.9826C10.4399 40.7484 10.3867 40.5782 10.7272 40.4505H10.8017C11.028 40.27 11.2836 40.1296 11.5573 40.0354C11.834 40.0354 11.9298 40.376 12.132 40.5356C12.5717 40.8706 13.1118 41.0469 13.6644 41.0358H28.8719C29.1721 41.0543 29.4728 41.009 29.7542 40.9029C30.0356 40.7967 30.2913 40.6321 30.5045 40.42C30.7177 40.2078 30.8835 39.9529 30.9909 39.672C31.0984 39.3911 31.1451 39.0906 31.128 38.7903C31.128 38.2476 31.128 37.7261 31.128 37.1727C31.128 36.8428 31.0216 36.8003 30.7342 36.8003C26.7754 36.8003 22.8059 36.8003 18.8471 36.8003C18.4746 36.8003 18.3576 36.7045 18.4108 36.3426C18.464 35.9808 18.2618 35.5871 18.4959 35.3955C18.73 35.204 19.1025 35.3423 19.4111 35.3423H30.681C31.0429 35.3423 31.1493 35.2572 31.128 34.8847C31.128 34.2036 31.128 33.5119 31.128 32.8201C31.128 32.5647 31.2025 32.4902 31.4579 32.4902C32.586 32.4902 32.586 32.4902 32.586 33.5544C32.586 35.2465 32.586 36.9492 32.586 38.652C32.6134 39.2324 32.4977 39.8107 32.249 40.3359C32.0003 40.8611 31.6263 41.3171 31.1599 41.6637C30.5177 42.1497 29.7303 42.4047 28.9251 42.3873C26.3497 42.4086 23.785 42.4086 21.2203 42.4086Z" fill="#EF4C23"/>
<path d="M4.30993 2.80957H7.61959C8.26876 2.80957 8.54545 3.07562 8.54545 3.73543C8.54545 5.49136 8.54545 7.24729 8.54545 8.99258C8.54545 9.62046 8.26876 9.9078 7.64088 9.9078C5.40606 9.9078 3.17123 9.9078 0.936406 9.9078C0.297885 9.9078 0.0424805 9.63111 0.0424805 9.00323C0.0424805 7.24729 0.0424805 5.49136 0.0424805 3.74607C0.0424805 3.06498 0.287248 2.82021 0.957695 2.80957H4.30993ZM4.30993 4.2356C3.45856 4.2356 2.61785 4.2356 1.77714 4.2356C1.53237 4.2356 1.44722 4.28881 1.44722 4.55486C1.44722 5.75741 1.44722 6.95996 1.44722 8.15186C1.44722 8.42855 1.55365 8.47112 1.78777 8.46048H6.80015C7.02364 8.46048 7.09815 8.46048 7.09815 8.17315C7.09815 6.95996 7.09815 5.74677 7.09815 4.52294C7.09815 4.27817 7.013 4.22496 6.78952 4.2356C5.95944 4.24624 5.12936 4.2356 4.30993 4.2356Z" fill="#EF4C23"/>
<path d="M21.2413 39.5989C20.5283 39.5989 20.5283 39.5989 20.5283 38.8859C20.5283 38.1729 20.5283 38.1729 21.2307 38.1729C21.9331 38.1729 21.9756 38.1729 21.9756 38.9178C21.9756 39.6627 21.9756 39.5989 21.2413 39.5989Z" fill="#EF4C23"/>
<path d="M32.5647 8.46033C34.3206 8.46033 36.0659 8.46033 37.8218 8.46033C38.1411 8.46033 38.2369 8.54547 38.2049 8.85409C38.173 9.16271 38.3007 9.6416 38.1304 9.85444C37.9602 10.0673 37.4813 9.91829 37.1407 9.91829C33.863 9.91829 30.5852 9.91829 27.2969 9.91829C26.935 9.91829 26.8393 9.82252 26.8499 9.46069C26.8499 8.39648 26.8499 8.39648 27.8503 8.39648L32.5647 8.46033Z" fill="#EF4C23"/>
<path d="M34.6926 7.07652C33.6284 7.07652 32.5642 7.07652 31.5 7.07652C31.234 7.07652 31.1488 7.01267 31.1382 6.72534C31.1382 5.66113 31.1382 5.66113 32.2024 5.66113H37.8852C38.1832 5.66113 38.2896 5.72498 38.247 6.02296C38.2045 6.32093 38.4067 6.85304 38.1726 7.08716C37.9384 7.32128 37.5128 7.08716 37.1722 7.08716L34.6926 7.07652Z" fill="#EF4C23"/>
<path d="M28.3079 7.0772H27.1586C26.9564 7.0772 26.8499 7.0772 26.8606 6.81115C26.882 6.51 26.882 6.20771 26.8606 5.90657C26.8606 5.67245 26.9564 5.62988 27.1586 5.62988C27.9248 5.62988 28.691 5.62988 29.4679 5.62988C29.6914 5.62988 29.7339 5.71502 29.7446 5.91721C29.7446 7.07719 29.7446 7.0772 28.6804 7.0772H28.3079Z" fill="#EF4C23"/>
<path d="M11.0147 36.0237C10.0462 36.0237 9.08846 36.0237 8.12004 36.0237C7.88591 36.0237 7.80078 36.0237 7.81142 35.7364C7.82738 35.4457 7.82738 35.1544 7.81142 34.8637C7.81142 34.6402 7.88591 34.5977 8.08811 34.5977H13.888C14.1115 34.5977 14.2073 34.5977 14.1966 34.885C14.1701 35.161 14.1701 35.439 14.1966 35.7151C14.1966 35.9811 14.1008 36.0237 13.8667 36.0237C12.9196 36.0237 11.9724 36.0237 11.0147 36.0237Z" fill="#EF4C23"/>
<path d="M4.68245 34.6293C5.16134 34.6293 5.64023 34.6293 6.12976 34.6293C6.36389 34.6293 6.43837 34.6932 6.41709 34.9273C6.3958 35.1614 6.56609 35.768 6.33196 35.9915C6.09784 36.215 5.68279 36.0554 5.34225 36.0554C4.60795 36.0554 3.88429 36.0554 3.14999 36.0554C2.91587 36.0554 2.83073 35.9915 2.85202 35.7574C2.8733 35.5233 2.70303 34.9167 2.93716 34.6932C3.17128 34.4697 3.58632 34.6932 3.93751 34.6293H4.68245Z" fill="#EF4C23"/>
<path d="M4.29917 5.64061C4.67164 5.64061 5.04411 5.64061 5.41658 5.64061C5.61878 5.64061 5.7252 5.64061 5.71456 5.91731C5.69317 6.21845 5.69317 6.52073 5.71456 6.82188C5.71456 7.056 5.61878 7.08793 5.41658 7.08793H3.13919C2.89442 7.08793 2.84121 7.00279 2.85185 6.77931C2.87842 6.50325 2.87842 6.22528 2.85185 5.94923C2.85185 5.67254 2.94763 5.62997 3.18175 5.64061C3.41587 5.65125 3.92669 5.64061 4.29917 5.64061Z" fill="#EF4C23"/>
</svg>
