<svg width="46" height="32" viewBox="0 0 46 32" fill="none" xmlns="http://www.w3.org/2000/svg">
<path d="M45.3917 24.8717C45.0512 25.2655 44.8064 25.755 44.253 25.9359C44.1147 25.9359 44.1679 26.1381 44.1466 26.2552C43.9485 27.4797 43.3804 28.6143 42.5187 29.5065C41.6569 30.3987 40.5427 31.0058 39.3258 31.2463C38.0831 31.4878 36.7959 31.3296 35.6488 30.7943C34.5017 30.2589 33.5536 29.374 32.9405 28.2665C32.6195 27.6987 32.3999 27.0793 32.2914 26.4361C32.2169 26.1275 32.2169 26.021 31.8231 26.021C27.5663 26.021 23.3095 26.021 19.0527 26.021C18.7866 26.021 18.627 26.021 18.5632 26.3829C18.3325 27.7512 17.6308 28.9959 16.5795 29.9015C15.5281 30.8071 14.1932 31.3167 12.8058 31.342C11.4056 31.3838 10.0354 30.9309 8.93586 30.0629C7.8363 29.1949 7.07765 27.9674 6.79309 26.5957C6.67603 26.021 6.40998 26.021 5.96302 26.021C5.8875 26.0254 5.81416 26.0481 5.74929 26.087C5.68443 26.1259 5.62996 26.18 5.59055 26.2445C5.41446 26.4686 5.18736 26.6473 4.9282 26.7657C4.66903 26.8842 4.38531 26.939 4.10066 26.9256H1.84455C1.59873 26.9412 1.3524 26.9043 1.12196 26.8173C0.891513 26.7303 0.682237 26.5952 0.508063 26.421C0.333888 26.2469 0.198806 26.0376 0.111804 25.8071C0.0248018 25.5767 -0.0121209 25.3304 0.00348563 25.0845V21.9984C-0.012073 21.6892 0.0620015 21.3821 0.21681 21.114C0.371618 20.8459 0.60057 20.6283 0.876131 20.4872C0.982935 20.44 1.07168 20.3597 1.12919 20.2581C1.1867 20.1564 1.20992 20.039 1.19539 19.9232C1.17494 19.5687 1.17494 19.2134 1.19539 18.859C1.19537 18.777 1.21169 18.6959 1.24337 18.6203C1.27505 18.5447 1.32147 18.4762 1.37992 18.4187C1.43837 18.3612 1.50767 18.316 1.58379 18.2856C1.65991 18.2552 1.74132 18.2403 1.82327 18.2417C1.91025 18.233 1.99811 18.2419 2.08157 18.2679C2.16503 18.2939 2.24237 18.3365 2.30895 18.3932C2.37554 18.4498 2.43 18.5193 2.46906 18.5975C2.50813 18.6758 2.53099 18.7611 2.53628 18.8483C2.56818 19.1383 2.56818 19.431 2.53628 19.721C2.53628 20.136 2.60013 20.3063 3.05774 20.2637C3.45085 20.2318 3.8459 20.2318 4.23901 20.2637C4.69722 20.2721 5.13349 20.4615 5.45252 20.7905C5.77156 21.1195 5.94743 21.5614 5.94173 22.0196C5.94173 22.7752 5.94173 23.5308 5.94173 24.2864C5.94173 24.4673 5.85659 24.7121 6.20778 24.7014C6.55897 24.6908 6.63346 24.7014 6.69731 24.3502C6.92248 23.0566 7.56419 21.872 8.52475 20.9768C9.48531 20.0816 10.7121 19.5247 12.0183 19.3911C13.5189 19.2478 15.0183 19.6755 16.2176 20.5887C17.4168 21.502 18.2278 22.8337 18.4887 24.3183C18.5419 24.6801 18.7122 24.7014 18.9995 24.6908C21.0215 24.6908 23.0435 24.6908 25.0761 24.6908C25.4592 24.6908 25.555 24.595 25.555 24.2119C25.555 20.6646 25.555 17.0959 25.555 13.506V3.25775C25.555 1.86365 25.0229 1.33155 23.6288 1.33155H4.47313C3.12159 1.33155 2.57885 1.87429 2.57885 3.23646V15.7834C2.59491 15.9533 2.59491 16.1243 2.57885 16.2942C2.57214 16.381 2.54833 16.4655 2.50881 16.5431C2.46928 16.6206 2.41482 16.6895 2.34855 16.7459C2.28228 16.8023 2.20551 16.845 2.12267 16.8716C2.03982 16.8982 1.95254 16.9081 1.86584 16.9008C1.78299 16.9023 1.70069 16.887 1.62386 16.856C1.54703 16.8249 1.47724 16.7787 1.41865 16.7201C1.36006 16.6615 1.31386 16.5917 1.28281 16.5149C1.25177 16.4381 1.23651 16.3558 1.23796 16.2729C1.23796 16.1559 1.23796 16.0388 1.23796 15.9218V3.05555C1.19168 2.33739 1.41458 1.62774 1.86318 1.06502C2.31179 0.502299 2.95392 0.126858 3.66434 0.0119333C3.88753 -0.00397778 4.11159 -0.00397778 4.33479 0.0119333H23.8842C24.3018 -0.017965 24.721 0.0421033 25.1135 0.18808C25.5059 0.334056 25.8624 0.562543 26.159 0.85811C26.4556 1.15368 26.6853 1.50944 26.8326 1.90138C26.9799 2.29332 27.0414 2.71231 27.0129 3.13005C27.0129 10.1183 27.0129 17.1137 27.0129 24.1161C27.0129 24.6269 27.1513 24.7227 27.6408 24.7121C29.0243 24.7121 30.4184 24.7121 31.8018 24.7121C32.185 24.7121 32.3233 24.6163 32.3978 24.2332C32.5553 23.4243 32.8773 22.6565 33.3439 21.9773C33.8106 21.2981 34.4118 20.7221 35.1104 20.285C35.8089 19.8479 36.5899 19.5591 37.4047 19.4364C38.2196 19.3138 39.0509 19.3599 39.8472 19.572H39.9856C40.2032 19.7297 40.4678 19.8092 40.7363 19.7976C41.0048 19.786 41.2615 19.684 41.4648 19.5081C41.7841 19.2314 42.2523 19.3272 42.6567 19.3378C42.9015 19.3378 43.0079 19.3379 42.976 19.0079C42.9304 18.433 42.7177 17.8839 42.3641 17.4283C42.0106 16.9726 41.5315 16.6302 40.9859 16.4432C40.135 16.0821 39.2511 15.8041 38.3467 15.6131C38.0381 15.5386 37.9529 15.6131 37.8465 15.9111C37.6688 16.4189 37.3401 16.8601 36.9045 17.1759C36.469 17.4916 35.9473 17.6667 35.4095 17.6777C35.2284 17.6924 35.0461 17.6694 34.8743 17.6104C34.7024 17.5513 34.5446 17.4574 34.4107 17.3345C34.2768 17.2116 34.1698 17.0624 34.0963 16.8962C34.0227 16.73 33.9843 16.5505 33.9835 16.3687C33.9835 14.7299 33.9835 13.0803 33.9835 11.4308C33.9667 11.2241 34.0052 11.0166 34.0949 10.8296C34.1847 10.6426 34.3225 10.4829 34.4943 10.3666C34.7603 10.1964 34.7178 10.0367 34.6326 9.81323C34.4203 9.14077 34.0417 8.53273 33.5321 8.04537C33.0224 7.55801 32.398 7.20708 31.7167 7.02503C30.9253 6.79566 30.1121 6.64943 29.2903 6.5887C29.1181 6.57954 28.9471 6.55461 28.7795 6.51421C28.695 6.50018 28.6142 6.46929 28.5419 6.42339C28.4696 6.37748 28.4072 6.31749 28.3586 6.24699C28.3099 6.17649 28.2759 6.09693 28.2587 6.01303C28.2414 5.92913 28.2412 5.84261 28.258 5.75863C28.2646 5.67546 28.2879 5.59449 28.3267 5.5206C28.3654 5.44671 28.4187 5.38144 28.4833 5.32872C28.548 5.27601 28.6226 5.23694 28.7028 5.21389C28.783 5.19084 28.867 5.18428 28.9498 5.1946C30.5846 5.20332 32.1923 5.61256 33.6323 6.38651C34.8401 7.17183 35.7067 8.38432 36.0587 9.78131C36.0895 9.90854 36.1485 10.0272 36.2314 10.1285C36.3143 10.2299 36.4189 10.3112 36.5375 10.3666C36.9804 10.5816 37.3533 10.9176 37.6132 11.3357C37.8731 11.7538 38.0094 12.2369 38.0061 12.7292C38.0061 13.1761 37.8252 13.7295 38.1019 14.0168C38.3786 14.3042 38.9001 14.2403 39.3151 14.3467C40.4469 14.601 41.5267 15.0473 42.5077 15.6663C43.0301 16.0452 43.457 16.5406 43.7544 17.1133C44.0518 17.686 44.2116 18.3201 44.2211 18.9654C44.2177 19.0904 44.2499 19.2138 44.314 19.3212C44.3781 19.4286 44.4713 19.5155 44.5829 19.572C44.9591 19.8289 45.2397 20.2031 45.3811 20.6362L45.3917 24.8717ZM12.6568 20.7C12.0476 20.6958 11.4436 20.8122 10.8796 21.0424C10.3155 21.2726 9.80259 21.6122 9.37032 22.0415C8.93805 22.4708 8.59498 22.9813 8.36088 23.5438C8.12678 24.1062 8.00627 24.7094 8.00628 25.3187C8.00628 26.5492 8.49513 27.7294 9.36528 28.5996C10.2354 29.4697 11.4156 29.9586 12.6462 29.9586C13.869 29.9534 15.0415 29.4711 15.914 28.6144C16.7866 27.7578 17.2903 26.5944 17.3181 25.3719C17.3209 24.7585 17.2023 24.1506 16.9692 23.5832C16.736 23.0158 16.393 22.5001 15.9597 22.0659C15.5265 21.6316 15.0116 21.2874 14.4447 21.053C13.8779 20.8186 13.2703 20.6986 12.6568 20.7ZM42.8589 25.3293C42.8647 24.7162 42.7475 24.1081 42.5142 23.541C42.281 22.974 41.9364 22.4594 41.5008 22.0278C41.0653 21.5963 40.5476 21.2564 39.9784 21.0283C39.4092 20.8002 38.8001 20.6886 38.1871 20.7C36.9649 20.7 35.7929 21.1855 34.9287 22.0497C34.0645 22.9138 33.5791 24.0859 33.5791 25.308C33.579 26.5378 34.0661 27.7174 34.9336 28.589C35.8012 29.4605 36.9786 29.953 38.2083 29.9586C38.8181 29.9614 39.4223 29.8437 39.9864 29.6123C40.5505 29.3809 41.0634 29.0404 41.4955 28.6102C41.9276 28.1801 42.2705 27.6688 42.5045 27.1058C42.7385 26.5427 42.8589 25.939 42.8589 25.3293ZM1.35502 23.5734V25.01C1.3403 25.0826 1.34339 25.1576 1.36403 25.2287C1.38467 25.2997 1.42223 25.3647 1.4735 25.4181C1.52477 25.4714 1.58822 25.5116 1.65841 25.535C1.72859 25.5585 1.80342 25.5646 1.87648 25.5528H4.07937C4.15213 25.5631 4.22629 25.5566 4.29611 25.5337C4.36593 25.5107 4.42953 25.4721 4.48201 25.4206C4.53448 25.3692 4.57442 25.3063 4.59871 25.237C4.62301 25.1676 4.63102 25.0936 4.62212 25.0207V22.1048C4.63262 22.0362 4.62703 21.9662 4.60578 21.9001C4.58452 21.8341 4.5482 21.7739 4.49967 21.7244C4.45115 21.6748 4.39176 21.6372 4.3262 21.6146C4.26064 21.592 4.19071 21.5849 4.12194 21.594H1.86584C1.49337 21.594 1.34437 21.7749 1.34437 22.1367C1.34437 22.4985 1.35502 23.0945 1.35502 23.5734ZM35.4095 13.8998C35.4095 14.5702 35.4095 15.2407 35.4095 15.9005C35.4095 16.3368 35.5798 16.3581 35.899 16.2197C36.1225 16.1399 36.3179 15.9968 36.4615 15.8078C36.6051 15.6189 36.6907 15.3922 36.7078 15.1555C36.7078 14.3361 36.7078 13.506 36.7078 12.6866C36.6894 12.4274 36.5918 12.1801 36.428 11.9783C36.2643 11.7765 36.0425 11.6299 35.7926 11.5585C35.5372 11.4628 35.4201 11.5585 35.4201 11.8246C35.4095 12.495 35.3456 13.2506 35.3456 13.8998H35.4095ZM42.0182 20.7C42.8941 21.4554 43.5733 22.4122 43.9976 23.4882C43.9976 22.7007 43.9976 21.9345 43.9976 21.1789C43.9976 20.8916 43.8699 20.7107 43.5826 20.7H42.0182Z" fill="#EF4C23"/>
<path d="M6.39899 13.1122C6.38192 12.443 6.5079 11.7778 6.7685 11.1612C7.02911 10.5446 7.41833 9.99065 7.91016 9.53649C9.68738 7.75927 11.4752 5.98206 13.2312 4.21548C13.6836 3.73344 14.2282 3.34714 14.8326 3.07951C15.4371 2.81187 16.0892 2.66833 16.7502 2.65741C17.4112 2.64649 18.0676 2.76842 18.6806 3.01595C19.2936 3.26348 19.8507 3.63158 20.3188 4.09842C20.776 4.56399 21.1368 5.11522 21.3806 5.72051C21.6243 6.3258 21.7463 6.97325 21.7393 7.62575C21.7324 8.27825 21.5968 8.92296 21.3402 9.52294C21.0837 10.1229 20.7112 10.6664 20.2443 11.1222C18.467 12.8994 16.6898 14.6872 14.9233 16.4432C14.3063 17.1397 13.4985 17.6401 12.6 17.8822C11.7015 18.1243 10.7518 18.0976 9.86829 17.8053C8.99566 17.5611 8.21167 17.0711 7.60977 16.3937C7.00786 15.7163 6.61342 14.8802 6.47348 13.9849C6.46323 13.9 6.46323 13.8143 6.47348 13.7294C6.38835 13.5272 6.39899 13.3144 6.39899 13.1122ZM10.9963 16.6773C11.4861 16.7121 11.9777 16.646 12.4408 16.4831C12.904 16.3202 13.3287 16.0639 13.6888 15.7301C14.4976 14.9639 15.2638 14.1551 16.0726 13.3783C16.1632 13.3047 16.2276 13.2039 16.2564 13.0908C16.2851 12.9777 16.2767 12.8583 16.2322 12.7504C15.9293 11.6546 15.3475 10.6561 14.5437 9.85222C13.7398 9.04834 12.7413 8.46657 11.6455 8.16367C11.5435 8.12051 11.4301 8.1117 11.3226 8.13857C11.2151 8.16545 11.1193 8.22655 11.0496 8.31266C10.2727 9.11081 9.4639 9.86639 8.70832 10.6858C8.2194 11.1638 7.88889 11.7803 7.76139 12.4521C7.63388 13.1238 7.71552 13.8186 7.99529 14.4425C8.22621 15.065 8.63252 15.6074 9.16509 16.004C9.69767 16.4006 10.3337 16.6344 10.9963 16.6773ZM17.3816 11.9629C18.0946 11.2605 18.8289 10.6113 19.51 9.83447C20.0838 9.1797 20.3949 8.33559 20.3831 7.465C20.3713 6.59442 20.0375 5.75904 19.4461 5.12005C18.85 4.46422 18.0267 4.0597 17.1433 3.98855C16.2599 3.9174 15.3825 4.18496 14.6891 4.73694C13.9442 5.33289 13.3163 6.06719 12.6246 6.727C12.3904 6.96112 12.5394 7.00369 12.7523 7.07818C13.6869 7.43028 14.5437 7.9617 15.2744 8.64256C16.2537 9.55521 16.9922 10.6958 17.4241 11.9629H17.3816Z" fill="#EF4C23"/>
<path d="M28.1941 12.6756C28.1941 12.0051 28.1941 11.3347 28.1941 10.6749C28.189 10.4769 28.2271 10.2802 28.3059 10.0985C28.3846 9.91675 28.502 9.75438 28.6499 9.62268C28.7978 9.49098 28.9727 9.39311 29.1623 9.3359C29.3519 9.27869 29.5517 9.26352 29.7478 9.29143C30.2939 9.35409 30.8323 9.47175 31.3547 9.64262C31.6121 9.70645 31.8472 9.83927 32.0348 10.0268C32.2223 10.2143 32.3551 10.4494 32.4189 10.7068C32.7693 12.0483 32.9516 13.4282 32.9617 14.8146C32.9734 15.1481 32.8541 15.4729 32.6293 15.7195C32.4046 15.9661 32.0922 16.115 31.7591 16.1343C30.9903 16.1874 30.2187 16.1874 29.4498 16.1343C29.1111 16.115 28.7933 15.9639 28.5646 15.7133C28.3358 15.4627 28.2143 15.1325 28.226 14.7934C28.1834 14.0803 28.1941 13.378 28.1941 12.6756ZM29.5456 12.7288C29.5456 12.8778 29.5456 13.0374 29.5456 13.1864C29.5456 13.7079 29.3115 14.4315 29.652 14.7082C29.9926 14.9849 30.663 14.7082 31.1845 14.7934C31.5356 14.7934 31.5782 14.6763 31.5569 14.3783C31.4931 13.5802 31.4186 12.7714 31.2909 11.9839C31.1206 10.9197 31.0461 10.9197 30.0032 10.6962H29.8968C29.6414 10.6323 29.5243 10.6962 29.5349 10.9942C29.5562 11.5582 29.5456 12.1861 29.5456 12.7288Z" fill="#EF4C23"/>
<path d="M12.6465 23.3281C12.9128 23.3279 13.1765 23.3815 13.4216 23.4856C13.6667 23.5897 13.8884 23.7422 14.0732 23.934C14.258 24.1257 14.4022 24.3528 14.4972 24.6016C14.5921 24.8505 14.6359 25.1159 14.6259 25.382C14.626 25.6442 14.5737 25.9037 14.4721 26.1454C14.3705 26.3871 14.2217 26.6061 14.0343 26.7894C13.847 26.9728 13.6249 27.1169 13.3811 27.2133C13.1373 27.3097 12.8767 27.3565 12.6146 27.3508C12.0867 27.3452 11.5821 27.1323 11.2098 26.758C10.8375 26.3837 10.6273 25.878 10.6245 25.3501C10.6245 24.8138 10.8375 24.2995 11.2167 23.9203C11.5959 23.5412 12.1102 23.3281 12.6465 23.3281ZM12.6465 24.7009C12.5603 24.7009 12.4751 24.7181 12.3956 24.7514C12.3161 24.7846 12.2441 24.8334 12.1837 24.8948C12.1232 24.9562 12.0757 25.0291 12.0437 25.1091C12.0117 25.1891 11.9959 25.2746 11.9973 25.3607C12.0014 25.446 12.0223 25.5297 12.0588 25.6069C12.0952 25.6841 12.1466 25.7533 12.2098 25.8107C12.2731 25.868 12.347 25.9123 12.4275 25.941C12.5079 25.9697 12.5931 25.9823 12.6784 25.978C12.8431 25.9752 13.0001 25.9078 13.1155 25.7904C13.231 25.6729 13.2957 25.5148 13.2957 25.3501C13.2957 25.264 13.2785 25.1787 13.2452 25.0992C13.212 25.0197 13.1632 24.9477 13.1018 24.8873C13.0404 24.8269 12.9675 24.7793 12.8875 24.7473C12.8076 24.7153 12.722 24.6995 12.6359 24.7009H12.6465Z" fill="#EF4C23"/>
<path d="M38.1979 23.3281C38.724 23.328 39.2293 23.5341 39.6053 23.9021C39.9813 24.2701 40.1981 24.7709 40.2092 25.2969C40.2192 25.5621 40.1757 25.8267 40.0814 26.0748C39.9871 26.3229 39.8438 26.5495 39.6602 26.7411C39.4765 26.9328 39.2561 27.0855 39.0122 27.1902C38.7683 27.295 38.5059 27.3496 38.2404 27.3508C37.7058 27.3538 37.1913 27.1471 36.8073 26.775C36.4233 26.403 36.2004 25.8952 36.1865 25.3607C36.1892 24.8262 36.4014 24.3139 36.7774 23.934C37.1534 23.554 37.6633 23.3365 38.1979 23.3281ZM38.8364 25.3501C38.8393 25.265 38.8248 25.1801 38.7939 25.1008C38.763 25.0214 38.7162 24.9492 38.6565 24.8884C38.5968 24.8277 38.5253 24.7798 38.4465 24.7475C38.3676 24.7153 38.283 24.6995 38.1979 24.7009C38.1113 24.6958 38.0246 24.7096 37.9439 24.7414C37.8632 24.7732 37.7905 24.8222 37.7307 24.885C37.6709 24.9478 37.6255 25.023 37.5978 25.1051C37.57 25.1873 37.5605 25.2745 37.57 25.3607C37.5671 25.4417 37.5807 25.5224 37.61 25.5979C37.6393 25.6734 37.6837 25.7421 37.7405 25.7999C37.7973 25.8576 37.8652 25.9032 37.9402 25.9338C38.0152 25.9645 38.0956 25.9795 38.1766 25.978C38.2617 25.9823 38.3468 25.9693 38.4267 25.9397C38.5066 25.9101 38.5796 25.8645 38.6413 25.8058C38.7031 25.747 38.7522 25.6763 38.7857 25.598C38.8193 25.5197 38.8365 25.4353 38.8364 25.3501Z" fill="#EF4C23"/>
</svg>
