<svg width="42" height="45" viewBox="0 0 42 45" fill="none" xmlns="http://www.w3.org/2000/svg">
<path d="M30.3085 0.0212724C30.3085 0.117051 30.4042 0.0957685 30.4681 0.10641C30.8266 0.205635 31.162 0.374505 31.4552 0.603355C31.7484 0.832206 31.9937 1.11657 32.177 1.4402C32.3603 1.76384 32.4781 2.12041 32.5236 2.48956C32.5691 2.85871 32.5414 3.23322 32.4422 3.59168C32.343 3.95015 32.1741 4.28556 31.9453 4.57877C31.7164 4.87198 31.432 5.11724 31.1084 5.30055C30.7848 5.48386 30.4282 5.60164 30.0591 5.64714C29.6899 5.69265 29.3154 5.665 28.9569 5.56577C28.8432 5.52006 28.7178 5.51193 28.5991 5.54257C28.4804 5.5732 28.3746 5.641 28.2971 5.73605C27.8715 6.19366 27.4351 6.61933 26.9882 7.04501C26.9149 7.11199 26.8578 7.19463 26.8209 7.28675C26.7841 7.37888 26.7685 7.47813 26.7753 7.57711C26.7753 10.117 26.7753 12.6676 26.7753 15.2287C26.7753 15.5373 26.8605 15.6225 27.1478 15.6012C27.4627 15.5693 27.78 15.5693 28.0949 15.6012C28.3823 15.6012 28.4248 15.5161 28.4248 15.2607C28.4248 14.0687 28.4248 12.8768 28.4248 11.6956C28.4205 11.3478 28.4859 11.0027 28.617 10.6805C28.7481 10.3584 28.9424 10.0658 29.1883 9.81982C29.4342 9.57389 29.7269 9.37964 30.049 9.24852C30.3712 9.1174 30.7163 9.05207 31.064 9.05635H31.2769C31.554 9.11733 31.8435 9.08583 32.1011 8.96667C32.3586 8.84751 32.57 8.64726 32.7029 8.39655C32.927 8.09919 33.2088 7.8501 33.5314 7.66422C33.854 7.47834 34.2108 7.35948 34.5804 7.31477C34.9501 7.27005 35.3249 7.3004 35.6826 7.404C36.0402 7.50759 36.3733 7.68231 36.6618 7.91767C36.9522 8.15186 37.1932 8.44135 37.371 8.76937C37.5487 9.09739 37.6596 9.45743 37.6972 9.82861C37.7348 10.1998 37.6984 10.5747 37.5901 10.9317C37.4818 11.2888 37.3037 11.6207 37.0661 11.9084C36.7699 12.2742 36.3858 12.559 35.9497 12.7362C35.5137 12.9135 35.0399 12.9775 34.5724 12.9223C34.1049 12.867 33.6591 12.6944 33.2764 12.4203C32.8936 12.1463 32.5865 11.7798 32.3837 11.355C32.2985 11.1741 32.2134 11.089 32.0112 11.1209C31.6265 11.0874 31.239 11.1125 30.8619 11.1954C30.747 11.233 30.648 11.3079 30.5806 11.4081C30.5131 11.5084 30.481 11.6282 30.4894 11.7488C30.4894 12.9407 30.4894 14.1326 30.4894 15.3245C30.4894 15.5693 30.5745 15.6012 30.7767 15.5906H31.9473C32.0908 15.5755 32.2358 15.5927 32.3717 15.6408C32.5077 15.689 32.6312 15.7669 32.7332 15.8689C32.8352 15.9709 32.9131 16.0944 32.9612 16.2303C33.0094 16.3663 33.0266 16.5113 33.0115 16.6548C33.0007 17.1713 32.9581 17.6866 32.8838 18.1978C32.8579 18.2984 32.8669 18.4049 32.9095 18.4996C32.952 18.5944 33.0255 18.6719 33.118 18.7193C34.4908 19.7835 35.8636 20.7839 37.2364 21.8161C37.358 21.8809 37.4641 21.9711 37.5476 22.0806C37.6311 22.1901 37.6901 22.3163 37.7204 22.4507C37.7507 22.585 37.7516 22.7243 37.7232 22.8591C37.6948 22.9938 37.6377 23.1209 37.5557 23.2315C37.3762 23.5967 37.1772 23.9519 36.9597 24.2957C36.8107 24.5299 36.8852 24.6256 37.0981 24.7427C37.5876 24.9981 38.0665 25.2961 38.556 25.5621C38.7675 25.6639 38.9434 25.8269 39.0611 26.03C39.1788 26.233 39.2327 26.4668 39.2158 26.7008C39.2158 29.8934 39.2158 32.9903 39.2158 36.1297C39.2158 36.4702 39.3116 36.566 39.6415 36.5447C39.9714 36.5234 40.4929 36.5447 40.9292 36.5447C41.2115 36.5447 41.4821 36.6568 41.6817 36.8564C41.8813 37.056 41.9934 37.3267 41.9934 37.6089C41.9934 39.418 41.9934 41.2165 41.9934 43.0257C41.9934 43.3079 41.8813 43.5786 41.6817 43.7782C41.4821 43.9778 41.2115 44.0899 40.9292 44.0899C39.0988 44.0899 37.2577 44.0899 35.4273 44.0899C35.145 44.0899 34.8744 43.9778 34.6748 43.7782C34.4752 43.5786 34.3631 43.3079 34.3631 43.0257C34.3631 41.2165 34.3631 39.4074 34.3631 37.5983C34.3631 37.316 34.4752 37.0453 34.6748 36.8458C34.8744 36.6462 35.145 36.5341 35.4273 36.5341C35.931 36.5341 36.4312 36.5341 36.9278 36.5341C37.1407 36.5341 37.1939 36.4809 37.1939 36.268C37.1939 33.3202 37.1939 30.3617 37.1939 27.4138C37.1939 27.2755 37.1939 27.1584 37.0555 27.0839L35.9913 26.4773C35.8104 26.3709 35.7785 26.4773 35.7146 26.6157C35.5231 26.9562 35.3421 27.2861 35.1399 27.6267C35.0807 27.7663 34.9923 27.8917 34.8806 27.9944C34.769 28.0971 34.6366 28.1747 34.4925 28.2221C34.3484 28.2694 34.1958 28.2855 34.045 28.269C33.8942 28.2526 33.7487 28.2041 33.6181 28.1269L28.9037 26.0942C28.7228 26.0091 28.5845 25.9665 28.4142 26.0942C27.5777 26.7905 26.6414 27.3573 25.6366 27.7757C25.5437 27.8026 25.4617 27.8584 25.4024 27.9348C25.3431 28.0113 25.3096 28.1046 25.3067 28.2014C25.1045 29.9147 24.881 31.6387 24.6469 33.3521C24.6404 33.4832 24.6072 33.6116 24.5495 33.7295C24.4918 33.8475 24.4107 33.9524 24.3111 34.038C24.2116 34.1236 24.0957 34.1881 23.9705 34.2275C23.8453 34.2669 23.7133 34.2805 23.5827 34.2673C23.157 34.2673 22.742 34.2673 22.327 34.2673C22.1141 34.2673 22.029 34.3205 22.0396 34.5546C22.0396 35.0938 22.0396 35.6366 22.0396 36.1829C22.0396 36.4489 22.1035 36.5234 22.3695 36.5234C23.7317 36.5234 25.0939 36.5234 26.4561 36.5234C26.6157 36.5046 26.7775 36.5223 26.9294 36.575C27.0813 36.6277 27.2192 36.7141 27.3329 36.8278C27.4466 36.9415 27.533 37.0794 27.5858 37.2313C27.6385 37.3832 27.6561 37.545 27.6373 37.7047V42.9193C27.6547 43.0791 27.6356 43.2408 27.5815 43.3922C27.5274 43.5436 27.4397 43.6808 27.325 43.7934C27.2103 43.9061 27.0716 43.9913 26.9193 44.0426C26.7669 44.094 26.6049 44.1101 26.4454 44.0899C22.82 44.0899 19.1946 44.0899 15.5693 44.0899C15.4086 44.109 15.2457 44.0912 15.093 44.0379C14.9402 43.9846 14.8016 43.8972 14.6877 43.7823C14.5738 43.6673 14.4876 43.528 14.4357 43.3747C14.3838 43.2215 14.3675 43.0585 14.388 42.898V37.694C14.3715 37.5372 14.3901 37.3786 14.4424 37.2298C14.4947 37.081 14.5794 36.9457 14.6904 36.8337C14.8015 36.7217 14.936 36.6357 15.0843 36.582C15.2326 36.5284 15.391 36.5084 15.548 36.5234C16.9102 36.5234 18.2723 36.5234 19.6345 36.5234C19.9006 36.5234 20.007 36.4596 19.9857 36.1722C19.9857 35.6295 19.9857 35.108 19.9857 34.5334C19.9857 34.3312 19.9325 34.2673 19.7303 34.2673C19.3046 34.2673 18.8896 34.2673 18.4745 34.2673C18.3399 34.2791 18.2043 34.2628 18.0762 34.2196C17.9481 34.1763 17.8304 34.107 17.7304 34.0161C17.6305 33.9251 17.5504 33.8144 17.4953 33.691C17.4402 33.5675 17.4113 33.434 17.4103 33.2989C17.1868 31.5962 16.9527 29.8934 16.7505 28.1907C16.746 28.0944 16.7119 28.0019 16.6529 27.9257C16.5939 27.8495 16.5127 27.7934 16.4206 27.765C15.4126 27.3532 14.4754 26.7858 13.6431 26.0836C13.4621 25.924 13.3344 25.9878 13.1535 26.0836L8.59874 28.063C7.74738 28.4248 7.37492 28.2971 6.89603 27.499C6.70447 27.1904 6.51291 26.8924 6.34264 26.5838C6.17236 26.2751 6.16172 26.3816 6.01274 26.5093H5.93823C5.55525 26.6169 5.22716 26.8654 5.01989 27.2049C4.81261 27.5445 4.7415 27.9499 4.82083 28.3397C4.90597 30.9363 4.82083 33.533 4.82083 36.119C4.82083 36.4276 4.89532 36.5128 5.1933 36.5021C5.67219 36.5021 6.14043 36.5021 6.61932 36.5021C6.90157 36.5021 7.17225 36.6143 7.37183 36.8138C7.5714 37.0134 7.68352 37.2841 7.68352 37.5663C7.68352 39.3968 7.68352 41.2166 7.68352 43.0363C7.69293 43.1785 7.67186 43.3211 7.62171 43.4544C7.57155 43.5878 7.49347 43.709 7.39271 43.8097C7.29195 43.9105 7.17083 43.9886 7.03745 44.0387C6.90407 44.0889 6.76151 44.1099 6.61932 44.1005C4.76761 44.1005 2.91591 44.1005 1.0642 44.1005C0.781958 44.1005 0.511273 43.9884 0.311697 43.7888C0.11212 43.5893 0 43.3186 0 43.0363V37.5876C0 37.3054 0.11212 37.0347 0.311697 36.8351C0.511273 36.6355 0.781958 36.5234 1.0642 36.5234C1.48988 36.5234 1.9262 36.5234 2.35188 36.5234C2.77756 36.5234 2.75627 36.4489 2.74563 36.1297C2.74563 33.0328 2.74563 29.936 2.74563 26.8392C2.71271 26.5535 2.77254 26.2648 2.91626 26.0156C3.05998 25.7665 3.27997 25.5702 3.54378 25.4557C4.00139 25.2322 4.43772 24.9449 4.88468 24.7108C5.09752 24.5937 5.15073 24.5086 5.01238 24.2957C4.87404 24.0829 4.5867 23.5721 4.39514 23.2315C4.3183 23.1224 4.26512 22.9984 4.239 22.8676C4.21287 22.7367 4.21437 22.6018 4.24343 22.4715C4.27249 22.3413 4.32846 22.2185 4.40773 22.1112C4.487 22.0038 4.58784 21.9142 4.70377 21.8481C6.08014 20.8193 7.4565 19.7906 8.83287 18.7619C8.90628 18.6947 8.95848 18.6076 8.98305 18.5112C9.00763 18.4147 9.00352 18.3132 8.97122 18.2191C8.90225 17.7073 8.85963 17.1923 8.84352 16.676C8.83043 16.533 8.84897 16.3889 8.89782 16.2538C8.94667 16.1187 9.02464 15.9961 9.1262 15.8945C9.22775 15.793 9.35041 15.715 9.48547 15.6661C9.62053 15.6173 9.76469 15.5988 9.90772 15.6118H10.2057C10.5888 15.6118 11.1103 15.7821 11.2699 15.5373C11.4295 15.2926 11.3337 14.803 11.3337 14.4199V11.8339C11.3337 11.3444 11.1316 11.1528 10.6207 11.1422H10.5356C10.2799 11.0872 10.0133 11.1179 9.77671 11.2294C9.54017 11.341 9.34688 11.5272 9.22663 11.7594C8.89142 12.2468 8.40832 12.6133 7.84873 12.805C7.28915 12.9966 6.68275 13.0031 6.11916 12.8236C5.56695 12.6394 5.08193 12.2952 4.72571 11.8348C4.36949 11.3743 4.15813 10.8184 4.11846 10.2376C4.0994 9.59675 4.30013 8.96865 4.68729 8.45759C5.07445 7.94654 5.62477 7.58327 6.24686 7.42813C6.84866 7.25436 7.49151 7.28911 8.07107 7.52673C8.65063 7.76435 9.13286 8.19088 9.43947 8.73709C9.48702 8.84956 9.56979 8.94357 9.67533 9.00498C9.78088 9.06639 9.90351 9.09189 10.0248 9.07764C10.5119 9.03836 11.0021 9.06339 11.4827 9.15213C12.0583 9.29029 12.5694 9.62097 12.9313 10.0893C13.2932 10.5577 13.4843 11.1357 13.4728 11.7275C13.4728 12.8981 13.4728 14.0794 13.4728 15.25C13.4728 15.5693 13.5579 15.6438 13.8453 15.6225C14.1602 15.5905 14.4775 15.5905 14.7924 15.6225C15.0797 15.6225 15.1117 15.5374 15.1117 15.2819V7.57711C15.1193 7.4863 15.106 7.39496 15.0728 7.31009C15.0396 7.22522 14.9873 7.14909 14.9201 7.08757L13.4941 5.66155C13.4495 5.59953 13.3855 5.55427 13.3121 5.53304C13.2388 5.51181 13.1604 5.51584 13.0897 5.54448C12.7289 5.67027 12.3464 5.7217 11.9651 5.6957C11.5839 5.66969 11.2119 5.56679 10.8716 5.39317C10.5312 5.21956 10.2295 4.97882 9.98464 4.68549C9.73979 4.39215 9.55685 4.05229 9.44686 3.68637C9.33686 3.32045 9.3021 2.93606 9.34464 2.55634C9.38718 2.17662 9.50614 1.80943 9.69438 1.47692C9.88262 1.14441 10.1362 0.853455 10.4399 0.621575C10.7436 0.389695 11.0911 0.221693 11.4614 0.127699C11.5147 0.127699 11.5679 0.127697 11.5785 0.0425609H12.5256C12.6321 0.212833 12.813 0.117056 12.9513 0.159624C13.6217 0.367225 14.1911 0.816458 14.549 1.42015C14.9069 2.02384 15.0278 2.73895 14.8882 3.42673C14.8274 3.5959 14.8203 3.77971 14.8679 3.95305C14.9155 4.12639 15.0155 4.28078 15.1542 4.39514C15.7076 4.87403 16.2184 5.45935 16.7186 5.9276C16.8686 6.06083 16.9882 6.2249 17.069 6.40856C17.1498 6.59223 17.19 6.79117 17.1869 6.9918C17.1869 9.7268 17.1869 12.4618 17.1869 15.1968C17.1869 15.4948 17.2507 15.5906 17.5593 15.5799C18.2191 15.5799 18.8789 15.5799 19.5387 15.5799C19.8686 15.5799 19.9644 15.5054 19.9538 15.1649C19.9538 12.0574 19.9538 8.93929 19.9538 5.83182C19.9655 5.70954 19.9377 5.58672 19.8745 5.48138C19.8113 5.37604 19.716 5.29372 19.6026 5.24651C19.2078 5.04112 18.8694 4.74216 18.6168 4.37576C18.3643 4.00935 18.2053 3.58666 18.1539 3.14464C18.1024 2.70261 18.1601 2.25472 18.3217 1.84011C18.4833 1.42549 18.7441 1.05679 19.0811 0.766227C19.4714 0.444744 19.9094 0.186215 20.3795 0H21.4437C21.4437 0 21.4969 0.0638437 21.5288 0.0744857C22.1177 0.167819 22.661 0.448198 23.0783 0.874164C23.4955 1.30013 23.7646 1.84908 23.8458 2.43981C23.9269 3.03054 23.8158 3.63171 23.5289 4.15441C23.2419 4.67711 22.7944 5.0936 22.2525 5.34228C22.1817 5.37015 22.1222 5.42093 22.0837 5.48651C22.0451 5.55209 22.0296 5.62871 22.0396 5.70412C22.0396 8.89673 22.0396 12.0893 22.0396 15.2819C22.0396 15.548 22.146 15.5799 22.3589 15.5799C23.04 15.5799 23.7104 15.5799 24.3809 15.5799C24.7001 15.5799 24.8066 15.5161 24.8066 15.1649C24.8066 12.4512 24.8066 9.72681 24.8066 7.00245C24.7943 6.78871 24.8311 6.57498 24.9141 6.37763C24.9971 6.18028 25.1241 6.00451 25.2854 5.86375C25.8069 5.37422 26.2751 4.79954 26.8072 4.36322C26.9494 4.2536 27.0543 4.10282 27.1076 3.93142C27.1609 3.76002 27.1601 3.57635 27.1052 3.40544C26.998 2.92739 27.0172 2.42965 27.1609 1.96126C27.3046 1.49288 27.5678 1.07 27.9247 0.734302C28.3189 0.391884 28.7841 0.1411 29.2868 0L30.3085 0.0212724ZM11.0996 17.6551C11.1528 17.9744 11.1848 18.2617 11.2486 18.5384C11.3157 18.8032 11.296 19.0826 11.1926 19.3354C11.0892 19.5882 10.9074 19.8012 10.6739 19.9431C9.3969 20.8477 8.15178 21.7949 6.89603 22.7101C6.69383 22.8484 6.62996 22.9442 6.76831 23.1783C7.25784 23.9871 7.71546 24.8065 8.17307 25.6366C8.29013 25.8495 8.39654 25.8814 8.63066 25.7856C10.0993 25.1365 11.5679 24.5299 13.0365 23.8807C13.2348 23.7795 13.4585 23.7387 13.6798 23.7632C13.9011 23.7878 14.1103 23.8768 14.2816 24.019L15.0585 24.6256C15.9052 25.2378 16.8376 25.7218 17.8254 26.0623C18.0646 26.1248 18.2778 26.2614 18.4346 26.4526C18.5914 26.6438 18.6836 26.8797 18.698 27.1265C18.8577 28.7228 19.0598 30.3191 19.2408 31.9048C19.2408 32.075 19.2408 32.2028 19.4962 32.1921H22.4653C22.6462 32.1921 22.6994 32.1921 22.7207 31.958C22.8803 30.4681 23.0825 28.9782 23.2102 27.4777C23.2031 27.1465 23.3026 26.8217 23.4943 26.5515C23.6859 26.2813 23.9595 26.0799 24.2744 25.9772C25.5144 25.5615 26.6479 24.8785 27.5948 23.9765C27.7606 23.8032 27.9802 23.6911 28.2178 23.6582C28.4554 23.6254 28.6971 23.6738 28.9037 23.7956L33.2776 25.7537C33.5117 25.8601 33.6288 25.8707 33.7671 25.6153C34.2141 24.7959 34.6717 23.9871 35.1506 23.189C35.2889 22.9548 35.257 22.8484 35.0335 22.6888C33.7565 21.7416 32.4901 20.7732 31.213 19.8367C31.0086 19.7006 30.8504 19.5056 30.7592 19.2776C30.668 19.0496 30.6481 18.7992 30.7022 18.5597C30.7022 18.2724 30.7874 17.9744 30.8406 17.6445C30.3195 17.6712 29.7973 17.6712 29.2762 17.6445C28.8292 17.6445 28.6802 17.7403 28.6057 18.1766C28.4045 19.2114 27.9947 20.1944 27.4014 21.0658C26.8081 21.9372 26.0436 22.6787 25.1546 23.2452C24.2655 23.8117 23.2704 24.1913 22.23 24.361C21.1895 24.5306 20.1254 24.4867 19.1024 24.2319C17.6025 23.8922 16.2397 23.1084 15.1918 21.9827C14.1439 20.857 13.4596 19.4416 13.228 17.9212C13.228 17.7828 13.228 17.6445 13.0045 17.6551H11.0996ZM26.637 17.6551H15.2713C15.5214 18.9721 16.2233 20.1606 17.2559 21.0155C18.2884 21.8704 19.587 22.3382 20.9275 22.3382C22.2681 22.3382 23.5666 21.8704 24.5992 21.0155C25.6318 20.1606 26.3336 18.9721 26.5838 17.6551H26.637ZM20.9861 38.5348H16.7292C16.4845 38.5348 16.41 38.5348 16.4206 38.8327C16.4206 39.7763 16.4206 40.7235 16.4206 41.6741C16.4206 41.9189 16.4738 41.9828 16.7186 41.9828C19.5565 41.9828 22.3944 41.9828 25.2322 41.9828C25.4663 41.9828 25.5409 41.9189 25.5409 41.6741C25.5409 40.7483 25.5409 39.8118 25.5409 38.8859C25.5409 38.5986 25.4664 38.5241 25.1897 38.5241C23.7423 38.5773 22.3376 38.5667 20.9329 38.5667L20.9861 38.5348ZM3.85241 38.5348H2.34124C2.13904 38.5348 2.04327 38.5348 2.04327 38.8115C2.04327 39.7692 2.04327 40.727 2.04327 41.6848C2.04327 41.8976 2.04326 41.9828 2.31995 41.9828C3.29902 41.9828 4.28873 41.9828 5.27843 41.9828C5.49127 41.9828 5.57641 41.9828 5.57641 41.7061C5.57641 40.7483 5.57641 39.7799 5.57641 38.8221C5.57641 38.556 5.48063 38.5241 5.25715 38.5348H3.85241ZM38.1516 38.5348H36.6405C36.4383 38.5348 36.3744 38.5348 36.3744 38.7902C36.3744 39.7692 36.3744 40.7377 36.3744 41.7167C36.3744 41.9189 36.4276 41.9828 36.6405 41.9828C37.6408 41.9828 38.6518 41.9828 39.6522 41.9828C39.8544 41.9828 39.9182 41.9296 39.9182 41.7167C39.9182 40.7483 39.9182 39.7692 39.9182 38.7902C39.9182 38.588 39.865 38.5241 39.6522 38.5348H38.1516ZM29.7444 3.5438C29.9328 3.54675 30.1149 3.47614 30.252 3.34697C30.3891 3.2178 30.4705 3.04025 30.4788 2.85205C30.4746 2.65239 30.3978 2.4611 30.2625 2.31412C30.1273 2.16715 29.9431 2.07461 29.7444 2.0539C29.557 2.06707 29.3812 2.14958 29.2514 2.28535C29.1215 2.42111 29.0469 2.60039 29.0421 2.7882C29.0318 2.88275 29.0405 2.97839 29.0678 3.0695C29.095 3.16061 29.1402 3.24535 29.2007 3.31873C29.2612 3.39211 29.3358 3.45265 29.42 3.49678C29.5043 3.54092 29.5965 3.56776 29.6912 3.57572L29.7444 3.5438ZM20.2837 2.77757C20.2747 2.95873 20.3362 3.13633 20.4552 3.2732C20.5742 3.41007 20.7416 3.49559 20.9222 3.51185C21.1296 3.51503 21.3304 3.43839 21.4829 3.29777C21.6354 3.15714 21.728 2.96328 21.7416 2.75628C21.7281 2.5634 21.641 2.38306 21.4985 2.2524C21.356 2.12174 21.1688 2.0507 20.9754 2.0539C20.875 2.0475 20.7744 2.06275 20.6804 2.09861C20.5864 2.13446 20.5012 2.19009 20.4306 2.26174C20.3599 2.33338 20.3055 2.41937 20.271 2.51387C20.2365 2.60837 20.2227 2.70919 20.2305 2.80949L20.2837 2.77757ZM12.8981 2.77757C12.9056 2.59789 12.8469 2.42171 12.7331 2.28244C12.6194 2.14317 12.4584 2.05049 12.2809 2.02198C12.0836 2.03873 11.8977 2.12127 11.7529 2.25636C11.6082 2.39146 11.513 2.57126 11.4827 2.76692C11.4827 2.96166 11.5601 3.14845 11.6978 3.28616C11.8355 3.42386 12.0223 3.50122 12.217 3.50122C12.3829 3.48838 12.5384 3.41527 12.654 3.29567C12.7697 3.17608 12.8376 3.01828 12.8449 2.85205L12.8981 2.77757ZM35.5763 10.1099C35.5844 10.0142 35.5715 9.91796 35.5385 9.82778C35.5055 9.7376 35.4533 9.6557 35.3854 9.58781C35.3175 9.51991 35.2356 9.46765 35.1454 9.43468C35.0552 9.4017 34.9589 9.38882 34.8633 9.39691C34.7711 9.39402 34.6794 9.40984 34.5936 9.44345C34.5077 9.47705 34.4296 9.52771 34.364 9.59239C34.2983 9.65706 34.2465 9.73439 34.2115 9.81969C34.1766 9.90499 34.1594 9.99648 34.1609 10.0886C34.1565 10.1844 34.1718 10.2801 34.2058 10.3698C34.2398 10.4594 34.2918 10.5412 34.3586 10.61C34.4254 10.6787 34.5056 10.7331 34.5942 10.7698C34.6828 10.8064 34.778 10.8245 34.8739 10.8229C35.0611 10.8201 35.2398 10.7438 35.3712 10.6104C35.5026 10.477 35.5763 10.2972 35.5763 10.1099ZM7.75803 10.1099C7.74315 9.92963 7.66408 9.76066 7.53519 9.63373C7.4063 9.50679 7.23614 9.43031 7.05565 9.41818C6.96341 9.41818 6.87209 9.43636 6.78687 9.47165C6.70165 9.50695 6.62422 9.55868 6.559 9.6239C6.49378 9.68913 6.44204 9.76656 6.40675 9.85178C6.37145 9.93699 6.35327 10.0283 6.35327 10.1206C6.35327 10.2128 6.37145 10.3041 6.40675 10.3894C6.44204 10.4746 6.49378 10.552 6.559 10.6172C6.62422 10.6824 6.70165 10.7342 6.78687 10.7695C6.87209 10.8048 6.96341 10.8229 7.05565 10.8229C7.23866 10.8009 7.40814 10.7153 7.53454 10.5811C7.66094 10.4469 7.73626 10.2726 7.74739 10.0886L7.75803 10.1099Z" fill="#EF4C23"/>
</svg>
