<svg width="43" height="43" viewBox="0 0 43 43" fill="none" xmlns="http://www.w3.org/2000/svg">
<path d="M0.00562339 22.6003C0.00562339 18.8755 0.00562339 15.1508 0.00562339 11.4368C-0.0165739 11.132 0.0271108 10.826 0.13371 10.5397C0.240309 10.2533 0.407323 9.99322 0.623394 9.77715C0.839466 9.56108 1.09953 9.39407 1.3859 9.28747C1.67228 9.18087 1.97825 9.13718 2.28302 9.15938C2.69805 9.15938 3.23016 9.3403 3.46428 9.08489C3.6984 8.82948 3.52813 8.3293 3.52813 7.93555C3.52813 6.27539 3.52813 4.61523 3.52813 2.95508C3.52813 2.33784 3.76226 2.10371 4.37949 2.10371H18.2141C18.8526 2.10371 19.0868 2.33784 19.0868 2.987C19.0868 4.91321 19.0868 6.83942 19.0868 8.76562C19.0868 9.08488 19.1506 9.18066 19.4912 9.18066C20.6724 9.18066 21.8431 9.18066 23.0243 9.18066C23.3329 9.18066 23.3436 9.05296 23.3436 8.81884C23.3436 8.58471 23.3436 8.42508 23.0243 8.457C22.6699 8.47871 22.3145 8.47871 21.9601 8.457C21.8609 8.46816 21.7605 8.45738 21.6659 8.42542C21.5714 8.39346 21.485 8.3411 21.4129 8.27206C21.3408 8.20302 21.2848 8.11898 21.2488 8.02589C21.2128 7.9328 21.1977 7.83292 21.2045 7.73335V4.94514C21.1977 4.84556 21.2128 4.74569 21.2488 4.6526C21.2848 4.5595 21.3408 4.47546 21.4129 4.40642C21.485 4.33738 21.5714 4.28503 21.6659 4.25307C21.7605 4.22111 21.8609 4.21033 21.9601 4.22148C22.3113 4.22148 22.6731 4.22148 23.0243 4.22148C23.3755 4.22148 23.3649 4.13634 23.3329 3.89157C23.3221 3.78899 23.3221 3.68555 23.3329 3.58296C23.319 3.47624 23.3297 3.36774 23.3644 3.26583C23.399 3.16393 23.4566 3.07135 23.5327 2.99525C23.6088 2.91914 23.7014 2.86153 23.8033 2.82689C23.9052 2.79225 24.0137 2.78149 24.1204 2.79545C25.2698 2.79545 26.4191 2.79545 27.5578 2.79545C28.3976 2.82259 29.236 2.70745 30.0374 2.4549C32.5596 1.64611 35.0924 0.89053 37.6252 0.0817365C38.4978 -0.194956 38.9022 0.262647 38.8596 0.975663C38.8596 1.94409 38.8596 2.92315 38.8596 3.89157C38.8596 4.16827 38.9341 4.24276 39.2002 4.23212C39.6116 4.17836 40.0299 4.23341 40.4134 4.39175C40.8571 4.57953 41.224 4.91231 41.454 5.33566C41.6841 5.75901 41.7637 6.2479 41.6798 6.72236C41.5889 7.20542 41.3336 7.64214 40.9573 7.95834C40.5809 8.27454 40.1067 8.45073 39.6152 8.457H39.264C39.0086 8.457 38.8384 8.45701 38.8384 8.80819C38.8384 9.15938 38.9661 9.17002 39.2534 9.17002C39.808 9.11839 40.3671 9.14706 40.9136 9.25515C41.3371 9.39073 41.7076 9.6556 41.9729 10.0125C42.2382 10.3695 42.3851 10.8005 42.3928 11.2452V33.934C42.3928 34.4985 42.1686 35.0399 41.7694 35.439C41.3702 35.8382 40.8289 36.0624 40.2644 36.0624C35.0179 36.0624 29.782 36.0624 24.5461 36.0624C24.1311 36.0624 24.0247 36.1795 24.0566 36.5732C24.0886 36.9983 24.0886 37.4252 24.0566 37.8503C24.0566 38.1589 24.1524 38.2015 24.4291 38.2015H28.1325C28.7816 38.2015 29.0051 38.4356 29.0051 39.0741C29.0051 39.9361 29.0051 40.7875 29.0051 41.6388C29.0236 41.7492 29.0155 41.8624 28.9814 41.969C28.9473 42.0755 28.8882 42.1724 28.8091 42.2516C28.7299 42.3307 28.6331 42.3898 28.5265 42.4239C28.4199 42.458 28.3067 42.4661 28.1963 42.4476H14.2446C13.67 42.4476 13.4252 42.1922 13.4252 41.6069V38.9996C13.4252 38.4569 13.6806 38.2121 14.2446 38.2015H18.0332C18.3099 38.2015 18.3844 38.1376 18.3738 37.8609C18.3738 37.3501 18.3738 36.7967 18.3738 36.3178C18.3738 36.1263 18.3738 36.0518 18.129 36.0731H2.27237C1.96847 36.0937 1.66368 36.0488 1.37861 35.9415C1.09353 35.8341 0.834812 35.6669 0.61993 35.451C0.405047 35.2351 0.239006 34.9756 0.133028 34.69C0.0270501 34.4045 -0.016396 34.0995 0.00562339 33.7957C-0.00501863 30.0177 0.00562339 26.3143 0.00562339 22.6003ZM21.1832 31.7737H40.5624C40.8603 31.7737 40.9881 31.7737 40.9881 31.3906C40.9881 24.7712 40.9881 18.1483 40.9881 11.5219C40.9881 10.8195 40.7433 10.5748 40.0196 10.5854C39.6472 10.5854 39.147 10.4151 38.9554 10.6599C38.7639 10.9047 38.8916 11.3516 38.8916 11.7241C38.8916 12.5967 38.5297 12.8522 37.689 12.5967L29.8884 10.1917C29.4557 10.0072 28.9954 9.8957 28.5262 9.86175C28.3028 9.86175 28.207 9.86176 28.1751 10.1597C27.9941 11.4793 27.7919 12.7989 27.5897 14.1186C27.5923 14.2189 27.5729 14.3187 27.533 14.4108C27.4931 14.503 27.4336 14.5853 27.3587 14.6521C27.2837 14.719 27.1951 14.7687 27.099 14.7978C27.003 14.827 26.9017 14.8349 26.8022 14.8209H24.8228C24.2694 14.8209 24.0247 14.5655 24.0247 14.0015C24.0247 12.9373 24.0247 11.9476 24.0247 10.9153C24.0247 10.6493 23.9715 10.5641 23.6948 10.5748C22.2687 10.5748 20.8427 10.5748 19.438 10.5748C19.1719 10.5748 19.0974 10.5748 19.0974 10.9047C19.0974 11.9689 19.0974 12.9692 19.0974 14.0015C19.0974 14.5549 18.842 14.8209 18.2993 14.8209H4.32628C3.78354 14.8209 3.53877 14.5549 3.53877 14.0015C3.53877 13.214 3.53877 12.4371 3.53877 11.6603C3.53877 11.3091 3.69841 10.8408 3.47492 10.6493C3.25144 10.4577 2.80448 10.5854 2.41072 10.5854C1.59128 10.5854 1.34652 10.7982 1.34652 11.6496C1.34652 18.2157 1.34652 24.7819 1.34652 31.3374C1.34652 31.7524 1.47422 31.8056 1.83605 31.8056L21.1832 31.7737ZM11.3074 13.4055C13.2869 13.4055 15.2769 13.4055 17.267 13.4055C17.5969 13.4055 17.6714 13.3311 17.6714 13.0012C17.6714 9.96463 17.6714 6.93165 17.6714 3.90222C17.6714 3.57232 17.5969 3.49782 17.267 3.49782C13.2869 3.49782 9.31384 3.49782 5.34792 3.49782C5.01801 3.49782 4.93288 3.57232 4.93288 3.90222C4.93288 6.93165 4.93288 9.96463 4.93288 13.0012C4.93288 13.3311 5.01801 13.4055 5.34792 13.4055C7.32733 13.3949 9.31739 13.4055 11.3074 13.4055ZM21.1939 33.1891H1.59128C1.50615 33.1891 1.4423 33.1891 1.41037 33.3168C1.34685 33.4674 1.32433 33.6321 1.34511 33.7943C1.36589 33.9564 1.42923 34.1102 1.52869 34.2399C1.62815 34.3696 1.76018 34.4707 1.91136 34.5329C2.06254 34.595 2.22749 34.6161 2.38944 34.5938H39.9132C40.1176 34.6202 40.3254 34.5983 40.5198 34.53C40.7241 34.4228 40.8822 34.2447 40.9645 34.0291C41.0468 33.8136 41.0476 33.5754 40.9668 33.3593C40.8816 32.9975 40.5517 33.1997 40.3495 33.1997C33.9643 33.1359 27.5791 33.1891 21.1939 33.1891ZM37.4868 1.6674L29.8671 3.97671C29.6543 4.05121 29.6756 4.18955 29.6756 4.35983C29.6756 5.67944 29.6756 6.99905 29.6756 8.3293C29.6756 8.59536 29.782 8.66985 30.0055 8.7337C30.8356 8.97846 31.655 9.24452 32.4851 9.49992L37.4868 11.0217V1.6674ZM21.2045 40.9577H26.632C27.611 40.9577 27.5897 40.9577 27.6217 39.9893C27.6217 39.6169 27.5259 39.5317 27.1641 39.5317C23.4074 39.5317 19.7146 39.5317 15.9048 39.5317C14.8406 39.5317 14.9045 39.5317 14.8406 40.5959C14.8406 40.9365 14.9151 41.011 15.245 41.011C17.2031 40.9471 19.1825 40.9577 21.1513 40.9577H21.2045ZM28.3134 6.38181C28.3134 5.75393 28.3134 5.11541 28.3134 4.48753C28.3134 4.27469 28.3134 4.21084 28.0474 4.22148C27.047 4.22148 26.0467 4.22148 25.0463 4.22148C24.8335 4.22148 24.7696 4.22148 24.7803 4.48753C24.7803 5.72201 24.7803 6.95648 24.7803 8.19095C24.7803 8.40379 24.8335 8.46765 25.0463 8.46765H28.0474C28.2602 8.46765 28.324 8.40379 28.3134 8.19095C28.2495 7.595 28.2602 6.98841 28.2602 6.38181H28.3134ZM21.2152 38.127C21.5983 38.127 21.9814 38.127 22.3645 38.127C22.7476 38.127 22.6731 38.127 22.6625 37.8396C22.6625 37.3288 22.6625 36.7754 22.6625 36.2965C22.6625 36.0731 22.6625 35.9879 22.3752 35.9986H20.0765C19.853 35.9986 19.7679 35.9986 19.7785 36.2859C19.7785 36.7967 19.7785 37.3501 19.7785 37.829C19.7785 38.0418 19.7785 38.1376 20.0658 38.127C20.3532 38.1163 20.8001 38.127 21.162 38.127H21.2152ZM25.472 11.6177C25.472 12.1179 25.472 12.618 25.472 13.1182C25.472 13.2885 25.472 13.4694 25.7167 13.3949C25.9615 13.3204 26.2276 13.629 26.2914 13.1821C26.4298 12.1817 26.5788 11.1814 26.7171 10.181C26.7171 10.0746 26.8661 9.85111 26.5894 9.88304C26.3127 9.91496 25.8232 9.73405 25.5252 10.0001C25.5252 10.0001 25.5252 10.1704 25.5252 10.2555L25.472 11.6177ZM38.8809 6.29667C39.0086 6.55208 38.6149 7.08419 39.3279 7.03098C40.0409 6.97777 40.2963 6.76493 40.307 6.31796C40.3176 5.871 39.9558 5.63687 39.3066 5.5943C38.6574 5.55174 38.9661 6.08383 38.8384 6.3286L38.8809 6.29667ZM23.3542 6.29667C23.3436 6.16209 23.3436 6.02687 23.3542 5.89228C23.3542 5.61559 23.2691 5.57301 23.0137 5.56237C22.7583 5.55173 22.5986 5.64751 22.6306 5.95613C22.6519 6.17555 22.6519 6.39652 22.6306 6.61594C22.6306 6.87135 22.6306 6.99905 22.9711 6.99905C23.3117 6.99905 23.3861 6.90327 23.3436 6.60529C23.3263 6.5247 23.3156 6.44284 23.3117 6.36052L23.3542 6.29667Z" fill="#EF4C23"/>
<path d="M12.7121 17.6406H21.6727C22.3857 17.6406 22.6092 17.8535 22.6092 18.5452V29.4533C22.6092 30.145 22.3857 30.3578 21.6833 30.3578H3.75154C3.04916 30.3578 2.82568 30.145 2.82568 29.4533V18.5558C2.82568 17.8535 3.04916 17.6406 3.75154 17.6406H12.7121ZM4.25171 19.6307C4.2478 19.7051 4.2478 19.7797 4.25171 19.8542C4.25171 22.7807 4.25171 25.7073 4.25171 28.6338C4.25171 29.0063 4.44327 28.9424 4.65611 28.9424H20.7894C21.1619 28.9424 21.2045 28.8147 21.2045 28.5061C21.2045 26.023 21.2045 23.5399 21.2045 21.0567V19.6413L20.7575 19.9074C18.2779 21.4292 15.809 22.9403 13.3081 24.4728C13.1338 24.6057 12.9207 24.6777 12.7015 24.6777C12.4823 24.6777 12.2692 24.6057 12.0949 24.4728C10.6689 23.5576 9.20025 22.6743 7.68909 21.7804L4.25171 19.6307ZM6.14599 19.0773L6.26306 19.1837C8.3418 20.4608 10.4134 21.7413 12.478 23.0255C12.5533 23.0816 12.6448 23.112 12.7387 23.112C12.8327 23.112 12.9241 23.0816 12.9995 23.0255L15.7664 21.3121L19.3953 19.0773H6.14599Z" fill="#EF4C23"/>
<path d="M31.1011 16.2365C33.1444 16.2365 35.1877 16.2365 37.2309 16.2365C37.9014 16.2365 38.1249 16.46 38.1249 17.1198C38.1249 17.7796 38.1249 18.184 38.1249 18.6629C38.1249 19.1418 38.2207 19.1099 38.5399 19.0567H38.8485C38.9411 19.0536 39.0333 19.0698 39.1193 19.1041C39.2053 19.1385 39.2833 19.1903 39.3483 19.2563C39.4133 19.3223 39.4639 19.401 39.4969 19.4876C39.53 19.5741 39.5447 19.6665 39.5403 19.759V28.2727C39.5403 28.7515 39.2423 28.9857 38.6889 28.9857H26.8443C26.745 28.9954 26.6448 28.9831 26.5507 28.9498C26.4567 28.9165 26.3711 28.8629 26.3 28.7929C26.2289 28.7228 26.1741 28.638 26.1395 28.5444C26.1048 28.4509 26.0911 28.3508 26.0994 28.2514C26.0994 27.7086 26.0994 27.1872 26.0994 26.6231C26.0994 26.0591 25.9717 26.123 25.6099 26.1549C25.3016 26.1762 24.9923 26.1762 24.684 26.1549C24.5878 26.1613 24.4913 26.1469 24.4012 26.1127C24.311 26.0785 24.2293 26.0252 24.1616 25.9565C24.0939 25.8878 24.0419 25.8053 24.009 25.7147C23.9761 25.624 23.9631 25.5274 23.971 25.4312C23.971 22.5934 23.971 19.7839 23.971 17.0028C23.971 16.5026 24.2477 16.2685 24.8011 16.2685C26.9401 16.2259 29.0259 16.2365 31.1011 16.2365ZM32.8251 27.5384H37.7737C38.0397 27.5384 38.1355 27.5384 38.1355 27.1872C38.1355 25.0588 38.1355 22.9304 38.1355 20.802C38.1355 20.5253 38.0823 20.4295 37.7843 20.4295H27.9085C27.6318 20.4295 27.5361 20.4295 27.5361 20.7807C27.5361 22.9091 27.5361 25.0375 27.5361 27.1659C27.5361 27.4958 27.6531 27.5277 27.9298 27.5277L32.8251 27.5384ZM31.1011 17.6413C29.3346 17.6413 27.568 17.6413 25.7801 17.6413C25.5034 17.6413 25.4077 17.6413 25.4077 17.9925C25.4077 20.1209 25.4077 22.2493 25.4077 24.3777C25.4077 24.6544 25.4928 24.7076 25.7482 24.7076C26.0036 24.7076 26.1313 24.7076 26.1313 24.3564C26.1313 22.8878 26.1313 21.4192 26.1313 19.9506C26.1313 19.2695 26.3548 19.046 27.0146 19.046H35.6772C36.7414 19.046 36.7414 19.046 36.7414 17.9818C36.7414 17.6945 36.6776 17.6094 36.3902 17.62C34.6237 17.6519 32.8571 17.6413 31.1011 17.6413Z" fill="#EF4C23"/>
<path d="M9.18985 8.46769C9.18985 7.7866 9.18985 7.11616 9.18985 6.43507C9.17215 6.30333 9.1922 6.16926 9.24766 6.04846C9.30313 5.92765 9.39173 5.82507 9.50318 5.75263C9.61463 5.68019 9.74435 5.64086 9.87727 5.63921C10.0102 5.63757 10.1408 5.67367 10.2541 5.74333L14.3406 7.77596C14.4788 7.8281 14.5978 7.92132 14.6815 8.04308C14.7652 8.16484 14.8097 8.30929 14.8088 8.45705C14.8112 8.60514 14.7674 8.7503 14.6835 8.87236C14.5996 8.99442 14.4797 9.08731 14.3406 9.13813C12.9784 9.81922 11.6269 10.511 10.2647 11.1814C10.1509 11.2467 10.0212 11.2794 9.89002 11.2758C9.75883 11.2722 9.63118 11.2324 9.52114 11.1609C9.4111 11.0893 9.32293 10.9888 9.26636 10.8704C9.20978 10.752 9.18699 10.6202 9.20049 10.4897C9.17921 9.81923 9.18985 9.13814 9.18985 8.46769ZM12.5208 8.46769L10.6159 7.50991V9.41483L12.5208 8.46769Z" fill="#EF4C23"/>
<path d="M32.8473 27.5382H27.9094C27.6327 27.5382 27.5156 27.5382 27.5156 27.1763C27.5156 25.0479 27.5156 22.9195 27.5156 20.7911C27.5156 20.4932 27.6114 20.4399 27.8881 20.4399H37.8065C38.1044 20.4399 38.1576 20.5357 38.1576 20.8124C38.1576 22.9408 38.1576 25.0692 38.1576 27.1976C38.1576 27.4956 38.0619 27.5488 37.7958 27.5488L32.8473 27.5382ZM34.252 23.2814H35.71C36.7742 23.2814 36.7742 23.2814 36.7742 22.2172C36.7742 21.8873 36.6571 21.8447 36.3698 21.8447H32.8579C31.7937 21.8447 31.7937 21.8447 31.7937 22.9089C31.7937 23.2069 31.9001 23.2388 32.1449 23.2388C32.8473 23.2814 33.5497 23.292 34.2946 23.292L34.252 23.2814ZM35.0076 26.1121H35.6674C36.7848 26.1121 36.7316 26.1121 36.7316 24.9734C36.7316 24.7287 36.6465 24.6861 36.4336 24.6968C35.71 24.6968 34.9863 24.6968 34.3052 24.6968C33.1772 24.6968 33.1878 24.6967 33.241 25.8354C33.241 26.0802 33.3368 26.1228 33.5496 26.1121H35.0076ZM30.389 24.6968H30.0378C28.9736 24.6968 28.9736 24.6968 28.9736 25.761C28.9736 26.0057 28.9736 26.1015 29.2822 26.0802C29.7611 26.0802 30.2506 26.0802 30.7402 26.0802C31.8044 26.0802 31.8044 26.0802 31.8044 25.016C31.8044 24.7712 31.8044 24.6755 31.4851 24.6968C31.1658 24.718 30.7508 24.7074 30.389 24.7074V24.6968ZM30.389 22.5683C30.389 21.8234 30.389 21.8234 29.6334 21.8234C28.8778 21.8234 28.9736 21.8234 28.9736 22.4832C28.9736 23.143 28.9736 23.2282 29.7292 23.2282C30.4847 23.2282 30.3783 23.292 30.3783 22.6322L30.389 22.5683Z" fill="#EF4C23"/>
</svg>
