<svg width="46" height="45" viewBox="0 0 46 45" fill="none" xmlns="http://www.w3.org/2000/svg">
<path d="M23.5614 0C24.972 3.15867 26.0423 6.45856 26.754 9.84387C27.692 13.9345 28.0502 18.1366 27.8182 22.327C27.7719 23.3701 27.651 24.4086 27.4564 25.4344C27.616 25.5302 27.6799 25.4344 27.7757 25.2854C30.2359 22.7631 33.05 20.6122 36.1297 18.9002C38.5009 17.5521 40.9953 16.4331 43.5791 15.5586C43.8078 15.454 44.0638 15.4244 44.3104 15.4741C44.557 15.5238 44.7816 15.6502 44.9519 15.8353C45.1241 16.0296 45.2294 16.274 45.2524 16.5326C45.2754 16.7912 45.2148 17.0504 45.0796 17.272C42.6294 22.8004 38.9625 27.7042 34.3524 31.6174C34.0672 31.7873 33.8119 32.0031 33.5969 32.256C34.5653 32.4262 35.5018 32.5752 36.4276 32.7668C38.4239 33.1939 40.3607 33.8621 42.1956 34.7568C42.4599 34.8515 42.6885 35.0255 42.8501 35.2551C43.0116 35.4846 43.0984 35.7585 43.0984 36.0392C43.0984 36.3199 43.0116 36.5938 42.8501 36.8233C42.6885 37.0529 42.4599 37.2269 42.1956 37.3216C39.4652 38.6567 36.5091 39.4688 33.4798 39.716C32.5114 39.7905 31.5323 39.7905 30.4681 39.8012C30.8134 40.5188 31.1016 41.2625 31.3301 42.0253C31.4259 42.3978 31.5323 42.7596 31.6387 43.0895C31.8226 43.6255 31.7959 44.2113 31.5642 44.7284H29.0314C29.0314 44.5369 28.7973 44.5369 28.6696 44.473C27.4149 43.9184 26.2522 43.1755 25.2216 42.2701C24.6059 41.6858 24.0232 41.0676 23.4763 40.4184V44.6752H21.9332V40.3226C21.1017 41.3942 20.1237 42.3435 19.0279 43.1428C18.1413 43.7408 17.2171 44.2811 16.261 44.7603H13.7921C13.5735 44.1991 13.5735 43.5763 13.7921 43.0151C14.0501 42.0139 14.4065 41.0407 14.8563 40.1098C14.984 39.8544 14.9627 39.748 14.6328 39.7586C13.4704 39.8066 12.306 39.7532 11.1528 39.599C8.35663 39.2863 5.63903 38.4754 3.12876 37.2045C2.89801 37.098 2.70258 36.9277 2.56561 36.7136C2.42863 36.4996 2.35584 36.2508 2.35584 35.9966C2.35584 35.7425 2.42863 35.4937 2.56561 35.2796C2.70258 35.0656 2.89801 34.8952 3.12876 34.7888C5.09483 33.8109 7.18074 33.0953 9.33305 32.6604C10.1525 32.5007 10.9719 32.373 11.7914 32.2347C11.7914 32.2347 11.7914 32.1389 11.7914 32.1283L11.1103 31.5855C7.05221 28.2223 3.69639 24.0926 1.23447 19.4323C0.808789 18.6342 0.415039 17.8147 0 17.0166V16.2929C0.595953 15.4203 0.925856 15.3139 1.93685 15.6757L3.38416 16.1972C7.24928 17.6628 10.8725 19.7004 14.1326 22.2418C15.2631 23.1271 16.33 24.0908 17.3252 25.1258C17.4103 25.211 17.4955 25.4025 17.6445 25.3387C17.7935 25.2748 17.6977 25.062 17.6445 24.9343C17.6445 24.317 17.4955 23.6998 17.4423 23.0825C17.0082 16.5556 17.9397 10.0098 20.1773 3.86305C20.6242 2.55408 21.1563 1.28768 21.6459 0H23.5614ZM25.2003 33.4053C25.3174 33.5224 25.4238 33.4053 25.5196 33.4053C26.8426 32.8248 28.2518 32.4653 29.6912 32.3411C30.5423 32.2766 31.3543 31.9577 32.0218 31.4259C36.3715 28.2143 39.9462 24.0688 42.4829 19.294C42.8635 18.6644 43.1944 18.0062 43.4727 17.3252C38.0161 19.2157 33.0575 22.3153 28.9676 26.3922C27.7147 27.4476 26.8035 28.8514 26.3496 30.4255C26.0316 31.4516 25.6513 32.4574 25.211 33.4372C25.211 33.4372 25.2429 33.4798 25.2003 33.4053ZM2.07519 17.4423L1.97942 17.3891V17.5168C2.64589 18.9087 3.39574 20.2591 4.22488 21.5607C6.6036 25.4287 9.70772 28.8002 13.3664 31.4897C13.9862 32.0347 14.7763 32.347 15.6012 32.373C16.0785 32.4067 16.5521 32.4815 17.0166 32.5965C18.1092 32.8216 19.1782 33.1494 20.2092 33.5756C20.1134 33.3521 20.0708 33.2138 20.007 33.0754C19.5057 32.0029 19.0894 30.8927 18.7619 29.7551C18.606 29.1801 18.3264 28.6462 17.9424 28.1907C15.2312 24.925 11.9138 22.2147 8.17307 20.2092C6.23779 19.0773 4.1952 18.1398 2.07519 17.4103V17.4423ZM22.7101 1.85171C22.593 2.09648 22.5185 2.24547 22.4547 2.4051C22.0822 3.4693 21.6884 4.45901 21.3905 5.50192C19.3904 11.3874 18.6331 17.6237 19.1663 23.8168C19.443 27.0055 20.3167 30.1137 21.7417 32.9796C22.0189 33.5806 22.3577 34.1512 22.7526 34.6823C23.0825 34.0864 23.4125 33.6181 23.6891 33.0115C24.2178 31.9835 24.6661 30.9161 25.03 29.8189C26.3536 25.5575 26.7989 21.0719 26.339 16.6335C25.9922 12.4684 25.1087 8.36567 23.7104 4.42708C23.3912 3.57572 23.0506 2.735 22.7101 1.81978V1.85171ZM21.4224 36.0658L21.2308 35.8955C19.4122 34.7181 17.3257 34.0189 15.1649 33.8629C12.1134 33.6513 9.0524 34.1051 6.19366 35.1932C5.49451 35.4175 4.81762 35.7061 4.17167 36.0552C7.48284 37.6583 11.1376 38.4222 14.8137 38.2794C17.1824 38.1591 19.4707 37.3815 21.4224 36.0339V36.0658ZM23.9552 36.0658C28.4993 39.4074 35.7572 38.737 41.1633 36.0658C41.0652 35.9473 40.9304 35.865 40.7802 35.8317C39.9076 35.4911 39.0349 35.1293 38.1304 34.8526C34.9544 33.7672 31.5495 33.5323 28.2546 34.1715C26.7144 34.4912 25.2531 35.1134 23.9552 36.002V36.0658ZM21.4969 37.8962C20.4439 38.5609 19.2794 39.0296 18.0595 39.2797C17.5643 39.3379 17.0997 39.5499 16.7313 39.8858C16.3629 40.2218 16.109 40.6649 16.0056 41.1527C15.7006 41.8954 15.4654 42.665 15.3032 43.4514C18.0489 42.2808 20.305 40.7696 21.4969 37.8324V37.8962ZM23.9765 38.0346C25.1045 40.8228 27.3287 42.3552 30.0211 43.4194C30.0211 43.3237 30.0211 43.2705 30.0211 43.2279C29.7158 42.032 29.258 40.8803 28.659 39.8012C28.6321 39.7388 28.5895 39.6845 28.5354 39.6435C28.4814 39.6025 28.4176 39.5762 28.3503 39.567C26.827 39.2349 25.3556 38.6979 23.9765 37.9707V38.0346ZM17.7402 25.4131C17.7402 25.4131 17.6764 25.4132 17.6764 25.477C17.665 25.5079 17.665 25.5419 17.6764 25.5728C17.6764 25.5728 17.7615 25.5728 17.7509 25.4983C17.7403 25.4238 17.7509 25.3812 17.7402 25.3493V25.4131Z" fill="#EF4C23"/>
<path d="M17.7405 25.3491C17.7405 25.3491 17.7405 25.3491 17.7405 25.4345C17.7405 25.5198 17.7405 25.5305 17.6658 25.5091C17.6544 25.4782 17.6544 25.4441 17.6658 25.4131C17.6658 25.4131 17.7191 25.3705 17.7405 25.3491Z" fill="#EF4C23"/>
</svg>
