<svg width="43" height="39" viewBox="0 0 43 39" fill="none" xmlns="http://www.w3.org/2000/svg">
<path d="M21.1031 38.0104H3.67149C2.83077 38.0104 2.68179 37.872 2.68179 37.0313C2.68179 30.5042 2.68179 23.9735 2.68179 17.4393C2.69815 17.2931 2.66513 17.1456 2.588 17.0202C2.51087 16.8949 2.39404 16.7989 2.2561 16.7476C1.60437 16.4584 1.04717 15.9917 0.648206 15.4008C0.249237 14.8099 0.0246082 14.1186 0 13.406C0 12.5972 0 11.7991 0 10.9903C0.0988441 10.3977 0.327823 9.83431 0.670453 9.34077C2.00071 6.44614 3.37351 3.58343 4.71441 0.699444C4.79397 0.485136 4.94044 0.302144 5.13211 0.177559C5.32378 0.0529746 5.55046 -0.00657917 5.77861 0.00771332C15.9879 0.00771332 26.19 0.00771332 36.3851 0.00771332C36.6293 -0.0218444 36.8762 0.0341001 37.0838 0.166032C37.2913 0.297964 37.4468 0.497737 37.5238 0.731371C39.0243 3.92398 40.5567 7.20172 42.0785 10.4369C42.0785 10.5114 42.185 10.5965 42.185 10.671C42.185 12.1928 42.5149 13.7572 41.6742 15.1939C41.2852 15.9032 40.6765 16.4671 39.9395 16.8008C39.567 16.9498 39.5032 17.1627 39.5032 17.5351C39.5032 24.0268 39.5032 30.5219 39.5032 37.0207C39.5032 37.9252 39.3755 38.0849 38.439 38.0849L21.1031 38.0104ZM14.2603 15.3109C13.9059 15.8574 13.4247 16.3102 12.8577 16.6308C12.2907 16.9514 11.6546 17.1303 11.0036 17.1522C10.3526 17.1742 9.70596 17.0385 9.11865 16.7569C8.53133 16.4752 8.02074 16.0558 7.63033 15.5344C7.40685 15.2364 7.33236 15.4174 7.20465 15.5344C6.88648 15.9849 6.47428 16.361 5.99656 16.6366C5.51884 16.9122 4.98698 17.0808 4.43772 17.1307C4.01204 17.1307 3.94818 17.301 3.94818 17.6735C3.94818 20.9796 3.94818 24.2893 3.94818 27.6025C3.94818 30.4758 3.94818 33.3598 3.94818 36.2438C3.94818 36.712 4.0759 36.8078 4.51222 36.7865C5.38487 36.7865 6.25751 36.7865 7.13015 36.7865C7.57712 36.7865 7.66225 36.6482 7.66225 36.2438C7.66225 33.115 7.66225 29.9969 7.66225 26.8788C7.66225 26.0594 7.82189 25.8998 8.65197 25.8998H16.0162C16.7825 25.8998 16.9421 26.07 16.9421 26.8362C16.9421 30.0289 16.9421 33.147 16.9421 36.297C16.9421 36.6269 16.9421 36.7865 17.3678 36.7865H37.9388C38.3113 36.7865 38.3538 36.6482 38.3432 36.3396C38.3432 35.1583 38.3432 33.977 38.3432 32.7958C38.3432 27.7515 38.3432 22.7178 38.3432 17.6735C38.3432 17.301 38.29 17.1201 37.8643 17.1414C37.4345 17.1263 37.0131 17.0173 36.6298 16.8221C35.9069 16.4869 35.2861 15.9653 34.8313 15.3109C34.4599 15.8797 33.9525 16.3468 33.3551 16.6701C32.7578 16.9935 32.0892 17.1628 31.4099 17.1628C30.7307 17.1628 30.0621 16.9935 29.4647 16.6701C28.8673 16.3468 28.36 15.8797 27.9885 15.3109C27.633 15.8641 27.1479 16.3222 26.5754 16.6455C26.0028 16.9689 25.36 17.1477 24.7028 17.1666C24.0455 17.1855 23.3935 17.0438 22.8034 16.7538C22.2132 16.4638 21.7027 16.0343 21.316 15.5025C21.1457 15.2577 21.0712 15.4067 20.9541 15.5557C20.5624 16.0782 20.0499 16.498 19.4605 16.7793C18.8711 17.0605 18.2224 17.1949 17.5698 17.1708C16.9172 17.1468 16.2801 16.9651 15.713 16.6412C15.146 16.3173 14.6658 15.8608 14.3135 15.3109H14.2603ZM8.85415 31.9976C8.85415 33.4556 8.85415 34.9135 8.85415 36.3715C8.85415 36.6801 8.91802 36.7865 9.24792 36.7865C11.2486 36.7865 13.26 36.7865 15.2607 36.7865C15.5906 36.7865 15.6544 36.6801 15.6544 36.3715C15.6544 33.4449 15.6544 30.5077 15.6544 27.5812C15.6544 27.2513 15.5799 27.1342 15.2394 27.1342C13.2458 27.1342 11.2557 27.1342 9.26919 27.1342C8.91801 27.1342 8.84351 27.2513 8.85415 27.5812C8.8648 29.0498 8.85415 30.529 8.85415 31.9976ZM31.2024 10.1921C32.0006 10.1921 32.8093 10.1921 33.6181 10.1921C33.9055 10.1921 34.0438 10.1921 33.9587 9.79837C33.3095 7.02081 32.6817 4.2326 32.0644 1.45503C32.0644 1.17834 31.8728 1.18898 31.6707 1.18898H27.1584C26.8605 1.18898 26.7647 1.25283 26.8179 1.56145C27.3145 4.32128 27.8111 7.08111 28.3078 9.84094C28.3078 10.1176 28.4568 10.2028 28.7335 10.2028C29.5103 10.2134 30.3404 10.2134 31.1598 10.2134L31.2024 10.1921ZM11.089 10.1921C11.8659 10.1921 12.6321 10.1921 13.4089 10.1921C13.824 10.1921 13.9623 10.0538 14.0155 9.67067C14.0794 9.12793 14.1964 8.60647 14.2922 8.05308C14.6895 5.88211 15.0797 3.71114 15.4629 1.54016C15.5161 1.2954 15.4629 1.17834 15.1755 1.17834C13.6537 1.17834 12.1213 1.17834 10.5994 1.17834C10.3972 1.17834 10.2802 1.17834 10.2163 1.44439C9.59909 4.2326 8.96767 7.01726 8.32205 9.79837C8.2582 10.107 8.32206 10.1815 8.63068 10.1815C9.40755 10.2134 10.227 10.2134 11.0464 10.2134L11.089 10.1921ZM20.5285 5.72248C20.5285 4.34966 20.5285 2.97684 20.5285 1.61466C20.5285 1.27411 20.4327 1.17834 20.1028 1.18898C19.1237 1.18898 18.1446 1.18898 17.1762 1.18898C16.8782 1.18898 16.7505 1.25283 16.6973 1.56145C16.2291 4.30709 15.7431 7.04919 15.2394 9.78773C15.1755 10.1283 15.2394 10.2028 15.5799 10.2028C17.0804 10.2028 18.5916 10.2028 20.1028 10.2028C20.4327 10.2028 20.5391 10.1283 20.5285 9.77709C20.4752 8.42555 20.4859 7.07402 20.4859 5.72248H20.5285ZM21.7523 5.65863C21.7523 7.03145 21.7523 8.39363 21.7523 9.76645C21.7523 10.0857 21.8161 10.2028 22.1673 10.2028C23.6572 10.2028 25.1471 10.2028 26.637 10.2028C26.9882 10.2028 27.1052 10.2028 27.0307 9.75581C26.5306 7.03145 26.0517 4.30709 25.5728 1.57209C25.5728 1.27411 25.4131 1.18898 25.1152 1.18898C24.1361 1.18898 23.157 1.18898 22.1886 1.18898C21.8055 1.18898 21.7417 1.30604 21.7523 1.65723C21.7204 2.98748 21.7097 4.31773 21.7097 5.65863H21.7523ZM37.9069 10.2134C38.6837 10.2134 39.45 10.2134 40.2268 10.2134C40.5355 10.2134 40.61 10.1496 40.461 9.84094C39.1414 7.06692 37.8324 4.28226 36.5341 1.48695C36.4991 1.39377 36.4341 1.3149 36.3493 1.26285C36.2645 1.2108 36.1647 1.18855 36.0658 1.19962C35.2464 1.19962 34.4163 1.19962 33.5969 1.19962C33.2989 1.19962 33.235 1.25283 33.3095 1.57209C33.9481 4.31773 34.5724 7.06692 35.1825 9.81966C35.257 10.1496 35.3954 10.2134 35.704 10.2134C36.4383 10.2134 37.1726 10.2134 37.9069 10.2134ZM8.97122 1.2209H6.04466C5.96043 1.21808 5.87773 1.24391 5.81008 1.29417C5.74243 1.34442 5.69382 1.41614 5.6722 1.4976C4.36323 4.28581 3.0649 7.07402 1.74529 9.85158C1.61759 10.1283 1.60694 10.2347 1.96876 10.2347C3.50122 10.2347 5.04432 10.2347 6.58741 10.2347C6.63683 10.2439 6.68763 10.2424 6.7364 10.2302C6.78517 10.2181 6.83078 10.1956 6.87013 10.1643C6.90947 10.1331 6.94164 10.0937 6.96447 10.0489C6.9873 10.0042 7.00025 9.955 7.00245 9.90479C7.63033 7.0208 8.30077 4.13682 8.97122 1.19962V1.2209ZM3.96947 11.5011C3.18196 11.5011 2.39445 11.5011 1.60694 11.5011C1.28768 11.5011 1.19191 11.5862 1.21319 11.8949C1.21319 12.395 1.21319 12.8952 1.21319 13.3847C1.25497 14.0487 1.53547 14.6751 2.00293 15.1484C2.47039 15.6218 3.09327 15.91 3.75663 15.9601C4.35339 16.0031 4.9482 15.8537 5.45383 15.5338C5.95945 15.214 6.34928 14.7405 6.56613 14.1829C6.75199 13.4173 6.81662 12.6273 6.75767 11.8416C6.75767 11.5543 6.68318 11.4692 6.39585 11.4798L3.96947 11.5011ZM17.7296 11.5011H16.6654C16.1014 11.5011 15.3458 11.3095 15.0372 11.5969C14.7286 11.8842 14.9308 12.6611 14.9308 13.2677C14.9312 13.8844 15.1426 14.4824 15.5297 14.9625C15.9169 15.4425 16.4565 15.7758 17.0592 15.9069C17.6547 16.0443 18.2787 15.9859 18.8385 15.7405C19.3983 15.4951 19.8641 15.0758 20.1666 14.5447C20.5191 13.6343 20.6433 12.6515 20.5285 11.682C20.5285 11.4266 20.3263 11.5117 20.1879 11.5117L17.7296 11.5011ZM24.5192 11.5011H22.0609C21.9226 11.5011 21.7097 11.416 21.7204 11.6714C21.6331 12.5244 21.7016 13.3863 21.9226 14.2148C22.1688 14.8293 22.6242 15.337 23.2083 15.6485C23.7924 15.9601 24.4677 16.0553 25.1152 15.9175C25.7413 15.7934 26.3044 15.4541 26.7067 14.9585C27.109 14.4629 27.3253 13.8421 27.3181 13.2038C27.2968 12.8104 27.2968 12.416 27.3181 12.0226C27.3181 11.6182 27.2542 11.4585 26.7966 11.4798C26.0304 11.5117 25.2748 11.4798 24.5192 11.4798V11.5011ZM38.2049 11.5011C37.3961 11.5011 36.5873 11.5011 35.7891 11.5011C35.4592 11.5011 35.3741 11.5862 35.3954 11.8949C35.3954 12.3631 35.3954 12.8207 35.3954 13.289C35.4251 14.0045 35.7269 14.6817 36.2392 15.1821C36.7515 15.6825 37.4356 15.9684 38.1516 15.9814C38.8626 15.9968 39.5522 15.7378 40.0773 15.2583C40.6024 14.7787 40.9227 14.1154 40.9718 13.406C40.9718 12.8952 40.9718 12.3418 40.9718 11.8736C40.9718 11.5756 40.8866 11.4905 40.5887 11.5011H38.2049ZM31.362 11.5011H30.2978C29.7551 11.5011 29.0314 11.3202 28.7228 11.5969C28.4142 11.8736 28.6164 12.6611 28.6164 13.2145C28.6225 13.8821 28.8726 14.5244 29.3196 15.0203C29.7665 15.5162 30.3794 15.8316 31.0428 15.9069C31.73 15.9756 32.4182 15.7859 32.973 15.3746C33.5279 14.9634 33.9097 14.3602 34.0438 13.6827C34.1111 13.0679 34.136 12.4492 34.1183 11.831C34.1183 11.5224 34.0013 11.4692 33.7246 11.4798L31.362 11.5011ZM10.8655 11.5011H8.44977C8.15179 11.5011 8.01345 11.5011 8.03473 11.8842C8.05601 12.2673 8.03473 12.7462 8.03473 13.1719C8.03748 13.5408 8.1134 13.9054 8.25809 14.2448C8.40278 14.5841 8.61337 14.8913 8.87765 15.1487C9.14194 15.4061 9.45467 15.6084 9.79772 15.744C10.1408 15.8797 10.5073 15.9459 10.8761 15.9388C11.2404 15.9361 11.6004 15.8609 11.9353 15.7177C12.2701 15.5745 12.5732 15.3661 12.8267 15.1046C13.0803 14.8432 13.2792 14.5339 13.4121 14.1947C13.5449 13.8556 13.609 13.4934 13.6005 13.1293C13.6005 12.7036 13.6005 12.278 13.6005 11.8523C13.6005 11.5862 13.526 11.4905 13.26 11.5011H10.8655Z" fill="#EF4C23"/>
<path d="M27.5097 30.7525H20.4009C20.3145 30.7605 20.2275 30.7495 20.1458 30.7204C20.0642 30.6913 19.9899 30.6447 19.928 30.5839C19.8662 30.5232 19.8184 30.4496 19.788 30.3684C19.7575 30.2873 19.7451 30.2004 19.7517 30.114C19.7462 30.032 19.759 29.9497 19.7893 29.8733C19.8195 29.7969 19.8664 29.7281 19.9265 29.6721C19.9866 29.616 20.0585 29.5741 20.1369 29.5492C20.2152 29.5244 20.2982 29.5174 20.3796 29.5287C20.8904 29.5287 20.9543 29.3478 20.9436 28.9114C20.9436 26.854 20.9436 24.8001 20.9436 22.7497C20.9436 21.7813 21.2522 21.4727 22.1994 21.4727H32.8414C33.7673 21.4727 34.0652 21.7813 34.0652 22.7178C34.0652 24.8462 34.0652 26.9001 34.0652 28.9859C34.0652 29.3477 34.0652 29.5712 34.5441 29.518C34.6346 29.4985 34.7284 29.4999 34.8183 29.5221C34.9082 29.5444 34.9917 29.587 35.0626 29.6466C35.1335 29.7062 35.1898 29.7812 35.2272 29.8659C35.2646 29.9506 35.2821 30.0427 35.2784 30.1353C35.2784 30.5077 34.9911 30.7525 34.4909 30.7525H27.5097ZM27.5097 29.4967C29.138 29.4967 30.7662 29.4967 32.3944 29.4967C32.7243 29.4967 32.8627 29.4329 32.8627 29.0498C32.8627 27.0845 32.8627 25.1158 32.8627 23.1435C32.8627 22.8029 32.7669 22.7178 32.4264 22.7178C29.1699 22.7178 25.9241 22.7178 22.6676 22.7178C22.2845 22.7178 22.2313 22.8561 22.2313 23.1967C22.2313 25.1442 22.2313 27.1023 22.2313 29.0498C22.2313 29.4116 22.3164 29.5074 22.6783 29.5074C24.2533 29.4861 25.8709 29.4967 27.4778 29.4967H27.5097Z" fill="#EF4C23"/>
</svg>
