<svg width="42" height="42" viewBox="0 0 42 42" fill="none" xmlns="http://www.w3.org/2000/svg">
<path d="M33.3655 16.0377C33.3655 20.2945 33.3655 24.53 33.3655 28.7443C33.3655 29.1167 33.4293 29.2551 33.855 29.287C35.579 29.3934 37.303 29.5424 39.027 29.702C39.3274 29.7002 39.6247 29.762 39.8995 29.8833C40.1742 30.0046 40.4202 30.1826 40.6213 30.4058C40.8223 30.6289 40.9738 30.8921 41.0659 31.178C41.158 31.4639 41.1885 31.766 41.1554 32.0646C41.1554 33.1288 41.1554 34.2568 41.1554 35.353C41.1786 35.6548 41.137 35.9581 41.0337 36.2426C40.9303 36.527 40.7674 36.7862 40.5559 37.0028C40.3444 37.2193 40.0891 37.3883 39.8071 37.4983C39.5251 37.6084 39.2229 37.657 38.9206 37.641C37.8564 37.641 36.8986 37.641 35.8876 37.641C35.8239 37.6272 35.758 37.6265 35.694 37.639C35.63 37.6516 35.5692 37.6771 35.5154 37.7139C35.4616 37.7508 35.4159 37.7983 35.3811 37.8534C35.3462 37.9086 35.3231 37.9703 35.313 38.0347C35.0767 38.9497 34.5427 39.7601 33.7951 40.3381C33.0475 40.9162 32.1289 41.229 31.1839 41.2273C30.2443 41.2219 29.333 40.9059 28.5919 40.3284C27.8508 39.7509 27.3216 38.9444 27.0867 38.0347C27.0122 37.7793 26.9271 37.7048 26.6823 37.7048H13.7948C13.5288 37.7048 13.4543 37.8113 13.3904 38.0454C13.2005 38.8457 12.776 39.5711 12.1711 40.1285C11.5663 40.686 10.8087 41.0501 9.9956 41.1741C9.19291 41.3413 8.35856 41.2644 7.59993 40.9533C6.84131 40.6423 6.19313 40.1114 5.73879 39.4288C5.431 39.0177 5.21342 38.5463 5.10027 38.0454C5.03642 37.7687 4.90871 37.7048 4.64266 37.7048C3.90855 37.7621 3.17001 37.7119 2.4504 37.5559C1.75016 37.3633 1.13204 36.9471 0.690171 36.3708C0.248304 35.7944 0.00690836 35.0895 0.00274107 34.3632C0.00274107 33.299 0.00274107 32.2348 0.00274107 31.2345C-0.0183172 30.8036 0.0822928 30.3755 0.293068 29.9991C0.503843 29.6228 0.816272 29.3133 1.19464 29.1061C1.9058 28.6594 2.7039 28.3691 3.53589 28.2547C4.11056 28.1696 4.68523 28.0419 5.24926 27.9248C6.03948 27.6828 6.74689 27.2259 7.29252 26.6052C7.50556 26.4166 7.67141 26.1807 7.77675 25.9164C7.8821 25.6521 7.92401 25.3668 7.89912 25.0834C7.89912 17.9852 7.89912 10.8869 7.89912 3.79936C7.86433 3.29195 7.93884 2.78298 8.11761 2.30684C8.29638 1.83069 8.57525 1.39845 8.93539 1.03932C9.29553 0.680194 9.72854 0.402534 10.2052 0.225098C10.6818 0.0476625 11.191 -0.0254164 11.6983 0.0107984H29.5982C30.1101 -0.0291939 30.6246 0.0421935 31.1063 0.220048C31.5879 0.397902 32.0253 0.678001 32.3884 1.04107C32.7515 1.40414 33.0316 1.84156 33.2094 2.32323C33.3873 2.8049 33.4587 3.31939 33.4187 3.83129L33.3655 16.0377ZM31.9288 29.0422V28.8081C31.9288 21.2594 31.9288 13.7142 31.9288 6.17253C31.9288 5.78942 31.7905 5.74685 31.4606 5.74685C24.224 5.74685 16.991 5.74685 9.76147 5.74685C9.35708 5.74685 9.2613 5.84263 9.2613 6.24702C9.2613 12.1995 9.2613 18.1484 9.2613 24.0937C9.2613 24.2533 9.19745 24.4236 9.34644 24.5939C10.5876 23.7307 12.1019 23.3521 13.6032 23.5297C14.0076 23.5297 14.5397 23.6574 14.7952 23.4552C15.0506 23.253 14.8696 22.6889 14.8909 22.2845C14.8909 21.6673 15.1357 21.4119 15.7636 21.4119H18.3815C19.8182 21.4119 19.882 21.4119 19.8395 22.8805C19.8395 23.402 19.9459 23.5829 20.4993 23.551C22.5202 23.4029 24.5238 24.0138 26.1183 25.2643C27.4272 26.2647 28.7681 27.2118 30.0984 28.1696C30.634 28.6007 31.2595 28.9062 31.9288 29.0635V29.0422ZM39.7401 33.6822V32.2136C39.7401 31.4367 39.5379 31.1494 38.7503 31.1494C36.8454 30.9897 34.9299 30.8407 33.0143 30.713C31.8694 30.6754 30.7602 30.3057 29.8217 29.6488C28.4701 28.6378 27.0973 27.7439 25.7777 26.6797C24.5438 25.5995 22.9784 24.9726 21.34 24.9025C18.456 24.9025 15.5827 24.9025 12.6987 24.9025C11.6489 24.8727 10.6292 25.2547 9.85726 25.9667C9.51242 26.2778 9.18553 26.6082 8.87818 26.9564C8.31501 27.7142 7.59837 28.3447 6.77503 28.8068C5.95169 29.2689 5.04015 29.5522 4.09992 29.6382C3.81265 29.6707 3.52811 29.7241 3.24855 29.7978C2.76504 29.9209 2.30491 30.1222 1.88638 30.3938C1.75414 30.4726 1.64511 30.585 1.57035 30.7196C1.49559 30.8541 1.45776 31.0061 1.46069 31.16C1.46069 32.2242 1.46069 33.2884 1.46069 34.2994C1.46903 34.8029 1.6742 35.2831 2.03224 35.6371C2.39028 35.9912 2.87273 36.191 3.37626 36.1937C3.77001 36.1937 4.17441 36.1937 4.55753 36.1937C4.94064 36.1937 5.04706 36.1085 5.15348 35.7574C5.40503 34.8509 5.94977 34.0533 6.70258 33.4891C7.45539 32.925 8.37387 32.6261 9.31451 32.6392C10.2485 32.6516 11.1526 32.9709 11.8872 33.5479C12.6218 34.1248 13.1463 34.9274 13.3798 35.8318C13.4543 36.1085 13.5713 36.1405 13.8054 36.1405H26.6716C26.9377 36.1405 27.0335 36.0553 27.108 35.7893C27.2855 35.0333 27.6736 34.3432 28.2274 33.7988C28.7811 33.2545 29.4778 32.8782 30.2367 32.7137C31.2967 32.4587 32.414 32.6201 33.3585 33.1646C34.303 33.7091 35.0025 34.5952 35.313 35.6403C35.3875 35.8531 35.313 36.1511 35.7493 36.1405C36.8135 36.1405 37.8777 36.1405 38.9419 36.1405C39.0502 36.1529 39.1599 36.1404 39.2626 36.1039C39.3653 36.0673 39.4583 36.0077 39.5344 35.9295C39.6104 35.8514 39.6675 35.7569 39.7014 35.6533C39.7352 35.5496 39.7448 35.4396 39.7294 35.3317C39.7507 34.8315 39.7401 34.2675 39.7401 33.7034V33.6822ZM20.5631 4.33146H31.6734C31.8756 4.33146 31.9182 4.26761 31.9394 4.07605C32.016 3.74543 32.0124 3.40129 31.9289 3.07234C31.8455 2.7434 31.6845 2.43918 31.4596 2.18507C31.2346 1.93096 30.9522 1.73433 30.6358 1.61157C30.3194 1.48882 29.9782 1.4435 29.6408 1.4794H11.5493C11.24 1.45334 10.9286 1.49528 10.6372 1.60228C10.3458 1.70927 10.0812 1.87873 9.86222 2.09876C9.6432 2.3188 9.47497 2.58409 9.36932 2.87602C9.26368 3.16796 9.22317 3.47947 9.25065 3.78872C9.25065 4.18247 9.34643 4.28889 9.75083 4.28889C13.3691 4.26761 16.9661 4.33146 20.5631 4.33146ZM12.0495 36.9918C12.0566 36.622 11.9905 36.2544 11.8551 35.9101C11.7197 35.5659 11.5177 35.2517 11.2606 34.9858C11.0036 34.7198 10.6965 34.5072 10.357 34.3602C10.0176 34.2132 9.65246 34.1347 9.28259 34.1291C8.52983 34.1263 7.80647 34.4211 7.27021 34.9494C6.73396 35.4777 6.4283 36.1965 6.41988 36.9493C6.43378 37.6946 6.73894 38.4048 7.27001 38.9279C7.80108 39.4511 8.51586 39.7455 9.2613 39.7481C9.63064 39.7495 9.99661 39.6778 10.3381 39.5371C10.6796 39.3964 10.9899 39.1895 11.251 38.9284C11.5122 38.6672 11.7191 38.3569 11.8598 38.0154C12.0005 37.6739 12.0722 37.308 12.0708 36.9386L12.0495 36.9918ZM31.2051 34.1717C30.4617 34.1773 29.7504 34.475 29.2247 35.0007C28.699 35.5264 28.4012 36.2378 28.3957 36.9812C28.3957 37.7263 28.6917 38.4409 29.2185 38.9678C29.7454 39.4947 30.46 39.7907 31.2051 39.7907C31.5778 39.7921 31.947 39.7199 32.2917 39.5783C32.6364 39.4366 32.9497 39.2283 33.2137 38.9653C33.4777 38.7023 33.6871 38.3898 33.8301 38.0457C33.973 37.7015 34.0466 37.3325 34.0466 36.9599C34.0438 36.2118 33.7461 35.495 33.2181 34.9651C32.6902 34.4351 31.9745 34.1347 31.2264 34.1291L31.2051 34.1717ZM17.3705 22.8273C17.147 22.8273 16.9236 22.8273 16.7001 22.8273C16.4766 22.8273 16.317 22.8273 16.317 23.1785C16.317 23.5297 16.4553 23.4977 16.6894 23.4871C17.1364 23.4871 17.5727 23.4871 18.0197 23.4871C18.2432 23.4871 18.4347 23.4871 18.4241 23.1678C18.4134 22.8486 18.2857 22.8167 18.0303 22.8273C17.7749 22.8379 17.6259 22.7741 17.4131 22.7741L17.3705 22.8273Z" fill="#EF4C23"/>
<path d="M20.627 9.21577C21.8554 9.2 23.0734 9.44188 24.2025 9.92579C25.3316 10.4097 26.3468 11.1249 27.1825 12.0253C27.6835 12.5751 28.077 13.214 28.3425 13.9089C28.3858 13.9939 28.4117 14.0867 28.4185 14.1818C28.4254 14.277 28.413 14.3726 28.3823 14.4629C28.3515 14.5532 28.3029 14.6364 28.2394 14.7076C28.1759 14.7788 28.0988 14.8365 28.0126 14.8773C27.9255 14.9265 27.8287 14.9558 27.729 14.9633C27.6293 14.9708 27.5291 14.9563 27.4357 14.9207C27.3422 14.8852 27.2577 14.8295 27.1882 14.7576C27.1187 14.6857 27.0659 14.5994 27.0335 14.5049C25.5223 10.5992 19.3287 9.34347 15.721 12.3764C15.097 12.9149 14.5931 13.5784 14.2418 14.3239C13.997 14.8667 13.6033 15.0476 13.1776 14.8454C13.0884 14.7948 13.0103 14.7268 12.9479 14.6454C12.8855 14.5641 12.84 14.471 12.8142 14.3718C12.7884 14.2726 12.7828 14.1692 12.7977 14.0677C12.8126 13.9663 12.8477 13.8688 12.9009 13.7812C13.3913 12.7136 14.122 11.7738 15.0359 11.0353C15.9497 10.2969 17.0219 9.77977 18.1687 9.52439C18.9678 9.29784 19.7967 9.19378 20.627 9.21577Z" fill="#EF4C23"/>
<path d="M20.6055 12.0898C21.6007 12.0452 22.5918 12.2438 23.493 12.6684C24.3942 13.093 25.1783 13.7309 25.7775 14.5268C25.95 14.764 26.0929 15.0213 26.2032 15.2931C26.2519 15.3749 26.2826 15.4661 26.2933 15.5607C26.304 15.6553 26.2944 15.7511 26.2652 15.8417C26.236 15.9323 26.1879 16.0156 26.124 16.0862C26.06 16.1567 25.9818 16.2129 25.8945 16.2508C25.8143 16.3053 25.7226 16.3407 25.6266 16.3544C25.5306 16.3682 25.4327 16.3598 25.3404 16.3301C25.2481 16.3003 25.1638 16.25 25.0938 16.1827C25.0239 16.1155 24.9702 16.0333 24.9368 15.9422C23.8726 13.3456 19.786 12.8986 17.6789 14.3459C17.1281 14.6987 16.6802 15.1906 16.3806 15.772C16.1039 16.3041 15.7314 16.4743 15.3164 16.2615C14.9013 16.0486 14.8056 15.6336 15.0929 15.1015C15.5713 14.2364 16.2618 13.5071 17.0995 12.9821C17.9372 12.4572 18.8946 12.1538 19.8818 12.1005C20.1225 12.0809 20.3643 12.0773 20.6055 12.0898Z" fill="#EF4C23"/>
<path d="M20.6803 14.8463C21.3081 14.8358 21.9294 14.974 22.4935 15.2496C23.0576 15.5252 23.5485 15.9303 23.9261 16.4319C24.2773 16.9321 24.2454 17.3791 23.841 17.6451C23.6347 17.745 23.3974 17.7596 23.1803 17.686C22.9633 17.6123 22.7839 17.4562 22.681 17.2513C22.3847 16.8569 21.9766 16.5606 21.5097 16.4012C21.0428 16.2418 20.5388 16.2265 20.0631 16.3574C19.7173 16.3844 19.3834 16.4954 19.0903 16.6809C18.7973 16.8664 18.554 17.1207 18.3816 17.4216C18.3372 17.5171 18.2716 17.6013 18.1898 17.6676C18.1079 17.7339 18.012 17.7806 17.9094 17.8042C17.8067 17.8278 17.7001 17.8277 17.5975 17.8038C17.4949 17.7799 17.3991 17.7329 17.3174 17.6664C17.235 17.6186 17.1634 17.5543 17.107 17.4776C17.0506 17.4008 17.0106 17.3132 16.9896 17.2203C16.9687 17.1274 16.9671 17.0312 16.985 16.9376C17.003 16.8441 17.0401 16.7552 17.094 16.6767C17.4046 16.1592 17.8381 15.7263 18.356 15.4163C18.8739 15.1064 19.4602 14.9288 20.0631 14.8995C20.2678 14.871 20.4738 14.8532 20.6803 14.8463Z" fill="#EF4C23"/>
<path d="M20.6166 19.2301C20.4283 19.2302 20.2474 19.1569 20.1123 19.0257C19.9772 18.8946 19.8985 18.7159 19.8929 18.5277C19.8872 18.4346 19.9001 18.3413 19.9308 18.2532C19.9615 18.1651 20.0095 18.084 20.0719 18.0146C20.1343 17.9453 20.2099 17.8891 20.2943 17.8493C20.3787 17.8094 20.4702 17.7869 20.5634 17.7828C20.6609 17.7754 20.7589 17.7884 20.8511 17.821C20.9433 17.8537 21.0276 17.9052 21.0988 17.9723C21.1699 18.0394 21.2262 18.1207 21.2641 18.2108C21.3021 18.301 21.3207 18.398 21.319 18.4958C21.3191 18.6851 21.2462 18.8672 21.1153 19.0041C20.9844 19.1409 20.8058 19.2219 20.6166 19.2301Z" fill="#EF4C23"/>
<path d="M22.734 30.5858H18.7751C17.977 30.5858 17.7109 30.341 17.7109 29.5216C17.7109 28.7022 17.7109 27.9359 17.7109 27.1484C17.7109 26.5418 17.9663 26.2651 18.5729 26.2651H22.5743C22.8157 26.2674 23.0503 26.3456 23.2448 26.4886L27.2143 29.1278C27.3781 29.2041 27.5103 29.335 27.588 29.4982C27.6657 29.6614 27.684 29.8465 27.6399 30.0218C27.5335 30.4475 27.2036 30.5645 26.8099 30.5752L22.734 30.5858ZM24.3728 29.1066C23.4151 28.3403 22.5424 27.4677 21.1802 27.7337C20.8263 27.7684 20.4699 27.7684 20.116 27.7337C19.137 27.7337 19.1476 27.7337 19.1583 28.7128C19.1583 29.0214 19.2434 29.1172 19.5626 29.1172C20.6268 29.1172 21.7762 29.1172 22.8936 29.1172L24.3728 29.1066Z" fill="#EF4C23"/>
<path d="M13.1562 30.5849H10.2722C9.33567 30.5849 9.02704 30.0847 9.44208 29.2546C9.85712 28.4245 10.2296 27.7009 10.6021 26.9134C10.6759 26.7121 10.8138 26.5406 10.9945 26.4253C11.1752 26.3099 11.3888 26.2571 11.6024 26.2749C13.1136 26.2749 14.6141 26.2749 16.1253 26.2749C16.8383 26.2749 17.0724 26.509 17.0831 27.222V29.5526C17.0831 30.3508 16.8489 30.6168 16.0189 30.6168L13.1562 30.5849ZM13.4328 29.1056H14.7418C15.6677 29.1056 15.6464 29.1056 15.6677 28.2011C15.6677 27.786 15.5293 27.7222 15.1675 27.7328C14.3986 27.7861 13.627 27.7861 12.8582 27.7328C12.6993 27.6905 12.5333 27.6815 12.3708 27.7064C12.2083 27.7313 12.0526 27.7895 11.9137 27.8775C11.7748 27.9654 11.6555 28.0812 11.5635 28.2175C11.4715 28.3537 11.4086 28.5076 11.3789 28.6693C11.3866 28.7008 11.3866 28.7336 11.3789 28.7651C11.2299 29.0205 11.2725 29.1269 11.5918 29.1163L13.4328 29.1056Z" fill="#EF4C23"/>
<path d="M20.6059 3.57641H19.8928C19.8025 3.58069 19.7122 3.56694 19.6273 3.53596C19.5423 3.50498 19.4644 3.4574 19.398 3.39598C19.3317 3.33456 19.2782 3.26054 19.2407 3.17824C19.2033 3.09593 19.1826 3.00699 19.1798 2.91661C19.1647 2.82637 19.1688 2.73396 19.1919 2.64543C19.215 2.55691 19.2566 2.47426 19.3139 2.40292C19.3711 2.33157 19.4428 2.27314 19.5243 2.23145C19.6057 2.18976 19.6951 2.16576 19.7864 2.16102C20.3314 2.10778 20.8803 2.10778 21.4253 2.16102C21.5156 2.16594 21.6039 2.18968 21.6845 2.23072C21.7651 2.27176 21.8362 2.32919 21.8934 2.39933C21.9505 2.46946 21.9923 2.55076 22.0162 2.63801C22.04 2.72526 22.0454 2.81652 22.0319 2.90596C22.0306 2.99726 22.0109 3.08735 21.9741 3.17089C21.9372 3.25444 21.884 3.32972 21.8174 3.39226C21.7509 3.45481 21.6725 3.50334 21.5869 3.53497C21.5012 3.56661 21.4101 3.5807 21.3189 3.57641H20.6059Z" fill="#EF4C23"/>
</svg>
