<svg width="41" height="41" viewBox="0 0 41 41" fill="none" xmlns="http://www.w3.org/2000/svg">
<path d="M15.1766 0.0108179H22.7431C23.5042 -0.051466 24.2629 0.156614 24.8858 0.598459C25.5086 1.0403 25.9558 1.68762 26.1485 2.42656C26.2443 2.69261 26.4039 2.61811 26.5529 2.61811H34.5664C35.5454 2.61811 36.5245 2.67132 37.5035 2.61811C37.9755 2.59801 38.4456 2.68881 38.8761 2.88323C39.3066 3.07764 39.6855 3.37025 39.9825 3.73759C40.2794 4.10492 40.4862 4.53675 40.5861 4.99843C40.686 5.46011 40.6763 5.93878 40.5578 6.39603C40.3024 7.46023 40.0363 8.52444 39.7596 9.58864C39.5766 10.2155 39.1914 10.7642 38.664 11.1491C38.1365 11.5341 37.4965 11.7338 36.8437 11.717H32.6827C32.4981 11.7146 32.3181 11.7746 32.1719 11.8873C31.5547 12.3662 30.9268 12.8238 30.3095 13.2921C30.0661 13.5038 29.7656 13.6389 29.4456 13.6806C29.1257 13.7222 28.8006 13.6685 28.511 13.5262C28.2157 13.3968 27.9679 13.1788 27.802 12.9023C27.6361 12.6258 27.5603 12.3046 27.5852 11.9831C27.5852 11.7596 27.5213 11.7277 27.3085 11.717C26.2443 11.717 26.2443 11.717 26.2443 12.728V15.346C26.2443 15.5588 26.2443 15.6546 26.5103 15.6546C26.8819 15.6689 27.2379 15.8076 27.5213 16.0483C27.681 16.1654 27.7448 16.1335 27.8512 15.9739C28.0143 15.7004 28.2392 15.469 28.5081 15.2985C28.7769 15.1279 29.082 15.0228 29.3988 14.9918C29.7157 14.9607 30.0354 15.0045 30.3322 15.1196C30.629 15.2348 30.8947 15.418 31.1077 15.6546C32.4167 16.9529 33.7363 18.2619 35.0346 19.5815C35.5841 20.1041 36.0156 20.7381 36.3 21.4411C36.5845 22.1441 36.7155 22.8997 36.6841 23.6574C36.6259 24.1466 36.693 24.6425 36.8792 25.0986C37.0654 25.5547 37.3644 25.956 37.7483 26.2647C38.8125 27.148 39.6745 28.1802 40.6536 29.1274C40.8558 29.3296 40.8558 29.436 40.6536 29.6382C38.5252 31.7666 36.4145 33.8737 34.3216 35.9596C34.1194 36.1618 34.0236 36.1724 33.8214 35.9596C32.5869 34.7145 31.3312 33.48 30.0967 32.2242C30.0234 32.1491 29.9356 32.0897 29.8387 32.0494C29.7417 32.0092 29.6376 31.989 29.5327 31.9901C28.4997 32.0415 27.4644 32.013 26.4358 31.905C26.1804 31.905 26.223 32.022 26.223 32.171C26.2665 32.8022 26.2558 33.4359 26.1911 34.0653C26.0247 34.7868 25.6181 35.4303 25.0381 35.8905C24.458 36.3507 23.7389 36.6002 22.9985 36.5981H12.8566C12.1117 36.5981 11.7924 36.8748 11.7924 37.6623C11.7924 38.4498 11.7924 39.3757 11.7924 40.2377C11.7924 40.4611 11.7924 40.5356 11.5157 40.5356C8.67786 40.5356 5.81515 40.5356 2.92762 40.5356C2.66157 40.5356 2.619 40.4399 2.62964 40.2164C2.64028 39.9929 2.62964 39.4502 2.62964 39.067C2.71996 37.9676 2.51031 36.8642 2.02305 35.8744C1.41267 34.4208 1.01483 32.8867 0.841782 31.3196C0.586374 29.734 0.29904 28.127 0.0861996 26.5733C-0.0832214 25.5077 -0.00217516 24.4173 0.322924 23.3884C0.648022 22.3595 1.20824 21.4205 1.95919 20.6457C2.51257 20.0391 3.09789 19.4751 3.69384 18.9004C3.77664 18.8257 3.84162 18.7334 3.88398 18.6303C3.92634 18.5271 3.94501 18.4158 3.93861 18.3045C3.93861 13.3453 3.93861 8.38609 3.93861 3.40562C3.93534 2.94893 4.02484 2.49633 4.20168 2.07525C4.37851 1.65418 4.639 1.27339 4.96737 0.955976C5.29573 0.638558 5.68513 0.391118 6.11196 0.228652C6.53879 0.0661867 6.99416 -0.00792291 7.45048 0.0108179C10.0258 0.0108179 12.6012 0.0108179 15.1766 0.0108179ZM9.85558 22.242C9.78828 22.2367 9.72067 22.2367 9.65338 22.242C9.30219 22.3165 9.23834 22.1569 9.23834 21.827C9.23834 20.7628 9.23834 19.6986 9.23834 18.6344C9.23834 18.4109 9.23834 18.3045 9.53631 18.3045C11.09 18.3045 12.6331 18.3045 14.1869 18.3045C14.4316 18.3045 14.4742 18.3789 14.4742 18.6024C14.4742 19.6666 14.4742 20.8053 14.4742 21.9121C14.4742 22.1888 14.3997 22.242 14.1337 22.2314C13.0695 22.2314 12.0053 22.2314 10.9411 22.2314C11.4224 22.3659 11.8478 22.6516 12.1544 23.0463C12.461 23.4411 12.6326 23.9239 12.6438 24.4236C12.7183 25.2963 12.7928 26.1583 12.8247 27.0309C12.8247 27.3927 12.9418 27.4779 13.2929 27.4672C14.3571 27.4672 15.4213 27.4672 16.4856 27.4672H17.8264C17.6953 27.0746 17.6928 26.6504 17.8191 26.2562C17.9453 25.862 18.194 25.5183 18.5288 25.275C18.9616 24.9446 19.4426 24.6826 19.9548 24.4981C20.5395 24.2912 21.1545 24.1833 21.7746 24.1788L21.4022 23.8277L16.5281 19.2942C16.2797 19.0905 16.0828 18.8312 15.9533 18.5372C15.8239 18.2432 15.7656 17.9228 15.7832 17.6021C15.7992 17.3043 15.7992 17.0059 15.7832 16.7082C15.7832 15.5907 15.7832 14.4733 15.7832 13.3559C15.7832 13.1324 15.847 13.0686 16.0812 13.0686C17.6349 13.0686 19.178 13.0686 20.7317 13.0686C20.9658 13.0686 21.0297 13.1324 21.0297 13.3666C21.0297 14.3031 21.0297 15.2396 21.0297 16.176C21.0297 17.1125 21.0297 16.9848 20.2528 17.0061H20.1783L22.3067 18.9855V18.5173C22.3067 14.6649 22.3067 10.8089 22.3067 6.94942C22.3067 6.59823 22.2322 6.51309 21.8704 6.51309H8.38697C8.0145 6.51309 7.94001 6.60887 7.94001 6.96006C7.94001 12.8664 7.94001 18.7833 7.94001 24.6897V25.0621C8.30184 23.9341 8.44018 22.6677 9.86621 22.1994L9.85558 22.242ZM28.4472 30.7556C28.7877 30.7556 29.1283 30.7556 29.5114 30.7556C29.6512 30.7679 29.792 30.7462 29.9216 30.6925C30.0513 30.6388 30.1661 30.5546 30.2563 30.447C31.6504 29.0316 33.0126 27.5737 34.5131 26.2434C34.8799 25.9435 35.1622 25.5531 35.332 25.1108C35.5018 24.6685 35.5534 24.1896 35.4816 23.7212C35.4523 22.6267 35.042 21.5767 34.3216 20.7521C32.97 19.3474 31.5759 17.9852 30.2031 16.6124C30.1372 16.5358 30.0555 16.4744 29.9637 16.4324C29.8719 16.3903 29.772 16.3685 29.671 16.3685C29.57 16.3685 29.4702 16.3903 29.3784 16.4324C29.2865 16.4744 29.2049 16.5358 29.1389 16.6124C29.0608 16.6773 28.9979 16.7586 28.9547 16.8506C28.9116 16.9425 28.8892 17.0429 28.8892 17.1445C28.8892 17.2461 28.9116 17.3464 28.9547 17.4384C28.9979 17.5303 29.0608 17.6117 29.1389 17.6766C29.4156 17.9639 29.703 18.2406 29.9796 18.5173C30.2563 18.794 30.5969 18.9855 30.5969 19.2303C30.5969 19.4751 30.1925 19.6879 29.9796 19.9327C29.7668 20.1774 29.7029 20.1349 29.5114 19.9327C28.6813 19.0707 27.8193 18.23 26.9786 17.3786C26.8911 17.266 26.7744 17.1796 26.6411 17.1289C26.5078 17.0782 26.3632 17.0652 26.223 17.0913C26.0899 17.1197 25.9675 17.1851 25.8699 17.28C25.7723 17.3749 25.7034 17.4953 25.6712 17.6276C25.639 17.7598 25.6447 17.8985 25.6877 18.0276C25.7307 18.1568 25.8093 18.2712 25.9144 18.3577C26.6061 19.0707 27.3191 19.7624 28.0428 20.4861C28.2663 20.7096 28.66 20.9543 28.66 21.1884C28.66 21.4226 28.245 21.6567 28.0428 21.9015C27.8406 22.1462 27.7555 22.0824 27.5745 21.9015C26.7338 21.0395 25.8825 20.1987 25.0311 19.3474C24.9436 19.2348 24.8269 19.1484 24.6936 19.0977C24.5604 19.047 24.4157 19.034 24.2755 19.06C24.1426 19.0906 24.0208 19.1576 23.9238 19.2536C23.8268 19.3495 23.7584 19.4706 23.7264 19.6032C23.6944 19.7357 23.6999 19.8747 23.7424 20.0043C23.7848 20.1339 23.8626 20.2492 23.9669 20.3371C24.6693 21.0501 25.3823 21.7418 26.0953 22.4655C26.3188 22.689 26.6806 22.9018 26.7125 23.1466C26.7445 23.3913 26.3081 23.6042 26.1379 23.8702C25.9676 24.1363 25.8292 24.0831 25.6164 23.8702C23.2645 21.7418 20.902 19.5496 18.5395 17.3892C18.4676 17.3022 18.3774 17.2322 18.2753 17.1841C18.1732 17.1361 18.0617 17.1111 17.9488 17.1111C17.836 17.1111 17.7245 17.1361 17.6224 17.1841C17.5203 17.2322 17.4301 17.3022 17.3582 17.3892C17.0602 17.7298 17.1241 18.0916 17.5498 18.4534L24.8289 25.2111L25.9676 26.2753C26.1379 26.4243 26.1166 26.5201 25.9676 26.6584C25.8186 26.7968 25.4993 27.297 25.2333 27.3289C24.9672 27.3608 24.7438 26.9351 24.4777 26.7223C23.8219 26.0872 22.9609 25.7071 22.0498 25.6505C21.1386 25.5939 20.2372 25.8646 19.5079 26.4137C19.2631 26.6052 19.0928 26.8181 19.1993 27.1373C19.2389 27.2835 19.3291 27.4108 19.4538 27.4965C19.5786 27.5823 19.7297 27.6209 19.8804 27.6056C20.1287 27.6056 20.3734 27.6056 20.6147 27.6056C21.9421 27.7916 23.1759 28.3954 24.1372 29.3296C24.8278 30.0141 25.6927 30.4962 26.638 30.7237C27.2333 30.7728 27.8319 30.7657 28.4259 30.7024L28.4472 30.7556ZM3.97053 20.5818C3.57678 20.9756 3.22559 21.2949 2.90633 21.646C2.32257 22.2604 1.88533 22.9987 1.62732 23.8059C1.36931 24.6131 1.29722 25.4683 1.41645 26.3073C1.63993 27.8716 1.93791 29.436 2.16139 31.011C2.39766 32.8693 2.90314 34.6832 3.66192 36.3959C3.72577 36.5342 3.76833 36.6407 3.97053 36.6407H10.5047C10.5623 36.6506 10.6216 36.6387 10.6708 36.6071C10.72 36.5756 10.7557 36.5269 10.7708 36.4704C11.5292 34.8925 11.8944 33.1545 11.835 31.4048C11.6966 29.1167 11.4838 26.8181 11.3029 24.53C11.3181 24.2957 11.2426 24.0644 11.092 23.8842C10.9415 23.7039 10.7274 23.5884 10.4941 23.5616C10.0471 23.5616 9.69594 23.8277 9.55759 24.3917C9.13965 26.3992 8.49338 28.3523 7.63139 30.2129C7.46663 30.624 7.16452 30.9653 6.77647 31.1787C6.38841 31.3921 5.93839 31.4645 5.50298 31.3835C5.05796 31.2751 4.66464 31.015 4.39075 30.6479C4.11686 30.2807 3.97956 29.8296 4.00246 29.3722C4.05567 26.4137 4.02374 23.519 4.02374 20.5286L3.97053 20.5818ZM5.2795 16.325V29.2019C5.2795 29.3189 5.2795 29.4467 5.2795 29.5637C5.2867 29.6864 5.33455 29.8032 5.41548 29.8957C5.49641 29.9882 5.60582 30.0511 5.72647 30.0745C5.84778 30.1043 5.97573 30.0895 6.08706 30.0328C6.19838 29.9762 6.28567 29.8815 6.33306 29.7659C6.49806 29.4696 6.5859 29.1366 6.58848 28.7975C6.58848 21.082 6.58848 13.3772 6.58848 5.67237C6.58848 5.33183 6.66297 5.24669 7.00351 5.24669C8.16349 5.24669 9.32347 5.24669 10.4728 5.24669H21.913C22.211 5.24669 22.3174 5.1722 22.3919 4.86358C22.514 4.34617 22.7778 3.87298 23.1538 3.49706C23.5297 3.12114 24.0029 2.85732 24.5203 2.73518C24.8502 2.65004 24.8076 2.54362 24.6799 2.34142C24.5091 2.02874 24.254 1.77025 23.9436 1.5953C23.6332 1.42035 23.2799 1.33595 22.924 1.35171C21.9981 1.35171 21.0723 1.35171 20.1464 1.35171C19.7739 1.35171 19.6994 1.44749 19.7101 1.79868C19.7325 2.08389 19.6928 2.37057 19.5938 2.63897C19.4947 2.90737 19.3387 3.15111 19.1364 3.35341C18.9341 3.5557 18.6904 3.71174 18.422 3.81078C18.1536 3.90981 17.8669 3.9495 17.5817 3.92708H12.7608C12.5019 3.9372 12.2431 3.90485 11.9946 3.8313C11.5812 3.71089 11.2197 3.45614 10.9672 3.10731C10.7147 2.75848 10.5857 2.33545 10.6005 1.9051C10.6005 1.30914 10.6005 1.30915 9.99392 1.30915H7.58882C7.28865 1.27136 6.98383 1.30251 6.69751 1.40023C6.41119 1.49795 6.15091 1.65966 5.93648 1.87307C5.72204 2.08648 5.55909 2.34597 5.46 2.63182C5.36091 2.91767 5.3283 3.22234 5.36464 3.52268L5.2795 16.325ZM31.4482 3.93772H25.361C25.0947 3.92162 24.8285 3.96992 24.5848 4.07854C24.3412 4.18716 24.1273 4.35291 23.9613 4.56173C23.7952 4.77055 23.682 5.0163 23.6311 5.27818C23.5802 5.54005 23.5932 5.81033 23.6689 6.06613C23.903 7.13033 24.1691 8.19453 24.4351 9.18424C24.5243 9.57232 24.7467 9.91686 25.0637 10.158C25.3806 10.399 25.772 10.5214 26.1698 10.5039C26.9467 10.5039 27.7235 10.5039 28.5004 10.5039C28.7771 10.5039 28.8516 10.589 28.8303 10.8444C28.809 11.0998 28.8303 11.5787 28.8303 11.9086C28.8303 12.0789 28.8303 12.2598 29.0112 12.3662C29.1921 12.4726 29.3518 12.3662 29.4901 12.2491C30.1925 11.717 30.9055 11.1849 31.6185 10.6528C31.7885 10.5209 31.9995 10.4531 32.2145 10.4613H36.6735C37.0978 10.4885 37.5172 10.358 37.8512 10.0948C38.1851 9.83156 38.41 9.45421 38.4826 9.03525C38.6954 8.19453 38.9189 7.35381 39.1211 6.51309C39.2483 6.1513 39.3025 5.76791 39.2808 5.38504C39.2228 4.9639 39.0094 4.57969 38.6825 4.30793C38.3556 4.03617 37.9388 3.89652 37.5142 3.91644L31.4482 3.93772ZM12.697 35.2466H12.7821C16.1876 35.2466 19.593 35.2466 22.9985 35.2466C23.4529 35.253 23.8947 35.0967 24.2441 34.8059C24.5934 34.5151 24.8273 34.109 24.9034 33.6609C24.9694 32.9535 24.9872 32.2423 24.9566 31.5325C24.9581 31.4842 24.9432 31.4367 24.9141 31.3981C24.8851 31.3594 24.8438 31.3317 24.797 31.3196C24.0962 30.9293 23.4487 30.4499 22.8708 29.8936C21.9348 29.1149 20.7461 28.7061 19.5292 28.7443H14.0166C12.9524 28.7443 12.9524 28.7443 13.0801 29.8085C13.0801 30.0426 13.1759 30.0852 13.3994 30.0852H15.8045C15.9786 30.0837 16.1512 30.1172 16.3121 30.1838C16.473 30.2504 16.6188 30.3487 16.7409 30.4728C16.8631 30.5969 16.959 30.7443 17.023 30.9063C17.087 31.0682 17.1177 31.2414 17.1134 31.4154C17.1092 31.9897 16.9163 32.5467 16.5644 33.0005C16.2125 33.4544 15.7211 33.7799 15.1659 33.9269C14.5462 34.0192 13.9185 34.0477 13.2929 34.0121C13.1546 34.0121 12.995 33.9589 12.9418 34.1824C12.8885 34.4058 12.7821 34.8847 12.697 35.2466ZM36.0349 26.4456C35.9878 26.5077 35.9343 26.5648 35.8753 26.6159C34.3535 28.1377 32.8423 29.6595 31.3099 31.1707C31.1503 31.3303 31.1609 31.4154 31.3099 31.5644C32.1932 32.4158 33.0552 33.2884 33.9172 34.1611C34.0555 34.2994 34.1407 34.3313 34.3003 34.1611L38.887 29.5637C39.036 29.4254 39.0254 29.3509 38.887 29.2125C38.0037 28.3399 37.1311 27.4672 36.2584 26.5839C36.1946 26.5307 36.1626 26.4456 36.0349 26.4456ZM7.30149 37.8964H5.01345C4.0131 37.8964 4.02374 37.8964 4.02374 38.8755C4.02374 39.1415 4.08759 39.2054 4.35364 39.2054H9.58953C10.5899 39.2054 10.5899 39.2054 10.5792 38.1412C10.5792 37.9071 10.5154 37.8432 10.2813 37.8432C9.27026 37.9071 8.32312 37.8964 7.34406 37.8964H7.30149ZM15.0808 2.58619C15.8577 2.58619 16.6345 2.58619 17.4114 2.58619C18.1883 2.58619 18.4011 2.1605 18.3798 1.52198C18.3798 1.33043 18.3798 1.26658 18.1244 1.26658H12.0798C11.9946 1.26658 11.8988 1.26657 11.835 1.35171C11.7819 1.47954 11.7603 1.61828 11.7721 1.7562C11.7839 1.89412 11.8288 2.02717 11.9029 2.14409C11.9771 2.26101 12.0782 2.35835 12.1979 2.42789C12.3176 2.49744 12.4523 2.53713 12.5906 2.54362L15.0808 2.58619ZM23.5944 10.4613C23.5944 12.8451 23.5944 15.1225 23.5944 17.4105C23.5944 17.5063 23.5093 17.7191 23.6796 17.6872C23.8498 17.6553 24.1797 17.7617 24.2436 17.4637C24.3036 17.0155 24.5049 16.598 24.8183 16.2718C24.8511 16.2303 24.8748 16.1823 24.8876 16.1309C24.9005 16.0795 24.9022 16.026 24.8927 15.9739V11.717C24.8927 11.6 24.8928 11.4829 24.7544 11.4191C24.3206 11.1835 23.943 10.8568 23.6476 10.4613H23.5944ZM18.3585 15.6546H18.6885C19.7527 15.6546 19.7527 15.6546 19.6675 14.5904C19.6675 14.4308 19.6675 14.3775 19.4653 14.3775C18.7559 14.3775 18.0215 14.3775 17.2624 14.3775C17.1028 14.3775 17.0602 14.4308 17.0496 14.5904C16.9538 15.6546 16.9538 15.6546 18.0393 15.6546H18.3585ZM11.8137 20.8905H12.1436C13.2078 20.8905 13.144 20.8905 13.1333 19.8795C13.1333 19.656 13.1333 19.5709 12.846 19.5815H11.5051C10.4409 19.5815 10.5047 19.5815 10.5154 20.5925C10.5154 20.816 10.5154 20.9118 10.7921 20.8905C11.0688 20.8692 11.5264 20.8905 11.8669 20.8905H11.8137ZM13.9421 32.6605H14.5061C14.8016 32.6439 15.0833 32.5308 15.3083 32.3385C15.5332 32.1463 15.6888 31.8856 15.7512 31.5963C15.7512 31.3941 15.7513 31.3409 15.5491 31.3409C14.9212 31.3409 14.2933 31.3409 13.6761 31.3409C13.2504 31.3409 13.1333 31.4367 13.1546 31.8624C13.2078 32.6605 13.1865 32.6605 13.9634 32.6605H13.9421Z" fill="#EF4C23"/>
<path d="M11.8773 11.7173H9.54675C9.31262 11.7173 9.24877 11.6535 9.25941 11.43C9.25941 10.309 9.25941 9.19163 9.25941 8.07776C9.25941 7.84364 9.31262 7.77979 9.54675 7.77979H14.2079C14.4314 7.77979 14.4953 7.84364 14.4953 8.07776C14.4953 9.19163 14.4953 10.309 14.4953 11.43C14.4953 11.6535 14.4314 11.728 14.2079 11.7173H11.8773ZM11.8773 10.4084H12.2073C13.2715 10.4084 13.2715 10.4084 13.2715 9.34416C13.2715 9.14197 13.2076 9.08875 13.016 9.08875C12.335 9.08875 11.6539 9.08875 10.9834 9.08875C10.7067 9.08875 10.6429 9.16325 10.6429 9.4293C10.6429 10.4084 10.6429 10.4084 11.6432 10.4084H11.8773Z" fill="#EF4C23"/>
<path d="M18.4008 11.7173H16.0702C15.8573 11.7173 15.7935 11.6641 15.7935 11.4513C15.7935 10.3126 15.7935 9.18453 15.7935 8.05648C15.7935 7.84364 15.8467 7.77979 16.0702 7.77979H20.7633C20.9761 7.77979 21.04 7.84364 21.04 8.05648C21.04 9.18453 21.04 10.3126 21.04 11.4513C21.04 11.6535 20.9868 11.7173 20.7633 11.7173H18.4008ZM18.4008 10.4084H18.7307C19.7949 10.4084 19.7949 10.4084 19.7949 9.34416C19.7949 9.0994 19.6991 9.06747 19.4862 9.06747C19.0499 9.06747 18.6136 9.06747 18.1773 9.06747C17.1131 9.06747 17.1131 9.06747 17.1663 10.1317C17.1663 10.3339 17.1663 10.4296 17.4323 10.4084C17.6984 10.3871 18.0496 10.4297 18.3901 10.4297L18.4008 10.4084Z" fill="#EF4C23"/>
<path d="M11.9095 13.0469H14.1976C14.421 13.0469 14.5062 13.0469 14.4955 13.3342C14.4955 14.4481 14.4955 15.5655 14.4955 16.6864C14.4955 16.8993 14.4955 16.9844 14.2082 16.9844C12.6651 16.9844 11.1114 16.9844 9.55764 16.9844C9.33416 16.9844 9.24903 16.9844 9.25967 16.6971C9.25967 15.5797 9.25967 14.4623 9.25967 13.3449C9.25967 13.0682 9.36609 13.0469 9.58958 13.0469H11.9095ZM11.9095 15.6542H12.2394C13.3036 15.6542 13.2398 15.6542 13.2398 14.6432C13.2398 14.3665 13.1334 14.3346 12.9099 14.3452C12.4736 14.3452 12.0372 14.3452 11.6009 14.3452C10.5367 14.3452 10.6006 14.3452 10.6112 15.4094C10.6112 15.6222 10.6112 15.718 10.8879 15.7074C11.1646 15.6967 11.5264 15.6542 11.867 15.6542H11.9095Z" fill="#EF4C23"/>
<path d="M31.5014 6.50223C29.8625 6.50223 28.2236 6.50223 26.5954 6.50223C26.3294 6.50223 26.2549 6.43837 26.2549 6.16168C26.2549 5.18262 26.2549 5.18262 27.2446 5.18262C30.2882 5.18262 33.3212 5.18262 36.3542 5.18262C36.6628 5.18262 36.7479 5.25711 36.7373 5.56573C36.7373 6.50223 36.7373 6.50223 35.7901 6.50223H31.5014Z" fill="#EF4C23"/>
<path d="M30.1924 7.81104C31.3843 7.81104 32.5869 7.81104 33.7788 7.81104C34.0448 7.81104 34.1193 7.87489 34.1193 8.15158C34.1193 9.13065 34.1193 9.13064 33.1296 9.13064C31.0012 9.13064 28.7983 9.13064 26.638 9.13064C26.3294 9.13064 26.2549 9.05615 26.2549 8.74753C26.2549 7.81103 26.2549 7.81104 27.202 7.81104H30.1924Z" fill="#EF4C23"/>
<path d="M36.7264 8.52366C36.7264 9.1409 36.7264 9.1409 36.1198 9.1409C35.5132 9.1409 35.4175 9.1409 35.4175 8.44917C35.4175 7.75744 35.4175 7.83193 36.0241 7.83193C36.6307 7.83193 36.7264 7.81065 36.7264 8.52366Z" fill="#EF4C23"/>
<path d="M20.4232 30.0427C21.8812 29.915 22.4346 30.5323 22.3494 31.9689C22.3523 32.4949 22.1468 33.0006 21.7779 33.3755C21.4089 33.7504 20.9066 33.964 20.3807 33.9696C20.1166 33.9683 19.8554 33.9144 19.6124 33.8111C19.3694 33.7078 19.1493 33.5572 18.9651 33.368C18.7809 33.1788 18.6362 32.9549 18.5393 32.7092C18.4425 32.4635 18.3956 32.201 18.4012 31.937C18.3374 30.5748 18.8482 29.915 20.4232 30.0427ZM20.4232 31.3411C20.1784 31.4475 19.6996 31.0963 19.7528 31.7561C19.806 32.4159 19.9869 32.65 20.4019 32.6607C20.817 32.6713 21.0298 32.3308 21.0724 31.7242C21.1149 31.1176 20.6148 31.4581 20.3913 31.3411H20.4232Z" fill="#EF4C23"/>
</svg>
