<svg width="46" height="45" viewBox="0 0 46 45" fill="none" xmlns="http://www.w3.org/2000/svg">
<path d="M0.0106443 41.5465V41.1421C0.117065 41.1421 0.159633 41.1421 0.202201 41.0144C0.333463 40.5867 0.576101 40.2017 0.905236 39.8987C1.23437 39.5958 1.63816 39.3858 2.0752 39.2903C2.38381 39.2052 2.31996 39.003 2.31996 38.8115C2.31996 31.8941 2.31996 24.9768 2.31996 18.0595C2.31996 17.7615 2.31996 17.6126 1.92621 17.6551C1.5321 17.7218 1.12702 17.6529 0.777155 17.4596C0.42729 17.2663 0.153318 16.9601 0 16.5909V5.22524C0.165109 4.851 0.450812 4.54285 0.811516 4.34996C1.17222 4.15707 1.58714 4.09056 1.99006 4.16103C2.57537 4.16103 3.18196 4.16103 3.77792 4.16103C3.92779 4.18146 4.07996 4.14614 4.20551 4.06179C4.33107 3.97743 4.42128 3.84991 4.45901 3.70343C5.0124 2.45831 5.52321 1.18126 6.17237 0H39.1626C39.7874 1.17519 40.3487 2.38302 40.8441 3.61829C40.8896 3.79614 41 3.95051 41.1537 4.05097C41.3073 4.15143 41.493 4.1907 41.6742 4.16103C42.3233 4.16103 42.9831 4.16103 43.6323 4.16103C43.8645 4.13299 44.1 4.15847 44.3209 4.23553C44.5417 4.31258 44.742 4.43917 44.9063 4.60558C45.0707 4.77199 45.1948 4.97381 45.2691 5.19559C45.3434 5.41736 45.3659 5.6532 45.335 5.88504V15.814C45.335 17.1337 44.8029 17.687 43.4727 17.6764C43.1215 17.6764 43.0151 17.7615 43.0151 18.1234C43.0151 19.7516 43.0151 21.3905 43.0151 23.0187C43.0151 28.2475 43.0151 33.4762 43.0151 38.705C43.0151 39.0669 43.0151 39.2903 43.4833 39.3861C43.7742 39.4599 44.047 39.5924 44.2849 39.7754C44.5228 39.9584 44.7208 40.188 44.8668 40.4503C45.385 41.5237 45.4983 42.7481 45.186 43.8983C45.1115 44.2921 44.771 44.356 44.3772 44.356C29.897 44.356 15.4096 44.356 0.915215 44.356C0.810985 44.3725 0.70445 44.367 0.60247 44.3398C0.500491 44.3127 0.405331 44.2645 0.323121 44.1983C0.24091 44.1321 0.17347 44.0495 0.12515 43.9556C0.0768293 43.8618 0.0486986 43.7589 0.0425691 43.6536C0.129437 42.9531 0.118694 42.244 0.0106443 41.5465ZM22.6888 5.51257H1.5963C1.42603 5.51257 1.35154 5.5977 1.35154 5.76797C1.28536 6.20419 1.30707 6.64924 1.41539 7.07695C1.55374 7.33235 2.10712 7.07695 2.47959 7.16208H2.63922C2.72986 7.15558 2.82083 7.16882 2.90584 7.20089C2.99086 7.23297 3.0679 7.28313 3.13165 7.34788C3.19539 7.41264 3.24433 7.49047 3.27506 7.57598C3.3058 7.66149 3.3176 7.75265 3.30967 7.84317C3.31618 7.93381 3.30293 8.02477 3.27086 8.10979C3.23878 8.19481 3.18863 8.27185 3.12387 8.3356C3.05911 8.39934 2.98129 8.44827 2.89578 8.47901C2.81027 8.50974 2.7191 8.52155 2.62858 8.51362H1.64951C1.52181 8.51362 1.35154 8.51362 1.35154 8.68389C1.2896 9.15628 1.31485 9.63601 1.42603 10.0993C1.52181 10.3228 2.08584 10.0993 2.49023 10.1738C2.55722 10.1632 2.62545 10.1632 2.69243 10.1738C3.08619 10.2376 3.38417 10.4185 3.37352 10.8655C3.37519 10.9567 3.3579 11.0473 3.32277 11.1316C3.28764 11.2158 3.23542 11.2918 3.16941 11.3548C3.1034 11.4178 3.02503 11.4664 2.93927 11.4976C2.85351 11.5288 2.76221 11.5419 2.67115 11.536C2.35189 11.536 2.02198 11.536 1.69208 11.536C1.57502 11.536 1.3941 11.536 1.40475 11.7062C1.34803 12.1788 1.37323 12.6576 1.47924 13.1216C1.58566 13.3557 2.14969 13.1216 2.54344 13.1961C2.66025 13.1852 2.77782 13.1852 2.89463 13.1961C3.04117 13.2234 3.17354 13.3012 3.26878 13.4159C3.36402 13.5305 3.41613 13.6749 3.41609 13.824C3.43242 13.9794 3.39022 14.1353 3.29772 14.2613C3.20523 14.3872 3.06909 14.4742 2.91592 14.5051C2.76411 14.5262 2.61011 14.5262 2.45831 14.5051C1.39411 14.5051 1.4686 14.5051 1.39411 15.5693C1.39411 16.0907 1.51117 16.2397 2.04327 16.2291H20.6242C20.8121 16.2187 21.0004 16.2187 21.1883 16.2291C21.3529 16.2478 21.5041 16.3288 21.6109 16.4554C21.7178 16.5821 21.7722 16.7448 21.7629 16.9102C21.7723 17.0062 21.7607 17.1031 21.7292 17.1942C21.6976 17.2854 21.6468 17.3687 21.5801 17.4384C21.5134 17.5081 21.4325 17.5626 21.3428 17.5981C21.2532 17.6337 21.1569 17.6495 21.0606 17.6445C20.8905 17.6552 20.7199 17.6552 20.5497 17.6445H4.23552C3.80984 17.6445 3.69278 17.7403 3.69278 18.1766C3.69278 23.6572 3.69278 29.1485 3.69278 34.6398C3.69278 35.9913 3.69278 37.3535 3.69278 38.705C3.69278 39.1201 3.82049 39.2265 4.21424 39.2052C4.79541 39.168 5.37837 39.168 5.95954 39.2052C6.4065 39.2052 6.49163 39.0669 6.48099 38.6518C6.48099 33.8204 6.48099 28.9853 6.48099 24.1468C6.4439 23.8997 6.46491 23.6474 6.54237 23.4099C6.61983 23.1724 6.7516 22.9562 6.92722 22.7785C7.10283 22.6008 7.31746 22.4665 7.55404 22.3863C7.79063 22.3061 8.04267 22.2821 8.29014 22.3163H17.868C19.2621 22.3163 19.8261 22.8803 19.8261 24.2851C19.8261 29.0669 19.8261 33.8487 19.8261 38.6305C19.8261 39.0669 19.9006 39.2158 20.3688 39.2052C23.2315 39.2052 26.0942 39.2052 28.9676 39.2052C29.1372 39.1839 29.3088 39.1839 29.4784 39.2052C29.6315 39.2306 29.7705 39.3101 29.8701 39.4292C29.9696 39.5483 30.0232 39.6991 30.0211 39.8544C30.0391 40.011 29.9944 40.1683 29.8967 40.2919C29.7989 40.4156 29.6562 40.4955 29.4997 40.5142C29.277 40.5409 29.0519 40.5409 28.8292 40.5142H3.20325C3.0154 40.5034 2.82708 40.5034 2.63922 40.5142C2.31801 40.5326 2.01534 40.6707 1.7908 40.9011C1.56627 41.1316 1.43614 41.4377 1.42603 41.7593C1.44198 42.0145 1.44198 42.2704 1.42603 42.5255C1.3409 43.047 1.56438 43.1321 2.04327 43.1321H42.9938C43.9835 43.1321 43.9835 43.1321 43.9835 42.1424C43.9835 40.9611 43.5365 40.5142 42.3659 40.5142H32.9583C32.7529 40.5304 32.5465 40.5304 32.3411 40.5142C32.185 40.4955 32.0419 40.4179 31.941 40.2972C31.8401 40.1766 31.7891 40.022 31.7984 39.865C31.7907 39.7077 31.8404 39.553 31.9383 39.4297C32.0362 39.3063 32.1755 39.2228 32.3305 39.1946C32.5004 39.1784 32.6714 39.1784 32.8413 39.1946C35.6189 39.1946 38.3964 39.1946 41.174 39.1946C41.6103 39.1946 41.7167 39.0775 41.7061 38.6518C41.7061 37.2329 41.7061 35.814 41.7061 34.395C41.7061 33.9587 41.589 33.8629 41.174 33.8629C36.0233 33.8629 30.8832 33.8629 25.7324 33.8629C24.3277 33.8629 24.0297 33.5543 24.0297 32.1389V24.0297C24.0297 22.6569 24.3596 22.327 25.7111 22.327C30.8725 22.327 36.0339 22.327 41.2059 22.327C41.6103 22.327 41.7167 22.2205 41.7061 21.8161C41.7061 20.603 41.7061 19.3791 41.7061 18.1659C41.7061 17.719 41.5677 17.6445 41.1633 17.6445H24.5405C23.7636 17.6445 23.3912 17.4104 23.4018 16.9315C23.4125 16.4526 23.7743 16.2504 24.5299 16.2504H42.8448C44.0793 16.2504 44.0686 16.2504 44.058 14.9946C44.058 14.6966 44.0048 14.5476 43.6749 14.5902C43.3665 14.6062 43.0574 14.6062 42.749 14.5902C42.6577 14.5937 42.5668 14.5776 42.4822 14.543C42.3977 14.5083 42.3216 14.4559 42.2591 14.3893C42.1965 14.3228 42.149 14.2435 42.1197 14.157C42.0904 14.0705 42.08 13.9787 42.0892 13.8878C42.0846 13.8014 42.0982 13.7149 42.1292 13.6341C42.1602 13.5532 42.2079 13.4798 42.2691 13.4186C42.3303 13.3574 42.4038 13.3097 42.4846 13.2787C42.5654 13.2477 42.6519 13.2341 42.7384 13.2387C43.0286 13.2121 43.3207 13.2121 43.611 13.2387C43.9835 13.2387 44.1005 13.1429 44.058 12.7811C44.0154 12.4192 44.2176 11.8978 43.9835 11.6424C43.7494 11.387 43.2705 11.5892 42.9193 11.5679C42.3765 11.5679 42.0892 11.2912 42.0998 10.8549C42.1105 10.4185 42.3978 10.2163 42.9193 10.1844C43.4407 10.1525 43.8239 10.376 43.9835 10.078C44.1431 9.78002 43.9835 9.31177 44.0367 8.91802C44.0899 8.52426 43.9835 8.48169 43.6536 8.51362C43.3455 8.5402 43.0358 8.5402 42.7277 8.51362C42.6365 8.52063 42.5449 8.50727 42.4594 8.47452C42.374 8.44176 42.2969 8.39042 42.2338 8.32422C42.1706 8.25802 42.123 8.1786 42.0943 8.09173C42.0656 8.00485 42.0566 7.91267 42.0679 7.82188C42.0634 7.73496 42.0771 7.64806 42.108 7.56669C42.1389 7.48532 42.1863 7.41126 42.2474 7.34922C42.3084 7.28717 42.3817 7.2385 42.4626 7.20629C42.5434 7.17407 42.6301 7.15902 42.7171 7.16208H43.0257C44.0899 7.16208 44.0048 7.16208 44.0899 6.09788C44.0899 5.59771 43.9835 5.43807 43.4514 5.43807C36.5128 5.52321 29.5742 5.51257 22.6888 5.51257ZM7.78996 31.4791C7.78996 33.8948 7.78996 36.3106 7.78996 38.7263C7.78996 39.1201 7.89638 39.2052 8.2795 39.2052C11.5147 39.2052 14.7534 39.2052 17.9957 39.2052C18.4213 39.2052 18.5278 39.0988 18.5278 38.6731C18.5278 33.8948 18.5278 29.0953 18.5278 24.3277C18.5278 23.6785 18.5278 23.6572 17.868 23.6572H8.46041C7.82189 23.6572 7.81125 23.6572 7.81125 24.3383L7.78996 31.4791ZM33.5224 32.5433C36.0765 32.5433 38.6305 32.5433 41.1846 32.5433C41.5677 32.5433 41.6742 32.4475 41.6742 32.0538C41.6742 29.4039 41.6742 26.7328 41.6742 24.0935C41.6742 23.7104 41.5784 23.604 41.1953 23.604C36.0871 23.604 30.9789 23.604 25.8708 23.604C25.4983 23.604 25.3812 23.6891 25.3812 24.0829C25.3812 26.7434 25.3812 29.4039 25.3812 32.0538C25.3812 32.4369 25.477 32.5433 25.8601 32.5433C28.4461 32.5433 31.0002 32.5433 33.5543 32.5433H33.5224ZM5.76798 4.09718H39.6309C39.2691 3.28838 38.886 2.54345 38.5667 1.76658C38.5157 1.54968 38.3837 1.3605 38.1977 1.23782C38.0117 1.11514 37.7858 1.06825 37.5663 1.10677C27.6338 1.10677 17.7012 1.10677 7.76868 1.10677C7.65161 1.10677 7.53455 1.10677 7.40685 1.10677C7.3155 1.09007 7.22121 1.1081 7.14246 1.15731C7.06371 1.20653 7.00619 1.28339 6.98117 1.37282C6.58741 2.27739 6.16173 3.16068 5.76798 4.09718Z" fill="#EF4C23"/>
<path d="M31.2985 10.8976C31.3042 11.3064 31.2281 11.7121 31.0746 12.091C30.9211 12.4699 30.6934 12.8143 30.4048 13.1038C30.1163 13.3934 29.7727 13.6223 29.3943 13.7771C29.016 13.9318 28.6104 14.0094 28.2017 14.0051C27.7896 14.0093 27.3808 13.9313 26.9993 13.7756C26.6178 13.6199 26.2712 13.3896 25.9798 13.0982C25.6884 12.8068 25.4581 12.4602 25.3024 12.0787C25.1467 11.6971 25.0686 11.2884 25.0729 10.8763C25.0715 10.4683 25.151 10.0641 25.3068 9.68707C25.4626 9.31001 25.6916 8.96758 25.9806 8.6796C26.2695 8.39161 26.6128 8.16377 26.9904 8.00927C27.3679 7.85477 27.7724 7.77667 28.1804 7.77949C28.5923 7.77079 29.0016 7.84549 29.3839 7.99911C29.7661 8.15273 30.1133 8.38208 30.4046 8.67338C30.6959 8.96467 30.9253 9.31189 31.0789 9.69413C31.2325 10.0764 31.3072 10.4857 31.2985 10.8976ZM28.2123 9.13102C27.9808 9.12821 27.7511 9.1712 27.5363 9.25752C27.3215 9.34384 27.1258 9.47179 26.9607 9.63399C26.7955 9.7962 26.664 9.98946 26.5738 10.2027C26.4836 10.4159 26.4365 10.6448 26.4351 10.8763C26.4337 11.1087 26.4784 11.3391 26.5667 11.554C26.655 11.769 26.785 11.9643 26.9494 12.1286C27.1137 12.2929 27.309 12.423 27.524 12.5113C27.7389 12.5996 27.9693 12.6443 28.2017 12.6429C28.6603 12.6376 29.099 12.4552 29.4263 12.1339C29.7535 11.8127 29.9439 11.3773 29.9576 10.9189C29.9577 10.452 29.7752 10.0036 29.4491 9.66949C29.123 9.3354 28.6791 9.14214 28.2123 9.13102Z" fill="#EF4C23"/>
<path d="M34.5763 10.8231C34.5763 11.6319 34.5763 12.4513 34.5763 13.2707C34.5763 13.8348 34.1187 14.154 33.6504 13.9625C33.5127 13.9077 33.3966 13.8094 33.3198 13.6827C33.243 13.5559 33.2096 13.4076 33.2248 13.2601C33.2248 11.6851 33.2248 10.1101 33.2248 8.53505C33.2248 8.19451 33.3205 7.90717 33.6824 7.82203C33.8455 7.76841 34.0226 7.77549 34.1809 7.84196C34.3393 7.90844 34.4684 8.02984 34.5444 8.18386C35.1935 9.15229 35.864 10.0994 36.6196 11.1849V8.47119C36.6082 8.3804 36.6173 8.28824 36.6459 8.20136C36.6746 8.11448 36.7223 8.03507 36.7854 7.96887C36.8486 7.90266 36.9256 7.85132 37.0111 7.81856C37.0965 7.78581 37.1881 7.77246 37.2794 7.77947C37.3703 7.76962 37.4623 7.7801 37.5487 7.81015C37.635 7.8402 37.7137 7.88908 37.7788 7.95324C37.844 8.0174 37.8941 8.09525 37.9255 8.18114C37.9569 8.26704 37.9689 8.35884 37.9605 8.44991C37.9605 9.10972 37.9605 9.78016 37.9605 10.4506C37.9605 11.3126 37.9605 12.164 37.9605 13.026C37.9939 13.2126 37.9598 13.4051 37.8642 13.5689C37.7687 13.7327 37.6179 13.8571 37.439 13.9199C37.0027 14.0795 36.726 13.8241 36.4919 13.4942L34.6295 10.7912L34.5763 10.8231Z" fill="#EF4C23"/>
<path d="M9.41849 13.9947C8.72884 13.9384 8.08617 13.6227 7.61999 13.1114C7.55204 13.0515 7.49763 12.9778 7.46036 12.8952C7.42309 12.8127 7.40381 12.7231 7.40381 12.6325C7.40381 12.5419 7.42309 12.4524 7.46036 12.3698C7.49763 12.2872 7.55204 12.2135 7.61999 12.1536C7.68093 12.0819 7.75676 12.0242 7.84221 11.9846C7.92766 11.9451 8.02068 11.9246 8.11484 11.9246C8.209 11.9246 8.30203 11.9451 8.38748 11.9846C8.47293 12.0242 8.54875 12.0819 8.6097 12.1536C8.78136 12.3218 8.98688 12.4515 9.21258 12.5341C9.43828 12.6167 9.67898 12.6502 9.91866 12.6325C10.2273 12.6325 10.5146 12.4835 10.5678 12.1536C10.621 11.8237 10.3337 11.7173 10.0996 11.6109C9.69518 11.43 9.28014 11.2916 8.86511 11.1107C8.50786 11.0066 8.19742 10.7825 7.98612 10.4763C7.77482 10.17 7.67558 9.8002 7.70512 9.42927C7.73519 9.04149 7.89393 8.67486 8.15614 8.38758C8.41835 8.10031 8.769 7.90886 9.15244 7.84361C9.55528 7.75249 9.97334 7.75199 10.3764 7.84218C10.7795 7.93236 11.1574 8.11096 11.483 8.36507C11.5609 8.41175 11.6284 8.47376 11.6816 8.54732C11.7348 8.62089 11.7724 8.70449 11.7923 8.79305C11.8123 8.88161 11.814 8.97329 11.7974 9.06253C11.7808 9.15177 11.7463 9.23671 11.6959 9.31221C11.6479 9.39348 11.5831 9.46352 11.5057 9.51759C11.4284 9.57167 11.3404 9.60852 11.2476 9.62567C11.1548 9.64282 11.0594 9.63985 10.9678 9.61699C10.8762 9.59412 10.7907 9.55188 10.7168 9.49312C10.4102 9.26124 10.037 9.13436 9.65261 9.1313C9.41849 9.1313 9.19501 9.22708 9.13116 9.48249C9.0673 9.73789 9.33335 9.80174 9.50363 9.87623L10.5678 10.3126C11.632 10.7595 12.1748 11.5151 11.9832 12.441C11.7917 13.3668 10.802 14.016 9.41849 13.9947Z" fill="#EF4C23"/>
<path d="M18.5917 13.3131C18.5961 13.4665 18.5478 13.6167 18.4548 13.7387C18.3619 13.8607 18.2299 13.9471 18.0809 13.9836C17.7723 14.0474 17.4105 13.9836 17.3573 13.6643C17.1763 12.7278 16.5165 12.7598 15.8142 12.8236C15.6976 12.8395 15.5795 12.8395 15.463 12.8236C15.3899 12.8011 15.3126 12.7952 15.237 12.8065C15.1613 12.8178 15.0892 12.8459 15.0258 12.8888C14.9625 12.9317 14.9096 12.9883 14.8711 13.0544C14.8325 13.1204 14.8093 13.1943 14.8032 13.2706C14.7703 13.4025 14.7164 13.5283 14.6435 13.643C14.5718 13.7919 14.446 13.9078 14.2918 13.9672C14.1375 14.0265 13.9665 14.0247 13.8135 13.9623C13.6625 13.9177 13.5349 13.8161 13.4574 13.6791C13.38 13.5421 13.3588 13.3803 13.3984 13.228C13.4626 12.9626 13.548 12.7028 13.6538 12.4511C14.154 11.1422 14.6542 9.8332 15.1437 8.52424C15.2927 8.11984 15.4843 7.7793 15.9951 7.7793C16.5059 7.7793 16.6868 8.13048 16.8358 8.53488C17.3785 9.99284 17.9 11.4508 18.4747 12.8981C18.5279 13.0471 18.5598 13.1961 18.5917 13.3131ZM16.0164 10.195C15.8629 10.4576 15.738 10.7359 15.6439 11.0251C15.4736 11.3444 15.5907 11.4082 15.9206 11.4082C16.2505 11.4082 16.5485 11.4082 16.2931 10.908C16.1855 10.6766 16.0931 10.4384 16.0164 10.195Z" fill="#EF4C23"/>
<path d="M20.5923 10.8654C20.5923 10.1098 20.5923 9.36489 20.5923 8.60931C20.5923 8.03464 20.8158 7.77923 21.2734 7.78987C21.731 7.80051 21.9438 8.05592 21.9545 8.61995C21.9545 9.82249 21.9545 11.0251 21.9545 12.2276C21.9545 12.5575 22.0396 12.6958 22.3801 12.6533C22.585 12.6266 22.7925 12.6266 22.9974 12.6533C23.0887 12.6498 23.1796 12.6659 23.2641 12.7005C23.3487 12.7352 23.4248 12.7876 23.4873 12.8541C23.5498 12.9207 23.5974 12.9999 23.6267 13.0865C23.656 13.173 23.6664 13.2648 23.6572 13.3557C23.6604 13.4422 23.6453 13.5284 23.613 13.6088C23.5807 13.6891 23.5318 13.7618 23.4696 13.822C23.4074 13.8822 23.3332 13.9287 23.2518 13.9583C23.1705 13.988 23.0838 14.0002 22.9974 13.9942C22.4546 13.9942 21.9332 13.9942 21.3479 13.9942C20.7626 13.9942 20.6029 13.76 20.6029 13.2279C20.5923 12.4404 20.5923 11.6529 20.5923 10.8654Z" fill="#EF4C23"/>
<path d="M10.9184 32.5434C10.9343 32.7986 10.9343 33.0545 10.9184 33.3097C10.9157 33.3954 10.8958 33.4797 10.8598 33.5576C10.8238 33.6355 10.7725 33.7053 10.709 33.7629C10.6454 33.8206 10.5709 33.8648 10.4898 33.8929C10.4088 33.9211 10.3229 33.9327 10.2373 33.9269C10.151 33.9349 10.0639 33.9239 9.98227 33.8948C9.90061 33.8657 9.82628 33.8191 9.76447 33.7583C9.70266 33.6976 9.65486 33.624 9.62441 33.5428C9.59395 33.4617 9.58157 33.3748 9.58814 33.2884C9.58814 32.7882 9.58814 32.2987 9.58814 31.7985C9.58669 31.717 9.60167 31.6361 9.63218 31.5606C9.66269 31.4851 9.7081 31.4164 9.76571 31.3588C9.82331 31.3012 9.89193 31.2558 9.96747 31.2253C10.043 31.1948 10.1239 31.1798 10.2054 31.1813C10.2918 31.1709 10.3794 31.1784 10.4628 31.2032C10.5462 31.228 10.6237 31.2695 10.6905 31.3254C10.7573 31.3812 10.8119 31.45 10.8511 31.5277C10.8903 31.6054 10.9132 31.6903 10.9184 31.7772C10.9343 32.0324 10.9343 32.2883 10.9184 32.5434Z" fill="#EF4C23"/>
</svg>
