<svg width="46" height="46" viewBox="0 0 46 46" fill="none" xmlns="http://www.w3.org/2000/svg">
<path d="M0 43.0151V2.36261C0.0638521 2.22426 0.138347 2.08592 0.191557 1.94757C0.402092 1.37301 0.785005 0.877538 1.28791 0.528932C1.79082 0.180327 2.38915 -0.00438116 3.00105 7.89085e-05C10.0957 7.89085e-05 17.1904 7.89085e-05 24.2851 7.89085e-05C24.7311 0.00247614 25.171 0.104277 25.5728 0.298062C26.1356 0.564043 26.6029 0.996736 26.9113 1.53742C27.2197 2.0781 27.3543 2.70059 27.2968 3.32039C27.2968 11.2877 27.2968 19.2621 27.2968 27.2437V27.9141C27.3985 27.9378 27.5016 27.9556 27.6054 27.9673C29.6806 27.9673 31.7558 27.9673 33.831 27.9673C34.0516 27.9801 34.2722 27.9429 34.4764 27.8586C34.6806 27.7742 34.8631 27.6449 35.0104 27.4802C35.1577 27.3156 35.266 27.1198 35.3271 26.9074C35.3882 26.6951 35.4006 26.4717 35.3634 26.254C35.1825 22.8279 34.5857 19.4366 33.5862 16.1547C33.5344 15.9818 33.4208 15.834 33.267 15.7396C32.8101 15.5522 32.4231 15.227 32.1599 14.8092C31.8966 14.3915 31.7703 13.902 31.7984 13.409C31.7984 13.2388 31.7984 13.0791 31.7984 12.8557C31.0428 12.8557 30.3298 12.8557 29.6167 12.8557C29.4729 12.8323 29.3354 12.7796 29.2127 12.7009C29.0901 12.6221 28.9849 12.5191 28.9037 12.398C28.8651 12.2673 28.8565 12.1295 28.8786 11.995C28.9007 11.8605 28.953 11.7327 29.0314 11.6212C29.2336 11.4426 29.4961 11.3475 29.7657 11.3551C30.4362 11.3551 31.1173 11.3551 31.8196 11.3551V10.8124C31.7918 10.4807 31.837 10.1469 31.952 9.83451C32.0671 9.52216 32.2492 9.23882 32.4856 9.00445C32.722 8.77009 33.0069 8.5904 33.3203 8.47803C33.6336 8.36566 33.9678 8.32335 34.2992 8.35407C35.4592 8.35407 36.6298 8.35407 37.7898 8.35407C38.0031 8.33797 38.2173 8.36829 38.4177 8.44297C38.6181 8.51765 38.8 8.6349 38.9507 8.78663C39.1014 8.93837 39.2174 9.12098 39.2908 9.32189C39.3641 9.5228 39.393 9.73722 39.3755 9.95038C39.3755 11.2381 39.3755 12.5257 39.3755 13.8134C39.4551 14.2199 39.3929 14.6413 39.1992 15.0074C39.0055 15.3734 38.6921 15.662 38.3113 15.8248L38.3964 16.0695C39.7358 19.0085 40.5464 22.1607 40.7909 25.3813C40.7909 25.6899 40.9611 25.7644 41.2272 25.8283C42.3076 26.0637 43.2878 26.6298 44.0317 27.448C44.7755 28.2662 45.2459 29.2958 45.3776 30.3937C45.4649 30.7374 45.4511 31.099 45.3378 31.435C45.2245 31.7711 45.0166 32.0673 44.7391 32.288C44.6888 32.3519 44.6525 32.4257 44.6323 32.5045C44.6122 32.5832 44.6086 32.6654 44.622 32.7456C44.7518 33.876 44.4559 35.0142 43.7919 35.9382C43.7281 36.034 43.6855 36.1297 43.5897 36.2787H44.2282C45.0477 36.2787 45.3882 36.5022 45.3989 37.0343C45.4095 37.5664 45.0583 37.8325 44.207 37.8325H27.2223V42.0893C27.2651 42.855 27.0309 43.6105 26.5625 44.2177C26.0903 44.7584 25.4738 45.1534 24.7853 45.3564H2.34125C1.96877 45.1648 1.57502 45.0052 1.22383 44.7817C0.645898 44.3309 0.219006 43.7146 0 43.0151ZM25.7218 27.9247V3.38424C25.7218 2.04335 25.1897 1.52189 23.8381 1.52189C23.0802 1.40201 22.3059 1.43457 21.5607 1.61767C20.8873 2.05975 20.3085 2.63131 19.858 3.29911C19.5191 3.71665 19.0855 4.04739 18.5932 4.26393C18.1009 4.48046 17.5641 4.57655 17.0272 4.54423C14.7286 4.54423 12.4299 4.54423 10.1312 4.54423C9.59949 4.56852 9.06935 4.46975 8.58205 4.25564C8.09475 4.04152 7.66345 3.71782 7.32171 3.30975C6.77897 2.69251 6.25751 1.905 5.58706 1.60703C4.79749 1.4509 3.98606 1.44008 3.19261 1.5751C2.96338 1.54553 2.73042 1.56893 2.51166 1.64351C2.29289 1.71809 2.09415 1.84186 1.93072 2.00529C1.76729 2.16872 1.64352 2.36747 1.56894 2.58624C1.49436 2.805 1.47096 3.03795 1.50052 3.26718V38.3858C1.46841 38.6179 1.49069 38.8543 1.56561 39.0762C1.64053 39.2982 1.76603 39.4997 1.93221 39.6649C2.09838 39.83 2.30067 39.9543 2.52311 40.0278C2.74554 40.1013 2.98203 40.1221 3.21389 40.0886H23.9552C24.2334 40.1193 24.5147 40.0764 24.771 39.9641C25.0274 39.8519 25.2497 39.6742 25.4157 39.4489C25.5817 39.2236 25.6856 38.9586 25.7169 38.6805C25.7482 38.4024 25.7058 38.121 25.5941 37.8644H5.74669C5.50736 37.8706 5.26811 37.8491 5.03368 37.8005C4.8703 37.7648 4.72578 37.6702 4.62765 37.5348C4.52953 37.3994 4.48465 37.2326 4.50157 37.0662C4.49765 36.892 4.55866 36.7225 4.67273 36.5907C4.78681 36.459 4.9458 36.3743 5.11881 36.3532C5.30621 36.3318 5.49544 36.3318 5.68284 36.3532H12.7704C12.3751 35.7824 12.0196 35.185 11.7062 34.5654C11.4823 33.919 11.3045 33.2575 11.1741 32.586H9.8758C9.66517 32.6028 9.45342 32.573 9.25564 32.4987C9.05785 32.4243 8.8789 32.3073 8.73154 32.1558C8.58417 32.0044 8.47203 31.8223 8.40309 31.6226C8.33415 31.4229 8.31012 31.2104 8.33271 31.0003C8.37681 30.0268 8.50139 29.0586 8.70517 28.1057C9.09956 26.193 10.0126 24.4258 11.3444 22.9975C11.0062 22.6898 10.7618 22.2927 10.6394 21.8521C10.517 21.4115 10.5216 20.9453 10.6527 20.5073H10.0567C8.25821 20.5073 6.44906 20.5073 4.65056 20.5073C4.06525 20.5073 3.75663 20.2093 3.75663 19.7304C3.75663 19.2515 4.06525 18.9854 4.65056 18.9642C4.95918 18.9642 5.25716 18.9642 5.52321 18.9642C5.39315 18.4362 5.3042 17.8989 5.25716 17.3572C5.25716 14.8989 5.25716 12.4513 5.25716 9.99295C5.24392 9.5794 5.31545 9.16751 5.46732 8.78263C5.6192 8.39775 5.84822 8.04801 6.14029 7.75494C6.43237 7.46187 6.78132 7.23166 7.16568 7.07847C7.55004 6.92528 7.96168 6.85236 8.37527 6.86419C10.8442 6.86419 13.3274 6.86419 15.8247 6.86419C16.2456 6.84881 16.6652 6.92129 17.0566 7.077C17.448 7.23271 17.8027 7.46825 18.098 7.7686C18.3934 8.06896 18.6229 8.42754 18.772 8.8215C18.9211 9.21546 18.9865 9.63616 18.9641 10.0568C18.9641 11.6957 18.9641 13.3452 18.9641 14.9947C18.9641 16.3143 19.1982 17.6552 18.6023 18.9855H21.7949C22.3024 18.9698 22.8007 19.1234 23.2113 19.4221C23.6219 19.7207 23.9215 20.1475 24.0629 20.6351C24.2043 21.1228 24.1795 21.6436 23.9924 22.1156C23.8053 22.5876 23.4665 22.984 23.0293 23.2423C22.9123 23.3168 22.7633 23.4551 22.7633 23.5615C22.5759 24.8876 22.9201 26.2341 23.7211 27.3075C23.9569 27.5865 24.2672 27.7927 24.6158 27.902C24.9644 28.0112 25.3369 28.0191 25.6898 27.9247H25.7218ZM43.8132 30.9577C43.8191 30.0305 43.4751 29.1352 42.8497 28.4506C42.2243 27.7661 41.3636 27.3426 40.4397 27.2649C39.4606 27.1798 39.3755 27.0627 39.2903 26.0837C39.1042 22.6674 38.2434 19.3217 36.7575 16.2398C36.6937 16.1015 36.5553 15.9099 36.4276 15.8993C36.0126 15.8993 35.5869 15.8993 35.108 15.8993C35.1825 16.2079 35.2464 16.4527 35.3102 16.6974C36.1893 19.8531 36.707 23.0984 36.8533 26.371C36.8829 26.7835 36.8263 27.1975 36.6872 27.5869C36.5481 27.9763 36.3294 28.3325 36.0451 28.6328C35.7608 28.9331 35.4172 29.1709 35.036 29.3312C34.6548 29.4914 34.2444 29.5706 33.831 29.5636C30.8831 29.5636 27.9353 29.5636 24.9768 29.5636C24.5447 29.5599 24.1184 29.4629 23.7271 29.2792C23.3359 29.0956 22.989 28.8296 22.7101 28.4994C21.962 27.7199 21.4653 26.7337 21.284 25.6686C21.167 24.9556 21.1563 24.2426 21.1031 23.5402C21.0216 23.535 20.9399 23.535 20.8584 23.5402C18.3575 23.5402 15.8566 23.5402 13.3451 23.5402C13.1279 23.553 12.9214 23.6393 12.7598 23.785C10.8776 25.7222 9.83061 28.3206 9.84387 31.0216L43.8132 30.9577ZM15.2075 8.25829C15.1708 8.32935 15.1422 8.40432 15.1223 8.48177C15.1223 9.40763 15.1223 10.3335 15.1223 11.2593C15.1361 11.4707 15.105 11.6826 15.031 11.8811C14.9571 12.0796 14.8419 12.2602 14.6931 12.411C14.5443 12.5618 14.3653 12.6794 14.1678 12.756C13.9703 12.8327 13.7588 12.8666 13.5473 12.8557C12.5789 12.8557 11.5998 12.8557 10.6207 12.8557C10.4139 12.866 10.2071 12.8335 10.0134 12.76C9.81978 12.6866 9.64342 12.5738 9.49547 12.4288C9.34752 12.2839 9.23118 12.1099 9.15378 11.9178C9.07637 11.7257 9.03958 11.5196 9.04572 11.3125C9.04572 10.6421 9.04572 9.97166 9.04572 9.30121V8.32214H8.35399C8.15545 8.31197 7.95693 8.34252 7.77064 8.4119C7.58434 8.48127 7.4142 8.58802 7.27067 8.72557C7.12714 8.86312 7.01326 9.02856 6.93602 9.21174C6.85878 9.39492 6.81982 9.59196 6.82154 9.79074C6.82154 12.3342 6.82154 14.867 6.82154 17.4104C6.81406 17.6053 6.84693 17.7996 6.91809 17.9812C6.98925 18.1627 7.09716 18.3276 7.23506 18.4655C7.37295 18.6034 7.53784 18.7113 7.7194 18.7825C7.90096 18.8536 8.09527 18.8865 8.29014 18.879C10.8229 18.879 13.3664 18.879 15.8992 18.879C16.098 18.8807 16.295 18.8418 16.4782 18.7645C16.6614 18.6873 16.8268 18.5734 16.9644 18.4299C17.1019 18.2864 17.2086 18.1162 17.278 17.9299C17.3474 17.7436 17.3779 17.5451 17.3678 17.3466C17.3678 14.8493 17.3678 12.3448 17.3678 9.83331C17.3819 9.55606 17.311 9.2811 17.1646 9.04526C17.0181 8.80942 16.8031 8.62395 16.5483 8.5137C16.1108 8.38476 15.6617 8.29922 15.2075 8.25829ZM1.50052 41.4188C1.50052 41.6849 1.50052 42.0467 1.50052 42.3979C1.49911 42.5884 1.53558 42.7772 1.60781 42.9534C1.68005 43.1297 1.7866 43.2898 1.92128 43.4245C2.05596 43.5591 2.21607 43.6657 2.39231 43.7379C2.56854 43.8102 2.75738 43.8466 2.94784 43.8452H24.2319C24.5899 43.855 24.9384 43.7287 25.207 43.4917C25.4756 43.2547 25.6443 42.9247 25.6792 42.5682C25.7054 42.1891 25.7054 41.8086 25.6792 41.4295C24.7746 41.4933 23.9126 41.5997 23.0506 41.6104H3.89498C3.12875 41.5997 2.35189 41.4827 1.50052 41.4188ZM27.2542 36.2574H36.5979C36.1773 35.7475 35.8659 35.1566 35.6829 34.5214C35.4998 33.8862 35.449 33.2203 35.5337 32.5647H27.2329L27.2542 36.2574ZM12.8449 32.5647C12.8507 33.2475 13.0458 33.9153 13.4084 34.494C13.771 35.0726 14.2869 35.5394 14.8988 35.8424C15.4677 36.1466 16.1054 36.2988 16.7504 36.2842C17.3953 36.2696 18.0255 36.0887 18.58 35.759C19.1345 35.4293 19.5944 34.962 19.9152 34.4024C20.2361 33.8428 20.407 33.2097 20.4114 32.5647H12.8449ZM37.13 32.5647C37.0871 33.0284 37.0871 33.4951 37.13 33.9588C37.2894 34.7156 37.7377 35.3803 38.3797 35.8116C39.0216 36.2429 39.8065 36.4067 40.5674 36.2681C41.307 36.1429 41.9732 35.7463 42.4357 35.1558C42.8983 34.5653 43.1238 33.8235 43.0683 33.0755C43.0683 32.6711 42.9086 32.5008 42.4723 32.5221C41.738 32.5221 41.0037 32.5221 40.2588 32.5221L37.13 32.5647ZM22.0396 32.5647C21.9016 33.2274 21.7239 33.8813 21.5075 34.5228C21.2225 35.1234 20.8953 35.703 20.5285 36.2574H25.6473V32.5647H22.0396ZM17.3465 21.9226H21.6033C22.2844 21.9226 22.6675 21.6885 22.6675 21.199C22.6675 20.7095 22.3376 20.4541 21.6033 20.4541H13.0897C12.6853 20.4541 12.3235 20.5179 12.1638 20.9436C12.0042 21.3693 12.366 21.9226 13.0046 21.9226H17.3465ZM19.2727 1.5751H7.92831C8.18516 2.04705 8.57291 2.43473 9.04491 2.69149C9.51691 2.94826 10.053 3.06318 10.5888 3.02242C12.6321 2.92309 14.6718 2.92309 16.708 3.02242C17.2269 3.03851 17.7403 2.91211 18.1925 2.65696C18.6446 2.4018 19.0182 2.02763 19.2727 1.5751ZM13.5473 8.35407H10.642V11.2913H13.5686L13.5473 8.35407ZM35.2677 9.86524C34.7781 9.86524 34.3524 9.86524 33.9374 9.86524C33.8507 9.86799 33.7655 9.88779 33.6865 9.92352C33.6075 9.95924 33.5363 10.0102 33.477 10.0734C33.4177 10.1367 33.3714 10.211 33.3409 10.2922C33.3103 10.3733 33.296 10.4597 33.2989 10.5463C33.2989 11.6105 33.2989 12.6002 33.2989 13.6219C33.293 13.7129 33.306 13.8042 33.3372 13.89C33.3684 13.9758 33.417 14.0541 33.48 14.1201C33.543 14.1861 33.6191 14.2384 33.7033 14.2735C33.7875 14.3086 33.8781 14.3259 33.9693 14.3242C34.3737 14.3242 34.7781 14.3242 35.2677 14.3242C34.9328 13.6287 34.759 12.8667 34.759 12.0947C34.759 11.3228 34.9328 10.5608 35.2677 9.86524ZM37.7473 9.74818C37.4811 9.83278 37.2297 9.95845 37.0023 10.1206C36.535 10.6723 36.2786 11.3718 36.2786 12.0947C36.2786 12.8177 36.535 13.5172 37.0023 14.0688C37.2335 14.2236 37.4888 14.3387 37.7579 14.4094L37.7473 9.74818Z" fill="#EF4C23"/>
<path d="M16.6552 26.4453C18.1388 26.4586 19.5662 27.0151 20.6672 28.0097C21.1248 28.4247 21.21 28.9036 20.8801 29.2548C20.5502 29.606 20.1458 29.5954 19.6669 29.1803C18.8399 28.4114 17.7525 27.9839 16.6233 27.9839C15.494 27.9839 14.4066 28.4114 13.5796 29.1803C13.0688 29.606 12.6538 29.6273 12.3239 29.2335C11.994 28.8398 12.0898 28.4354 12.558 28.0204C13.6803 27.0041 15.1411 26.4425 16.6552 26.4453Z" fill="#EF4C23"/>
</svg>
