<svg width="30" height="32" viewBox="0 0 30 32" fill="none" xmlns="http://www.w3.org/2000/svg">
<path d="M14.87 31.4044H15.4286L15.3932 31.0856C15.3964 31.0833 15.3996 31.081 15.4028 31.0787C17.1843 30.0586 18.9777 29.0448 20.7703 28.0315C21.2491 27.7609 21.7277 27.4903 22.2061 27.2197C22.2061 27.2197 22.2062 27.2196 22.2062 27.2196L26.3926 24.8617C26.5373 24.7821 26.6587 24.6659 26.7442 24.5245C26.8258 24.3897 26.8721 24.2366 26.8791 24.0795C27.0384 22.6069 27.2075 21.1044 27.3768 19.6211L27.3772 19.6174C27.5571 17.9279 27.737 16.2695 27.9267 14.6216L27.9267 14.6216L27.9273 14.6162C28.0291 13.6389 28.14 12.6585 28.251 11.6772C28.3032 11.2148 28.3556 10.7522 28.4069 10.2896L28.4072 10.2877C28.467 9.72898 28.5294 9.17008 28.5919 8.60989L28.5919 8.60979C28.6475 8.11209 28.7031 7.61338 28.7571 7.11443H28.9V6.61443V5.86443V5.4552L28.4988 5.3743C28.1435 5.30263 27.7975 5.19035 27.4678 5.03967L27.4477 5.03047L27.4268 5.02308C23.3915 3.59472 19.3264 2.14649 15.3312 0.708263C15.3298 0.707456 15.3276 0.706182 15.3245 0.704287C15.3176 0.700074 15.3103 0.695385 15.2962 0.68626L15.2958 0.686019C15.2834 0.678002 15.2651 0.666224 15.245 0.654063C15.148 0.595446 15.0233 0.536829 14.8442 0.509962C14.609 0.474691 14.4228 0.539808 14.2997 0.596494C14.2579 0.61571 14.2119 0.639761 14.1824 0.655213C14.1748 0.659186 14.1682 0.66259 14.1632 0.665198C14.1291 0.682698 14.1133 0.689501 14.1036 0.692935L14.1016 0.693645L3.70161 4.41365L3.6929 4.41676L3.68431 4.4202C2.79507 4.77589 1.90513 5.10229 1.00434 5.40925C0.903644 5.44111 0.704065 5.51456 0.585888 5.72135C0.528771 5.8213 0.511723 5.91684 0.505249 5.97833C0.499863 6.02948 0.499949 6.08159 0.499993 6.10836C0.499997 6.11056 0.5 6.11259 0.5 6.11443V6.14622L0.504025 6.17775C0.528059 6.36601 0.553273 6.55757 0.578674 6.75055C0.617653 7.04668 0.657073 7.34616 0.693345 7.64223C0.747186 8.13042 0.799835 8.61434 0.852171 9.09538C0.945192 9.95037 1.03722 10.7963 1.1332 11.6409L1.13323 11.6411L1.64295 16.1087L1.64322 16.1111L2.06273 19.9566C2.06277 19.9569 2.0628 19.9573 2.06284 19.9576C2.21271 21.3863 2.37251 22.8247 2.53218 24.2517C2.5575 24.5502 2.756 24.8473 3.07445 24.9249L8.33355 27.8795L8.3351 27.8804L14.03 31.1065V31.4044H14.53H14.87ZM14.2461 31.2173C14.2461 31.2173 14.2451 31.2169 14.2431 31.216C14.2452 31.2168 14.2461 31.2173 14.2461 31.2173ZM8.88382 22.3644H6.74101L10.6648 13.7721L10.6652 13.7714C12.0073 10.82 13.3521 7.86302 14.6998 4.90053L22.6502 22.3969L20.498 22.376L18.9964 18.4503C18.9457 18.2745 18.836 18.1209 18.6852 18.0157C18.5348 17.9109 18.3533 17.8612 18.1714 17.874C15.867 17.8346 13.5495 17.8346 11.2191 17.8739C11.0278 17.8538 10.8347 17.9015 10.6743 18.0099C10.5098 18.1211 10.3916 18.2878 10.3409 18.4786C9.85558 19.7981 9.37016 21.0805 8.88382 22.3644Z" stroke="#EF4C23"/>
<path d="M15.16 9.54824L14.7035 8.478L14.2412 9.54571L11.5912 15.6657L11.2887 16.3644H12.05H17.3101H18.0669L17.77 15.6682L15.16 9.54824Z" stroke="#EF4C23"/>
</svg>
