<svg width="47" height="47" viewBox="0 0 47 47" fill="none" xmlns="http://www.w3.org/2000/svg">
<path d="M0 46.02V9.26C0.12 9.26 0.17 9.15 0.24 9.08L9.13 0.240002C9.2 0.170002 9.31 0.12 9.31 0H37.13C37.13 0.85 37.13 1.71 37.13 2.56C37.13 2.9 37.21 2.98 37.54 2.97C39.54 2.97 41.5633 2.97 43.61 2.97C43.9359 2.93933 44.2645 2.98077 44.5726 3.0914C44.8807 3.20202 45.1606 3.37911 45.3926 3.61009C45.6245 3.84107 45.8027 4.12028 45.9146 4.42789C46.0265 4.73551 46.0693 5.06398 46.04 5.39C46.04 8.7 46.04 12.01 46.04 15.32C46.0604 15.6549 46.0095 15.9904 45.8906 16.3042C45.7717 16.618 45.5875 16.903 45.3502 17.1402C45.113 17.3775 44.828 17.5617 44.5142 17.6806C44.2004 17.7995 43.8649 17.8504 43.53 17.83C41.53 17.77 39.6 17.83 37.64 17.83C37.2 17.83 37.11 17.94 37.11 18.37C37.11 27.4433 37.11 36.52 37.11 45.6C37.11 45.97 37.02 46.06 36.65 46.06L0 46.02ZM18.55 44.51C24.08 44.51 29.61 44.51 35.14 44.51C35.52 44.51 35.63 44.44 35.63 44.03C35.63 35.45 35.63 26.8667 35.63 18.28C35.63 17.89 35.54 17.79 35.14 17.79C29.2067 17.79 23.2733 17.79 17.34 17.79C17.0029 17.8299 16.6612 17.793 16.3404 17.6822C16.0197 17.5713 15.7281 17.3893 15.4876 17.1498C15.2472 16.9103 15.064 16.6195 14.9518 16.2991C14.8397 15.9788 14.8014 15.6372 14.84 15.3C14.84 12.02 14.84 8.74 14.84 5.46C14.8241 5.12183 14.8793 4.78408 15.0021 4.46859C15.1249 4.1531 15.3126 3.86688 15.5529 3.62844C15.7932 3.39 16.0809 3.20463 16.3973 3.08432C16.7138 2.96401 17.052 2.91144 17.39 2.93C23.15 2.93 28.9 2.93 34.66 2.93C35.66 2.93 35.66 2.93 35.66 1.93C35.66 1.57 35.59 1.46 35.21 1.46C27.1033 1.46 18.9933 1.46 10.88 1.46C10.54 1.46 10.43 1.53 10.44 1.89C10.44 4.57 10.44 7.25 10.44 9.94C10.44 10.29 10.36 10.38 10 10.38C7.32 10.38 4.63 10.38 2 10.38C1.64 10.38 1.57 10.49 1.57 10.83C1.57 21.9033 1.57 32.97 1.57 44.03C1.57 44.41 1.65 44.5 2.03 44.5C7.49 44.5 13.02 44.51 18.55 44.51ZM30.48 4.51H17.36C16.56 4.51 16.36 4.72 16.36 5.51C16.36 8.76334 16.36 12.0133 16.36 15.26C16.36 16.14 16.55 16.34 17.44 16.34H43.44C44.29 16.34 44.5 16.13 44.5 15.34V5.59C44.5 4.73 44.32 4.59 43.5 4.59L30.48 4.51ZM8.9 2.7L2.71 8.9C4.66 8.9 6.71 8.9 8.71 8.9C8.97 8.9 8.94 8.76 8.94 8.59L8.9 2.7Z" fill="#EF4C23"/>
<path d="M18.54 43.05H3.42995C3.01995 43.05 2.94995 42.94 2.94995 42.56C2.94995 34.9467 2.94995 27.3367 2.94995 19.73C2.94995 19.36 3.03995 19.27 3.40995 19.27C13.5233 19.27 23.6266 19.27 33.72 19.27C34.1 19.27 34.18 19.38 34.18 19.74C34.18 27.3667 34.18 34.99 34.18 42.61C34.18 42.97 34.08 43.05 33.74 43.05H18.54ZM18.54 41.54H32.19C32.55 41.54 32.66 41.47 32.66 41.09C32.66 34.4767 32.66 27.87 32.66 21.27C32.66 20.84 32.5399 20.77 32.1399 20.77C23.0933 20.77 14.04 20.77 4.97995 20.77C4.57995 20.77 4.45995 20.86 4.46995 21.27C4.46995 27.8634 4.46995 34.4567 4.46995 41.05C4.46995 41.42 4.52995 41.54 4.93995 41.54C9.47995 41.53 14.03 41.54 18.57 41.54H18.54Z" fill="#EF4C23"/>
<path d="M4.47996 12.7C4.47996 13.42 4.47996 13.4201 3.73996 13.4201C2.99996 13.4201 2.95996 13.42 2.95996 12.62C2.95996 11.82 2.95996 11.9 3.67996 11.9C4.39996 11.9 4.47996 11.86 4.47996 12.7Z" fill="#EF4C23"/>
<path d="M5.93003 12.63C5.93003 11.86 5.93003 11.86 6.70003 11.86C7.47003 11.86 7.45003 11.86 7.45003 12.61C7.45003 13.36 7.45003 13.38 6.67003 13.38C5.89003 13.38 5.93003 13.38 5.93003 12.63Z" fill="#EF4C23"/>
<path d="M2.95996 15.5601C2.95996 14.8301 2.95996 14.8301 3.67996 14.8301C4.39996 14.8301 4.47996 14.8301 4.47996 15.6201C4.47996 16.4101 4.47996 16.3501 3.74996 16.3501C3.01996 16.3501 2.95996 16.3501 2.95996 15.5601Z" fill="#EF4C23"/>
<path d="M30.4399 14.8401C29.8131 14.8734 29.1847 14.8264 28.5699 14.7001C28.025 14.525 27.5505 14.1801 27.2158 13.7158C26.8811 13.2516 26.7038 12.6923 26.7099 12.1201C26.7099 11.8801 26.7999 11.8101 27.0199 11.8301C27.1528 11.8451 27.287 11.8451 27.4199 11.8301C27.8799 11.8301 28.3199 11.7201 28.2799 12.4701C28.2799 12.9201 28.7699 13.2801 29.2799 13.3001C30.0699 13.3001 30.8699 13.3001 31.6599 13.3001C31.8038 13.3015 31.9464 13.2718 32.0779 13.213C32.2093 13.1542 32.3265 13.0678 32.4215 12.9595C32.5164 12.8513 32.5869 12.7238 32.628 12.5858C32.6692 12.4479 32.68 12.3026 32.6599 12.1601C32.6328 11.8885 32.5068 11.6365 32.3057 11.452C32.1047 11.2676 31.8427 11.1636 31.5699 11.1601C30.7999 11.1601 30.0399 11.1601 29.2699 11.1601C28.6959 11.1434 28.1433 10.9387 27.697 10.5773C27.2507 10.216 26.9355 9.71803 26.7999 9.16006C26.6744 8.58597 26.7464 7.98635 27.0041 7.45824C27.2618 6.93013 27.6901 6.50443 28.2199 6.25006C29.6795 5.87498 31.2102 5.87498 32.6699 6.25006C33.1112 6.46272 33.4829 6.79665 33.7415 7.21281C34 7.62897 34.1348 8.11015 34.1299 8.60006C34.1299 8.86006 34.0499 8.93006 33.8099 8.91006C33.6304 8.89008 33.4493 8.89008 33.2699 8.91006C32.8399 8.91006 32.5399 8.91006 32.5799 8.34006C32.6199 7.77006 32.0799 7.47006 31.5799 7.45006H29.2599C28.9875 7.47492 28.7342 7.60034 28.5493 7.80187C28.3644 8.0034 28.2612 8.26657 28.2599 8.54006C28.268 8.8105 28.3737 9.06886 28.5576 9.26739C28.7414 9.46592 28.9908 9.59119 29.2599 9.62006C30.1507 9.60096 31.0418 9.62766 31.9299 9.70006C32.564 9.79368 33.1405 10.12 33.5472 10.6154C33.9539 11.1108 34.1616 11.7399 34.1299 12.3801C34.0968 13.0364 33.8145 13.6553 33.3406 14.1106C32.8667 14.5659 32.237 14.8232 31.5799 14.8301C31.2199 14.8501 30.8299 14.8401 30.4399 14.8401Z" fill="#EF4C23"/>
<path d="M17.81 11.8601C17.86 11.0301 17.73 10.0101 17.88 8.99006C18.0408 8.13114 18.4964 7.35535 19.1683 6.79665C19.8402 6.23796 20.6861 5.93145 21.56 5.93005C22.4328 5.93975 23.2743 6.2569 23.9364 6.82573C24.5985 7.39456 25.0389 8.17864 25.18 9.04005C25.2816 10.5011 25.3083 11.9663 25.26 13.4301C25.26 13.7901 25.26 14.1501 25.26 14.5101C25.26 14.8701 25.16 14.8701 24.9 14.8501C24.64 14.8301 24.05 14.9601 23.82 14.7801C23.59 14.6001 23.76 14.0801 23.74 13.7101C23.72 13.3401 23.85 12.9201 23.67 12.7101C23.49 12.5001 23 12.6401 22.67 12.6401C21.67 12.6401 20.67 12.6401 19.67 12.6401C19.42 12.6401 19.33 12.6401 19.34 12.9601C19.34 13.4901 19.34 14.0301 19.34 14.5701C19.34 14.7801 19.29 14.8501 19.07 14.8601C17.82 14.9301 17.82 14.9401 17.82 13.7101L17.81 11.8601ZM21.52 11.1301C22.16 11.1301 22.81 11.1301 23.45 11.1301C23.69 11.1301 23.76 11.0501 23.75 10.8201C23.75 10.4201 23.75 10.0101 23.75 9.61005C23.7432 9.09041 23.5543 8.58963 23.2163 8.19492C22.8782 7.80022 22.4124 7.53662 21.9 7.45005C21.3621 7.36425 20.8115 7.48012 20.3537 7.77541C19.896 8.0707 19.5635 8.52462 19.42 9.05005C19.3349 9.62589 19.3048 10.2085 19.33 10.7901C19.33 11.0801 19.42 11.1401 19.69 11.1301C20.29 11.1201 20.9 11.1301 21.52 11.1301Z" fill="#EF4C23"/>
<path d="M35.6199 10.36C35.6199 9.02001 35.6199 7.69001 35.6199 6.36001C35.6199 6.04001 35.6199 5.92002 36.0199 5.92002C37.4699 5.92002 38.9299 5.92002 40.3799 5.92002C40.7288 5.90793 41.0766 5.96625 41.4025 6.09149C41.7284 6.21673 42.0258 6.40632 42.2768 6.64897C42.5278 6.89162 42.7275 7.18234 42.8637 7.5038C43 7.82526 43.0701 8.17087 43.0699 8.52001C43.0713 8.86826 43.0028 9.21326 42.8684 9.53452C42.734 9.85578 42.5364 10.1468 42.2874 10.3902C42.0383 10.6336 41.7429 10.8246 41.4187 10.9517C41.0945 11.0787 40.748 11.1394 40.3999 11.13C39.3999 11.13 38.3999 11.13 37.4799 11.13C37.1999 11.13 37.1199 11.19 37.1299 11.47C37.1299 12.47 37.1299 13.47 37.1299 14.47C37.1299 14.76 37.1299 14.88 36.7599 14.87C35.6099 14.87 35.6099 14.87 35.6099 13.75L35.6199 10.36ZM38.9499 9.63001H40.4799C40.7646 9.63003 41.0378 9.51761 41.24 9.31723C41.4423 9.11685 41.5572 8.84471 41.5599 8.56001C41.5639 8.41783 41.5395 8.27628 41.4881 8.14364C41.4368 8.011 41.3595 7.88993 41.2608 7.7875C41.1621 7.68508 41.0439 7.60337 40.9133 7.54714C40.7826 7.49091 40.6421 7.46129 40.4999 7.46001H37.4099C37.1899 7.46001 37.1299 7.52002 37.1299 7.74002C37.1299 8.27002 37.1299 8.81002 37.1299 9.35002C37.1299 9.58002 37.1299 9.66001 37.4299 9.65001C37.9299 9.61001 38.4399 9.63001 38.9499 9.63001Z" fill="#EF4C23"/>
<path d="M25.5899 31.92C25.2596 31.857 24.9203 31.857 24.5899 31.92C24.2799 32.07 24.3999 32.53 24.2899 32.85C24.1035 33.431 23.8304 33.9806 23.4799 34.48C23.2799 34.74 23.3399 34.87 23.5499 35.07C23.9299 35.41 24.2699 35.79 24.6399 36.14C24.8499 36.33 24.8899 36.46 24.6399 36.66C24.3899 36.86 24.1099 37.34 23.8199 37.37C23.5299 37.4 23.2899 36.91 23.0199 36.66C22.7499 36.41 22.5499 36.05 22.2399 35.95C21.9299 35.85 21.6699 36.24 21.3799 36.39C20.8386 36.6781 20.2545 36.8774 19.6499 36.98C19.3599 36.98 19.3199 37.14 19.3299 37.39C19.3299 37.91 19.3299 38.39 19.3299 38.96C19.3299 39.23 19.2799 39.35 18.9699 39.35C17.8099 39.35 17.8099 39.35 17.8099 38.2C17.881 37.8469 17.881 37.4831 17.8099 37.13C17.6599 36.84 17.1899 36.95 16.8799 36.84C16.2941 36.6578 15.7406 36.3845 15.2399 36.03C15.0199 35.86 14.8999 35.9 14.7199 36.09C14.3699 36.47 13.9799 36.82 13.6199 37.21C13.4299 37.41 13.2999 37.47 13.0999 37.21C12.8999 36.95 12.4099 36.69 12.3799 36.4C12.3499 36.11 12.8399 35.86 13.0899 35.59C13.3399 35.32 13.7099 35.12 13.8199 34.81C13.9299 34.5 13.5099 34.25 13.3599 33.95C13.0827 33.42 12.8904 32.8497 12.7899 32.26C12.7899 31.94 12.6099 31.86 12.2999 31.88C11.7699 31.88 11.2499 31.88 10.7199 31.88C10.4899 31.88 10.4199 31.82 10.4099 31.58C10.4099 30.37 10.4099 30.37 11.5699 30.37C11.9002 30.4332 12.2396 30.4332 12.5699 30.37C12.8999 30.23 12.7699 29.76 12.8799 29.45C13.0725 28.8715 13.3451 28.3229 13.6899 27.82C13.8699 27.59 13.8299 27.46 13.6299 27.28C13.2299 26.9 12.8499 26.49 12.4499 26.11C12.2999 25.96 12.2999 25.88 12.4499 25.72C13.2899 24.8 13.2799 24.8 14.1699 25.72C14.4099 25.96 14.6199 26.31 14.9199 26.41C15.2199 26.51 15.4599 26.11 15.7499 25.97C16.3042 25.6769 16.9017 25.4744 17.5199 25.37C17.7699 25.37 17.8399 25.23 17.8299 24.98C17.8299 24.43 17.8299 23.88 17.8299 23.32C17.8299 23.09 17.8999 23.03 18.1299 23.02C19.3499 23.02 19.3499 23.02 19.3599 24.19C19.2914 24.5198 19.2914 24.8602 19.3599 25.19C19.4899 25.48 19.9499 25.37 20.2499 25.48C20.8479 25.6674 21.4143 25.9439 21.9299 26.3C22.1199 26.45 22.2399 26.44 22.4099 26.3C22.7999 25.88 23.2199 25.5 23.6099 25.09C23.7599 24.92 23.8599 24.92 23.9999 25.09C24.1399 25.26 24.7099 25.62 24.7599 25.93C24.8099 26.24 24.3099 26.49 24.0599 26.77C23.8099 27.05 23.4299 27.25 23.3399 27.56C23.2499 27.87 23.6599 28.11 23.7999 28.42C24.0786 28.9459 24.2711 29.5131 24.3699 30.1C24.3699 30.36 24.5199 30.48 24.8099 30.46C25.3299 30.46 25.8599 30.46 26.3799 30.46C26.6699 30.46 26.7299 30.54 26.7399 30.81C26.7599 31.91 26.7699 31.91 25.5899 31.92ZM18.5099 26.7C17.9159 26.7115 17.3302 26.8414 16.787 27.0819C16.2438 27.3224 15.7539 27.6688 15.3461 28.1008C14.9383 28.5328 14.6207 29.0418 14.4119 29.598C14.2031 30.1541 14.1072 30.7464 14.1299 31.34C14.158 31.9312 14.303 32.511 14.5565 33.0459C14.81 33.5808 15.1669 34.0601 15.6067 34.4562C16.0465 34.8523 16.5605 35.1573 17.1189 35.3537C17.6772 35.55 18.269 35.6337 18.8599 35.6C19.9936 35.5073 21.0512 34.9924 21.8234 34.1573C22.5956 33.3221 23.0262 32.2275 23.0299 31.09C22.9986 29.9131 22.5083 28.795 21.6637 27.9748C20.8191 27.1545 19.6873 26.697 18.5099 26.7Z" fill="#EF4C23"/>
<path d="M26.6 22.7001C26.74 22.7501 26.76 22.8901 26.83 23.0001C28.23 25.5701 29.62 28.1401 31.04 30.7001C31.1402 30.8476 31.1937 31.0218 31.1937 31.2001C31.1937 31.3784 31.1402 31.5526 31.04 31.7001C29.62 34.2401 28.24 36.8001 26.86 39.3501C26.7 39.6301 26.57 39.7701 26.26 39.5401C25.95 39.3101 25.47 39.2701 25.4 38.9701C25.33 38.6701 25.66 38.3801 25.83 38.0801C27.0166 35.8934 28.21 33.7067 29.41 31.5201C29.474 31.4256 29.5083 31.3142 29.5083 31.2001C29.5083 31.086 29.474 30.9745 29.41 30.8801C28.13 28.5801 26.93 26.3001 25.68 24.0201C25.33 23.3601 25.33 23.3601 26 23.0201L26.6 22.7001Z" fill="#EF4C23"/>
<path d="M10.5301 22.7001C10.8115 22.8692 11.1019 23.0227 11.4001 23.1601C11.7701 23.3101 11.7701 23.4701 11.5901 23.8101C10.3001 26.1301 9.04008 28.4701 7.75008 30.8101C7.66752 30.9346 7.62348 31.0807 7.62348 31.2301C7.62348 31.3795 7.66752 31.5256 7.75008 31.6501C9.05008 33.9901 10.3101 36.3401 11.6101 38.6501C11.7701 38.9401 11.7601 39.0801 11.4401 39.2001C11.1201 39.3201 10.7901 39.7201 10.5001 39.6401C10.2101 39.5601 10.1301 39.0501 9.96008 38.7001C8.64008 36.2901 7.33008 33.8801 5.96008 31.4801C5.89172 31.378 5.85522 31.2579 5.85522 31.1351C5.85522 31.0122 5.89172 30.8921 5.96008 30.7901C7.40008 28.1801 8.82008 25.5601 10.2601 22.9401C10.3601 22.8701 10.3801 22.7001 10.5301 22.7001Z" fill="#EF4C23"/>
<path d="M18.5901 28.2101C19.3857 28.2101 20.1488 28.5262 20.7114 29.0888C21.274 29.6514 21.5901 30.4144 21.5901 31.2101C21.5901 32.0057 21.274 32.7688 20.7114 33.3314C20.1488 33.894 19.3857 34.2101 18.5901 34.2101C17.7944 34.2101 17.0314 33.894 16.4688 33.3314C15.9062 32.7688 15.5901 32.0057 15.5901 31.2101C15.5901 30.4144 15.9062 29.6514 16.4688 29.0888C17.0314 28.5262 17.7944 28.2101 18.5901 28.2101ZM18.5901 32.6301C18.7852 32.6341 18.9791 32.599 19.1604 32.5268C19.3416 32.4546 19.5066 32.3468 19.6455 32.2097C19.7844 32.0727 19.8944 31.9092 19.9691 31.7289C20.0437 31.5486 20.0815 31.3552 20.0801 31.1601C20.0775 30.9657 20.0366 30.7738 19.9598 30.5952C19.883 30.4166 19.7718 30.255 19.6325 30.1194C19.4932 29.9838 19.3286 29.877 19.148 29.8051C18.9674 29.7331 18.7745 29.6974 18.5801 29.7001C18.1936 29.7105 17.8263 29.8706 17.5557 30.1468C17.2852 30.423 17.1325 30.7935 17.1301 31.1801C17.135 31.558 17.2853 31.9194 17.5497 32.1895C17.8141 32.4595 18.1724 32.6173 18.5501 32.6301H18.5901Z" fill="#EF4C23"/>
</svg>
