<svg width="59" height="29" viewBox="0 0 59 29" fill="none" xmlns="http://www.w3.org/2000/svg">
<path d="M46.29 28.53H45.5996C45.2544 28.53 44.9092 28.53 44.5641 28.3919C43.3257 28.1717 42.1487 27.6892 41.1121 26.9766C40.0047 26.2115 39.0504 25.2456 38.2988 24.1288C37.4509 22.8951 36.8259 21.5224 36.4521 20.0728C36.4521 19.883 36.4521 19.7104 36.3313 19.5378C35.9754 20.4335 35.5483 21.2993 35.0541 22.1267C34.4344 23.1724 33.6992 24.145 32.8621 25.0263C32.0642 25.8662 31.145 26.5818 30.1351 27.1492C28.9227 27.8032 27.5894 28.2026 26.2172 28.3229C25.5127 28.4177 24.7987 28.4177 24.0943 28.3229C22.9737 28.1462 21.9032 27.7345 20.953 27.1147C19.7434 26.3218 18.7047 25.2949 17.8981 24.0943C17.19 23.0346 16.6541 21.8696 16.3102 20.6424C15.9116 19.2667 15.6912 17.8456 15.6543 16.4138C15.6206 15.2587 15.6957 14.1029 15.8787 12.9619C16.2839 10.5005 17.1948 8.14983 18.5539 6.0581C19.2781 4.88895 20.161 3.82597 21.1774 2.8996C23.0717 1.15999 25.5129 0.134695 28.0812 0H28.7543H29.3929C30.3262 0.113826 31.2287 0.406852 32.0509 0.862976C33.3437 1.57015 34.4591 2.5616 35.3129 3.76258C35.975 4.68486 36.5037 5.69586 36.8836 6.76574L37.0907 7.35256C37.1132 7.39624 37.1262 7.44422 37.1287 7.49331C37.1313 7.54241 37.1233 7.59147 37.1053 7.63723C37.0873 7.68298 37.0598 7.72437 37.0245 7.75862C36.9892 7.79287 36.9471 7.81919 36.9008 7.83583H36.711L34.4672 8.59524L31.7575 9.71712C31.4986 9.71712 31.4295 9.71712 31.2569 9.56178L31.1016 9.37192L30.8945 9.044C30.741 8.82172 30.5677 8.61376 30.3767 8.42265C29.8913 7.94982 29.2994 7.60058 28.6508 7.40434C27.9582 7.1976 27.2204 7.1976 26.5278 7.40434C26.0036 7.55882 25.508 7.79785 25.0608 8.11198C23.7824 8.99 22.8012 10.236 22.2475 11.6847C21.9111 12.5414 21.7017 13.4427 21.6261 14.3599C21.5657 15.049 21.5657 15.742 21.6261 16.4311C21.7071 17.1952 21.9111 17.9413 22.2302 18.6403C22.5155 19.2851 22.9195 19.8706 23.4211 20.3662C24.0893 20.9887 24.9459 21.3707 25.8554 21.452C26.765 21.5332 27.6757 21.3091 28.4436 20.815C29.2815 20.2865 29.98 19.5643 30.4803 18.7093C30.7046 18.3641 30.8772 18.0017 31.0844 17.6392C31.2915 17.2768 31.0844 17.5012 31.0844 17.5012H25.4923C25.3817 17.4978 25.2752 17.4591 25.1882 17.3908C25.1012 17.3224 25.0384 17.2281 25.009 17.1215C24.9998 17.0469 24.9998 16.9716 25.009 16.8971C25.0125 16.7156 25.0415 16.5354 25.0953 16.362C25.5095 15.1539 25.9238 13.9457 26.3898 12.7375C26.3898 12.5649 26.5278 12.3923 26.6141 12.2197C26.6698 12.0763 26.7706 11.9549 26.9014 11.874C27.0322 11.793 27.1859 11.7568 27.339 11.771H36.314C36.4693 11.771 36.4521 11.771 36.4866 11.6329C36.8899 10.0392 37.5175 8.51088 38.3506 7.09367C38.9352 6.04616 39.6357 5.06773 40.439 4.17681C41.2805 3.25153 42.2726 2.47539 43.3731 1.88129C44.7335 1.1645 46.2133 0.702405 47.7398 0.517785C48.4852 0.431455 49.2381 0.431455 49.9835 0.517785C50.7505 0.603186 51.5006 0.80091 52.21 1.10461C53.1106 1.53489 53.9331 2.11239 54.6436 2.8133C56.0806 4.13075 57.1662 5.78586 57.8021 7.62871C58.3055 9.114 58.5734 10.6689 58.596 12.237C58.5875 12.3461 58.5875 12.4558 58.596 12.5649C58.5875 12.6683 58.5875 12.7722 58.596 12.8756V13.4452C58.5788 13.6404 58.5788 13.8368 58.596 14.032C58.596 14.2909 58.596 14.567 58.596 14.8259C58.5285 15.61 58.4074 16.3885 58.2336 17.156C57.5833 20.1102 56.1115 22.8205 53.9878 24.9745C52.7901 26.2096 51.3426 27.1746 49.7419 27.8051C49.1866 28.0385 48.608 28.2121 48.016 28.3229C47.5154 28.4092 47.0149 28.461 46.4971 28.53C46.4287 28.5169 46.3584 28.5169 46.29 28.53ZM52.9177 12.9964C52.895 12.6371 52.8489 12.2796 52.7796 11.9263C52.6358 11.1519 52.3677 10.4059 51.9856 9.71712C51.5989 9.01981 51.048 8.42736 50.3805 7.99116C49.9627 7.70013 49.4911 7.49529 48.9933 7.38861C48.4954 7.28193 47.9813 7.27554 47.4809 7.36982C46.8273 7.50984 46.1988 7.74845 45.6169 8.07746C44.6563 8.63197 43.8586 9.42964 43.3041 10.3902C42.8584 11.1323 42.5212 11.9344 42.303 12.7721C42.1071 13.4185 41.9798 14.0838 41.9233 14.7569C41.8689 15.4496 41.9095 16.1464 42.0442 16.828C42.1902 17.685 42.5008 18.5056 42.9589 19.2444C43.5134 20.1749 44.3643 20.8921 45.3752 21.281C46.0513 21.541 46.7867 21.6068 47.4982 21.4709C48.0546 21.3684 48.5871 21.1635 49.0688 20.8668C50.2704 20.1373 51.2493 19.0927 51.8994 17.8464C52.2598 17.1618 52.5213 16.4296 52.676 15.6717C52.8837 14.7901 52.965 13.8836 52.9177 12.9792V12.9964Z" fill="#EF4C23"/>
<path d="M58.648 12.2024V12.8237C58.6395 12.7204 58.6395 12.6164 58.648 12.5131C58.6403 12.4097 58.6403 12.3058 58.648 12.2024Z" fill="#EF4C23"/>
<path d="M58.665 13.9975C58.6478 13.8022 58.6478 13.6059 58.665 13.4106V13.9975Z" fill="#EF4C23"/>
<path d="M0.034668 12.0816V11.978V11.8054C0.207263 11.5293 0.37986 11.2531 0.535196 10.9597C0.573263 10.8936 0.628867 10.8392 0.695871 10.8027C0.762876 10.7661 0.838678 10.7488 0.914908 10.7526H13.8941C13.9155 10.7519 13.9368 10.7562 13.9563 10.7652C13.9758 10.7742 13.9929 10.7876 14.0063 10.8043C14.0197 10.8211 14.029 10.8407 14.0335 10.8617C14.038 10.8827 14.0375 10.9044 14.0321 10.9252C14.0392 10.9652 14.0392 11.006 14.0321 11.046L13.825 11.8227C13.825 12.0298 13.7042 12.0816 13.4798 12.0816H0.155484C0.136663 12.0907 0.116 12.0955 0.0950695 12.0955C0.0741389 12.0955 0.0534891 12.0907 0.034668 12.0816Z" fill="#EF4C23"/>
<path d="M9.61368 8.73319H4.43583C4.33227 8.73319 4.31501 8.73318 4.43583 8.57785L5.00538 7.64583C5.03457 7.59068 5.07635 7.54319 5.12733 7.5072C5.17831 7.47122 5.23706 7.44775 5.2988 7.43872H15.5164C15.5342 7.4405 15.5513 7.44619 15.5666 7.45539C15.5819 7.46459 15.595 7.47707 15.6049 7.49192C15.6148 7.50677 15.6213 7.52363 15.6239 7.54129C15.6265 7.55895 15.6252 7.57698 15.62 7.59406C15.6275 7.62817 15.6275 7.6635 15.62 7.69762L15.1712 8.59511C15.1377 8.66126 15.0854 8.71614 15.021 8.75294C14.9566 8.78975 14.8828 8.80689 14.8088 8.80222H9.63093L9.61368 8.73319Z" fill="#EF4C23"/>
<path d="M10.1659 15.5336H7.04196C7.02602 15.5315 7.01068 15.5262 6.9968 15.5181C6.98293 15.51 6.97082 15.4992 6.96117 15.4863C6.95153 15.4735 6.94455 15.4588 6.94064 15.4432C6.93673 15.4276 6.93597 15.4114 6.9384 15.3955L7.31812 14.5153C7.34024 14.4601 7.36923 14.4079 7.40441 14.36C7.43975 14.322 7.4825 14.2918 7.52999 14.271C7.57748 14.2502 7.62873 14.2394 7.68057 14.2391H13.3417C13.3755 14.2389 13.4082 14.251 13.4337 14.2733C13.4591 14.2956 13.4755 14.3264 13.4798 14.36C13.4976 14.4395 13.4976 14.522 13.4798 14.6016V15.3092V15.4301C13.4712 15.4911 13.4396 15.5465 13.3914 15.585C13.3433 15.6235 13.2823 15.6422 13.2209 15.6372H10.1659V15.5336Z" fill="#EF4C23"/>
</svg>
