<svg width="60" height="29" viewBox="0 0 60 29" fill="none" xmlns="http://www.w3.org/2000/svg">
<path d="M37.9521 20.009C38.3131 21.3795 38.908 22.6774 39.7109 23.8456L39.7137 23.8496L39.7136 23.8497C40.4302 24.9144 41.34 25.8354 42.3959 26.565C43.3736 27.2369 44.4836 27.692 45.6516 27.8996L45.7021 27.9086L45.7498 27.9277C45.9923 28.0247 46.2422 28.03 46.5996 28.03H47.2503C47.3326 28.0187 47.416 28.0172 47.4986 28.0255C47.642 28.0067 47.7811 27.9893 47.9173 27.9724C48.2641 27.9293 48.5925 27.8884 48.9275 27.8307C49.4835 27.7265 50.0267 27.5634 50.5481 27.3442L50.5586 27.3398L50.5587 27.3399C52.0931 26.7355 53.4808 25.8104 54.6288 24.6265L54.6317 24.6235C56.6893 22.5365 58.1152 19.9107 58.7453 17.0485L58.7459 17.0455C58.9131 16.3072 59.0301 15.5584 59.096 14.8043V14.0533C59.0788 13.8438 59.0788 13.6333 59.096 13.4239V12.8951C59.0879 12.7849 59.0875 12.6743 59.0947 12.5641C59.0876 12.4503 59.0879 12.3362 59.0958 12.2224C59.0717 10.7144 58.8131 9.21932 58.3291 7.79081C57.7203 6.02698 56.6811 4.44285 55.3057 3.18185L55.299 3.17568L55.2925 3.16926C54.624 2.50981 53.8505 1.96606 53.0038 1.56022C52.3423 1.2781 51.643 1.09431 50.9282 1.01471L50.926 1.01447C50.2192 0.93261 49.5054 0.932562 48.7986 1.01432C47.3339 1.19162 45.9138 1.63495 44.6084 2.32248C43.5587 2.88944 42.6125 3.62984 41.8097 4.51237C41.0318 5.37525 40.3534 6.32285 39.7872 7.33733L39.7818 7.34712L39.7817 7.34705C38.9727 8.72312 38.3633 10.2071 37.9716 11.7545C37.9715 11.7548 37.9714 11.7552 37.9713 11.7556L37.9521 20.009ZM37.9521 20.009C37.9517 19.8239 37.9387 19.5336 37.7409 19.2511L37.209 18.4912L36.8666 19.3532C36.5206 20.2241 36.1054 21.0658 35.6248 21.8703L35.6239 21.8718C35.0234 22.8852 34.3108 23.8279 33.4996 24.6819C32.7371 25.4845 31.8588 26.1685 30.8939 26.7112M37.9521 20.009L30.8939 26.7112M30.8939 26.7112C29.7425 27.3316 28.4765 27.7105 27.1735 27.8248L27.162 27.8258L27.1505 27.8274C26.4921 27.916 25.8249 27.9162 25.1666 27.8281C24.1179 27.662 23.1161 27.2763 22.2267 26.6963C21.0733 25.9401 20.0828 24.9609 19.3135 23.8161C18.6349 22.8004 18.1213 21.6837 17.7917 20.5075L17.7917 20.5075L17.7905 20.5033C17.4038 19.1687 17.1899 17.79 17.1542 16.401L17.1541 16.3992C17.1213 15.2758 17.1943 14.1518 17.3722 13.0421C17.7663 10.6493 18.6519 8.36404 19.9732 6.33052L19.9733 6.33059L19.979 6.32137C20.6788 5.19156 21.532 4.16435 22.5142 3.26915L22.5156 3.26787C24.3211 1.6098 26.6469 0.631365 29.0945 0.5H29.7543H30.362C31.2209 0.608574 32.0512 0.880137 32.8083 1.3002L32.8109 1.30164C34.0373 1.97249 35.0954 2.91301 35.9054 4.05231L35.9068 4.05415C36.5414 4.93826 37.0483 5.90742 37.4124 6.93302L37.5624 7.35823L37.5507 7.36222L35.3069 8.12164L35.2912 8.12694L35.276 8.13327L32.6592 9.21664C32.6444 9.21638 32.632 9.21599 32.6209 9.2154L30.8939 26.7112ZM54.4159 12.953L54.417 12.953C54.4667 13.9022 54.3817 14.8537 54.1644 15.779C54.0001 16.5804 53.7233 17.3545 53.3422 18.0784C52.6502 19.405 51.6083 20.5168 50.3294 21.2935M54.4159 12.953L52.8994 17.8464C52.2493 19.0927 51.2704 20.1373 50.0688 20.8668C49.5871 21.1635 49.0546 21.3684 48.4982 21.4709M54.4159 12.953C54.3917 12.5767 54.3432 12.2024 54.2707 11.8324L54.4159 12.953ZM50.3294 21.2935C50.329 21.2937 50.3286 21.2939 50.3283 21.2942L50.0689 20.867L50.3311 21.2925C50.3305 21.2928 50.33 21.2931 50.3294 21.2935ZM50.3294 21.2935C49.796 21.6218 49.2063 21.8486 48.5903 21.9623M48.5903 21.9623C48.5909 21.9622 48.5914 21.9621 48.592 21.962L48.4982 21.4709M48.5903 21.9623C48.5898 21.9624 48.5893 21.9625 48.5887 21.9626L48.4982 21.4709M48.5903 21.9623C47.7877 22.1153 46.9583 22.041 46.1957 21.7477L46.1957 21.7477C45.0816 21.319 44.1435 20.529 43.5317 19.5041C43.042 18.7133 42.7095 17.8353 42.5524 16.9185C42.4099 16.1941 42.367 15.4537 42.4249 14.7177L42.4251 14.7151C42.4842 14.0102 42.6172 13.3135 42.8217 12.6365C43.0516 11.7574 43.4057 10.9156 43.8733 10.1365C44.4716 9.10153 45.3315 8.2421 46.3669 7.64443L46.3708 7.6422L46.3708 7.64222C46.9968 7.28826 47.673 7.03155 48.3762 6.88091L48.3883 6.87831L48.3883 6.87847C48.954 6.77188 49.5352 6.7791 50.098 6.89971C50.6584 7.01979 51.1894 7.24989 51.6602 7.57663C52.3929 8.05693 52.9979 8.70829 53.4229 9.47457L48.4982 21.4709M32.6207 9.21538C32.6196 9.2145 32.6185 9.21357 32.6173 9.21259L32.508 9.07903L32.3172 8.77699L32.3117 8.76829L32.3059 8.75982C32.1352 8.51278 31.9426 8.28165 31.7304 8.06925L31.7305 8.06921L31.7256 8.06448C31.1828 7.53575 30.5209 7.14521 29.7956 6.92576L29.7938 6.92523C29.0082 6.69073 28.1713 6.69064 27.3857 6.92496C26.8104 7.09459 26.2665 7.35681 25.7755 7.70132C24.4152 8.63625 23.371 9.96239 22.7813 11.5041C22.4277 12.4051 22.2076 13.3529 22.1279 14.3176C22.0651 15.0353 22.0651 15.7571 22.1281 16.4747L22.128 16.4747L22.1289 16.4838C22.2155 17.3005 22.4334 18.098 22.7742 18.8453C23.0848 19.5464 23.5242 20.183 24.0697 20.7219L24.0749 20.7271L24.0803 20.7321C24.8299 21.4303 25.7907 21.8588 26.8109 21.95C27.8305 22.0411 28.8513 21.7901 29.7123 21.2367C30.6138 20.6676 31.366 19.891 31.9059 18.9719C32.0566 18.7388 32.197 18.478 32.3262 18.2379C32.3934 18.1132 32.4575 17.994 32.5185 17.8873C32.5695 17.7979 32.6199 17.7036 32.6473 17.619C32.6551 17.595 32.6668 17.5549 32.6726 17.5056C32.6771 17.4681 32.6875 17.3575 32.6323 17.2332C32.5576 17.0651 32.4013 16.9561 32.2283 16.9359C32.1 16.9209 32.0022 16.9592 31.9697 16.9727C31.9485 16.9816 31.929 16.9914 31.9116 17.0012H26.5052C26.5042 17.001 26.5032 17.0007 26.5022 17.0004C26.5025 16.9864 26.5035 16.9723 26.5052 16.9584L26.5084 16.9327L26.5089 16.9067C26.5115 16.7744 26.5323 16.6431 26.5709 16.5166C26.9847 15.3096 27.3952 14.1129 27.8563 12.9175L27.8898 12.8306V12.7588L32.6207 9.21538Z" stroke="#EF4C23"/>
<mask id="path-2-inside-1_9_133" fill="white">
<path d="M59.648 12.2024V12.8237C59.6395 12.7204 59.6395 12.6164 59.648 12.5131C59.6403 12.4097 59.6403 12.3058 59.648 12.2024Z"/>
</mask>
<path d="M59.648 12.2024H60.648L58.6508 12.128L59.648 12.2024ZM59.648 12.8237L58.6514 12.9063L60.648 12.8237H59.648ZM59.648 12.5131L60.6446 12.5956L60.6511 12.5172L60.6453 12.4387L59.648 12.5131ZM58.648 12.2024V12.8237H60.648V12.2024H58.648ZM60.6446 12.7412C60.6406 12.6927 60.6406 12.6441 60.6446 12.5956L58.6514 12.4305C58.6383 12.5888 58.6383 12.748 58.6514 12.9063L60.6446 12.7412ZM60.6453 12.4387C60.6412 12.3848 60.6412 12.3307 60.6453 12.2768L58.6508 12.128C58.6394 12.2809 58.6394 12.4345 58.6508 12.5874L60.6453 12.4387Z" fill="#EF4C23" mask="url(#path-2-inside-1_9_133)"/>
<mask id="path-4-inside-2_9_133" fill="white">
<path d="M59.665 13.9975C59.6478 13.8023 59.6478 13.6059 59.665 13.4107V13.9975Z"/>
</mask>
<path d="M59.665 13.9975L58.6689 14.0856L60.665 13.9975H59.665ZM59.665 13.4107H60.665L58.6689 13.3226L59.665 13.4107ZM60.6612 13.9094C60.6491 13.7728 60.6491 13.6354 60.6612 13.4988L58.6689 13.3226C58.6465 13.5765 58.6465 13.8318 58.6689 14.0856L60.6612 13.9094ZM58.665 13.4107V13.9975H60.665V13.4107H58.665Z" fill="#EF4C23" mask="url(#path-4-inside-2_9_133)"/>
<path d="M1 11.978V12.0816" stroke="#EF4C23"/>
<path d="M14.3719 11.5815H1.75873C1.82213 11.4744 1.88485 11.3648 1.94556 11.2525H14.4596L14.3719 11.5815ZM14.325 11.8234C14.325 11.8234 14.325 11.8231 14.325 11.8226C14.325 11.8231 14.325 11.8234 14.325 11.8234Z" stroke="#EF4C23"/>
<path d="M15.7587 8.30222H11.0214L11.0041 8.23319H10.6137H6.23242L6.41237 7.93872H15.9404L15.7587 8.30222Z" stroke="#EF4C23"/>
<path d="M8.68057 14.2391H14.3417M8.68057 14.2391C8.62873 14.2394 8.57748 14.2502 8.52999 14.271C8.4825 14.2918 8.43975 14.322 8.40441 14.36C8.36923 14.4079 8.34024 14.4601 8.31812 14.5153L14.3417 14.2391M8.68057 14.2391V14.5626L8.68195 14.5636L8.68057 14.2391ZM14.3417 14.2391C14.3755 14.2389 14.4082 14.251 14.4337 14.2733C14.4591 14.2956 14.4755 14.3264 14.4798 14.36L14.3417 14.2391ZM11.6659 15.1372V15.0336H11.1659H8.63907L8.76609 14.7391H13.9798V15.1372H11.6659ZM8.68218 14.6189L8.68219 14.6189L8.76193 14.6932L8.77017 14.7009C8.76804 14.7031 8.76583 14.7053 8.76355 14.7074C8.75376 14.7164 8.74256 14.7237 8.7304 14.7291C8.71536 14.7356 8.69913 14.7391 8.68269 14.7391L8.68241 14.6724L8.68236 14.6613L8.68218 14.6189Z" stroke="#EF4C23"/>
</svg>
