<svg width="44" height="36" viewBox="0 0 44 36" fill="none" xmlns="http://www.w3.org/2000/svg">
<path d="M8.6647 35.71C8.55175 35.7074 8.44042 35.6826 8.33708 35.637C8.23373 35.5913 8.14039 35.5258 8.06238 35.444C7.98437 35.3623 7.92323 35.266 7.88245 35.1607C7.84167 35.0553 7.82204 34.943 7.8247 34.83C7.83979 34.6115 7.93672 34.4068 8.09613 34.2567C8.25555 34.1065 8.46572 34.022 8.6847 34.02C8.798 34.0173 8.91068 34.0374 9.01613 34.0789C9.12158 34.1204 9.21765 34.1826 9.29872 34.2618C9.37978 34.341 9.44418 34.4356 9.48814 34.54C9.5321 34.6445 9.55474 34.7567 9.5547 34.87C9.54687 35.099 9.449 35.3157 9.28237 35.473C9.11573 35.6302 8.89377 35.7154 8.6647 35.71Z" fill="#EF4C23"/>
<path d="M43.4749 33.5901C43.2549 33.8801 43.2149 34.2601 42.9949 34.5901C42.742 34.9513 42.405 35.2457 42.0131 35.4478C41.6211 35.6499 41.1859 35.7536 40.7449 35.7501H11.3249C10.6849 35.7501 10.3249 35.4101 10.3249 34.9001C10.3249 34.3901 10.7349 34.0601 11.3849 34.0601H40.4249C40.6811 34.0865 40.9397 34.0451 41.1749 33.9401C41.3708 33.8392 41.533 33.6831 41.6413 33.4913C41.7497 33.2994 41.7996 33.08 41.7849 32.8601C41.7849 23.7534 41.7849 14.6401 41.7849 5.52008C41.7849 5.24008 41.7149 5.16008 41.4349 5.17008C41.1549 5.18008 40.5649 5.17008 40.1249 5.17008C40.0116 5.17545 39.8984 5.15809 39.792 5.11903C39.6855 5.07998 39.5879 5.02001 39.505 4.94266C39.422 4.86532 39.3554 4.77216 39.309 4.66867C39.2627 4.56518 39.2374 4.45346 39.2349 4.34008C39.2334 4.22286 39.2559 4.10657 39.301 3.99836C39.3461 3.89015 39.4128 3.7923 39.4971 3.71082C39.5814 3.62934 39.6815 3.56595 39.7911 3.52456C39.9008 3.48316 40.0178 3.46462 40.1349 3.47008C40.5749 3.47008 41.0149 3.47008 41.4449 3.47008C41.6849 3.47008 41.7949 3.47008 41.7849 3.16008C41.7849 2.16008 41.3949 1.76008 40.4149 1.76008H3.05491C2.05491 1.76008 1.69491 2.16008 1.69491 3.13008C1.69491 3.71008 1.69491 4.29008 1.69491 4.87008C1.69491 5.06008 1.6949 5.17008 1.9549 5.17008H11.9549C12.031 5.17322 12.1067 5.15858 12.1762 5.12734C12.2456 5.09609 12.3068 5.0491 12.3549 4.99008C12.7549 4.58008 13.1549 4.19008 13.5549 3.79008C13.6527 3.68448 13.7721 3.60122 13.905 3.546C14.0378 3.49077 14.1811 3.46488 14.3249 3.47008H34.1549C34.2784 3.44793 34.4053 3.45338 34.5264 3.48606C34.6475 3.51873 34.7599 3.57782 34.8555 3.65908C34.9511 3.74033 35.0275 3.84174 35.0793 3.95603C35.1311 4.07031 35.1569 4.19464 35.1549 4.32008C35.1551 4.44499 35.1281 4.56844 35.0758 4.68186C35.0235 4.79527 34.9471 4.89593 34.8519 4.97682C34.7567 5.05772 34.6451 5.11691 34.5247 5.15028C34.4043 5.18366 34.2781 5.19042 34.1549 5.17008H15.0549C14.9175 5.15065 14.7775 5.16821 14.6492 5.22094C14.5208 5.27367 14.4089 5.35968 14.3249 5.47008C13.9484 5.9921 13.4364 6.40126 12.8442 6.6533C12.252 6.90535 11.6021 6.99068 10.9649 6.90008C8.0249 6.79008 5.0749 6.90008 2.1349 6.90008C1.8149 6.90008 1.7449 6.97008 1.7449 7.29008C1.7449 15.8034 1.7449 24.3101 1.7449 32.8101C1.71971 32.9827 1.73519 33.1588 1.79011 33.3244C1.84502 33.49 1.93785 33.6404 2.0612 33.7638C2.18456 33.8871 2.33502 33.98 2.5006 34.0349C2.66617 34.0898 2.84229 34.1053 3.01491 34.0801H5.22491C5.34864 34.056 5.47621 34.0601 5.59815 34.092C5.72008 34.124 5.83327 34.183 5.92931 34.2646C6.02536 34.3462 6.1018 34.4484 6.15297 34.5636C6.20414 34.6788 6.22873 34.8041 6.22491 34.9301C6.2272 35.0552 6.20149 35.1793 6.14966 35.2933C6.09783 35.4072 6.02119 35.5082 5.92533 35.5887C5.82948 35.6692 5.71684 35.7273 5.59565 35.7587C5.47446 35.79 5.3478 35.7939 5.22491 35.7701H3.01491C2.61052 35.8125 2.20176 35.7641 1.81849 35.6283C1.43522 35.4926 1.08711 35.2729 0.799599 34.9854C0.512085 34.6979 0.292422 34.3498 0.156662 33.9665C0.0209024 33.5832 -0.0275258 33.1745 0.0149083 32.7701C0.0149083 26.7701 0.0149083 20.8301 0.0149083 14.8601C0.0149083 10.9101 0.0149083 6.96008 0.0149083 3.01008C-0.026326 2.61029 0.0212215 2.20632 0.15416 1.82702C0.287098 1.44773 0.502144 1.10246 0.783944 0.815888C1.06574 0.529312 1.40735 0.308493 1.78436 0.169199C2.16136 0.0299051 2.56447 -0.0244274 2.96491 0.0100823C15.4849 0.0100823 27.9982 0.0100823 40.5049 0.0100823C41.1692 -0.0227446 41.8241 0.176959 42.357 0.574835C42.89 0.972711 43.2676 1.54388 43.4249 2.19008C43.4249 2.19008 43.4249 2.19008 43.4849 2.19008L43.4749 33.5901Z" fill="#EF4C23"/>
<path d="M3.80487 2.59002C4.03395 2.59774 4.25123 2.69354 4.41144 2.85747C4.57164 3.0214 4.66242 3.24082 4.66486 3.47002C4.64942 3.69814 4.54581 3.91129 4.37596 4.06435C4.20611 4.2174 3.98335 4.29834 3.75486 4.29002C3.53877 4.28271 3.33335 4.19426 3.17954 4.0423C3.02573 3.89034 2.9348 3.68602 2.92486 3.47002C2.92352 3.35409 2.94537 3.23905 2.98912 3.13168C3.03287 3.02431 3.09764 2.92677 3.17962 2.84478C3.26161 2.7628 3.35915 2.69803 3.46653 2.65428C3.5739 2.61053 3.68893 2.58868 3.80487 2.59002Z" fill="#EF4C23"/>
<path d="M7.2047 4.29011C6.98065 4.29305 6.76411 4.20944 6.60017 4.05668C6.43624 3.90393 6.33757 3.69381 6.32471 3.47011C6.32993 3.2402 6.42495 3.02147 6.58942 2.86074C6.75389 2.70001 6.97474 2.61005 7.2047 2.61011C7.42549 2.61706 7.63581 2.70587 7.79476 2.85927C7.95371 3.01267 8.04992 3.2197 8.0647 3.44011C8.05953 3.66564 7.96696 3.88035 7.80651 4.03893C7.64606 4.19752 7.43028 4.28757 7.2047 4.29011Z" fill="#EF4C23"/>
<path d="M10.5648 4.28999C10.3376 4.28477 10.1214 4.1908 9.96255 4.02821C9.80369 3.86562 9.71478 3.64731 9.71484 3.41999C9.73025 3.191 9.83351 2.97682 10.0031 2.82216C10.1727 2.6675 10.3954 2.58432 10.6248 2.58999C10.8453 2.60478 11.0523 2.70099 11.2057 2.85994C11.3591 3.01889 11.4479 3.2292 11.4548 3.44999C11.4445 3.67812 11.3458 3.89329 11.1798 4.05003C11.0137 4.20678 10.7932 4.29282 10.5648 4.28999Z" fill="#EF4C23"/>
<path d="M36.6647 3.47008C36.778 3.46742 36.8907 3.48743 36.9961 3.52895C37.1016 3.57048 37.1976 3.63266 37.2787 3.71186C37.3598 3.79106 37.4242 3.88566 37.4681 3.99012C37.5121 4.09457 37.5347 4.20676 37.5347 4.32008C37.5348 4.5421 37.448 4.75532 37.2928 4.91416C37.1377 5.07301 36.9266 5.16486 36.7047 5.17008C36.5916 5.17691 36.4782 5.1605 36.3717 5.12185C36.2652 5.08321 36.1677 5.02316 36.0852 4.94539C36.0028 4.86763 35.9371 4.7738 35.8923 4.6697C35.8475 4.5656 35.8245 4.45342 35.8247 4.34008C35.8192 4.22692 35.837 4.11384 35.8769 4.0078C35.9168 3.90176 35.9779 3.805 36.0566 3.7235C36.1353 3.64199 36.2299 3.57746 36.3344 3.53388C36.439 3.4903 36.5514 3.46859 36.6647 3.47008Z" fill="#EF4C23"/>
<path d="M26.8447 13.6901C27.858 13.6815 28.8611 13.8931 29.7847 14.3101C29.9743 14.3762 30.1317 14.5121 30.2247 14.6901C30.2583 14.7782 30.2658 14.8741 30.2463 14.9663C30.2268 15.0585 30.1811 15.1432 30.1147 15.2101C30.0481 15.2834 29.9604 15.3342 29.8637 15.3557C29.767 15.3772 29.6661 15.3683 29.5747 15.3301C29.1447 15.2101 28.7147 15.0501 28.2847 14.9401C27.5064 14.7309 26.6975 14.6598 25.8947 14.7301C25.451 14.7889 25.0356 14.9809 24.7035 15.2809C24.3714 15.5809 24.1381 15.9747 24.0347 16.4101C23.9173 16.8496 23.9411 17.3149 24.1026 17.7402C24.2641 18.1655 24.5552 18.5293 24.9347 18.7801C26.1147 19.4701 27.3547 20.0301 28.5647 20.6701C28.8347 20.8201 29.1147 20.9501 29.3847 21.1101C29.9868 21.4291 30.4623 21.9435 30.7332 22.5687C31.004 23.1939 31.0539 23.8927 30.8747 24.5501C30.7451 25.2353 30.3959 25.8597 29.8799 26.3288C29.3639 26.7979 28.7091 27.0862 28.0147 27.1501C26.2959 27.2999 24.5834 26.8005 23.2147 25.7501C22.9747 25.5801 22.8347 25.3601 23.0047 25.0601C23.0365 24.9961 23.0817 24.9397 23.1372 24.8946C23.1927 24.8495 23.2572 24.8169 23.3264 24.7989C23.3956 24.7809 23.4679 24.7779 23.5383 24.7902C23.6087 24.8025 23.6757 24.8297 23.7347 24.8701L25.3947 25.7001C26.2029 26.0872 27.1057 26.233 27.9947 26.1201C28.4457 26.0655 28.8684 25.8713 29.2037 25.5647C29.5389 25.2581 29.77 24.8544 29.8647 24.4101C29.9774 23.9768 29.95 23.519 29.7866 23.1023C29.6231 22.6855 29.3319 22.3312 28.9547 22.0901C27.6647 21.3101 26.2847 20.6901 24.9547 20.0001C24.5303 19.8226 24.1471 19.5597 23.8288 19.2276C23.5105 18.8956 23.264 18.5016 23.1047 18.0701C22.9301 17.5412 22.8897 16.9773 22.9871 16.4289C23.0845 15.8806 23.3167 15.3651 23.6628 14.9287C24.0089 14.4924 24.4581 14.1489 24.9698 13.9292C25.4816 13.7095 26.04 13.6205 26.5947 13.6701L26.8447 13.6901Z" fill="#EF4C23"/>
<path d="M17.7147 19.4701C17.7147 20.8801 17.7847 22.6201 17.7147 24.3601C17.6303 25.0784 17.3094 25.7483 16.8025 26.2643C16.2956 26.7802 15.6315 27.1129 14.9147 27.2101C14.3218 27.2401 13.7277 27.2401 13.1347 27.2101C12.7947 27.2101 12.5747 27.0801 12.5747 26.6901C12.5747 26.3001 12.8047 26.1801 13.1547 26.1901H14.1547C14.5019 26.2323 14.8542 26.1949 15.1847 26.0805C15.5152 25.9661 15.8153 25.7779 16.0622 25.5301C16.309 25.2823 16.4961 24.9815 16.6092 24.6505C16.7222 24.3195 16.7583 23.9671 16.7147 23.6201V14.6201C16.7147 14.4601 16.7147 14.3101 16.7147 14.1501C16.7058 14.0831 16.7118 14.015 16.7321 13.9506C16.7525 13.8862 16.7869 13.8271 16.8327 13.7774C16.8785 13.7278 16.9347 13.6888 16.9973 13.6634C17.0598 13.6379 17.1272 13.6265 17.1947 13.6301C17.2646 13.6168 17.3365 13.6203 17.4048 13.6403C17.473 13.6602 17.5355 13.6961 17.5872 13.7449C17.639 13.7936 17.6784 13.854 17.7023 13.9209C17.7262 13.9879 17.7338 14.0596 17.7247 14.1301C17.7247 14.6101 17.7247 15.1301 17.7247 15.5801C17.7247 16.7701 17.7147 17.9301 17.7147 19.4701Z" fill="#EF4C23"/>
</svg>
