<svg width="46" height="46" viewBox="0 0 46 46" fill="none" xmlns="http://www.w3.org/2000/svg">
<path d="M11.3 45.1276C11.18 44.9576 10.97 44.9776 10.8 44.8976C10.3099 44.6557 9.90438 44.2713 9.63668 43.7948C9.36899 43.3183 9.25163 42.772 9.3 42.2276C9.3 35.6809 9.3 29.1276 9.3 22.5676C9.3 21.9076 9.3 21.9076 8.62 21.9076C6.62 21.9076 4.62 21.9076 2.67 21.9076C2.10427 21.9869 1.52898 21.8583 1.05086 21.5457C0.572732 21.2331 0.224227 20.7576 0.0699997 20.2076C0.0699997 20.2076 0.02 20.2076 0 20.2076V19.8576C0.14 19.7376 0.079998 19.5876 0.079998 19.4476C0.079998 16.4276 0.079998 13.4076 0.079998 10.3876C0.079998 10.2476 0.14 10.0876 0 9.97759V9.62759C0 9.62759 0.0599997 9.62759 0.0699997 9.62759C0.23423 9.08153 0.589053 8.61258 1.0699 8.30609C1.55075 7.99959 2.12565 7.87592 2.69 7.95759C4.76 7.95759 6.84 7.95759 8.91 7.95759C9.22 7.95759 9.31 7.87759 9.3 7.56759C9.3 5.97759 9.3 4.38759 9.3 2.80759C9.25038 2.16923 9.43989 1.53524 9.83171 1.02884C10.2235 0.522438 10.7896 0.17982 11.42 0.0675873C12.0492 0.0223928 12.6808 0.0223928 13.31 0.0675873C13.63 0.0675873 13.95 0.0675873 14.31 0.0675873C14.4806 0.0728189 14.6424 0.144978 14.7603 0.268473C14.8781 0.391968 14.9427 0.556883 14.94 0.727587C14.9413 0.811636 14.9261 0.895123 14.8951 0.973278C14.8642 1.05143 14.8181 1.12273 14.7596 1.18309C14.7011 1.24345 14.6313 1.29169 14.5542 1.32506C14.477 1.35844 14.394 1.37629 14.31 1.37759C13.57 1.37759 12.84 1.37759 12.1 1.37759C11.9106 1.35266 11.7181 1.37076 11.5367 1.43054C11.3553 1.49032 11.1898 1.59024 11.0523 1.72286C10.9149 1.85549 10.8091 2.0174 10.743 2.19655C10.6768 2.3757 10.6518 2.56747 10.67 2.75759C10.67 4.34759 10.67 5.93759 10.67 7.51759C10.67 7.88759 10.78 7.94759 11.11 7.94759H28.57C29.0937 7.89974 29.6173 8.03933 30.0477 8.3415C30.478 8.64367 30.7872 9.08879 30.92 9.59759C30.9818 9.86974 31.0086 10.1486 31 10.4276C31 13.4276 31 16.4276 31 19.4276C31.026 19.7651 30.9782 20.1043 30.8598 20.4215C30.7415 20.7386 30.5554 21.0262 30.3146 21.2641C30.0738 21.5021 29.784 21.6847 29.4655 21.7993C29.1469 21.9139 28.8072 21.9576 28.47 21.9276C28.02 21.9276 27.56 21.9276 27.11 21.9276C26.9168 21.9444 26.7247 21.8846 26.575 21.7612C26.4254 21.6377 26.3302 21.4605 26.31 21.2676C26.3137 21.1677 26.3376 21.0696 26.3803 20.9792C26.423 20.8888 26.4835 20.808 26.5583 20.7416C26.633 20.6753 26.7205 20.6248 26.8153 20.5931C26.9101 20.5615 27.0104 20.5494 27.11 20.5576C27.63 20.5576 28.11 20.5576 28.66 20.5576C28.7964 20.5801 28.9362 20.5698 29.0678 20.5275C29.1994 20.4852 29.319 20.4121 29.4168 20.3144C29.5145 20.2166 29.5876 20.097 29.6299 19.9654C29.6722 19.8338 29.6825 19.694 29.66 19.5576V10.2076C29.66 9.53759 29.31 9.20759 28.59 9.20759H2.59C1.68 9.20759 1.39 9.50759 1.38 10.4176V19.2876C1.38 20.2876 1.66 20.5176 2.6 20.5176H23.51C23.7153 20.5028 23.9216 20.5231 24.12 20.5776C24.2637 20.6108 24.3905 20.695 24.4769 20.8145C24.5633 20.934 24.6035 21.0807 24.59 21.2276C24.5932 21.3692 24.5471 21.5075 24.4595 21.6188C24.372 21.7301 24.2484 21.8074 24.11 21.8376C23.9208 21.8623 23.7292 21.8623 23.54 21.8376H11.12C10.77 21.8376 10.66 21.9076 10.66 22.2876C10.66 28.9543 10.66 35.6209 10.66 42.2876C10.66 43.3376 11.11 43.7776 12.17 43.7776H42.3C43.37 43.7776 43.82 43.3176 43.82 42.2476C43.82 41.5676 43.82 40.8876 43.82 40.2476C43.82 39.7476 44.06 39.4876 44.47 39.4776C44.88 39.4676 45.15 39.7576 45.15 40.2676C45.15 41.0276 45.15 41.7976 45.15 42.5576C45.156 43.141 44.9602 43.7086 44.5957 44.1642C44.2313 44.6198 43.7205 44.9354 43.15 45.0576C43.15 45.0576 43.09 45.1076 43.05 45.1276H11.3Z" fill="#EF4C23"/>
<path d="M0.0100098 9.9375C0.15001 10.0475 0.0900116 10.2075 0.0900116 10.3475C0.0900116 13.3675 0.0900116 16.3875 0.0900116 19.4075C0.0900116 19.5475 0.15001 19.6975 0.0100098 19.8175V9.9375Z" fill="#EF4C23"/>
<path d="M45.1699 25.2076V36.6276C45.1699 36.7576 45.1699 36.8976 45.1699 37.0276C45.1699 37.2062 45.0996 37.3777 44.9743 37.5049C44.8489 37.6322 44.6785 37.705 44.4999 37.7076C44.3283 37.6949 44.168 37.6177 44.0511 37.4916C43.9342 37.3654 43.8694 37.1996 43.8699 37.0276C43.8699 36.8776 43.8699 36.7376 43.8699 36.5876C43.8699 29.1476 43.8699 21.7109 43.8699 14.2776C43.8772 13.9117 43.8437 13.5461 43.7699 13.1876C43.5099 12.1176 42.6499 11.5576 41.2699 11.5476C39.6099 11.5476 37.9499 11.5476 36.2699 11.5476C35.9005 11.5712 35.5304 11.5142 35.1853 11.3804C34.8402 11.2466 34.5284 11.0393 34.2715 10.7728C34.0146 10.5064 33.8187 10.1872 33.6976 9.8375C33.5764 9.48777 33.5328 9.11585 33.5699 8.74759C33.5699 7.55759 33.5699 6.36759 33.5699 5.17759C33.6899 2.48759 32.0899 1.32759 29.7099 1.31759H17.7099C17.5767 1.3277 17.443 1.3277 17.3099 1.31759C17.2284 1.3125 17.1487 1.29137 17.0754 1.25542C17.0022 1.21946 16.9367 1.16938 16.8828 1.10806C16.8289 1.04674 16.7877 0.975379 16.7614 0.898074C16.7352 0.82077 16.7245 0.739042 16.7299 0.657586C16.7259 0.576145 16.7379 0.494706 16.7654 0.417936C16.7929 0.341165 16.8352 0.270569 16.89 0.210191C16.9448 0.149813 17.011 0.10084 17.0848 0.0660736C17.1585 0.0313076 17.2384 0.0114323 17.3199 0.00758666C17.453 -0.00252889 17.5867 -0.00252889 17.7199 0.00758666H30.3199C31.6608 -0.00715078 32.9906 0.25123 34.2285 0.76699C35.4663 1.28275 36.5862 2.04509 37.5199 3.00759C39.2899 4.74759 41.0399 6.50759 42.7899 8.26759C43.5536 9.02396 44.1571 9.9265 44.5643 10.9213C44.9715 11.9161 45.1741 12.9828 45.1599 14.0576C45.1732 17.7776 45.1766 21.4943 45.1699 25.2076ZM34.3699 2.34759C34.7219 3.10287 34.9094 3.92436 34.9199 4.75759C34.9199 6.13759 34.9199 7.51759 34.9199 8.89759C34.9045 9.077 34.9286 9.2576 34.9907 9.42665C35.0527 9.5957 35.1511 9.74907 35.2789 9.87592C35.4067 10.0028 35.5608 10.1 35.7303 10.1608C35.8998 10.2215 36.0806 10.2444 36.2599 10.2276C38.3413 10.1441 40.4261 10.2009 42.4999 10.3976C42.5699 10.3976 42.6499 10.3976 42.6899 10.3976C42.7299 10.3976 42.6899 10.2576 42.6199 10.1976C42.4206 9.92639 42.2069 9.66602 41.9799 9.41759C40.0999 7.51759 38.2099 5.62759 36.3099 3.74759C35.7601 3.15959 35.1012 2.6841 34.3699 2.34759Z" fill="#EF4C23"/>
<path d="M12.6 10.8976C12.7128 10.8731 12.8294 10.8724 12.9425 10.8955C13.0555 10.9186 13.1625 10.9651 13.2567 11.0319C13.3508 11.0987 13.4299 11.1844 13.489 11.2835C13.5481 11.3827 13.5859 11.493 13.6 11.6076C14.2 13.6876 14.87 15.7576 15.48 17.8476C15.6 18.2376 15.48 18.4876 14.99 18.6576C14.9066 18.7044 14.8129 18.7298 14.7173 18.7316C14.6217 18.7334 14.5272 18.7116 14.442 18.6681C14.3569 18.6245 14.2839 18.5606 14.2294 18.482C14.175 18.4034 14.1408 18.3126 14.13 18.2176C14.05 17.9376 13.94 17.6576 13.89 17.3776C13.84 17.0976 13.73 17.0076 13.45 17.0176C12.86 17.0176 12.28 17.0176 11.69 17.0176C11.46 17.0176 11.34 17.0876 11.29 17.3176C11.24 17.5476 11.12 17.9376 11.03 18.2476C10.94 18.5576 10.65 18.7876 10.19 18.6576C9.72997 18.5276 9.57997 18.2776 9.69997 17.8576C10.34 15.7776 10.97 13.6976 11.61 11.6176C11.6243 11.5038 11.6619 11.3942 11.7202 11.2954C11.7786 11.1967 11.8565 11.111 11.9493 11.0435C12.042 10.9761 12.1476 10.9283 12.2595 10.9032C12.3714 10.8781 12.4873 10.8762 12.6 10.8976ZM13.49 15.8976L12.58 12.6976L11.75 15.5976C11.69 15.8076 11.7 15.9076 11.97 15.8976C12.47 15.9176 12.96 15.9376 13.49 15.9376V15.8976Z" fill="#EF4C23"/>
<path d="M23.97 10.8975C24.0813 10.873 24.1965 10.8716 24.3083 10.8935C24.4202 10.9154 24.5263 10.9602 24.6202 11.0249C24.714 11.0896 24.7935 11.173 24.8536 11.2698C24.9138 11.3666 24.9534 11.4748 24.97 11.5875C25.58 13.6675 26.21 15.7575 26.87 17.8275C26.9106 17.9112 26.9305 18.0035 26.928 18.0965C26.9255 18.1896 26.9006 18.2806 26.8555 18.362C26.8104 18.4434 26.7464 18.5127 26.6688 18.5642C26.5913 18.6156 26.5025 18.6476 26.41 18.6575C25.95 18.7975 25.66 18.6575 25.53 18.2275C25.4 17.7975 25.44 17.3275 25.15 17.0975C24.86 16.8675 24.35 17.0275 23.94 17.0275C22.8 17.0275 22.8 17.0275 22.48 18.1075C22.31 18.6975 21.94 18.8575 21.41 18.5775C21.3397 18.5557 21.2748 18.5192 21.2197 18.4704C21.1645 18.4216 21.1204 18.3617 21.0901 18.2946C21.0599 18.2275 21.0442 18.1547 21.0442 18.0811C21.0442 18.0075 21.0598 17.9347 21.09 17.8675C21.75 15.7775 22.39 13.6875 23.03 11.5875C23.0458 11.4803 23.0828 11.3772 23.1388 11.2843C23.1947 11.1914 23.2685 11.1105 23.356 11.0463C23.4434 10.9822 23.5427 10.936 23.6481 10.9104C23.7535 10.8849 23.8629 10.8805 23.97 10.8975ZM24.88 15.8975L23.97 12.7575C23.67 13.7575 23.4 14.7575 23.12 15.6875C23.07 15.8875 23.12 15.9675 23.34 15.9575L24.88 15.8975Z" fill="#EF4C23"/>
<path d="M18.3299 16.7575C18.8099 15.0075 19.3299 13.2675 19.7799 11.5275C19.7926 11.3917 19.8447 11.2626 19.9297 11.156C20.0148 11.0494 20.1291 10.97 20.2587 10.9275C20.3883 10.8851 20.5275 10.8813 20.6591 10.9169C20.7908 10.9524 20.9092 11.0256 20.9999 11.1275C21.0954 11.1805 21.1678 11.2673 21.203 11.3708C21.2381 11.4743 21.2334 11.5872 21.1899 11.6875C20.5299 13.8375 19.8799 15.9975 19.1899 18.1475C19.1343 18.3333 19.014 18.493 18.8506 18.5976C18.6873 18.7022 18.4919 18.7448 18.2999 18.7175C17.8699 18.7175 17.4699 18.6575 17.2999 18.1675C16.6399 16.0175 15.9699 13.8775 15.2999 11.7175C15.1799 11.3275 15.3699 11.0775 15.8199 10.9575C16.2699 10.8375 16.5299 10.9575 16.6399 11.3475C17.1299 13.0575 17.6399 14.7775 18.0999 16.4875C18.1999 16.6275 18.1999 16.7575 18.3299 16.7575Z" fill="#EF4C23"/>
<path d="M8.92006 14.1275C8.92006 14.9675 8.92006 15.7975 8.92006 16.6375C8.92413 16.9179 8.87175 17.1962 8.76602 17.4559C8.6603 17.7156 8.50339 17.9514 8.30465 18.1492C8.10591 18.347 7.86939 18.5028 7.60919 18.6073C7.34898 18.7118 7.07041 18.7629 6.79005 18.7575C6.12017 18.8294 5.44527 18.6783 4.87006 18.3275C4.56858 18.141 4.326 17.873 4.17029 17.5545C4.01458 17.236 3.9521 16.88 3.99006 16.5275C3.99006 16.2075 4.16006 16.0275 4.48006 16.0175C4.80006 16.0075 5.17006 15.9075 5.33006 16.3375C5.36839 16.4478 5.39521 16.5617 5.41006 16.6775C5.42024 16.81 5.45839 16.9388 5.52199 17.0554C5.58559 17.172 5.67319 17.2739 5.77902 17.3542C5.88485 17.4345 6.0065 17.4915 6.13596 17.5214C6.26542 17.5512 6.39973 17.5533 6.53006 17.5275C7.15006 17.5275 7.53006 17.2075 7.53006 16.5975C7.53006 15.2175 7.53006 13.8375 7.53006 12.4575C7.53006 12.2075 7.43005 12.1475 7.22005 12.1675H6.60006C6.51878 12.1758 6.43667 12.1656 6.35992 12.1375C6.28317 12.1095 6.21378 12.0644 6.15698 12.0057C6.10018 11.947 6.05744 11.8761 6.03199 11.7985C6.00654 11.7209 5.99904 11.6384 6.01006 11.5575C5.99934 11.4761 6.00697 11.3934 6.03238 11.3154C6.05779 11.2373 6.10034 11.166 6.15692 11.1065C6.21349 11.0471 6.28266 11.001 6.35933 10.9718C6.43601 10.9425 6.51826 10.9308 6.60006 10.9375C7.14006 10.9375 7.69006 10.9375 8.23006 10.9375C8.77006 10.9375 8.92006 11.1075 8.93006 11.6575V14.1275H8.92006Z" fill="#EF4C23"/>
<path d="M24.9499 33.8475C24.9929 33.5301 25.0804 33.2204 25.2099 32.9275L27.8699 25.5975C27.8972 25.4988 27.9306 25.402 27.9699 25.3075C27.9955 25.2163 28.04 25.1315 28.1003 25.0584C28.1607 24.9854 28.2356 24.9258 28.3204 24.8834C28.4051 24.8411 28.4977 24.8169 28.5924 24.8124C28.687 24.8079 28.7815 24.8233 28.8699 24.8575C28.9561 24.8903 29.0347 24.9404 29.101 25.0046C29.1672 25.0688 29.2197 25.1458 29.2553 25.2309C29.2908 25.316 29.3087 25.4075 29.3077 25.4997C29.3068 25.592 29.2871 25.6831 29.2499 25.7675C29.0399 26.3775 28.8099 26.9775 28.5899 27.5775C27.8699 29.6275 27.0999 31.6675 26.3499 33.7575C26.3102 33.8815 26.2601 34.002 26.1999 34.1175C26.1418 34.2639 26.0285 34.3815 25.8845 34.4451C25.7404 34.5088 25.5772 34.5132 25.4299 34.4575C25.1099 34.3175 24.9199 34.0775 24.9499 33.8475Z" fill="#EF4C23"/>
<path d="M31.7398 26.0375C31.9573 26.0593 32.1596 26.1587 32.3098 26.3175L34.7998 28.8075C35.2098 29.2275 35.1998 29.5575 34.7998 29.9875L32.3398 32.4475C31.9698 32.8075 31.5998 32.8475 31.3398 32.5675C31.0798 32.2875 31.0498 31.8775 31.4398 31.4875C32.0398 30.8775 32.6298 30.2675 33.2498 29.6875C33.5198 29.4375 33.4698 29.3075 33.2498 29.0875C32.6098 28.4775 31.9898 27.8475 31.3798 27.2175C31.267 27.1308 31.1869 27.0086 31.1524 26.8706C31.1179 26.7326 31.1311 26.587 31.1898 26.4575C31.2337 26.3434 31.3083 26.2438 31.4054 26.1696C31.5025 26.0955 31.6183 26.0497 31.7398 26.0375Z" fill="#EF4C23"/>
<path d="M20.9899 29.3976L23.0999 31.4876C23.245 31.5907 23.3461 31.7445 23.3831 31.9186C23.4202 32.0927 23.3905 32.2744 23.2999 32.4276C23.2518 32.5128 23.1845 32.5857 23.1034 32.6404C23.0223 32.6951 22.9295 32.7301 22.8324 32.7428C22.7354 32.7554 22.6367 32.7452 22.5443 32.7131C22.4519 32.6809 22.3682 32.6277 22.2999 32.5576C21.3799 31.6676 20.4799 30.7676 19.5899 29.8476C19.5215 29.7814 19.4683 29.7012 19.4338 29.6126C19.3993 29.5239 19.3844 29.4288 19.3901 29.3338C19.3958 29.2388 19.422 29.1462 19.4668 29.0623C19.5117 28.9783 19.5741 28.9051 19.6499 28.8476C20.4999 27.9776 21.3699 27.1176 22.2399 26.2576C22.3036 26.1885 22.3809 26.1334 22.467 26.0956C22.553 26.0579 22.646 26.0385 22.7399 26.0385C22.8339 26.0385 22.9268 26.0579 23.0129 26.0956C23.0989 26.1334 23.1762 26.1885 23.2399 26.2576C23.3015 26.3279 23.3484 26.4099 23.3778 26.4987C23.4071 26.5875 23.4184 26.6813 23.411 26.7745C23.4035 26.8677 23.3775 26.9585 23.3343 27.0414C23.2912 27.1244 23.2319 27.1979 23.1599 27.2576C22.4499 27.9576 21.7299 28.6676 20.9899 29.3976Z" fill="#EF4C23"/>
</svg>
