<svg width="42" height="48" viewBox="0 0 42 48" fill="none" xmlns="http://www.w3.org/2000/svg">
<path d="M16.0901 4.62C16.9701 2.62 18.0101 0.8 20.2201 0H21.3901C23.5501 0.65 24.6101 2.35 25.4601 4.25C25.11 4.33393 24.7493 4.36427 24.3901 4.34C24.2301 4.34 24.0501 4.28 23.9301 4.46C23.5256 3.71735 23.0428 3.02006 22.4901 2.38C22.3097 2.136 22.0746 1.93771 21.8037 1.80107C21.5327 1.66444 21.2335 1.59326 20.9301 1.59326C20.6267 1.59326 20.3274 1.66444 20.0565 1.80107C19.7856 1.93771 19.5505 2.136 19.3701 2.38C18.7584 3.05189 18.2434 3.80582 17.8401 4.62H16.0901Z" fill="#EF4C23"/>
<path d="M0.019936 13.48C0.00843531 12.7467 0.242303 12.0305 0.68438 11.4453C1.12646 10.8601 1.7514 10.4394 2.45994 10.25C3.77159 9.85533 5.15258 9.74622 6.50994 9.93001C8.89969 10.2049 11.249 10.7586 13.5099 11.58C14.0599 11.76 14.0499 11.75 14.1799 11.21C14.3305 10.3829 14.5275 9.56496 14.7699 8.76001H16.3699C16.0999 9.76001 15.9099 10.76 15.6899 11.76C15.5999 12.16 15.6899 12.41 16.0399 12.55C15.8601 12.638 15.6589 12.6727 15.4599 12.65H12.8899C12.7199 12.65 12.4999 12.58 12.4599 12.86C11.8399 12.68 11.2299 12.48 10.6099 12.33C8.44639 11.6951 6.19226 11.4248 3.93994 11.53C2.77994 11.64 1.58994 12.14 1.56994 13.48H0.019936Z" fill="#EF4C23"/>
<path d="M26.9501 8.40002C27.2628 9.40901 27.5067 10.438 27.6801 11.48C27.7501 11.78 27.8701 11.72 28.0701 11.65C29.3815 11.1914 30.7168 10.8041 32.0701 10.49C33.8358 10.0159 35.6634 9.81361 37.4901 9.89002C38.7609 9.88135 39.9873 10.3569 40.9201 11.22C41.1931 11.4759 41.4097 11.786 41.556 12.1304C41.7024 12.4747 41.7753 12.8459 41.7701 13.22H40.1901C40.1436 12.9413 40.0277 12.6788 39.8529 12.4568C39.6781 12.2349 39.4501 12.0605 39.1901 11.95C38.7775 11.7408 38.3301 11.6086 37.8701 11.56C36.2964 11.4112 34.709 11.5193 33.1701 11.88C31.9301 12.11 30.7401 12.5 29.5101 12.8C29.5101 12.52 29.2601 12.58 29.0901 12.58H26.4401C26.2801 12.58 26.1001 12.64 25.9801 12.46C26.1901 12.37 26.1901 12.22 26.1401 12.01C25.8601 10.82 25.6001 9.63003 25.3301 8.44003L26.9501 8.40002Z" fill="#EF4C23"/>
<path d="M14.7001 38.41C14.4614 37.6332 14.2743 36.8415 14.1401 36.04C14.0601 35.62 13.9401 35.58 13.5501 35.72C10.9075 36.7352 8.11816 37.316 5.29008 37.44C3.88085 37.5845 2.46554 37.2307 1.29008 36.44C0.955744 36.214 0.674423 35.9182 0.465523 35.5729C0.256623 35.2276 0.125118 34.8411 0.0800781 34.44H1.65008C1.82686 34.7615 2.07617 35.0374 2.37822 35.2457C2.68027 35.454 3.02673 35.589 3.39008 35.64C4.7934 35.915 6.23675 35.915 7.64008 35.64C9.33461 35.353 11.0058 34.9419 12.6401 34.41C12.7001 34.66 12.9001 34.57 13.0501 34.57H15.6301C15.8001 34.57 16.0201 34.49 16.0601 34.77C15.6501 34.9 15.6201 35.17 15.7101 35.54C15.9501 36.54 16.1501 37.47 16.3701 38.43L14.7001 38.41Z" fill="#EF4C23"/>
<path d="M41.74 33.97C41.7286 34.6659 41.4942 35.3397 41.0711 35.8924C40.6481 36.4451 40.0588 36.8473 39.39 37.04C38.1521 37.4256 36.8447 37.5348 35.56 37.36C33.005 37.1189 30.4931 36.5405 28.09 35.64C27.86 35.56 27.77 35.57 27.73 35.84C27.69 36.11 27.55 36.65 27.45 37.05H25.9C25.99 36.59 26.04 36.11 26.17 35.66C26.3 35.21 26.27 34.84 25.72 34.72C25.78 34.47 25.99 34.56 26.14 34.56H28.71C28.87 34.56 29.1 34.64 29.14 34.36C31.3041 35.0857 33.5405 35.5753 35.81 35.82C36.8798 35.9531 37.9659 35.8472 38.99 35.51C39.3272 35.4187 39.6281 35.2257 39.8518 34.9573C40.0755 34.6889 40.211 34.3581 40.24 34.01L41.74 33.97Z" fill="#EF4C23"/>
<path d="M35.2701 24.28C36.4261 25.2493 37.5028 26.3093 38.4901 27.45C38.5291 27.4959 38.5627 27.5463 38.5901 27.6C38.2401 27.94 37.7901 27.73 37.3901 27.79C37.2101 27.79 36.9701 27.69 36.9201 27.99C35.8601 26.99 34.9201 25.92 33.7401 24.99C33.2601 24.61 33.3001 24.62 32.8001 24.99C31.8574 25.8015 30.8546 26.5402 29.8001 27.2C29.5502 27.1269 29.2904 27.0932 29.0301 27.1H27.1001L27.1601 23.23H28.6901V26.1L31.3901 24.26C31.8149 24.4027 32.2686 24.4371 32.7101 24.36C33.5638 24.4247 34.4221 24.3979 35.2701 24.28Z" fill="#EF4C23"/>
<path d="M6.6199 23.09C6.23773 22.8573 5.89928 22.5595 5.6199 22.21C4.63228 21.319 3.72232 20.3454 2.8999 19.3C3.07976 19.31 3.26004 19.31 3.4399 19.3C3.8799 19.3 4.3499 19.42 4.7499 19.12L4.9599 19.3C5.9599 20.3 7.0199 21.44 8.1699 22.38C8.4099 22.59 8.5699 22.53 8.7999 22.38C9.75947 21.5838 10.7609 20.8394 11.7999 20.15C11.9641 20.2312 12.1474 20.2658 12.3299 20.25H14.6499C14.6499 21.17 14.5799 22.09 14.5699 23.02C14.0515 22.9848 13.5307 23.0151 13.0199 23.11C13.0199 22.61 13.0199 22.11 13.0199 21.59C13.0199 21.49 13.0799 21.36 12.9599 21.3C12.8399 21.24 12.7699 21.37 12.6899 21.42C11.8899 21.99 11.0899 22.56 10.2999 23.14C10.0791 23.0345 9.83122 22.9995 9.5899 23.04C8.60029 22.9716 7.60665 22.9883 6.6199 23.09Z" fill="#EF4C23"/>
<path d="M25.2199 43.58C24.7227 44.7243 23.9538 45.73 22.9799 46.51C22.3425 47.0336 21.5335 47.302 20.7095 47.2632C19.8855 47.2244 19.1053 46.8811 18.5199 46.3C17.6009 45.4727 16.8827 44.4466 16.4199 43.3C16.5399 43.13 16.7199 43.19 16.8799 43.19C17.2699 43.2135 17.6613 43.1764 18.0399 43.08C18.4314 43.8241 18.9414 44.4996 19.5499 45.08C19.7207 45.2578 19.9257 45.3993 20.1525 45.496C20.3793 45.5926 20.6234 45.6425 20.8699 45.6425C21.1165 45.6425 21.3605 45.5926 21.5874 45.496C21.8142 45.3993 22.0191 45.2578 22.1899 45.08C22.6858 44.6208 23.1165 44.096 23.4699 43.52L25.2199 43.58Z" fill="#EF4C23"/>
<path d="M25.22 43.58H23.47C24.0294 42.513 24.5107 41.4067 24.91 40.27C25.28 39.21 25.5 38.1 25.85 37.03H27.39C26.9971 39.0923 26.3767 41.1046 25.54 43.03C25.46 43.18 25.33 43.38 25.22 43.58Z" fill="#EF4C23"/>
<path d="M6.62006 23.0901C7.61529 22.97 8.61905 22.9365 9.62006 22.9901C9.86671 22.9536 10.1186 22.9956 10.3401 23.1101C10.243 23.208 10.1357 23.2951 10.0201 23.3701C9.66006 23.5701 9.75006 23.7101 10.0201 23.9101C10.4801 24.2401 10.9201 24.6001 11.3701 24.9101C11.2701 25.1901 11.0401 25.0401 10.8601 25.0701C10.3501 25.1401 9.80006 24.9101 9.33006 25.2801C9.08006 25.2301 8.95006 25.0201 8.78006 24.8801C8.7392 24.8243 8.68576 24.7789 8.62408 24.7476C8.5624 24.7163 8.49422 24.7 8.42506 24.7C8.3559 24.7 8.28772 24.7163 8.22604 24.7476C8.16436 24.7789 8.11092 24.8243 8.07006 24.8801C7.93006 25.0821 7.73094 25.2358 7.50006 25.3201C6.99704 25.2169 6.48224 25.1832 5.97006 25.2201C5.82006 25.2201 5.61006 25.3101 5.56006 25.0601C5.97006 24.6801 6.37006 24.2801 6.80006 23.9301C7.23006 23.5801 7.20006 23.4701 6.80006 23.2201C6.73493 23.1843 6.67447 23.1407 6.62006 23.0901Z" fill="#EF4C23"/>
<path d="M18.04 43.1C17.6613 43.1964 17.27 43.2335 16.88 43.21C16.72 43.21 16.54 43.15 16.42 43.32C15.7583 41.9929 15.242 40.5981 14.88 39.16C14.81 38.91 14.76 38.66 14.7 38.41H16.29C16.7339 40.0219 17.3195 41.5913 18.04 43.1Z" fill="#EF4C23"/>
<path d="M35.2699 24.2801C34.4054 24.4016 33.5302 24.4284 32.6599 24.3601C32.2218 24.4372 31.7712 24.4028 31.3499 24.2601C31.4928 24.1252 31.643 23.9983 31.7999 23.8801C32.0799 23.7101 32.0699 23.5701 31.7999 23.3801C31.5299 23.1901 31.0299 22.7901 30.6399 22.4801C30.8302 22.3785 31.0444 22.3301 31.2599 22.3401H32.9599C33.2099 22.6301 33.4499 22.6201 33.6999 22.3401C33.8057 22.2339 33.9231 22.14 34.0499 22.0601C34.1899 22.2701 34.3999 22.1701 34.5899 22.1901C35.0799 22.2401 35.5899 22.0701 36.0499 22.3101C35.7299 22.7601 35.1899 22.9701 34.8399 23.4101C34.6299 23.6701 34.6399 23.7501 34.8399 23.9201C34.9924 24.0287 35.1362 24.149 35.2699 24.2801Z" fill="#EF4C23"/>
<path d="M16.33 8.77H14.73C15.0455 7.34848 15.5011 5.96171 16.09 4.63H17.81C17.2092 5.96922 16.7144 7.35346 16.33 8.77Z" fill="#EF4C23"/>
<path d="M26.9499 8.39999H25.3899C25.2399 7.94999 25.0699 7.50999 24.9399 7.04999C24.6699 6.15999 24.2399 5.31999 23.9399 4.44999C24.0599 4.26999 24.2399 4.33999 24.3999 4.32999C24.779 4.36054 25.1605 4.33015 25.5299 4.23999C26.1674 5.56508 26.6442 6.96167 26.9499 8.39999Z" fill="#EF4C23"/>
<path d="M5.55008 25.13C5.55008 25.38 5.81008 25.28 5.96008 25.29C6.47225 25.2532 6.98705 25.2868 7.49007 25.39C7.47155 25.447 7.44458 25.501 7.41007 25.55C6.41007 26.43 5.49008 27.42 4.53008 28.36C4.35008 28.11 4.08008 28.19 3.83008 28.15C3.58008 28.11 3.13008 28.3 2.83008 28.01C3.6392 26.9624 4.55034 25.9976 5.55008 25.13Z" fill="#EF4C23"/>
<path d="M40.9201 16.35C40.3429 17.5318 39.5874 18.6179 38.6801 19.57C38.6001 19.38 38.4201 19.39 38.2501 19.39H36.8201C37.6854 18.3934 38.4934 17.3484 39.2401 16.26C39.8015 16.2099 40.3672 16.2402 40.9201 16.35Z" fill="#EF4C23"/>
<path d="M36.8201 19.38H38.2501C38.4201 19.38 38.6001 19.38 38.6801 19.56C37.8897 20.5401 37.0129 21.447 36.0601 22.27C35.5901 22.03 35.0601 22.2 34.6001 22.15C34.4101 22.15 34.2001 22.23 34.0601 22.02L36.8201 19.38Z" fill="#EF4C23"/>
<path d="M2.83998 28.04C3.12998 28.33 3.49998 28.14 3.83998 28.18C4.17998 28.22 4.35999 28.18 4.53999 28.39C3.73072 29.3345 2.99206 30.3372 2.32999 31.39C2.19999 31.23 2.01999 31.29 1.85999 31.29C1.4804 31.317 1.09894 31.2832 0.72998 31.19C1.2558 30.0314 1.96865 28.9672 2.83998 28.04Z" fill="#EF4C23"/>
<path d="M41.74 33.97H40.19C40.19 33.7 40.19 33.43 40.11 33.16C39.8774 32.2722 39.5025 31.428 39 30.66C39.3767 30.5525 39.7705 30.5186 40.16 30.56C40.33 30.56 40.53 30.62 40.65 30.41C41.2991 31.3978 41.691 32.5322 41.79 33.71C41.7889 33.799 41.772 33.887 41.74 33.97Z" fill="#EF4C23"/>
<path d="M40.6499 30.41C40.5299 30.62 40.3299 30.54 40.1599 30.56C39.7704 30.5185 39.3766 30.5525 38.9999 30.66C38.3699 29.72 37.6399 28.87 36.9199 27.99C36.9199 27.69 37.2099 27.82 37.3899 27.79C37.7899 27.73 38.2399 27.94 38.5899 27.6C39.3978 28.4414 40.0905 29.3863 40.6499 30.41Z" fill="#EF4C23"/>
<path d="M4.71 19.11C4.31 19.41 3.84 19.26 3.4 19.29C3.22014 19.2999 3.03986 19.2999 2.86 19.29C2.13017 18.489 1.50515 17.5986 1 16.64C1.33 16.39 1.71 16.56 2.07 16.52C2.26 16.52 2.48 16.52 2.59 16.33C3.24 17.31 3.97 18.21 4.71 19.11Z" fill="#EF4C23"/>
<path d="M0.719982 31.2C1.08894 31.2931 1.47039 31.3269 1.84998 31.3C2.00998 31.3 2.18998 31.24 2.31998 31.4L2.12998 31.82C1.6788 32.614 1.51295 33.5386 1.65998 34.44H0.0899775C-0.0841835 33.489 0.0525666 32.5072 0.479977 31.64C0.547931 31.487 0.6282 31.3399 0.719982 31.2Z" fill="#EF4C23"/>
<path d="M40.92 16.35C40.3676 16.2368 39.8019 16.2031 39.24 16.25C39.8229 15.3361 40.1508 14.2831 40.19 13.2H41.74C41.8136 14.0326 41.658 14.8695 41.29 15.62C41.1868 15.873 41.0631 16.1171 40.92 16.35Z" fill="#EF4C23"/>
<path d="M2.59 16.34C2.48 16.58 2.26 16.5 2.07 16.53C1.71 16.53 1.33 16.4 1 16.65C0.37772 15.7072 0.0313557 14.6092 0 13.48H1.55C1.56384 13.7355 1.59727 13.9896 1.65 14.24C1.89687 14.9679 2.21158 15.671 2.59 16.34Z" fill="#EF4C23"/>
<path d="M13.33 17.04C13.39 15.91 13.57 14.79 13.72 13.68C13.72 13.43 13.72 13.28 13.48 13.2C13.24 13.12 12.8 12.95 12.48 12.82C12.48 12.54 12.74 12.61 12.91 12.61H15.39C15.5889 12.6326 15.7901 12.5979 15.97 12.51C17.57 13.12 19.12 13.86 20.68 14.57C20.7636 14.6046 20.8548 14.6164 20.9445 14.6041C21.0341 14.5918 21.1188 14.5558 21.19 14.5C22.64 13.8 24.1 13.13 25.6 12.5L25.99 12.36C26.11 12.54 26.29 12.48 26.45 12.48H29.1C29.27 12.48 29.49 12.42 29.52 12.69C29.157 12.8393 28.7865 12.9694 28.41 13.08C28.343 13.087 28.2784 13.109 28.2211 13.1442C28.1637 13.1795 28.115 13.2273 28.0785 13.2839C28.0421 13.3405 28.0188 13.4046 28.0104 13.4714C28.002 13.5382 28.0087 13.6061 28.03 13.67C28.13 14.35 28.2 15.03 28.28 15.67H26.75C26.68 15.2 26.6 14.73 26.56 14.26C26.52 13.79 26.44 13.77 26.05 13.94C25.05 14.42 23.98 14.86 22.94 15.32C22.86 15.32 22.72 15.37 22.72 15.53L24.53 16.53C24.4655 16.6051 24.3832 16.6628 24.2906 16.6978C24.1979 16.7327 24.098 16.7438 24 16.73H22.43C22.27 16.73 22.07 16.66 22.03 16.92C21.77 16.78 21.5 16.67 21.26 16.51C21.1402 16.4159 20.9923 16.3648 20.84 16.3648C20.6877 16.3648 20.5398 16.4159 20.42 16.51C20.08 16.72 19.71 16.89 19.36 17.07C19.3 16.82 19.1 16.91 18.95 16.9H17.15C17.01 16.9 16.83 16.96 16.78 16.74L18.78 15.63C18.87 15.58 19 15.55 19.01 15.43C19.02 15.31 18.86 15.29 18.77 15.24C17.77 14.76 16.77 14.34 15.77 13.93C15.27 13.72 15.24 13.75 15.19 14.3C15.11 15.17 14.99 16.03 14.89 16.9L13.33 17.04Z" fill="#EF4C23"/>
<path d="M12.5601 34.36C12.6576 34.314 12.7577 34.2739 12.8601 34.24C13.7801 33.93 13.7801 33.93 13.6501 32.98L13.4401 31.21H14.9601C15.0401 31.79 15.1601 32.36 15.2001 32.94C15.2401 33.52 15.4001 33.33 15.7101 33.2C16.4101 32.89 17.1201 32.61 17.8201 32.32C17.9401 32.46 18.1001 32.41 18.2501 32.41C18.9101 32.41 19.5801 32.41 20.2501 32.41C20.3473 32.393 20.4472 32.4016 20.5402 32.435C20.6331 32.4683 20.7157 32.5251 20.7801 32.6C19.2175 33.3944 17.6154 34.1087 15.9801 34.74C15.9801 34.46 15.7201 34.54 15.5501 34.54H12.9701C12.8201 34.52 12.6201 34.61 12.5601 34.36Z" fill="#EF4C23"/>
<path d="M28.1699 32.4101C28.1699 32.7901 28.1699 33.1701 28.0599 33.5501C27.9499 33.9301 28.0599 34.0001 28.3999 34.0701C28.7399 34.1401 28.8599 34.2401 29.0899 34.3201C29.0899 34.6001 28.8199 34.5201 28.6599 34.5201H26.0899C25.9399 34.5201 25.7299 34.4301 25.6699 34.6801C24.1241 34.0977 22.6117 33.43 21.1399 32.6801C21.1999 32.4301 21.4099 32.5101 21.5599 32.5101H23.5599C23.7199 32.5101 23.9199 32.5701 23.9499 32.3101L25.6999 33.0501C26.4999 33.3801 26.4999 33.3801 26.6999 32.5501C26.6999 32.5501 26.6999 32.4701 26.6999 32.4201L28.1699 32.4101Z" fill="#EF4C23"/>
<path d="M21.9399 30.27C23.1799 29.55 24.4199 28.85 25.6399 28.13C26.1623 27.8366 26.6605 27.5022 27.1299 27.13H29.0599C29.3202 27.1232 29.58 27.1569 29.8299 27.23C29.7013 27.3595 29.5527 27.4675 29.3899 27.55C29.0983 27.6778 28.8564 27.8974 28.7011 28.1755C28.5458 28.4535 28.4857 28.7747 28.5299 29.09C28.5299 29.48 28.4599 29.88 28.4199 30.27H26.8899C26.8299 29.93 27.0299 29.59 26.8899 29.21L24.6199 30.52C24.4799 30.26 24.2299 30.28 23.9899 30.27H21.9399Z" fill="#EF4C23"/>
<path d="M27.19 23.27C27.19 22.49 27.12 21.7 27.19 20.92C27.19 20.36 27.13 19.92 26.55 19.66C26.55 19.4 26.8 19.49 26.95 19.48C27.6184 19.5212 28.2892 19.4876 28.95 19.38C30.3645 20.2946 31.7204 21.2965 33.01 22.38H31.31C31.0945 22.3701 30.8804 22.4185 30.69 22.52L28.76 21.2V23.3L27.19 23.27Z" fill="#EF4C23"/>
<path d="M19.3901 17.25C17.8701 18.04 16.3901 18.95 14.9801 19.86C14.8401 19.95 14.6701 20.01 14.6601 20.22H12.3901C12.2076 20.2358 12.0243 20.2012 11.8601 20.12C12.1901 19.88 12.5101 19.61 12.8601 19.4C12.9832 19.3254 13.0842 19.2194 13.1528 19.0929C13.2213 18.9663 13.2549 18.8238 13.2501 18.68C13.2501 18.14 13.3401 17.61 13.3801 17.08H14.9101V18.08L16.9101 16.95C16.9101 17.17 17.1401 17.11 17.2801 17.11H19.0801C19.1301 17.09 19.3301 17.04 19.3901 17.25Z" fill="#EF4C23"/>
<path d="M13.05 25.2V23.08C13.5564 23.0034 14.0704 22.9899 14.58 23.04V25.25L13.05 25.2Z" fill="#EF4C23"/>
<path d="M13.0501 25.2H14.5901C14.6383 25.6851 14.6617 26.1724 14.6601 26.66C14.6296 26.8379 14.6618 27.0208 14.7512 27.1776C14.8405 27.3345 14.9815 27.4554 15.1501 27.52C15.2833 27.5916 15.4075 27.6789 15.5201 27.78C15.3601 27.96 15.1501 27.86 14.9601 27.88C14.3242 27.8299 13.6845 27.8703 13.0601 28C11.9346 27.3019 10.8495 26.5407 9.81007 25.72L9.32007 25.32C9.79007 24.95 10.3201 25.18 10.8501 25.11C11.0301 25.11 11.2601 25.23 11.3601 24.95L13.0501 26.11V25.2Z" fill="#EF4C23"/>
<path d="M28.9101 19.38C28.2492 19.4876 27.5784 19.5212 26.9101 19.48C26.7601 19.48 26.5601 19.4 26.5101 19.66C25.0601 18.75 23.5701 17.92 22.0701 17.09C22.0701 16.83 22.3101 16.9 22.4701 16.9H24.0401C24.1381 16.9138 24.238 16.9027 24.3306 16.8678C24.4233 16.8328 24.5056 16.7751 24.5701 16.7L26.9701 18.04L26.7801 15.75H28.3101C28.4101 16.75 28.5301 17.75 28.6001 18.75C28.5981 18.8721 28.6252 18.9929 28.6791 19.1024C28.733 19.2119 28.8121 19.3071 28.9101 19.38Z" fill="#EF4C23"/>
<path d="M21.9399 30.27H24.0199C24.2599 30.27 24.5099 30.27 24.6499 30.52C23.9485 30.8395 23.2789 31.2245 22.6499 31.67L23.8799 32.28C23.8799 32.54 23.6499 32.48 23.4899 32.48H21.4899C21.3399 32.48 21.1299 32.4 21.0699 32.65L20.7099 32.57C20.6456 32.4952 20.5629 32.4383 20.47 32.405C20.3771 32.3717 20.2772 32.3631 20.1799 32.38C19.5099 32.38 18.8399 32.38 18.1799 32.38C18.0299 32.38 17.8699 32.43 17.7499 32.29L19.0399 31.64L17.1899 30.59C17.376 30.4858 17.5868 30.434 17.7999 30.44H19.4399C19.5999 30.44 19.7899 30.5 19.8899 30.31C20.1718 30.567 20.5415 30.7061 20.9229 30.6987C21.3043 30.6913 21.6683 30.5378 21.9399 30.27Z" fill="#EF4C23"/>
<path d="M19.9601 30.33C19.8601 30.52 19.6701 30.46 19.5101 30.46H17.8701C17.6599 30.4527 17.452 30.5047 17.2701 30.61L14.8201 29.2L14.9601 31.2H13.4401L13.2001 28.6C13.2001 28.39 13.2001 28.16 13.0601 27.99C13.6845 27.8603 14.3242 27.8199 14.9601 27.87C15.1501 27.87 15.3601 27.95 15.5201 27.77L19.9601 30.33Z" fill="#EF4C23"/>
<path d="M26.8899 30.28H28.3899C28.3714 30.9961 28.2878 31.7091 28.1399 32.41H26.6299C26.7399 31.7 26.8099 31.04 26.8899 30.28Z" fill="#EF4C23"/>
<path d="M17 23.27C17.0634 22.5405 17.3305 21.8434 17.7707 21.2582C18.2109 20.673 18.8066 20.2232 19.49 19.96C20.0078 19.7642 20.5611 19.6799 21.1138 19.7127C21.6664 19.7456 22.2059 19.8948 22.6968 20.1507C23.1877 20.4066 23.6191 20.7632 23.9626 21.1974C24.3061 21.6316 24.554 22.1334 24.69 22.67C24.7426 22.8621 24.7662 23.061 24.76 23.26H23.24C23.1554 22.6695 22.8484 22.1337 22.3819 21.7619C21.9154 21.3902 21.3245 21.2107 20.73 21.26C20.1814 21.2872 19.6601 21.5081 19.2591 21.8835C18.8581 22.2589 18.6033 22.7644 18.54 23.31C18.0314 23.2218 17.5125 23.2083 17 23.27Z" fill="#EF4C23"/>
<path d="M24.27 25.57C23.9558 26.1909 23.4708 26.709 22.8719 27.0633C22.2731 27.4177 21.5854 27.5935 20.89 27.57C20.1937 27.5984 19.504 27.4247 18.9042 27.0698C18.3045 26.7149 17.8202 26.194 17.51 25.57C18.1304 25.4617 18.7616 25.4282 19.39 25.47C19.596 25.6142 19.8133 25.7413 20.04 25.85C20.4614 25.9823 20.9092 26.0067 21.3425 25.9211C21.7757 25.8355 22.1806 25.6426 22.52 25.36C22.5554 25.4189 22.6077 25.4657 22.6702 25.4943C22.7327 25.5228 22.8023 25.5318 22.87 25.52C23.3363 25.4613 23.8091 25.4781 24.27 25.57Z" fill="#EF4C23"/>
<path d="M24.27 25.5701C23.8064 25.4948 23.3337 25.4948 22.87 25.5701C22.8024 25.5819 22.7327 25.5729 22.6702 25.5443C22.6077 25.5158 22.5554 25.469 22.52 25.4101C22.781 25.1303 22.98 24.7987 23.104 24.4369C23.2281 24.075 23.2744 23.691 23.24 23.3101H24.76C24.8851 24.0982 24.7103 24.9045 24.27 25.5701Z" fill="#EF4C23"/>
<path d="M19.3899 25.48C18.7615 25.4382 18.1303 25.4717 17.5099 25.58C17.0611 24.8991 16.8795 24.0765 16.9999 23.27C17.5149 23.2247 18.0337 23.255 18.5399 23.36C18.5062 23.7552 18.5655 24.1528 18.7131 24.5209C18.8607 24.8891 19.0925 25.2175 19.3899 25.48Z" fill="#EF4C23"/>
</svg>
