<svg width="45" height="34" viewBox="0 0 45 34" fill="none" xmlns="http://www.w3.org/2000/svg">
<path d="M0 2.6629C0.14 2.6629 0.100001 2.4929 0.130001 2.4129C0.333789 1.70964 0.765675 1.09412 1.35767 0.663249C1.94966 0.232378 2.66815 0.0106255 3.4 0.0329004C6.14 0.0329004 8.87 0.0329004 11.61 0.0329004C12.11 0.0329004 12.41 0.2829 12.42 0.6729C12.43 1.0629 12.11 1.3529 11.59 1.3529H3.5C3.20522 1.3219 2.90723 1.35682 2.62759 1.45512C2.34796 1.55342 2.09367 1.71264 1.88312 1.92128C1.67257 2.12991 1.51103 2.38274 1.41018 2.66146C1.30933 2.94019 1.2717 3.23785 1.3 3.5329C1.3 4.6929 1.3 5.8529 1.3 7.0029C1.3 7.3729 1.4 7.4429 1.75 7.4429C10.3567 7.4429 18.9667 7.4429 27.58 7.4429C27.7232 7.43292 27.8668 7.43292 28.01 7.4429C28.1782 7.46057 28.3326 7.54412 28.4394 7.67529C28.5462 7.80646 28.5968 7.97458 28.58 8.1429C28.58 8.22341 28.5639 8.3031 28.5325 8.37723C28.5011 8.45136 28.4551 8.51841 28.3973 8.5744C28.3394 8.63038 28.2709 8.67415 28.1958 8.7031C28.1206 8.73205 28.0405 8.74558 27.96 8.7429H1.78C1.37 8.7429 1.29 8.8529 1.29 9.2329C1.29 16.2929 1.29 23.3629 1.29 30.4229C1.23509 30.9192 1.36778 31.418 1.662 31.8214C1.95622 32.2248 2.39069 32.5036 2.88 32.6029C3.0529 32.6203 3.22711 32.6203 3.4 32.6029H8.91C9.05265 32.5831 9.19736 32.5831 9.34 32.6029C9.41969 32.6162 9.49595 32.6452 9.56435 32.6882C9.63274 32.7312 9.69192 32.7873 9.73843 32.8534C9.78495 32.9194 9.81788 32.9941 9.83532 33.0729C9.85276 33.1518 9.85435 33.2334 9.84 33.3129C9.8387 33.3891 9.8224 33.4642 9.79205 33.5341C9.76169 33.604 9.71787 33.6672 9.66308 33.7201C9.60829 33.7731 9.54361 33.8147 9.47273 33.8426C9.40186 33.8705 9.32617 33.8842 9.25 33.8829C8.74 33.8829 8.25 33.8829 7.73 33.8829C6.32 33.8829 4.92 33.8829 3.52 33.8829C2.75469 33.9324 1.99585 33.7154 1.37241 33.2687C0.748967 32.8221 0.299372 32.1734 0.100002 31.4329C0.100002 31.4329 0.1 31.3229 0 31.3129V2.6629Z" fill="#EF4C23"/>
<path d="M27.0201 33.9429H12.8201C12.1601 33.9429 11.8201 33.7329 11.8201 33.3029C11.8201 32.8729 12.1601 32.6229 12.8201 32.6229C22.1701 32.6229 31.5101 32.6229 40.8201 32.6229C41.1251 32.6357 41.4294 32.5849 41.7137 32.4737C41.998 32.3625 42.2561 32.1934 42.4715 31.977C42.6868 31.7607 42.8549 31.5019 42.9648 31.2171C43.0747 30.9324 43.1242 30.6278 43.1101 30.3229C43.1101 23.2762 43.1101 16.2295 43.1101 9.18286C43.1101 8.77286 42.9801 8.72287 42.6301 8.72287H31.2201C31.0536 8.71799 30.8951 8.65034 30.7764 8.5335C30.6577 8.41665 30.5876 8.25925 30.5801 8.09286C30.5816 7.92574 30.6447 7.76505 30.7572 7.64146C30.8697 7.51788 31.0238 7.44006 31.1901 7.42286C31.3201 7.42286 31.4501 7.42286 31.5801 7.42286C35.3001 7.42286 39.0201 7.42286 42.7401 7.42286C43.0701 7.42286 43.1701 7.35286 43.1701 7.00286C43.1701 5.85286 43.1701 4.69286 43.1701 3.53286C43.1813 3.23832 43.1316 2.94462 43.024 2.6702C42.9164 2.39577 42.7533 2.14653 42.5448 1.9381C42.3364 1.72967 42.0872 1.56655 41.8127 1.45896C41.5383 1.35137 41.2446 1.30163 40.9501 1.31286C32.4801 1.31286 24.0101 1.31286 15.5501 1.31286C15.3902 1.32285 15.2299 1.32285 15.0701 1.31286C14.9036 1.29277 14.7518 1.20818 14.647 1.07728C14.5423 0.946389 14.4931 0.779635 14.5101 0.612864C14.5087 0.532385 14.5236 0.452457 14.5537 0.377837C14.5839 0.303217 14.6288 0.235431 14.6857 0.178515C14.7426 0.1216 14.8104 0.0767181 14.885 0.0465418C14.9597 0.0163654 15.0396 0.00151058 15.1201 0.00286347H15.4601C23.9401 0.00286347 32.4601 0.00286347 40.9001 0.00286347C41.7199 -0.0306957 42.5245 0.231632 43.1671 0.741982C43.8096 1.25233 44.2472 1.97668 44.4001 2.78286C44.4203 3.02912 44.4203 3.27661 44.4001 3.52286V30.4329C44.426 30.8997 44.3533 31.3669 44.1867 31.8038C44.0201 32.2407 43.7634 32.6377 43.4332 32.9688C43.103 33.2999 42.7068 33.5578 42.2704 33.7256C41.8339 33.8934 41.367 33.9675 40.9001 33.9429C36.3101 33.9529 31.6701 33.9429 27.0201 33.9429Z" fill="#EF4C23"/>
<path d="M19.01 19.0329V15.2929C19.01 14.7929 19.26 14.4929 19.66 14.4929C20.06 14.4929 20.32 14.8029 20.32 15.3029C20.32 16.1629 20.32 17.0329 20.32 17.9029C20.32 18.1429 20.32 18.2229 20.63 18.2229C21.76 18.2229 22.88 18.2229 24.01 18.2229C24.3 18.2229 24.34 18.1229 24.34 17.8729C24.34 17.0229 24.34 16.1729 24.34 15.3129C24.34 14.8229 24.6 14.5029 24.99 14.4929C25.38 14.4829 25.66 14.7929 25.66 15.2829C25.66 17.7729 25.66 20.2829 25.66 22.7429C25.66 23.2529 25.41 23.5229 24.99 23.5129C24.57 23.5029 24.35 23.2229 24.34 22.7429C24.34 21.7429 24.34 20.8329 24.34 19.8829C24.34 19.6229 24.28 19.5329 24.01 19.5429C22.89 19.5429 21.78 19.5429 20.67 19.5429C20.36 19.5429 20.32 19.6529 20.32 19.9129C20.32 20.8529 20.32 21.7929 20.32 22.7329C20.32 23.2429 20.08 23.5229 19.65 23.5229C19.22 23.5229 19.01 23.2529 19.01 22.7229V19.0329Z" fill="#EF4C23"/>
<path d="M28.49 18.9729V15.4129C28.49 14.7129 28.72 14.4829 29.49 14.4929C30.2258 14.443 30.9642 14.443 31.7 14.4929C32.4105 14.5681 33.0666 14.9084 33.5374 15.4459C34.0082 15.9834 34.2591 16.6786 34.24 17.3929C34.2018 18.1305 33.8836 18.8258 33.3502 19.3369C32.8169 19.8479 32.1086 20.1362 31.37 20.1429C31.01 20.1429 30.65 20.1429 30.29 20.1429C29.93 20.1429 29.86 20.1929 29.88 20.5329C29.88 21.2529 29.88 21.9829 29.88 22.7029C29.88 23.2429 29.57 23.5229 29.11 23.4629C28.65 23.4029 28.55 23.1429 28.54 22.6629L28.49 18.9729ZM29.84 17.3329C29.84 17.7329 29.84 18.1429 29.84 18.5429C29.84 18.7529 29.84 18.8629 30.12 18.8429C30.55 18.8429 30.99 18.8429 31.42 18.8429C31.7978 18.8252 32.1547 18.6645 32.4184 18.3933C32.6821 18.1222 32.8328 17.761 32.84 17.3829C32.8467 17.1872 32.8147 16.9921 32.7459 16.8087C32.6772 16.6254 32.5729 16.4574 32.4392 16.3144C32.3055 16.1714 32.1448 16.0561 31.9665 15.9752C31.7882 15.8943 31.5957 15.8493 31.4 15.8429C30.97 15.8429 30.54 15.8429 30.1 15.8429C29.88 15.8429 29.79 15.8429 29.81 16.1229C29.85 16.5229 29.84 16.9229 29.84 17.3329Z" fill="#EF4C23"/>
<path d="M11.3999 19.0029C11.3999 17.7529 11.3999 16.5129 11.3999 15.2629C11.3851 15.1652 11.3921 15.0654 11.4203 14.9707C11.4486 14.876 11.4974 14.7888 11.5634 14.7152C11.6293 14.6416 11.7107 14.5835 11.8017 14.5451C11.8928 14.5066 11.9912 14.4888 12.0899 14.4929C12.9569 14.448 13.826 14.4681 14.6899 14.5529C15.3517 14.657 15.9551 14.9925 16.3927 15.4997C16.8304 16.007 17.0739 16.653 17.0799 17.3229C17.0738 17.9928 16.8335 18.6396 16.4007 19.151C15.9678 19.6623 15.3697 20.0062 14.7099 20.1229C14.1491 20.1876 13.584 20.2077 13.0199 20.1829C12.7699 20.1829 12.6999 20.2529 12.7099 20.5029C12.7099 21.2562 12.7099 22.0062 12.7099 22.7529C12.7099 23.2429 12.4799 23.5029 12.0699 23.5129C11.6599 23.5229 11.3999 23.2329 11.3999 22.7329V19.0029ZM12.7199 17.3229C12.7199 17.7329 12.7199 18.1329 12.7199 18.5329C12.7199 18.7429 12.7199 18.8629 12.9999 18.8529C13.4699 18.8529 13.9299 18.8529 14.3899 18.8529C14.6939 18.8235 14.9818 18.7027 15.2157 18.5063C15.4496 18.3099 15.6184 18.0472 15.6999 17.7529C15.7723 17.4728 15.7627 17.1778 15.6723 16.9031C15.5819 16.6283 15.4145 16.3852 15.1899 16.2029C14.8272 15.9359 14.3777 15.8146 13.9299 15.8629C13.5399 15.8629 13.0299 15.7429 12.7899 15.9329C12.5499 16.1229 12.7399 16.6629 12.7199 17.0529C12.6899 17.1229 12.6999 17.2229 12.6999 17.3229H12.7199Z" fill="#EF4C23"/>
<path d="M8.83011 14.2329C8.79301 14.4666 8.68476 14.6831 8.52012 14.8529C7.45012 16.1429 6.39011 17.4429 5.31011 18.7229C5.13011 18.9329 5.15011 19.0529 5.31011 19.2529C6.40011 20.6029 7.50012 21.8829 8.59012 23.1929C8.7096 23.2999 8.7887 23.4448 8.81418 23.6031C8.83967 23.7615 8.80999 23.9238 8.73012 24.0629C8.66412 24.1775 8.56429 24.2688 8.44432 24.3243C8.32435 24.3798 8.19014 24.3968 8.06012 24.3729C7.96815 24.3572 7.88018 24.3235 7.80125 24.2737C7.72232 24.2239 7.65397 24.1591 7.60011 24.0829C6.34011 22.6029 5.07011 21.0329 3.82011 19.4929C3.48011 19.0929 3.49011 18.8729 3.82011 18.4929C5.08011 16.9629 6.35011 15.4329 7.60011 13.9029C7.68163 13.7716 7.80432 13.671 7.94903 13.6167C8.09375 13.5624 8.25235 13.5576 8.40011 13.6029C8.52903 13.6492 8.64002 13.7351 8.71724 13.8482C8.79446 13.9614 8.83396 14.096 8.83011 14.2329Z" fill="#EF4C23"/>
<path d="M36.6101 24.3729C36.4839 24.3824 36.3578 24.3518 36.2501 24.2853C36.1423 24.2189 36.0583 24.12 36.0101 24.0029C35.9518 23.8869 35.9301 23.7559 35.948 23.6273C35.9658 23.4987 36.0224 23.3786 36.1101 23.2829L38.0401 20.9429C38.5001 20.3829 38.9501 19.8229 39.4301 19.2829C39.4722 19.2472 39.5061 19.2028 39.5293 19.1527C39.5525 19.1027 39.5646 19.0481 39.5646 18.9929C39.5646 18.9377 39.5525 18.8832 39.5293 18.8331C39.5061 18.783 39.4722 18.7386 39.4301 18.7029C38.4301 17.4929 37.4301 16.2729 36.4301 15.0629L36.1501 14.7329C36.0827 14.6666 36.03 14.5868 35.9957 14.4987C35.9613 14.4105 35.946 14.3162 35.9507 14.2217C35.9554 14.1272 35.9801 14.0348 36.0231 13.9506C36.0661 13.8664 36.1264 13.7922 36.2001 13.7329C36.275 13.6732 36.3616 13.63 36.4543 13.606C36.547 13.5821 36.6438 13.578 36.7382 13.5941C36.8326 13.6101 36.9225 13.6459 37.0021 13.6992C37.0817 13.7524 37.1492 13.8218 37.2001 13.9029C37.3601 14.0829 37.5101 14.2729 37.6701 14.4629L40.9301 18.4629C41.0173 18.5302 41.0879 18.6165 41.1364 18.7154C41.185 18.8142 41.2102 18.9228 41.2102 19.0329C41.2102 19.143 41.185 19.2517 41.1364 19.3505C41.0879 19.4493 41.0173 19.5356 40.9301 19.6029L37.2601 23.9629C37.0901 24.1729 36.9201 24.4029 36.6101 24.3729Z" fill="#EF4C23"/>
<path d="M10.4001 4.39289C10.3955 4.70387 10.2733 5.00157 10.0581 5.22608C9.84285 5.45059 9.55055 5.58523 9.24005 5.60289C8.92048 5.59803 8.61492 5.47095 8.38615 5.24777C8.15738 5.02458 8.0228 4.72224 8.01005 4.40289C8.00872 4.241 8.03962 4.08045 8.10096 3.93062C8.1623 3.78079 8.25285 3.64466 8.36734 3.53018C8.48182 3.4157 8.61795 3.32515 8.76778 3.26381C8.91761 3.20247 9.07815 3.17156 9.24005 3.17289C9.39634 3.17678 9.55033 3.21143 9.69323 3.27486C9.83612 3.33828 9.96511 3.42924 10.0728 3.54254C10.1806 3.65584 10.2649 3.78925 10.321 3.93516C10.3772 4.08107 10.404 4.23661 10.4001 4.39289Z" fill="#EF4C23"/>
<path d="M5.53 3.18291C5.85182 3.18555 6.15957 3.31524 6.38621 3.54375C6.61284 3.77226 6.74 4.08107 6.73999 4.40291C6.72967 4.72307 6.59584 5.02682 6.36656 5.25051C6.13727 5.47421 5.83032 5.60049 5.50999 5.60291C5.35109 5.6003 5.19425 5.56642 5.04844 5.50319C4.90263 5.43996 4.77071 5.34863 4.6602 5.23441C4.5497 5.12019 4.46277 4.98532 4.4044 4.8375C4.34603 4.68968 4.31734 4.53181 4.31999 4.37291C4.31997 4.21494 4.3514 4.05854 4.41245 3.91285C4.4735 3.76715 4.56295 3.63507 4.67558 3.5243C4.78821 3.41353 4.92176 3.3263 5.06845 3.26769C5.21515 3.20907 5.37205 3.18025 5.53 3.18291Z" fill="#EF4C23"/>
<path d="M14.15 4.3829C14.1527 4.70041 14.0305 5.00627 13.8098 5.2345C13.589 5.46273 13.2874 5.59504 12.97 5.6029C12.8081 5.60556 12.6473 5.57596 12.497 5.51584C12.3466 5.45572 12.2098 5.36627 12.0944 5.25272C11.9789 5.13917 11.8873 5.00378 11.8247 4.85444C11.7622 4.70511 11.73 4.54481 11.73 4.3829C11.7326 4.06373 11.8613 3.75852 12.0879 3.53376C12.3145 3.309 12.6208 3.18289 12.94 3.1829C13.0984 3.18158 13.2555 3.21165 13.4023 3.27136C13.549 3.33108 13.6825 3.41926 13.795 3.53082C13.9075 3.64238 13.9968 3.77512 14.0577 3.92136C14.1186 4.06761 14.15 4.22447 14.15 4.3829Z" fill="#EF4C23"/>
</svg>
