<svg width="35" height="35" viewBox="0 0 35 35" fill="none" xmlns="http://www.w3.org/2000/svg">
<path d="M5.85663e-05 16.7201V11.8601C-0.00260959 11.4015 0.085914 10.947 0.260482 10.5229C0.435051 10.0989 0.692181 9.71372 1.01692 9.38991C1.34167 9.0661 1.72754 8.81007 2.15211 8.63672C2.57668 8.46337 3.03148 8.37615 3.49006 8.38013H10.0801C10.4101 8.38013 10.4901 8.31013 10.4901 7.98013C10.4901 6.48013 10.4901 4.98013 10.4901 3.49013C10.4847 3.03118 10.571 2.57578 10.7439 2.1506C10.9168 1.72541 11.1727 1.339 11.4968 1.01398C11.8209 0.688969 12.2066 0.43189 12.6313 0.2578C13.0559 0.0837102 13.5111 -0.00388972 13.9701 0.000132485H23.7901C24.7077 0.000132485 25.5878 0.364669 26.2366 1.01354C26.8855 1.66242 27.2501 2.54249 27.2501 3.46014C27.2501 5.46014 27.2501 7.46013 27.2501 9.40013C27.2501 9.70013 27.3201 9.79014 27.6301 9.78014C28.9101 9.78014 30.1901 9.78014 31.4701 9.78014C32.3886 9.78013 33.2697 10.1443 33.9202 10.7929C34.5707 11.4415 34.9374 12.3216 34.9401 13.2401C34.9401 16.5268 34.9401 19.8168 34.9401 23.1101C34.9348 23.5645 34.8402 24.0134 34.6614 24.4312C34.4827 24.849 34.2234 25.2275 33.8984 25.5451C33.5734 25.8627 33.189 26.1131 32.7672 26.2821C32.3454 26.4511 31.8944 26.5354 31.4401 26.5301H24.8401C24.5201 26.5301 24.4301 26.6001 24.4401 26.9301C24.4401 28.4301 24.4401 29.9301 24.4401 31.4301C24.4427 31.8883 24.3546 32.3425 24.1807 32.7665C24.0069 33.1905 23.7508 33.5758 23.4273 33.9003C23.1038 34.2248 22.7191 34.4819 22.2957 34.657C21.8722 34.832 21.4183 34.9215 20.9601 34.9201H11.1401C10.2223 34.9149 9.34379 34.5473 8.69576 33.8974C8.04774 33.2475 7.68268 32.3679 7.68006 31.4501C7.68006 29.4501 7.68006 27.4501 7.68006 25.5101C7.68006 25.2001 7.61006 25.1301 7.30006 25.1301C6.02006 25.1301 4.74006 25.1301 3.46006 25.1301C2.55257 25.1251 1.68295 24.7658 1.0366 24.1288C0.390246 23.4918 0.0182989 22.6274 5.85663e-05 21.7201V16.7201ZM23.7701 25.1101H31.3201C31.6124 25.1229 31.9041 25.0747 32.1768 24.9687C32.4495 24.8626 32.6972 24.701 32.9041 24.4941C33.1109 24.2872 33.2726 24.0396 33.3786 23.7669C33.4846 23.4942 33.5328 23.2024 33.5201 22.9101C33.5201 19.7101 33.5201 16.5101 33.5201 13.3101C33.5254 13.0327 33.4756 12.7569 33.3737 12.4988C33.2718 12.2407 33.1197 12.0054 32.9263 11.8064C32.7329 11.6074 32.502 11.4487 32.2469 11.3395C31.9918 11.2303 31.7175 11.1727 31.4401 11.1701C30.1601 11.1701 28.8801 11.1701 27.6001 11.1701C27.3501 11.1701 27.2801 11.2401 27.2801 11.4901C27.2801 12.4901 27.2801 13.4901 27.2801 14.4901C27.3028 14.9707 27.225 15.4507 27.0518 15.8995C26.8785 16.3483 26.6136 16.7561 26.2739 17.0968C25.9342 17.4374 25.5272 17.7035 25.0788 17.878C24.6305 18.0525 24.1507 18.1315 23.6701 18.1101H11.4401C11.1268 18.0808 10.8109 18.121 10.5149 18.2277C10.2189 18.3344 9.95005 18.5051 9.72755 18.7276C9.50505 18.9501 9.33436 19.2189 9.22763 19.5149C9.1209 19.8109 9.08075 20.1268 9.11006 20.4401V31.1801C9.07918 31.4942 9.11815 31.8112 9.22418 32.1085C9.3302 32.4057 9.50066 32.6759 9.72334 32.8995C9.94602 33.1231 10.2154 33.2947 10.5122 33.402C10.809 33.5093 11.1259 33.5497 11.4401 33.5201H20.7401C21.0494 33.5475 21.361 33.5068 21.653 33.4011C21.945 33.2953 22.2103 33.1269 22.4304 32.9078C22.6505 32.6887 22.82 32.4241 22.927 32.1325C23.0341 31.841 23.0761 31.5296 23.0501 31.2201C23.0501 29.8001 23.0501 28.3901 23.0501 26.9801C23.0501 26.6301 22.9901 26.5201 22.6101 26.5301C20.4701 26.5301 18.3301 26.5301 16.1901 26.5301C16.054 26.5521 15.9145 26.5357 15.7873 26.4827C15.6601 26.4297 15.5502 26.3422 15.4701 26.2301C15.4011 26.1172 15.3647 25.9874 15.3647 25.8551C15.3647 25.7228 15.4011 25.5931 15.4701 25.4801C15.5379 25.3604 15.6396 25.2634 15.7623 25.2011C15.885 25.1389 16.0234 25.1142 16.1601 25.1301L23.7701 25.1101ZM11.1801 9.77013H3.63006C3.33808 9.76022 3.04721 9.81075 2.77569 9.91857C2.50417 10.0264 2.25787 10.1892 2.05223 10.3967C1.8466 10.6042 1.68607 10.852 1.58072 11.1245C1.47538 11.3969 1.42749 11.6883 1.44006 11.9801C1.44006 15.1601 1.44006 18.3468 1.44006 21.5401C1.4305 21.8265 1.47935 22.1117 1.58362 22.3786C1.6879 22.6454 1.84542 22.8882 2.04659 23.0922C2.24775 23.2961 2.48835 23.457 2.75371 23.565C3.01907 23.6729 3.30363 23.7257 3.59006 23.7201C4.84006 23.7201 6.09006 23.7201 7.34006 23.7201C7.65006 23.7201 7.69006 23.6201 7.69006 23.3501C7.69006 22.3501 7.69006 21.3501 7.69006 20.3501C7.66744 19.8691 7.74518 19.3887 7.91833 18.9394C8.09148 18.4901 8.35625 18.0817 8.6958 17.7403C9.03535 17.3988 9.44224 17.1318 9.89059 16.9562C10.3389 16.7806 10.8189 16.7002 11.3001 16.7201H23.5701C23.873 16.7423 24.1772 16.6992 24.462 16.5936C24.7468 16.488 25.0056 16.3225 25.2208 16.1082C25.4361 15.8939 25.6028 15.6358 25.7096 15.3515C25.8164 15.0671 25.8609 14.7632 25.8401 14.4601C25.8401 10.8401 25.8401 7.2168 25.8401 3.59013C25.8575 3.29141 25.8115 2.99238 25.7051 2.71271C25.5987 2.43303 25.4343 2.17905 25.2227 1.96746C25.0111 1.75587 24.7572 1.59147 24.4775 1.48508C24.1978 1.37868 23.8988 1.33269 23.6001 1.35013H14.1301C13.8278 1.33076 13.525 1.37636 13.2419 1.48387C12.9587 1.59137 12.7019 1.75829 12.4887 1.97337C12.2756 2.18846 12.1109 2.44672 12.0059 2.73078C11.9009 3.01484 11.858 3.3181 11.8801 3.62014C11.8801 5.06014 11.8801 6.50013 11.8801 7.94014C11.8801 8.27014 11.9501 8.35013 12.2801 8.34013H18.7401C18.8808 8.33013 19.0215 8.36059 19.1455 8.42792C19.2696 8.49525 19.3718 8.59664 19.4401 8.72013C19.4933 8.83133 19.5163 8.95463 19.5066 9.07755C19.4969 9.20047 19.455 9.31866 19.3849 9.42015C19.3149 9.52164 19.2193 9.60283 19.1078 9.65551C18.9963 9.70818 18.8729 9.73048 18.7501 9.72013L11.1801 9.77013Z" fill="#EF4C23"/>
<path d="M19.57 28.6302C19.7538 28.6335 19.9352 28.673 20.1038 28.7463C20.2724 28.8197 20.4249 28.9256 20.5526 29.0579C20.6803 29.1903 20.7806 29.3464 20.848 29.5175C20.9153 29.6887 20.9482 29.8714 20.945 30.0552C20.9417 30.2391 20.9022 30.4205 20.8288 30.5891C20.7554 30.7577 20.6495 30.9102 20.5172 31.0378C20.3849 31.1655 20.2287 31.2659 20.0576 31.3332C19.8865 31.4005 19.7038 31.4335 19.52 31.4302C19.1539 31.4198 18.8065 31.2663 18.5523 31.0027C18.298 30.7391 18.1572 30.3864 18.16 30.0202C18.1586 29.8356 18.1942 29.6526 18.2649 29.482C18.3355 29.3114 18.4396 29.1567 18.5711 29.0271C18.7026 28.8975 18.8587 28.7956 19.0303 28.7274C19.2019 28.6592 19.3854 28.6262 19.57 28.6302Z" fill="#EF4C23"/>
<path d="M16.7601 4.8602C16.7668 5.04512 16.736 5.2295 16.6696 5.4022C16.6032 5.5749 16.5024 5.73235 16.3735 5.86505C16.2445 5.99775 16.09 6.10295 15.9192 6.1743C15.7485 6.24566 15.5651 6.28168 15.3801 6.28021C15.1032 6.28413 14.8314 6.20588 14.599 6.05534C14.3666 5.9048 14.1841 5.68873 14.0745 5.43446C13.9649 5.18019 13.9332 4.89913 13.9834 4.62683C14.0335 4.35452 14.1632 4.1032 14.3562 3.90464C14.5492 3.70608 14.7967 3.56919 15.0675 3.5113C15.3382 3.4534 15.6201 3.47709 15.8774 3.57937C16.1347 3.68165 16.3559 3.85793 16.513 4.08591C16.6701 4.3139 16.7561 4.58335 16.7601 4.8602Z" fill="#EF4C23"/>
</svg>
