<svg width="40" height="38" viewBox="0 0 40 38" fill="none" xmlns="http://www.w3.org/2000/svg">
<path d="M18.6934 32.6993L14.2637 19.4302H25.3259C23.8553 23.8364 22.3937 28.2299 20.9197 32.6609C20.5498 33.7729 20.1791 34.8872 19.8073 36.0046C19.7552 35.8496 19.7034 35.6953 19.6518 35.5418C19.3271 34.5751 19.0121 33.6372 18.6938 32.7005C18.6937 32.7001 18.6935 32.6997 18.6934 32.6993Z" stroke="#EF4C23"/>
<path d="M27.8837 19.4202H38.2829L22.6694 35.0336L22.9627 34.1832L22.9627 34.1832L22.9643 34.1783L27.8837 19.4202Z" stroke="#EF4C23"/>
<path d="M11.7696 19.4301C13.503 24.6666 15.2474 29.9059 17.0028 35.1478L1.14414 19.4301H11.7696Z" stroke="#EF4C23"/>
<path d="M27.0299 16.4831L22.7242 12.1774L31.28 12.2329L27.0299 16.4831Z" stroke="#EF4C23"/>
<path d="M9.65973 13.5685C9.21391 13.1222 8.76843 12.6762 8.32384 12.2302H16.8928L12.6008 16.5222C11.6229 15.5339 10.6405 14.5504 9.65973 13.5685ZM12.4048 16.7232C12.4048 16.7232 12.4058 16.7221 12.4079 16.7204C12.4058 16.7224 12.4048 16.7233 12.4048 16.7232ZM12.7783 16.7003C12.7783 16.7003 12.7777 16.6999 12.7766 16.6989C12.7777 16.6998 12.7783 16.7003 12.7783 16.7003Z" stroke="#EF4C23"/>
<path d="M16.5751 15.9143C17.6492 14.8423 18.7186 13.775 19.7715 12.7164L24.0815 16.9702H15.5174C15.8702 16.6178 16.2229 16.2658 16.5751 15.9143ZM19.9962 12.4806C19.9962 12.4807 19.9949 12.4821 19.9925 12.4843C19.995 12.4817 19.9962 12.4805 19.9962 12.4806ZM19.569 12.5167C19.5672 12.5153 19.5663 12.5145 19.5663 12.5144C19.5663 12.5144 19.5672 12.515 19.569 12.5167Z" stroke="#EF4C23"/>
<path d="M1.26169 16.9702L5.43948 12.8157L9.60951 16.9702H1.26169Z" stroke="#EF4C23"/>
<path d="M38.4547 16.9701H29.9169L34.1413 12.7457L38.4547 16.9701Z" stroke="#EF4C23"/>
<path d="M20.0298 7.16015V7.17566L20.0308 7.19114C20.0373 7.29543 20.0244 7.40002 19.993 7.49966L19.9907 7.50687L19.9887 7.51414C19.9789 7.54867 19.9578 7.57892 19.9288 7.60002C19.8998 7.62112 19.8645 7.63186 19.8287 7.63051L19.8027 7.62953L19.7768 7.63124C19.7378 7.63382 19.6991 7.62286 19.6672 7.60022C19.6361 7.57813 19.6133 7.54624 19.6025 7.5097C19.5566 7.33014 19.5443 7.1436 19.5663 6.95953L19.5698 6.92994V6.90015V1.07015V1.05719L19.5691 1.04426C19.565 0.964904 19.565 0.885396 19.5691 0.806044L19.5709 0.77219L19.5681 0.738409C19.5655 0.707755 19.5694 0.676903 19.5795 0.647846C19.5896 0.61879 19.6057 0.592173 19.6267 0.569713C19.6477 0.54725 19.6732 0.529448 19.7015 0.517455C19.7298 0.505459 19.7604 0.499539 19.7911 0.500073L19.8006 0.500238L19.8101 0.500044C19.84 0.499431 19.8697 0.505225 19.8972 0.517042C19.9247 0.528857 19.9494 0.546417 19.9696 0.568545C19.9897 0.590674 20.0049 0.616861 20.0142 0.645346C20.0234 0.67383 20.0264 0.703956 20.023 0.733707L20.0193 0.766371L20.0199 0.799239C20.0348 1.61835 20.0329 2.43015 20.0311 3.25067C20.0304 3.52598 20.0298 3.80227 20.0298 4.08015V7.16015Z" stroke="#EF4C23"/>
<path d="M12.2223 8.68899L12.2224 8.68893L12.2166 8.6794C11.1363 6.91219 10.0493 5.14165 8.95563 3.36778L8.94789 3.35523L8.93942 3.34315C8.9233 3.32016 8.91196 3.29419 8.90606 3.26675C8.90016 3.23931 8.89982 3.21097 8.90506 3.18339C8.9103 3.15582 8.92101 3.12958 8.93657 3.10621C8.94917 3.08729 8.96474 3.07056 8.98265 3.05667C9.00462 3.04617 9.02822 3.03937 9.05249 3.03659C9.08214 3.03319 9.11216 3.03586 9.14074 3.04443C9.16932 3.05301 9.19586 3.06731 9.21875 3.08647C9.24163 3.10562 9.26038 3.12923 9.27384 3.15586L9.28329 3.17454L9.29427 3.19237C9.53046 3.5759 9.76653 3.95879 10.0024 4.34137C10.8561 5.72585 11.7073 7.1064 12.5525 8.49955L12.5525 8.49958L12.5561 8.50531C12.5762 8.5375 12.5877 8.57435 12.5894 8.61228C12.591 8.65021 12.5828 8.68793 12.5656 8.72177C12.5484 8.7556 12.5227 8.78441 12.4911 8.80537C12.4699 8.8194 12.4465 8.8296 12.422 8.83562C12.3874 8.82779 12.3543 8.81407 12.3242 8.79496C12.2823 8.76831 12.2473 8.73197 12.2223 8.68899Z" stroke="#EF4C23"/>
<path d="M30.7107 3.15444L30.7099 3.16981L30.71 3.1852C30.7107 3.25344 30.6873 3.31973 30.644 3.37242L30.6217 3.39945L30.6035 3.42931C29.5441 5.16161 28.4781 6.89057 27.4054 8.6162L27.4054 8.61619L27.4029 8.6202C27.3029 8.78453 27.2178 8.83039 27.1886 8.84026C27.1757 8.84462 27.1692 8.84413 27.1647 8.84342C27.1595 8.84259 27.1431 8.83895 27.1159 8.81997L27.109 8.81515L27.1019 8.81056C27.0736 8.79219 27.0494 8.76806 27.0311 8.73973C27.0127 8.71139 27.0005 8.6795 26.9953 8.64614C26.9901 8.61277 26.992 8.57868 27.0009 8.5461C27.0097 8.51351 27.0254 8.48317 27.0468 8.45705L27.0683 8.43083L27.086 8.40194L28.696 5.78194L30.306 3.16195L30.3288 3.1249L30.3448 3.08449C30.3633 3.03778 30.398 2.99926 30.4425 2.97593C30.4835 2.9544 30.5305 2.94711 30.5759 2.955C30.615 2.96843 30.6491 2.99372 30.6734 3.02747C30.6999 3.06434 30.713 3.10911 30.7107 3.15444Z" stroke="#EF4C23"/>
</svg>
