<svg width="40" height="38" viewBox="0 0 40 38" fill="none" xmlns="http://www.w3.org/2000/svg">
<path d="M19.81 37.5802C19.25 35.9202 18.74 34.3902 18.22 32.8602L13.75 19.4702C13.7327 19.4015 13.7092 19.3346 13.68 19.2702C13.53 18.9802 13.68 18.9302 13.93 18.9302H26.02C23.95 25.1302 21.9 31.3002 19.81 37.5802Z" fill="#EF4C23"/>
<path d="M21.49 36.9202L22.49 34.0202L27.41 19.2602C27.47 19.0702 27.51 18.9202 27.78 18.9202H39.49L21.49 36.9202Z" fill="#EF4C23"/>
<path d="M18 36.8401L0 19.0001C0.1 18.8801 0.22 18.9301 0.32 18.9301H11.77C11.8759 18.9126 11.9845 18.9374 12.0724 18.9991C12.1603 19.0608 12.2205 19.1545 12.24 19.2601C14.1467 25.0201 16.0667 30.7835 18 36.5501C18.0312 36.6387 18.0579 36.7288 18.08 36.8201L18 36.8401Z" fill="#EF4C23"/>
<path d="M32.3999 11.7402C32.3999 11.8702 32.3099 11.9102 32.2399 11.9802L27.2399 16.9802C27.0999 17.1202 27.0099 17.2202 26.8199 16.9802L21.6699 11.8302C21.6699 11.8302 21.5799 11.7602 21.6099 11.6702L32.3999 11.7402Z" fill="#EF4C23"/>
<path d="M7.16992 11.7302H18.0099C18.0099 11.8702 17.9199 11.9102 17.8599 11.9702L12.8599 16.9702C12.7299 17.1002 12.6399 17.2702 12.4099 17.0402C10.6899 15.3002 8.95992 13.5802 7.23992 11.8502C7.21209 11.813 7.18861 11.7728 7.16992 11.7302Z" fill="#EF4C23"/>
<path d="M25.2999 17.4702H14.3999C14.3999 17.3402 14.4799 17.3002 14.5399 17.2402C16.2199 15.5602 17.8999 13.8902 19.5399 12.2402C19.6499 12.1302 19.7199 11.9602 19.9299 12.1702L25.2999 17.4702Z" fill="#EF4C23"/>
<path d="M5.4398 12.1102L10.8198 17.4702H0.0498047L5.4398 12.1102Z" fill="#EF4C23"/>
<path d="M39.6798 17.4701H28.7798C28.7798 17.3501 28.8698 17.3101 28.9298 17.2501L33.9298 12.2501C34.0698 12.1101 34.1498 12.0101 34.3498 12.2501L39.6798 17.4701Z" fill="#EF4C23"/>
<path d="M20.5298 4.08015V7.16015C20.5401 7.32578 20.5198 7.49189 20.4698 7.65015C20.4296 7.79257 20.3426 7.91733 20.2229 8.00439C20.1032 8.09144 19.9577 8.13573 19.8098 8.13015C19.656 8.14033 19.5034 8.09714 19.3777 8.00788C19.252 7.91862 19.1609 7.78874 19.1198 7.64015C19.0572 7.39876 19.0402 7.14778 19.0698 6.90015C19.0698 4.96015 19.0698 3.01015 19.0698 1.07015C19.0648 0.973547 19.0648 0.876753 19.0698 0.780151C19.0614 0.679831 19.0741 0.578862 19.1072 0.483765C19.1402 0.388668 19.1928 0.301557 19.2616 0.228054C19.3304 0.154551 19.4138 0.096289 19.5066 0.0570336C19.5993 0.0177782 19.6992 -0.0016008 19.7998 0.000148864C19.901 -0.00192391 20.0015 0.0176703 20.0945 0.0576135C20.1875 0.0975567 20.2709 0.156927 20.3391 0.231743C20.4073 0.306559 20.4587 0.395092 20.4899 0.491402C20.521 0.587711 20.5312 0.68957 20.5198 0.79015C20.5398 1.89015 20.5298 2.98015 20.5298 4.08015Z" fill="#EF4C23"/>
<path d="M12.42 9.34019C12.2906 9.32891 12.1659 9.28668 12.0562 9.21706C11.9466 9.14745 11.8553 9.05249 11.79 8.94019C10.71 7.17352 9.62335 5.40352 8.53002 3.63019C8.47554 3.55249 8.43719 3.46466 8.41724 3.37189C8.39729 3.27912 8.39613 3.18329 8.41385 3.09006C8.43156 2.99684 8.46778 2.90811 8.52037 2.82912C8.57296 2.75014 8.64084 2.68249 8.72002 2.63019C8.80479 2.58169 8.89854 2.55095 8.99557 2.53984C9.0926 2.52872 9.19087 2.53746 9.28442 2.56552C9.37796 2.59358 9.46482 2.64039 9.5397 2.70308C9.61459 2.76577 9.67594 2.84304 9.72002 2.93019C10.81 4.70019 11.9 6.46019 12.98 8.24019C13.0459 8.34554 13.0834 8.46615 13.0889 8.59029C13.0943 8.71443 13.0676 8.83787 13.0112 8.94861C12.9548 9.05934 12.8708 9.15361 12.7672 9.22222C12.6636 9.29084 12.544 9.33148 12.42 9.34019Z" fill="#EF4C23"/>
<path d="M31.21 3.18017C31.2119 3.36605 31.1482 3.54664 31.03 3.69017C29.97 5.4235 28.9034 7.1535 27.83 8.88017C27.55 9.34017 27.16 9.46017 26.83 9.23017C26.7426 9.17355 26.6682 9.09912 26.6115 9.01176C26.5549 8.9244 26.5173 8.82606 26.5013 8.72319C26.4852 8.62031 26.4911 8.5152 26.5184 8.41473C26.5458 8.31427 26.594 8.22071 26.66 8.14017C27.7334 6.3935 28.8067 4.64684 29.88 2.90017C29.9426 2.74225 30.0598 2.61201 30.2103 2.53312C30.3607 2.45422 30.5345 2.43188 30.7 2.47017C30.853 2.51308 30.9868 2.60674 31.0795 2.73577C31.1722 2.8648 31.2182 3.02151 31.21 3.18017Z" fill="#EF4C23"/>
</svg>
