<svg width="64" height="56" viewBox="0 0 64 56" fill="none" xmlns="http://www.w3.org/2000/svg">
<path d="M63.4671 29.1796C63.1478 30.0895 62.644 30.9236 61.9871 31.6296C61.7971 31.7996 61.8971 32.0596 61.8971 32.2696C61.8971 38.4896 61.8971 44.7096 61.8971 50.9296C61.9311 51.9916 61.6132 53.035 60.9929 53.8976C60.3726 54.7603 59.4847 55.3938 58.4671 55.6996C58.0381 55.825 57.5941 55.8923 57.1471 55.8996H47.3871C46.6671 55.8996 46.2671 55.5796 46.2471 55.0096C46.2271 54.4396 46.6171 54.0096 47.3771 54.0096H56.7171C58.8871 54.0096 60.0271 52.8796 60.0271 50.7196V33.1696C59.9571 33.1696 59.8971 33.1696 59.8571 33.1696C55.9967 35.5285 51.747 37.181 47.3071 38.0496C43.9536 38.7769 40.545 39.2218 37.1171 39.3796C36.5971 39.3796 36.7271 39.6996 36.7171 39.9796C36.6751 40.9696 36.3117 41.9189 35.682 42.6839C35.0523 43.4489 34.1905 43.988 33.2271 44.2196C32.2998 44.4307 31.3294 44.3432 30.4547 43.9697C29.5801 43.5961 28.8459 42.9555 28.3571 42.1396C27.9329 41.4589 27.7109 40.6717 27.7171 39.8696C27.7171 39.5196 27.5971 39.4496 27.2771 39.4296C22.8379 39.2224 18.4348 38.5282 14.1471 37.3596C13.6471 37.2296 13.2071 37.0396 13.1471 36.4296C13.1273 36.2255 13.1794 36.0208 13.2945 35.851C13.4095 35.6812 13.5802 35.5569 13.7771 35.4996C13.9677 35.4301 14.1766 35.4301 14.3671 35.4996C17.2153 36.2908 20.1208 36.8591 23.0571 37.1996C24.4871 37.3596 25.9271 37.4596 27.3671 37.5996C27.6171 37.5996 27.6771 37.5296 27.6771 37.2996C27.6771 36.7296 27.6771 36.1596 27.6771 35.5896C27.6673 35.2893 27.7194 34.9902 27.8302 34.7109C27.9409 34.4316 28.1079 34.1781 28.3208 33.9661C28.5337 33.7542 28.788 33.5883 29.0678 33.4788C29.3476 33.3692 29.6469 33.3185 29.9471 33.3296C31.4571 33.3296 32.9471 33.3296 34.4671 33.3296C34.7623 33.3227 35.0557 33.376 35.3295 33.4864C35.6034 33.5967 35.8518 33.7618 36.0596 33.9715C36.2674 34.1812 36.4302 34.4311 36.5381 34.7059C36.646 34.9806 36.6967 35.2746 36.6871 35.5696C36.6871 36.1196 36.6871 36.6696 36.6871 37.2096C36.6871 37.4796 36.6871 37.5996 37.0371 37.5796C42.0446 37.3318 46.9989 36.4377 51.7771 34.9196C54.8718 33.9401 57.7792 32.4458 60.3771 30.4996C60.7593 30.2132 61.0676 29.8396 61.2763 29.41C61.4851 28.9804 61.5882 28.5071 61.5771 28.0296C61.5771 23.843 61.5771 19.653 61.5771 15.4596C61.5917 15.0566 61.522 14.655 61.3726 14.2804C61.2231 13.9059 60.9972 13.5666 60.7092 13.2843C60.4213 13.002 60.0776 12.7828 59.7001 12.6408C59.3227 12.4988 58.9198 12.4371 58.5171 12.4596H5.81714C5.41941 12.4457 5.02307 12.5137 4.65277 12.6595C4.28247 12.8053 3.94615 13.0258 3.66474 13.3072C3.38333 13.5886 3.16286 13.925 3.01704 14.2953C2.87122 14.6655 2.80317 15.0619 2.81714 15.4596C2.81714 19.6196 2.81714 23.7896 2.81714 27.9596C2.79861 28.4489 2.9001 28.9352 3.11276 29.3762C3.32542 29.8172 3.64278 30.1995 4.03714 30.4896C5.96407 31.9431 8.07596 33.1336 10.3171 34.0296C10.5919 34.1075 10.834 34.2724 11.0071 34.4996C11.1155 34.6618 11.1683 34.8549 11.1575 35.0496C11.1467 35.2444 11.0728 35.4304 10.9471 35.5796C10.8175 35.7524 10.6306 35.8734 10.4199 35.9211C10.2093 35.9687 9.9885 35.9398 9.79714 35.8396C8.18083 35.1848 6.61923 34.4023 5.12714 33.4996L4.39714 33.0496V50.8696C4.35206 51.3018 4.40368 51.7386 4.54826 52.1484C4.69283 52.5582 4.92675 52.9307 5.23306 53.239C5.53937 53.5472 5.91042 53.7834 6.3193 53.9305C6.72818 54.0777 7.16466 54.132 7.59714 54.0896H42.8571C43.1002 54.0746 43.344 54.0746 43.5871 54.0896C43.6992 54.0922 43.8096 54.1171 43.9119 54.163C44.0142 54.2089 44.1062 54.2747 44.1827 54.3568C44.2591 54.4388 44.3183 54.5352 44.3569 54.6405C44.3954 54.7458 44.4125 54.8577 44.4071 54.9696C44.4241 55.1968 44.3523 55.4217 44.2068 55.597C44.0613 55.7723 43.8535 55.8844 43.6271 55.9096C43.4875 55.9244 43.3468 55.9244 43.2071 55.9096C31.2671 55.9096 19.3305 55.9096 7.39714 55.9096C6.28034 55.944 5.18783 55.5794 4.31553 54.8812C3.44322 54.183 2.84819 53.1968 2.63714 52.0996C2.5654 51.6602 2.53859 51.2145 2.55714 50.7696C2.55714 44.6296 2.55714 38.4896 2.55714 32.3496C2.56354 32.166 2.53323 31.983 2.46798 31.8113C2.40273 31.6396 2.30385 31.4826 2.17714 31.3496C1.389 30.5118 0.958531 29.3997 0.977142 28.2496C0.977142 23.9396 0.977142 19.6296 0.977142 15.3196C0.9717 14.1072 1.44406 12.9415 2.29194 12.0749C3.13981 11.2084 4.29494 10.7106 5.50714 10.6896C10.3271 10.6896 15.1371 10.6896 19.9571 10.6896C20.8971 10.6896 20.8971 10.6896 20.8971 9.68962C20.8971 8.68962 20.8971 7.56962 20.8971 6.51962C20.8596 5.93343 20.9868 5.34842 21.2642 4.83067C21.5416 4.31292 21.9583 3.88305 22.4671 3.58962C24.7513 2.21641 27.314 1.37241 29.9671 1.11962C31.0763 1.00139 32.1929 0.967966 33.3071 1.01962C33.518 1.004 33.7283 1.05559 33.908 1.16699C34.0876 1.27838 34.2274 1.44384 34.3071 1.63962C34.3749 1.78846 34.3978 1.95386 34.3729 2.11551C34.3481 2.27716 34.2765 2.42804 34.1671 2.54962C34.0265 2.69657 33.851 2.80567 33.657 2.86685C33.463 2.92802 33.2567 2.93929 33.0571 2.89962C30.5566 2.75875 28.0547 3.15074 25.7171 4.04962C24.9318 4.35944 24.1783 4.74458 23.4671 5.19962C23.2625 5.31101 23.0937 5.47823 22.9804 5.68183C22.8671 5.88542 22.8139 6.117 22.8271 6.34963C22.8271 7.60963 22.8271 8.86962 22.8271 10.1296C22.8271 10.5496 22.9671 10.6496 23.3471 10.6296C23.7271 10.6096 24.5271 10.7896 24.8171 10.5296C25.1071 10.2696 24.9171 9.52963 24.9371 9.02963C24.9672 8.60349 24.9672 8.17576 24.9371 7.74962C24.8885 7.43607 24.9562 7.11556 25.1275 6.84847C25.2988 6.58139 25.5619 6.38618 25.8671 6.29962C27.8441 5.44636 29.9739 5.00406 32.1271 4.99962C34.3839 4.96688 36.6213 5.4205 38.6871 6.32962C38.9679 6.42144 39.2091 6.60618 39.3709 6.85339C39.5327 7.1006 39.6054 7.39554 39.5771 7.68962C39.5771 8.51962 39.5771 9.34962 39.5771 10.1896C39.5771 10.5296 39.6771 10.6596 40.0171 10.6196C40.5571 10.6196 41.2571 10.8496 41.5971 10.4996C41.9371 10.1496 41.6771 9.49963 41.6871 9.02963C41.6871 8.17963 41.6871 7.32962 41.6871 6.46962C41.7063 6.19748 41.6455 5.92568 41.5123 5.68762C41.379 5.44956 41.1791 5.25562 40.9371 5.12962C39.8109 4.4444 38.5963 3.91618 37.3271 3.55962C37.1571 3.55962 36.9671 3.47963 36.7971 3.41963C36.6795 3.38535 36.5699 3.32792 36.4748 3.25071C36.3797 3.17351 36.3009 3.07808 36.2432 2.97003C36.1854 2.86197 36.1498 2.74348 36.1385 2.62148C36.1271 2.49949 36.1403 2.37647 36.1771 2.25962C36.1996 2.15132 36.2435 2.0486 36.3062 1.9575C36.369 1.8664 36.4493 1.78875 36.5424 1.72913C36.6356 1.6695 36.7397 1.6291 36.8487 1.6103C36.9577 1.59149 37.0694 1.59466 37.1771 1.61962C39.1505 2.01849 41.0052 2.86716 42.5971 4.09963C42.9213 4.39481 43.1742 4.75963 43.337 5.16666C43.4999 5.57369 43.5683 6.01234 43.5371 6.44962C43.5371 7.62962 43.5371 8.80963 43.5371 9.98962C43.5371 10.4896 43.6571 10.6296 44.1671 10.6296C48.8471 10.6296 53.5171 10.6296 58.1671 10.6296C61.0671 10.6296 62.5871 11.7596 63.4071 14.5196C63.4071 14.5196 63.4071 14.5196 63.4571 14.5196L63.4671 29.1796ZM32.1971 10.6196C33.8471 10.6196 35.4871 10.6196 37.1371 10.6196C37.5671 10.6196 37.6971 10.4896 37.6671 10.0696C37.6321 9.52351 37.6321 8.97573 37.6671 8.42962C37.6671 7.98962 37.5071 7.81962 37.1371 7.68962C33.9279 6.51503 30.4064 6.51503 27.1971 7.68962C27.0517 7.7232 26.9247 7.81159 26.8428 7.93639C26.7608 8.06119 26.7301 8.21278 26.7571 8.35962C26.7871 8.92589 26.7871 9.49335 26.7571 10.0596C26.7571 10.4496 26.8471 10.5896 27.2571 10.5796C28.9071 10.6096 30.5471 10.6196 32.1971 10.6196ZM29.5771 37.8696V40.3096C29.5775 40.4321 29.5978 40.5537 29.6371 40.6696C29.8241 41.2647 30.2135 41.7754 30.7378 42.1134C31.262 42.4513 31.888 42.595 32.5071 42.5196C33.1576 42.4519 33.7587 42.1415 34.1905 41.6504C34.6223 41.1593 34.8532 40.5234 34.8371 39.8696C34.8871 38.4896 34.8371 37.0996 34.8371 35.7196C34.8371 35.2696 34.6271 35.1196 34.1971 35.1296C32.8571 35.1296 31.5171 35.1296 30.1971 35.1296C29.7571 35.1296 29.5771 35.2996 29.5771 35.7396C29.5871 36.4496 29.5771 37.1396 29.5771 37.8696Z" fill="#0A0909"/>
</svg>
