<svg width="64" height="42" viewBox="0 0 64 42" fill="none" xmlns="http://www.w3.org/2000/svg">
<path d="M63.1397 0.871259V13.7513H0.679688V13.4013C0.679688 9.51459 0.679688 5.63126 0.679688 1.75126C0.679688 0.451257 0.999688 0.121259 2.28969 0.121259H61.5197C61.832 0.0915113 62.1465 0.145283 62.4312 0.277067C62.7158 0.408851 62.9603 0.613912 63.1397 0.871259Z" fill="#FBB546"/>
<path d="M63.1397 27.4219V40.3519C62.9575 40.6045 62.7116 40.8042 62.427 40.9307C62.1424 41.0572 61.8293 41.1059 61.5197 41.0719C46.9264 41.0719 32.3297 41.0719 17.7297 41.0719H2.17969C1.04969 41.0719 0.679688 40.7019 0.679688 39.5819V27.4319H63.1397V27.4219Z" fill="#73B043"/>
<path d="M63.1425 27.4183H0.682499L0.5625 27.2783V13.8683L0.682499 13.7383H63.1425V27.4183ZM31.9025 26.3483C33.0433 26.3522 34.1596 26.0179 35.1104 25.3876C36.0613 24.7573 36.8039 23.8593 37.2446 22.8071C37.6852 21.7549 37.8041 20.5957 37.5861 19.4759C37.3682 18.3562 36.8232 17.3261 36.0201 16.516C35.2169 15.7059 34.1916 15.152 33.0738 14.9244C31.956 14.6967 30.7958 14.8055 29.7398 15.2371C28.6838 15.6686 27.7794 16.4035 27.1409 17.3488C26.5024 18.2941 26.1584 19.4075 26.1525 20.5483C26.1486 21.3068 26.2942 22.0587 26.5812 22.761C26.8681 23.4632 27.2907 24.1019 27.8248 24.6406C28.3589 25.1793 28.9939 25.6074 29.6936 25.9005C30.3933 26.1935 31.1439 26.3457 31.9025 26.3483Z" fill="#F5F5F6"/>
<path d="M0.559063 13.3906H0.659061V13.7406L0.539062 13.8706L0.559063 13.3906Z" fill="white"/>
<path d="M31.9028 26.3486C30.7616 26.3486 29.646 26.0102 28.6972 25.3762C27.7483 24.7422 27.0087 23.841 26.572 22.7867C26.1353 21.7324 26.021 20.5722 26.2437 19.4529C26.4663 18.3337 27.0159 17.3055 27.8228 16.4986C28.6298 15.6916 29.6579 15.1421 30.7771 14.9195C31.8964 14.6968 33.0566 14.8111 34.1109 15.2478C35.1652 15.6845 36.0664 16.4241 36.7004 17.373C37.3344 18.3218 37.6728 19.4374 37.6728 20.5786C37.6728 22.1089 37.0649 23.5765 35.9828 24.6586C34.9007 25.7407 33.4331 26.3486 31.9028 26.3486ZM30.9028 19.2486C30.9133 19.1355 30.9133 19.0217 30.9028 18.9086L30.3128 17.2586C29.9328 16.1986 29.7628 16.1686 28.9128 16.9186C28.6828 17.1286 28.6828 17.2386 28.9128 17.4386C29.6028 18.0086 30.2328 18.5986 30.9428 19.2486H30.9028ZM32.7728 19.0686L32.8928 19.1886L34.4728 17.7886C35.2328 17.0986 35.2228 17.0786 34.3528 16.5586C33.9628 16.3286 33.7528 16.2886 33.6028 16.8086C33.3928 17.5786 33.0828 18.3186 32.8128 19.0686H32.7728ZM33.2628 19.5586C33.352 19.6005 33.4493 19.6222 33.5478 19.6222C33.6463 19.6222 33.7437 19.6005 33.8328 19.5586L35.4728 18.9686C36.3528 18.6486 36.3628 18.6186 35.8028 17.8586C35.7474 17.7997 35.6972 17.7362 35.6528 17.6686C35.4528 17.3486 35.2928 17.4086 35.0628 17.6686C34.4728 18.3086 33.8828 18.9286 33.3028 19.5586H33.2628ZM33.2628 21.5586L34.8028 23.2486C35.3728 23.8686 35.3728 23.8686 35.8028 23.1386C36.2328 22.4086 36.2228 22.4986 35.4928 22.2286C35.2228 22.1386 34.9628 22.0086 34.6928 21.9386C34.2628 21.8686 33.8428 21.5086 33.2728 21.5786L33.2628 21.5586ZM32.8028 22.0686C33.0328 22.7186 33.2628 23.3486 33.4928 23.9686C33.8428 24.9686 33.9028 24.9686 34.7328 24.3186L34.8328 24.2386C35.1028 24.0686 35.1128 23.9186 34.8328 23.6986C34.2628 23.2086 33.7228 22.6986 33.1628 22.1886C33.0928 22.1186 32.9928 21.9986 32.8128 22.0886L32.8028 22.0686ZM30.4728 19.6886C30.4488 19.5967 30.4187 19.5065 30.3828 19.4186L29.2128 18.1086C28.4528 17.2686 28.2128 17.3186 27.7628 18.3886L27.7028 18.4886C27.7028 18.5986 27.7028 18.6886 27.7828 18.7286L30.4728 19.6886ZM30.4728 21.6886C29.818 21.7342 29.1773 21.9003 28.5828 22.1786C27.5328 22.5486 27.4828 22.7986 28.2728 23.5986L28.3528 23.6886C28.4628 23.8186 28.5628 23.7786 28.6528 23.6886L30.4728 21.6886ZM31.0128 22.0786C30.9262 22.0735 30.8394 22.0735 30.7528 22.0786L29.4028 23.2886C28.5528 24.0586 28.5628 24.1086 29.5828 24.6486L29.7928 24.7586C29.9328 24.8386 30.0128 24.7586 30.0628 24.6586C30.3828 23.8686 30.6828 22.9786 31.0228 22.0486L31.0128 22.0786ZM33.6128 20.1886V20.3286L35.6128 20.4586C36.7228 20.5186 36.8128 20.3686 36.4428 19.2986C36.3428 19.0286 36.2628 18.9286 35.9728 19.0686C35.1928 19.4186 34.4028 19.7886 33.6228 20.1586L33.6128 20.1886ZM33.6128 20.8886V21.0286L35.4728 21.8686C36.3828 22.2886 36.4728 22.2486 36.5428 21.1986C36.5379 21.1153 36.5379 21.0319 36.5428 20.9486C36.5428 20.7886 36.5428 20.6686 36.3328 20.6786L33.6128 20.8886ZM32.1728 18.8286L32.3328 18.8886C32.6528 18.2286 32.9628 17.5586 33.2828 16.8886C33.6028 16.2186 33.5828 16.1186 32.8228 15.9886C32.7028 15.9886 32.5728 15.9886 32.4528 15.9886C32.0928 15.8986 32.0028 16.0586 32.0328 16.3886C32.1028 17.1586 32.1328 17.9786 32.1828 18.7986L32.1728 18.8286ZM30.1028 20.3486L30.1728 20.1786L28.2228 19.2586C27.4528 18.8986 27.3828 18.9386 27.2228 19.7786C27.2278 19.8585 27.2278 19.9387 27.2228 20.0186C27.1228 20.3986 27.2228 20.5186 27.6428 20.4886C28.4728 20.3886 29.3028 20.3586 30.1128 20.3186L30.1028 20.3486ZM31.4728 18.7986L31.6728 18.7286C31.6728 18.1086 31.7628 17.4986 31.7828 16.8786C31.7828 16.5586 31.9628 16.0786 31.7828 15.9586C31.3686 15.8511 30.929 15.9047 30.5528 16.1086C30.4528 16.1086 30.3128 16.1886 30.3928 16.3586C30.6928 17.1686 31.0628 17.9886 31.4728 18.7986ZM28.6728 20.7986H28.2528C27.2528 20.7386 27.0028 21.1086 27.4628 22.0686C27.5228 22.1986 27.5728 22.3186 27.7628 22.2286L29.9528 21.2286C30.0328 21.2286 30.1328 21.1186 30.0828 20.9886C30.0328 20.8586 29.9128 20.9186 29.8228 20.9086L28.6728 20.7986ZM31.7328 23.8686C31.7328 23.4986 31.7328 23.1386 31.6728 22.7786C31.6728 22.6686 31.7328 22.5186 31.5828 22.4686C31.4328 22.4186 31.3828 22.5486 31.3328 22.6586C31.0028 23.3486 30.6728 24.0386 30.3328 24.7286C30.3328 24.8286 30.2128 24.9586 30.3328 25.0386C30.7226 25.254 31.1759 25.3248 31.6128 25.2386C31.8928 25.1386 31.6728 24.6986 31.7028 24.4086C31.7228 24.2293 31.7328 24.049 31.7328 23.8686ZM32.3828 22.3886L32.1828 22.4586C32.1828 23.0786 32.0928 23.6886 32.0728 24.3086C32.0728 24.6286 31.8928 25.1086 32.1228 25.2186C32.5354 25.3344 32.9768 25.2842 33.3528 25.0786C33.4528 25.0786 33.5928 24.9986 33.5128 24.8286C33.1328 23.9886 32.7628 23.1786 32.3828 22.3686V22.3886ZM31.9328 19.7286C31.817 19.7231 31.7013 19.7414 31.5929 19.7823C31.4844 19.8232 31.3855 19.8859 31.3021 19.9664C31.2187 20.047 31.1527 20.1437 31.1081 20.2507C31.0636 20.3577 31.0413 20.4727 31.0428 20.5886C31.0428 20.8193 31.1345 21.0406 31.2976 21.2038C31.4608 21.3669 31.6821 21.4586 31.9128 21.4586C32.1436 21.4586 32.3648 21.3669 32.528 21.2038C32.6912 21.0406 32.7828 20.8193 32.7828 20.5886C32.7868 20.4745 32.7678 20.3607 32.7269 20.2541C32.686 20.1475 32.6241 20.0502 32.5447 19.9681C32.4654 19.8859 32.3703 19.8206 32.2652 19.776C32.1601 19.7315 32.047 19.7085 31.9328 19.7086V19.7286Z" fill="#484E9E"/>
<path d="M30.9381 19.2482C30.2281 18.5982 29.5981 18.0082 28.9381 17.4382C28.7081 17.2382 28.7081 17.1282 28.9381 16.9182C29.7881 16.1682 29.9381 16.1982 30.3381 17.2582L30.9281 18.9082C30.9419 19.021 30.9453 19.1348 30.9381 19.2482Z" fill="#EAEBF0"/>
<path d="M32.8125 19.0703C33.0825 18.3203 33.3925 17.5803 33.6125 16.8103C33.7625 16.2903 33.9725 16.3303 34.3625 16.5603C35.2325 17.0803 35.2425 17.1003 34.4825 17.7903L32.9325 19.1903L32.8125 19.0703Z" fill="#EAEBF0"/>
<path d="M33.2969 19.5612C33.8769 18.9312 34.4569 18.3112 35.0069 17.6712C35.2369 17.4112 35.3969 17.3512 35.5969 17.6712C35.6412 17.7388 35.6914 17.8023 35.7469 17.8612C36.3069 18.6212 36.2969 18.6512 35.4169 18.9712L33.8669 19.5212C33.7807 19.5695 33.6849 19.5981 33.5863 19.605C33.4878 19.6119 33.389 19.597 33.2969 19.5612Z" fill="#EAEBF0"/>
<path d="M33.2734 21.58C33.8434 21.51 34.2734 21.84 34.7434 21.96C35.0134 22.03 35.2734 22.16 35.5434 22.25C36.2734 22.52 36.2734 22.52 35.8534 23.16C35.4334 23.8 35.3834 23.89 34.8534 23.27L33.2734 21.58Z" fill="#EAEBF0"/>
<path d="M32.8125 22.0913C32.9925 22.0013 33.0925 22.0912 33.1925 22.2112C33.7525 22.7112 34.2925 23.2112 34.8625 23.7212C35.1225 23.9412 35.1125 24.0912 34.8625 24.2612L34.7625 24.3413C33.9325 25.0013 33.8725 24.9913 33.5225 23.9913C33.2725 23.3713 33.0425 22.7413 32.8125 22.0913Z" fill="#EAEBF0"/>
<path d="M30.4702 19.6899L27.7802 18.6899C27.6602 18.6899 27.6502 18.5599 27.7002 18.4499L27.7602 18.3499C28.2202 17.2799 28.4502 17.2299 29.2102 18.0699L30.3802 19.3799C30.4179 19.4808 30.448 19.5845 30.4702 19.6899Z" fill="#EAEBF0"/>
<path d="M30.4682 21.6602L28.6482 23.6602C28.5582 23.7602 28.4582 23.8002 28.3482 23.6602L28.2682 23.5702C27.4782 22.7702 27.5282 22.5702 28.5782 22.1502C29.1726 21.8718 29.8134 21.7057 30.4682 21.6602Z" fill="#EAEBF0"/>
<path d="M31.0198 22.0508C30.6798 22.9808 30.3798 23.8308 30.0198 24.6808C30.0198 24.8308 29.8898 24.8608 29.7498 24.7808L29.5398 24.6708C28.5398 24.1308 28.5398 24.0808 29.3598 23.3108L30.7098 22.1008C30.8118 22.0768 30.9154 22.06 31.0198 22.0508Z" fill="#EAEBF0"/>
<path d="M33.6216 20.1603C34.4016 19.7903 35.1916 19.4203 35.9616 19.0403C36.2516 18.9003 36.3316 19.0403 36.4316 19.2703C36.8016 20.3403 36.7116 20.4903 35.6016 20.4303L33.6016 20.3003L33.6216 20.1603Z" fill="#EBEBF1"/>
<path d="M33.6172 20.8688L36.3672 20.7188C36.5672 20.7188 36.6072 20.8288 36.5772 20.9888C36.5722 21.072 36.5722 21.1555 36.5772 21.2388C36.4872 22.2388 36.4172 22.3288 35.5072 21.9088L33.6172 21.0088V20.8688Z" fill="#EBEBF1"/>
<path d="M32.1791 18.801C32.1791 17.981 32.0991 17.161 32.0391 16.331C32.0391 16.001 32.0991 15.841 32.4591 15.931C32.5791 15.931 32.7091 15.931 32.8291 15.931C33.5891 16.061 33.6191 16.111 33.2891 16.831C32.9591 17.551 32.6591 18.171 32.3391 18.831L32.1791 18.801Z" fill="#EBEBF1"/>
<path d="M30.1089 20.3208C29.2989 20.3208 28.4889 20.3908 27.6789 20.4608C27.2889 20.4608 27.1589 20.3708 27.2589 19.9908C27.2638 19.9109 27.2638 19.8307 27.2589 19.7508C27.3689 18.9108 27.4389 18.8708 28.2589 19.2308L30.2089 20.1508L30.1089 20.3208Z" fill="#EBEBF1"/>
<path d="M31.4662 18.8005C31.0862 17.9905 30.7162 17.1705 30.3362 16.3605C30.2562 16.1905 30.3962 16.1505 30.4962 16.1105C30.8724 15.9066 31.312 15.8529 31.7262 15.9605C31.9562 16.0805 31.7962 16.5605 31.7262 16.8805C31.7262 17.5005 31.6562 18.1105 31.6162 18.7305L31.4662 18.8005Z" fill="#EBEBF1"/>
<path d="M28.6417 20.7716L29.7917 20.8316C29.8817 20.8316 30.0017 20.8316 30.0517 20.9116C30.1017 20.9916 30.0517 21.1016 29.9217 21.1516L27.7317 22.1516C27.5417 22.2416 27.4917 22.1516 27.4317 21.9916C26.9717 20.9916 27.1917 20.6616 28.2217 20.7216H28.6417V20.7716Z" fill="#EBEBF1"/>
<path d="M31.7275 23.8714C31.7375 24.0513 31.7375 24.2316 31.7275 24.4114C31.7275 24.7014 31.9175 25.1414 31.6375 25.2414C31.2006 25.3276 30.7473 25.2568 30.3575 25.0414C30.1875 24.9614 30.2675 24.8314 30.3575 24.7314C30.6775 24.0414 31.0075 23.3514 31.3575 22.6614C31.4075 22.5514 31.4575 22.4114 31.6075 22.4714C31.7575 22.5314 31.6975 22.6714 31.6975 22.7814C31.6975 23.1414 31.6975 23.5014 31.7575 23.8714H31.7275Z" fill="#EBEBF1"/>
<path d="M32.3798 22.3711C32.7598 23.1811 33.1298 23.9911 33.5098 24.8111C33.5898 24.9811 33.4498 25.0211 33.3498 25.0611C32.9739 25.2667 32.5324 25.3169 32.1198 25.2011C31.8898 25.0911 32.0598 24.6111 32.0698 24.2911C32.0698 23.6711 32.1398 23.0611 32.1798 22.4411L32.3798 22.3711Z" fill="#EBEBF1"/>
<path d="M31.9296 19.7109C32.0439 19.7109 32.157 19.7334 32.2626 19.7772C32.3681 19.8209 32.464 19.885 32.5448 19.9658C32.6256 20.0465 32.6897 20.1425 32.7334 20.248C32.7771 20.3536 32.7997 20.4667 32.7997 20.5809C32.7997 20.6952 32.7771 20.8083 32.7334 20.9139C32.6897 21.0194 32.6256 21.1153 32.5448 21.1961C32.464 21.2769 32.3681 21.341 32.2626 21.3847C32.157 21.4284 32.0439 21.4509 31.9296 21.4509C31.8146 21.4539 31.7003 21.433 31.5938 21.3894C31.4873 21.3458 31.3911 21.2806 31.3111 21.1979C31.2312 21.1151 31.1694 21.0166 31.1295 20.9087C31.0897 20.8008 31.0727 20.6858 31.0796 20.5709C31.0783 20.4585 31.0993 20.3469 31.1415 20.2426C31.1836 20.1383 31.246 20.0434 31.325 19.9634C31.4041 19.8834 31.4983 19.8199 31.602 19.7766C31.7058 19.7332 31.8172 19.7109 31.9296 19.7109ZM32.4097 20.6209C32.4097 20.3009 32.2497 20.1109 31.9397 20.0909C31.8736 20.0822 31.8063 20.088 31.7427 20.1078C31.679 20.1276 31.6205 20.161 31.571 20.2057C31.5215 20.2504 31.4824 20.3053 31.4562 20.3667C31.4301 20.428 31.4176 20.4943 31.4196 20.5609C31.409 20.626 31.4132 20.6926 31.4318 20.7559C31.4504 20.8192 31.483 20.8774 31.5272 20.9264C31.5714 20.9754 31.626 21.0138 31.687 21.0388C31.748 21.0638 31.8138 21.0748 31.8797 21.0709C31.9446 21.0793 32.0105 21.0741 32.0733 21.0555C32.136 21.0369 32.1942 21.0055 32.2441 20.9631C32.294 20.9207 32.3345 20.8684 32.363 20.8095C32.3915 20.7506 32.4074 20.6864 32.4097 20.6209Z" fill="#E1E2EB"/>
<path d="M32.4098 20.6199C32.4075 20.6853 32.3917 20.7495 32.3632 20.8085C32.3347 20.8674 32.2942 20.9197 32.2443 20.9621C32.1944 21.0044 32.1362 21.0359 32.0734 21.0545C32.0106 21.073 31.9447 21.0783 31.8798 21.0699C31.814 21.0737 31.7481 21.0628 31.6871 21.0377C31.6261 21.0127 31.5715 20.9743 31.5273 20.9253C31.4832 20.8764 31.4506 20.8181 31.432 20.7549C31.4133 20.6916 31.4092 20.625 31.4198 20.5599C31.4178 20.4933 31.4303 20.427 31.4564 20.3656C31.4825 20.3043 31.5217 20.2494 31.5711 20.2047C31.6206 20.16 31.6792 20.1266 31.7428 20.1067C31.8065 20.0869 31.8737 20.0812 31.9398 20.0899C32.2498 20.1099 32.3898 20.2999 32.4098 20.6199Z" fill="#43499B"/>
</svg>
