<svg width="63" height="42" viewBox="0 0 63 42" fill="none" xmlns="http://www.w3.org/2000/svg">
<path d="M62.7803 28.5586V40.7586C62.6265 40.9933 62.4129 41.1827 62.1616 41.3075C61.9103 41.4323 61.6302 41.4879 61.3503 41.4686H1.75031C0.750305 41.4686 0.320312 41.0686 0.320312 40.0286V28.5586H0.38031C9.34031 28.5586 18.307 28.5586 27.2803 28.5586C27.7103 28.5586 27.6903 28.7086 27.5303 29.0186C27.0203 30.0186 26.5303 31.0186 26.0503 32.0786C25.9403 32.3086 25.7303 32.5086 26.1203 32.7086C26.5103 32.9086 26.5903 32.6186 26.7003 32.3786L28.5003 28.7286L29.2203 29.7286C29.7743 30.537 30.4935 31.2186 31.3303 31.7286H31.7603C31.9503 31.6086 32.1403 31.4986 32.3203 31.3686C33.1821 30.5856 33.9475 29.7028 34.6003 28.7386C35.2003 29.9686 35.8203 31.2086 36.4203 32.4386C36.5403 32.6986 36.6103 32.8986 36.9703 32.7186C37.3303 32.5386 37.1903 32.3786 37.0803 32.1486L35.6803 29.2486C35.3603 28.5786 35.3603 28.5786 36.1303 28.5786H61.9903L62.7803 28.5586Z" fill="#73B044"/>
<path d="M62.7812 1.23071V13.4307H36.4012H35.9313C36.1413 12.9807 36.1912 12.4807 36.8112 12.4307C37.1012 12.4307 37.2713 12.1107 37.3813 11.8407C37.5713 11.3507 37.7713 10.8407 37.9313 10.3607C38.3711 9.03925 38.7054 7.68501 38.9313 6.31071C37.6147 7.79538 36.4676 9.42207 35.5112 11.1607C35.4441 11.2977 35.4093 11.4482 35.4093 11.6007C35.4093 11.7532 35.4441 11.9037 35.5112 12.0407C35.6912 12.4707 35.1113 13.4107 34.6413 13.5107C34.117 12.726 33.5319 11.9837 32.8913 11.2907C32.5913 10.9907 32.3513 10.5807 31.8913 10.5607C31.8913 10.4607 31.8312 10.4207 31.7612 10.3707C31.6189 10.3204 31.4636 10.3204 31.3213 10.3707C31.2513 10.4207 31.1713 10.4607 31.1913 10.5607C30.8713 10.5007 30.7313 10.7607 30.5413 10.9107C29.7365 11.6979 29.0191 12.5696 28.4012 13.5107C28.3023 13.5315 28.2002 13.5315 28.1013 13.5107C27.9147 13.3027 27.7723 13.0589 27.6829 12.7942C27.5935 12.5294 27.5589 12.2493 27.5813 11.9707C27.6335 11.8473 27.6604 11.7147 27.6604 11.5807C27.6604 11.4467 27.6335 11.3141 27.5813 11.1907C26.6211 9.45816 25.4707 7.83814 24.1512 6.36071C24.4885 8.30948 25.0419 10.2146 25.8013 12.0407C25.8395 12.1465 25.9033 12.2411 25.9871 12.3162C26.0708 12.3912 26.1719 12.4443 26.2812 12.4707C26.9112 12.5507 26.9612 13.0607 27.1712 13.5307H2.47125H0.28125V2.09071C0.28125 0.840715 0.611256 0.520715 1.88126 0.520715H61.1313C61.4449 0.476669 61.7647 0.519585 62.0556 0.644784C62.3466 0.769983 62.5976 0.972659 62.7812 1.23071Z" fill="#474756"/>
<path d="M31.8987 10.5117C32.3987 10.5117 32.6387 10.9417 32.8987 11.2417C33.5394 11.9347 34.1245 12.677 34.6487 13.4617C34.939 13.9506 35.1963 14.4585 35.4187 14.9817C35.6187 15.5417 35.9588 15.6417 36.5188 15.6417C45.2588 15.6417 53.9987 15.6417 62.7387 15.6417V26.3617H36.0188C35.9386 26.3507 35.8571 26.3663 35.7867 26.406C35.7163 26.4458 35.6608 26.5075 35.6288 26.5817C35.2788 27.2917 34.9187 27.9917 34.5587 28.6917C33.906 29.6559 33.1406 30.5388 32.2787 31.3217C32.0987 31.4517 31.9087 31.5617 31.7188 31.6817C32.7341 28.7882 32.7341 25.6352 31.7188 22.7417V22.5917C31.9691 22.4056 32.1724 22.1636 32.3124 21.8849C32.4525 21.6062 32.5255 21.2986 32.5255 20.9867C32.5255 20.6748 32.4525 20.3672 32.3124 20.0886C32.1724 19.8099 31.9691 19.5678 31.7188 19.3817V19.2317C32.2549 17.7176 32.5058 16.1173 32.4588 14.5117C32.4267 13.1613 32.2388 11.819 31.8987 10.5117ZM35.8987 26.1617C36.5966 24.5292 36.9564 22.7722 36.9564 20.9967C36.9564 19.2213 36.5966 17.4642 35.8987 15.8317C35.1945 17.4615 34.8279 19.2172 34.8211 20.9926C34.8142 22.7681 35.1672 24.5265 35.8587 26.1617H35.8987Z" fill="#C8434C"/>
<path d="M0.189682 13.55L0.319687 13.42H2.50967H27.1697C26.9597 12.95 26.9097 12.42 26.2797 12.36C26.1704 12.3336 26.0693 12.2805 25.9855 12.2055C25.9017 12.1304 25.8379 12.0358 25.7997 11.93C25.0403 10.1039 24.4869 8.19877 24.1497 6.25C25.4691 7.72742 26.6195 9.34744 27.5797 11.08C27.6319 11.2034 27.6589 11.336 27.6589 11.47C27.6589 11.604 27.6319 11.7366 27.5797 11.86C27.5574 12.1385 27.592 12.4187 27.6814 12.6835C27.7708 12.9482 27.9131 13.192 28.0997 13.4C28.1986 13.4208 28.3008 13.4208 28.3997 13.4C28.1297 13.92 27.8197 14.4 27.5997 14.97C27.5416 15.1692 27.4134 15.3406 27.2388 15.4527C27.0642 15.5648 26.855 15.61 26.6497 15.58C19.523 15.58 12.3897 15.58 5.24968 15.58H0.309677L0.179688 15.45L0.189682 13.55Z" fill="#F2F1F2"/>
<path d="M62.7775 15.63C54.0375 15.63 45.2975 15.63 36.5575 15.63C35.9975 15.63 35.6575 15.53 35.4575 14.97C35.235 14.4467 34.9778 13.9389 34.6875 13.45C35.1575 13.35 35.7375 12.45 35.5575 11.98C35.4904 11.843 35.4555 11.6925 35.4555 11.54C35.4555 11.3875 35.4904 11.237 35.5575 11.1C36.5139 9.36136 37.6609 7.73466 38.9775 6.25C38.7517 7.6243 38.4173 8.97854 37.9775 10.3C37.8175 10.8 37.6175 11.3 37.4275 11.78C37.3175 12.05 37.1475 12.33 36.8575 12.37C36.2375 12.46 36.1875 12.96 35.9775 13.37H36.4475H62.8275L62.7775 15.63Z" fill="#F2F1F2"/>
<path d="M0.317505 28.56L0.1875 28.44V26.44L0.317505 26.3H1.0475H27.0475C27.1262 26.2896 27.2062 26.3055 27.2749 26.3453C27.3436 26.3851 27.3973 26.4465 27.4275 26.52C27.7775 27.23 28.1475 27.93 28.5075 28.63L26.7075 32.28C26.5975 32.52 26.5575 32.83 26.1275 32.61C25.6975 32.39 25.9475 32.21 26.0575 31.98C26.5475 30.98 27.0575 29.98 27.5375 28.92C27.6975 28.61 27.7175 28.46 27.2875 28.46C18.3208 28.46 9.35416 28.46 0.387497 28.46L0.317505 28.56Z" fill="#F3F3F0"/>
<path d="M34.6016 28.7006C34.9616 28.0006 35.3216 27.3006 35.6716 26.5906C35.7036 26.5164 35.7591 26.4547 35.8295 26.4149C35.8999 26.3752 35.9814 26.3596 36.0616 26.3706H62.7816V28.5706H61.9916H36.1316C35.3616 28.5706 35.3616 28.5706 35.6816 29.2406L37.0816 32.1406C37.1916 32.3706 37.3216 32.5406 36.9716 32.7106C36.6216 32.8806 36.5416 32.7106 36.4216 32.4306C35.8216 31.1706 35.2016 29.9306 34.6016 28.7006Z" fill="#F3F3F0"/>
<path d="M0.1875 15.5117L0.317505 15.6417C0.317505 19.1317 0.317505 22.6417 0.317505 26.1217H0.207504L0.1875 15.5117Z" fill="white"/>
<path d="M0.191879 26.1211H0.30188V26.3511L0.171875 26.4911L0.191879 26.1211Z" fill="white"/>
<path d="M0.320312 26.3488V26.1188C0.320312 22.6288 0.320312 19.1188 0.320312 15.6388H5.2603C12.387 15.6388 19.5203 15.6388 26.6603 15.6388C26.8656 15.6689 27.0748 15.6236 27.2494 15.5115C27.424 15.3994 27.5522 15.228 27.6103 15.0288C27.8303 14.4888 28.1403 13.9788 28.4103 13.4588C29.0281 12.5178 29.7456 11.6461 30.5503 10.8588C30.7403 10.7088 30.8803 10.4488 31.2003 10.5088C31.2003 10.6388 31.2003 10.7888 31.1203 10.9188C30.3206 13.6455 30.3905 16.5537 31.3203 19.2388V19.3888C31.07 19.5749 30.8667 19.817 30.7266 20.0957C30.5866 20.3743 30.5136 20.6819 30.5136 20.9938C30.5136 21.3057 30.5866 21.6133 30.7266 21.892C30.8667 22.1707 31.07 22.4127 31.3203 22.5988V22.7488C30.3105 25.6433 30.3105 28.7944 31.3203 31.6888C30.4835 31.1789 29.7643 30.4972 29.2103 29.6888L28.4903 28.6888C28.1303 27.9888 27.7603 27.2888 27.4103 26.5788C27.3801 26.5054 27.3265 26.444 27.2577 26.4042C27.189 26.3644 27.109 26.3485 27.0303 26.3588H1.0303L0.320312 26.3488ZM27.2603 15.8688C26.5395 17.4672 26.1668 19.2005 26.1668 20.9538C26.1668 22.7072 26.5395 24.4405 27.2603 26.0388C27.9361 24.4287 28.2841 22.7 28.2841 20.9538C28.2841 19.2076 27.9361 17.479 27.2603 15.8688Z" fill="#C8434C"/>
<path d="M31.3277 31.69C30.3179 28.7955 30.3179 25.6445 31.3277 22.75C31.4677 22.88 31.4177 23.06 31.4177 23.21V31.21C31.4397 31.3907 31.4121 31.5739 31.3377 31.74L31.3277 31.69Z" fill="#F0E3E3"/>
<path d="M31.7812 22.75C32.7965 25.6435 32.7965 28.7965 31.7812 31.69C31.7392 31.5363 31.7124 31.3789 31.7012 31.22V23.15C31.6912 23.01 31.6512 22.87 31.7812 22.75Z" fill="#F0E3E3"/>
<path d="M31.7803 22.7516C31.6503 22.8616 31.6903 23.0116 31.6903 23.1516V31.2216C31.7015 31.3805 31.7283 31.5379 31.7703 31.6916H31.3303C31.4047 31.5255 31.4324 31.3422 31.4103 31.1616V23.2116C31.4103 23.0616 31.4603 22.8816 31.3203 22.7516V22.6016H31.8103L31.7803 22.7516Z" fill="#C9454D"/>
<path d="M31.3228 19.2403C30.393 16.5552 30.3231 13.647 31.1228 10.9203C31.1228 10.7903 31.1228 10.6403 31.2028 10.5103C31.3228 10.5103 31.3328 10.4203 31.3328 10.3203C31.4092 10.4643 31.4372 10.6291 31.4128 10.7903V18.8703C31.4128 18.9803 31.4728 19.1303 31.3228 19.2403Z" fill="#F0E3E3"/>
<path d="M31.9009 10.5098C32.2612 11.8148 32.4693 13.1571 32.5209 14.5098C32.5679 16.1154 32.317 17.7157 31.7809 19.2298C31.6409 19.0998 31.6909 18.9298 31.6909 18.7698V10.8698C31.6618 10.6892 31.6898 10.5039 31.7709 10.3398C31.7709 10.4398 31.7709 10.5198 31.9009 10.5298V10.5098Z" fill="#F0E3E3"/>
<path d="M31.7691 10.3089C31.6879 10.4729 31.66 10.6582 31.6891 10.8389V18.7789C31.6891 18.9389 31.6391 19.1089 31.7791 19.2389V19.3889H31.2891V19.2389C31.4191 19.1289 31.3791 18.9789 31.3791 18.8389V10.7789C31.4035 10.6177 31.3754 10.4529 31.2991 10.3089C31.4504 10.2512 31.6177 10.2512 31.7691 10.3089Z" fill="#C9454D"/>
<path d="M31.3228 10.3203C31.3228 10.4203 31.3228 10.5003 31.1928 10.5103C31.0628 10.5203 31.2528 10.3703 31.3228 10.3203Z" fill="#C8434C"/>
<path d="M31.9135 10.5103C31.7935 10.5103 31.7735 10.4203 31.7835 10.3203C31.8535 10.3703 31.9335 10.4103 31.9135 10.5103Z" fill="#C8434C"/>
<path d="M35.8624 26.1581C35.1645 24.5256 34.8047 22.7686 34.8047 20.9931C34.8047 19.2177 35.1645 17.4607 35.8624 15.8281C36.5602 17.4607 36.92 19.2177 36.92 20.9931C36.92 22.7686 36.5602 24.5256 35.8624 26.1581Z" fill="#4A4755"/>
<path d="M31.2989 19.3906H31.7889C32.0392 19.5767 32.2425 19.8188 32.3826 20.0975C32.5226 20.3761 32.5956 20.6837 32.5956 20.9956C32.5956 21.3075 32.5226 21.6151 32.3826 21.8938C32.2425 22.1725 32.0392 22.4145 31.7889 22.6006H31.2989C31.0486 22.4145 30.8453 22.1725 30.7052 21.8938C30.5651 21.6151 30.4922 21.3075 30.4922 20.9956C30.4922 20.6837 30.5651 20.3761 30.7052 20.0975C30.8453 19.8188 31.0486 19.5767 31.2989 19.3906Z" fill="#F3F0F0"/>
<path d="M27.2576 15.8711C27.9333 17.4812 28.2814 19.2099 28.2814 20.9561C28.2814 22.7023 27.9333 24.431 27.2576 26.0411C26.5368 24.4427 26.1641 22.7094 26.1641 20.9561C26.1641 19.2028 26.5368 17.4694 27.2576 15.8711Z" fill="#4A4755"/>
</svg>
