<svg width="333" height="235" viewBox="0 0 333 235" fill="none" xmlns="http://www.w3.org/2000/svg">
<path d="M0.0078125 21.51C2.54781 19.62 2.60782 16.35 4.23782 13.91C10.5978 4.43002 19.4478 -0.00998315 30.7578 1.68531e-05C52.5178 1.68531e-05 74.2778 1.68531e-05 96.0378 1.68531e-05C164.311 1.68531e-05 232.581 1.68531e-05 300.848 1.68531e-05C316.298 1.68531e-05 326.618 6.79002 331.448 19.92C332.48 22.9026 332.974 26.0447 332.908 29.2C332.908 87.8667 332.908 146.503 332.908 205.11C332.964 212.319 330.319 219.287 325.494 224.644C320.669 230 314.013 233.356 306.838 234.05C304.358 234.278 301.868 234.372 299.378 234.33C210.838 234.33 122.304 234.363 33.7778 234.43C18.3578 234.43 7.13781 228.92 1.31781 214.15C1.06781 213.52 0.817811 212.94 0.0378113 212.84L0.0078125 21.51ZM34.4078 19.87C35.9278 21.51 36.7978 22.5 37.7278 23.43C77.4211 63.25 117.111 103.073 156.798 142.9C163.408 149.53 169.458 149.55 176.018 142.97C210.458 108.443 244.898 73.92 279.338 39.4C285.598 33.14 292.138 27.16 298.548 21.06L297.548 19.87H34.4078ZM298.008 214.6C297.772 214.005 297.47 213.438 297.108 212.91C270.668 186.35 244.234 159.783 217.808 133.21C215.638 131.01 214.678 132.21 213.178 133.72C205.258 141.72 197.298 149.72 189.298 157.72C175.588 171.29 156.938 171.16 143.298 157.48C135.568 149.71 127.678 142.1 120.168 134.13C117.648 131.45 116.428 131.78 114.068 134.13C88.7345 159.703 63.3678 185.217 37.9678 210.67C36.9078 211.74 35.2478 212.52 35.1678 214.58L298.008 214.6ZM20.2478 33.95V199.54C47.0778 172.92 73.7578 146.36 100.588 119.96C103.248 117.34 102.228 116.11 100.238 114.13C83.2045 97.15 66.2045 80.13 49.2378 63.07C39.7178 53.51 30.1878 43.93 20.2478 33.95ZM312.928 34.24C312.448 34.4976 311.987 34.7883 311.548 35.11C285.074 61.63 258.588 88.14 232.088 114.64C229.568 117.15 230.698 118.27 232.528 120.09C257.734 145.303 282.921 170.533 308.088 195.78C309.508 197.21 310.998 198.57 312.928 200.42V34.24Z" fill="#0F0E0E"/>
</svg>
