<svg width="58" height="64" viewBox="0 0 58 64" fill="none" xmlns="http://www.w3.org/2000/svg">
<path d="M30.7673 1.00828C31.5573 1.29828 32.4073 1.27828 33.2173 1.48828C36.3165 2.21077 39.1717 3.73458 41.497 5.90722C43.8224 8.07986 45.5363 10.8251 46.4673 13.8683C47.0498 15.6014 47.3371 17.42 47.3173 19.2483V26.8683C47.3326 27.367 47.2455 27.8637 47.0613 28.3274C46.8771 28.7912 46.5998 29.2123 46.2465 29.5647C45.8932 29.9171 45.4713 30.1932 45.0071 30.3762C44.5428 30.5591 44.046 30.6449 43.5473 30.6283C43.1009 30.6532 42.6536 30.6532 42.2073 30.6283C41.5973 30.5583 41.3873 30.7683 41.3173 31.3783C41.0638 33.5837 40.2704 35.6927 39.0073 37.5183C38.7044 37.9679 38.3702 38.3956 38.0073 38.7983C37.8543 38.9103 37.7517 39.0782 37.7217 39.2654C37.6918 39.4526 37.7369 39.6441 37.8473 39.7983C38.4073 40.8483 38.9373 41.9183 39.4573 42.9883C39.5202 43.1334 39.6148 43.2627 39.7342 43.3665C39.8536 43.4703 39.9948 43.5461 40.1473 43.5883C42.0673 44.2183 43.9873 44.8283 45.8873 45.5283C49.6333 46.9296 52.7451 49.64 54.6473 53.1583C56.2168 55.828 57.0614 58.8616 57.0973 61.9583C57.0973 63.0283 56.6773 63.4583 55.5873 63.4583H2.52726C1.40726 63.4583 0.93726 63.0283 0.99726 61.9183C1.39726 54.6783 4.65726 49.2083 11.2273 45.9183C13.4042 44.9941 15.6389 44.2125 17.9173 43.5783C18.0761 43.5329 18.2233 43.4541 18.3492 43.3471C18.4751 43.2402 18.5767 43.1076 18.6473 42.9583C19.1673 41.8783 19.6973 40.8083 20.2473 39.7583C20.3492 39.6251 20.3948 39.4572 20.3742 39.2908C20.3536 39.1243 20.2685 38.9726 20.1373 38.8683C19.3362 38.0558 18.68 37.1121 18.1973 36.0783C18.1345 35.8738 17.9961 35.701 17.8102 35.5951C17.6244 35.4892 17.4052 35.4581 17.1973 35.5083C16.4343 35.5911 15.6647 35.4307 14.9985 35.0499C14.3322 34.6692 13.8032 34.0876 13.4873 33.3883C13.1713 32.6373 13.0542 31.8176 13.1473 31.0083C13.1772 30.846 13.1496 30.6783 13.0693 30.5342C12.989 30.39 12.861 30.2783 12.7073 30.2183C12.0936 29.9358 11.5766 29.4788 11.2209 28.9044C10.8653 28.33 10.6866 27.6636 10.7073 26.9883C10.7073 24.3483 10.7073 21.6983 10.7073 19.0583C10.7513 15.1845 12.0243 11.4247 14.3427 8.32093C16.6611 5.21716 19.9052 2.9297 23.6073 1.78828C24.6343 1.48116 25.6843 1.2571 26.7473 1.11828C26.8573 1.11828 27.0073 1.11828 27.0573 0.988281L30.7673 1.00828ZM20.7673 35.5383C20.7673 35.6083 20.7673 35.6283 20.7673 35.6383C21.8199 37.464 23.4475 38.8898 25.3959 39.693C27.3443 40.4963 29.5038 40.6317 31.5373 40.0783C33.2585 39.6216 34.8215 38.7013 36.0558 37.4176C37.2901 36.1339 38.1484 34.5361 38.5373 32.7983C39.3311 29.3162 39.7965 25.7673 39.9273 22.1983C39.9273 21.8783 39.9273 21.7583 39.5373 21.7083C38.0265 21.5274 36.5321 21.2299 35.0673 20.8183C32.0064 19.9186 29.18 18.3586 26.7873 16.2483C26.6459 16.0691 26.4622 15.9278 26.2528 15.8371C26.0433 15.7463 25.8147 15.709 25.5873 15.7283C24.1483 15.927 22.7772 16.4652 21.5873 17.2983C20.3001 18.3875 19.1813 19.6613 18.2673 21.0783C18.2129 21.1634 18.176 21.2586 18.1588 21.3582C18.1417 21.4578 18.1445 21.5598 18.1673 21.6583C18.2873 23.2383 18.3873 24.8183 18.5473 26.3983C18.7311 28.499 19.045 30.5864 19.4873 32.6483C19.5673 32.9883 19.6773 33.1083 20.0373 33.0983C20.9273 33.0983 21.8273 33.0983 22.7173 33.0983C22.8421 33.1157 22.9691 33.088 23.0754 33.0202C23.1818 32.9524 23.2604 32.8489 23.2973 32.7283C23.5192 32.2218 23.8593 31.7759 24.289 31.4279C24.7188 31.0799 25.2257 30.84 25.7673 30.7283C26.8544 30.5834 27.9538 30.5533 29.0473 30.6383C29.5307 30.6355 30.0099 30.7294 30.4566 30.9144C30.9033 31.0994 31.3085 31.3717 31.6485 31.7155C31.9885 32.0592 32.2564 32.4674 32.4365 32.916C32.6166 33.3647 32.7053 33.8449 32.6973 34.3283C32.6893 35.2928 32.2999 36.2151 31.6141 36.8934C30.9283 37.5717 30.0019 37.951 29.0373 37.9483H26.7773C26.054 37.9919 25.3343 37.8168 24.7119 37.4458C24.0894 37.0749 23.5931 36.5252 23.2873 35.8683C23.2173 35.7183 23.1573 35.5583 22.9073 35.5683C22.2073 35.5483 21.4673 35.5383 20.8173 35.5383H20.7673ZM26.7673 61.0283C26.3373 60.3383 26.0073 59.7383 25.6073 59.1783C22.694 55.23 20.3386 50.8993 18.6073 46.3083C18.5173 46.0383 18.3973 46.0183 18.1273 46.1083C16.6773 46.6183 15.2073 47.1083 13.7573 47.5783C7.70725 49.7083 4.57726 54.1883 3.51726 60.3383C3.42726 60.8383 3.51726 61.0483 4.11726 61.0483C11.4373 61.0483 18.7573 61.0483 26.1173 61.0483L26.7673 61.0283ZM31.1873 61.0283H53.2573C53.5373 61.0283 53.8273 61.0283 54.1073 61.0283C54.3873 61.0283 54.5373 60.9683 54.4973 60.6283C54.4258 59.9029 54.2988 59.1842 54.1173 58.4783C53.604 56.2341 52.5837 54.1372 51.1346 52.3484C49.6855 50.5595 47.846 49.1262 45.7573 48.1583C43.8873 47.2883 41.8673 46.8083 39.9273 46.1583C39.5573 46.0283 39.4573 46.1583 39.3373 46.4583C37.7675 50.6541 35.6346 54.6171 32.9973 58.2383C32.4673 59.0783 31.9073 60.0083 31.2573 61.0283H31.1873ZM39.9673 19.2583V18.3583C39.9806 16.2806 39.3464 14.2503 38.1529 12.5496C36.9593 10.8489 35.2657 9.5622 33.3073 8.86828C31.3651 8.2792 29.3201 8.10878 27.3073 8.36828C25.6253 8.45516 23.9956 8.98209 22.5812 9.89639C21.1667 10.8107 20.0171 12.0803 19.2473 13.5783C18.6483 14.6365 18.2771 15.8082 18.1573 17.0183C18.2473 17.0183 18.2973 17.0183 18.3173 16.9483C20.1204 14.9031 22.611 13.5902 25.3173 13.2583C25.7966 13.1314 26.3014 13.1379 26.7773 13.2771C27.2532 13.4164 27.682 13.683 28.0173 14.0483C28.6534 14.7075 29.3688 15.2853 30.1473 15.7683C33.0813 17.7778 36.4918 18.9813 40.0373 19.2583H39.9673ZM29.0873 5.86828C29.9973 5.86828 30.9073 5.86828 31.8173 5.96828C34.4752 6.34442 36.939 7.57359 38.8381 9.47083C40.7371 11.3681 41.9686 13.8307 42.3473 16.4883C42.4173 17.0083 42.3473 17.7283 42.5973 17.9783C42.8473 18.2283 43.5973 18.0583 44.1273 18.0583C44.8873 18.0583 44.8773 18.0583 44.7673 17.2983C44.4875 15.2399 43.8081 13.256 42.7673 11.4583C41.1423 8.58412 38.6573 6.29164 35.6617 4.90326C32.6661 3.51488 29.3106 3.10045 26.0673 3.71828C22.2023 4.41935 18.7488 6.56441 16.4073 9.71828C14.6895 11.9685 13.6053 14.6376 13.2673 17.4483C13.1973 17.9583 13.2673 18.1883 13.8673 18.1083C14.2696 18.0683 14.6749 18.0683 15.0773 18.1083C15.4473 18.1083 15.5773 18.0483 15.6073 17.6283C15.6903 15.6213 16.27 13.6663 17.2945 11.9384C18.319 10.2106 19.7562 8.76401 21.4773 7.72828C23.7457 6.30087 26.4161 5.64818 29.0873 5.86828ZM29.0873 59.9383C30.3873 57.5883 31.9773 55.6083 33.2973 53.4483C33.4773 53.1583 33.4973 52.9983 33.2373 52.7383C31.9073 51.4483 30.6073 50.1383 29.3173 48.8183C29.0673 48.5583 28.9273 48.4983 28.6573 48.8183C27.4173 50.1683 26.1573 51.4883 24.8973 52.8183C24.7173 53.0083 24.6573 53.1383 24.8073 53.3883C26.1173 55.5783 27.7373 57.5883 29.0573 59.9683L29.0873 59.9383ZM34.7873 50.7783C35.818 48.8191 36.7037 46.787 37.4373 44.6983C37.4622 44.6451 37.4752 44.587 37.4752 44.5283C37.4752 44.4695 37.4622 44.4115 37.4373 44.3583L35.8573 41.2083L30.8573 46.4783C30.6773 46.6583 30.7173 46.7483 30.8573 46.8983L34.7873 50.7783ZM23.3873 50.7783L26.9873 46.9783C27.1573 46.7983 27.1973 46.6883 26.9873 46.4883C25.4273 44.9483 23.8873 43.3883 22.3373 41.8383C22.1273 41.6183 22.0373 41.6783 21.9173 41.9183C21.5473 42.7083 21.1473 43.4783 20.7573 44.2583C20.7228 44.3283 20.7049 44.4053 20.7049 44.4833C20.7049 44.5613 20.7228 44.6383 20.7573 44.7083C21.4801 46.8194 22.3489 48.8777 23.3573 50.8683L23.3873 50.7783ZM44.9173 23.8683C44.9173 23.3983 44.9173 22.9283 44.9173 22.4583C44.9173 21.8183 45.1973 20.9383 44.7973 20.6083C44.3973 20.2783 43.5573 20.5483 42.9173 20.4983C42.5073 20.4983 42.4673 20.6383 42.4473 20.9783C42.3173 23.2483 42.2073 25.5183 41.8773 27.7683C41.8273 28.1383 41.9573 28.2283 42.2973 28.1983C42.6373 28.1683 43.0273 28.1983 43.3873 28.1983C44.4373 28.1983 44.9173 27.7083 44.9273 26.6683L44.9173 23.8683ZM13.1973 23.8683C13.1973 24.8683 13.1973 25.8683 13.1973 26.7983C13.1765 26.992 13.1996 27.1879 13.2648 27.3716C13.33 27.5552 13.4356 27.7218 13.5738 27.8591C13.7121 27.9964 13.8795 28.1009 14.0635 28.1648C14.2476 28.2287 14.4437 28.2504 14.6373 28.2283C15.0373 28.2283 15.4473 28.2283 15.8573 28.2283C16.2673 28.2283 16.2873 28.1683 16.2373 27.8283C15.9073 25.5383 15.7973 23.2283 15.6673 20.9183C15.6673 20.5783 15.5273 20.5283 15.2373 20.5383C14.6873 20.5383 14.1373 20.5383 13.5973 20.5383C13.2773 20.5383 13.1773 20.6283 13.1873 20.9483C13.2073 21.8683 13.1973 22.8683 13.1973 23.8683ZM27.8273 35.5683C28.3322 35.5782 28.8371 35.5481 29.3373 35.4783C29.5992 35.4264 29.8343 35.2835 30.0008 35.0748C30.1674 34.8661 30.2547 34.6052 30.2473 34.3383C30.2704 34.0705 30.1899 33.8041 30.0225 33.5939C29.855 33.3837 29.6134 33.2457 29.3473 33.2083C28.354 33.0443 27.3405 33.0443 26.3473 33.2083C26.2129 33.2194 26.0822 33.2575 25.963 33.3204C25.8438 33.3833 25.7385 33.4697 25.6535 33.5743C25.5685 33.6789 25.5055 33.7996 25.4684 33.9292C25.4312 34.0588 25.4206 34.1945 25.4373 34.3283C25.4265 34.5941 25.5099 34.8551 25.6727 35.0655C25.8355 35.2758 26.0673 35.422 26.3273 35.4783C26.8247 35.5406 27.3262 35.564 27.8273 35.5483V35.5683ZM26.7373 42.8683L28.7373 44.8683C28.8273 44.9483 28.9073 45.0683 29.0373 44.9283L31.0373 42.8083C29.6093 42.9687 28.1691 42.9888 26.7373 42.8683ZM15.6373 31.3283C15.6373 32.4583 15.9373 32.9383 16.6373 33.0983C16.8873 33.1483 17.0173 33.1483 16.9573 32.8283C16.8273 32.2083 16.7173 31.5983 16.6273 30.9783C16.6273 30.7483 16.4773 30.7083 16.2673 30.6883C15.6973 30.5583 15.4673 30.8683 15.6373 31.2883V31.3283Z" fill="#090808"/>
<path d="M51.1137 56.5915C51.111 56.845 51.0338 57.0922 50.8915 57.302C50.7492 57.5119 50.5482 57.6752 50.3137 57.7715C50.0996 57.866 49.8616 57.8917 49.6323 57.8452C49.403 57.7986 49.1938 57.682 49.0337 57.5115C48.8908 57.3662 48.7696 57.2012 48.6737 57.0215C48.037 55.8383 47.1699 54.7945 46.1236 53.9515C45.9092 53.8105 45.7421 53.6083 45.644 53.3711C45.5459 53.1339 45.5214 52.8728 45.5737 52.6215C45.6196 52.4028 45.7251 52.201 45.8787 52.0386C46.0323 51.8762 46.2278 51.7595 46.4437 51.7015C46.6288 51.6401 46.8267 51.6281 47.0179 51.6667C47.2091 51.7053 47.3868 51.7931 47.5337 51.9215C48.966 53.0313 50.1342 54.4454 50.9537 56.0615C51.0211 56.2336 51.0746 56.4108 51.1137 56.5915Z" fill="#0F0E0E"/>
<path d="M43.6882 50.561C43.687 50.7233 43.6531 50.8838 43.5886 51.0328C43.5241 51.1818 43.4303 51.3162 43.3127 51.4282C43.1952 51.5402 43.0562 51.6274 42.9043 51.6845C42.7523 51.7417 42.5904 51.7677 42.4282 51.761C42.109 51.7505 41.8069 51.6143 41.5877 51.382C41.3686 51.1497 41.2501 50.8402 41.2582 50.521C41.2621 50.3586 41.2981 50.1985 41.3642 50.0501C41.4302 49.9017 41.525 49.7679 41.6431 49.6563C41.7612 49.5447 41.9002 49.4576 42.0521 49.4001C42.204 49.3425 42.3658 49.3156 42.5282 49.321C42.8447 49.3365 43.1428 49.4746 43.3593 49.7061C43.5758 49.9375 43.6938 50.2441 43.6882 50.561Z" fill="#161414"/>
</svg>
