<svg width="191" height="191" viewBox="0 0 191 191" fill="none" xmlns="http://www.w3.org/2000/svg">
<path d="M138.121 190.499C130.804 190.592 123.561 189.019 116.941 185.899C114.571 184.712 111.891 184.289 109.271 184.689C74.821 190.249 37.901 173.229 19.631 143.459C7.91103 124.349 3.35104 103.819 7.33104 81.6093C7.69919 79.4955 7.34705 77.3192 6.33104 75.4293C-3.92896 53.8893 -0.0889626 30.9693 16.331 15.1293C32.991 -0.930688 57.641 -4.27069 78.431 6.73931C79.9552 7.6982 81.764 8.10093 83.551 7.87931C120.951 2.63931 156.271 19.5593 175.401 52.2293C186.011 70.2893 189.811 89.7893 186.071 110.569C185.433 113.312 185.653 116.185 186.701 118.799C202.261 155.289 171.891 190.859 138.121 190.499ZM94.121 157.679C109.581 157.679 122.721 155.599 134.211 147.579C148.071 137.899 152.141 123.859 147.751 108.239C144.841 97.8693 136.531 92.1293 127.061 88.1893C116.161 83.6493 104.531 81.6893 93.121 78.9393C87.511 77.5793 81.801 76.2893 77.011 72.7393C72.011 69.0593 71.681 63.2793 76.011 58.9993C83.811 51.2993 107.581 49.6793 115.251 62.5293C116.863 65.4198 118.636 68.2175 120.561 70.9093C122.42 73.3753 125.097 75.0988 128.111 75.7713C131.125 76.4438 134.28 76.0212 137.011 74.5793C142.301 71.9193 144.821 66.0793 143.431 59.8293C142.119 54.1296 138.924 49.0387 134.361 45.3793C116.551 30.3793 79.901 29.0593 59.361 42.7493C40.781 55.1893 41.011 80.8693 59.871 93.0293C68.081 98.3193 77.331 100.809 86.731 102.879C95.281 104.769 103.981 106.159 112.051 109.799C116.911 111.989 120.581 115.489 120.711 120.959C120.841 126.429 117.821 130.579 112.981 133.409C108.632 135.859 103.759 137.23 98.771 137.409C84.461 138.189 76.681 134.409 70.771 122.409C69.5645 119.87 68.1949 117.412 66.671 115.049C63.371 110.159 57.841 108.589 51.671 110.539C46.201 112.289 43.371 116.029 43.521 122.139C43.791 133.419 50.141 141.339 58.711 147.609C69.761 155.729 82.681 157.499 94.131 157.679H94.121Z" fill="#3CA5DD"/>
<path d="M94.1335 157.68C82.6835 157.5 69.7635 155.68 58.7035 147.68C50.1335 141.41 43.7835 133.49 43.5135 122.21C43.3635 116.1 46.1935 112.36 51.6635 110.61C57.7935 108.66 63.3235 110.23 66.6635 115.12C68.1874 117.483 69.5569 119.941 70.7635 122.48C76.7635 134.48 84.5035 138.25 98.7635 137.48C103.752 137.301 108.624 135.93 112.973 133.48C117.813 130.65 120.833 126.53 120.703 121.03C120.573 115.53 116.903 112.03 112.043 109.87C103.973 106.23 95.2735 104.87 86.7235 102.95C77.3235 100.88 68.0735 98.3903 59.8635 93.1003C41.0135 80.8703 40.7835 55.1903 59.4235 42.7503C79.9435 29.0604 116.593 30.3304 134.423 45.3804C138.986 49.0398 142.182 54.1306 143.493 59.8304C144.883 66.0804 142.363 71.9203 137.073 74.5803C134.339 76.0304 131.178 76.4575 128.157 75.7848C125.136 75.112 122.454 73.3836 120.593 70.9104C118.668 68.2185 116.895 65.4208 115.283 62.5303C107.593 49.6803 83.8235 51.2904 76.0135 59.0004C71.7035 63.2904 72.0735 69.0603 77.0135 72.7403C81.7835 76.2803 87.4935 77.5803 93.1135 78.9403C104.523 81.6903 116.113 83.6503 127.053 88.1903C136.523 92.1303 144.833 97.8703 147.743 108.24C152.133 123.86 148.063 137.9 134.203 147.58C122.733 155.6 109.593 157.65 94.1335 157.68Z" fill="#FBFDFE"/>
</svg>
