<svg width="56" height="36" viewBox="0 0 56 36" fill="none" xmlns="http://www.w3.org/2000/svg">
<path d="M15.5966 12.2109V23.9209C15.5966 27.8209 15.5966 31.7109 15.5966 35.6109H1.75656C0.476561 35.6109 0.476562 35.6109 0.476562 34.3309C0.476562 23.2709 0.476562 12.2109 0.476562 1.15094C0.476562 0.60094 0.616565 0.460938 1.16656 0.460938C5.78656 0.460938 10.3966 0.460938 15.0166 0.460938H15.6166L15.5966 12.2109Z" fill="#ED2224"/>
<path d="M15.5781 35.6119C15.5781 31.7119 15.5781 27.8219 15.5781 23.9219H54.4681C55.0481 23.9219 55.1481 24.0919 55.1381 24.6119C55.1381 28.1119 55.1381 31.6085 55.1381 35.1019C55.1381 35.5019 55.0881 35.6519 54.6281 35.6519H15.9081L15.5781 35.6119Z" fill="#010101"/>
<path d="M15.6016 12.2089V0.518905H16.2716H53.2716C53.5416 0.518905 53.8416 0.418901 54.0716 0.678901C54.3016 0.938901 54.3016 0.678902 54.4216 0.608902C54.8016 0.428902 55.2616 0.708907 55.1516 1.09891C55.1013 1.48394 55.1013 1.87387 55.1516 2.2589C55.1516 5.3889 55.1516 8.5189 55.1516 11.6589C55.1516 12.1589 55.0016 12.2389 54.5516 12.2389L15.6016 12.2089Z" fill="#119A48"/>
<path d="M15.6016 24.2089V12.5189H16.2716H53.2716C53.5416 12.5189 53.8416 12.4189 54.0716 12.6789C54.3016 12.9389 54.3016 12.6789 54.4216 12.6089C54.8016 12.4289 55.2616 12.7089 55.1516 13.0989C55.1013 13.4839 55.1013 13.8739 55.1516 14.2589C55.1516 17.3889 55.1516 20.5189 55.1516 23.6589C55.1516 24.1589 55.0016 24.2389 54.5516 24.2389L15.6016 24.2089Z" fill="white"/>
</svg>
