<svg width="63" height="42" viewBox="0 0 63 42" fill="none" xmlns="http://www.w3.org/2000/svg">
<path d="M0.393749 0.160156H0.873753H31.2138H31.5838C31.5838 0.380156 31.5838 0.610154 31.5838 0.830154C31.5838 2.35015 31.5838 3.83015 31.5838 5.39015V21.0202C31.5638 21.3866 31.5638 21.7538 31.5838 22.1202C31.5838 22.5202 31.4738 22.6202 31.0838 22.6202H0.34375L0.393749 0.160156ZM27.4738 18.8702L27.5738 18.9302V18.7902C27.4421 18.6143 27.3554 18.409 27.321 18.192C27.2867 17.9751 27.3058 17.753 27.3768 17.5451C27.4477 17.3372 27.5683 17.1498 27.7281 16.999C27.8879 16.8483 28.0821 16.7388 28.2938 16.6802C28.2938 16.6802 28.2938 16.6202 28.3738 16.5202C27.915 16.612 27.4425 16.612 26.9838 16.5202C26.5638 16.3102 26.6437 15.6602 26.4137 15.2402C26.4137 15.2402 26.4138 15.2402 26.2638 15.1002C26.2638 16.3602 25.6038 16.8702 24.2638 16.6002C25.4838 17.1502 25.6738 17.9402 25.0338 19.0602C25.1501 18.8467 25.318 18.6657 25.522 18.5336C25.7261 18.4015 25.9599 18.3224 26.2022 18.3035C26.4446 18.2846 26.6878 18.3266 26.9099 18.4255C27.1319 18.5245 27.3257 18.6773 27.4738 18.8702ZM6.85375 18.8702L6.93375 18.9502C7.00375 18.9502 6.93375 18.8502 6.93375 18.8002C6.80191 18.6256 6.71445 18.4217 6.67889 18.2059C6.64332 17.9901 6.66073 17.7689 6.72959 17.5613C6.79846 17.3537 6.91673 17.166 7.07423 17.0142C7.23173 16.8625 7.42375 16.7513 7.63375 16.6902C7.63375 16.6902 7.63375 16.6202 7.69375 16.4902C6.46375 16.8502 5.86375 16.2902 5.76375 15.0602C5.54375 15.5502 5.50375 16.0602 5.21375 16.3902C4.92375 16.7202 4.29375 16.4702 3.82375 16.5402C3.78927 16.5571 3.75863 16.5809 3.73375 16.6102C4.05375 16.9702 4.73375 17.1002 4.79375 17.5302C4.7728 18.0413 4.65399 18.5437 4.44375 19.0102C4.89375 18.7002 5.23375 18.2902 5.65375 18.2102C6.07375 18.1302 6.37375 18.7002 6.83375 18.8702H6.85375ZM20.6637 18.8702V18.9502H20.7138L20.6438 18.8902C20.2438 17.9502 20.2938 17.1702 21.3738 16.7202C21.3738 16.7202 21.3738 16.6602 21.3738 16.5202C20.0838 16.9902 19.6538 16.2302 19.3738 15.1002C19.2856 15.5754 19.1092 16.0299 18.8538 16.4402C18.5138 16.8002 17.9338 16.5002 17.4638 16.5902C17.4638 16.5902 17.4638 16.5902 17.3938 16.6702C17.7538 16.9602 18.2638 17.1702 18.4438 17.5502C18.6238 17.9302 18.2038 18.4102 18.1438 18.8702C18.1438 18.8702 18.1438 18.9302 18.2238 19.0302C18.3204 18.8125 18.4744 18.6253 18.6695 18.4887C18.8645 18.3521 19.093 18.2712 19.3306 18.2547C19.5681 18.2383 19.8057 18.2869 20.0177 18.3953C20.2296 18.5038 20.4081 18.6679 20.5338 18.8702C20.5338 18.8702 20.6038 18.8702 20.6438 18.8702H20.6637ZM11.4238 18.8702C11.5586 18.6882 11.7342 18.5403 11.9366 18.4384C12.1389 18.3365 12.3622 18.2834 12.5888 18.2834C12.8153 18.2834 13.0386 18.3365 13.2409 18.4384C13.4433 18.5403 13.6189 18.6882 13.7538 18.8702C13.7538 18.8702 13.7538 18.8702 13.9038 18.8702C13.7337 18.7095 13.6098 18.5062 13.5449 18.2815C13.48 18.0568 13.4764 17.8188 13.5346 17.5922C13.5928 17.3656 13.7106 17.1588 13.8757 16.9931C14.0409 16.8274 14.2474 16.709 14.4738 16.6502C14.4738 16.6502 14.4738 16.5902 14.4738 16.5102C14.1638 16.5102 13.8638 16.5102 13.5738 16.5102C13.1238 16.5702 12.9138 16.4002 12.8138 15.9602C12.7874 15.6408 12.6575 15.3388 12.4438 15.1002C12.2838 15.5802 12.2538 16.1802 11.9438 16.4102C11.6338 16.6402 11.0438 16.4902 10.5838 16.5202C10.5838 16.5202 10.5838 16.5202 10.4638 16.6602C11.5838 17.0302 11.7638 17.7802 11.2838 18.7602C11.2838 18.7602 11.2838 18.7602 11.2838 18.8202L11.2138 18.8802L11.4238 18.8702ZM18.2138 7.73016C19.0138 7.13016 19.8138 6.73016 20.6038 7.73016C20.6038 7.73016 20.6738 7.73016 20.7438 7.73016C20.6919 7.51454 20.6216 7.30377 20.5338 7.10016C20.2738 6.55016 20.3038 6.10016 20.9338 5.84016C21.1286 5.7282 21.3099 5.59396 21.4738 5.44016V5.27016C20.2638 5.62016 19.6538 5.15015 19.5338 4.01015C19.5338 4.01015 19.4838 4.01016 19.3338 3.87016C19.3838 5.25016 18.6038 5.55016 17.3338 5.37016C18.6438 5.88016 18.6438 6.73015 18.1738 7.72015L18.2138 7.73016ZM3.67375 5.27016V5.45016C4.05061 5.66562 4.38864 5.94281 4.67375 6.27016C4.93375 6.69016 4.47375 7.13015 4.41375 7.58015C4.46102 7.61664 4.51904 7.63644 4.57875 7.63644C4.63846 7.63644 4.69649 7.61664 4.74375 7.58015C5.45375 6.77015 6.08375 7.10016 6.74375 7.70016C6.74375 7.70016 6.85375 7.83016 6.95375 7.70016C6.88885 7.44885 6.80871 7.20172 6.71375 6.96015C6.65939 6.87578 6.62439 6.78042 6.61125 6.68092C6.5981 6.58141 6.60715 6.48023 6.63774 6.38464C6.66833 6.28904 6.71971 6.2014 6.78817 6.12801C6.85664 6.05462 6.94051 5.99729 7.03375 5.96015C7.34169 5.81714 7.592 5.57388 7.74375 5.27016C6.41375 5.71016 5.84375 5.12016 5.67375 3.87016C5.54375 5.10016 4.94375 5.64015 3.65375 5.25015L3.67375 5.27016ZM13.8738 7.77016C13.8011 7.46619 13.7042 7.16856 13.5838 6.88016C13.5326 6.80472 13.4993 6.71862 13.4864 6.6284C13.4735 6.53817 13.4813 6.44619 13.5093 6.35944C13.5372 6.27269 13.5846 6.19345 13.6477 6.12773C13.7109 6.06201 13.7882 6.01154 13.8738 5.98016C14.1654 5.84703 14.4145 5.63593 14.5938 5.37016C14.0638 5.27016 13.5038 5.54016 13.1238 5.23016C12.7438 4.92016 12.8738 4.33016 12.5538 3.92016C12.3938 4.39016 12.3538 4.92016 12.0538 5.24016C11.7538 5.56016 11.1538 5.30016 10.7038 5.35016C10.7038 5.35016 10.6438 5.40016 10.5338 5.49016C11.7738 5.89016 11.8438 6.70015 11.3338 7.68015C11.3338 7.68015 11.3338 7.74016 11.3838 7.78016C11.7738 7.51016 12.1338 7.10016 12.5438 7.03016C12.9538 6.96016 13.2938 7.54015 13.8538 7.75015L13.8738 7.77016ZM24.2838 5.37016C25.2838 5.93016 25.8338 6.55015 25.0538 7.57015C25.1703 7.61524 25.2986 7.62004 25.4182 7.5838C25.5378 7.54756 25.6418 7.47236 25.7138 7.37016C25.7853 7.27299 25.8787 7.19401 25.9864 7.13957C26.0941 7.08514 26.2131 7.05677 26.3338 7.05677C26.4544 7.05677 26.5734 7.08514 26.6811 7.13957C26.7888 7.19401 26.8822 7.27299 26.9538 7.37016C27.0738 7.49016 27.2538 7.75015 27.4538 7.58015C27.6538 7.41015 27.4538 7.19016 27.3738 7.02016C27.2949 6.93075 27.2399 6.82293 27.2137 6.70665C27.1875 6.59037 27.191 6.46937 27.2239 6.3548C27.2568 6.24024 27.318 6.13578 27.4018 6.05109C27.4857 5.96639 27.5895 5.90417 27.7038 5.87016C28.0193 5.72246 28.2788 5.47699 28.4438 5.17016C27.0138 5.72016 26.4738 5.03016 26.3138 3.87016C26.1938 5.09016 25.5738 5.62016 24.2638 5.35016L24.2838 5.37016ZM25.1438 13.3702C25.3621 13.2228 25.5664 13.0554 25.7537 12.8702C25.8163 12.7794 25.8999 12.7052 25.9974 12.6539C26.095 12.6027 26.2036 12.5759 26.3138 12.5759C26.424 12.5759 26.5325 12.6027 26.6301 12.6539C26.7276 12.7052 26.8112 12.7794 26.8738 12.8702C27.0746 13.0401 27.2886 13.1939 27.5138 13.3302H27.6838C26.9338 12.2702 27.2538 11.5702 28.2738 11.0802C28.2738 11.0802 28.2738 11.0102 28.2738 10.8802C27.0538 11.2802 26.5138 10.6902 26.3338 9.59016C26.3338 9.59016 26.2838 9.59016 26.1838 9.49016C26.1838 10.7102 25.5338 11.1602 24.4038 10.9402C24.4038 10.9402 24.3538 10.9402 24.3038 11.0402C24.6738 11.3302 25.1938 11.5402 25.3538 11.9102C25.5138 12.2802 25.0938 12.8002 25.0338 13.2802C25.0738 13.2802 25.0938 13.3002 25.1238 13.3502L25.1438 13.3702ZM7.74375 11.0302C7.18375 10.8502 6.58375 11.1402 6.25375 10.8302C5.92375 10.5202 5.90375 9.96016 5.71375 9.45016C5.60393 9.69257 5.51365 9.94337 5.44375 10.2002C5.34375 10.7702 5.06375 11.0402 4.44375 10.9402C4.19749 10.9201 3.95001 10.9201 3.70375 10.9402L3.59375 11.0702C4.84375 11.5102 5.01375 12.3102 4.39375 13.3902C4.69418 13.2441 4.97617 13.0628 5.23375 12.8502C5.28791 12.7796 5.35757 12.7225 5.43733 12.6832C5.51709 12.6439 5.60483 12.6234 5.69375 12.6234C5.78268 12.6234 5.87041 12.6439 5.95017 12.6832C6.02993 12.7225 6.09959 12.7796 6.15375 12.8502C6.38448 13.0436 6.6284 13.2207 6.88375 13.3802H7.05375C6.29375 12.2302 6.59375 11.5002 7.72375 11.0102L7.74375 11.0302ZM20.6637 13.4602C20.6637 12.8202 20.2538 12.3802 20.3638 11.9702C20.4738 11.5602 21.0738 11.4102 21.3638 11.0802C21.3638 11.0802 21.3638 11.0102 21.3638 10.8502C20.1638 11.3002 19.6338 10.7202 19.4838 9.61015C19.4838 9.61015 19.4338 9.61015 19.3838 9.54015C19.2038 10.0002 19.1538 10.6002 18.8238 10.8402C18.4938 11.0802 17.9138 10.9402 17.3538 10.9602C17.7838 11.3202 18.3538 11.5602 18.4638 11.9602C18.5738 12.3602 18.2838 12.8602 18.1638 13.3202C18.2952 13.1021 18.4831 12.9237 18.7078 12.8038C18.9324 12.684 19.1853 12.6272 19.4396 12.6395C19.6939 12.6518 19.9401 12.7328 20.1521 12.8737C20.3641 13.0147 20.534 13.2104 20.6438 13.4402L20.6637 13.4602ZM13.8938 13.4602C13.8139 13.12 13.7103 12.7858 13.5838 12.4602C13.3738 12.0402 13.5138 11.8002 13.8738 11.5702C14.2338 11.3402 14.4338 11.2902 14.5838 10.9402C14.3241 10.9198 14.0634 10.9198 13.8038 10.9402C13.6984 10.9745 13.5864 10.9837 13.4768 10.9671C13.3672 10.9504 13.2631 10.9083 13.1727 10.8442C13.0823 10.78 13.0082 10.6956 12.9563 10.5976C12.9043 10.4997 12.8761 10.391 12.8738 10.2802C12.8532 10.0016 12.7406 9.73778 12.5538 9.53016C12.3838 10.0002 12.3538 10.5302 12.0438 10.8402C11.7338 11.1502 11.1538 10.8402 10.6938 10.9402C10.6938 10.9402 10.6438 10.9402 10.6038 11.0402C10.9738 11.3302 11.4738 11.5402 11.6738 11.9102C11.8738 12.2802 11.3638 12.7402 11.4138 13.2702C11.9138 13.1202 12.2038 12.5302 12.6238 12.6002C13.0438 12.6702 13.3738 13.0602 13.8738 13.4002L13.8938 13.4602Z" fill="#3856A6"/>
<path d="M31.6506 15.7995V10.6195H52.9806C56.0906 10.6195 59.1906 10.6195 62.3006 10.6195C62.7006 10.6195 62.8706 10.5595 62.8606 10.0995C62.8606 8.52953 62.8606 6.96953 62.8606 5.40953L62.9906 5.26953V31.6295C62.8906 31.5795 62.8806 31.4795 62.8706 31.3795C62.8706 29.8995 62.8706 28.3795 62.8706 26.9295C62.8706 26.3295 62.7106 26.2195 62.1306 26.2195C41.7706 26.2195 21.4106 26.2195 1.05063 26.2195H0.390625V22.5995H31.1306C31.5206 22.5995 31.6606 22.4995 31.6306 22.0995C31.6106 21.7331 31.6106 21.3659 31.6306 20.9995H43.4706C49.7206 20.9995 55.9806 20.9995 62.2406 20.9995C62.7506 20.9995 62.8806 20.8695 62.8606 20.3695C62.8606 19.0495 62.8606 17.7295 62.8606 16.3695C62.8606 15.7995 62.6906 15.7195 62.1806 15.7195L31.6506 15.7995Z" fill="#FAF9F9"/>
<path d="M62.8506 31.3789C62.8506 31.4789 62.8506 31.5789 62.9706 31.6289V36.5089L62.8406 36.6489H62.2406H0.390625V31.3889H0.930626H62.3006L62.8506 31.3789Z" fill="#F1EEEF"/>
<path d="M0.387184 36.6289H62.2372H62.8372C62.8372 38.1489 62.8372 39.6289 62.8372 41.1989C62.8372 41.6989 62.7272 41.8389 62.2172 41.8389C54.8572 41.8389 47.4972 41.8389 40.1272 41.8389H1.02719C0.807187 41.8389 0.587187 41.8389 0.367188 41.8389L0.387184 36.6289Z" fill="#D8222B"/>
<path d="M62.8506 31.3817H62.3006H0.930626H0.390625V26.2617H1.05063C21.4106 26.2617 41.7706 26.2617 62.1306 26.2617C62.7106 26.2617 62.8906 26.3717 62.8706 26.9717C62.8206 28.4217 62.8506 29.8717 62.8506 31.3817Z" fill="#D8212A"/>
<path d="M62.9706 5.28141L62.8406 5.42141H62.1106H31.6406C31.6406 3.90141 31.6406 2.4214 31.6406 0.861404C31.6406 0.641404 31.6406 0.411406 31.6406 0.191406H62.9706V5.28141Z" fill="#F1F0F0"/>
<path d="M31.6406 5.39844H62.1106H62.8406C62.8406 6.95844 62.8406 8.51844 62.8406 10.0884C62.8406 10.5484 62.6806 10.6084 62.2806 10.6084C59.1706 10.6084 56.0706 10.6084 52.9606 10.6084H31.6506L31.6406 5.39844Z" fill="#D8222B"/>
<path d="M31.6506 15.8008H62.1906C62.7006 15.8008 62.8906 15.8808 62.8706 16.4508C62.8706 17.7708 62.8706 19.0908 62.8706 20.4508C62.8706 20.9508 62.7606 21.0808 62.2506 21.0808C55.9906 21.0808 49.7306 21.0808 43.4806 21.0808H31.6406L31.6506 15.8008Z" fill="#D8222B"/>
<path d="M3.64844 5.25031C4.93844 5.64031 5.53844 5.10031 5.64844 3.82031C5.81844 5.07031 6.38844 5.66031 7.71844 5.22031C7.56668 5.52404 7.31638 5.7673 7.00844 5.91032C6.91519 5.94746 6.83133 6.00478 6.76286 6.07817C6.69439 6.15156 6.64302 6.2392 6.61243 6.33479C6.58184 6.43039 6.57279 6.53157 6.58593 6.63107C6.59907 6.73058 6.63408 6.82594 6.68844 6.91032C6.78339 7.15188 6.86354 7.399 6.92844 7.65031C6.82844 7.76031 6.75844 7.65031 6.71844 7.65031C6.09844 7.05031 5.46844 6.72032 4.71844 7.53032C4.67117 7.56681 4.61315 7.5866 4.55344 7.5866C4.49373 7.5866 4.4357 7.56681 4.38844 7.53032C4.44844 7.08032 4.90844 6.64031 4.64844 6.22031C4.36332 5.89296 4.0253 5.61578 3.64844 5.40031V5.25031Z" fill="#E3E4EC"/>
<path d="M13.8478 7.74844C13.2878 7.53844 12.9878 6.93844 12.5178 7.00844C12.0478 7.07844 11.7478 7.48844 11.3578 7.75844C11.3578 7.75844 11.2978 7.67844 11.3078 7.65844C11.8178 6.65844 11.7478 5.86844 10.5078 5.46844C10.6178 5.37844 10.6478 5.32844 10.6778 5.32844C11.1278 5.32844 11.6778 5.51844 12.0278 5.21844C12.3778 4.91844 12.3678 4.36844 12.5278 3.89844C12.8478 4.30844 12.7478 4.89844 13.0978 5.20844C13.4478 5.51844 14.0378 5.20844 14.5678 5.34844C14.3886 5.61422 14.1394 5.82531 13.8478 5.95844C13.7622 5.98982 13.685 6.04029 13.6218 6.10601C13.5587 6.17173 13.5113 6.25097 13.4833 6.33772C13.4554 6.42447 13.4476 6.51645 13.4605 6.60667C13.4734 6.6969 13.5067 6.783 13.5578 6.85844C13.6782 7.14684 13.7752 7.44446 13.8478 7.74844Z" fill="#E2E3EB"/>
<path d="M18.1916 7.70937C18.6616 6.70937 18.6616 5.86937 17.3516 5.35938C18.5916 5.53938 19.3516 5.23937 19.3516 3.85938C19.5016 3.95938 19.5516 3.97937 19.5516 3.99937C19.6716 5.13937 20.2816 5.60938 21.4916 5.25938V5.42937C21.3277 5.58318 21.1465 5.71742 20.9516 5.82938C20.3216 6.10938 20.2916 6.53938 20.5516 7.08938C20.6394 7.29299 20.7097 7.50376 20.7616 7.71938C20.6916 7.71938 20.6316 7.71938 20.6216 7.71938C19.8316 6.71938 19.0316 7.11938 18.2316 7.71938L18.1916 7.70937Z" fill="#E2E3EB"/>
<path d="M24.2578 5.35032C25.5678 5.62032 26.1878 5.09031 26.3078 3.82031C26.4978 5.03031 27.0078 5.72032 28.4378 5.19032C28.2728 5.49715 28.0133 5.74262 27.6978 5.89031C27.5921 5.92563 27.4962 5.98535 27.4178 6.06464C27.3394 6.14392 27.2808 6.24054 27.2468 6.34667C27.2127 6.45281 27.2041 6.56548 27.2216 6.67556C27.2392 6.78564 27.2824 6.89005 27.3478 6.98032C27.4278 7.15032 27.5978 7.39031 27.4278 7.54031C27.2578 7.69031 27.0478 7.45031 26.9278 7.33031C26.8563 7.23315 26.7629 7.15417 26.6552 7.09973C26.5475 7.0453 26.4285 7.01694 26.3078 7.01694C26.1871 7.01694 26.0682 7.0453 25.9605 7.09973C25.8528 7.15417 25.7594 7.23315 25.6878 7.33031C25.6159 7.43251 25.5119 7.50772 25.3923 7.54396C25.2727 7.5802 25.1444 7.57541 25.0278 7.53032C25.8078 6.53032 25.2478 5.87032 24.2578 5.35032Z" fill="#E3E5EC"/>
<path d="M25.1237 13.3488C25.1237 13.3488 25.0738 13.2788 25.0738 13.2588C25.1338 12.7788 25.5738 12.2587 25.3938 11.8887C25.2138 11.5187 24.7138 11.3088 24.3438 11.0188C24.3938 10.9688 24.4238 10.9188 24.4438 10.9188C25.5738 11.1388 26.2038 10.6888 26.2238 9.46875C26.3238 9.53875 26.3637 9.54875 26.3737 9.56875C26.5537 10.6687 27.0938 11.2587 28.3138 10.8587C28.3138 10.9887 28.3138 11.0488 28.3138 11.0588C27.3138 11.5488 26.9738 12.2488 27.7238 13.3088H27.5538C27.3156 13.1807 27.0881 13.0336 26.8738 12.8688C26.8112 12.778 26.7276 12.7038 26.6301 12.6525C26.5325 12.6013 26.424 12.5745 26.3138 12.5745C26.2036 12.5745 26.095 12.6013 25.9974 12.6525C25.8999 12.7038 25.8163 12.778 25.7537 12.8688C25.5591 13.048 25.3482 13.2087 25.1237 13.3488Z" fill="#E5E7ED"/>
<path d="M7.72375 11.0111C6.59375 11.5011 6.29375 12.2311 7.05375 13.3011H6.88375C6.6284 13.1416 6.38448 12.9645 6.15375 12.7711C6.09959 12.7006 6.02993 12.6434 5.95017 12.6041C5.87041 12.5648 5.78267 12.5444 5.69375 12.5444C5.60482 12.5444 5.51709 12.5648 5.43733 12.6041C5.35757 12.6434 5.28791 12.7006 5.23375 12.7711C4.97616 12.9838 4.69418 13.1651 4.39375 13.3111C5.01375 12.2311 4.84375 11.4311 3.59375 10.9911L3.70375 10.8611C3.95001 10.841 4.19749 10.841 4.44375 10.8611C5.04375 10.9611 5.32375 10.6911 5.44375 10.1211C5.51365 9.86431 5.60393 9.61351 5.71375 9.37109C5.90375 9.88109 5.95375 10.4511 6.25375 10.7511C6.55375 11.0511 7.16375 10.8711 7.72375 11.0111Z" fill="#E5E7ED"/>
<path d="M20.6406 13.4417C20.5305 13.2196 20.3637 13.0305 20.1571 12.8934C19.9505 12.7564 19.7115 12.6762 19.464 12.661C19.2166 12.6457 18.9695 12.696 18.7477 12.8068C18.5259 12.9175 18.3372 13.0848 18.2006 13.2917C18.3206 12.8317 18.6306 12.2917 18.5006 11.9317C18.3706 11.5717 17.8206 11.3017 17.3906 10.9317C17.9506 10.9317 18.5406 11.0517 18.8606 10.8117C19.1806 10.5717 19.2406 9.97172 19.4206 9.51172C19.4706 9.51172 19.5206 9.51172 19.5206 9.58172C19.6706 10.6917 20.2006 11.2717 21.4006 10.8217C21.4006 10.9817 21.4006 11.0317 21.4006 11.0517C21.0806 11.3817 20.4806 11.5117 20.4006 11.9417C20.3206 12.3717 20.6506 12.8017 20.6406 13.4417Z" fill="#E5E6EC"/>
<path d="M13.8681 13.4017C13.3681 13.0617 13.0081 12.6517 12.5981 12.5817C12.1881 12.5117 11.8881 13.1017 11.3881 13.2517C11.3381 12.7217 11.8481 12.2517 11.6481 11.8917C11.4481 11.5317 10.9481 11.3117 10.5781 11.0217C10.5781 10.9717 10.6381 10.9217 10.6681 10.9217C11.1281 10.9217 11.6681 11.1017 12.0181 10.8217C12.3681 10.5417 12.3581 9.98172 12.5281 9.51172C12.715 9.71934 12.8275 9.98316 12.8481 10.2617C12.8505 10.3725 12.8787 10.4813 12.9306 10.5792C12.9825 10.6771 13.0567 10.7616 13.1471 10.8257C13.2374 10.8899 13.3416 10.932 13.4512 10.9486C13.5608 10.9653 13.6727 10.9561 13.7781 10.9217C14.0377 10.9014 14.2985 10.9014 14.5581 10.9217C14.4081 11.2717 14.0981 11.3917 13.8481 11.5517C13.5981 11.7117 13.3481 12.0217 13.5581 12.4417C13.6829 12.7544 13.7865 13.0751 13.8681 13.4017Z" fill="#E5E7ED"/>
<path d="M11.3591 18.8684C11.3591 18.8684 11.3591 18.8684 11.3591 18.8084C11.8391 17.8084 11.6591 17.0784 10.5391 16.7084C10.6191 16.6184 10.6391 16.5684 10.6591 16.5684C11.1191 16.5684 11.6591 16.6884 12.0191 16.4584C12.3791 16.2284 12.3591 15.6284 12.5191 15.1484C12.7328 15.3871 12.8628 15.6891 12.8891 16.0084C12.9891 16.4484 13.1991 16.6184 13.6491 16.5584C13.9391 16.5584 14.2391 16.5584 14.5491 16.5584C14.5491 16.6384 14.5491 16.6884 14.5491 16.6984C14.3244 16.7493 14.1172 16.8584 13.9482 17.0149C13.7792 17.1714 13.6544 17.3696 13.5865 17.5897C13.5185 17.8097 13.5098 18.0438 13.5612 18.2683C13.6125 18.4928 13.7222 18.6998 13.8791 18.8684C13.7591 18.8684 13.7391 18.8684 13.7291 18.8684C13.5942 18.6864 13.4186 18.5386 13.2163 18.4367C13.0139 18.3348 12.7906 18.2817 12.5641 18.2817C12.3375 18.2817 12.1142 18.3348 11.9119 18.4367C11.7096 18.5386 11.5339 18.6864 11.3991 18.8684H11.3591Z" fill="#E8E8ED"/>
<path d="M20.6409 18.8712C20.6409 18.8712 20.5409 18.8712 20.5309 18.8712C20.4034 18.685 20.2298 18.5349 20.0272 18.4354C19.8245 18.336 19.5996 18.2906 19.3742 18.3037C19.1489 18.3168 18.9307 18.3879 18.7409 18.5101C18.5511 18.6323 18.3961 18.8015 18.2909 19.0012C18.2409 18.9012 18.2009 18.8712 18.2109 18.8412C18.2709 18.3812 18.7009 17.9112 18.5109 17.5212C18.3209 17.1312 17.8209 16.9312 17.4609 16.6412C17.4609 16.6412 17.4609 16.5612 17.5309 16.5612C18.0009 16.4712 18.5809 16.7712 18.9209 16.4112C19.1917 15.9911 19.3784 15.5225 19.4709 15.0312C19.7309 16.1612 20.1609 16.9212 21.4709 16.4512C21.4709 16.5912 21.4709 16.6412 21.4709 16.6512C20.3909 17.1012 20.3409 17.8812 20.7409 18.8212L20.6409 18.8712Z" fill="#E8E8ED"/>
<path d="M6.83313 18.8686C6.37313 18.7286 6.10313 18.0986 5.62313 18.2086C5.14313 18.3186 4.86313 18.6986 4.41313 19.0086C4.62337 18.5422 4.74218 18.0398 4.76313 17.5286C4.66313 17.0986 4.02312 16.9686 3.70312 16.6086C3.72801 16.5793 3.75864 16.5555 3.79313 16.5386C4.26313 16.4686 4.85312 16.7486 5.18312 16.3886C5.51312 16.0286 5.51313 15.5486 5.73313 15.0586C5.83313 16.2886 6.43313 16.8486 7.66313 16.4886C7.66313 16.6186 7.66312 16.6786 7.60312 16.6886C7.39312 16.7497 7.20111 16.8609 7.04361 17.0127C6.88611 17.1644 6.76784 17.3522 6.69897 17.5597C6.6301 17.7673 6.6127 17.9885 6.64826 18.2043C6.68383 18.4201 6.77129 18.6241 6.90313 18.7986C6.88515 18.8267 6.86126 18.8506 6.83313 18.8686Z" fill="#E8E9ED"/>
<path d="M27.4734 18.8686C27.3282 18.6761 27.1375 18.5226 26.9185 18.4218C26.6994 18.321 26.4588 18.276 26.2181 18.2909C25.9775 18.3058 25.7442 18.38 25.5393 18.507C25.3343 18.634 25.1639 18.8097 25.0434 19.0186C25.6834 17.8986 25.4934 17.1086 24.2734 16.5586C25.5834 16.8286 26.2034 16.3186 26.2734 15.0586C26.3834 15.1486 26.4134 15.1686 26.4234 15.1986C26.6534 15.6186 26.5734 16.2686 26.9934 16.4786C27.4522 16.5705 27.9247 16.5705 28.3834 16.4786C28.3334 16.5786 28.3234 16.6286 28.3034 16.6386C28.0918 16.6973 27.8976 16.8067 27.7378 16.9575C27.578 17.1082 27.4574 17.2956 27.3865 17.5035C27.3155 17.7114 27.2964 17.9335 27.3307 18.1505C27.365 18.3674 27.4518 18.5727 27.5834 18.7486C27.5524 18.7934 27.5154 18.8338 27.4734 18.8686Z" fill="#E8E9EE"/>
<path d="M18.1897 7.71094L18.1797 7.73093L18.1897 7.72093V7.71094Z" fill="#E2E3EB"/>
<path d="M6.90031 18.7695C6.95031 18.7695 6.98031 18.8695 6.90031 18.9195L6.82031 18.8395C6.85208 18.8228 6.87948 18.7988 6.90031 18.7695Z" fill="#E8E9ED"/>
<path d="M20.6406 18.8716L20.7106 18.9316H20.6606V18.8516L20.6406 18.8716Z" fill="#E8E8ED"/>
<path d="M27.5287 18.7617V18.9017L27.4688 18.8717C27.4925 18.8372 27.5126 18.8004 27.5287 18.7617Z" fill="#E8E9EE"/>
</svg>
