<svg width="53" height="53" viewBox="0 0 53 53" fill="none" xmlns="http://www.w3.org/2000/svg">
<path d="M18.2628 17.1545C18.3819 15.1451 19.1654 13.2404 20.4802 11.7638C21.7951 10.2872 23.5605 9.32954 25.4766 9.05341C27.544 8.8135 29.6228 9.38738 31.3041 10.6622C32.9855 11.9369 34.1476 13.8203 34.562 15.9419C34.8345 17.3568 34.7493 18.821 34.3148 20.1914C33.8802 21.5617 33.1112 22.7911 32.083 23.7592C31.9467 23.914 31.7979 24.0559 31.6244 24.2236C32.1822 24.43 32.7276 24.5977 33.2357 24.8299C33.496 24.946 33.558 24.8299 33.6696 24.6364C34.5895 23.6107 35.752 22.8545 37.041 22.4434C36.2739 21.7289 35.6865 20.8298 35.33 19.8247C34.9736 18.8197 34.8588 17.739 34.9958 16.6772C35.1912 15.0418 35.9806 13.5463 37.2021 12.4977C38.3893 11.4287 39.9162 10.8578 41.4856 10.8959C43.055 10.9341 44.5546 11.5786 45.6925 12.7041C46.3367 13.3271 46.8506 14.0816 47.2019 14.9206C47.5533 15.7596 47.7347 16.665 47.7347 17.5802C47.7347 18.4954 47.5533 19.4008 47.2019 20.2398C46.8506 21.0788 46.3367 21.8333 45.6925 22.4563C47.2734 22.9757 48.6484 24.0173 49.6093 25.4233C50.5132 26.7114 50.9995 28.2657 50.9975 29.8608C50.9975 30.9831 50.9975 32.1054 50.9975 33.2276C51.0123 33.4491 50.9606 33.6698 50.8496 33.8593C50.7386 34.0488 50.5737 34.1977 50.3778 34.2854C48.5213 35.2682 46.5318 35.9511 44.4778 36.3107H44.0564C43.9162 36.3489 43.7697 36.3546 43.6271 36.3275C43.4846 36.3004 43.3495 36.2411 43.2313 36.1538C43.1131 36.0665 43.0148 35.9533 42.9432 35.8222C42.8716 35.691 42.8285 35.5452 42.8169 35.3948C42.8031 35.117 42.8937 34.8446 43.0696 34.6351C43.2454 34.4257 43.4926 34.2956 43.7589 34.2725C45.1192 34.0569 46.4504 33.6759 47.7253 33.1373C48.8656 32.6472 48.878 32.6601 48.878 31.4088C48.9277 30.437 48.8653 29.4626 48.6921 28.5063C48.4146 27.2834 47.7507 26.1928 46.8068 25.4093C45.8629 24.6257 44.6936 24.1946 43.4863 24.1849C41.8997 24.1849 40.3132 24.1849 38.7391 24.1849C38.0348 24.1987 37.3409 24.3639 36.701 24.6703C36.061 24.9767 35.4889 25.4175 35.0206 25.9651C36.677 27.2554 37.8931 29.0636 38.4911 31.125C38.7917 32.2236 38.9337 33.3626 38.9126 34.5047C38.9126 35.7947 38.9126 37.0073 38.9126 38.2586C38.9364 38.4998 38.887 38.7427 38.7714 38.9532C38.6558 39.1638 38.4798 39.3313 38.268 39.4325C33.8774 41.8424 28.9058 42.8647 23.9644 42.3736C20.6671 42.0501 17.4605 41.0691 14.5196 39.4841C14.309 39.4057 14.1264 39.2625 13.9958 39.0736C13.8652 38.8847 13.7928 38.6589 13.7883 38.4263C13.8627 36.6332 13.7015 34.8272 13.875 33.0341C13.9846 31.6844 14.3604 30.3726 14.9788 29.1808C15.5973 27.9889 16.4452 26.9425 17.4695 26.107L17.6927 25.9006C16.9766 25.0021 15.9647 24.4135 14.8542 24.2494C12.6792 23.9334 10.4725 23.9334 8.29738 24.2494C7.05346 24.4833 5.9288 25.1667 5.12157 26.179C4.31434 27.1914 3.87637 28.4679 3.88483 29.7834C3.88483 30.5703 3.88483 31.3572 3.88483 32.1312C3.87008 32.2647 3.90034 32.3994 3.97041 32.5124C4.04049 32.6253 4.14604 32.7094 4.26907 32.7504C5.74632 33.4453 7.30487 33.9354 8.90473 34.208C9.61124 34.3241 10.0203 34.7756 9.94589 35.3561C9.93303 35.5051 9.88881 35.6493 9.81637 35.7785C9.74393 35.9077 9.64505 36.0187 9.52674 36.1037C9.40844 36.1887 9.27361 36.2455 9.13183 36.2701C8.99006 36.2947 8.84482 36.2866 8.70641 36.2462C6.55698 35.9345 4.47398 35.2453 2.54619 34.208C2.41154 34.1557 2.2937 34.0651 2.20606 33.9465C2.11842 33.8279 2.06449 33.6861 2.0504 33.5372C1.96134 31.9291 1.99034 30.3163 2.13716 28.7127C2.32643 27.3225 2.88337 26.0145 3.74576 24.9347C4.60816 23.8549 5.74204 23.046 7.02072 22.5982L7.34298 22.4434C6.25426 21.4038 5.54739 20.0021 5.34382 18.479C5.14025 16.9559 5.45269 15.4066 6.22745 14.0972C6.92517 12.9059 7.96371 11.9717 9.19741 11.4257C10.4311 10.8797 11.7981 10.7494 13.1066 11.0529C14.4265 11.3894 15.6131 12.1453 16.5015 13.2156C17.39 14.2859 17.9362 15.6174 18.0645 17.0255C18.1304 18.0345 17.9761 19.0459 17.6134 19.9842C17.2507 20.9224 16.6888 21.7631 15.9698 22.4434C17.2701 22.8583 18.4417 23.6238 19.366 24.6622C19.4651 24.7783 19.5271 24.946 19.7626 24.8428C20.2956 24.6235 20.8409 24.43 21.4111 24.2107C20.3907 23.3746 19.5739 22.3 19.0269 21.0741C18.4799 19.8481 18.2182 18.5053 18.2628 17.1545ZM15.9698 35.3303C15.9698 36.0527 15.9698 36.7622 15.9698 37.4846C15.9495 37.6272 15.9798 37.7727 16.0551 37.8938C16.1304 38.0149 16.2455 38.1033 16.3788 38.1425C19.5338 39.7245 22.9909 40.546 26.493 40.546C29.9951 40.546 33.4521 39.7245 36.6071 38.1425C36.7504 38.103 36.8748 38.0104 36.9569 37.8821C37.0391 37.7538 37.0734 37.5987 37.0534 37.4459C37.0534 36.2333 37.0534 35.0336 37.0534 33.821C37.016 31.9364 36.3318 30.1279 35.1247 28.7225C33.9176 27.3171 32.2671 26.4076 30.4717 26.1586C28.0596 25.95 25.6359 25.9284 23.2207 26.0941C21.9423 26.1533 20.7002 26.5549 19.6145 27.2599C18.5288 27.965 17.6363 28.9497 17.0233 30.1188C16.1767 31.7062 15.8096 33.5224 15.9698 35.3303ZM26.5054 11.0529C24.8736 11.0922 23.3191 11.7844 22.165 12.9856C21.0109 14.1867 20.3458 15.8045 20.308 17.5028C20.3427 19.202 21.0068 20.8217 22.1616 22.0235C23.3164 23.2253 24.8726 23.9165 26.5054 23.9527C28.1501 23.9331 29.7233 23.2496 30.8933 22.0464C32.0633 20.8432 32.7387 19.2142 32.7771 17.5028C32.7385 15.7848 32.0579 14.1501 30.8799 12.9458C29.702 11.7415 28.1194 11.0625 26.4682 11.0529H26.5054ZM45.6801 17.5028C45.6804 16.2991 45.2279 15.1431 44.4194 14.2823C43.6108 13.4216 42.5107 12.9245 41.3544 12.8976C40.1772 12.8802 39.0412 13.3478 38.1938 14.1983C37.3464 15.0488 36.8563 16.2134 36.8302 17.4383C36.8297 18.6423 37.2797 19.7992 38.085 20.6638C38.8902 21.5283 39.9873 22.0324 41.1436 22.0693C41.7246 22.083 42.3024 21.9768 42.8437 21.7568C43.385 21.5368 43.879 21.2075 44.2974 20.7877C44.7157 20.3679 45.05 19.8661 45.2809 19.3111C45.5119 18.7562 45.6349 18.1591 45.643 17.5544L45.6801 17.5028ZM7.25622 17.5028C7.26605 18.7185 7.73867 19.8806 8.57048 20.7342C9.4023 21.5878 10.5254 22.0633 11.6936 22.0564C12.85 22.043 13.9554 21.5589 14.7732 20.7079C15.5909 19.8568 16.056 18.7063 16.0689 17.5028C16.0657 16.2847 15.6001 15.1172 14.7737 14.2547C13.9472 13.3921 12.8268 12.9044 11.6564 12.8976C10.4849 12.9146 9.3678 13.4143 8.54992 14.2873C7.73203 15.1603 7.28016 16.3352 7.2934 17.5544L7.25622 17.5028Z" fill="#EF4D24"/>
<rect x="0.5" y="0.5" width="52" height="52" rx="7.5" stroke="#EF4C23"/>
</svg>
