<svg width="40" height="40" viewBox="0 0 40 40" fill="none" xmlns="http://www.w3.org/2000/svg">
<path d="M8.83875 25.1029C8.23875 25.7329 7.65875 26.3029 7.12875 26.9129C6.96882 27.1319 6.7518 27.3027 6.50138 27.4068C6.25096 27.5108 5.97677 27.5441 5.70874 27.5029C5.6247 27.4786 5.53666 27.4712 5.44975 27.4813C5.36283 27.4913 5.27879 27.5185 5.20248 27.5613C5.12618 27.6041 5.05915 27.6616 5.00529 27.7306C4.95143 27.7995 4.91181 27.8785 4.88874 27.9629C4.64191 28.505 4.21171 28.9427 3.67391 29.1987C3.13611 29.4548 2.52519 29.513 1.94874 29.3629C1.39909 29.214 0.913537 28.8887 0.566674 28.437C0.21981 27.9854 0.0308224 27.4324 0.0287402 26.8629C0.018894 26.2785 0.213296 25.709 0.578408 25.2526C0.94352 24.7962 1.45645 24.4816 2.02874 24.3629C2.59225 24.22 3.18782 24.2764 3.71452 24.5224C4.24123 24.7685 4.66666 25.1891 4.91874 25.7129C4.96953 25.8383 5.05168 25.9486 5.15733 26.0331C5.26297 26.1177 5.38856 26.1737 5.52206 26.1958C5.65557 26.2179 5.7925 26.2053 5.91974 26.1593C6.04698 26.1132 6.16027 26.0353 6.24874 25.9329C6.86874 25.3329 7.45875 24.7129 8.08875 24.1229C8.18976 24.0277 8.26064 23.9049 8.29263 23.7699C8.32462 23.6348 8.31632 23.4933 8.26875 23.3629C8.26129 23.2405 8.22919 23.121 8.17438 23.0113C8.11957 22.9017 8.04318 22.8043 7.94979 22.7249C7.8564 22.6455 7.74794 22.5858 7.63091 22.5494C7.51388 22.513 7.39069 22.5005 7.26875 22.5129C6.99974 22.4959 6.73235 22.4592 6.46874 22.4029C6.37258 22.3995 6.27818 22.3761 6.19161 22.3341C6.10504 22.2921 6.02821 22.2325 5.96606 22.159C5.9039 22.0856 5.8578 21.9999 5.83071 21.9076C5.80362 21.8153 5.79614 21.7183 5.80875 21.6229C5.80875 20.4229 5.80875 19.2229 5.80875 18.0329C5.79623 17.9365 5.80366 17.8385 5.83057 17.745C5.85747 17.6516 5.90328 17.5647 5.96516 17.4897C6.02704 17.4147 6.10367 17.3532 6.19029 17.309C6.27692 17.2648 6.37169 17.2389 6.46874 17.2329C6.73499 17.1766 7.00662 17.1498 7.27874 17.1529C8.07874 17.1529 8.17875 16.6129 8.33875 16.0429C8.40875 15.8029 8.23874 15.7229 8.11874 15.6029C7.49874 14.9729 6.87874 14.3429 6.24874 13.7329C6.16177 13.6278 6.04875 13.5473 5.92097 13.4995C5.79318 13.4518 5.6551 13.4383 5.52051 13.4606C5.38591 13.4829 5.25951 13.5401 5.15392 13.6264C5.04832 13.7128 4.96723 13.8254 4.91874 13.9529C4.66501 14.4749 4.23889 14.8933 3.71233 15.1375C3.18578 15.3816 2.59109 15.4365 2.02874 15.2929C1.45464 15.1778 0.93946 14.8641 0.573693 14.4069C0.207925 13.9497 0.0149722 13.3782 0.0287402 12.7929C0.03193 12.2234 0.222743 11.6708 0.571633 11.2207C0.920522 10.7706 1.40804 10.448 1.95875 10.3029C2.53378 10.1554 3.14235 10.2148 3.67799 10.4708C4.21362 10.7267 4.64221 11.1629 4.88874 11.7029C5.06874 12.0929 5.26874 12.2229 5.64874 12.1529C5.93809 12.1061 6.23475 12.1413 6.50514 12.2544C6.77554 12.3675 7.00888 12.554 7.17874 12.7929C7.68874 13.3929 8.25874 13.9429 8.81874 14.5129C9.54874 13.5129 9.54874 13.5129 8.92874 12.6929C8.85099 12.582 8.76755 12.4752 8.67874 12.3729C8.57251 12.2867 8.48865 12.1761 8.43429 12.0506C8.37992 11.9251 8.35666 11.7883 8.36648 11.6518C8.37629 11.5154 8.4189 11.3833 8.49068 11.2669C8.56245 11.1504 8.66126 11.053 8.77874 10.9829C9.44874 10.3629 9.42874 10.3429 8.77874 9.69289C7.66874 8.59289 6.54874 7.51289 5.46874 6.38289C5.35656 6.23168 5.19286 6.12682 5.0086 6.08812C4.82434 6.04943 4.63228 6.07957 4.46874 6.17289C3.70472 6.50529 2.84012 6.52146 2.0642 6.21784C1.28829 5.91422 0.664264 5.31555 0.328743 4.55289C-0.0113792 3.80373 -0.0527873 2.95301 0.21296 2.17435C0.478706 1.39569 1.03157 0.747796 1.75874 0.362888C2.48931 -0.0161388 3.33703 -0.101967 4.12875 0.122913C4.92048 0.347793 5.59649 0.866422 6.01875 1.57289C6.30521 2.01564 6.46991 2.52608 6.49625 3.05277C6.52258 3.57945 6.40962 4.10378 6.16874 4.57289C6.12533 4.63502 6.09475 4.70518 6.07879 4.77927C6.06282 4.85336 6.06179 4.92989 6.07576 5.00438C6.08973 5.07888 6.11841 5.14983 6.16013 5.21311C6.20185 5.27638 6.25578 5.33071 6.31874 5.3729C7.53874 6.5829 8.76874 7.79289 9.95874 9.02289C10.2787 9.35289 10.4587 9.38289 10.7987 9.02289C11.6687 8.13289 11.6787 8.15289 12.7387 8.91289C13.1287 9.20289 13.4687 9.6929 14.0687 9.1829C14.2987 8.9729 14.4387 8.92289 14.1487 8.66289C13.8587 8.40289 13.3787 7.82289 12.9487 7.46289C12.6606 7.26464 12.4356 6.98754 12.3008 6.66477C12.166 6.34199 12.1271 5.98721 12.1887 5.64289C12.2587 5.28289 12.1887 5.06289 11.7487 4.89289C11.2048 4.64776 10.765 4.2183 10.507 3.68033C10.249 3.14237 10.1894 2.53052 10.3387 1.95288C10.4834 1.40382 10.8045 0.917511 11.2526 0.56879C11.7007 0.220069 12.251 0.0282685 12.8187 0.0228916C13.4058 0.00673588 13.9797 0.198593 14.4389 0.564563C14.8982 0.930534 15.2134 1.44706 15.3287 2.02289C15.477 2.5841 15.4254 3.17943 15.1828 3.70674C14.9401 4.23406 14.5215 4.66049 13.9987 4.91289C13.8757 4.98514 13.7696 5.08288 13.6874 5.19954C13.6053 5.31621 13.5491 5.44911 13.5226 5.5893C13.4961 5.72949 13.4998 5.87373 13.5337 6.01233C13.5675 6.15094 13.6306 6.28069 13.7187 6.39289C14.2987 7.00289 14.9087 7.5729 15.4887 8.1829C16.0687 8.7929 16.3187 8.1829 16.7287 8.1829C17.1387 8.1829 17.0687 7.91289 17.1087 7.66289C17.4387 5.66289 17.1087 5.8729 19.2887 5.8729C20.0587 5.8729 20.8287 5.8729 21.5987 5.8729C21.7049 5.85367 21.814 5.8582 21.9181 5.88617C22.0223 5.91415 22.119 5.96487 22.2012 6.03467C22.2835 6.10448 22.3492 6.19164 22.3937 6.28989C22.4383 6.38814 22.4605 6.49504 22.4587 6.60289C22.4919 6.78149 22.5152 6.96175 22.5287 7.14289C22.5076 7.29609 22.519 7.45204 22.5622 7.60054C22.6054 7.74905 22.6794 7.88678 22.7794 8.00473C22.8795 8.12269 23.0033 8.21823 23.1427 8.28511C23.2822 8.352 23.4341 8.38872 23.5887 8.39289C23.8687 8.39289 24.0487 8.45289 24.2487 8.24289C24.8087 7.65289 25.4087 7.09289 25.9687 6.50289C26.068 6.39311 26.1417 6.26267 26.1845 6.12096C26.2272 5.97925 26.238 5.8298 26.216 5.68343C26.194 5.53705 26.1398 5.3974 26.0572 5.27452C25.9747 5.15165 25.8659 5.04862 25.7387 4.97289C25.216 4.72049 24.7974 4.29406 24.5547 3.76674C24.3121 3.23943 24.2604 2.6441 24.4087 2.08289C24.5241 1.50706 24.8392 0.990531 25.2985 0.624561C25.7578 0.258591 26.3317 0.0667334 26.9187 0.0828892C27.4883 0.0871671 28.0404 0.279787 28.489 0.63071C28.9376 0.981633 29.2575 1.47114 29.3987 2.02289C29.5395 2.599 29.4758 3.2061 29.2187 3.7405C28.9615 4.27489 28.5268 4.70342 27.9887 4.95288C27.6487 5.11288 27.4687 5.26289 27.5387 5.64289C27.6143 6.02306 27.5736 6.41718 27.422 6.7739C27.2704 7.13062 27.0149 7.43342 26.6887 7.64289C26.1887 8.03289 25.6887 8.4829 25.2687 8.9029C25.8987 9.5229 26.4087 9.6429 26.9487 9.0429C27.0667 8.93527 27.1938 8.83822 27.3287 8.75289C27.4149 8.64666 27.5255 8.56281 27.651 8.50844C27.7766 8.45408 27.9134 8.43082 28.0498 8.44063C28.1863 8.45045 28.3183 8.49305 28.4348 8.56482C28.5512 8.6366 28.6486 8.73542 28.7187 8.85289C29.3387 9.52289 29.3587 9.50289 30.0087 8.85289C31.1087 7.74289 32.1887 6.6229 33.3187 5.5429C33.47 5.43071 33.5748 5.267 33.6135 5.08274C33.6522 4.89847 33.6221 4.70643 33.5287 4.5429C33.3447 4.16319 33.2388 3.75039 33.2174 3.32898C33.196 2.90758 33.2595 2.48616 33.404 2.08976C33.5486 1.69335 33.7713 1.33003 34.059 1.02137C34.3467 0.712697 34.6935 0.464972 35.0787 0.292896C35.8279 -0.0472266 36.6786 -0.0886499 37.4573 0.177097C38.2359 0.442844 38.8838 0.99572 39.2687 1.72289C39.652 2.45062 39.7422 3.2974 39.5209 4.08954C39.2996 4.88168 38.7836 5.55912 38.0787 5.9829C37.636 6.26937 37.1256 6.43406 36.5989 6.46039C36.0722 6.48673 35.5479 6.37377 35.0787 6.13289C34.9524 6.04786 34.7977 6.01593 34.648 6.04399C34.4983 6.07206 34.3657 6.15786 34.2787 6.28289C33.0687 7.50289 31.8587 8.73289 30.6287 9.92289C30.2987 10.2429 30.2687 10.4229 30.6287 10.7629C31.5187 11.6329 31.5387 11.6829 30.7187 12.6829C30.2387 13.2629 30.1087 13.7429 30.7187 14.3229C31.2634 13.9134 31.757 13.44 32.1887 12.9129C32.3935 12.6318 32.6715 12.4123 32.9924 12.2782C33.3133 12.1442 33.6649 12.1009 34.0087 12.1529C34.0875 12.1769 34.1705 12.1845 34.2523 12.1751C34.3342 12.1657 34.4132 12.1395 34.4845 12.0983C34.5558 12.057 34.6178 12.0015 34.6667 11.9352C34.7156 11.8689 34.7504 11.7932 34.7687 11.7129C35.012 11.1697 35.4396 10.7302 35.9759 10.4721C36.5122 10.214 37.1225 10.1541 37.6987 10.3029C38.2505 10.4442 38.74 10.764 39.0909 11.2126C39.4419 11.6612 39.6345 12.2133 39.6387 12.7829C39.6529 13.3694 39.4603 13.9423 39.0947 14.4012C38.729 14.8601 38.2137 15.1757 37.6387 15.2929C37.0775 15.4392 36.483 15.3867 35.9561 15.1442C35.4293 14.9018 35.0026 14.4843 34.7487 13.9629C34.6765 13.8399 34.5787 13.7337 34.4621 13.6516C34.3454 13.5695 34.2125 13.5133 34.0723 13.4867C33.9322 13.4602 33.7879 13.464 33.6493 13.4978C33.5107 13.5317 33.3809 13.5948 33.2687 13.6829C32.6587 14.2629 32.0887 14.8729 31.4787 15.4529C30.8687 16.0329 31.4787 16.2829 31.4787 16.6929C31.4787 17.1029 31.7487 17.0329 31.9987 17.0729C33.9987 17.3929 33.7987 17.0729 33.7887 19.1829C33.7887 19.9829 33.7887 20.7729 33.7887 21.5629C33.808 21.669 33.8034 21.7781 33.7755 21.8823C33.7475 21.9865 33.6968 22.0832 33.627 22.1654C33.5572 22.2476 33.47 22.3134 33.3717 22.3579C33.2735 22.4024 33.1666 22.4246 33.0587 22.4229C32.8618 22.4691 32.6609 22.4959 32.4587 22.5029C31.5987 22.4429 31.3787 23.0129 31.2287 23.6829C31.2045 23.7688 31.2057 23.86 31.2323 23.9452C31.259 24.0304 31.3099 24.1061 31.3787 24.1629C31.9887 24.7629 32.5787 25.3929 33.2087 25.9729C33.3203 26.0615 33.4495 26.1252 33.5877 26.1597C33.7259 26.1943 33.8698 26.199 34.01 26.1734C34.1501 26.1479 34.2831 26.0927 34.4002 26.0115C34.5173 25.9304 34.6156 25.8251 34.6887 25.7029C34.9411 25.1802 35.3676 24.7616 35.8949 24.5189C36.4222 24.2762 37.0175 24.2246 37.5787 24.3729C38.1537 24.4901 38.669 24.8057 39.0347 25.2646C39.4003 25.7235 39.5929 26.2963 39.5787 26.8829C39.5745 27.4524 39.3818 28.0045 39.0309 28.4531C38.68 28.9017 38.1905 29.2216 37.6387 29.3629C37.0626 29.5076 36.4539 29.4458 35.9185 29.1882C35.3832 28.9306 34.9551 28.4935 34.7087 27.9529C34.6901 27.8735 34.6557 27.7987 34.6076 27.7328C34.5595 27.667 34.4987 27.6114 34.4288 27.5695C34.3589 27.5275 34.2812 27.5 34.2005 27.4886C34.1198 27.4771 34.0376 27.482 33.9587 27.5029C33.6139 27.5663 33.2581 27.5293 32.9337 27.3964C32.6093 27.2634 32.3299 27.0401 32.1287 26.7529C31.7087 26.2229 31.2187 25.7529 30.7587 25.2529C30.1587 25.8629 30.0387 26.3729 30.6387 26.9129C30.7439 27.0293 30.8408 27.153 30.9287 27.2829C31.033 27.3713 31.1149 27.4831 31.1679 27.6091C31.2209 27.7351 31.2434 27.8719 31.2336 28.0082C31.2239 28.1446 31.1822 28.2767 31.1118 28.3939C31.0415 28.5112 30.9445 28.6101 30.8287 28.6829C30.1587 29.3029 30.1787 29.3229 30.8287 29.9729C31.9387 31.0729 33.0587 32.1529 34.1387 33.2829C34.2509 33.4341 34.4146 33.539 34.5989 33.5777C34.7832 33.6164 34.9752 33.5862 35.1387 33.4929C35.8917 33.1632 36.7438 33.142 37.5123 33.4337C38.2807 33.7253 38.9042 34.3067 39.2487 35.0529C39.6041 35.7958 39.6623 36.6464 39.4114 37.4308C39.1604 38.2152 38.6193 38.8742 37.8987 39.2729C37.1756 39.6649 36.3301 39.7663 35.5347 39.5564C34.7394 39.3464 34.0541 38.8408 33.6187 38.1429C33.3276 37.7029 33.1576 37.1938 33.126 36.667C33.0944 36.1403 33.2023 35.6146 33.4387 35.1429C33.5243 35.015 33.5565 34.8587 33.5285 34.7074C33.5005 34.5561 33.4144 34.4217 33.2887 34.3329C32.0487 33.1129 30.8087 31.8929 29.5987 30.6429C29.3187 30.3629 29.1287 30.2929 28.8587 30.6429C28.715 30.8151 28.5578 30.9755 28.3887 31.1229C28.3292 31.1954 28.2554 31.255 28.1721 31.298C28.0887 31.341 27.9974 31.3666 27.9038 31.3732C27.8102 31.3797 27.7163 31.3671 27.6277 31.3361C27.5391 31.3051 27.4578 31.2564 27.3887 31.1929C27.1996 31.0732 27.0221 30.9359 26.8587 30.7829C26.7663 30.6529 26.6441 30.5468 26.5023 30.4737C26.3605 30.4005 26.2033 30.3624 26.0437 30.3624C25.8842 30.3624 25.727 30.4005 25.5852 30.4737C25.4434 30.5468 25.3212 30.6529 25.2287 30.7829C25.6196 31.3156 26.0804 31.7932 26.5987 32.2029C26.8937 32.4104 27.1242 32.6969 27.264 33.0293C27.4037 33.3618 27.4469 33.727 27.3887 34.0829C27.3287 34.4529 27.4487 34.6629 27.8487 34.8329C28.3883 35.0829 28.8235 35.5135 29.0791 36.0503C29.3348 36.5872 29.3948 37.1965 29.2487 37.7729C29.1023 38.2969 28.7945 38.7616 28.3691 39.1008C27.9437 39.4401 27.4222 39.6367 26.8787 39.6629C26.2939 39.6747 25.7234 39.481 25.2666 39.1156C24.8098 38.7501 24.4956 38.2361 24.3787 37.6629C24.2304 37.1017 24.2821 36.5064 24.5247 35.9791C24.7674 35.4517 25.186 35.0253 25.7087 34.7729C25.8325 34.6999 25.9392 34.6011 26.0213 34.4832C26.1035 34.3653 26.1593 34.2311 26.1849 34.0897C26.2106 33.9483 26.2054 33.803 26.1698 33.6638C26.1342 33.5246 26.0691 33.3947 25.9787 33.2829C25.4087 32.6729 24.7987 32.1029 24.2187 31.5029C23.6387 30.9029 23.3887 31.5529 22.9787 31.5529C22.5687 31.5529 22.6387 31.8229 22.5987 32.0729C22.2387 34.0729 22.5987 33.8629 20.4787 33.8629C19.6887 33.8629 18.8887 33.8629 18.0987 33.8629C17.5187 33.8629 17.2787 33.5929 17.2187 33.0629C17.2084 32.9064 17.2084 32.7494 17.2187 32.5929C17.2399 32.4397 17.2285 32.2837 17.1853 32.1352C17.1421 31.9867 17.0681 31.849 16.968 31.7311C16.868 31.6131 16.7442 31.5176 16.6048 31.4507C16.4653 31.3838 16.3133 31.3471 16.1587 31.3429C15.8787 31.3429 15.6987 31.2829 15.4987 31.4929C14.9387 32.0829 14.3387 32.6429 13.7787 33.2329C13.6794 33.3427 13.6058 33.4731 13.563 33.6148C13.5203 33.7565 13.5095 33.906 13.5315 34.0524C13.5535 34.1987 13.6077 34.3384 13.6903 34.4613C13.7728 34.5841 13.8816 34.6872 14.0087 34.7629C14.5302 35.0168 14.9476 35.4434 15.1901 35.9703C15.4325 36.4971 15.4851 37.0917 15.3387 37.6529C15.2216 38.2278 14.9059 38.7432 14.447 39.1088C13.9882 39.4745 13.4153 39.667 12.8287 39.6529C12.2592 39.6486 11.7071 39.456 11.2585 39.1051C10.8099 38.7541 10.49 38.2646 10.3487 37.7129C10.2074 37.1354 10.2707 36.5267 10.5278 35.9907C10.7849 35.4546 11.2199 35.0242 11.7587 34.7729C12.0587 34.6329 12.2787 34.5329 12.2087 34.1629C12.1264 33.7628 12.1685 33.3472 12.3294 32.9717C12.4903 32.5963 12.7622 32.2791 13.1087 32.0629C13.4104 31.8228 13.6824 31.5475 13.9187 31.2429C14.0687 31.0629 14.5187 30.8729 14.2787 30.6729C14.0387 30.4729 13.5987 29.9529 13.1187 30.4729C13.0025 30.5796 12.8751 30.6735 12.7387 30.7529C11.8087 31.4829 11.6787 31.6429 10.7387 30.6029C10.4487 30.2829 10.2887 30.3329 10.0087 30.6029C8.76874 31.8729 7.51874 33.1129 6.25874 34.3429C5.94874 34.6329 6.05874 34.8529 6.18874 35.1629C6.36817 35.5665 6.46184 36.0029 6.46383 36.4445C6.46582 36.8862 6.37608 37.3234 6.20029 37.7286C6.0245 38.1337 5.76649 38.498 5.44261 38.7982C5.11873 39.0985 4.73603 39.3282 4.31874 39.4729C3.91685 39.6219 3.48898 39.6881 3.06086 39.6675C2.63274 39.6469 2.2132 39.54 1.82743 39.3532C1.44167 39.1664 1.09763 38.9036 0.816033 38.5804C0.534431 38.2573 0.321065 37.8806 0.188744 37.4729C-0.0233798 36.9035 -0.0575967 36.2831 0.0906146 35.6938C0.238826 35.1046 0.56248 34.5742 1.01875 34.1729C1.43959 33.7223 1.99185 33.4159 2.59692 33.2974C3.20198 33.1789 3.82901 33.2543 4.38874 33.5129C4.58686 33.6276 4.82124 33.6625 5.04417 33.6105C5.26711 33.5584 5.46185 33.4234 5.58875 33.2329C6.71875 32.0329 7.89875 30.8829 9.08875 29.7229C9.36875 29.4529 9.43875 29.2529 9.08875 28.9929C8.91659 28.8491 8.75609 28.692 8.60874 28.5229C8.53625 28.4633 8.47666 28.3896 8.43363 28.3062C8.3906 28.2229 8.36503 28.1316 8.35848 28.038C8.35193 27.9444 8.36454 27.8504 8.39553 27.7619C8.42653 27.6733 8.47525 27.592 8.53874 27.5229C8.63874 27.3829 8.75874 27.2429 8.86874 27.1029C9.51874 26.2029 9.51875 26.2029 8.83875 25.1029ZM32.5687 19.8729C32.5687 18.5229 32.5687 18.5029 31.3087 18.3229C31.0843 18.3149 30.8702 18.2267 30.7051 18.0745C30.54 17.9223 30.4349 17.7159 30.4087 17.4929C30.159 16.2505 29.6699 15.0685 28.9687 14.0129C28.8312 13.849 28.7558 13.6419 28.7558 13.4279C28.7558 13.2139 28.8312 13.0068 28.9687 12.8429C29.7787 11.7629 29.7687 11.7529 28.7987 10.7829C27.8287 9.81289 27.8987 9.87289 26.8687 10.6329C26.5187 10.8929 26.1887 11.0729 25.7587 10.7829C24.6309 10.028 23.3677 9.4983 22.0387 9.22289C21.8731 9.19831 21.7193 9.12236 21.5991 9.00574C21.4789 8.88913 21.3983 8.73774 21.3687 8.5729C21.2287 8.0829 21.4887 7.38289 21.0087 7.14289C20.5051 7.01619 19.9807 6.99576 19.4687 7.08289H19.3287C18.6687 6.98289 18.3987 7.2029 18.3287 7.9329C18.2487 8.9329 18.3287 9.08289 17.1087 9.35289C16.0266 9.59902 14.9993 10.0431 14.0787 10.6629C13.9115 10.814 13.6941 10.8976 13.4687 10.8976C13.2434 10.8976 13.026 10.814 12.8587 10.6629C11.7987 9.86289 11.7887 9.88289 10.8587 10.8329C9.92874 11.7829 9.93874 11.7629 10.7187 12.8329C10.8645 12.9759 10.9546 13.1661 10.9729 13.3695C10.9912 13.5729 10.9366 13.7761 10.8187 13.9429C10.078 15.0531 9.55847 16.2958 9.28874 17.6029C9.26186 17.7928 9.17082 17.9677 9.03075 18.0987C8.89067 18.2297 8.71 18.3088 8.51875 18.3229C7.12875 18.5729 7.13874 18.5929 7.13874 20.0329C7.14873 20.1226 7.14873 20.2132 7.13874 20.3029C7.01874 21.0029 7.25875 21.3029 8.01875 21.3029C8.77875 21.3029 9.12874 21.2229 9.39874 22.4929C9.65199 23.6201 10.1169 24.689 10.7687 25.6429C10.9094 25.8034 10.9869 26.0095 10.9869 26.2229C10.9869 26.4363 10.9094 26.6424 10.7687 26.8029C9.95875 27.9029 9.97875 27.9129 10.9487 28.8829C11.9187 29.8529 11.8487 29.7829 12.8687 29.0129C13.2287 28.7529 13.5587 28.5829 13.9787 28.8729C15.1087 29.6238 16.3711 30.1532 17.6987 30.4329C17.8762 30.4619 18.0395 30.5479 18.1639 30.6777C18.2884 30.8076 18.3673 30.9743 18.3887 31.1529C18.4987 31.6029 18.2787 32.2429 18.6887 32.4729C19.0987 32.7029 19.6087 32.5429 20.0787 32.5529C20.1919 32.5429 20.3056 32.5429 20.4187 32.5529C21.0987 32.6729 21.3387 32.4129 21.4187 31.7029C21.4987 30.7929 21.3487 30.5929 22.6087 30.3229C23.736 30.0696 24.8049 29.6048 25.7587 28.9529C25.9182 28.8102 26.1247 28.7313 26.3387 28.7313C26.5527 28.7313 26.7592 28.8102 26.9187 28.9529C28.0187 29.7629 28.0287 29.7429 28.9987 28.7729C29.9687 27.8029 29.8987 27.8729 29.1287 26.8429C28.9699 26.6849 28.8758 26.4733 28.8647 26.2495C28.8536 26.0257 28.9263 25.8059 29.0687 25.6329C29.7648 24.5746 30.2535 23.3936 30.5087 22.1529C30.5326 21.928 30.6368 21.7193 30.8021 21.5651C30.9674 21.4108 31.1828 21.3212 31.4087 21.3129C32.5687 21.1629 32.5687 21.1329 32.5687 19.8729ZM3.27874 5.11289C3.52731 5.11039 3.77287 5.05809 4.00089 4.95908C4.2289 4.86007 4.43477 4.71636 4.6063 4.53644C4.77783 4.35652 4.91156 4.14403 4.99957 3.91155C5.08759 3.67906 5.12811 3.43131 5.11874 3.1829C5.1031 2.68242 4.89256 2.20784 4.53202 1.86037C4.17148 1.5129 3.68946 1.32004 3.18874 1.32289C2.68294 1.35839 2.20949 1.58467 1.86419 1.95597C1.51888 2.32726 1.3275 2.81585 1.32874 3.32289C1.35962 3.81537 1.57988 4.27678 1.94338 4.61046C2.30689 4.94414 2.78543 5.12419 3.27874 5.11289ZM36.4587 5.11289C36.961 5.10505 37.4402 4.90068 37.7935 4.54361C38.1469 4.18655 38.3462 3.70521 38.3487 3.20288C38.3191 2.70539 38.1048 2.23688 37.7478 1.88913C37.3908 1.54138 36.9168 1.33946 36.4187 1.32289C35.9192 1.33597 35.4446 1.54432 35.0969 1.90326C34.7492 2.26221 34.556 2.74315 34.5587 3.24289C34.5574 3.49139 34.6058 3.73766 34.7011 3.96714C34.7965 4.19661 34.9369 4.40465 35.114 4.57897C35.2911 4.75328 35.5014 4.89034 35.7323 4.98204C35.9633 5.07375 36.2103 5.11824 36.4587 5.11289ZM3.23875 34.5529C2.73734 34.5528 2.256 34.7499 1.89866 35.1017C1.54131 35.4534 1.33662 35.9315 1.32874 36.4329C1.35076 36.9324 1.55906 37.4055 1.91259 37.7591C2.26613 38.1126 2.73926 38.3209 3.23875 38.3429C3.73837 38.335 4.21501 38.1317 4.56647 37.7765C4.91792 37.4213 5.11619 36.9426 5.11874 36.4429C5.1214 36.1948 5.07466 35.9487 4.98125 35.7188C4.88783 35.4889 4.74962 35.28 4.57465 35.1041C4.39967 34.9282 4.19144 34.7889 3.96209 34.6942C3.73274 34.5996 3.48685 34.5516 3.23875 34.5529ZM36.4287 34.5529C36.1802 34.5515 35.934 34.5999 35.7045 34.6953C35.475 34.7906 35.267 34.931 35.0927 35.1081C34.9184 35.2853 34.7813 35.4955 34.6896 35.7265C34.5979 35.9575 34.5534 36.2045 34.5587 36.4529C34.5665 36.9535 34.7695 37.4312 35.1245 37.7842C35.4794 38.1373 35.9582 38.3377 36.4587 38.3429C36.9563 38.3158 37.4259 38.104 37.7755 37.7489C38.1251 37.3937 38.3295 36.9209 38.3487 36.4229C38.3382 35.9216 38.131 35.4445 37.7718 35.0946C37.4126 34.7447 36.9302 34.5502 36.4287 34.5529ZM2.60874 14.0629C2.93708 14.0529 3.24923 13.9179 3.48151 13.6857C3.7138 13.4534 3.84871 13.1412 3.85874 12.8129C3.85901 12.644 3.82477 12.4768 3.75813 12.3216C3.69148 12.1664 3.59383 12.0265 3.47117 11.9104C3.34851 11.7943 3.20341 11.7044 3.04479 11.6464C2.88617 11.5884 2.71738 11.5634 2.54874 11.5729C2.21982 11.5833 1.90802 11.722 1.68003 11.9594C1.45204 12.1967 1.32597 12.5138 1.32874 12.8429C1.34657 13.171 1.48895 13.48 1.72683 13.7067C1.9647 13.9334 2.28013 14.0608 2.60874 14.0629ZM12.7887 3.86289C13.1152 3.86134 13.429 3.73706 13.668 3.51474C13.907 3.29242 14.0536 2.98834 14.0787 2.66289C14.0827 2.49396 14.0532 2.32591 13.9919 2.16845C13.9306 2.01098 13.8388 1.86721 13.7216 1.74543C13.6045 1.62364 13.4644 1.52625 13.3094 1.45888C13.1545 1.39151 12.9877 1.35549 12.8187 1.35289C12.4889 1.36068 12.175 1.49654 11.9435 1.73172C11.7121 1.9669 11.5812 2.28293 11.5787 2.61289C11.5858 2.93537 11.7144 3.24329 11.9387 3.47506C12.1631 3.70682 12.4667 3.84533 12.7887 3.86289ZM26.8887 3.86289C27.2177 3.85245 27.5295 3.71374 27.7574 3.47641C27.9854 3.23908 28.1115 2.92197 28.1087 2.59288C28.1062 2.26293 27.9754 1.9469 27.744 1.71172C27.5125 1.47654 27.1986 1.34067 26.8687 1.33289C26.5284 1.34077 26.2049 1.48289 25.9688 1.72829C25.7328 1.97369 25.6034 2.30244 25.6087 2.64289C25.6267 2.97009 25.7694 3.27796 26.0075 3.50307C26.2457 3.72818 26.5611 3.85338 26.8887 3.85289V3.86289ZM2.56874 28.1129C2.89958 28.121 3.22035 27.9987 3.46172 27.7723C3.7031 27.5459 3.84571 27.2336 3.85874 26.9029C3.86194 26.5751 3.73927 26.2586 3.51601 26.0186C3.29274 25.7786 2.9859 25.6334 2.65875 25.6129C2.31824 25.6021 1.9873 25.7264 1.73812 25.9587C1.48895 26.191 1.34178 26.5125 1.32874 26.8529C1.33626 27.1803 1.46902 27.4924 1.69968 27.725C1.93035 27.9575 2.24137 28.0927 2.56874 28.1029V28.1129ZM38.3487 12.8329C38.3461 12.4969 38.2115 12.1754 37.9739 11.9378C37.7363 11.7002 37.4148 11.5655 37.0787 11.5629C36.7479 11.5547 36.4271 11.6771 36.1858 11.9035C35.9444 12.1299 35.8018 12.4422 35.7887 12.7729C35.786 12.943 35.8176 13.112 35.8814 13.2697C35.9453 13.4275 36.0402 13.5707 36.1606 13.6911C36.2809 13.8114 36.4242 13.9063 36.5819 13.9702C36.7396 14.0341 36.9086 14.0656 37.0787 14.0629C37.4082 14.0556 37.7225 13.9236 37.9583 13.6934C38.1941 13.4632 38.3336 13.152 38.3487 12.8229V12.8329ZM37.0787 25.6029C36.7505 25.6053 36.4359 25.7348 36.201 25.9641C35.9661 26.1934 35.8291 26.5048 35.8187 26.8329C35.816 26.9991 35.8468 27.1642 35.9091 27.3183C35.9715 27.4723 36.0642 27.6123 36.1818 27.7299C36.2993 27.8474 36.4393 27.9401 36.5934 28.0025C36.7475 28.0649 36.9125 28.0956 37.0787 28.0929C37.2475 28.0982 37.4157 28.0696 37.5732 28.0087C37.7307 27.9478 37.8744 27.8558 37.9957 27.7383C38.1169 27.6208 38.2133 27.48 38.2792 27.3245C38.345 27.1689 38.3788 27.0018 38.3787 26.8329C38.3608 26.5004 38.216 26.1874 37.9741 25.9586C37.7322 25.7297 37.4117 25.6024 37.0787 25.6029ZM12.8487 38.3429C13.1786 38.3275 13.4901 38.1862 13.7189 37.9481C13.9478 37.71 14.0765 37.3931 14.0787 37.0629C14.0683 36.7225 13.9236 36.4 13.6763 36.1659C13.4291 35.9317 13.0992 35.8048 12.7587 35.8129C12.4306 35.8335 12.1239 35.9826 11.9049 36.2278C11.6859 36.473 11.5723 36.7945 11.5887 37.1229C11.5991 37.4501 11.7365 37.7604 11.9716 37.9881C12.2068 38.2158 12.5214 38.343 12.8487 38.3429ZM26.8487 38.3429C27.1778 38.3326 27.4903 38.196 27.7212 37.9614C27.9521 37.7267 28.0838 37.4121 28.0887 37.0829C28.089 36.7519 27.961 36.4337 27.7317 36.195C27.5024 35.9564 27.1895 35.8158 26.8587 35.8029C26.6898 35.8042 26.5228 35.8389 26.3673 35.9051C26.2119 35.9712 26.0711 36.0675 25.953 36.1884C25.8349 36.3092 25.742 36.4523 25.6794 36.6092C25.6169 36.7662 25.5861 36.934 25.5887 37.1029C25.604 37.4337 25.7449 37.7463 25.9828 37.9767C26.2207 38.2072 26.5376 38.3381 26.8687 38.3429H26.8487Z" fill="#EF4C23"/>
<path d="M27.5087 19.8329C27.5127 20.8455 27.3154 21.8488 26.9283 22.7845C26.5411 23.7201 25.9718 24.5695 25.2535 25.2832C24.5351 25.9969 23.6821 26.5606 22.7439 26.9417C21.8058 27.3228 20.8012 27.5135 19.7887 27.5029C18.7815 27.499 17.7851 27.2963 16.8565 26.9063C15.9279 26.5163 15.0854 25.9469 14.3774 25.2305C13.6695 24.5142 13.1099 23.6651 12.7309 22.732C12.3518 21.7988 12.1608 20.8001 12.1687 19.7929C12.1699 18.7803 12.3724 17.778 12.7644 16.8443C13.1564 15.9107 13.7302 15.0642 14.4522 14.3543C15.1743 13.6443 16.0303 13.0849 16.9705 12.7088C17.9106 12.3326 18.9162 12.147 19.9287 12.1629C21.9489 12.1814 23.8798 12.9983 25.2999 14.4353C26.72 15.8722 27.5141 17.8126 27.5087 19.8329ZM13.5087 19.8329C13.4954 20.6694 13.6493 21.5001 13.9614 22.2762C14.2735 23.0524 14.7376 23.7583 15.3263 24.3527C15.9151 24.947 16.6166 25.4177 17.3898 25.7371C18.163 26.0566 18.9922 26.2184 19.8287 26.2129C20.6593 26.2235 21.4837 26.0692 22.2542 25.759C23.0247 25.4488 23.7261 24.9888 24.3176 24.4056C24.9091 23.8225 25.3791 23.1277 25.7002 22.3617C26.0214 21.5957 26.1874 20.7736 26.1887 19.9429C26.2076 19.1011 26.0567 18.264 25.745 17.4817C25.4333 16.6995 24.9673 15.988 24.3746 15.3897C23.782 14.7915 23.0749 14.3188 22.2956 13.9998C21.5163 13.6807 20.6807 13.522 19.8387 13.5329C19.011 13.5263 18.1901 13.6832 17.4232 13.9945C16.6562 14.3057 15.9582 14.7653 15.3693 15.3469C14.7803 15.9284 14.3118 16.6205 13.9909 17.3835C13.6699 18.1464 13.5026 18.9652 13.4987 19.7929L13.5087 19.8329Z" fill="#EF4C23"/>
<path d="M21.1287 21.6029C21.1087 21.8759 21.1087 22.15 21.1287 22.4229C21.2187 22.9429 20.9887 23.0129 20.5087 23.0529C19.8487 23.0529 19.7687 22.8329 19.7887 22.2829C19.7887 21.1229 19.7887 21.1229 18.6487 21.1229C17.3187 21.1229 17.2687 21.1229 17.3287 22.4329C17.3287 23.0829 17.0187 23.0029 16.5987 23.0329C16.1787 23.0629 16.0187 22.9129 15.9487 22.4129C15.6987 20.4129 16.6187 18.8129 17.2787 17.1029C17.3199 16.9605 17.4092 16.8368 17.5314 16.7529C17.6535 16.669 17.8011 16.6302 17.9487 16.6429C19.9487 16.6429 19.5387 16.4029 20.2187 18.0529C20.5517 18.7936 20.8454 19.5513 21.0987 20.3229C21.1536 20.7478 21.1536 21.178 21.0987 21.6029H21.1287ZM18.5087 19.8029C18.6219 19.7929 18.7356 19.7929 18.8487 19.8029C19.4387 19.8929 19.4987 19.6629 19.2587 19.1829C19.0887 18.8629 18.9987 18.5129 18.8487 18.1829C18.6987 17.8529 18.4587 17.8329 18.2887 18.1829C18.0898 18.6068 17.9129 19.0408 17.7587 19.4829C17.6687 19.6929 17.7087 19.8229 17.9687 19.8129L18.5087 19.8029Z" fill="#EF4C23"/>
<path d="M21.7288 19.8329C21.7288 18.9229 21.7288 18.0229 21.7288 17.1129C21.7288 16.4729 22.1088 16.6529 22.4288 16.6429C22.7488 16.6329 23.0688 16.5429 23.0588 17.1129C23.0588 18.9229 23.0588 20.7429 23.0588 22.5429C23.0588 23.1229 22.7588 23.0429 22.4288 23.0229C22.0988 23.0029 21.6888 23.1929 21.7288 22.5429C21.7588 21.6629 21.7288 20.7329 21.7288 19.8329Z" fill="#EF4C23"/>
</svg>
