<svg width="41" height="41" viewBox="0 0 41 41" fill="none" xmlns="http://www.w3.org/2000/svg">
<path d="M1.4208 40.8257C0.936555 40.5347 0.546786 40.11 0.298397 39.6025C0.0500073 39.0951 -0.0464033 38.5267 0.0208088 37.9657C-0.091899 36.3236 0.394866 34.6963 1.3908 33.3857C2.7808 31.5257 3.98082 29.5257 5.25082 27.5857C5.58218 27.042 6.05001 26.5944 6.60786 26.2874C7.16571 25.9804 7.79416 25.8247 8.43081 25.8357C9.10081 25.8357 9.78081 25.8357 10.5208 25.8357C10.26 25.2325 9.92401 24.6647 9.52081 24.1457C7.42081 20.9057 5.30082 17.6857 3.19082 14.4657C2.90082 14.0257 2.45081 13.5558 3.08081 13.0558C3.49081 12.7158 3.84081 12.9057 4.37081 13.7157C7.94415 19.1691 11.5075 24.6224 15.0608 30.0757C15.1515 30.2585 15.2959 30.4091 15.4747 30.5074C15.6534 30.6057 15.8579 30.647 16.0608 30.6257C18.9708 30.6257 21.8908 30.6257 24.8008 30.6257C25.0182 30.6462 25.2367 30.6032 25.4302 30.5021C25.6236 30.4009 25.7836 30.2459 25.8908 30.0557C29.4508 24.5757 33.0242 19.1024 36.6108 13.6357L36.7608 13.4057C37.0108 13.0057 37.3308 12.7257 37.8108 13.0357C38.2908 13.3457 38.2108 13.7357 37.9508 14.1457L36.0208 17.0857C34.2075 19.8657 32.3942 22.6391 30.5808 25.4057C30.5108 25.5157 30.3808 25.6057 30.4708 25.8357C31.0408 25.8357 31.6508 25.8357 32.2508 25.8357C32.9629 25.7992 33.6713 25.9601 34.2977 26.3006C34.9242 26.6412 35.4443 27.1482 35.8008 27.7657C37.4608 30.3257 39.1708 32.8557 40.8608 35.4057V39.4657C40.5053 40.0639 39.9747 40.5386 39.3408 40.8257H1.4208ZM34.9708 36.7457C34.5508 35.2157 34.5508 35.2157 33.1108 34.9257L32.7808 34.8657C32.3832 34.8312 32.005 34.6784 31.695 34.4271C31.3849 34.1759 31.1571 33.8376 31.0408 33.4557C30.7708 32.7157 30.5208 31.9657 30.2908 31.2157C30.1437 30.8535 30.1229 30.4522 30.2317 30.0767C30.3406 29.7011 30.5728 29.3732 30.8908 29.1457C31.5408 28.7057 31.4608 28.3257 31.1408 27.7957C31.0008 27.5657 31.0108 27.1757 30.5908 27.2557C30.1708 27.3357 29.5308 26.9858 29.1408 27.6258C28.3708 28.8758 27.5308 30.0757 26.7508 31.3257C26.6302 31.5527 26.4454 31.7391 26.2196 31.8617C25.9938 31.9844 25.7368 32.038 25.4808 32.0157C22.1475 32.0157 18.8141 32.0157 15.4808 32.0157C15.2264 32.036 14.9716 31.9814 14.7478 31.8589C14.524 31.7363 14.3408 31.551 14.2208 31.3257C13.4308 30.0657 12.6008 28.8257 11.7808 27.5857C11.7233 27.4648 11.6304 27.3643 11.5144 27.2974C11.3984 27.2306 11.2648 27.2005 11.1313 27.2114C10.9979 27.2222 10.8709 27.2734 10.7672 27.3582C10.6635 27.4429 10.588 27.5571 10.5508 27.6857C9.31082 30.5257 8.08081 33.3857 6.82081 36.2257C6.63081 36.6457 6.69082 36.7457 7.16082 36.7457H34.9708ZM20.4708 39.4657H38.2208C38.4239 39.4809 38.6278 39.4809 38.8308 39.4657C39.4908 39.3557 39.5508 38.8657 39.5108 38.3357C39.4708 37.8057 39.0508 38.2457 38.8208 38.1357C38.5993 38.0954 38.3723 38.0954 38.1508 38.1357H3.73083C3.19157 38.0957 2.65006 38.0957 2.11081 38.1357C1.89081 38.1357 1.4608 37.6757 1.4208 38.3357C1.3808 38.9957 1.42081 39.3357 2.11081 39.4557C2.31386 39.4708 2.51777 39.4708 2.72082 39.4557L20.4708 39.4657ZM32.4708 27.2657L32.9508 28.3857C33.3308 29.2557 33.2608 29.3857 32.4008 29.8357C31.5408 30.2857 31.6308 30.3657 31.7808 31.2557C32.0808 32.9557 32.9508 33.8257 34.7108 33.7657C34.9154 33.7614 35.1156 33.8261 35.2789 33.9495C35.4422 34.0729 35.5591 34.2477 35.6108 34.4457C35.8775 35.1124 36.1575 35.7524 36.4508 36.3657C36.5308 36.5457 36.5708 36.7557 36.8508 36.7457C37.5008 36.7457 38.1608 36.7457 38.8508 36.7457C38.9805 36.7509 39.1089 36.7183 39.2204 36.6519C39.3319 36.5854 39.4217 36.488 39.4789 36.3715C39.5361 36.255 39.5582 36.1244 39.5426 35.9956C39.5269 35.8667 39.4742 35.7452 39.3908 35.6457C37.7708 33.1724 36.1408 30.7091 34.5008 28.2557C34.2911 27.9076 33.9848 27.6278 33.6191 27.4503C33.2534 27.2728 32.8441 27.2052 32.4408 27.2557L32.4708 27.2657ZM9.20082 27.2657C8.70272 27.1292 8.17436 27.1523 7.69004 27.3317C7.20573 27.511 6.78982 27.8377 6.50082 28.2657C4.90082 30.6858 3.30414 33.1091 1.71081 35.5357C1.29081 36.1757 1.54083 36.6957 2.29083 36.7257C3.04083 36.7557 3.96083 36.7257 4.79083 36.7257C4.87878 36.7361 4.96749 36.7145 5.04089 36.6649C5.11429 36.6154 5.16749 36.5412 5.19082 36.4557L9.20082 27.2657Z" fill="#EF4C23"/>
<path d="M30.0208 10.2058C30.0208 11.6758 30.0208 13.1458 30.0208 14.6158C30.0463 14.85 29.996 15.0862 29.8771 15.2896C29.7583 15.493 29.5774 15.6529 29.3608 15.7458C26.5808 17.2258 23.8042 18.7191 21.0308 20.2258C20.8601 20.3332 20.6625 20.3903 20.4608 20.3903C20.2591 20.3903 20.0615 20.3332 19.8908 20.2258C17.0975 18.7058 14.3008 17.2025 11.5008 15.7158C11.3088 15.6328 11.1476 15.4917 11.04 15.3123C10.9323 15.1329 10.8837 14.9243 10.9008 14.7158C10.9008 11.7291 10.9008 8.72912 10.9008 5.71579C10.8861 5.49226 10.9406 5.26962 11.0569 5.07816C11.1732 4.88671 11.3457 4.73573 11.5508 4.64579C14.3375 3.16579 17.1142 1.67245 19.8808 0.165787C20.0531 0.0574647 20.2524 0 20.4558 0C20.6593 0 20.8586 0.0574647 21.0308 0.165787C23.8042 1.66579 26.5808 3.15912 29.3608 4.64579C29.5772 4.74171 29.7576 4.9037 29.8761 5.10851C29.9947 5.31331 30.0454 5.55041 30.0208 5.78579C30.0008 7.27579 30.0208 8.73579 30.0208 10.2058ZM21.1808 18.5558L28.3808 14.6658C28.461 14.6285 28.5274 14.5669 28.5705 14.4897C28.6136 14.4124 28.6312 14.3236 28.6208 14.2358C28.6208 11.8458 28.6208 9.44579 28.6208 7.05579C28.6208 6.71579 28.5108 6.65579 28.2308 6.80579L26.9908 7.48579C26.9121 7.54432 26.8215 7.58484 26.7254 7.60451C26.6293 7.62418 26.5301 7.62251 26.4347 7.59962C26.3393 7.57673 26.2501 7.53318 26.1734 7.47204C26.0967 7.4109 26.0344 7.33366 25.9908 7.24579C25.9365 7.16141 25.9015 7.06605 25.8883 6.96655C25.8752 6.86704 25.8842 6.76586 25.9148 6.67027C25.9454 6.57467 25.9968 6.48704 26.0653 6.41365C26.1337 6.34026 26.2176 6.28293 26.3108 6.24579L27.7608 5.45579C27.6933 5.38599 27.6197 5.32241 27.5408 5.26579C25.2808 4.04579 23.0208 2.83579 20.7708 1.60579C20.6698 1.53954 20.5516 1.50425 20.4308 1.50425C20.31 1.50425 20.1919 1.53954 20.0908 1.60579L13.6708 5.07579C13.5108 5.16579 13.2708 5.17579 13.2308 5.43579L14.5508 6.14579C15.0008 6.38579 15.1908 6.75579 14.9208 7.20579C14.6508 7.65579 14.2608 7.59579 13.8508 7.37579C13.4408 7.15579 12.8508 6.85579 12.3208 6.55579C12.3208 9.14579 12.3208 11.6258 12.3208 14.1058C12.3208 14.4458 12.5008 14.5658 12.7508 14.7058L16.5608 16.7058L19.7608 18.4258C19.7608 17.6658 19.7608 17.0358 19.7608 16.4258C19.7608 15.8158 19.9708 15.5558 20.4808 15.5558C20.9908 15.5558 21.2008 15.9358 21.2008 16.4358C21.2008 16.9358 21.1808 17.8258 21.1808 18.5558Z" fill="#EF4C23"/>
<path d="M17.7408 8.03575C17.5935 8.0438 17.4519 8.09571 17.3343 8.1848C17.2167 8.2739 17.1284 8.39611 17.0808 8.53575C17.0278 8.67382 17.0258 8.82629 17.0753 8.96566C17.1248 9.10502 17.2225 9.2221 17.3508 9.29576C17.6563 9.51474 17.9891 9.69291 18.3408 9.82576C19.4008 10.2358 20.1208 10.8258 19.8108 12.1058C19.7955 12.1512 19.7955 12.2003 19.8108 12.2458C19.8608 12.6458 20.0708 12.9358 20.5008 12.9358C20.5977 12.9431 20.695 12.9296 20.7862 12.8961C20.8774 12.8627 20.9604 12.8101 21.0296 12.7418C21.0988 12.6736 21.1525 12.5914 21.1872 12.5006C21.2219 12.4099 21.2368 12.3127 21.2308 12.2158C21.2558 11.8562 21.2558 11.4953 21.2308 11.1358C21.2042 10.9711 21.2382 10.8023 21.3264 10.6608C21.4147 10.5192 21.5512 10.4144 21.7108 10.3658C22.3408 10.0558 22.9508 9.72576 23.5508 9.36576C23.6359 9.33228 23.7128 9.28067 23.776 9.2145C23.8391 9.14832 23.8871 9.06919 23.9166 8.98259C23.9461 8.89598 23.9564 8.804 23.9468 8.71302C23.9371 8.62204 23.9078 8.53424 23.8608 8.45575C23.8268 8.36 23.7711 8.27341 23.6981 8.2027C23.6251 8.132 23.5368 8.07909 23.44 8.04812C23.3433 8.01715 23.2406 8.00895 23.1402 8.02415C23.0397 8.03935 22.9441 8.07754 22.8608 8.13575C22.5669 8.2515 22.2882 8.40261 22.0308 8.58576C21.6088 8.98744 21.0484 9.21147 20.4658 9.21147C19.8832 9.21147 19.3228 8.98744 18.9008 8.58576C18.5674 8.3065 18.168 8.11716 17.7408 8.03575Z" fill="#EF4C23"/>
<path d="M17.7408 8.03574C18.1636 8.11584 18.5592 8.30161 18.8908 8.57575C19.3129 8.97743 19.8732 9.20146 20.4559 9.20146C21.0385 9.20146 21.5988 8.97743 22.0208 8.57575C22.2782 8.3926 22.5569 8.24149 22.8508 8.12575C22.9341 8.06754 23.0297 8.02934 23.1302 8.01414C23.2307 7.99894 23.3333 8.00715 23.4301 8.03812C23.5269 8.06909 23.6152 8.12198 23.6882 8.19269C23.7611 8.26339 23.8168 8.35 23.8508 8.44575C23.8978 8.52424 23.9272 8.61202 23.9368 8.703C23.9465 8.79398 23.9362 8.88597 23.9067 8.97257C23.8772 9.05918 23.8292 9.13831 23.766 9.20448C23.7028 9.27065 23.626 9.32227 23.5408 9.35574C22.9408 9.70574 22.3308 10.0357 21.7008 10.3557C21.5413 10.4044 21.4047 10.5092 21.3165 10.6508C21.2282 10.7923 21.1943 10.9611 21.2208 11.1257C21.2458 11.4853 21.2458 11.8462 21.2208 12.2057C21.2268 12.3027 21.212 12.3998 21.1773 12.4906C21.1426 12.5813 21.0888 12.6636 21.0196 12.7318C20.9505 12.8 20.8675 12.8527 20.7763 12.8861C20.6851 12.9196 20.5877 12.9331 20.4908 12.9257C20.0608 12.9257 19.8509 12.6357 19.8009 12.2357C19.7856 12.1903 19.7856 12.1412 19.8009 12.0957C20.0709 10.8257 19.3408 10.2257 18.3408 9.82575C18.0071 9.6922 17.6913 9.51752 17.4008 9.30575C17.2726 9.2321 17.1749 9.11501 17.1254 8.97565C17.0759 8.83628 17.0778 8.68381 17.1308 8.54575C17.1734 8.4115 17.2535 8.2922 17.3615 8.20186C17.4696 8.11152 17.6012 8.05389 17.7408 8.03574Z" fill="#EF4C23"/>
</svg>
