<svg width="38" height="40" viewBox="0 0 38 40" fill="none" xmlns="http://www.w3.org/2000/svg">
<path d="M14.0399 14.0639C13.4699 13.9239 13.3599 14.1939 13.3799 14.7039C13.3999 15.2139 13.3799 15.4339 13.9999 15.4139C14.6199 15.3939 14.7099 15.2439 14.6999 14.6939C14.6899 14.1439 14.6199 13.9239 14.0399 14.0639ZM19.1499 14.7339C19.2499 14.2339 19.1499 13.9839 18.5399 14.0339C18.0999 14.0339 17.7899 14.0339 17.8299 14.6539C17.8699 15.2739 17.8299 15.4439 18.5099 15.4139C19.1899 15.3839 19.3199 15.2939 19.1799 14.7339H19.1499ZM23.5999 14.7339C23.7199 14.2339 23.5999 14.0139 22.9999 14.0439C22.3999 14.0739 22.2799 14.0939 22.3099 14.6739C22.3399 15.2539 22.3099 15.4439 22.9899 15.4239C23.6699 15.4039 23.7599 15.2439 23.6299 14.7239L23.5999 14.7339Z" fill="#EF4C23"/>
<path d="M22.24 2.82383C22.5815 2.17201 23.0562 1.59926 23.6333 1.14273C24.2104 0.686206 24.8771 0.356099 25.59 0.173827C26.2463 -0.00187391 26.9311 -0.044932 27.6042 0.0471726C28.2774 0.139277 28.9254 0.364695 29.5104 0.710239C30.0953 1.05578 30.6056 1.51451 31.0111 2.0596C31.4167 2.60468 31.7095 3.22517 31.8724 3.88477C32.0353 4.54437 32.0651 5.22983 31.9599 5.90106C31.8547 6.57228 31.6167 7.2158 31.2599 7.79395C30.903 8.37211 30.4345 8.87329 29.8816 9.2682C29.3287 9.6631 28.7026 9.94378 28.04 10.0938C27.7627 10.1317 27.4975 10.2313 27.2638 10.3854C27.0302 10.5394 26.8341 10.7439 26.69 10.9838C26.3344 11.5679 25.8286 12.0459 25.2252 12.3678C24.6219 12.6897 23.9432 12.8437 23.26 12.8138C20 12.8138 16.74 12.8138 13.49 12.8138C12.5003 12.8213 11.5457 12.4474 10.8245 11.7696C10.1032 11.0919 9.67063 10.1624 9.61659 9.17417C9.56254 8.18592 9.89116 7.21481 10.5342 6.46246C11.1773 5.7101 12.0854 5.2343 13.07 5.13383C13.2084 5.13739 13.3442 5.09524 13.4563 5.01389C13.5683 4.93255 13.6505 4.81655 13.69 4.68383C13.9705 3.87839 14.4488 3.15633 15.0811 2.58397C15.7134 2.01162 16.4793 1.60731 17.3086 1.4082C18.1379 1.20909 19.004 1.22155 19.8272 1.44445C20.6504 1.66734 21.4044 2.09351 22.02 2.68383L22.24 2.82383ZM25.72 10.1738C22.96 9.26383 21.72 7.57383 21.72 4.75383C21.7226 4.59816 21.6938 4.44357 21.6354 4.29925C21.577 4.15494 21.4901 4.02386 21.38 3.91383C20.9175 3.38572 20.318 2.99568 19.6478 2.78675C18.9775 2.57783 18.2626 2.55815 17.5819 2.72987C16.9012 2.9016 16.2812 3.25806 15.7903 3.75992C15.2994 4.26177 14.9567 4.8895 14.8 5.57383C14.57 6.49383 14.56 6.51383 13.63 6.44383C13.2854 6.41665 12.9389 6.45898 12.611 6.5683C12.2832 6.67763 11.9806 6.85172 11.7213 7.08024C11.462 7.30876 11.2512 7.58706 11.1016 7.8986C10.9519 8.21014 10.8663 8.54858 10.85 8.89383C10.842 9.23156 10.9015 9.56749 11.0249 9.88196C11.1484 10.1964 11.3333 10.4831 11.5689 10.7252C11.8045 10.9673 12.086 11.16 12.397 11.292C12.708 11.424 13.0422 11.4926 13.38 11.4938C16.72 11.4938 20.07 11.4938 23.38 11.4938C23.8511 11.4962 24.3147 11.3757 24.7251 11.1442C25.1354 10.9127 25.4784 10.5783 25.72 10.1738ZM26.81 4.47383C27.0331 4.45885 27.2569 4.45885 27.48 4.47383C27.98 4.54383 28.07 4.30383 27.98 3.89383C27.92 3.65383 28.03 3.23383 27.7 3.23383C27.0337 3.13576 26.3548 3.16631 25.7 3.32383C25.7 3.32383 25.7 3.37383 25.7 3.39383C25.41 4.05383 25.7 4.47383 26.4 4.47383H26.81ZM26.87 5.76383C25.6 5.76383 25.62 5.76383 25.66 6.56383C25.66 6.99383 25.83 7.09383 26.24 7.04383C26.6682 6.98879 27.1018 6.98879 27.53 7.04383C27.96 7.11383 28.05 6.95383 28.1 6.55383C28.19 5.92383 28.04 5.62383 27.35 5.75383C27.1907 5.77213 27.03 5.77548 26.87 5.76383ZM29.96 4.46383C30.61 4.60383 30.63 4.27383 30.41 3.81383C30.19 3.35383 30.24 2.96383 29.71 2.97383C29.51 2.97383 29.05 2.97383 29.23 3.38383C29.41 3.79383 28.95 4.62383 29.96 4.49383V4.46383ZM28.57 1.80383C28.0651 1.47708 27.4764 1.30325 26.875 1.30325C26.2736 1.30325 25.6849 1.47708 25.18 1.80383C26.3063 1.93376 27.4437 1.93376 28.57 1.80383ZM24.33 3.80383C24.38 3.19383 24.15 2.86383 23.79 2.98383C23.4337 3.35457 23.1998 3.82582 23.12 4.33383C23.3 4.69383 23.67 4.46383 23.94 4.49383C24.57 4.49383 24.2 3.98383 24.33 3.77383V3.80383ZM23.08 5.80383C23.1856 6.25358 23.3504 6.68736 23.57 7.09383C23.72 7.36383 23.94 7.28383 24.16 7.25383C24.1927 7.25672 24.2257 7.25258 24.2566 7.24168C24.2876 7.23078 24.3159 7.21338 24.3396 7.19064C24.3632 7.1679 24.3818 7.14036 24.3939 7.10986C24.4061 7.07937 24.4116 7.04662 24.41 7.01383C24.52 5.95383 24.32 5.72383 23.27 5.75383L23.08 5.80383ZM25.21 8.50383C25.7089 8.77427 26.2675 8.91592 26.835 8.91592C27.4025 8.91592 27.9611 8.77427 28.46 8.50383C27.387 8.29542 26.2843 8.29203 25.21 8.49383V8.50383ZM30.55 5.80383C29.46 5.68383 29.46 5.68383 29.38 6.71383C29.38 6.71383 29.38 6.76383 29.38 6.78383C29.38 6.96383 29.25 7.19383 29.57 7.26383C29.6264 7.28608 29.6866 7.29671 29.7472 7.2951C29.8078 7.29349 29.8674 7.27966 29.9225 7.25445C29.9776 7.22924 30.027 7.19315 30.0678 7.14837C30.1086 7.10359 30.14 7.05102 30.16 6.99383C30.3709 6.63203 30.5038 6.23007 30.55 5.81383V5.80383Z" fill="#EF4C23"/>
<path d="M10.8699 32.9938V36.9938C10.8884 37.1748 10.8666 37.3577 10.806 37.5292C10.7454 37.7008 10.6474 37.8567 10.5193 37.9859C10.3911 38.115 10.2359 38.2141 10.0648 38.276C9.89368 38.3379 9.71099 38.3611 9.52987 38.3438H1.37987C1.19252 38.3634 1.00319 38.3404 0.825994 38.2765C0.648801 38.2126 0.488336 38.1095 0.356596 37.9749C0.224855 37.8402 0.125239 37.6776 0.0651985 37.499C0.00515813 37.3205 -0.0137525 37.1307 0.00987014 36.9438C0.00987014 34.2538 0.00987014 31.5538 0.00987014 28.8638C-0.00727748 28.6788 0.0167247 28.4922 0.0801597 28.3175C0.143595 28.1428 0.244888 27.9843 0.376783 27.8534C0.508678 27.7225 0.667912 27.6223 0.843061 27.5601C1.01821 27.498 1.20494 27.4753 1.38987 27.4938C2.29987 27.4938 3.19987 27.4938 4.09987 27.4938C4.60987 27.4938 4.80987 27.4038 4.78987 26.8438C4.78987 25.5338 4.78987 24.2138 4.78987 22.9038C4.78987 21.9038 4.92987 21.7238 5.94987 21.7238C8.20987 21.7238 10.4799 21.7238 12.7399 21.7238C13.3699 21.7238 13.4799 21.5338 13.4599 20.9638C13.4599 19.6838 13.4599 18.3938 13.4599 17.1038C13.4599 16.4638 13.8399 16.6438 14.1599 16.6238C14.4799 16.6038 14.7899 16.5638 14.7799 17.1238C14.7799 18.7938 14.7799 20.4638 14.7799 22.1238C14.7799 22.7638 14.5199 23.0038 13.8899 23.0038C11.5599 23.0038 9.22987 23.0038 6.88987 23.0038C6.23987 23.0038 6.11987 23.2038 6.13987 23.7838C6.13987 24.8438 6.13987 25.9138 6.13987 26.9738C6.13987 27.4138 6.26987 27.5038 6.66987 27.4938C7.66987 27.4938 8.56987 27.4938 9.51987 27.4938C9.7069 27.4716 9.89654 27.4919 10.0746 27.5532C10.2527 27.6145 10.4146 27.7153 10.5483 27.848C10.6819 27.9807 10.7839 28.1419 10.8465 28.3195C10.9091 28.4972 10.9308 28.6866 10.9099 28.8738L10.8699 32.9938ZM1.32987 32.9238V36.4938C1.32987 36.7038 1.20987 37.0138 1.64987 37.0038C2.08987 36.9938 1.90987 36.6938 1.90987 36.5138C1.88997 35.9792 2.00615 35.4482 2.24752 34.9707C2.48889 34.4932 2.84754 34.0848 3.28987 33.7838C3.55987 33.6038 3.54987 33.4738 3.41987 33.1938C3.19809 32.7409 3.13866 32.2255 3.25153 31.734C3.3644 31.2425 3.64271 30.8046 4.03987 30.4938C4.43433 30.2046 4.91073 30.0487 5.39987 30.0487C5.88901 30.0487 6.36541 30.2046 6.75987 30.4938C7.17514 30.7947 7.47165 31.2317 7.59775 31.7288C7.72384 32.2259 7.67151 32.7514 7.44987 33.2138C7.29987 33.5638 7.37987 33.7038 7.64987 33.9138C8.0699 34.1974 8.41125 34.5827 8.64207 35.0339C8.8729 35.485 8.98567 35.9873 8.96987 36.4938C8.96987 36.7038 8.80987 37.0338 9.26987 37.0238C9.72987 37.0138 9.55987 36.6938 9.55987 36.4838C9.55987 34.1038 9.55987 31.7338 9.55987 29.3538C9.55987 28.9438 9.48987 28.7638 9.01987 28.7738C6.61987 28.7738 4.21987 28.7738 1.81987 28.7738C1.37987 28.7738 1.29987 28.9238 1.30987 29.3138C1.33987 30.4938 1.32987 31.7238 1.32987 32.9238ZM5.32987 37.0238C5.95987 37.0238 6.58987 37.0238 7.21987 37.0238C7.50987 37.0238 7.58987 36.9338 7.60987 36.6438C7.64254 36.3678 7.61428 36.0881 7.52706 35.8242C7.43984 35.5603 7.2958 35.3188 7.10509 35.1166C6.91438 34.9145 6.68165 34.7566 6.42331 34.6542C6.16496 34.5518 5.88729 34.5073 5.60987 34.5238C4.00987 34.5238 3.17987 35.2038 3.18987 36.5238C3.18987 36.8538 3.24987 37.0038 3.62987 36.9838C4.23987 37.0038 4.79987 37.0238 5.36987 37.0238H5.32987ZM5.32987 33.1938C5.45337 33.202 5.57726 33.1856 5.69443 33.1458C5.81159 33.1059 5.91974 33.0433 6.01265 32.9615C6.10556 32.8798 6.18141 32.7805 6.23585 32.6693C6.29028 32.5582 6.32224 32.4374 6.32987 32.3138C6.33089 32.0635 6.23797 31.8219 6.06949 31.6367C5.901 31.4516 5.66919 31.3364 5.41987 31.3138C5.17825 31.3259 4.94784 31.4194 4.76623 31.5792C4.58462 31.7391 4.46252 31.9557 4.41987 32.1938C4.41966 32.4523 4.51951 32.7007 4.69848 32.8872C4.87745 33.0736 5.12164 33.1835 5.37987 33.1938H5.32987Z" fill="#EF4C23"/>
<path d="M37.0401 32.9939C37.0401 34.2839 37.0401 35.5739 37.0401 36.8639C37.0401 37.8639 36.5701 38.3539 35.5401 38.3539H27.6701C26.6101 38.3539 26.16 37.8939 26.16 36.8039V29.0039C26.16 27.9339 26.6201 27.4739 27.6801 27.4739C28.7401 27.4739 29.5301 27.4739 30.4601 27.4739C30.8501 27.4739 30.9601 27.3539 30.9501 26.9739C30.9501 25.8239 30.9501 24.6739 30.9501 23.5139C30.9501 23.1039 30.8601 22.9839 30.4301 22.9939C28.0601 22.9939 25.6801 22.9939 23.3101 22.9939C22.4501 22.9939 22.3101 22.8739 22.3101 21.9939C22.3101 20.3639 22.3101 18.7339 22.3101 17.1039C22.3101 16.5139 22.61 16.6039 22.97 16.5939C23.33 16.5839 23.6501 16.5439 23.6201 17.1239C23.6201 18.4539 23.6201 19.7939 23.6201 21.1239C23.6201 21.5739 23.74 21.6939 24.19 21.6839C26.51 21.6839 28.84 21.6839 31.19 21.6839C32.13 21.6839 32.3 21.8439 32.3 22.7839C32.3 24.1639 32.3 25.5439 32.3 26.9239C32.3 27.3339 32.4 27.4639 32.83 27.4539C33.75 27.4539 34.6801 27.4539 35.6101 27.4539C35.8066 27.4322 36.0055 27.4557 36.1917 27.5226C36.3778 27.5894 36.5462 27.6979 36.6841 27.8396C36.822 27.9814 36.9257 28.1527 36.9874 28.3406C37.0491 28.5285 37.0671 28.728 37.0401 28.9239C37.0401 30.2739 37.0401 31.6339 37.0401 32.9939ZM35.72 32.9939C35.72 31.7739 35.72 30.5539 35.72 29.3339C35.72 28.9539 35.72 28.7739 35.22 28.7839C32.8134 28.7839 30.3967 28.7839 27.97 28.7839C27.59 28.7839 27.47 28.8839 27.47 29.2739C27.47 31.7139 27.47 34.1539 27.47 36.5939C27.47 36.9739 27.6201 37.0339 27.9501 37.0339C30.3901 37.0339 32.8301 37.0339 35.2601 37.0339C35.6901 37.0339 35.73 36.8639 35.72 36.5139C35.74 35.3439 35.7501 34.1639 35.7501 32.9939H35.72Z" fill="#EF4C23"/>
<path d="M18.5399 39.6138C16.9099 39.6138 15.2899 39.6138 13.6599 39.6138C12.5899 39.6138 12.1299 39.1538 12.1199 38.0938V28.3838C12.1199 27.2938 12.6099 26.8238 13.6999 26.8238C14.7899 26.8238 16.0999 26.8238 17.2999 26.8238C17.7799 26.8238 17.8999 26.6938 17.8999 26.2238C17.8999 23.2238 17.8999 20.2238 17.8999 17.2238C17.8999 16.6538 18.1199 16.6238 18.5599 16.6338C18.9999 16.6438 19.2499 16.6338 19.2399 17.2138C19.2399 20.2138 19.2399 23.2138 19.2399 26.2138C19.2399 26.7238 19.3299 26.9138 19.8899 26.8938C21.0899 26.8438 22.2899 26.8938 23.4899 26.8938C23.694 26.8625 23.9027 26.8792 24.0993 26.9425C24.2959 27.0058 24.475 27.1141 24.6225 27.2587C24.77 27.4033 24.8818 27.5802 24.9491 27.7755C25.0163 27.9708 25.0371 28.1791 25.0099 28.3838C25.0099 31.6572 25.0099 34.9338 25.0099 38.2138C25.0099 39.2138 24.5199 39.6838 23.4899 39.6838C21.7999 39.6238 20.1699 39.6138 18.5399 39.6138ZM23.6299 33.1938C23.6299 31.6738 23.6299 30.1938 23.6299 28.6438C23.6299 28.2938 23.5699 28.1438 23.1599 28.1438C20.0599 28.1438 16.9699 28.1438 13.8699 28.1438C13.4899 28.1438 13.4199 28.2638 13.4299 28.6038C13.4299 31.6838 13.4299 34.7538 13.4299 37.8338C13.4299 38.2738 13.5699 38.3438 13.9699 38.3438C16.9699 38.3438 20.0799 38.3438 23.1299 38.3438C23.5799 38.3438 23.6499 38.2038 23.6399 37.8038C23.6199 36.2738 23.6299 34.7338 23.6299 33.1938Z" fill="#EF4C23"/>
<path d="M14.04 14.0638C14.59 13.9238 14.69 14.1838 14.7 14.6938C14.71 15.2038 14.57 15.4038 14 15.4138C13.43 15.4238 13.4 15.1438 13.38 14.7038C13.36 14.2638 13.5 13.9238 14.04 14.0638Z" fill="#EF4C23"/>
<path d="M19.1799 14.7339C19.3199 15.2939 19.0499 15.3839 18.5399 15.4139C18.0299 15.4439 17.8999 15.1439 17.8599 14.6539C17.8199 14.1639 18.1299 14.0739 18.5699 14.0339C19.1599 13.9839 19.2799 14.2339 19.1799 14.7339Z" fill="#EF4C23"/>
<path d="M23.63 14.7239C23.76 15.2439 23.57 15.3939 23.02 15.4139C22.47 15.4339 22.37 15.1639 22.34 14.6639C22.31 14.1639 22.57 14.0639 23.03 14.0339C23.49 14.0039 23.75 14.2239 23.63 14.7239Z" fill="#EF4C23"/>
<path d="M33.8298 33.2638C33.8298 34.1638 33.8298 35.0738 33.8298 35.9738C33.8298 36.5438 34.1398 36.4538 34.4698 36.4438C34.7998 36.4338 35.1998 36.6238 35.1898 35.9838C35.1898 34.1538 35.1898 32.3238 35.1898 30.5038C35.1898 29.9238 34.8699 30.0138 34.5499 30.0338C34.2299 30.0538 33.7998 29.8438 33.8298 30.4938C33.8598 31.4138 33.8298 32.3438 33.8298 33.2638ZM31.9199 33.8138C31.9199 34.5438 31.9199 35.2638 31.9199 35.9838C31.9199 36.5038 32.1899 36.4838 32.5099 36.4338C32.8299 36.3838 33.2799 36.6838 33.2699 36.0138C33.2699 34.5938 33.2699 33.1638 33.2699 31.7438C33.2699 31.0738 32.8399 31.3338 32.5399 31.3038C32.2399 31.2738 31.8699 31.2138 31.9199 31.7838C31.9699 32.3538 31.9199 33.1438 31.9199 33.8138ZM30.0399 34.4938C30.0399 35.0138 30.0399 35.4938 30.0399 36.0538C30.0399 36.6138 30.3099 36.5138 30.5999 36.4538C30.8899 36.3938 31.3899 36.7338 31.3799 36.0638C31.3799 35.0638 31.3799 34.0638 31.3799 33.0638C31.3799 32.4838 31.0199 32.6038 30.6999 32.6138C30.3799 32.6238 29.9899 32.4538 30.0299 33.0538C30.0699 33.6538 30.0399 33.9838 30.0399 34.4938ZM28.1399 35.1638C28.1598 35.4335 28.1598 35.7042 28.1399 35.9738C28.0599 36.5038 28.3899 36.4938 28.7399 36.4638C29.0899 36.4338 29.5499 36.6238 29.4899 35.9538C29.4399 35.4852 29.4399 35.0125 29.4899 34.5438C29.5399 34.0138 29.3698 33.8738 28.8298 33.8638C28.2898 33.8538 28.0399 33.9838 28.1399 34.5538C28.1486 34.751 28.1386 34.9486 28.1099 35.1438L28.1399 35.1638Z" fill="#EF4C23"/>
<path d="M33.8299 33.2638C33.8299 32.3438 33.8299 31.4138 33.8299 30.4938C33.8299 29.8438 34.2399 30.0538 34.5499 30.0338C34.8599 30.0138 35.1999 29.9238 35.1899 30.5038C35.1899 32.3238 35.1899 34.1538 35.1899 35.9838C35.1899 36.6238 34.7799 36.4238 34.4699 36.4438C34.1599 36.4638 33.7899 36.5438 33.8299 35.9738C33.8699 35.0738 33.8299 34.1638 33.8299 33.2638Z" fill="#EF4C23"/>
<path d="M31.9199 33.8138C31.9199 33.1438 31.9199 32.4538 31.9199 31.8138C31.9199 31.1738 32.1999 31.2938 32.5399 31.3338C32.8799 31.3738 33.2899 31.1038 33.2699 31.7738C33.2699 33.1938 33.2699 34.6238 33.2699 36.0438C33.2699 36.7138 32.8099 36.4238 32.5099 36.4638C32.2099 36.5038 31.8899 36.5338 31.9199 36.0138C31.9499 35.2638 31.9199 34.5438 31.9199 33.8138Z" fill="#EF4C23"/>
<path d="M30.04 34.4939C30.04 34.0039 30.04 33.4939 30.04 33.0139C30.04 32.5339 30.41 32.5739 30.71 32.5739C31.01 32.5739 31.41 32.4439 31.39 33.0239C31.39 34.0239 31.39 35.0239 31.39 36.0239C31.39 36.6939 30.89 36.3639 30.61 36.4139C30.33 36.4639 30.02 36.4939 30.05 36.0139C30.08 35.5339 30.04 34.9939 30.04 34.4939Z" fill="#EF4C23"/>
<path d="M28.11 35.1439C28.13 34.941 28.13 34.7367 28.11 34.5339C28.01 33.9639 28.25 33.8439 28.8 33.8439C29.35 33.8439 29.51 33.9939 29.46 34.5239C29.4101 34.9925 29.4101 35.4652 29.46 35.9339C29.52 36.6039 29.06 36.4239 28.71 36.4439C28.36 36.4639 28.03 36.4439 28.11 35.9539C28.13 35.6842 28.13 35.4135 28.11 35.1439Z" fill="#EF4C23"/>
<path d="M21.1498 36.5739L20.8498 36.4639C20.4998 36.3239 20.2498 36.4639 20.2498 36.8139C20.2498 37.3939 19.8798 37.5539 19.4398 37.6339C18.8377 37.7388 18.222 37.7388 17.6198 37.6339C17.1698 37.5639 16.8098 37.3839 16.8198 36.8139C16.8198 36.4239 16.5398 36.3039 16.2098 36.4839C16.1129 36.5411 16.0055 36.5785 15.8939 36.5939C15.7824 36.6093 15.6689 36.6024 15.56 36.5736C15.4512 36.5447 15.3491 36.4945 15.2598 36.4259C15.1705 36.3573 15.0957 36.2716 15.0398 36.1739C14.6885 35.7594 14.408 35.2898 14.2098 34.7839C14.0298 34.3039 13.9398 33.8839 14.4898 33.5539C14.8298 33.3539 14.7898 33.0939 14.4898 32.8939C14.3197 32.7988 14.1933 32.6413 14.1373 32.4546C14.0813 32.268 14.1001 32.0669 14.1898 31.8939C14.3887 31.2493 14.7305 30.6579 15.1898 30.1639C15.3021 30.0125 15.4665 29.9082 15.6513 29.8712C15.8361 29.8343 16.028 29.8673 16.1898 29.9639C16.6398 30.2039 16.8598 30.0539 16.8798 29.5539C16.877 29.3812 16.9409 29.214 17.0583 29.0873C17.1756 28.9606 17.3374 28.8842 17.5098 28.8739C18.1298 28.7439 18.7699 28.7439 19.3898 28.8739C19.9098 28.9739 20.2798 29.1139 20.2998 29.7439C20.2998 30.1339 20.5798 30.2239 20.9198 30.0339C21.0121 29.9783 21.1146 29.9417 21.2212 29.9262C21.3278 29.9107 21.4365 29.9166 21.5408 29.9436C21.6451 29.9706 21.7429 30.0182 21.8286 30.0835C21.9143 30.1487 21.9861 30.2305 22.0398 30.3239C22.4149 30.7451 22.7128 31.2292 22.9198 31.7539C23.0998 32.2339 23.1598 32.6639 22.6098 32.9839C22.3098 33.1639 22.3098 33.4339 22.6098 33.6139C23.0998 33.8839 23.0898 34.2839 22.9298 34.7239C22.7219 35.3437 22.3806 35.9103 21.9298 36.3839C21.8299 36.4842 21.7042 36.555 21.5666 36.5886C21.4289 36.6221 21.2848 36.617 21.1498 36.5739ZM16.4298 31.4939C16.0998 31.4339 15.8498 31.3439 15.6598 31.6839C15.4698 32.0239 15.7398 32.0939 15.8898 32.2639C16.1352 32.9122 16.1136 33.6314 15.8298 34.2639C15.6498 34.4339 15.4998 34.5339 15.6698 34.8139C15.7212 34.9117 15.8061 34.9877 15.9089 35.0281C16.0117 35.0685 16.1256 35.0706 16.2298 35.0339C16.5966 35.0027 16.9644 35.0811 17.2866 35.2592C17.6088 35.4372 17.871 35.7068 18.0398 36.0339C18.1498 36.2939 18.2598 36.4039 18.5198 36.3939C18.6293 36.4025 18.7385 36.3748 18.8307 36.3152C18.9229 36.2556 18.9929 36.1672 19.0298 36.0639C19.1938 35.7215 19.4623 35.4401 19.7967 35.2604C20.131 35.0806 20.5138 35.0118 20.8898 35.0639C21.1898 35.0639 21.2898 34.9939 21.4198 34.7839C21.5498 34.5739 21.4198 34.4539 21.2598 34.3039C21.0992 33.9803 21.0115 33.6255 21.0028 33.2644C20.9942 32.9033 21.0648 32.5447 21.2098 32.2139C21.3598 32.0639 21.6098 32.0039 21.4298 31.6939C21.3777 31.5857 21.2884 31.4999 21.1782 31.4522C21.0681 31.4044 20.9444 31.3979 20.8298 31.4339C20.4645 31.4643 20.0983 31.3855 19.7779 31.2074C19.4574 31.0294 19.197 30.7601 19.0298 30.4339C18.9198 30.1539 18.7698 30.1239 18.5298 30.1139C18.4194 30.1014 18.3081 30.1302 18.2177 30.1948C18.1272 30.2595 18.0638 30.3553 18.0398 30.4639C17.8788 30.7563 17.6471 31.0037 17.3658 31.1836C17.0846 31.3635 16.7628 31.4702 16.4298 31.4939Z" fill="#EF4C23"/>
<path d="M18.5199 35.1538C18.1415 35.1401 17.7755 35.0153 17.4674 34.7951C17.1594 34.5748 16.9229 34.2688 16.7875 33.9152C16.6521 33.5616 16.6237 33.1759 16.7059 32.8062C16.7881 32.4366 16.9772 32.0993 17.2497 31.8363C17.5222 31.5733 17.8661 31.3964 18.2384 31.3274C18.6108 31.2584 18.9952 31.3005 19.3438 31.4484C19.6924 31.5963 19.9897 31.8435 20.1989 32.1592C20.408 32.4749 20.5197 32.8452 20.5199 33.2238C20.5173 33.4825 20.4633 33.738 20.3611 33.9756C20.2588 34.2132 20.1102 34.4281 19.9241 34.6077C19.738 34.7873 19.518 34.9281 19.2769 35.0218C19.0358 35.1156 18.7785 35.1605 18.5199 35.1538ZM17.9199 33.1538C17.9129 33.2389 17.9238 33.3245 17.9519 33.4051C17.9801 33.4856 18.0248 33.5594 18.0833 33.6216C18.1417 33.6838 18.2125 33.7331 18.2912 33.7662C18.3699 33.7993 18.4546 33.8155 18.5399 33.8138C18.6194 33.818 18.6989 33.8057 18.7735 33.7778C18.848 33.7498 18.916 33.7069 18.9733 33.6515C19.0305 33.5962 19.0757 33.5296 19.1061 33.4561C19.1365 33.3825 19.1514 33.3034 19.1499 33.2238C19.1598 33.1455 19.153 33.0659 19.1299 32.9904C19.1069 32.9148 19.0681 32.845 19.0162 32.7855C18.9642 32.726 18.9003 32.6782 18.8286 32.6451C18.7568 32.6121 18.6789 32.5946 18.5999 32.5938C18.5144 32.5806 18.427 32.5863 18.3439 32.6106C18.2609 32.635 18.1842 32.6772 18.1193 32.7345C18.0544 32.7917 18.0029 32.8626 17.9685 32.942C17.934 33.0213 17.9174 33.1073 17.9199 33.1938V33.1538Z" fill="#EF4C23"/>
</svg>
