<svg width="39" height="41" viewBox="0 0 39 41" fill="none" xmlns="http://www.w3.org/2000/svg">
<path d="M19.8889 0.0500031C19.8889 0.280003 20.1589 0.330004 20.3189 0.410004C24.2389 2.69 28.1656 4.96 32.0989 7.22C32.4489 7.42 32.7389 7.65 33.2189 7.22C33.7104 6.81062 34.3167 6.56382 34.9544 6.51367C35.592 6.46352 36.2295 6.61248 36.7789 6.94C37.3388 7.23924 37.8024 7.69097 38.1162 8.24286C38.4299 8.79475 38.5808 9.42422 38.5515 10.0584C38.5222 10.6925 38.3139 11.3054 37.9506 11.826C37.5873 12.3466 37.084 12.7537 36.4989 13C36.3447 13.0463 36.2124 13.1466 36.1261 13.2825C36.0398 13.4184 36.0053 13.5808 36.0289 13.74C36.0289 18.42 36.0289 23.11 36.0289 27.79C36.0539 28.0784 35.9909 28.3676 35.848 28.6193C35.7052 28.8711 35.4893 29.0736 35.2289 29.2C31.1489 31.53 27.0889 33.89 23.0189 36.2C22.8673 36.2584 22.7415 36.3692 22.6645 36.5122C22.5874 36.6553 22.5642 36.8213 22.5989 36.98C22.6568 37.4509 22.6139 37.9287 22.4733 38.3817C22.3326 38.8348 22.0973 39.2529 21.783 39.6082C21.4687 39.9635 21.0824 40.248 20.6499 40.4429C20.2173 40.6377 19.7483 40.7385 19.2739 40.7385C18.7995 40.7385 18.3305 40.6377 17.898 40.4429C17.4654 40.248 17.0792 39.9635 16.7648 39.6082C16.4505 39.2529 16.2152 38.8348 16.0745 38.3817C15.9339 37.9287 15.8911 37.4509 15.9489 36.98C15.9854 36.8107 15.9588 36.634 15.8741 36.4829C15.7894 36.3319 15.6524 36.2171 15.4889 36.16C11.4189 33.82 7.35892 31.46 3.28892 29.16C3.04668 29.0451 2.84516 28.8592 2.71118 28.627C2.57721 28.3947 2.51712 28.1272 2.53892 27.86C2.53892 23.18 2.53892 18.5 2.53892 13.81C2.56603 13.6297 2.52742 13.4456 2.43012 13.2914C2.33283 13.1372 2.18334 13.0232 2.00892 12.97C1.43236 12.747 0.934744 12.3583 0.578814 11.8529C0.222883 11.3475 0.0245812 10.748 0.00892098 10.13C-0.0381102 9.48679 0.101526 8.84366 0.411066 8.27786C0.720606 7.71206 1.18689 7.24764 1.75392 6.94037C2.32096 6.63309 2.96463 6.49602 3.60766 6.54562C4.25069 6.59523 4.86573 6.8294 5.37892 7.22C5.62892 7.41 5.79892 7.54001 6.13892 7.35001C10.3089 4.92001 14.4989 2.52001 18.6789 0.100006C18.6789 0.100006 18.6789 0.03 18.7589 0L19.8889 0.0500031ZM4.18892 20.51C4.18892 22.75 4.18892 24.99 4.18892 27.23C4.16889 27.4159 4.20724 27.6033 4.29863 27.7664C4.39003 27.9295 4.52993 28.0601 4.69892 28.14C8.61892 30.38 12.5256 32.6333 16.4189 34.9C16.5251 34.9942 16.662 35.0462 16.8039 35.0462C16.9458 35.0462 17.0828 34.9942 17.1889 34.9C17.7744 34.4084 18.5144 34.1389 19.2789 34.1389C20.0434 34.1389 20.7835 34.4084 21.3689 34.9C21.4724 34.9956 21.6081 35.0487 21.7489 35.0487C21.8898 35.0487 22.0255 34.9956 22.1289 34.9L33.9089 28.1C34.0598 28.0309 34.1858 27.917 34.2698 27.774C34.3539 27.6309 34.392 27.4654 34.3789 27.3C34.3789 22.78 34.3789 18.2567 34.3789 13.73C34.3976 13.5799 34.3598 13.4283 34.273 13.3045C34.1861 13.1807 34.0564 13.0936 33.9089 13.06C33.2075 12.7864 32.6208 12.2811 32.2461 11.6281C31.8714 10.9751 31.7313 10.2136 31.8489 9.47C31.8912 9.32671 31.8776 9.1727 31.8108 9.03906C31.744 8.90543 31.6289 8.80213 31.4889 8.75C27.5556 6.49 23.6289 4.22333 19.7089 1.95C19.5834 1.8604 19.4331 1.81224 19.2789 1.81224C19.1247 1.81224 18.9744 1.8604 18.8489 1.95C14.9356 4.22333 11.0256 6.48 7.11892 8.72C6.96075 8.79222 6.83356 8.91853 6.76023 9.07619C6.6869 9.23385 6.67225 9.4125 6.71892 9.58C6.81563 10.2981 6.67185 11.028 6.31004 11.6557C5.94822 12.2834 5.38874 12.7737 4.71892 13.05C4.56112 13.0904 4.42466 13.1894 4.33733 13.3269C4.25 13.4644 4.21838 13.63 4.24892 13.79C4.18892 16.03 4.18892 18.27 4.18892 20.51ZM36.8789 9.93001C36.8714 9.48228 36.6915 9.05467 36.3768 8.73618C36.062 8.41768 35.6365 8.23281 35.1889 8.22C34.7325 8.23035 34.298 8.4176 33.9771 8.74225C33.6562 9.0669 33.474 9.50354 33.4689 9.96001C33.4689 10.4162 33.6501 10.8537 33.9727 11.1762C34.2953 11.4988 34.7328 11.68 35.1889 11.68C35.6451 11.68 36.0826 11.4988 36.4051 11.1762C36.7277 10.8537 36.9089 10.4162 36.9089 9.96001L36.8789 9.93001ZM1.64892 9.93001C1.64892 10.3862 1.83013 10.8237 2.1527 11.1462C2.47526 11.4688 2.91275 11.65 3.36892 11.65C3.82509 11.65 4.26258 11.4688 4.58515 11.1462C4.90771 10.8237 5.08892 10.3862 5.08892 9.93001C5.08892 9.47384 4.90771 9.03634 4.58515 8.71378C4.26258 8.39121 3.82509 8.21001 3.36892 8.21001C2.91275 8.21001 2.47526 8.39121 2.1527 8.71378C1.83013 9.03634 1.64892 9.47384 1.64892 9.93001ZM20.9789 37.47C20.9842 37.2446 20.9449 37.0204 20.8632 36.8102C20.7815 36.6001 20.6591 36.4082 20.503 36.2455C20.3468 36.0829 20.1601 35.9527 19.9534 35.8625C19.7468 35.7723 19.5244 35.7239 19.2989 35.72C19.0671 35.7159 18.8369 35.7587 18.6221 35.8458C18.4072 35.9329 18.2122 36.0626 18.0488 36.227C17.8853 36.3914 17.7568 36.5871 17.6709 36.8024C17.585 37.0178 17.5435 37.2482 17.5489 37.48C17.5489 37.705 17.5935 37.9277 17.6802 38.1352C17.7669 38.3428 17.8939 38.5311 18.0539 38.6892C18.2139 38.8473 18.4036 38.9721 18.6122 39.0564C18.8208 39.1406 19.044 39.1826 19.2689 39.18C19.4945 39.1881 19.7195 39.1506 19.9303 39.0698C20.1411 38.989 20.3334 38.8665 20.4958 38.7097C20.6583 38.5528 20.7874 38.3649 20.8756 38.1571C20.9637 37.9492 21.0091 37.7258 21.0089 37.5L20.9789 37.47Z" fill="#EF4C23"/>
<path d="M7.94886 19.15C7.94886 17.15 7.94886 15.26 7.94886 13.31C7.93028 13.087 7.97954 12.8636 8.09018 12.6691C8.20082 12.4745 8.36768 12.318 8.56885 12.22C11.9489 10.28 15.3389 8.32999 18.7089 6.35999C18.8844 6.2409 19.0917 6.17725 19.3039 6.17725C19.516 6.17725 19.7233 6.2409 19.8989 6.35999C23.2789 8.31999 26.6589 10.27 30.0389 12.21C30.2417 12.3078 30.4093 12.4661 30.5185 12.6631C30.6278 12.8601 30.6733 13.0861 30.6489 13.31C30.6489 17.1966 30.6489 21.0866 30.6489 24.98C30.6616 25.2045 30.6076 25.4279 30.4938 25.6218C30.3799 25.8158 30.2112 25.9717 30.0089 26.07L19.9289 31.88C19.7431 32.0064 19.5236 32.074 19.2989 32.074C19.0741 32.074 18.8546 32.0064 18.6689 31.88C15.3189 29.88 11.9489 28 8.58886 26.07C8.37466 25.9666 8.19742 25.7999 8.08115 25.5924C7.96488 25.3849 7.91521 25.1467 7.93885 24.91C7.95885 22.99 7.94886 21.07 7.94886 19.15ZM20.1289 29.84L20.4689 29.67C23.1689 28.11 25.8589 26.55 28.5689 25.01C28.7178 24.9401 28.8413 24.8255 28.922 24.682C29.0026 24.5386 29.0365 24.3736 29.0189 24.21C29.0189 21.14 29.0189 18.06 29.0189 14.99C29.0189 14.85 29.1089 14.67 28.8889 14.56L28.3789 14.84C25.5889 16.45 22.7889 18.06 20.0089 19.68C19.8068 19.822 19.5658 19.8982 19.3189 19.8982C19.0719 19.8982 18.8309 19.822 18.6289 19.68C16.2789 18.29 13.9089 16.93 11.5389 15.57C10.9289 15.21 10.2989 14.87 9.59886 14.48C9.59886 17.89 9.59886 21.19 9.59886 24.48C9.59886 24.78 9.80885 24.85 9.99885 24.96L15.0989 27.9L18.5089 29.9V26.9C18.4939 26.6736 18.4939 26.4464 18.5089 26.22C18.5124 26.1169 18.5371 26.0157 18.5815 25.9227C18.6259 25.8296 18.6891 25.7467 18.767 25.6791C18.8448 25.6116 18.9358 25.5608 19.0342 25.53C19.1326 25.4991 19.2363 25.4889 19.3389 25.5C19.4538 25.5019 19.5671 25.528 19.6713 25.5766C19.7755 25.6251 19.8683 25.695 19.9438 25.7818C20.0192 25.8686 20.0756 25.9702 20.1092 26.0802C20.1428 26.1901 20.1529 26.3059 20.1389 26.42C20.1889 27.53 20.1289 28.63 20.1289 29.84ZM10.4789 13C10.5589 13.1 10.5789 13.14 10.6189 13.16L18.9889 18C19.1006 18.0704 19.2322 18.1026 19.3639 18.0918C19.4955 18.0809 19.6201 18.0277 19.7189 17.94L26.7189 13.94C27.2294 13.6919 27.7121 13.3902 28.1589 13.04L19.6389 8.10999C19.548 8.0463 19.4398 8.01215 19.3289 8.01215C19.2179 8.01215 19.1097 8.0463 19.0189 8.10999L10.4789 13Z" fill="#EF4C23"/>
<path d="M19.2989 23.55C18.7889 23.47 18.4789 23.21 18.4989 22.7C18.4924 22.5924 18.5095 22.4847 18.549 22.3844C18.5885 22.2841 18.6494 22.1936 18.7275 22.1194C18.8056 22.0451 18.899 21.9887 19.0012 21.9543C19.1033 21.9199 19.2118 21.9082 19.3189 21.92C19.4269 21.9138 19.5349 21.9309 19.6356 21.9703C19.7364 22.0098 19.8274 22.0705 19.9024 22.1484C19.9774 22.2263 20.0348 22.3195 20.0704 22.4216C20.106 22.5237 20.1192 22.6323 20.1089 22.74C20.1102 22.8468 20.0902 22.9527 20.05 23.0516C20.0097 23.1505 19.9501 23.2403 19.8746 23.3158C19.7992 23.3912 19.7093 23.4509 19.6105 23.4911C19.5116 23.5313 19.4056 23.5514 19.2989 23.55Z" fill="#EF4C23"/>
</svg>
