<svg width="41" height="41" viewBox="0 0 41 41" fill="none" xmlns="http://www.w3.org/2000/svg">
<path d="M33.1016 40.8701C32.9381 40.6549 32.8534 40.3902 32.8616 40.1201C32.8616 39.4401 32.8616 38.7601 32.8616 38.1201C32.8616 37.2301 32.9116 37.18 33.8616 37.18H34.5316C34.9476 37.1972 35.3626 37.1275 35.7503 36.9755C36.1379 36.8235 36.4896 36.5925 36.7831 36.2971C37.0766 36.0018 37.3053 35.6486 37.4549 35.26C37.6044 34.8714 37.6714 34.4559 37.6516 34.0401C37.6516 32.8201 37.6516 31.6 37.6516 30.38C37.6516 29.53 37.7016 29.44 38.5216 29.49C40.0816 29.59 40.2416 29.17 39.4616 27.85C38.3147 25.8968 37.6624 23.6929 37.5616 21.43C37.4396 19.4594 36.8166 17.5526 35.7516 15.89C35.0627 16.9191 34.2537 17.8624 33.3416 18.7C32.9694 19.1272 32.6657 19.6096 32.4416 20.13C32.3316 20.34 32.2716 20.5 32.5516 20.68C32.8366 20.8581 33.0646 21.114 33.2088 21.4176C33.3529 21.7211 33.4072 22.0596 33.3651 22.3929C33.323 22.7263 33.1864 23.0407 32.9714 23.2989C32.7563 23.5571 32.4719 23.7483 32.1516 23.85C32.1028 23.8573 32.0558 23.8743 32.0136 23.9C31.9714 23.9257 31.9348 23.9596 31.9059 23.9997C31.877 24.0397 31.8564 24.0852 31.8454 24.1333C31.8344 24.1815 31.8331 24.2314 31.8416 24.28C31.8616 24.5063 31.8616 24.7338 31.8416 24.96C31.8542 25.1705 31.8228 25.3813 31.7496 25.579C31.6763 25.7767 31.5627 25.9569 31.4159 26.1084C31.2692 26.2598 31.0926 26.379 30.8973 26.4585C30.7021 26.538 30.4924 26.576 30.2816 26.57C29.0116 26.57 27.7416 26.57 26.4816 26.57C26.271 26.5859 26.0594 26.5553 25.862 26.4803C25.6645 26.4052 25.486 26.2877 25.339 26.136C25.192 25.9842 25.0802 25.802 25.0116 25.6023C24.9429 25.4025 24.919 25.1901 24.9416 24.9801C24.9954 24.704 24.9521 24.4178 24.819 24.1699C24.686 23.9221 24.4714 23.7278 24.2116 23.6201C23.9703 23.493 23.7648 23.3075 23.6138 23.0804C23.4628 22.8534 23.3711 22.5921 23.3473 22.3205C23.3234 22.0489 23.368 21.7756 23.4771 21.5257C23.5862 21.2758 23.7562 21.0572 23.9716 20.89C24.4116 20.53 24.3416 20.27 24.1316 19.89C23.8797 19.3762 23.5415 18.9094 23.1316 18.5101C21.647 17.2805 20.5611 15.6377 20.0116 13.79C18.3596 15.3652 17.2764 17.4436 16.9316 19.7C16.4427 22.5361 16.9892 25.4534 18.4716 27.92C19.445 29.5335 19.9505 31.3858 19.9316 33.27C19.9316 35.37 19.9316 37.4801 19.9316 39.5801C19.9316 39.9301 19.9316 40.33 19.4816 40.32C19.0316 40.31 19.0216 39.9 19.0216 39.56C19.0216 37.18 19.1316 34.8101 19.0216 32.43C18.9497 31.0956 18.5551 29.7985 17.8716 28.6501C16.9548 27.1728 16.3419 25.5274 16.0689 23.8103C15.7959 22.0932 15.8682 20.3389 16.2816 18.6501C16.7529 16.5393 17.8591 14.6234 19.4516 13.1601C19.5838 13.045 19.685 12.8987 19.7461 12.7345C19.8073 12.5704 19.8263 12.3935 19.8016 12.22C19.7247 10.9596 19.9276 9.69784 20.3958 8.52508C20.8639 7.35232 21.5858 6.29767 22.5095 5.43672C23.4332 4.57578 24.536 3.92988 25.7388 3.54531C26.9415 3.16074 28.2145 3.04703 29.4664 3.21234C30.7183 3.37766 31.9181 3.8179 32.9798 4.5015C34.0415 5.1851 34.9388 6.09512 35.6074 7.16634C36.276 8.23756 36.6993 9.44343 36.847 10.6975C36.9947 11.9516 36.8631 13.2228 36.4616 14.42C36.3837 14.5979 36.3537 14.7931 36.3748 14.9861C36.3958 15.1791 36.4672 15.3632 36.5816 15.52C37.7391 17.4424 38.4245 19.6117 38.5816 21.85C38.7598 24.1635 39.554 26.3871 40.8816 28.2901V29.43C40.6903 29.7407 40.4122 29.9886 40.0817 30.1432C39.7512 30.2978 39.3827 30.3523 39.0216 30.3001C38.6316 30.3001 38.5816 30.4601 38.5916 30.7901C38.5916 31.7901 38.5916 32.73 38.5916 33.7C38.6354 34.269 38.5569 34.8408 38.3614 35.377C38.1659 35.9131 37.858 36.4012 37.4583 36.8085C37.0585 37.2158 36.5763 37.5329 36.0439 37.7384C35.5115 37.9439 34.9413 38.0331 34.3716 38C33.9216 38 33.8216 38.13 33.8116 38.56C33.9155 39.3185 33.8679 40.0901 33.6716 40.8301L33.1016 40.8701ZM28.3716 20.43C29.2016 20.43 30.0416 20.43 30.8816 20.43C31.0113 20.4578 31.1467 20.4349 31.2601 20.3662C31.3735 20.2974 31.4563 20.1879 31.4916 20.06C31.9288 18.9881 32.6142 18.0353 33.4916 17.28C34.7665 16.1397 35.6134 14.5978 35.8916 12.9101C36.0919 11.7133 36.0024 10.486 35.6305 9.33096C35.2586 8.17595 34.6152 7.12694 33.7543 6.27188C32.8933 5.41682 31.8399 4.78064 30.6824 4.41667C29.5249 4.05271 28.297 3.97156 27.1016 4.18005C25.6839 4.40279 24.3586 5.02398 23.2804 5.97117C22.2022 6.91836 21.4155 8.15254 21.0119 9.5298C20.6084 10.9071 20.6047 12.3707 21.0012 13.75C21.3978 15.1292 22.1782 16.3674 23.2516 17.32C24.0825 18.0555 24.7326 18.9726 25.1516 20C25.1878 20.1293 25.267 20.2423 25.3761 20.3205C25.4851 20.3987 25.6176 20.4373 25.7516 20.43C26.6516 20.36 27.5116 20.43 28.3716 20.43ZM28.3716 21.3601H25.3716C24.7016 21.3601 24.3016 21.6901 24.3716 22.2301C24.4416 22.7701 24.8316 23.07 25.3716 23.07H31.4516C32.0916 23.07 32.4516 22.71 32.4516 22.2C32.4516 21.69 32.0816 21.3701 31.4516 21.3601H28.3716ZM28.3716 23.9801H26.2716C26.1216 23.9801 25.9016 23.9201 25.8616 24.1101C25.7613 24.5306 25.7821 24.9709 25.9216 25.38C26.0616 25.73 26.4116 25.71 26.7316 25.71H29.7316C30.8716 25.71 31.0016 25.56 30.9716 24.42C30.9716 24.06 30.8316 23.9601 30.4916 23.9701C29.7516 23.9501 29.0616 23.93 28.3616 23.93L28.3716 23.9801Z" fill="#EF4C23"/>
<path d="M40.8417 10.59C40.3517 11.06 39.7517 10.86 39.1917 10.84C38.9717 10.84 38.8917 10.6 38.9117 10.37C38.9142 10.2674 38.9561 10.1697 39.0287 10.0971C39.1013 10.0245 39.199 9.98255 39.3017 9.98002C39.8237 9.86749 40.3688 9.94181 40.8417 10.19V10.59Z" fill="#EF4C23"/>
<path d="M6.09158 23.18C5.91172 23.17 5.73144 23.17 5.55158 23.18C4.95158 23.25 4.70158 22.95 4.55158 22.39C4.38158 21.47 4.09158 21.33 3.33158 21.85C3.24102 21.9425 3.13009 22.0125 3.00763 22.0545C2.88518 22.0965 2.7546 22.1093 2.62634 22.0918C2.49808 22.0743 2.37569 22.027 2.26894 21.9538C2.1622 21.8806 2.07406 21.7834 2.01158 21.67C1.93352 21.5535 1.84659 21.4432 1.75158 21.34C0.93158 20.53 0.931581 20.53 1.46158 19.52C1.70158 19.05 1.55158 18.72 1.03158 18.58C-0.0584196 18.27 0.0315805 18.48 0.0315805 17.23C0.0465602 17.0503 0.0465602 16.8697 0.0315805 16.69C-0.10842 15.95 0.221581 15.62 0.931581 15.49C1.64158 15.36 1.81158 15 1.38158 14.42C1.27022 14.3166 1.18559 14.1878 1.13493 14.0445C1.08428 13.9012 1.06912 13.7478 1.09075 13.5974C1.11238 13.447 1.17015 13.304 1.25912 13.1808C1.34809 13.0576 1.4656 12.9578 1.60158 12.89C1.7483 12.7817 1.87951 12.6539 1.99158 12.51C2.06602 12.3743 2.17094 12.2577 2.29808 12.1695C2.42523 12.0812 2.57112 12.0237 2.72428 12.0014C2.87744 11.9791 3.03369 11.9926 3.18072 12.041C3.32774 12.0893 3.46154 12.1712 3.57158 12.28C4.15158 12.7 4.57158 12.52 4.64158 11.79C4.71158 11.06 5.05158 10.79 5.76158 10.88C5.98725 10.91 6.21591 10.91 6.44158 10.88C7.18158 10.77 7.57158 11.04 7.67158 11.82C7.77158 12.6 8.17158 12.7 8.76158 12.27C8.86498 12.1586 8.99384 12.074 9.13711 12.0234C9.28038 11.9727 9.4338 11.9576 9.58422 11.9792C9.73463 12.0008 9.87756 12.0586 10.0008 12.1475C10.124 12.2365 10.2237 12.354 10.2916 12.49C10.4006 12.6332 10.5284 12.761 10.6716 12.87C10.7995 12.9502 10.9076 13.0584 10.9877 13.1863C11.0679 13.3143 11.118 13.4587 11.1344 13.6088C11.1507 13.7589 11.1329 13.9108 11.0822 14.053C11.0315 14.1952 10.9492 14.3241 10.8416 14.43C10.4516 14.97 10.6316 15.36 11.2816 15.43C11.9316 15.5 12.3416 15.92 12.2116 16.68C12.1814 16.8789 12.1814 17.0811 12.2116 17.28C12.3416 18.04 12.0316 18.4 11.2816 18.52C10.5316 18.64 10.4416 19.01 10.8316 19.52C10.9428 19.6293 11.027 19.7632 11.0772 19.9108C11.1275 20.0584 11.1426 20.2158 11.1212 20.3703C11.0998 20.5248 11.0426 20.6722 10.9541 20.8006C10.8656 20.929 10.7483 21.035 10.6116 21.11C10.4649 21.2183 10.3336 21.3462 10.2216 21.49C10.1537 21.626 10.054 21.7435 9.93076 21.8325C9.80756 21.9214 9.66463 21.9792 9.51422 22.0008C9.3638 22.0225 9.21038 22.0073 9.06711 21.9567C8.92384 21.906 8.79498 21.8214 8.69158 21.71C8.18158 21.33 7.79158 21.47 7.63158 21.96C7.25158 23.18 7.25158 23.18 6.09158 23.18ZM2.89158 13.01C2.48158 13.01 2.03158 13.74 2.21158 14.07C2.36527 14.2677 2.46396 14.5025 2.49764 14.7506C2.53131 14.9987 2.49878 15.2514 2.40334 15.4828C2.3079 15.7143 2.15295 15.9165 1.95419 16.0688C1.75543 16.2211 1.51993 16.3181 1.27158 16.35C0.81158 16.48 0.901581 16.76 0.891581 17.07C0.881581 17.38 0.89158 17.59 1.28158 17.69C1.52282 17.7223 1.75147 17.8169 1.94499 17.9645C2.1385 18.1121 2.29019 18.3076 2.38509 18.5318C2.47999 18.7559 2.51482 19.0009 2.48615 19.2426C2.45747 19.4843 2.36629 19.7143 2.22158 19.91C1.94158 20.35 2.22158 20.49 2.41158 20.75C2.45122 20.8163 2.50485 20.873 2.56872 20.9164C2.63259 20.9597 2.70516 20.9886 2.78136 21.001C2.85755 21.0134 2.93553 21.009 3.00984 20.9881C3.08416 20.9672 3.15301 20.9303 3.21158 20.88C3.40172 20.7393 3.62505 20.6503 3.85982 20.6215C4.0946 20.5927 4.33282 20.6252 4.5513 20.7158C4.76979 20.8065 4.96109 20.9521 5.10659 21.1386C5.25209 21.3251 5.34682 21.546 5.38158 21.78C5.49158 22.29 5.78158 22.26 6.16158 22.28C6.54158 22.3 6.70158 22.15 6.77158 21.77C6.81003 21.5415 6.90537 21.3264 7.04882 21.1445C7.19228 20.9626 7.37922 20.8197 7.59242 20.7291C7.80562 20.6384 8.03821 20.6029 8.26875 20.6258C8.49929 20.6487 8.72036 20.7292 8.91158 20.86C8.97084 20.9151 9.04153 20.9564 9.1186 20.9811C9.19566 21.0057 9.27722 21.013 9.35744 21.0025C9.43767 20.992 9.51458 20.9639 9.58271 20.9203C9.65084 20.8766 9.7085 20.8185 9.75158 20.75C10.0316 20.45 10.1616 20.26 9.89158 19.85C9.77188 19.664 9.69898 19.4518 9.67912 19.2316C9.65926 19.0113 9.69302 18.7895 9.77753 18.5851C9.86204 18.3807 9.99478 18.1998 10.1644 18.0578C10.334 17.9159 10.5355 17.8171 10.7516 17.77C10.8442 17.7632 10.9344 17.7368 11.0161 17.6928C11.0979 17.6487 11.1694 17.5878 11.226 17.5142C11.2827 17.4406 11.3231 17.3558 11.3448 17.2655C11.3664 17.1752 11.3687 17.0813 11.3516 16.99C11.3516 16.49 11.1016 16.4 10.7316 16.31C10.5342 16.249 10.3527 16.145 10.2002 16.0056C10.0477 15.8662 9.92798 15.6947 9.8496 15.5035C9.77121 15.3123 9.73612 15.1062 9.74683 14.8998C9.75755 14.6935 9.81381 14.492 9.91158 14.31C10.1316 13.96 10.1816 13.74 9.85158 13.4C9.7987 13.3192 9.72821 13.2514 9.64539 13.2016C9.56257 13.1519 9.46957 13.1216 9.37337 13.1129C9.27716 13.1043 9.18024 13.1175 9.08988 13.1516C8.99951 13.1858 8.91804 13.2399 8.85158 13.31C8.6565 13.4297 8.4349 13.4993 8.20644 13.5127C7.97799 13.5261 7.74975 13.483 7.542 13.387C7.33424 13.291 7.15339 13.1453 7.01551 12.9626C6.87762 12.78 6.78696 12.5661 6.75158 12.34C6.68158 11.91 6.51158 11.79 6.09158 11.8C5.67158 11.81 5.40158 11.8 5.35158 12.33C5.35158 12.64 5.28158 12.97 4.91158 13.11C4.30158 13.34 3.69158 13.75 3.06158 13.11C3.00866 13.0707 2.95167 13.0372 2.89158 13.01Z" fill="#EF4C23"/>
<path d="M12.5515 0C13.5404 0 14.5071 0.293244 15.3294 0.842651C16.1516 1.39206 16.7925 2.17296 17.1709 3.08659C17.5493 4.00022 17.6484 5.00554 17.4554 5.97545C17.2625 6.94535 16.7863 7.83628 16.087 8.53554C15.3878 9.2348 14.4969 9.711 13.527 9.90392C12.5571 10.0968 11.5517 9.99784 10.6381 9.6194C9.72447 9.24096 8.94357 8.6001 8.39417 7.77785C7.84476 6.95561 7.55151 5.98891 7.55151 5C7.55151 3.67392 8.0783 2.40215 9.01598 1.46447C9.95366 0.526788 11.2254 0 12.5515 0ZM12.5515 0.919998C12.0186 0.919863 11.491 1.02623 10.9997 1.23286C10.5084 1.43948 10.0634 1.7422 9.69079 2.12321C9.31815 2.50423 9.02541 2.95588 8.82977 3.45161C8.63413 3.94735 8.53952 4.47719 8.55151 5.01C8.55647 6.07586 8.97731 7.09767 9.72443 7.85786C10.4715 8.61806 11.4859 9.05656 12.5515 9.08C13.6351 9.06721 14.6711 8.63312 15.4401 7.86968C16.2092 7.10625 16.6508 6.07343 16.6715 4.99C16.6689 4.45119 16.5599 3.91822 16.3506 3.42168C16.1414 2.92515 15.8362 2.47486 15.4524 2.09666C15.0686 1.71846 14.6139 1.41982 14.1144 1.21789C13.6148 1.01596 13.0803 0.914722 12.5415 0.919998H12.5515Z" fill="#EF4C23"/>
<path d="M2.41162 33.32C2.41162 32.13 2.41162 30.93 2.41162 29.73C2.41162 29.19 2.62162 29 3.13162 29.02C3.86162 29.02 4.58162 29.02 5.30162 29.02C5.75162 29.02 5.97162 29.18 5.97162 29.65C5.97162 32.12 5.97162 34.58 5.97162 37.05C5.97162 37.51 5.77162 37.71 5.32162 37.71C4.60162 37.71 3.87162 37.71 3.15162 37.71C2.64162 37.71 2.42162 37.51 2.43162 36.98C2.43162 35.77 2.41162 34.54 2.41162 33.32ZM5.01162 33.32V31.02C5.01162 29.91 5.01162 29.94 3.93162 29.91C3.44162 29.91 3.33162 30.05 3.34162 30.51C3.34162 32.21 3.34162 33.9 3.34162 35.6C3.34162 36.82 3.34162 36.8 4.53162 36.8C4.91162 36.8 5.02162 36.69 5.01162 36.31C5.00162 35.32 5.01162 34.33 5.01162 33.33V33.32Z" fill="#EF4C23"/>
<path d="M16.0317 33.36C16.0317 34.56 16.0317 35.76 16.0317 36.95C16.0317 37.51 15.8317 37.74 15.2717 37.72C14.7117 37.7 13.9217 37.72 13.2717 37.72C12.7717 37.72 12.5117 37.54 12.5117 37.02C12.5117 34.58 12.5117 32.14 12.5117 29.7C12.5117 29.2 12.7417 29.02 13.2217 29.03C13.9417 29.03 14.6717 29.03 15.3917 29.03C15.9017 29.03 16.0717 29.23 16.0617 29.72C16.0217 30.93 16.0317 32.14 16.0317 33.36ZM15.1517 33.36V30.99C15.1517 29.88 15.1517 29.91 14.0417 29.88C13.5217 29.88 13.4117 30.04 13.4117 30.53C13.4117 32.23 13.4117 33.93 13.4117 35.62C13.4117 36.79 13.4117 36.76 14.5817 36.78C15.0317 36.78 15.1617 36.66 15.1417 36.21C15.1317 35.3 15.1517 34.34 15.1517 33.43V33.36Z" fill="#EF4C23"/>
<path d="M10.9916 34.49C10.9916 35.33 10.9916 36.16 10.9916 37C10.9916 37.47 10.8316 37.72 10.3316 37.71C9.59164 37.71 8.84164 37.71 8.10164 37.71C7.60164 37.71 7.43164 37.47 7.43164 36.99C7.43164 35.33 7.43164 33.66 7.43164 31.99C7.43164 31.5 7.61164 31.27 8.10164 31.28C8.84164 31.28 9.59164 31.28 10.3316 31.28C10.8316 31.28 11.0016 31.5 10.9916 31.99C10.9716 32.82 10.9916 33.66 10.9916 34.49ZM8.38164 34.49V35.64C8.38164 36.85 8.38164 36.83 9.57164 36.84C9.97164 36.84 10.1216 36.76 10.1016 36.32C10.1016 35.32 10.1016 34.43 10.1016 33.48C10.1016 32.12 10.1016 32.13 8.76164 32.21C8.47164 32.21 8.37164 32.3 8.38164 32.59C8.39164 33.2 8.38164 33.83 8.38164 34.43V34.49Z" fill="#EF4C23"/>
<path d="M13.6117 24.59H14.2217C14.6517 24.59 14.8517 24.83 14.7317 25.25C14.6125 25.6844 14.4689 26.1118 14.3017 26.53C14.1317 26.94 13.7617 27.05 13.5317 26.68C13.3017 26.31 13.1617 26.48 12.9517 26.68C11.9517 27.46 10.8517 28.23 9.82168 29.03C9.6676 29.1756 9.46366 29.2567 9.25168 29.2567C9.03971 29.2567 8.83576 29.1756 8.68168 29.03C7.35168 28.1 5.99168 27.2 4.68168 26.3C4.39168 26.11 4.13168 25.88 4.37168 25.53C4.61168 25.18 4.92168 25.36 5.20168 25.53C6.42168 26.35 7.65168 27.15 8.84168 28C8.95044 28.1087 9.09792 28.1698 9.25168 28.1698C9.40545 28.1698 9.55292 28.1087 9.66168 28C10.5817 27.28 11.5317 26.6 12.4717 25.89C12.6717 25.74 13.0017 25.66 12.6017 25.27C12.2017 24.88 12.5017 24.64 12.9617 24.59C13.1817 24.59 13.4117 24.59 13.6417 24.59H13.6117Z" fill="#EF4C23"/>
<path d="M18.4517 21.57C18.4517 21.39 18.5217 21.05 18.5517 20.72C18.5817 20.39 18.6617 20.09 19.0417 20.13C19.4217 20.17 19.5017 20.48 19.4517 20.84C19.2933 22.2819 19.4889 23.7408 20.0217 25.09C20.3817 26.09 21.0217 26.91 21.4317 27.86C21.7975 28.6576 22.0758 29.4924 22.2617 30.35C22.3417 30.69 22.2617 30.97 21.9617 31.06C21.6617 31.15 21.4517 30.87 21.3817 30.56C21.0199 29.1486 20.4468 27.8 19.6817 26.56C18.8623 25.0251 18.4395 23.3098 18.4517 21.57Z" fill="#EF4C23"/>
<path d="M21.6817 36.24C21.6817 35.84 21.6817 35.43 21.6817 35.02C21.6748 34.9577 21.6809 34.8946 21.6997 34.8348C21.7186 34.775 21.7497 34.7198 21.7911 34.6727C21.8326 34.6256 21.8834 34.5877 21.9403 34.5614C21.9972 34.5351 22.059 34.521 22.1217 34.52C22.1851 34.5171 22.2484 34.5275 22.3074 34.5507C22.3665 34.5739 22.4199 34.6094 22.4643 34.6547C22.5087 34.7 22.543 34.7542 22.565 34.8137C22.5869 34.8733 22.596 34.9367 22.5917 35C22.5917 35.82 22.5917 36.63 22.5917 37.44C22.5944 37.5034 22.5827 37.5666 22.5575 37.6249C22.5322 37.6831 22.4941 37.7348 22.446 37.7762C22.3979 37.8176 22.341 37.8475 22.2796 37.8638C22.2183 37.88 22.154 37.8822 22.0917 37.87C22.0347 37.8664 21.979 37.8511 21.928 37.8251C21.8771 37.7992 21.832 37.7631 21.7954 37.7191C21.7589 37.6751 21.7318 37.6241 21.7157 37.5692C21.6996 37.5144 21.6948 37.4568 21.7017 37.4C21.7017 37.01 21.7017 36.63 21.7017 36.24H21.6817Z" fill="#EF4C23"/>
<path d="M37.6917 4.15002C37.4447 4.62704 37.0619 5.02024 36.5917 5.28001C36.513 5.28774 36.4337 5.27306 36.3629 5.23768C36.2921 5.20229 36.2328 5.14765 36.1917 5.08002C36.1312 5.01078 36.0979 4.92196 36.0979 4.83002C36.0979 4.73808 36.1312 4.64926 36.1917 4.58002C36.443 4.29208 36.7101 4.01833 36.9917 3.76002C37.061 3.69953 37.1498 3.6662 37.2417 3.6662C37.3337 3.6662 37.4225 3.69953 37.4917 3.76002C37.5549 3.80326 37.6062 3.86156 37.6412 3.92966C37.6761 3.99776 37.6935 4.0735 37.6917 4.15002Z" fill="#EF4C23"/>
<path d="M27.8917 0.910011V0.500008C27.8917 0.220008 28.0017 0.0100098 28.3217 0.0100098C28.6417 0.0100098 28.7817 0.230006 28.7917 0.530006C28.8017 0.830006 28.7917 1.03 28.7917 1.27C28.7917 1.51 28.7017 1.89 28.3317 1.88C27.9617 1.87 27.8817 1.56001 27.8917 1.24001V0.910011Z" fill="#EF4C23"/>
<path d="M19.4515 3.69C19.7315 3.69 20.6015 4.55 20.6015 4.84C20.6066 4.91921 20.5896 4.99826 20.5524 5.06841C20.5153 5.13855 20.4595 5.19705 20.3912 5.23743C20.3228 5.2778 20.2447 5.29848 20.1653 5.29717C20.0859 5.29586 20.0085 5.27261 19.9415 5.23C19.6194 4.9845 19.3333 4.69501 19.0915 4.37C19.0487 4.30422 19.0243 4.22818 19.0207 4.14977C19.0172 4.07135 19.0347 3.99341 19.0714 3.92404C19.1081 3.85467 19.1627 3.79639 19.2296 3.75523C19.2964 3.71408 19.3731 3.69156 19.4515 3.69Z" fill="#EF4C23"/>
<path d="M16.8616 10.9C16.7016 10.9 16.5416 10.9 16.3916 10.9C16.334 10.9045 16.2761 10.8965 16.2219 10.8765C16.1676 10.8565 16.1184 10.8249 16.0775 10.7841C16.0367 10.7432 16.0051 10.694 15.9851 10.6397C15.9651 10.5855 15.9571 10.5276 15.9616 10.47C15.9557 10.4138 15.9621 10.357 15.9803 10.3035C15.9986 10.25 16.0282 10.2011 16.0672 10.1602C16.1062 10.1193 16.1536 10.0874 16.2062 10.0666C16.2587 10.0459 16.3152 10.0368 16.3716 10.04C16.6616 10.04 16.9516 10.04 17.2516 10.04C17.5516 10.04 17.8016 10.12 17.8116 10.48C17.8216 10.84 17.5716 10.93 17.2716 10.93H16.8616V10.9Z" fill="#EF4C23"/>
<path d="M22.5817 39.43C22.5817 39.89 22.5817 40.28 22.1017 40.27C21.6217 40.26 21.6717 39.91 21.6717 39.58C21.6717 39.25 21.6717 38.85 22.1417 38.86C22.2109 38.861 22.2789 38.8776 22.3408 38.9086C22.4027 38.9396 22.4568 38.9841 22.4991 39.0389C22.5414 39.0937 22.5708 39.1573 22.5851 39.2251C22.5994 39.2928 22.5982 39.3628 22.5817 39.43Z" fill="#EF4C23"/>
<path d="M25.9616 6.78005C26.1767 6.8136 26.3964 6.79966 26.6055 6.7392C26.8145 6.67873 27.0078 6.57321 27.1716 6.43005C27.7631 6.04146 28.473 5.8745 29.1757 5.95868C29.8784 6.04286 30.5287 6.37275 31.0117 6.89005C31.1902 7.08289 31.4309 7.20678 31.6917 7.24004C32.4194 7.38331 33.0623 7.80564 33.4828 8.41672C33.9032 9.02779 34.0679 9.77912 33.9417 10.51C33.9074 10.753 33.9349 11.0006 34.0217 11.23C34.1906 11.666 34.2257 12.1425 34.1224 12.5986C34.0191 13.0546 33.782 13.4695 33.4417 13.79C33.2117 14.02 33.1817 14.16 33.4417 14.39C33.7017 14.62 33.7017 14.76 33.8417 14.93C33.8998 14.9855 33.9446 15.0534 33.9726 15.1286C34.0006 15.2039 34.0112 15.2846 34.0035 15.3645C33.9958 15.4444 33.97 15.5216 33.9281 15.5901C33.8862 15.6586 33.8293 15.7168 33.7617 15.76L32.5317 16.82C32.1717 17.14 31.8517 17.15 31.6017 16.69C31.5015 16.4974 31.3598 16.3293 31.1869 16.1979C31.014 16.0665 30.8141 15.975 30.6017 15.93C30.0817 15.8 29.8616 15.1301 29.4716 15.0901C29.0816 15.0501 28.5816 15.4601 28.0616 15.4801C27.6985 15.502 27.3346 15.4514 26.9912 15.3312C26.6479 15.211 26.3319 15.0237 26.0616 14.78C25.9728 14.6856 25.8577 14.6199 25.7311 14.5914C25.6046 14.5628 25.4725 14.5728 25.3517 14.62C24.9043 14.7625 24.4297 14.7979 23.9661 14.7235C23.5025 14.6491 23.0629 14.467 22.6825 14.1917C22.3022 13.9164 21.9918 13.5557 21.7763 13.1386C21.5607 12.7214 21.4461 12.2595 21.4417 11.79C21.4608 11.3822 21.5736 10.9843 21.7713 10.6271C21.969 10.2698 22.2463 9.9629 22.5816 9.73005C22.7416 9.61005 22.9716 9.57005 23.0016 9.26005C23.1616 7.56005 24.1016 6.77005 25.9616 6.78005ZM33.2216 11.88C32.9168 12.0679 32.5763 12.1905 32.2216 12.24C31.9316 12.24 31.6517 12.24 31.5917 11.9C31.5317 11.56 31.7317 11.4 32.0417 11.36C32.256 11.3343 32.4579 11.2454 32.6217 11.1048C32.7854 10.9641 32.9038 10.778 32.9616 10.57C33.0509 10.302 33.0775 10.0171 33.0396 9.73723C33.0016 9.45732 32.9001 9.18982 32.7427 8.95523C32.5853 8.72065 32.3764 8.52521 32.1318 8.3839C31.8872 8.2426 31.6135 8.15918 31.3316 8.14005C31.1767 8.15912 31.0195 8.13889 30.8744 8.08122C30.7294 8.02354 30.6012 7.93029 30.5016 7.81004C30.3551 7.57012 30.1597 7.36378 29.928 7.20448C29.6964 7.04519 29.4337 6.93651 29.1573 6.88556C28.8808 6.83461 28.5967 6.84251 28.3235 6.90876C28.0503 6.97501 27.7941 7.09811 27.5716 7.27004C28.2416 8.03004 28.4716 8.48005 28.4616 8.96005C28.4616 9.24005 28.3816 9.46005 28.0816 9.50005C27.7816 9.54005 27.6316 9.33005 27.5516 9.08005C27.4608 8.77836 27.2999 8.50241 27.0822 8.27468C26.8645 8.04695 26.596 7.87388 26.2987 7.76958C26.0014 7.66528 25.6836 7.6327 25.3714 7.67448C25.0591 7.71627 24.7611 7.83125 24.5016 8.01005C24.2528 8.13899 24.0603 8.35506 23.9606 8.61699C23.861 8.87892 23.8614 9.16836 23.9616 9.43005C23.9968 9.50695 24.0153 9.59042 24.0159 9.67497C24.0166 9.75953 23.9993 9.84327 23.9654 9.92069C23.9314 9.99812 23.8814 10.0675 23.8187 10.1242C23.756 10.181 23.6821 10.2239 23.6017 10.25C23.1636 10.3952 22.7966 10.7004 22.5741 11.1047C22.3516 11.5089 22.29 11.9823 22.4016 12.43C22.5703 12.8764 22.8808 13.2551 23.2855 13.508C23.6901 13.7608 24.1665 13.874 24.6416 13.83C25.0416 13.83 25.3416 13.73 25.2116 13.19C25.1404 12.8568 25.1646 12.5101 25.2817 12.19C25.4017 11.87 25.4917 11.46 25.9417 11.58C26.3917 11.7 26.2817 12.05 26.1817 12.41C26.1131 12.62 26.0882 12.8418 26.1085 13.0617C26.1288 13.2817 26.1939 13.4951 26.2997 13.689C26.4056 13.8829 26.5499 14.0531 26.7239 14.1891C26.898 14.3251 27.098 14.4241 27.3116 14.4801C27.6934 14.5957 28.1021 14.5863 28.4781 14.4532C28.8542 14.3201 29.1778 14.0702 29.4016 13.74C29.5516 13.55 29.6917 13.38 29.9517 13.45C30.2117 13.52 30.3317 13.66 30.2917 13.89C30.1517 14.7 30.6217 15.0301 31.2917 15.2301C31.5126 15.2865 31.7113 15.4085 31.8617 15.58C32.1717 15.99 32.3517 15.69 32.6017 15.51C32.8517 15.33 32.7717 15.07 32.6017 14.85C32.4317 14.63 32.3917 14.56 32.2717 14.42C31.9117 13.98 31.8916 13.64 32.4716 13.35C32.7428 13.2238 32.9639 13.0106 33.0998 12.7442C33.2357 12.4778 33.2786 12.1736 33.2216 11.88Z" fill="#EF4C23"/>
<path d="M6.06162 19.7C5.35424 19.6869 4.68026 19.3967 4.18467 18.8917C3.68909 18.3868 3.4115 17.7075 3.41162 17C3.43514 16.3015 3.73261 15.6403 4.23973 15.1594C4.74684 14.6785 5.42286 14.4165 6.12162 14.43C6.81752 14.4352 7.48344 14.714 7.97553 15.2061C8.46762 15.6982 8.74639 16.3641 8.75162 17.06C8.73852 17.7647 8.44934 18.4362 7.94628 18.9299C7.44322 19.4236 6.76647 19.7001 6.06162 19.7ZM6.06162 18.77C6.29265 18.7713 6.52164 18.7267 6.73522 18.6386C6.9488 18.5505 7.1427 18.4207 7.3056 18.2569C7.4685 18.0931 7.59715 17.8984 7.68403 17.6843C7.77091 17.4703 7.81428 17.241 7.81162 17.01C7.79914 16.5568 7.61422 16.1255 7.29459 15.804C6.97496 15.4825 6.54471 15.2951 6.09162 15.28C5.62922 15.28 5.18561 15.463 4.85771 15.789C4.5298 16.1151 4.34426 16.5576 4.34162 17.02C4.33894 17.2506 4.38237 17.4793 4.46937 17.6929C4.55637 17.9064 4.68517 18.1004 4.84821 18.2634C5.01125 18.4265 5.20524 18.5553 5.41877 18.6423C5.6323 18.7292 5.86106 18.7727 6.09162 18.77H6.06162Z" fill="#EF4C23"/>
<path d="M12.5517 7.98003C12.3417 7.98003 12.1517 7.98003 12.1917 7.72003C12.2717 7.25003 11.9517 7.25003 11.6417 7.15003C11.3317 7.05003 10.9617 7.02002 11.1917 6.52002C11.3017 6.29002 11.3617 6.13003 11.6617 6.30003C11.9346 6.46469 12.2578 6.52508 12.5717 6.47003C12.8017 6.47003 13.0117 6.34003 13.0517 6.07003C13.0769 5.9549 13.0606 5.83457 13.0057 5.73028C12.9508 5.62599 12.8609 5.54445 12.7517 5.50003C12.4417 5.33003 12.1017 5.20003 11.7517 5.01003C11.5506 4.91407 11.3807 4.76312 11.2618 4.57464C11.1429 4.38617 11.0798 4.16788 11.0798 3.94503C11.0798 3.72218 11.1429 3.50389 11.2618 3.31541C11.3807 3.12694 11.5506 2.97598 11.7517 2.88003C12.0217 2.72003 12.1717 2.59002 12.1317 2.27002C12.0917 1.95002 12.3017 2.00003 12.4817 2.01003C12.6617 2.02003 12.9017 2.01003 12.8717 2.24003C12.8417 2.47003 13.0617 2.72003 13.3717 2.79003C13.6817 2.86003 13.8317 2.95003 13.7017 3.31003C13.5717 3.67003 13.4317 3.73003 13.1117 3.55003C12.9517 3.47557 12.7781 3.43472 12.6017 3.43003C12.4874 3.41721 12.3723 3.44678 12.2783 3.51313C12.1843 3.57948 12.1179 3.678 12.0917 3.79003C12.0736 3.89157 12.0916 3.99627 12.1428 4.08584C12.194 4.1754 12.275 4.24413 12.3717 4.28003C12.5917 4.40003 12.8217 4.50003 13.0417 4.60003C13.2991 4.68854 13.525 4.85013 13.6919 5.06502C13.8589 5.27992 13.9596 5.5388 13.9817 5.81003C14.0097 6.0832 13.9477 6.35803 13.805 6.5927C13.6624 6.82737 13.4471 7.00903 13.1917 7.11003C13.0856 7.14254 12.9962 7.21481 12.9422 7.31172C12.8881 7.40863 12.8736 7.52268 12.9017 7.63003C12.9317 7.90003 12.8017 8.02003 12.5517 7.98003Z" fill="#EF4C23"/>
<path d="M25.2216 9.17C25.6837 9.18722 26.1255 9.36402 26.4719 9.67032C26.8184 9.97662 27.0479 10.3935 27.1216 10.85C27.1485 10.9759 27.1247 11.1073 27.0555 11.2159C26.9863 11.3244 26.8771 11.4013 26.7516 11.43C26.6987 11.4518 26.6417 11.4616 26.5845 11.4589C26.5274 11.4562 26.4716 11.4409 26.421 11.4142C26.3704 11.3875 26.3263 11.35 26.2919 11.3043C26.2574 11.2586 26.2334 11.206 26.2216 11.15C26.1702 10.8783 26.0288 10.6319 25.8201 10.4504C25.6115 10.269 25.3478 10.1632 25.0716 10.15C24.8016 10.15 24.7216 9.89 24.7616 9.64C24.7468 9.57616 24.7482 9.50961 24.7659 9.44649C24.7836 9.38338 24.8169 9.32573 24.8627 9.27889C24.9086 9.23205 24.9655 9.19752 25.0282 9.17849C25.0909 9.15945 25.1575 9.15653 25.2216 9.17Z" fill="#EF4C23"/>
<path d="M28.9817 10.31C29.4062 10.3255 29.8103 10.4958 30.1179 10.7887C30.4255 11.0815 30.6154 11.4768 30.6517 11.9C30.6694 12.0242 30.6389 12.1504 30.5663 12.2527C30.4938 12.3551 30.3847 12.4257 30.2617 12.45C30.2005 12.465 30.1367 12.4661 30.0751 12.4531C30.0134 12.4401 29.9555 12.4134 29.9055 12.375C29.8556 12.3366 29.815 12.2874 29.7866 12.2312C29.7582 12.1749 29.7429 12.113 29.7417 12.05C29.7345 11.8223 29.6422 11.6056 29.483 11.4426C29.3237 11.2797 29.1092 11.1824 28.8817 11.17C28.8194 11.1715 28.7575 11.1588 28.7008 11.1329C28.6442 11.1069 28.5942 11.0683 28.5546 11.0201C28.5151 10.9719 28.4871 10.9153 28.4727 10.8546C28.4583 10.794 28.458 10.7308 28.4717 10.67C28.4753 10.6102 28.4924 10.552 28.5216 10.4996C28.5508 10.4473 28.5913 10.4021 28.6403 10.3676C28.6892 10.333 28.7453 10.3099 28.8044 10.2999C28.8635 10.29 28.9241 10.2934 28.9817 10.31Z" fill="#EF4C23"/>
</svg>
