<svg width="41" height="26" viewBox="0 0 41 26" fill="none" xmlns="http://www.w3.org/2000/svg">
<path d="M0 17.2534C0.24 17.1534 0.190005 16.9134 0.240005 16.7334C0.702312 15.1073 1.75545 13.7125 3.19289 12.8227C4.63032 11.9329 6.34834 11.6121 8.01001 11.9234C8.39001 11.9834 8.47001 11.8634 8.54001 11.5434C8.69139 10.7524 9.0191 10.0056 9.49878 9.35862C9.97846 8.71163 10.5978 8.18106 11.3107 7.80634C12.0236 7.43162 12.8118 7.22239 13.6168 7.19418C14.4217 7.16597 15.2226 7.31952 15.96 7.64342C16.41 7.81342 16.43 7.64342 16.53 7.32342C17.0455 5.45697 18.0954 3.78194 19.5505 2.50447C21.0056 1.22701 22.8025 0.402846 24.72 0.133419C26.1568 -0.101517 27.6273 -0.0255328 29.0322 0.356239C30.4372 0.738012 31.7439 1.41669 32.8642 2.34649C33.9845 3.27628 34.8923 4.43556 35.5264 5.74609C36.1605 7.05663 36.5062 8.48793 36.54 9.94342C36.5824 10.441 36.5588 10.942 36.47 11.4334C36.3 12.0534 36.55 12.2634 37.07 12.5134C38.1414 13.0351 39.0566 13.8296 39.7237 14.8171C40.3908 15.8045 40.7863 16.9502 40.8704 18.1389C40.9545 19.3276 40.7243 20.5175 40.2029 21.589C39.6815 22.6606 38.8873 23.576 37.9 24.2434C36.8197 25.0038 35.5311 25.4124 34.21 25.4134C29.21 25.4134 24.21 25.4134 19.21 25.4134C18.64 25.4134 18.21 25.2834 18.21 24.6234C18.21 23.9634 18.54 23.7834 19.27 23.7834H33.8C35.0876 23.854 36.3552 23.4417 37.3549 22.6273C38.3547 21.8129 39.0148 20.6548 39.2061 19.3796C39.3974 18.1043 39.1061 16.8036 38.3893 15.7317C37.6725 14.6598 36.5816 13.8938 35.33 13.5834C34.65 13.3734 34.51 13.0634 34.7 12.2034C34.9966 11.0272 35.033 9.80051 34.8067 8.6088C34.5805 7.41709 34.097 6.28908 33.39 5.30342C32.4016 3.88436 31.0078 2.79669 29.3911 2.1827C27.7744 1.56871 26.01 1.457 24.3288 1.86218C22.6475 2.26737 21.1277 3.17057 19.9682 4.45364C18.8087 5.7367 18.0635 7.33988 17.83 9.05342C17.68 10.1034 17.12 10.3234 16.25 9.67342C15.6821 9.22278 14.9971 8.94401 14.2759 8.87001C13.5547 8.796 12.8274 8.92985 12.1798 9.25575C11.5322 9.58166 10.9913 10.086 10.621 10.7093C10.2507 11.3326 10.0665 12.0488 10.09 12.7734C10.09 13.8834 9.70001 14.1434 8.68001 13.7734C7.7361 13.413 6.70727 13.3371 5.72067 13.555C4.73408 13.7729 3.83296 14.2752 3.12869 14.9996C2.42443 15.7241 1.94788 16.6391 1.75795 17.6315C1.56802 18.6238 1.67302 19.6501 2.06 20.5834C2.41808 21.5226 3.05411 22.3301 3.88318 22.8983C4.71225 23.4665 5.69492 23.7683 6.7 23.7634C8.57 23.8234 10.45 23.7634 12.33 23.7634C13.03 23.7634 13.43 24.0734 13.43 24.5934C13.43 25.1134 13.05 25.3934 12.33 25.3934H6.90001C5.43049 25.4185 3.99271 24.9648 2.80385 24.1006C1.61499 23.2365 0.73963 22.009 0.309998 20.6034C0.229998 20.3834 0.309999 20.1034 0.0299988 19.9534L0 17.2534Z" fill="#EF4C23"/>
<path d="M33.38 10.1234C33.33 10.5634 33.18 11.0034 32.56 11.0134C31.94 11.0234 31.77 10.6834 31.74 10.1534C31.724 9.23853 31.4796 8.34216 31.029 7.54578C30.5784 6.7494 29.936 6.07827 29.16 5.5934C28.69 5.2934 28.5 4.8934 28.8 4.4034C29.1 3.9134 29.58 3.9234 30.04 4.2134C31.0441 4.84325 31.8753 5.71349 32.4585 6.74539C33.0416 7.7773 33.3584 8.93831 33.38 10.1234Z" fill="#EF4C23"/>
<path d="M27.16 4.10338C27.1284 4.30597 27.022 4.48936 26.8618 4.61737C26.7016 4.74538 26.4992 4.80872 26.2946 4.79492C26.0901 4.78111 25.8981 4.69115 25.7565 4.54278C25.615 4.39441 25.5342 4.19839 25.53 3.99338C25.5313 3.88134 25.555 3.77069 25.5996 3.66793C25.6443 3.56518 25.7091 3.4724 25.7901 3.39506C25.8712 3.31772 25.9669 3.25738 26.0717 3.21759C26.1764 3.1778 26.2881 3.15937 26.4 3.16338C26.6249 3.18857 26.8308 3.30137 26.973 3.47733C27.1153 3.65329 27.1825 3.87822 27.16 4.10338Z" fill="#EF4C23"/>
<path d="M16.59 24.5834C16.59 25.0834 16.32 25.3934 15.8 25.4034C15.6927 25.4184 15.5833 25.4094 15.4798 25.3769C15.3764 25.3445 15.2815 25.2894 15.202 25.2156C15.1225 25.1419 15.0605 25.0514 15.0203 24.9507C14.9802 24.8499 14.963 24.7416 14.97 24.6334C14.9566 24.5255 14.9671 24.4159 15.0008 24.3125C15.0345 24.2091 15.0906 24.1144 15.1651 24.0352C15.2396 23.9559 15.3306 23.8941 15.4317 23.854C15.5328 23.814 15.6415 23.7967 15.75 23.8034C15.8577 23.7935 15.9663 23.8065 16.0686 23.8414C16.171 23.8763 16.2648 23.9323 16.3441 24.0059C16.4233 24.0795 16.4862 24.169 16.5286 24.2684C16.5709 24.3679 16.5919 24.4752 16.59 24.5834Z" fill="#EF4C23"/>
</svg>
