<svg width="39" height="39" viewBox="0 0 39 39" fill="none" xmlns="http://www.w3.org/2000/svg">
<path d="M38.4333 17.4454C38.4333 20.7054 38.4333 23.9654 38.4333 27.2154C38.4667 27.6938 38.3979 28.1738 38.2315 28.6236C38.0651 29.0733 37.8048 29.4825 37.4681 29.824C37.1314 30.1654 36.7259 30.4313 36.2785 30.604C35.8311 30.7766 35.3521 30.8521 34.8733 30.8254C32.2233 30.7254 29.5833 30.8254 26.9333 30.8254C26.4233 30.8254 26.3333 30.9454 26.4233 31.4254C26.5748 32.2726 26.6816 33.1271 26.7433 33.9854C26.7433 34.4854 26.9333 34.6654 27.4733 34.6554C27.857 34.6205 28.2418 34.7081 28.5724 34.9058C28.9031 35.1035 29.1625 35.4009 29.3133 35.7554C29.4654 36.0821 29.5171 36.4465 29.4619 36.8025C29.4068 37.1585 29.2471 37.4902 29.0033 37.7554C28.8166 37.9839 28.5794 38.166 28.3105 38.2875C28.0416 38.4089 27.7482 38.4664 27.4533 38.4554C23.6733 38.4554 19.8933 38.4554 16.1133 38.4554C15.8465 38.4715 15.5793 38.4307 15.3294 38.3359C15.0794 38.2411 14.8525 38.0943 14.6635 37.9053C14.4745 37.7163 14.3277 37.4893 14.2328 37.2394C14.138 36.9895 14.0973 36.7223 14.1133 36.4554C14.1072 36.1948 14.1554 35.9357 14.2549 35.6947C14.3543 35.4536 14.5027 35.2359 14.6908 35.0554C14.8789 34.8748 15.1025 34.7353 15.3474 34.6458C15.5923 34.5563 15.8531 34.5187 16.1133 34.5354C16.6233 34.5354 16.7733 34.3654 16.8133 33.9054C16.9033 33.0754 16.9833 32.2454 17.1233 31.4254C17.2133 30.8754 17.1233 30.6854 16.4933 30.6954C13.8233 30.6954 11.1533 30.6954 8.4933 30.6954C7.81082 30.7367 7.13384 30.5512 6.56775 30.1678C6.00165 29.7843 5.57821 29.2245 5.36331 28.5754C5.32562 28.4383 5.23806 28.3203 5.1178 28.2444C4.99754 28.1686 4.85326 28.1404 4.7133 28.1654C4.0633 28.1654 3.4033 28.1654 2.7133 28.1654C2.35052 28.1784 1.98901 28.1158 1.6517 27.9816C1.31439 27.8474 1.00866 27.6447 0.75386 27.3861C0.499061 27.1275 0.300772 26.8189 0.171569 26.4796C0.0423665 26.1404 -0.0149318 25.778 0.0033104 25.4154V23.8554C0.0033104 23.3054 0.253312 23.0154 0.833312 23.0254C1.41331 23.0354 2.1633 23.2154 2.4633 22.9254C2.7633 22.6354 2.5733 21.8154 2.5733 21.2254C2.5733 15.1254 2.5733 9.01876 2.5733 2.90543C2.53218 2.51495 2.57902 2.12022 2.71037 1.7502C2.84172 1.38018 3.05425 1.04427 3.33237 0.767108C3.61048 0.489949 3.94712 0.278571 4.3176 0.148501C4.68807 0.018431 5.08297 -0.0270389 5.47331 0.0154293H22.7133C23.1042 -0.0254014 23.4992 0.0215485 23.8696 0.15285C24.24 0.284151 24.5765 0.496498 24.8544 0.774386C25.1322 1.05227 25.3446 1.3887 25.4759 1.75911C25.6072 2.12952 25.6541 2.52457 25.6133 2.91544C25.6133 3.85544 25.6133 3.85544 26.5233 3.85544C29.2833 3.85544 32.0433 3.85544 34.8033 3.85544C35.2852 3.80574 35.7722 3.86376 36.229 4.0253C36.6858 4.18684 37.101 4.44786 37.4445 4.78949C37.7881 5.13113 38.0514 5.54485 38.2155 6.00072C38.3796 6.45659 38.4403 6.94322 38.3933 7.42543L38.4333 17.4454ZM20.8133 1.44544H5.64331C4.32331 1.44544 3.95331 1.81544 3.95331 3.13544C3.95331 9.53544 3.95331 15.9354 3.95331 22.3354C3.95331 22.9754 4.09331 23.1554 4.75331 23.1454C8.84331 23.1454 12.9433 23.1454 17.0333 23.1454C17.8633 23.1454 17.9833 23.2654 17.9833 24.0854C17.9833 24.5754 17.9833 25.0854 17.9833 25.5754C17.9739 25.7513 17.9998 25.9272 18.0594 26.0929C18.119 26.2585 18.2111 26.4106 18.3304 26.5401C18.4497 26.6697 18.5937 26.774 18.7539 26.8471C18.9141 26.9201 19.0873 26.9604 19.2633 26.9654C19.4381 26.9552 19.6091 26.9106 19.7666 26.8342C19.9241 26.7578 20.0649 26.651 20.1811 26.52C20.2972 26.389 20.3863 26.2364 20.4433 26.0708C20.5004 25.9053 20.5241 25.7302 20.5133 25.5554V3.36544C20.4523 2.71371 20.5554 2.05706 20.8133 1.45543V1.44544ZM37.0933 15.5254C37.0933 12.7854 37.0933 10.0454 37.0933 7.31543C37.1117 7.04526 37.0731 6.77424 36.98 6.51998C36.8868 6.26571 36.7412 6.0339 36.5525 5.8396C36.3639 5.64531 36.1365 5.49289 35.8851 5.39225C35.6337 5.2916 35.3639 5.24498 35.0933 5.25543C32.0933 5.25543 29.0933 5.25543 26.0933 5.25543C25.6833 5.25543 25.6133 5.39543 25.6233 5.75543C25.6233 6.54544 25.6233 7.34544 25.6233 8.13544C25.6233 8.92544 25.4433 9.13544 24.6733 9.13544C23.9033 9.13544 23.1833 9.13544 22.4333 9.13544C21.9233 9.13544 21.7433 9.23543 21.7533 9.79543C21.7533 14.4621 21.7533 19.1288 21.7533 23.7954C21.7533 24.3254 21.9033 24.4154 22.3933 24.4154C27.06 24.4154 31.7433 24.4154 36.4433 24.4154C37.0133 24.4154 37.0833 24.2154 37.0733 23.7254C37.0833 21.0054 37.0933 18.2654 37.0933 15.5354V15.5254ZM6.6833 28.3654C6.84837 28.7469 7.13221 29.065 7.49257 29.2722C7.85293 29.4794 8.27055 29.5647 8.6833 29.5154H35.0133H35.3533C35.8531 29.4845 36.3202 29.2566 36.6521 28.8816C36.9839 28.5066 37.1534 28.0153 37.1233 27.5154C37.1233 27.1154 37.1233 26.6954 37.1233 26.2954C37.1233 25.8954 36.9633 25.6854 36.4833 25.6854C31.8233 25.6854 27.1633 25.6854 22.4833 25.6854H22.0833C21.8933 25.6854 21.8233 25.7654 21.7733 25.9554C21.2733 27.6854 20.5433 28.2354 18.7733 28.2454H7.4333C7.17587 28.2097 6.91371 28.2552 6.6833 28.3754V28.3654ZM17.0133 26.9554C16.6931 26.3734 16.5702 25.7032 16.6633 25.0454C16.7233 24.4654 16.4733 24.3954 15.9733 24.4054H4.97331C3.91331 24.4054 2.85331 24.4054 1.78331 24.4054C1.47331 24.4054 1.33331 24.4854 1.36331 24.8154C1.39331 25.1454 1.36331 25.3154 1.36331 25.5654C1.34621 25.7531 1.37075 25.9423 1.43521 26.1194C1.49967 26.2965 1.60244 26.4571 1.73617 26.5899C1.86991 26.7227 2.03132 26.8243 2.20888 26.8875C2.38643 26.9507 2.57575 26.9739 2.7633 26.9554H17.0133ZM25.5033 34.5954C25.3733 33.4754 25.2633 32.4254 25.1233 31.3754C25.1233 31.0854 25.1233 30.7754 24.6033 30.7754C22.7333 30.7754 20.8533 30.7754 18.9733 30.7754C18.6133 30.7754 18.5233 30.9054 18.4833 31.2354C18.3833 32.2354 18.2533 33.1654 18.1133 34.1254C18.1133 34.4754 18.1133 34.5954 18.5133 34.5954C19.9633 34.5954 21.4133 34.5954 22.8533 34.5954H25.5033ZM24.3333 5.11544V3.01543C24.3333 2.01543 23.8433 1.43544 23.0533 1.44544C22.2633 1.45544 21.8033 2.03543 21.7933 2.98543C21.7833 3.93543 21.7933 4.87544 21.7933 5.82544C21.7933 6.47544 21.4933 7.35543 21.9233 7.70543C22.3533 8.05543 23.1733 7.77544 23.8233 7.82544C24.2733 7.82544 24.3433 7.67543 24.3333 7.28543C24.3133 6.57543 24.3333 5.84543 24.3333 5.12543V5.11544Z" fill="#EF4C23"/>
<path d="M9.07338 10.4054C8.68338 10.4054 8.27339 10.5154 8.33339 9.90544C8.33339 9.66544 8.09338 9.76545 7.96338 9.72545C7.5196 9.61309 7.12779 9.35188 6.85338 8.98544C6.62338 8.64544 6.23338 8.13544 6.57338 7.90544C6.67484 7.82425 6.79301 7.76655 6.91942 7.73646C7.04583 7.70637 7.17734 7.70464 7.30449 7.73141C7.43165 7.75818 7.5513 7.81278 7.65485 7.89128C7.7584 7.96978 7.84327 8.07024 7.90339 8.18544C7.96001 8.27094 8.04022 8.33819 8.1343 8.37901C8.22837 8.41984 8.33226 8.4325 8.43339 8.41545H9.58339C9.98339 8.41545 10.2434 8.25545 10.2534 7.82545C10.2634 7.39545 9.98339 7.22545 9.61339 7.19545C9.24339 7.16545 8.84339 7.19545 8.45339 7.19545C7.96554 7.21629 7.48793 7.05145 7.1168 6.73413C6.74566 6.41681 6.5086 5.9706 6.45339 5.48544C6.41663 5.01897 6.54459 4.55437 6.81501 4.1725C7.08542 3.79063 7.48117 3.51566 7.93339 3.39545C8.07339 3.39545 8.31338 3.39544 8.32338 3.23544C8.32338 2.23544 9.10339 2.88545 9.48339 2.71545C9.54541 2.72273 9.60422 2.74694 9.65339 2.78544C9.52339 3.51544 10.1734 3.34544 10.5034 3.53544C10.8159 3.67627 11.0802 3.90577 11.2634 4.19545C11.4534 4.51545 11.7234 4.85545 11.5034 5.19545C11.3834 5.41545 10.4034 5.19545 10.1734 4.89545C9.82323 4.72987 9.44071 4.644 9.05338 4.644C8.66605 4.644 8.28354 4.72987 7.93339 4.89545C7.86227 4.96986 7.81263 5.06215 7.78974 5.1625C7.76685 5.26286 7.77156 5.36756 7.80338 5.46545C7.84574 5.59646 7.92862 5.71061 8.04004 5.79149C8.15147 5.87236 8.28571 5.91577 8.42339 5.91545C8.83339 5.91545 9.24339 5.91545 9.64339 5.91545C10.1116 5.89919 10.569 6.05832 10.926 6.36168C11.283 6.66504 11.5139 7.09076 11.5734 7.55545C11.6344 8.04076 11.5155 8.53161 11.2391 8.93516C10.9627 9.33872 10.548 9.62699 10.0734 9.74545C9.93338 9.74545 9.65339 9.66545 9.68339 9.96545C9.75339 10.5355 9.34338 10.3854 9.07338 10.4054Z" fill="#EF4C23"/>
<path d="M10.8835 14.2154C9.57346 14.2154 8.26346 14.2154 6.95346 14.2154C6.47346 14.2154 6.37346 14.0354 6.42346 13.6254C6.47346 13.2154 6.25346 12.8554 6.93346 12.8654C9.59346 12.8654 12.2635 12.8654 14.9335 12.8654C15.6335 12.8654 15.3735 13.3054 15.4235 13.6354C15.4735 13.9654 15.4235 14.2254 14.8935 14.2154C13.5135 14.1954 12.2235 14.2154 10.8835 14.2154Z" fill="#EF4C23"/>
<path d="M10.9533 18.0255C12.2633 18.0255 13.5733 18.0255 14.8833 18.0255C15.4633 18.0255 15.4432 18.2954 15.4132 18.6854C15.3832 19.0754 15.5433 19.3955 14.9233 19.3855C12.2533 19.3855 9.59326 19.3855 6.92326 19.3855C6.25326 19.3855 6.46326 18.9554 6.42326 18.6154C6.38326 18.2754 6.48325 18.0154 6.96325 18.0354C8.29325 18.0454 9.62326 18.0255 10.9533 18.0255Z" fill="#EF4C23"/>
<path d="M10.9634 16.7554C9.6534 16.7554 8.34341 16.7554 7.03341 16.7554C6.48341 16.7554 6.3934 16.5654 6.4134 16.0954C6.4334 15.6254 6.4134 15.3854 6.9934 15.3954C9.6134 15.4354 12.2334 15.4354 14.8534 15.3954C15.4634 15.3954 15.4034 15.6954 15.4234 16.0954C15.4434 16.4954 15.4234 16.7854 14.8234 16.7554C13.5134 16.7554 12.2434 16.7554 10.9634 16.7554Z" fill="#EF4C23"/>
<path d="M15.4433 9.75546C14.6933 9.75546 13.9533 9.75546 13.2033 9.75546C12.6933 9.75546 12.8033 9.41547 12.8333 9.16547C12.8633 8.91547 12.5933 8.41547 13.2033 8.41547H17.6033C18.2233 8.41547 17.9233 8.88546 17.9533 9.15546C17.9833 9.42546 18.1333 9.77546 17.6033 9.75546C16.8833 9.75546 16.1633 9.75546 15.4433 9.75546Z" fill="#EF4C23"/>
<path d="M16.6434 7.17546H16.1634C15.3934 7.17546 15.1634 6.90546 15.3734 6.17546C15.4334 5.91546 15.6134 5.95546 15.7734 5.95546C16.3834 5.95546 16.9834 5.95546 17.5934 5.95546C18.2034 5.95546 17.9134 6.41546 17.9534 6.67546C17.9934 6.93546 18.0934 7.29547 17.5834 7.24547C17.2734 7.15547 16.9534 7.17546 16.6434 7.17546Z" fill="#EF4C23"/>
<path d="M17.9534 13.5755C18.0934 14.1255 17.8534 14.2555 17.3334 14.2355C16.8134 14.2155 16.6034 14.1755 16.6234 13.5955C16.6434 13.0155 16.7734 12.8755 17.3334 12.8655C17.8934 12.8555 18.0734 13.0555 17.9534 13.5755Z" fill="#EF4C23"/>
<path d="M17.9533 16.0955C18.1033 16.6655 17.8733 16.8155 17.3033 16.8055C16.7333 16.7955 16.6233 16.6855 16.6233 16.1355C16.6233 15.5855 16.7633 15.4155 17.3333 15.4255C17.9033 15.4355 18.0933 15.5355 17.9533 16.0955Z" fill="#EF4C23"/>
<path d="M17.9633 18.7554C18.1233 19.3754 17.6933 19.2954 17.2633 19.3354C16.6433 19.4054 16.6733 19.0654 16.6233 18.6154C16.5633 17.9354 16.9533 18.0254 17.4033 17.9754C18.1033 17.9154 17.9733 18.3554 17.9633 18.7554Z" fill="#EF4C23"/>
<path d="M14.1334 6.53541C14.2734 7.09541 14.0234 7.20541 13.5034 7.19541C12.9834 7.18541 12.7834 7.1254 12.8034 6.5454C12.8234 5.9654 12.9634 5.86541 13.4834 5.87541C14.0034 5.88541 14.2834 5.94541 14.1334 6.53541Z" fill="#EF4C23"/>
<path d="M31.3432 19.9554C30.8232 20.0754 30.6232 19.8754 30.7132 19.3554C30.8032 18.8354 30.6533 18.6654 30.0833 18.6654C29.5133 18.6654 29.3932 18.8354 29.4832 19.3154C29.5732 19.7954 29.3432 19.9954 28.8232 19.9854C28.3032 19.9754 28.0332 19.8854 28.1532 19.3254C28.2732 18.7654 27.9832 18.6254 27.4832 18.6954H27.0833C26.2333 18.6954 26.0832 18.4554 26.2432 17.6154C26.2432 17.5354 26.3132 17.3854 26.3532 17.3954C27.2032 17.3954 26.8532 16.7754 26.8832 16.3954C26.8832 15.7254 26.8832 15.0454 26.8832 14.3954C26.8832 14.0454 27.0933 13.6054 26.3933 13.5354C26.0633 13.5354 26.2932 12.9054 26.2432 12.5354C26.1932 12.1654 26.4333 12.2854 26.6133 12.2754H27.0833C28.0833 12.2754 28.0833 12.2754 28.1433 11.3554C28.2033 10.6954 28.6832 11.0654 28.9632 10.9854C29.2432 10.9054 29.4933 10.9854 29.5033 11.4454C29.5133 11.9054 29.1933 12.2854 29.9533 12.2954C30.7133 12.3054 30.8332 12.1454 30.7132 11.5254C30.5932 10.9054 30.9332 10.9554 31.3432 10.9754C31.7532 10.9954 32.1332 10.9254 32.0432 11.5454C31.9857 11.7782 32.0088 12.0236 32.1087 12.2415C32.2086 12.4595 32.3794 12.6371 32.5932 12.7454C32.9466 13.0012 33.193 13.3784 33.2853 13.8048C33.3776 14.2311 33.3092 14.6765 33.0932 15.0554C33.0053 15.1778 32.9581 15.3247 32.9581 15.4754C32.9581 15.6261 33.0053 15.773 33.0932 15.8954C33.3236 16.2907 33.3929 16.7595 33.2867 17.2046C33.1806 17.6496 32.9072 18.0367 32.5232 18.2854C32.343 18.3746 32.1979 18.5215 32.1109 18.7027C32.0239 18.8839 32.0001 19.0891 32.0432 19.2854C32.1232 19.8354 31.9232 20.1054 31.3432 19.9554ZM29.8933 14.8254H31.1733C31.5933 14.8254 31.9533 14.7354 31.9533 14.2054C31.9533 13.6754 31.6132 13.5654 31.1932 13.5654C30.3832 13.5654 29.5732 13.5654 28.7632 13.5654C28.3132 13.5654 28.2032 13.6954 28.1932 14.1354C28.1832 14.5754 28.2832 14.9354 28.8832 14.8554C29.2187 14.8204 29.5563 14.8104 29.8933 14.8254ZM29.8933 17.3654C30.3233 17.3654 30.7533 17.3654 31.1733 17.3654C31.5933 17.3654 31.9132 17.2754 31.9332 16.7954C31.9532 16.3154 31.6333 16.1354 31.2033 16.1254H28.5732C28.4332 16.1254 28.2732 16.0654 28.1932 16.2854C27.9732 16.9154 28.2432 17.3654 28.8832 17.3654H29.8933Z" fill="#EF4C23"/>
<path d="M33.3032 27.6054C33.1632 27.0554 33.4033 26.9354 33.9233 26.9454C34.4433 26.9554 34.6333 27.0154 34.6233 27.5954C34.6133 28.1754 34.4633 28.3054 33.9033 28.3154C33.3433 28.3254 33.1932 28.1054 33.3032 27.6054Z" fill="#EF4C23"/>
</svg>
