<svg width="39" height="39" viewBox="0 0 39 39" fill="none" xmlns="http://www.w3.org/2000/svg">
<path d="M19.24 0.00999451H36C37.66 0.00999451 38.38 0.749998 38.38 2.42V29.64C38.38 31.27 37.66 32.01 36.03 32.01C32.03 32.01 27.98 32.01 23.95 32.01C23.38 32.01 23.27 32.12 23.46 32.67C23.89 33.95 24.27 35.25 24.63 36.55C24.74 36.96 24.89 37.13 25.32 37.08C25.58 37.08 25.86 37.08 26.13 37.08C26.8 36.96 26.9 37.28 26.88 37.86C26.88 38.28 26.79 38.44 26.32 38.43C21.57 38.43 16.82 38.43 12.07 38.43C11.45 38.43 11.52 38.13 11.51 37.73C11.5 37.33 11.51 37.04 12.08 37.05C13.57 37.05 13.58 37.05 14.02 35.61C14.34 34.61 14.6 33.61 14.95 32.61C15.11 32.13 15 32.05 14.53 32.05H2.53001C0.670014 32.05 0 31.38 0 29.51V2.52C0 0.699997 0.690006 0 2.49001 0L19.24 0.00999451ZM19.18 26.86C24.9 26.86 30.63 26.86 36.35 26.86C36.9 26.86 37.06 26.75 37.06 26.17C37.06 18.26 37.06 10.34 37.06 2.42C37.06 1.42 36.96 1.34 35.98 1.34H2.45001C1.45001 1.34 1.35001 1.45 1.35001 2.41C1.35001 10.33 1.35001 18.2467 1.35001 26.16C1.35001 26.72 1.48 26.87 2.05 26.86C7.74 26.85 13.46 26.86 19.18 26.86ZM19.25 28.18H2.63C1.33 28.18 1.33 28.18 1.33 29.47C1.33 30.76 1.38001 30.68 2.57001 30.68H35.14C37.19 30.68 37.03 30.85 37.06 28.79C37.06 28.26 36.91 28.17 36.42 28.17C30.7 28.19 24.98 28.18 19.25 28.18ZM23.39 37.04C22.91 35.41 22.44 33.81 21.96 32.22C21.89 31.98 21.7 32.01 21.53 32.01H16.85C16.67 32.01 16.48 32.01 16.41 32.23L14.99 37.04H23.39Z" fill="#EF4C23"/>
<path d="M24.3 25.62C21.24 25.62 18.19 25.62 15.14 25.62C13.5 25.62 12.77 24.9 12.77 23.27V10.65C12.7097 10.3314 12.7278 10.0029 12.8227 9.6928C12.9176 9.38274 13.0865 9.1004 13.3148 8.87012C13.5431 8.63985 13.824 8.46854 14.1333 8.37096C14.4425 8.27338 14.7708 8.25246 15.09 8.30999C17.21 8.30999 19.34 8.30999 21.46 8.30999C21.8365 8.26609 22.2179 8.31932 22.568 8.46461C22.9181 8.6099 23.2252 8.84241 23.46 9.13999C23.9201 9.80342 24.559 10.3228 25.3023 10.6378C26.0457 10.9529 26.8632 11.0507 27.66 10.92C29.66 10.77 31.59 10.92 33.56 10.92C33.8705 10.8738 34.1875 10.9013 34.4855 11.0004C34.7834 11.0994 35.0538 11.2672 35.2748 11.4902C35.4958 11.7132 35.6613 11.985 35.7577 12.2838C35.8541 12.5826 35.8789 12.8999 35.83 13.21C35.83 16.62 35.83 20.04 35.83 23.45C35.8583 23.7499 35.8185 24.0523 35.7136 24.3347C35.6087 24.6171 35.4413 24.8721 35.224 25.0808C35.0067 25.2894 34.7451 25.4463 34.4587 25.5397C34.1723 25.633 33.8685 25.6605 33.57 25.62C30.49 25.63 27.39 25.62 24.3 25.62ZM24.3 24.3H33.46C34.34 24.3 34.46 24.17 34.46 23.3V13.3C34.46 12.39 34.35 12.3 33.46 12.3H25.72C25.3833 12.3178 25.0468 12.2616 24.7341 12.1355C24.4214 12.0094 24.1401 11.8164 23.91 11.57C23.45 11.1 22.97 10.65 22.53 10.17C22.3962 10.0176 22.2293 9.89785 22.0421 9.81985C21.8549 9.74186 21.6524 9.7077 21.45 9.71999C19.35 9.71999 17.25 9.71999 15.14 9.71999C14.23 9.71999 14.08 9.86999 14.08 10.72V23.24C14.08 24.16 14.22 24.3 15.13 24.3H24.3Z" fill="#EF4C23"/>
<path d="M11.73 21.89C11.66 22.66 11.22 22.97 10.57 22.63C10.3556 22.5118 10.1148 22.4498 9.87002 22.4498C9.62522 22.4498 9.3844 22.5118 9.17002 22.63C8.51002 22.92 7.76002 23.43 7.17002 23.3C6.58002 23.17 6.17001 22.3 5.58001 21.9C5.40983 21.8064 5.26203 21.677 5.14681 21.5207C5.03159 21.3644 4.95171 21.185 4.91271 20.9947C4.87371 20.8045 4.87654 20.6081 4.92096 20.419C4.96539 20.23 5.05037 20.0529 5.17002 19.9C5.31374 19.6191 5.43738 19.3283 5.54001 19.03C5.6498 18.8122 5.71085 18.5731 5.71891 18.3293C5.72697 18.0855 5.68185 17.8429 5.58669 17.6183C5.49153 17.3937 5.3486 17.1926 5.16785 17.0288C4.9871 16.865 4.77286 16.7426 4.54001 16.67C3.90001 16.4 3.02001 16.27 2.69001 15.78C2.36001 15.29 2.69002 14.42 2.56002 13.78C2.49462 13.5733 2.47672 13.3545 2.50766 13.14C2.53861 12.9254 2.61759 12.7206 2.73871 12.5409C2.85984 12.3611 3.01998 12.211 3.2072 12.1018C3.39443 11.9925 3.60391 11.927 3.82001 11.91C4.11911 11.8132 4.41002 11.6929 4.69001 11.55C5.0885 11.3857 5.40635 11.0713 5.57477 10.6745C5.7432 10.2778 5.74867 9.8307 5.59002 9.42996C5.46414 8.99634 5.30016 8.5747 5.10001 8.16996C5.00005 8.04467 4.92868 7.89904 4.89089 7.74328C4.8531 7.58751 4.8498 7.42537 4.88123 7.2682C4.91266 7.11103 4.97807 6.96263 5.07287 6.83338C5.16766 6.70413 5.28955 6.59716 5.43001 6.51996C5.95143 6.08689 6.43333 5.60834 6.87002 5.08996C6.9467 4.98129 7.06281 4.90688 7.19358 4.8826C7.32434 4.85831 7.45942 4.88607 7.57001 4.95996C8.03001 5.15996 8.49002 5.32996 8.95002 5.51996C10.31 6.06996 11.01 5.78995 11.59 4.46995C11.85 3.86995 11.98 3.04996 12.44 2.74996C12.9 2.44996 13.71 2.65996 14.36 2.65996C15.83 2.65996 15.83 2.65995 16.36 4.03995C16.67 4.77995 16.89 5.56996 17.86 5.76996C18.1105 5.84964 18.3795 5.84964 18.63 5.76996C19.27 5.49996 19.93 5.25996 20.56 4.97996C20.6702 4.90194 20.8067 4.87076 20.9398 4.89325C21.0729 4.91574 21.1916 4.99008 21.27 5.09996C21.6775 5.51462 22.1118 5.90212 22.57 6.25996C23.11 6.70996 22.57 6.87996 22.39 7.13996C22.21 7.39996 21.89 7.61996 21.61 7.13996C21.5246 6.94977 21.395 6.7827 21.2321 6.65266C21.0691 6.52261 20.8775 6.43334 20.6731 6.39226C20.4687 6.35119 20.2574 6.35949 20.0569 6.41649C19.8563 6.47348 19.6723 6.57752 19.52 6.71995C18.24 7.59995 17.18 6.71996 16.07 6.27996C15.95 6.27996 15.89 6.02996 15.82 5.88996C15.67 5.56996 15.54 5.22996 15.4 4.88996C14.94 3.82996 14.58 3.64996 13.46 3.88996C13.31 3.88996 13.21 3.94995 13.16 4.10995C13.0883 4.24944 13.0249 4.39302 12.97 4.53995C12.8475 5.15729 12.5445 5.72437 12.0995 6.16941C11.6544 6.61445 11.0873 6.91741 10.47 7.03995C10.2985 7.11633 10.1128 7.15579 9.92501 7.15579C9.73723 7.15579 9.55155 7.11633 9.38001 7.03995C9.1186 6.91271 8.8478 6.80573 8.57001 6.71995C7.38001 6.23995 7.32 6.25996 6.5 7.25996C6.43505 7.32145 6.3899 7.40091 6.37031 7.48819C6.35071 7.57547 6.35758 7.6666 6.39002 7.74996C6.4636 7.9634 6.55387 8.1707 6.66001 8.36996C6.95445 8.83331 7.11083 9.37096 7.11083 9.91996C7.11083 10.469 6.95445 11.0066 6.66001 11.47C6.38001 11.96 6.15001 12.4 5.57001 12.54C5.3969 12.5935 5.22944 12.6638 5.07001 12.75C3.81001 13.29 3.82002 13.29 3.92002 14.61C3.92002 14.85 3.99002 15 4.23002 15.07C4.47002 15.14 4.43001 15.17 4.54001 15.2C5.16806 15.3263 5.74456 15.6359 6.19666 16.0898C6.64876 16.5437 6.95615 17.1214 7.08001 17.75C7.20503 18.0716 7.20503 18.4283 7.08001 18.75C6.91001 19.07 6.85001 19.45 6.66001 19.75C6.56367 19.8721 6.49432 20.0132 6.45653 20.164C6.41874 20.3149 6.41338 20.4721 6.44079 20.6252C6.46819 20.7782 6.52775 20.9238 6.61553 21.0522C6.70331 21.1806 6.81731 21.2889 6.95002 21.37C7.35002 21.71 7.67002 21.95 8.17002 21.62C8.36002 21.5 8.62001 21.5 8.80001 21.37C9.80001 20.63 10.67 21.19 11.56 21.58C11.75 21.71 11.74 21.73 11.73 21.89Z" fill="#EF4C23"/>
<path d="M7.69995 13.16C7.8152 12.2192 8.15168 11.3192 8.68182 10.5335C9.21197 9.74784 9.92069 9.09896 10.7499 8.63999C10.9299 8.51999 11.2399 8.16999 11.3799 8.63999C11.5199 9.10999 12.1599 9.30999 11.3799 9.77999C10.6201 10.2226 9.99035 10.8577 9.55431 11.6213C9.11827 12.385 8.89134 13.2501 8.89641 14.1295C8.90148 15.0088 9.13837 15.8713 9.58319 16.6298C10.028 17.3884 10.665 18.0162 11.4299 18.45C12.1599 18.92 11.43 19.2 11.34 19.55C11.25 19.9 10.9199 19.68 10.7199 19.55C8.85994 18.45 7.69995 16.37 7.69995 13.16Z" fill="#EF4C23"/>
<path d="M28.5701 21.59C28.3022 21.3366 28.0548 21.0624 27.8301 20.77C27.6601 20.51 27.9901 20.4 28.1201 20.26C28.6973 19.6244 29.3082 19.0202 29.9501 18.45C30.4501 18.03 30.3301 17.77 29.9501 17.4C29.2901 16.79 28.6901 16.11 28.0201 15.5C27.6301 15.15 27.9101 14.96 28.1501 14.78C28.3901 14.6 28.4901 14.06 28.9601 14.55C29.9601 15.61 31.0201 16.63 32.0701 17.66C32.2801 17.87 32.2801 18 32.0701 18.2C31.0701 19.2 29.9901 20.28 28.9501 21.31C28.7801 21.4 28.6701 21.52 28.5701 21.59Z" fill="#EF4C23"/>
<path d="M20.9401 15.18L20.5801 15.57C19.9401 16.21 19.3201 16.87 18.6501 17.48C18.2901 17.8 18.2201 18 18.6501 18.37C19.3401 18.98 19.9501 19.69 20.6501 20.31C21.3501 20.93 20.6501 20.97 20.4101 21.24C20.1701 21.51 19.9801 21.56 19.6901 21.24C18.6901 20.24 17.6901 19.24 16.6901 18.24C16.4101 17.98 16.4001 17.82 16.6901 17.55C17.6901 16.55 18.6901 15.55 19.6901 14.55C19.8001 14.44 19.8901 14.12 20.1401 14.3C20.3901 14.48 20.6501 14.9 20.9401 15.18Z" fill="#EF4C23"/>
<path d="M26.7501 15.77L26.5801 16.11C25.6501 17.76 24.7201 19.41 23.8201 21.11C23.6201 21.48 23.4201 21.51 23.1701 21.26C22.9201 21.01 22.2801 21.13 22.6401 20.5L25.4801 15.42C25.5601 15.28 25.5901 15.03 25.8501 15.19C26.1101 15.35 26.5701 15.44 26.7501 15.77Z" fill="#EF4C23"/>
</svg>
