<svg width="39" height="39" viewBox="0 0 39 39" fill="none" xmlns="http://www.w3.org/2000/svg">
<path d="M13.5508 19.1629C13.5508 17.5529 13.5508 15.9529 13.5508 14.3429C13.5333 13.948 13.6331 13.5567 13.8378 13.2186C14.0425 12.8804 14.3428 12.6105 14.7008 12.4429C15.6327 11.9619 16.6542 11.6793 17.7008 11.6129C19.6769 11.3339 21.6916 11.5823 23.5408 12.3329C23.9929 12.4983 24.3761 12.8114 24.6283 13.2215C24.8805 13.6315 24.9871 14.1147 24.9308 14.5929C24.8841 17.6795 24.8841 20.7762 24.9308 23.8829C24.9786 24.3694 24.8576 24.8575 24.5881 25.2654C24.3186 25.6733 23.9171 25.976 23.4508 26.1229C20.7163 27.2178 17.6652 27.2178 14.9308 26.1229C14.4824 25.9855 14.0965 25.6949 13.8406 25.3019C13.5847 24.9089 13.475 24.4385 13.5308 23.9729C13.6008 22.3329 13.5508 20.7429 13.5508 19.1629ZM19.1708 25.5929C20.1826 25.5727 21.189 25.4386 22.1708 25.1929C23.5608 24.8329 23.8608 24.3829 23.6608 22.9829C23.6608 22.7429 23.5608 22.6729 23.3208 22.7529C20.7326 23.6679 17.909 23.6679 15.3208 22.7529C15.2008 22.7529 15.0808 22.6229 14.9908 22.8229C14.8533 23.2184 14.8579 23.6494 15.0039 24.0418C15.1499 24.4342 15.4282 24.7635 15.7908 24.9729C16.8767 25.3601 18.0181 25.5695 19.1708 25.5929ZM19.0708 18.5929C20.0818 18.6091 21.0906 18.4914 22.0708 18.2429C23.5408 17.8229 23.6708 17.6229 23.6008 16.1329C23.6008 15.7729 23.5308 15.7229 23.1808 15.8429C20.6167 16.7176 17.8349 16.7176 15.2708 15.8429C15.1508 15.8429 15.0308 15.6829 14.9108 15.8429C14.8055 16.2085 14.8029 16.596 14.9035 16.963C15.0041 17.3299 15.2038 17.662 15.4808 17.9229C16.6197 18.387 17.8411 18.615 19.0708 18.5929ZM23.5808 19.1629C20.7698 20.1983 17.6818 20.1983 14.8708 19.1629V19.8829C14.8708 21.1429 14.9408 21.2529 16.1708 21.6129C18.1784 22.2026 20.3132 22.2026 22.3208 21.6129C23.5208 21.2629 23.5908 21.1429 23.5808 19.9229V19.1629ZM19.2008 15.1629C20.5344 15.2258 21.864 14.9722 23.0808 14.4229C23.6308 14.1329 23.6208 13.9529 23.0808 13.6529C22.8673 13.5294 22.643 13.4257 22.4108 13.3429C20.8434 12.8874 19.1975 12.7681 17.5808 12.9929C16.8352 13.0559 16.1069 13.2524 15.4308 13.5729C15.2208 13.6829 14.9108 13.7729 14.9008 14.0329C14.8908 14.2929 15.2108 14.3929 15.4208 14.4929C16.6102 14.9744 17.8887 15.196 19.1708 15.1429L19.2008 15.1629Z" fill="#EF4C23"/>
<path d="M19.7407 3.91293C19.7175 3.87387 19.7035 3.83005 19.6997 3.78479C19.6959 3.73952 19.7024 3.69399 19.7188 3.65162C19.7352 3.60925 19.761 3.57116 19.7942 3.5402C19.8274 3.50925 19.8673 3.48624 19.9107 3.47293C20.1707 3.35293 20.4307 3.20292 20.6907 3.06292C21.4507 2.66292 21.4307 2.67292 21.8307 3.42292C22.0307 3.80292 21.9607 3.96292 21.5807 4.12292C21.2007 4.28292 20.9507 4.46292 20.5807 4.67292C22.2466 5.7818 23.8338 7.00472 25.3307 8.33293C26.0107 8.92293 26.6407 9.57293 27.3307 10.1629C27.8107 10.5729 27.4107 10.7529 27.1807 10.9929C26.9507 11.2329 26.8007 11.5629 26.3507 11.1229C23.5726 8.3513 20.4102 5.99382 16.9607 4.12292C15.7695 3.47872 14.5289 2.93032 13.2507 2.48292C13.3203 2.96469 13.4171 3.44213 13.5407 3.91293C13.7107 4.43293 13.4007 4.50293 13.0407 4.53293C12.6807 4.56293 12.3307 4.92292 12.2207 4.26292C12.0807 3.42292 11.8707 2.58293 11.6907 1.75293C11.6534 1.64115 11.6426 1.52223 11.6591 1.40556C11.6757 1.28889 11.7191 1.17766 11.7861 1.08067C11.853 0.983679 11.9416 0.903588 12.0448 0.846707C12.148 0.789825 12.263 0.757717 12.3807 0.752926C13.3307 0.562926 14.2807 0.362926 15.2207 0.142926C15.4607 0.0829256 15.5607 0.0829268 15.6507 0.362927C15.9607 1.36293 15.9707 1.36292 14.8207 1.63292C16.4722 2.3483 18.0756 3.17003 19.6207 4.09292L19.8007 4.23292C19.8332 4.21613 19.8593 4.18933 19.8753 4.15649C19.8914 4.12366 19.8964 4.08653 19.8896 4.05063C19.8829 4.01472 19.8648 3.98192 19.838 3.95712C19.8111 3.93232 19.777 3.91683 19.7407 3.91293Z" fill="#EF4C23"/>
<path d="M24.5208 36.7429C23.5208 36.3229 22.6808 35.9429 21.8108 35.5229C18.0163 33.6091 14.5362 31.1271 11.4908 28.1629C11.1708 27.8629 11.2608 27.6629 11.4908 27.4829C11.7208 27.3029 11.8708 26.6629 12.4208 27.1929C14.2445 28.9801 16.2334 30.5907 18.3608 32.0029C20.5826 33.5218 23.0017 34.7297 25.5508 35.5929C25.6808 35.5929 25.7908 35.7429 25.9908 35.5929C25.8608 35.1329 25.7308 34.6628 25.5808 34.2028C25.4308 33.7428 25.9208 33.7228 26.1808 33.6428C26.4408 33.5628 26.7608 33.2528 26.9008 33.8328C27.1008 34.6828 27.3608 35.5228 27.6208 36.3628C27.663 36.4655 27.6813 36.5764 27.6742 36.6872C27.6671 36.7979 27.6348 36.9056 27.5799 37.002C27.5249 37.0984 27.4487 37.181 27.357 37.2435C27.2654 37.3061 27.1606 37.3469 27.0508 37.3628C26.1208 37.6428 25.1808 37.8728 24.2608 38.1728C23.7008 38.3528 23.7308 37.9129 23.6608 37.6229C23.5908 37.3329 23.2608 36.9629 23.8708 36.8529C24.0901 36.8335 24.3074 36.7967 24.5208 36.7429Z" fill="#EF4C23"/>
<path d="M35.7709 12.3529C35.2509 12.5029 34.8309 12.5929 34.4309 12.7529C34.0309 12.9129 33.7809 12.7529 33.7109 12.3329C33.6409 11.9129 33.3109 11.5729 34.0209 11.4329C34.7309 11.2929 35.5409 11.0029 36.3009 10.7929C37.0609 10.5829 37.3009 10.7929 37.4709 11.4229C37.7309 12.2829 37.9209 13.1729 38.2309 14.0229C38.4609 14.6429 38.0409 14.6229 37.6909 14.7429C37.3409 14.8629 36.9809 14.9629 36.9309 14.3829C36.8828 14.2076 36.8192 14.0369 36.7409 13.8729C36.3209 14.8129 35.9409 15.7029 35.5109 16.5829C33.61 20.3831 31.1342 23.8674 28.1709 26.9129C27.9009 27.2029 27.7209 27.1729 27.5509 26.9129C27.3809 26.6529 26.6609 26.5329 27.2209 25.9129C29.0328 24.0467 30.6697 22.0182 32.1109 19.8529C33.6087 17.6489 34.8123 15.2586 35.6909 12.7429C35.6909 12.6529 35.7109 12.5929 35.7709 12.3529Z" fill="#EF4C23"/>
<path d="M2.42079 25.1629C3.01079 25.0329 3.5008 24.9629 3.9708 24.8129C4.4408 24.6629 4.4608 25.0329 4.4708 25.2929C4.4808 25.5529 4.95079 25.9929 4.27079 26.1329C3.37079 26.3129 2.47079 26.5329 1.56079 26.7229C1.47194 26.7464 1.37915 26.7511 1.28837 26.7367C1.19759 26.7223 1.11082 26.689 1.03362 26.6392C0.956428 26.5893 0.890508 26.5238 0.840082 26.447C0.789655 26.3701 0.755837 26.2836 0.740793 26.1929C0.490793 25.1929 0.29079 24.1229 0.0507903 23.0929C-0.00920973 22.8329 0.140795 22.7829 0.320795 22.7129C1.21079 22.3929 1.32079 22.4429 1.55079 23.5129C2.02079 22.5729 2.44079 21.6629 2.91079 20.7829C4.82763 17.2683 7.22392 14.0374 10.0308 11.1829C10.3508 10.8529 10.5608 10.6929 10.9608 11.1329C11.3608 11.5729 11.4408 11.7129 10.9608 12.1329C7.8343 15.2493 5.2549 18.8699 3.3308 22.8429C3.2308 23.0629 3.11079 23.2829 3.02079 23.5129C2.84079 24.0529 2.65079 24.5929 2.42079 25.1629Z" fill="#EF4C23"/>
<path d="M29.2808 1.5929C27.3736 1.75945 25.5113 2.26398 23.7808 3.08291C23.0808 3.39291 23.1208 2.8729 22.9308 2.5429C22.7408 2.2129 22.8208 1.9929 23.2308 1.8229C25.6501 0.747343 28.2735 0.208327 30.9208 0.242897C32.7382 0.218611 34.492 0.911363 35.8022 2.17106C37.1125 3.43075 37.8736 5.15596 37.9208 6.97291C37.9908 7.85348 37.9606 8.73915 37.8308 9.61291C37.7708 9.98291 37.6508 10.0429 37.3108 9.9929C36.4508 9.8429 36.4808 9.8629 36.5508 8.9929C36.8531 7.16658 36.4413 5.29396 35.4008 3.7629C34.0408 2.0429 32.1708 1.5929 29.2808 1.5929Z" fill="#EF4C23"/>
<path d="M30.3709 37.8929C29.8309 37.8929 29.2909 37.8329 28.7509 37.7829C28.2109 37.7329 28.3709 37.3629 28.4109 37.0729C28.4509 36.7829 28.3609 36.3229 28.9809 36.4329C30.4127 36.6964 31.8886 36.5792 33.2609 36.0929C34.3435 35.6681 35.2661 34.9151 35.8992 33.9395C36.5322 32.9639 36.8441 31.8147 36.7909 30.6529C36.777 28.3206 36.2835 26.0162 35.3409 23.8829C35.2509 23.6729 34.9809 23.4129 35.2309 23.2229C35.5397 23.0306 35.8773 22.8888 36.2309 22.8029C36.3509 22.8029 36.4109 22.9129 36.4509 23.0229C37.6509 25.9729 38.5709 29.0229 37.9509 32.2329C37.734 33.6067 37.0881 34.8766 36.1056 35.8609C35.123 36.8453 33.8542 37.4935 32.4809 37.7129C31.7877 37.86 31.0789 37.9204 30.3709 37.8929Z" fill="#EF4C23"/>
<path d="M8.10075 0.0128909C8.64691 0.0168075 9.19192 0.0636175 9.73075 0.15289C10.0407 0.15289 10.3307 0.222887 10.1707 0.602887C10.0107 0.982887 10.3307 1.60289 9.59074 1.49289C8.53641 1.33786 7.46508 1.33786 6.41074 1.49289C5.13087 1.64902 3.94857 2.25631 3.07616 3.2057C2.20374 4.1551 1.69836 5.38441 1.65075 6.67289C1.61576 7.10218 1.61576 7.5336 1.65075 7.96289C1.70075 8.42289 1.56075 8.5529 1.08075 8.6129C0.420749 8.7029 0.260742 8.5229 0.260742 7.8629C0.260742 5.2729 0.930743 2.98289 3.12074 1.38289C4.58646 0.394344 6.33564 -0.0868525 8.10075 0.0128909Z" fill="#EF4C23"/>
<path d="M0.0107558 30.2429C0.0113849 29.7462 0.0582609 29.2508 0.150763 28.7629C0.150763 28.4829 0.0607585 28.0629 0.630759 28.2129C1.04076 28.3229 1.63076 28.1428 1.49076 28.9528C1.33086 29.8659 1.33086 30.7998 1.49076 31.7129C1.61582 33.1515 2.29469 34.4853 3.3842 35.433C4.47371 36.3807 5.88871 36.8683 7.33076 36.7929C7.5772 36.8079 7.82432 36.8079 8.07076 36.7929C8.46076 36.7929 8.63076 36.8429 8.64076 37.2929C8.64076 38.1529 8.64076 38.1729 7.80076 38.1529C5.25076 38.1529 2.97076 37.4529 1.40076 35.2629C0.407471 33.7836 -0.0801847 32.0224 0.0107558 30.2429Z" fill="#EF4C23"/>
<path d="M3.48082 17.5929C3.24082 17.5929 3.21082 17.4629 3.15082 17.3629C2.94082 16.9629 2.73082 16.5729 2.54082 16.1629C2.15082 15.3529 2.27082 15.1629 3.17082 14.9329C3.42082 14.8729 3.48082 15.0029 3.56082 15.1729C3.76082 15.5729 3.97082 15.9629 4.16082 16.3729C4.26082 16.5829 4.54082 16.8529 4.39082 17.0129C4.11598 17.2477 3.80969 17.4429 3.48082 17.5929Z" fill="#EF4C23"/>
<path d="M30.1708 13.2728C29.9008 13.5028 29.6308 13.7628 29.3308 13.9928C29.0308 14.2228 28.9908 13.8928 28.8608 13.7628C28.7308 13.6328 28.3408 13.2029 28.0908 12.9129C27.5608 12.3329 27.6508 11.9128 28.3608 11.5128C28.4808 11.4528 28.5708 11.4328 28.6608 11.5128L30.0608 13.0728C30.1064 13.1342 30.1434 13.2015 30.1708 13.2728Z" fill="#EF4C23"/>
<path d="M22.9308 31.4429C22.9308 31.6729 22.8008 31.7229 22.7008 31.8029L21.7008 32.5529C21.0008 33.0629 21.0308 33.0429 20.5208 32.3529C20.2408 31.9929 20.3408 31.8329 20.6608 31.6229C20.9808 31.4129 21.3508 31.1229 21.6608 30.8829C21.8308 30.7629 22.0108 30.4529 22.2108 30.6129C22.4805 30.8623 22.722 31.1406 22.9308 31.4429Z" fill="#EF4C23"/>
<path d="M17.1708 5.17285C17.3908 5.49285 17.6008 5.79285 17.8208 6.09285C18.0408 6.39285 17.7508 6.40284 17.6308 6.49284C17.2308 6.79284 16.8108 7.05284 16.4308 7.38284C16.0508 7.71284 15.8908 7.61285 15.5908 7.26285C15.1408 6.75285 15.2308 6.47285 15.7808 6.15285C16.3308 5.83285 16.6708 5.53285 17.1708 5.17285Z" fill="#EF4C23"/>
<path d="M7.86071 22.1829C7.57071 22.4129 7.29071 22.6529 6.98071 22.8729C6.67071 23.0929 6.64071 22.7629 6.54071 22.6329C6.21071 22.2029 5.91071 21.7429 5.54071 21.3329C5.17071 20.9229 5.39071 20.8029 5.68071 20.7229C5.97071 20.6429 6.20071 19.9029 6.68071 20.5329L7.68071 21.8929C7.74628 21.986 7.80638 22.0828 7.86071 22.1829Z" fill="#EF4C23"/>
<path d="M33.1708 17.1429C32.9189 17.4254 32.6173 17.6593 32.2808 17.8329C32.0308 18.0029 31.9808 17.7629 31.8808 17.6329C31.5508 17.1729 31.2108 16.7229 30.8808 16.2629C30.5508 15.8029 31.1608 15.7029 31.3508 15.4629C31.5408 15.2229 31.7308 15.0929 31.9708 15.4629C32.2108 15.8329 32.6508 16.4629 32.9708 16.8929C33.0608 16.9729 33.1008 17.0429 33.1708 17.1429Z" fill="#EF4C23"/>
<path d="M12.2807 10.8129C11.9972 10.5521 11.7363 10.2677 11.5007 9.96285C11.3307 9.69285 11.6907 9.61286 11.8307 9.47286C12.1607 9.13286 12.5407 8.84286 12.8307 8.47286C13.1207 8.10286 13.3207 8.11286 13.5007 8.47286C13.6807 8.83286 14.3707 8.94286 13.7507 9.47286C13.3507 9.80286 12.9807 10.1629 12.5907 10.4729C12.494 10.592 12.3905 10.7056 12.2807 10.8129Z" fill="#EF4C23"/>
<path d="M9.49083 24.0629C9.55471 24.1638 9.62485 24.2607 9.70083 24.3529C9.95083 24.6429 10.2108 24.9229 10.4708 25.2029C11.0508 25.8329 10.9908 26.1329 10.2608 26.6029C10.0108 26.7629 9.93084 26.6029 9.82084 26.4829L8.90084 25.4829C8.7847 25.3889 8.69842 25.2631 8.6525 25.121C8.60659 24.9788 8.60302 24.8264 8.64224 24.6822C8.68146 24.538 8.76177 24.4084 8.87339 24.3091C8.985 24.2098 9.12309 24.1451 9.27083 24.1229L9.49083 24.0629Z" fill="#EF4C23"/>
<path d="M26.7008 28.3329C26.6126 28.4376 26.5192 28.5377 26.4208 28.6329L25.5208 29.4429C24.8708 30.0329 24.8908 30.0229 24.3308 29.3729C24.0908 29.0929 24.0508 28.9129 24.3308 28.6729C24.6108 28.4329 25.0708 28.0129 25.4408 27.6729C25.5808 27.5429 25.7008 27.2529 25.9208 27.4629C26.2366 27.6976 26.5018 27.9934 26.7008 28.3329Z" fill="#EF4C23"/>
<path d="M15.5207 36.1829C15.2767 35.8868 15.0902 35.5476 14.9707 35.1829C14.8507 34.9429 15.0807 34.8829 15.2307 34.8029L16.7407 34.0629C17.3907 33.7429 17.2407 34.4429 17.4607 34.6529C17.6807 34.8629 17.7407 35.0929 17.3507 35.2629C16.7407 35.5929 16.1707 35.8629 15.5207 36.1829Z" fill="#EF4C23"/>
<path d="M11.2507 37.6829C10.8307 37.5529 10.9407 37.1329 10.8207 36.8429C10.7007 36.5529 10.6807 36.4129 11.0107 36.3329C11.3407 36.2529 11.9607 36.0529 12.4407 35.9329C12.9207 35.8129 12.8307 36.2629 12.9007 36.4929C12.9707 36.7229 13.3407 37.0329 12.9007 37.2029C12.4607 37.3729 11.8107 37.5129 11.2507 37.6829Z" fill="#EF4C23"/>
<path d="M1.46094 13.0629C1.23094 13.1329 1.20095 12.9329 1.15095 12.7929C1.04095 12.4829 0.980944 12.1429 0.850944 11.7929C0.580944 11.1629 0.78094 10.9129 1.44094 10.7929C1.90094 10.7029 2.06095 10.7929 2.11095 11.2129C2.15438 11.4349 2.21798 11.6524 2.30094 11.8629C2.52761 12.6562 2.24761 13.0562 1.46094 13.0629Z" fill="#EF4C23"/>
<path d="M34.6808 21.9629C34.4608 22.0229 34.4208 21.8829 34.3608 21.7629C34.1908 21.4529 34.0408 21.1229 33.8408 20.8229C33.6408 20.5229 33.7308 20.3029 34.0808 20.0629C34.6708 19.6429 34.9608 19.7829 35.1708 20.4129C35.1708 20.5129 35.2808 20.6029 35.3208 20.7129C35.3608 20.8229 35.7708 21.2229 35.5708 21.4529C35.3067 21.6742 35.0053 21.8469 34.6808 21.9629Z" fill="#EF4C23"/>
<path d="M19.7408 3.9129C19.7641 3.92388 19.7845 3.93996 19.8006 3.95996C19.8167 3.97996 19.8281 4.00335 19.8338 4.02837C19.8396 4.05338 19.8396 4.07938 19.8339 4.10442C19.8282 4.12945 19.8169 4.15286 19.8008 4.1729L19.6208 4.0329L19.7408 3.9129Z" fill="#EF4C23"/>
</svg>
