<svg width="39" height="39" viewBox="0 0 39 39" fill="none" xmlns="http://www.w3.org/2000/svg">
<path d="M9.00591 4.51692C9.03989 5.29207 8.83762 6.05926 8.42591 6.71692C8.19591 7.08692 8.17591 7.31692 8.52591 7.61692C9.08591 8.10692 9.52591 8.95692 10.1459 9.09692C10.7659 9.23692 11.3159 8.35692 11.9159 7.95692C14.3126 6.40608 17.1422 5.66179 19.9918 5.8327C22.8414 6.0036 25.5618 7.08074 27.7559 8.90692C28.1459 9.22692 28.3659 9.25692 28.6459 8.90692C28.7156 8.81721 28.7962 8.73658 28.8859 8.66692C29.7959 7.91692 30.3559 7.29692 29.6759 5.86692C29.3303 5.06316 29.2687 4.16565 29.5014 3.32223C29.7341 2.47881 30.2471 1.7398 30.9559 1.22692C31.5936 0.620753 32.4045 0.228524 33.2756 0.104849C34.1467 -0.018826 35.0347 0.132207 35.8159 0.536919C36.6147 0.881524 37.2896 1.46139 37.7505 2.19924C38.2115 2.93709 38.4366 3.79788 38.3959 4.66692C38.3775 5.43605 38.1608 6.1874 37.7669 6.84827C37.373 7.50915 36.8152 8.05716 36.1475 8.4393C35.4797 8.82144 34.7246 9.02477 33.9553 9.02961C33.186 9.03444 32.4284 8.84063 31.7559 8.46692C31.6786 8.39982 31.5875 8.3505 31.4891 8.32241C31.3907 8.29433 31.2873 8.28818 31.1862 8.30439C31.0851 8.3206 30.9889 8.35877 30.9042 8.41623C30.8194 8.47368 30.7484 8.54902 30.6959 8.63692C30.3133 9.08293 29.8988 9.50069 29.4559 9.88692C29.1659 10.1469 29.1959 10.3069 29.4559 10.5869C30.8023 12.1524 31.7618 14.0125 32.2569 16.0171C32.752 18.0217 32.7688 20.1146 32.3059 22.1269C31.8705 24.2374 30.8993 26.2003 29.4859 27.8269C29.1759 28.1869 29.2059 28.3769 29.5459 28.6269C29.6547 28.7107 29.7522 28.8081 29.8359 28.9169C30.5759 29.8469 31.2159 30.3569 32.6259 29.6969C33.4312 29.3506 34.3303 29.2886 35.1754 29.5213C36.0206 29.7539 36.7613 30.2673 37.2759 30.9769C37.8602 31.6021 38.2417 32.3894 38.3702 33.2354C38.4987 34.0814 38.3682 34.9465 37.9959 35.7169C37.6796 36.5166 37.1276 37.2011 36.4132 37.6798C35.6988 38.1584 34.8558 38.4085 33.9959 38.3969C33.2098 38.4445 32.426 38.2712 31.7332 37.8966C31.0405 37.5219 30.4664 36.9609 30.0759 36.2769C29.635 35.6117 29.3908 34.8356 29.3713 34.0378C29.3518 33.2399 29.5579 32.4528 29.9659 31.7669C30.0293 31.694 30.0759 31.6082 30.1025 31.5153C30.129 31.4224 30.1349 31.3249 30.1196 31.2295C30.1044 31.1342 30.0684 31.0433 30.0142 30.9634C29.9599 30.8834 29.8889 30.8164 29.8059 30.7669C29.368 30.379 28.9539 29.9649 28.5659 29.5269C28.2959 29.2269 28.1259 29.2169 27.8059 29.5269C26.5009 30.6491 24.9876 31.5031 23.3524 32.0402C21.7172 32.5773 19.9921 32.7868 18.2759 32.6569C15.4324 32.4865 12.7236 31.3868 10.5659 29.5269C10.2459 29.2569 10.0859 29.2669 9.81591 29.5269C9.3946 29.9982 8.94723 30.4456 8.47591 30.8669C8.4109 30.9053 8.35522 30.9577 8.3129 31.0202C8.27058 31.0827 8.24267 31.1539 8.23119 31.2285C8.21971 31.3031 8.22495 31.3794 8.24651 31.4517C8.26808 31.5241 8.30545 31.5908 8.35591 31.6469C8.73229 32.275 8.94786 32.9863 8.98348 33.7177C9.01911 34.4491 8.8737 35.178 8.56014 35.8397C8.24659 36.5015 7.77458 37.0756 7.18598 37.5112C6.59738 37.9468 5.91039 38.2304 5.18591 38.3369C4.581 38.434 3.96261 38.406 3.36895 38.2546C2.77529 38.1033 2.21899 37.8317 1.73444 37.4568C1.24988 37.0819 0.847361 36.6116 0.551773 36.075C0.256186 35.5384 0.0738127 34.9468 0.0159152 34.3369C-0.0827084 33.1631 0.279794 31.997 1.02654 31.086C1.77329 30.1749 2.84555 29.5906 4.01592 29.4569C4.9884 29.3332 5.97381 29.5486 6.80592 30.0669C6.85705 30.116 6.91861 30.1528 6.98601 30.1748C7.0534 30.1967 7.12488 30.203 7.19509 30.1934C7.2653 30.1838 7.33243 30.1584 7.39145 30.1192C7.45047 30.08 7.49985 30.0279 7.53591 29.9669C8.05591 29.3969 8.91591 28.9669 9.07591 28.3069C9.23591 27.6469 8.31591 27.0969 7.90591 26.4769C6.36192 24.075 5.62616 21.2425 5.80606 18.3928C5.98596 15.5431 7.07211 12.8256 8.90591 10.6369C9.16591 10.3069 9.24591 10.1369 8.90591 9.83692C8.42974 9.42076 7.98207 8.97309 7.56591 8.49692C7.30591 8.19692 7.12591 8.19692 6.78591 8.38692C6.20132 8.73461 5.5448 8.94365 4.86681 8.99801C4.18881 9.05236 3.50738 8.95058 2.87486 8.70047C2.24235 8.45036 1.67558 8.05858 1.21811 7.55524C0.760637 7.0519 0.424634 6.45039 0.235916 5.79692C-0.0344437 4.98344 -0.0530964 4.10731 0.182404 3.28306C0.417904 2.45881 0.8966 1.72478 1.55592 1.17692C2.18311 0.575481 2.98031 0.181794 3.83913 0.0493929C4.69795 -0.0830082 5.5767 0.052301 6.35591 0.43692C7.15467 0.774431 7.83402 1.34348 8.30635 2.07069C8.77868 2.7979 9.02234 3.64993 9.00591 4.51692ZM7.08592 19.2169C7.09355 22.4242 8.36283 25.4997 10.6195 27.7788C12.8761 30.0579 15.9389 31.3575 19.1459 31.3969C22.3685 31.3996 25.4611 30.1261 27.7473 27.8549C30.0336 25.5836 31.3274 22.4995 31.3459 19.2769C31.3407 16.0586 30.064 12.9726 27.7939 10.6913C25.5238 8.40994 22.4442 7.11802 19.2259 7.09692C16.0145 7.11265 12.9388 8.39399 10.6661 10.663C8.39334 12.9319 7.10694 16.0055 7.08592 19.2169ZM37.0859 4.50692C37.0675 3.667 36.7175 2.86847 36.1123 2.28576C35.5071 1.70306 34.6959 1.38351 33.8559 1.39692C33.0365 1.42724 32.2596 1.76899 31.6835 2.35248C31.1075 2.93596 30.7757 3.71722 30.7559 4.53692C30.7713 5.3808 31.1134 6.18582 31.7102 6.78263C32.307 7.37944 33.112 7.72153 33.9559 7.73692C34.7934 7.70838 35.5869 7.35552 36.1691 6.75285C36.7512 6.15017 37.0764 5.34485 37.0759 4.50692H37.0859ZM37.0859 33.9169C37.0781 33.0724 36.7399 32.2644 36.1436 31.6663C35.5473 31.0681 34.7404 30.7273 33.8959 30.7169C33.0574 30.7478 32.2631 31.1007 31.6783 31.7023C31.0934 32.304 30.7631 33.1079 30.7559 33.9469C30.7741 34.7783 31.1151 35.5699 31.7068 36.1541C32.2985 36.7384 33.0944 37.0693 33.9259 37.0769C34.7614 37.0717 35.5611 36.7367 36.151 36.145C36.7409 35.5532 37.0733 34.7525 37.0759 33.9169H37.0859ZM1.36591 4.51692C1.37093 5.36076 1.70496 6.16935 2.29697 6.7707C2.88899 7.37205 3.69225 7.7187 4.53591 7.73692C5.3807 7.71897 6.18574 7.37471 6.7823 6.77629C7.37885 6.17787 7.7206 5.37176 7.73592 4.52692C7.71048 3.69969 7.36847 2.91379 6.78047 2.33137C6.19247 1.74895 5.40335 1.41446 4.57591 1.39692C3.73745 1.39142 2.93032 1.71523 2.32814 2.2987C1.72597 2.88218 1.37686 3.6787 1.35591 4.51692H1.36591ZM4.52591 37.0869C5.37226 37.0871 6.18486 36.755 6.78891 36.1622C7.39296 35.5694 7.74019 34.7631 7.75591 33.9169C7.73796 33.0721 7.3937 32.2671 6.79528 31.6705C6.19686 31.074 5.39075 30.7322 4.54591 30.7169C3.71422 30.7372 2.9222 31.0767 2.33392 31.6649C1.74565 32.2532 1.4062 33.0452 1.38591 33.8769C1.3805 34.7161 1.70601 35.5237 2.29189 36.1245C2.87778 36.7254 3.67684 37.0712 4.51592 37.0869H4.52591Z" fill="#EF4C23"/>
<path d="M1.316 19.8669C0.725999 20.0169 0.686 19.6969 0.676 19.2169C0.666 18.7369 0.816003 18.5669 1.336 18.5469C1.856 18.5269 2.026 18.7269 2.036 19.2669C2.046 19.8069 1.756 19.9569 1.316 19.8669Z" fill="#EF4C23"/>
<path d="M19.276 0.7069C19.916 0.5369 19.846 0.9569 19.886 1.3869C19.926 1.8169 19.686 2.0069 19.206 2.0469C18.546 2.0469 18.586 1.7569 18.546 1.2869C18.496 0.6469 18.826 0.6369 19.276 0.7069Z" fill="#EF4C23"/>
<path d="M37.1061 19.8669C36.5961 19.9769 36.3961 19.8669 36.4061 19.2569C36.4161 18.6469 36.5661 18.5569 37.1161 18.5469C37.6661 18.5369 37.7661 18.7269 37.7661 19.2269C37.7661 19.7269 37.6661 20.0069 37.1061 19.8669Z" fill="#EF4C23"/>
<path d="M19.8761 37.1669C19.9961 37.6569 19.7561 37.7869 19.2261 37.7769C18.6961 37.7669 18.5361 37.6869 18.5461 37.1269C18.5561 36.5669 18.6661 36.3669 19.2461 36.4169C19.8261 36.4669 19.8761 36.3969 19.8761 37.1669Z" fill="#EF4C23"/>
<path d="M35.186 18.037C35.346 18.627 34.946 18.587 34.506 18.627C33.876 18.687 33.8759 18.367 33.8459 17.887C33.8459 17.207 34.196 17.307 34.626 17.257C35.306 17.187 35.206 17.607 35.186 18.037Z" fill="#EF4C23"/>
<path d="M37.7559 16.6269C37.8459 17.1069 37.7559 17.3869 37.1659 17.3669C36.5759 17.3469 36.4059 17.2969 36.4159 16.6769C36.4259 16.0569 36.5659 15.9869 37.0959 16.0169C37.6259 16.0469 37.9059 16.0069 37.7559 16.6269Z" fill="#EF4C23"/>
<path d="M3.93607 21.1569C3.35607 21.3069 3.22607 21.0669 3.22607 20.5469C3.22607 20.0269 3.30607 19.7869 3.90607 19.8269C4.50607 19.8669 4.62607 19.9169 4.58607 20.4769C4.54607 21.0369 4.57607 21.3969 3.93607 21.1569Z" fill="#EF4C23"/>
<path d="M35.1659 20.4969C35.3459 21.1469 35.0059 21.177 34.4959 21.207C33.9859 21.237 33.8759 20.987 33.8459 20.507C33.8159 20.027 34.0659 19.837 34.5759 19.827C35.0859 19.817 35.3259 19.9869 35.1659 20.4969Z" fill="#EF4C23"/>
<path d="M1.33602 22.397C0.796017 22.537 0.656018 22.317 0.666018 21.777C0.676018 21.237 0.746012 21.067 1.31601 21.077C1.88601 21.087 2.03601 21.2169 2.03601 21.7869C2.03601 22.3569 1.84602 22.517 1.33602 22.397Z" fill="#EF4C23"/>
<path d="M36.896 22.3969C36.356 22.5369 36.456 22.0969 36.406 21.6769C36.336 21.0469 36.706 21.1069 37.136 21.0569C37.816 20.9869 37.716 21.3969 37.766 21.8269C37.866 22.5969 37.376 22.3969 36.896 22.3969Z" fill="#EF4C23"/>
<path d="M16.046 1.39691C15.896 0.81691 16.1461 0.706909 16.6661 0.706909C17.1861 0.706909 17.366 0.806909 17.356 1.36691C17.346 1.92691 17.196 2.06691 16.636 2.07691C16.076 2.08691 15.906 1.85691 16.046 1.39691Z" fill="#EF4C23"/>
<path d="M22.3959 1.39691C22.5459 1.95691 22.2659 2.03691 21.7659 2.05691C21.2659 2.07691 21.1159 1.80691 21.0859 1.30691C21.0559 0.806907 21.3759 0.726908 21.8059 0.686908C22.4159 0.626908 22.5059 0.896908 22.3959 1.39691Z" fill="#EF4C23"/>
<path d="M18.5961 4.01694C18.7561 4.68694 18.2761 4.53694 17.8861 4.58694C17.2061 4.67694 17.2961 4.26694 17.2461 3.82694C17.1761 3.07694 17.6761 3.29694 18.0561 3.24694C18.7561 3.15694 18.6061 3.61694 18.5961 4.01694Z" fill="#EF4C23"/>
<path d="M19.8559 3.88695C19.6959 3.29695 20.0059 3.25695 20.4859 3.23695C20.9659 3.21695 21.1959 3.36695 21.1959 3.93695C21.1959 4.50695 21.0259 4.59695 20.5159 4.59695C20.0059 4.59695 19.6959 4.46695 19.8559 3.88695Z" fill="#EF4C23"/>
<path d="M2.00604 16.6769C2.13604 17.2469 1.86604 17.3469 1.35604 17.3669C0.846039 17.3869 0.686044 17.1669 0.666044 16.6369C0.646044 16.1069 0.926041 16.0369 1.36604 16.0169C1.80604 15.9969 2.14604 16.1269 2.00604 16.6769Z" fill="#EF4C23"/>
<path d="M17.926 35.1869C17.306 35.3569 17.266 35.0169 17.246 34.5069C17.226 33.9969 17.466 33.8769 17.946 33.8569C18.426 33.8369 18.606 34.0669 18.626 34.5869C18.646 35.1069 18.426 35.2969 17.926 35.1869Z" fill="#EF4C23"/>
<path d="M20.4961 35.1769C19.9161 35.3269 19.8261 35.0569 19.8161 34.5469C19.8061 34.0369 19.9861 33.8669 20.5261 33.8469C21.0661 33.8269 21.1661 34.1169 21.1961 34.6069C21.2261 35.0969 20.9561 35.2869 20.4961 35.1769Z" fill="#EF4C23"/>
<path d="M16.0359 37.0669C15.8959 36.4969 16.1759 36.4269 16.6859 36.4069C17.1959 36.3869 17.3359 36.5869 17.3559 37.0969C17.3759 37.6069 17.1459 37.7569 16.6259 37.7869C16.1059 37.8169 15.9459 37.5369 16.0359 37.0669Z" fill="#EF4C23"/>
<path d="M3.91599 18.5969C3.42599 18.7069 3.19598 18.5969 3.22598 17.9969C3.25598 17.3969 3.22599 17.2169 3.87599 17.2469C4.52599 17.2769 4.60598 17.3869 4.59598 17.9569C4.58598 18.5269 4.47599 18.7269 3.91599 18.5969Z" fill="#EF4C23"/>
<path d="M22.3961 37.0769C22.5461 37.6569 22.3061 37.7869 21.7761 37.7769C21.2461 37.7669 21.0761 37.6869 21.0861 37.1269C21.0961 36.5669 21.2361 36.4069 21.7961 36.4069C22.3561 36.4069 22.5461 36.5769 22.3961 37.0769Z" fill="#EF4C23"/>
<path d="M23.066 3.26691C23.626 3.12691 23.726 3.39691 23.736 3.90691C23.746 4.41691 23.526 4.57691 23.006 4.60691C22.486 4.63691 22.426 4.30691 22.386 3.87691C22.346 3.44691 22.536 3.13691 23.066 3.26691Z" fill="#EF4C23"/>
<path d="M16.016 34.5569C16.176 35.1669 15.846 35.1969 15.376 35.2169C14.906 35.2369 14.716 35.0669 14.696 34.5469C14.676 34.0269 14.916 33.8769 15.436 33.8469C15.956 33.8169 16.106 34.1169 16.016 34.5569Z" fill="#EF4C23"/>
<path d="M15.416 3.26694C15.996 3.10694 16.046 3.43694 16.046 3.91694C16.046 4.39694 15.976 4.60694 15.406 4.60694C14.836 4.60694 14.716 4.40694 14.696 3.87694C14.676 3.34694 14.906 3.15694 15.416 3.26694Z" fill="#EF4C23"/>
<path d="M34.5461 14.7469C35.0961 14.6069 35.2161 14.867 35.2161 15.387C35.2161 15.907 35.1261 16.0769 34.5661 16.0669C34.0061 16.0569 33.8261 15.9669 33.8361 15.3769C33.8461 14.7869 34.0161 14.6269 34.5461 14.7469Z" fill="#EF4C23"/>
<path d="M23.026 35.1869C22.436 35.3469 22.396 35.0169 22.386 34.5469C22.376 34.0769 22.466 33.8469 23.036 33.8469C23.606 33.8469 23.726 34.0469 23.736 34.5869C23.746 35.1269 23.526 35.2969 23.026 35.1869Z" fill="#EF4C23"/>
<path d="M3.89611 16.0269C3.34611 16.1669 3.21611 15.9369 3.22611 15.4069C3.23611 14.8769 3.29611 14.6969 3.87611 14.7069C4.45611 14.7169 4.5961 14.8469 4.5961 15.4169C4.5961 15.9869 4.40611 16.1369 3.89611 16.0269Z" fill="#EF4C23"/>
<path d="M3.906 22.3969C4.426 22.2769 4.59599 22.4569 4.59599 23.0069C4.59599 23.5569 4.406 23.6969 3.866 23.7169C3.326 23.7369 3.246 23.4769 3.226 23.0069C3.206 22.5369 3.366 22.2869 3.906 22.3969Z" fill="#EF4C23"/>
<path d="M35.176 23.0669C35.306 23.6069 35.086 23.7369 34.546 23.7469C34.006 23.7569 33.866 23.5569 33.836 23.0169C33.806 22.4769 34.116 22.4269 34.556 22.3969C34.996 22.3669 35.316 22.5169 35.176 23.0669Z" fill="#EF4C23"/>
<path d="M19.236 27.557H12.046C11.046 27.557 10.886 27.387 10.886 26.437V24.667C10.886 23.877 11.106 23.667 11.886 23.667C12.666 23.667 12.806 23.667 12.806 22.737C12.806 21.157 12.806 19.567 12.806 17.987C12.806 17.427 12.636 17.277 12.126 17.337C11.833 17.357 11.539 17.357 11.246 17.337C10.826 17.337 10.396 17.337 10.246 16.837C10.096 16.337 10.486 16.157 10.816 15.947L17.216 12.007C17.696 11.717 18.216 11.447 18.656 11.127C18.8166 11.0037 19.0135 10.9369 19.216 10.9369C19.4185 10.9369 19.6153 11.0037 19.776 11.127C22.386 12.747 25.006 14.347 27.616 15.957C27.946 16.157 28.306 16.377 28.146 16.857C27.986 17.337 27.606 17.327 27.206 17.347C26.806 17.367 26.026 17.117 25.716 17.447C25.406 17.777 25.626 18.447 25.616 18.957C25.616 20.337 25.616 21.717 25.616 23.097C25.616 23.507 25.686 23.677 26.156 23.667C27.466 23.667 27.536 23.747 27.546 25.037C27.546 25.557 27.546 26.037 27.546 26.597C27.546 27.347 27.326 27.597 26.546 27.597C24.126 27.567 21.686 27.557 19.236 27.557ZM13.236 15.997H25.126C23.596 15.057 22.126 14.277 20.796 13.287C20.3614 12.8666 19.7805 12.6316 19.176 12.6316C18.5714 12.6316 17.9905 12.8666 17.556 13.287C16.286 14.277 14.806 15.057 13.276 15.997H13.236ZM19.106 26.227C21.276 26.227 23.446 26.227 25.616 26.227C26.116 26.227 26.226 26.077 26.186 25.627C26.146 25.177 26.186 24.967 25.656 24.967C21.3426 24.967 17.0093 24.967 12.656 24.967C12.106 24.967 12.136 25.217 12.116 25.617C12.096 26.017 12.116 26.237 12.686 26.227C14.896 26.207 17.026 26.227 19.146 26.227H19.106ZM17.906 20.467V21.687C17.906 22.317 17.696 23.157 18.016 23.517C18.336 23.877 19.246 23.597 19.896 23.667C20.326 23.667 20.476 23.577 20.466 23.117C20.466 21.847 20.466 20.577 20.466 19.317C20.466 18.667 20.766 17.787 20.326 17.437C19.886 17.087 19.076 17.367 18.416 17.327C18.036 17.327 17.906 17.427 17.916 17.817C17.966 18.697 17.946 19.587 17.946 20.467H17.906ZM24.276 20.467V19.227C24.276 18.627 24.476 17.817 24.176 17.467C23.876 17.117 22.986 17.407 22.376 17.327C21.766 17.247 21.706 17.517 21.726 18.017C21.726 19.237 21.726 20.447 21.726 21.667C21.726 22.317 21.436 23.217 21.846 23.537C22.256 23.857 23.146 23.627 23.846 23.667C24.196 23.667 24.316 23.587 24.306 23.217C24.296 22.317 24.316 21.397 24.316 20.517L24.276 20.467ZM16.586 20.537C16.586 20.107 16.586 19.677 16.586 19.257C16.586 18.627 16.796 17.787 16.476 17.427C16.156 17.067 15.246 17.357 14.606 17.287C14.196 17.287 14.066 17.367 14.076 17.797C14.076 19.077 14.076 20.367 14.076 21.647C14.076 22.277 13.856 23.147 14.176 23.477C14.496 23.807 15.456 23.547 16.116 23.617C16.526 23.617 16.596 23.467 16.586 23.107C16.616 22.307 16.626 21.447 16.626 20.587L16.586 20.537Z" fill="#EF4C23"/>
<path d="M33.9261 2.61694C34.4861 2.47694 34.6561 2.74694 34.5761 3.26694C34.4961 3.78694 34.7261 3.95694 35.2061 3.87694C35.6861 3.79694 35.8461 4.06694 35.8661 4.55694C35.8861 5.04694 35.7461 5.27694 35.2361 5.17694C34.7261 5.07694 34.4761 5.35694 34.5761 5.87694C34.6761 6.39694 34.3761 6.48694 33.9161 6.49694C33.4561 6.50694 33.1561 6.43694 33.2661 5.88694C33.3761 5.33694 33.1261 5.06694 32.5461 5.17694C31.9661 5.28694 31.9161 5.02694 31.9261 4.54694C31.9361 4.06694 31.9261 3.77694 32.5361 3.87694C33.1461 3.97694 33.4061 3.82694 33.2661 3.18694C33.1261 2.54694 33.4661 2.52694 33.9261 2.61694Z" fill="#EF4C23"/>
<path d="M35.816 33.8669C35.956 34.4369 35.746 34.6769 35.206 34.5769C34.666 34.4769 34.496 34.6669 34.566 35.1969C34.566 35.3969 34.686 35.7369 34.446 35.8069C34.095 35.8967 33.7271 35.8967 33.376 35.8069C33.156 35.7469 33.256 35.3969 33.276 35.1869C33.336 34.6869 33.186 34.5169 32.656 34.5569C32.5136 34.5754 32.3688 34.5519 32.2395 34.4895C32.1101 34.4271 32.0017 34.3284 31.9275 34.2054C31.8532 34.0824 31.8164 33.9405 31.8215 33.7969C31.8266 33.6533 31.8733 33.5144 31.956 33.3969C32.106 33.0869 32.406 33.2269 32.616 33.2469C33.136 33.2469 33.356 33.1369 33.276 32.5969C33.196 32.0569 33.276 31.8769 33.886 31.8869C34.496 31.8969 34.666 32.0769 34.576 32.6169C34.486 33.1569 34.656 33.3169 35.176 33.2469C35.696 33.1769 36.056 33.2469 35.816 33.8669Z" fill="#EF4C23"/>
<path d="M6.46612 4.60696C6.57612 5.06696 6.37612 5.25696 5.89612 5.17696C5.41612 5.09696 5.03612 5.25696 5.16612 5.87696C5.29612 6.49696 5.00612 6.49696 4.52612 6.49696C4.04612 6.49696 3.75612 6.43696 3.86612 5.87696C3.97612 5.31696 3.70612 5.07696 3.13612 5.17696C2.56612 5.27696 2.57612 4.97696 2.58612 4.55696C2.59612 4.13696 2.58612 3.75696 3.15612 3.87696C3.72612 3.99696 3.95612 3.68696 3.86612 3.12696C3.77612 2.56696 4.22612 2.62696 4.59612 2.59696C4.96612 2.56696 5.26612 2.59696 5.17612 3.11696C5.08612 3.63696 5.29612 3.98696 5.91612 3.87696C6.53612 3.76696 6.49612 4.17696 6.46612 4.60696Z" fill="#EF4C23"/>
<path d="M4.46615 35.847C3.97615 35.977 3.77615 35.7269 3.86615 35.1969C3.95615 34.6669 3.73615 34.497 3.23615 34.577C2.73615 34.657 2.59615 34.4069 2.57615 33.9069C2.55615 33.4069 2.78615 33.197 3.26615 33.277C3.74615 33.357 3.90615 33.1269 3.87615 32.6469C3.87328 32.5099 3.90701 32.3746 3.97389 32.255C4.04076 32.1354 4.13835 32.0358 4.25658 31.9665C4.3748 31.8972 4.50938 31.8607 4.64643 31.8608C4.78347 31.8609 4.918 31.8975 5.03615 31.9669C5.30615 32.1269 5.17615 32.4269 5.15615 32.6469C5.15615 33.1169 5.21615 33.3369 5.76615 33.2869C5.90357 33.2734 6.04201 33.2991 6.16541 33.3611C6.28881 33.423 6.39211 33.5187 6.4633 33.637C6.5345 33.7553 6.57068 33.8914 6.56764 34.0295C6.56461 34.1675 6.52248 34.3019 6.44615 34.417C6.29615 34.717 5.99615 34.5969 5.77615 34.5669C5.25615 34.5069 5.12615 34.6969 5.15615 35.1969C5.20615 35.8469 5.16615 35.857 4.46615 35.847Z" fill="#EF4C23"/>
</svg>
