<svg width="41" height="41" viewBox="0 0 41 41" fill="none" xmlns="http://www.w3.org/2000/svg">
<path d="M0 16.1714C0.22 16.1714 0.189999 15.9314 0.209999 15.8014C0.506376 14.3281 1.10863 12.9335 1.97784 11.7076C2.84704 10.4817 3.96384 9.45181 5.25603 8.6846C6.54822 7.91739 7.98703 7.4299 9.47944 7.25365C10.9719 7.0774 12.4846 7.21631 13.92 7.6614C14.04 7.6614 14.14 7.7714 14.3 7.6614C14.3 5.3414 14.3 3.0014 14.3 0.661402C14.3 0.171402 14.37 0.00140183 14.93 0.00140183C20.72 0.00140183 26.52 0.00140183 32.32 0.00140183C32.4948 -0.00702157 32.6694 0.022592 32.8317 0.0881976C32.994 0.153803 33.1401 0.25384 33.26 0.381403C35.6067 2.83474 37.98 5.2614 40.38 7.6614C40.473 7.74785 40.5461 7.85338 40.5944 7.97075C40.6428 8.08813 40.6651 8.21457 40.66 8.3414C40.66 17.3747 40.66 26.4114 40.66 35.4514C40.66 35.7714 40.59 35.8914 40.24 35.8914C31.7333 35.8914 23.22 35.8914 14.7 35.8914C14.29 35.8914 14.26 35.7314 14.27 35.4014C14.27 33.2014 14.27 31.0014 14.27 28.8014V28.1614C13.57 28.3114 12.92 28.4814 12.27 28.5914C11.87 28.6614 11.96 28.9314 11.96 29.1714V39.6614C11.96 40.8214 11.96 40.8214 10.82 40.8214C9.52 40.8214 9.52 40.8214 9.52 39.5214C9.52 36.1114 9.52 32.6914 9.52 29.2714C9.52 28.8014 9.35999 28.6514 8.93999 28.5914C6.80055 28.2374 4.81915 27.2418 3.25834 25.7363C1.69752 24.2308 0.630966 22.2867 0.199997 20.1614C0.199997 20.0114 0.2 19.7814 0 19.7014V16.1714ZM27.45 33.4514H37.76C38.13 33.4514 38.27 33.3914 38.27 32.9714C38.27 25.3647 38.27 17.7481 38.27 10.1214C38.27 9.7114 38.13 9.6414 37.76 9.6514C35.76 9.6514 33.68 9.6514 31.65 9.6514C31.2 9.6514 31.07 9.5314 31.08 9.0814C31.08 7.0814 31.08 5.0014 31.08 2.9614C31.08 2.6014 31.02 2.4514 30.6 2.4514C26.1067 2.4514 21.61 2.4514 17.11 2.4514C16.69 2.4514 16.64 2.6014 16.64 2.9614C16.64 4.8414 16.64 6.7214 16.64 8.6014C16.6316 8.7255 16.6569 8.84957 16.7132 8.96047C16.7696 9.07138 16.8548 9.16498 16.96 9.2314C18.3525 10.2161 19.4895 11.5194 20.2761 13.0327C21.0627 14.546 21.4762 16.2254 21.4821 17.9309C21.488 19.6365 21.086 21.3187 20.3099 22.8373C19.5337 24.356 18.4057 25.6671 17.02 26.6614C16.8978 26.7398 16.7995 26.8503 16.736 26.9808C16.6725 27.1114 16.6462 27.2569 16.66 27.4014C16.66 29.2414 16.66 31.0814 16.66 32.9114C16.66 33.3514 16.74 33.4814 17.2 33.4714C20.62 33.4414 24.04 33.4514 27.45 33.4514ZM10.72 9.6614C9.07602 9.66537 7.47015 10.1569 6.10558 11.0737C4.741 11.9906 3.67902 13.2916 3.05402 14.8121C2.42901 16.3327 2.26906 18.0044 2.5944 19.6159C2.91974 21.2274 3.71574 22.7061 4.88171 23.8651C6.04768 25.0241 7.53121 25.8112 9.14461 26.1268C10.758 26.4424 12.4288 26.2724 13.9455 25.6383C15.4623 25.0041 16.7569 23.9343 17.6655 22.5642C18.5741 21.1942 19.0559 19.5854 19.05 17.9414C19.0421 15.7392 18.1603 13.6302 16.5984 12.0777C15.0365 10.5251 12.9222 9.65609 10.72 9.6614ZM33.52 4.2714V6.9614C33.52 7.1214 33.52 7.2314 33.75 7.2314H36.42L33.52 4.2714Z" fill="#EF4C23"/>
<path d="M28.7501 26.3414C26.9301 26.3414 25.1101 26.3414 23.3001 26.3414C22.8801 26.3414 22.7401 26.2414 22.7701 25.8214C22.8201 25.2014 22.5601 24.3714 22.8701 24.0214C23.1801 23.6714 24.0701 23.9014 24.7001 23.9014C27.8601 23.9014 31.0101 23.9014 34.1601 23.9014C34.6001 23.9014 34.7801 23.9914 34.7401 24.4614C34.7052 24.9408 34.7052 25.422 34.7401 25.9014C34.7401 26.2714 34.6101 26.3614 34.2501 26.3614L28.7501 26.3414Z" fill="#EF4C23"/>
<path d="M29.3501 21.5614C27.7101 21.5614 26.0801 21.5614 24.4401 21.5614C24.0701 21.5614 23.9501 21.4814 23.9701 21.1014C23.9701 20.5614 23.9701 20.0214 23.9701 19.4914C23.9701 19.2314 24.0301 19.1414 24.3001 19.1414C27.6501 19.1414 31.0101 19.1414 34.3601 19.1414C34.6001 19.1414 34.7301 19.2014 34.7201 19.4714C34.7201 20.0314 34.7201 20.5914 34.7201 21.1514C34.7201 21.5314 34.5601 21.5614 34.2501 21.5614H29.3501Z" fill="#EF4C23"/>
<path d="M29.8602 16.7714C28.4602 16.7714 27.0601 16.7714 25.6601 16.7714C25.3001 16.7714 25.1201 16.7214 25.1601 16.3014C25.2301 15.6714 24.9002 14.8214 25.2902 14.4714C25.6802 14.1214 26.4702 14.3714 27.0802 14.3714C29.4402 14.3714 31.8001 14.3714 34.1601 14.3714C34.5801 14.3714 34.7801 14.4314 34.7301 14.9114C34.6801 15.3914 34.9302 16.3014 34.6302 16.6514C34.3302 17.0014 33.4702 16.7614 32.8602 16.7714C31.8602 16.7914 30.8602 16.7714 29.8602 16.7714Z" fill="#EF4C23"/>
<path d="M11.9202 16.7714C11.9202 18.1714 11.9202 19.5714 11.9202 20.9714C11.9202 21.4214 11.8402 21.6214 11.3402 21.5814C10.8402 21.5414 9.95018 21.7714 9.60018 21.4714C9.25018 21.1714 9.48018 20.3014 9.48018 19.6914C9.48018 17.3314 9.48018 14.9814 9.48018 12.6214C9.48018 12.1414 9.57018 11.9314 10.0902 11.9814C10.5493 12.0211 11.011 12.0211 11.4702 11.9814C11.8502 11.9814 11.9402 12.0914 11.9402 12.4614C11.9202 13.8914 11.9202 15.3314 11.9202 16.7714Z" fill="#EF4C23"/>
<path d="M16.67 17.9714C16.67 18.9714 16.67 20.0514 16.67 21.0914C16.67 21.4914 16.55 21.5914 16.17 21.5714C15.79 21.5514 15.17 21.5714 14.67 21.5714C14.36 21.5714 14.25 21.5114 14.25 21.1814C14.25 19.0414 14.25 16.9014 14.25 14.7614C14.25 14.4314 14.37 14.3514 14.67 14.3714C15.32 14.4314 16.17 14.1114 16.56 14.5014C16.95 14.8914 16.65 15.6714 16.66 16.2914L16.67 17.9714Z" fill="#EF4C23"/>
<path d="M4.76021 19.1114C4.76021 18.4614 4.76021 17.8014 4.76021 17.1114C4.76021 16.8314 4.83021 16.7214 5.12021 16.7414C5.70021 16.7414 6.28021 16.7414 6.86021 16.7414C7.13021 16.7414 7.1902 16.8314 7.1902 17.0914C7.1902 18.4414 7.1902 19.8014 7.1902 21.1514C7.1902 21.4914 7.0502 21.5514 6.7602 21.5414C6.2502 21.5414 5.76021 21.5414 5.21021 21.5414C4.66021 21.5414 4.75021 21.4014 4.76021 21.0614C4.77021 20.4314 4.76021 19.7714 4.76021 19.1114Z" fill="#EF4C23"/>
</svg>
