<svg width="41" height="41" viewBox="0 0 41 41" fill="none" xmlns="http://www.w3.org/2000/svg">
<path d="M2.03009 7.37C1.98496 9.09646 2.45116 10.7977 3.37009 12.26C3.73009 12.83 4.24009 13.01 4.66009 12.7C5.08009 12.39 5.06009 11.88 4.76009 11.39C3.80109 9.90142 3.45202 8.10076 3.78532 6.36166C4.11862 4.62256 5.10869 3.07855 6.55009 2.05C7.00009 1.71 7.27009 1.34 6.93009 0.790001C6.59009 0.240001 6.13009 0.320004 5.57009 0.730004C4.50718 1.48809 3.63439 2.48215 3.02019 3.63421C2.406 4.78626 2.0671 6.06497 2.03009 7.37ZM38.8501 7.51C38.8297 6.18102 38.4979 4.87535 37.8813 3.69786C37.2648 2.52037 36.3807 1.50387 35.3001 0.730004C34.7501 0.310004 34.2401 0.340003 33.9501 0.800003C33.6601 1.26 33.8901 1.72001 34.3301 2.06001C35.7739 3.08689 36.7652 4.63188 37.0969 6.37232C37.4286 8.11276 37.075 9.91406 36.1101 11.4C35.8101 11.89 35.7101 12.32 36.2301 12.7C36.7501 13.08 37.1501 12.82 37.5101 12.25C38.3864 10.8262 38.8374 9.18162 38.8101 7.51H38.8501ZM5.65009 7.29C5.589 8.44392 5.87458 9.58973 6.47009 10.58C6.82009 11.15 7.25009 11.31 7.69009 11.04C8.13009 10.77 8.23009 10.34 7.90009 9.76C7.36686 8.90836 7.17368 7.88723 7.35897 6.89967C7.54425 5.9121 8.09443 5.03044 8.90009 4.43C9.09009 4.27 9.31009 4.14 9.37009 3.87C9.42774 3.70803 9.42952 3.53142 9.37515 3.36832C9.32079 3.20521 9.21339 3.06499 9.07009 2.97C8.9131 2.8559 8.72108 2.80042 8.52743 2.81321C8.33377 2.826 8.15072 2.90624 8.01009 3.04C7.31464 3.51744 6.73951 4.1498 6.32998 4.88729C5.92046 5.62478 5.68772 6.44727 5.65009 7.29ZM35.2201 8.04C35.2746 7.0943 35.0983 6.14953 34.7063 5.28717C34.3143 4.42481 33.7185 3.67074 32.9701 3.09C32.4601 2.72 31.9701 2.72 31.6601 3.09C31.3501 3.46 31.4901 3.96 31.9201 4.32C32.7499 4.92292 33.3164 5.82159 33.5025 6.83029C33.6886 7.839 33.4801 8.88066 32.9201 9.74001C32.6201 10.3 32.7101 10.74 33.1901 11.01C33.6701 11.28 34.0801 11.01 34.3601 10.55C34.8615 9.80302 35.158 8.93751 35.2201 8.04Z" fill="#EF4C23"/>
<path d="M0 16.47C0.183745 15.9721 0.508612 15.5386 0.934856 15.2225C1.3611 14.9063 1.87024 14.7213 2.4 14.69C2.94654 14.6783 3.48207 14.8446 3.92581 15.1639C4.36955 15.4831 4.69743 15.938 4.86 16.46C5.02468 16.9783 5.01072 17.5369 4.82035 18.0463C4.62999 18.5558 4.27423 18.9866 3.81 19.27C3.64011 19.3437 3.50019 19.4728 3.41304 19.6363C3.32588 19.7997 3.29661 19.9878 3.33 20.17C3.43686 23.0013 4.22222 25.7655 5.62 28.23C5.68579 28.3921 5.80483 28.527 5.95751 28.6124C6.1102 28.6978 6.28742 28.7287 6.46 28.7C6.87269 28.6496 7.2914 28.7063 7.67576 28.8648C8.06013 29.0233 8.39719 29.2781 8.65445 29.6047C8.9117 29.9313 9.08048 30.3186 9.14451 30.7294C9.20854 31.1402 9.16566 31.5606 9.02 31.95C8.97249 32.0612 8.96443 32.1853 8.99717 32.3017C9.02992 32.4181 9.10148 32.5198 9.2 32.59C11.4404 34.5412 14.1486 35.878 17.06 36.47C17.2077 36.5124 17.3646 36.5115 17.5118 36.4671C17.659 36.4228 17.7903 36.337 17.89 36.22C18.5 35.58 19.13 34.96 19.76 34.34C19.842 34.2224 19.9512 34.1263 20.0783 34.06C20.2054 33.9937 20.3466 33.9591 20.49 33.9591C20.6334 33.9591 20.7746 33.9937 20.9017 34.06C21.0288 34.1263 21.138 34.2224 21.22 34.34C21.87 34.97 22.51 35.62 23.14 36.27C23.2226 36.3737 23.3344 36.4502 23.4611 36.4894C23.5877 36.5287 23.7233 36.5289 23.85 36.49C26.773 35.897 29.4898 34.549 31.73 32.58C31.8271 32.5087 31.8976 32.4069 31.9302 32.291C31.9628 32.175 31.9557 32.0514 31.91 31.94C31.76 31.5445 31.7163 31.1165 31.7833 30.6989C31.8502 30.2812 32.0255 29.8884 32.2916 29.5596C32.5577 29.2308 32.9053 28.9775 33.2998 28.8249C33.6943 28.6723 34.1219 28.6258 34.54 28.69C34.6912 28.7122 34.8454 28.6828 34.9778 28.6066C35.1103 28.5304 35.2132 28.4118 35.27 28.27C36.7061 25.7721 37.5062 22.9597 37.6 20.08C37.6265 19.9191 37.5998 19.754 37.524 19.6096C37.4482 19.4653 37.3274 19.3495 37.18 19.28C36.6869 19.015 36.3014 18.5866 36.0898 18.0684C35.8781 17.5501 35.8534 16.9744 36.02 16.44C36.1777 15.9287 36.4947 15.4813 36.9246 15.1629C37.3546 14.8445 37.875 14.6718 38.41 14.67C38.9521 14.665 39.4808 14.8386 39.9146 15.1639C40.3483 15.4892 40.663 15.9481 40.81 16.47C40.9794 17.0032 40.9572 17.5788 40.7472 18.0974C40.5372 18.6159 40.1527 19.0448 39.66 19.31C39.5325 19.3678 39.4253 19.4626 39.3522 19.582C39.2791 19.7015 39.2435 19.8401 39.25 19.98C39.2085 23.2743 38.2903 26.4981 36.59 29.32C36.5014 29.4319 36.4476 29.5673 36.4351 29.7095C36.4227 29.8517 36.4522 29.9944 36.52 30.12C36.7289 30.5396 36.8082 31.0119 36.7476 31.4768C36.6871 31.9416 36.4895 32.3779 36.18 32.73C35.8946 33.1003 35.5052 33.3771 35.0617 33.525C34.6181 33.6728 34.1405 33.685 33.69 33.56C33.5448 33.5163 33.3904 33.5138 33.2439 33.5526C33.0974 33.5915 32.9645 33.6702 32.86 33.78C30.3704 36.0071 27.3152 37.5053 24.03 38.11C23.6443 38.1624 23.2899 38.3502 23.03 38.64C22.44 39.26 21.83 39.86 21.22 40.47C20.61 41.08 20.22 41.09 19.73 40.47C18.4699 38.971 16.7328 37.9507 14.81 37.58C12.3028 36.922 10.0019 35.6426 8.12 33.86C8.01085 33.7379 7.86911 33.6495 7.71145 33.6052C7.55379 33.5609 7.38676 33.5626 7.23 33.61C6.77919 33.7363 6.30063 33.7227 5.85774 33.5709C5.41485 33.4191 5.02854 33.1363 4.75 32.76C4.44536 32.4047 4.25323 31.9669 4.19803 31.5021C4.14283 31.0374 4.22706 30.5667 4.44 30.15C4.50244 30.0322 4.52996 29.8991 4.51933 29.7662C4.5087 29.6334 4.46037 29.5063 4.38 29.4C2.66554 26.5638 1.73387 23.3236 1.68 20.01C1.68 19.82 1.76 19.6 1.49 19.49C0.827625 19.1466 0.312386 18.5745 0.0400009 17.88L0 16.47ZM20.45 38.89L20.91 38.45C21.91 37.45 21.91 37.45 20.91 36.38C20.57 36.03 20.36 35.95 19.98 36.38C18.98 37.46 18.93 37.44 19.98 38.51C20.14 38.58 20.29 38.74 20.45 38.89ZM3.3 17.22C3.30562 17.1025 3.28678 16.9851 3.24467 16.8752C3.20257 16.7653 3.13812 16.6654 3.0554 16.5818C2.97268 16.4981 2.87349 16.4325 2.76412 16.3892C2.65475 16.3458 2.53757 16.3257 2.42 16.33C2.31229 16.3324 2.2062 16.3567 2.10808 16.4011C2.00996 16.4456 1.92183 16.5095 1.84899 16.5889C1.77615 16.6682 1.72009 16.7615 1.68418 16.8631C1.64827 16.9647 1.63324 17.0724 1.64 17.18C1.63638 17.2934 1.65725 17.4063 1.70118 17.5109C1.74511 17.6156 1.81107 17.7095 1.89458 17.7864C1.97809 17.8633 2.07718 17.9212 2.1851 17.9564C2.29302 17.9915 2.40725 18.003 2.52 17.99C2.62196 17.9913 2.72316 17.9724 2.81774 17.9343C2.91232 17.8961 2.99839 17.8396 3.07095 17.768C3.14351 17.6964 3.20113 17.611 3.24045 17.517C3.27977 17.4229 3.30001 17.3219 3.3 17.22ZM38.38 18C38.488 18.0067 38.5963 17.9917 38.6984 17.9559C38.8006 17.9201 38.8945 17.8642 38.9747 17.7915C39.0548 17.7188 39.1196 17.6308 39.1652 17.5326C39.2108 17.4344 39.2362 17.3281 39.24 17.22C39.2482 17.1077 39.2334 16.9949 39.1966 16.8886C39.1598 16.7822 39.1018 16.6844 39.026 16.6011C38.9503 16.5179 38.8583 16.4509 38.7559 16.4043C38.6534 16.3577 38.5425 16.3324 38.43 16.33C38.3172 16.3258 38.2048 16.3449 38.0998 16.3861C37.9948 16.4273 37.8994 16.4898 37.8196 16.5696C37.7398 16.6494 37.6774 16.7447 37.6361 16.8498C37.5949 16.9548 37.5758 17.0672 37.58 17.18C37.5759 17.2871 37.5937 17.3939 37.6322 17.4939C37.6707 17.5939 37.7291 17.685 37.804 17.7617C37.8788 17.8384 37.9685 17.8991 38.0675 17.9401C38.1665 17.981 38.2728 18.0014 38.38 18ZM6.61 30.31C6.49685 30.3134 6.38564 30.3403 6.28337 30.3888C6.18111 30.4373 6.09 30.5065 6.01579 30.592C5.94158 30.6775 5.88587 30.7774 5.85217 30.8855C5.81848 30.9936 5.80752 31.1075 5.82 31.22C5.81758 31.3283 5.83867 31.4359 5.88182 31.5353C5.92496 31.6347 5.98913 31.7236 6.06991 31.7958C6.15069 31.868 6.24617 31.9219 6.34976 31.9537C6.45336 31.9855 6.56261 31.9944 6.67 31.98C6.77796 31.9844 6.88565 31.9661 6.98606 31.9262C7.08648 31.8863 7.17737 31.8257 7.25282 31.7483C7.32828 31.671 7.38661 31.5786 7.42403 31.4773C7.46144 31.3759 7.47711 31.2678 7.47 31.16C7.47281 31.0467 7.4524 30.9341 7.41005 30.8291C7.36769 30.724 7.30428 30.6287 7.22371 30.5491C7.14315 30.4695 7.04714 30.4072 6.94159 30.3661C6.83605 30.3249 6.7232 30.3058 6.61 30.31ZM34.29 30.31C34.1711 30.304 34.0524 30.3233 33.9415 30.3667C33.8307 30.4101 33.7304 30.4765 33.6472 30.5616C33.564 30.6467 33.4998 30.7485 33.4589 30.8603C33.418 30.9721 33.4014 31.0913 33.41 31.21C33.4094 31.3182 33.4316 31.4253 33.4752 31.5244C33.5188 31.6234 33.5828 31.7121 33.663 31.7848C33.7432 31.8575 33.8379 31.9124 33.9407 31.946C34.0436 31.9796 34.1524 31.9912 34.26 31.98C34.3736 31.9856 34.487 31.966 34.592 31.9226C34.6971 31.8791 34.7913 31.813 34.8678 31.7289C34.9443 31.6447 35.0012 31.5447 35.0344 31.436C35.0676 31.3272 35.0764 31.2125 35.06 31.1C35.0601 30.8939 34.9796 30.6959 34.8357 30.5483C34.6919 30.4007 34.496 30.3152 34.29 30.31Z" fill="#EF4C23"/>
<path d="M21.5901 0.0400009C22.039 0.220631 22.5097 0.341661 22.9901 0.400002C24.421 0.775806 25.7492 1.46849 26.8763 2.42683C28.0035 3.38516 28.9007 4.58462 29.5018 5.9365C30.1028 7.28838 30.3923 8.75808 30.3487 10.2369C30.3051 11.7157 29.9297 13.1659 29.2501 14.48C28.2634 16.2544 27.4945 18.1414 26.9601 20.1C26.8035 20.8295 26.7264 21.5739 26.7301 22.32C26.7301 23.86 26.7301 25.4 26.7301 26.93C26.7559 27.2372 26.7144 27.5464 26.6084 27.836C26.5025 28.1255 26.3346 28.3885 26.1166 28.6065C25.8986 28.8245 25.6356 28.9924 25.3461 29.0983C25.0565 29.2043 24.7473 29.2458 24.4401 29.22H16.4401C16.1338 29.2456 15.8255 29.2043 15.5367 29.0989C15.2479 28.9935 14.9855 28.8266 14.7677 28.6097C14.5498 28.3928 14.3818 28.1311 14.2751 27.8428C14.1685 27.5545 14.1258 27.2465 14.1501 26.94C14.1501 25.94 14.0801 24.85 14.1501 23.82C14.2999 20.8438 13.5658 17.8898 12.0401 15.33C10.755 13.2379 10.2651 10.7533 10.6601 8.33C10.9596 6.3688 11.8491 4.54527 13.2103 3.10193C14.5715 1.65859 16.3398 0.663846 18.2801 0.25C18.5201 0.19 18.8201 0.25 19.0001 0H19.6801C19.9164 0.104134 20.1718 0.157913 20.4301 0.157913C20.6883 0.157913 20.9438 0.104134 21.1801 0L21.5901 0.0400009ZM20.4001 27.58C21.6901 27.58 22.9801 27.58 24.2701 27.58C24.8401 27.58 25.1001 27.41 25.0901 26.81C25.0901 25.81 25.0901 24.81 25.0901 23.81C25.0901 23.41 24.9501 23.29 24.5801 23.33C24.4014 23.3602 24.2188 23.3602 24.0401 23.33C23.9382 23.3165 23.84 23.2829 23.7511 23.2313C23.6622 23.1797 23.5844 23.1111 23.5221 23.0293C23.4599 22.9475 23.4144 22.8542 23.3883 22.7548C23.3622 22.6554 23.356 22.5518 23.3701 22.45C23.3727 22.3528 23.3944 22.2571 23.434 22.1683C23.4736 22.0795 23.5303 21.9994 23.6009 21.9325C23.6715 21.8657 23.7545 21.8134 23.8453 21.7786C23.9361 21.7439 24.0329 21.7273 24.1301 21.73C24.2864 21.7151 24.4438 21.7151 24.6001 21.73C24.9801 21.78 25.1201 21.63 25.1301 21.25C25.1751 20.4821 25.3162 19.7228 25.5501 18.99C26.1951 17.0654 26.9944 15.196 27.9401 13.4C28.4946 12.2133 28.7567 10.9109 28.7044 9.6021C28.6522 8.29325 28.2872 7.01596 27.64 5.87716C26.9927 4.73836 26.0821 3.77119 24.9843 3.05661C23.8864 2.34203 22.6334 1.90085 21.3301 1.77C19.8722 1.57061 18.3876 1.78341 17.0444 2.38432C15.7012 2.98522 14.5531 3.9502 13.7301 5.17C12.8331 6.34709 12.2876 7.75401 12.1567 9.2281C12.0257 10.7022 12.3147 12.1832 12.9901 13.5C14.1901 16.06 15.5601 18.5 15.7701 21.43C15.7701 21.67 15.9101 21.73 16.1201 21.73C16.3663 21.7099 16.6138 21.7099 16.8601 21.73C17.0209 21.7465 17.1714 21.8166 17.2875 21.9291C17.4036 22.0416 17.4785 22.1898 17.5001 22.35C17.5314 22.4932 17.5218 22.6423 17.4722 22.7803C17.4227 22.9182 17.3353 23.0394 17.2201 23.13C17.1039 23.224 16.9682 23.2907 16.8228 23.3253C16.6774 23.36 16.5262 23.3615 16.3801 23.33C15.8901 23.26 15.7701 23.47 15.7901 23.93C15.7901 24.93 15.7901 25.88 15.7901 26.85C15.7901 27.37 16.0001 27.58 16.5301 27.57C17.8101 27.58 19.1101 27.58 20.4001 27.58Z" fill="#EF4C23"/>
<path d="M21.1899 0.039978C20.9536 0.144112 20.6982 0.197891 20.4399 0.197891C20.1817 0.197891 19.9263 0.144112 19.6899 0.039978H21.1899Z" fill="#EF4C23"/>
<path d="M2.0299 7.36997C2.0669 6.06494 2.4058 4.78623 3.02 3.63417C3.6342 2.48212 4.50699 1.48805 5.5699 0.729966C6.1299 0.319966 6.6399 0.339964 6.9299 0.789964C7.2199 1.23996 6.9999 1.70997 6.5499 2.04997C5.11659 3.08599 4.13654 4.63348 3.81264 6.3721C3.48875 8.11072 3.8458 9.90732 4.8099 11.39C5.1099 11.88 5.2199 12.31 4.7099 12.7C4.1999 13.09 3.7799 12.83 3.4199 12.26C2.48338 10.8032 1.99968 9.10153 2.0299 7.36997Z" fill="#EF4C23"/>
<path d="M38.81 7.51C38.8253 9.18557 38.3603 10.8305 37.47 12.25C37.11 12.82 36.6 13.01 36.19 12.7C35.78 12.39 35.77 11.89 36.07 11.4C37.0349 9.91406 37.3885 8.11276 37.0568 6.37232C36.7251 4.63188 35.7338 3.08689 34.29 2.06001C33.85 1.72001 33.56 1.35 33.91 0.800005C34.26 0.250005 34.71 0.310005 35.26 0.730005C36.3406 1.50387 37.2247 2.52037 37.8412 3.69786C38.4577 4.87535 38.7895 6.18102 38.81 7.51Z" fill="#EF4C23"/>
<path d="M5.64994 7.29C5.68529 6.449 5.91496 5.62762 6.32094 4.89026C6.72693 4.15289 7.29819 3.51959 7.98994 3.04C8.13057 2.90624 8.31362 2.82599 8.50727 2.81321C8.70093 2.80042 8.89295 2.8559 9.04994 2.97C9.19325 3.06499 9.30063 3.20521 9.355 3.36831C9.40937 3.53142 9.40759 3.70803 9.34994 3.87C9.28994 4.14 9.06994 4.27 8.87994 4.43C8.07428 5.03043 7.5241 5.9121 7.33882 6.89966C7.15353 7.88723 7.34671 8.90836 7.87994 9.76C8.20994 10.34 8.13994 10.76 7.66994 11.04C7.19994 11.32 6.79994 11.15 6.44994 10.58C5.86141 9.58754 5.58283 8.44188 5.64994 7.29Z" fill="#EF4C23"/>
<path d="M35.2199 8.03998C35.172 8.94501 34.8856 9.82129 34.3899 10.58C34.1099 11.03 33.7599 11.31 33.2199 11.04C32.6799 10.77 32.6499 10.33 32.9499 9.76998C33.5099 8.91063 33.7184 7.86897 33.5323 6.86027C33.3462 5.85156 32.7797 4.95289 31.9499 4.34997C31.5199 3.98997 31.3599 3.59998 31.6899 3.11998C32.0199 2.63998 32.4899 2.69998 32.9999 3.11998C33.7385 3.70096 34.3259 4.45158 34.7124 5.30811C35.0989 6.16464 35.273 7.10179 35.2199 8.03998Z" fill="#EF4C23"/>
<path d="M22.7199 11.07C22.7226 11.7313 22.4631 12.3667 21.9983 12.8372C21.5335 13.3076 20.9012 13.5747 20.2399 13.58C19.5959 13.562 18.9838 13.2962 18.531 12.8378C18.0783 12.3795 17.82 11.7641 17.8099 11.12C17.7993 10.7944 17.8534 10.47 17.9691 10.1655C18.0848 9.86104 18.2598 9.58258 18.484 9.34628C18.7082 9.10999 18.9771 8.92058 19.2751 8.78903C19.5731 8.65749 19.8942 8.58643 20.2199 8.57998C20.5489 8.5746 20.8755 8.63526 21.1806 8.75837C21.4857 8.88147 21.763 9.06452 21.9961 9.29668C22.2292 9.52885 22.4133 9.8054 22.5377 10.11C22.662 10.4146 22.724 10.741 22.7199 11.07ZM21.0799 11.07C21.0874 10.9582 21.0708 10.8461 21.0311 10.7413C20.9914 10.6365 20.9296 10.5415 20.8499 10.4627C20.7702 10.3839 20.6745 10.3233 20.5692 10.2848C20.4639 10.2464 20.3516 10.2311 20.2399 10.24C20.1266 10.2318 20.013 10.2488 19.907 10.2897C19.8011 10.3306 19.7055 10.3944 19.6271 10.4766C19.5487 10.5588 19.4895 10.6573 19.4537 10.7651C19.4179 10.8729 19.4063 10.9872 19.4199 11.1C19.4141 11.2079 19.4311 11.3158 19.4698 11.4166C19.5085 11.5175 19.5679 11.6092 19.6443 11.6855C19.7207 11.7619 19.8124 11.8214 19.9132 11.8601C20.0141 11.8987 20.122 11.9157 20.2299 11.91C20.3424 11.9204 20.4558 11.9062 20.5623 11.8685C20.6688 11.8307 20.7658 11.7703 20.8467 11.6914C20.9275 11.6124 20.9902 11.5169 21.0305 11.4113C21.0708 11.3057 21.0876 11.1927 21.0799 11.08V11.07Z" fill="#EF4C23"/>
<path d="M24.59 6.57995C24.6985 6.57694 24.8064 6.59659 24.9068 6.63764C25.0072 6.67869 25.098 6.74024 25.1732 6.81835C25.2485 6.89647 25.3067 6.98942 25.344 7.09129C25.3814 7.19315 25.397 7.30169 25.39 7.40995C25.39 7.74995 25.39 7.99995 25.81 8.18995C25.9401 8.24841 26.0506 8.34322 26.128 8.46297C26.2055 8.58272 26.2467 8.72232 26.2467 8.86495C26.2467 9.00759 26.2055 9.14718 26.128 9.26693C26.0506 9.38669 25.9401 9.48149 25.81 9.53995C25.41 9.70995 25.4 9.92995 25.4 10.26C25.4 11.14 25.4 12.02 25.4 12.9C25.4 13.47 25.15 13.82 24.56 13.81C23.97 13.8 23.78 13.44 23.78 12.91C23.78 11.99 23.78 11.06 23.78 10.13C23.78 9.80995 23.67 9.68995 23.39 9.54995C23.261 9.48794 23.1521 9.39074 23.0759 9.26955C22.9997 9.14836 22.9592 9.00812 22.9592 8.86495C22.9592 8.72179 22.9997 8.58154 23.0759 8.46035C23.1521 8.33916 23.261 8.24196 23.39 8.17995C23.5315 8.12638 23.6498 8.02517 23.7246 7.89375C23.7995 7.76233 23.8261 7.60892 23.8 7.45995C23.7889 7.3492 23.801 7.23736 23.8355 7.13156C23.8701 7.02575 23.9264 6.92833 24.0007 6.84551C24.0751 6.76268 24.1659 6.69629 24.2673 6.65056C24.3688 6.60483 24.4787 6.58078 24.59 6.57995Z" fill="#EF4C23"/>
<path d="M16.8099 10.22C16.8099 11.08 16.8099 11.94 16.8099 12.79C16.8099 13.32 16.6299 13.73 16.0199 13.79C15.4099 13.85 15.1699 13.48 15.1599 12.79C15.1599 11.03 15.1599 9.26998 15.1599 7.51998C15.1599 6.98998 15.3499 6.57998 15.9599 6.51998C16.5699 6.45998 16.7999 6.83998 16.8099 7.51998C16.8099 8.41998 16.8099 9.31997 16.8099 10.22Z" fill="#EF4C23"/>
<path d="M21.26 22.51C21.2654 22.6192 21.2485 22.7284 21.2101 22.8308C21.1717 22.9332 21.1128 23.0266 21.0368 23.1054C20.9609 23.1841 20.8697 23.2464 20.7688 23.2885C20.6678 23.3306 20.5593 23.3515 20.45 23.35C20.3418 23.3587 20.233 23.3442 20.1309 23.3074C20.0288 23.2705 19.9357 23.2122 19.8581 23.1364C19.7804 23.0606 19.7198 22.9691 19.6805 22.8679C19.6411 22.7668 19.6239 22.6584 19.63 22.55C19.6195 22.4427 19.6326 22.3345 19.6683 22.2328C19.704 22.1312 19.7615 22.0385 19.8367 21.9614C19.9119 21.8842 20.0031 21.8244 20.1039 21.7862C20.2046 21.748 20.3125 21.7322 20.42 21.74C20.5265 21.7318 20.6336 21.7455 20.7346 21.7804C20.8356 21.8152 20.9283 21.8705 21.0071 21.9427C21.0858 22.0149 21.1489 22.1025 21.1924 22.2001C21.2359 22.2977 21.2589 22.4031 21.26 22.51Z" fill="#EF4C23"/>
</svg>
