<svg width="40" height="40" viewBox="0 0 40 40" fill="none" xmlns="http://www.w3.org/2000/svg">
<path d="M38.119 13.2323C39.599 13.6423 39.599 13.6422 39.599 15.1322C39.599 16.0422 39.599 16.9423 39.599 17.8423C39.599 18.3323 39.519 18.6023 38.979 18.6523C38.6839 18.6529 38.3967 18.7475 38.159 18.9222C38.159 18.9222 38.159 18.9222 38.159 18.9922C38.329 19.4522 38.919 19.8222 38.759 20.2822C38.599 20.7422 38.109 21.0022 37.759 21.3522C37.169 21.9522 36.529 22.5022 35.999 23.1422C35.469 23.7822 35.249 23.6122 34.769 23.2722C34.099 22.8222 34.029 22.8423 33.899 23.6523C33.799 24.2523 33.559 24.4522 32.969 24.3922C32.379 24.3322 31.789 24.3922 31.209 24.3922C30.799 24.3922 30.659 24.4822 30.669 24.9122C30.669 26.1122 30.669 27.3123 30.669 28.5123C30.7135 28.9887 30.6526 29.4691 30.4906 29.9193C30.3286 30.3696 30.0694 30.7786 29.7315 31.1175C29.3937 31.4563 28.9853 31.7166 28.5356 31.8799C28.0858 32.0432 27.6055 32.1054 27.129 32.0622C24.659 32.0622 22.199 32.0622 19.729 32.0622C19.149 32.0622 19.159 32.3023 19.139 32.7323C19.119 33.1623 19.239 33.3622 19.729 33.3322C20.219 33.3022 20.909 33.3322 21.489 33.3322C21.7173 33.3153 21.9465 33.3466 22.1619 33.4241C22.3773 33.5017 22.5739 33.6237 22.739 33.7822C23.5536 34.6326 24.0816 35.7166 24.249 36.8822C24.329 37.6422 24.249 38.4223 24.249 39.1823C24.249 39.6223 24.149 39.7723 23.689 39.7623C21.789 39.7623 19.889 39.7623 17.989 39.7623C14.299 39.7623 10.609 39.7623 6.92899 39.7623C6.44899 39.7623 6.27899 39.6522 6.32899 39.1722C6.37872 38.8106 6.37872 38.4439 6.32899 38.0822C6.21675 36.7697 6.57083 35.4596 7.32899 34.3822C7.50175 34.0674 7.75895 33.807 8.07165 33.6303C8.38434 33.4536 8.74013 33.3677 9.09899 33.3822C9.70834 33.3423 10.3196 33.3423 10.929 33.3822C11.509 33.3822 11.419 33.0822 11.409 32.7522C11.399 32.4222 11.519 32.1122 10.939 32.1122C8.42898 32.1122 5.93899 32.1122 3.40899 32.1122C2.94338 32.1443 2.47641 32.0738 2.04102 31.9057C1.60563 31.7376 1.21244 31.476 0.889165 31.1394C0.565893 30.8027 0.320423 30.3993 0.17007 29.9574C0.0197164 29.5156 -0.0318576 29.0462 0.0189869 28.5822C0.0189869 23.5822 0.0189869 18.6722 0.0189869 13.7122C-0.0259957 13.0774 0.123008 12.4438 0.446248 11.8956C0.769489 11.3473 1.2517 10.9102 1.82899 10.6422C2.22899 10.4422 2.12899 10.1922 2.07899 9.92224C1.75447 8.30284 1.93087 6.62302 2.5847 5.10635C3.23853 3.58969 4.33877 2.30813 5.73899 1.43225C7.06568 0.500158 8.6476 0 10.269 0C11.8904 0 13.4723 0.500158 14.799 1.43225C16.18 2.28119 17.2681 3.53251 17.917 5.01805C18.5659 6.50359 18.7446 8.15218 18.429 9.74225C18.429 10.1122 18.349 10.3023 18.849 10.2923C19.789 10.2923 19.789 10.2922 19.789 9.38225C19.789 6.48225 19.789 3.59225 19.789 0.692245C19.789 0.202245 19.889 0.0422516 20.419 0.0422516C25.979 0.0422516 31.5423 0.0422516 37.109 0.0422516C37.659 0.0422516 37.719 0.222245 37.719 0.692245C37.719 3.69225 37.719 6.69225 37.719 9.69225C37.6813 9.99086 37.7245 10.2941 37.8442 10.5703C37.9638 10.8465 38.1554 11.0855 38.399 11.2623C38.949 11.6223 38.969 12.0322 38.549 12.5222C38.3862 12.7466 38.2424 12.9841 38.119 13.2323ZM26.259 9.11224C26.259 9.11224 26.359 9.22224 26.409 9.11224C26.949 8.32224 27.529 8.53225 28.129 9.02225C28.1763 9.07372 28.2363 9.11188 28.303 9.13293C28.3697 9.15399 28.4407 9.1572 28.509 9.14224C28.5864 8.88588 28.6499 8.6255 28.699 8.36224C28.699 7.82224 28.999 7.67224 29.539 7.70224C30.539 7.70224 31.539 7.70224 32.539 7.70224C33.729 7.70224 33.729 7.70225 34.039 8.88225C34.073 8.99085 34.12 9.09494 34.179 9.19225C34.5402 8.94414 34.9215 8.72672 35.319 8.54225C35.849 8.35225 35.899 9.15225 36.419 9.15225C36.419 6.67225 36.419 4.21224 36.419 1.75224C36.419 1.35224 36.219 1.33224 35.919 1.33224C31.139 1.33224 26.3657 1.33224 21.599 1.33224C21.219 1.33224 21.099 1.42224 21.099 1.81224C21.099 4.47891 21.099 7.14557 21.099 9.81224C21.099 10.2322 21.249 10.2822 21.609 10.2722C22.689 10.2722 23.779 10.2722 24.869 10.2722C25.1902 10.21 25.4895 10.0646 25.7369 9.85051C25.9843 9.63643 26.1712 9.36118 26.279 9.05225L26.259 9.11224ZM15.349 25.6422H28.849C29.019 25.6422 29.329 25.7923 29.359 25.4823C29.389 25.1723 29.529 24.5523 29.289 24.4823C28.789 24.3223 28.769 24.0022 28.689 23.6422C28.489 22.8622 28.459 22.8223 27.809 23.2923C27.7255 23.3794 27.6227 23.4458 27.5088 23.4859C27.3949 23.526 27.2732 23.5388 27.1535 23.5233C27.0338 23.5077 26.9194 23.4642 26.8196 23.3963C26.7198 23.3283 26.6374 23.2379 26.579 23.1322C25.989 22.4522 25.319 21.8422 24.669 21.2022C23.739 20.2722 23.719 20.2722 24.379 19.1122C24.559 18.7922 24.489 18.6822 24.229 18.4722C23.5583 18.0451 22.7533 17.8813 21.969 18.0123C21.339 18.0123 21.079 18.2822 21.089 18.9122C21.089 20.0622 21.089 21.2123 21.089 22.3723C21.1011 22.6256 21.0626 22.8788 20.9757 23.117C20.8889 23.3553 20.7555 23.5739 20.5833 23.7601C20.4111 23.9463 20.2035 24.0963 19.9727 24.2014C19.7419 24.3065 19.4925 24.3646 19.239 24.3723C18.9801 24.3803 18.7221 24.3363 18.4805 24.2431C18.2388 24.1498 18.0182 24.0091 17.8318 23.8292C17.6454 23.6493 17.4969 23.4339 17.3951 23.1957C17.2933 22.9575 17.2402 22.7013 17.239 22.4422C17.239 22.0322 17.239 21.6222 17.239 21.2222C17.2503 21.1426 17.2446 21.0615 17.2224 20.9842C17.2001 20.907 17.1617 20.8353 17.1098 20.7739C17.0578 20.7125 16.9935 20.6628 16.921 20.628C16.8484 20.5933 16.7694 20.5743 16.689 20.5723C16.6042 20.5606 16.5179 20.5676 16.4361 20.5926C16.3543 20.6176 16.2789 20.6602 16.2152 20.7173C16.1514 20.7743 16.1009 20.8446 16.067 20.9232C16.0331 21.0017 16.0167 21.0867 16.019 21.1722C16.019 21.5622 16.019 21.9422 16.019 22.3322C16.0408 22.6027 16.0045 22.8747 15.9124 23.13C15.8203 23.3852 15.6746 23.6178 15.4851 23.812C15.2956 24.0063 15.0668 24.1577 14.8139 24.256C14.561 24.3544 14.2899 24.3974 14.019 24.3822C13.269 24.3822 12.519 24.3822 11.779 24.3822C11.4894 24.4179 11.1956 24.387 10.9197 24.2921C10.6439 24.1971 10.3933 24.0405 10.187 23.8342C9.9807 23.628 9.82413 23.3774 9.72917 23.1015C9.63422 22.8257 9.60338 22.5318 9.63899 22.2422C9.63899 21.8222 9.46899 21.7323 9.13899 21.6223C8.36187 21.3966 7.67921 20.9244 7.19398 20.2768C6.70875 19.6293 6.44727 18.8414 6.44899 18.0322C6.42392 17.7862 6.42392 17.5383 6.44899 17.2923C6.49299 16.9806 6.45212 16.6628 6.33069 16.3725C6.20925 16.0821 6.01175 15.8298 5.75899 15.6422C4.51924 14.6482 3.49794 13.409 2.75899 12.0022C2.62899 11.6922 2.44899 11.7722 2.22899 11.9122C1.92361 12.1089 1.67756 12.385 1.51724 12.711C1.35692 13.0369 1.28838 13.4003 1.31899 13.7623C1.31899 17.5223 1.31899 21.2722 1.31899 25.0222C1.31899 25.5422 1.44899 25.6622 1.95899 25.6622C6.40565 25.6422 10.869 25.6356 15.349 25.6422ZM24.019 15.4422C22.779 15.4422 21.529 15.4422 20.289 15.4422C19.669 15.4422 19.809 15.0723 19.799 14.7323C19.789 14.3923 19.689 14.0522 20.269 14.0822C21.109 14.0822 21.949 14.0822 22.779 14.0822C23.2741 14.0859 23.7587 13.9395 24.169 13.6622C24.559 13.4422 24.619 13.2522 24.369 12.8922C24.106 12.6109 23.92 12.2665 23.829 11.8922C23.829 11.5222 23.639 11.5723 23.429 11.5723H18.309C18.069 11.5723 17.889 11.5722 17.779 11.8622C17.1336 13.2271 16.1905 14.4299 15.019 15.3822C14.6707 15.6583 14.3969 16.0168 14.2223 16.4254C14.0477 16.8341 13.9778 17.2798 14.019 17.7222C14.1241 18.6163 13.8969 19.5179 13.3807 20.2554C12.8644 20.993 12.0951 21.515 11.219 21.7222C10.939 21.8122 10.879 21.9122 10.879 22.1722C10.879 22.8822 11.059 23.1123 11.779 23.1223H12.729C14.609 23.1223 14.729 23.3522 14.729 21.2422V21.1722C14.764 20.6883 14.9809 20.2355 15.3362 19.905C15.6915 19.5745 16.1587 19.3907 16.644 19.3907C17.1292 19.3907 17.5965 19.5745 17.9518 19.905C18.307 20.2355 18.524 20.6883 18.559 21.1722C18.559 21.5122 18.559 21.8456 18.559 22.1722C18.559 22.6322 18.689 23.0423 19.189 23.0423C19.689 23.0423 19.809 22.6323 19.799 22.1823C19.799 21.0323 19.799 19.8722 19.799 18.7222C19.7846 18.4558 19.8264 18.1893 19.9218 17.9401C20.0172 17.6909 20.164 17.4646 20.3527 17.276C20.5414 17.0873 20.7677 16.9405 21.0169 16.8451C21.2661 16.7497 21.5325 16.7078 21.799 16.7222C23.729 16.7222 25.649 16.7222 27.569 16.7222C27.7423 16.6926 27.9204 16.7313 28.0658 16.8301C28.2112 16.9289 28.3127 17.0802 28.349 17.2522C28.5831 17.8677 29.0065 18.3929 29.5582 18.7523C30.1099 19.1118 30.7614 19.2868 31.419 19.2522C32.1733 19.2227 32.8917 18.9224 33.4427 18.4064C33.9936 17.8903 34.3402 17.193 34.419 16.4422C34.5144 15.6778 34.3265 14.9049 33.8906 14.2697C33.4548 13.6346 32.8013 13.1811 32.0537 12.9951C31.3061 12.8092 30.5163 12.9036 29.8337 13.2605C29.151 13.6175 28.6228 14.2122 28.349 14.9323C28.306 15.1134 28.1944 15.2709 28.0378 15.3715C27.8812 15.4722 27.6917 15.5083 27.509 15.4722C26.349 15.4322 25.169 15.4422 24.019 15.4422ZM12.129 12.8223C12.1691 13.4549 12.1691 14.0895 12.129 14.7222C12.039 15.4122 12.379 15.4422 12.899 15.4122C13.1237 15.3848 13.3285 15.2698 13.469 15.0923L15.019 13.5222C16.0981 12.5083 16.8327 11.1819 17.1197 9.72917C17.4066 8.27647 17.2316 6.77037 16.619 5.42224C15.9856 4.04365 14.9215 2.90815 13.5868 2.18672C12.2522 1.4653 10.7193 1.19701 9.21899 1.42224C7.51584 1.68664 5.96731 2.56238 4.86302 3.8857C3.75872 5.20901 3.17428 6.88927 3.21899 8.61224C3.33899 11.6122 5.28899 13.4122 7.21899 15.2422C7.35545 15.3269 7.51029 15.3775 7.67043 15.3897C7.83057 15.4019 7.99129 15.3753 8.13899 15.3122C8.45899 15.2222 8.28899 14.8922 8.29899 14.6722C8.29899 13.6722 8.29899 12.6722 8.29899 11.6122C8.29899 10.2822 8.29899 10.2823 6.99899 10.2623C6.4452 10.2533 5.90927 10.0649 5.47161 9.72548C5.03396 9.38604 4.71819 8.91382 4.5717 8.37968C4.4252 7.84555 4.45589 7.27832 4.65915 6.76311C4.8624 6.24789 5.22727 5.81249 5.69899 5.52225C6.17324 5.23008 6.73011 5.10124 7.28449 5.15541C7.83887 5.20958 8.36027 5.4438 8.76899 5.82225C9.09694 6.13785 9.34301 6.52864 9.48589 6.96077C9.62878 7.3929 9.66416 7.85335 9.58899 8.30225C9.58899 8.77225 9.58898 8.98225 10.189 8.98225C10.789 8.98225 10.899 8.80225 10.839 8.29225C10.814 8.04288 10.814 7.79163 10.839 7.54225C10.8878 6.86935 11.1972 6.24205 11.7015 5.79382C12.2058 5.3456 12.865 5.11182 13.539 5.14224C13.8814 5.15235 14.2183 5.23107 14.5297 5.37375C14.8411 5.51642 15.1208 5.72015 15.352 5.97285C15.5833 6.22556 15.7615 6.52212 15.876 6.84494C15.9906 7.16776 16.0392 7.5103 16.019 7.85225C16.0125 8.18579 15.9399 8.51473 15.8054 8.81999C15.6708 9.12525 15.477 9.40075 15.2351 9.63052C14.9932 9.86029 14.7082 10.0398 14.3964 10.1585C14.0847 10.2772 13.7524 10.3329 13.419 10.3223C13.1692 10.3372 12.9188 10.3372 12.669 10.3223C12.299 10.3223 12.149 10.3922 12.179 10.8022C12.159 11.4622 12.129 12.1423 12.129 12.8223ZM15.319 30.7222H27.259C27.5425 30.7498 27.8286 30.7145 28.0969 30.619C28.3653 30.5235 28.6093 30.37 28.8116 30.1696C29.014 29.9691 29.1697 29.7266 29.2678 29.4592C29.3658 29.1917 29.4038 28.906 29.379 28.6223C29.354 28.2393 29.354 27.8552 29.379 27.4722C29.429 27.0122 29.239 26.9122 28.809 26.9222C26.6423 26.9222 24.4723 26.9222 22.299 26.9222C21.849 26.9222 21.739 27.0522 21.729 27.4922C21.7464 27.7664 21.7039 28.041 21.6044 28.297C21.5049 28.553 21.3508 28.7842 21.1528 28.9746C20.9548 29.165 20.7177 29.3099 20.458 29.3993C20.1983 29.4887 19.9222 29.5204 19.649 29.4922H11.019C10.7427 29.5267 10.4621 29.4997 10.1974 29.4132C9.93276 29.3266 9.69048 29.1827 9.48792 28.9916C9.28536 28.8005 9.12753 28.567 9.02572 28.3078C8.92391 28.0486 8.88063 27.7701 8.89899 27.4922C8.89899 27.0022 8.69899 26.9422 8.29899 26.9522H2.76899C1.28899 26.9522 1.28899 26.9522 1.28899 28.4222C1.28899 30.0422 1.97899 30.7422 3.58899 30.7422L15.319 30.7222ZM25.929 14.0923C26.659 14.0923 27.199 14.2223 27.649 13.5123C28.1786 12.7012 28.9654 12.0917 29.8831 11.7816C30.8007 11.4714 31.796 11.4787 32.709 11.8022C33.6288 12.0988 34.4262 12.6887 34.9788 13.4816C35.5315 14.2744 35.809 15.2266 35.769 16.1922C35.7441 17.1249 35.4294 18.0267 34.8684 18.7722C34.3075 19.5177 33.5282 20.07 32.639 20.3522C31.7094 20.6568 30.7047 20.6422 29.7844 20.3106C28.864 19.9791 28.0808 19.3497 27.559 18.5222C27.179 17.9222 26.719 17.9922 26.239 18.0522C25.759 18.1122 26.299 18.5022 26.129 18.7122C26.0691 18.807 26.0189 18.9075 25.979 19.0123C25.379 20.0823 25.379 20.0822 26.269 20.9622L26.549 21.2522C27.339 22.0322 27.339 22.0322 28.289 21.4622C28.4016 21.3705 28.5365 21.3102 28.68 21.2877C28.8235 21.2652 28.9705 21.2812 29.1058 21.3341C29.2411 21.387 29.3599 21.4749 29.45 21.5887C29.5402 21.7026 29.5985 21.8384 29.619 21.9823C29.949 23.1123 29.949 23.1122 31.159 23.1122H31.359C32.639 23.1122 32.639 23.1123 32.999 21.9323C33.0268 21.8032 33.0854 21.6828 33.1697 21.5813C33.2541 21.4797 33.3617 21.4 33.4834 21.349C33.6052 21.2979 33.7374 21.277 33.869 21.288C34.0005 21.2991 34.1274 21.3417 34.239 21.4122C35.299 22.0022 35.299 22.0023 36.179 21.1223L36.419 20.8822C37.229 20.0622 37.229 20.0623 36.669 19.0923C36.5822 18.9833 36.5249 18.8537 36.5028 18.7162C36.4807 18.5786 36.4944 18.4377 36.5427 18.307C36.5909 18.1763 36.6721 18.0602 36.7783 17.9701C36.8845 17.8799 37.0122 17.8187 37.149 17.7923C38.319 17.4123 38.319 17.4122 38.319 16.1422V15.8723C38.319 14.7023 38.319 14.7022 37.179 14.4122C37.0489 14.3891 36.9263 14.3352 36.8212 14.255C36.7162 14.1749 36.6318 14.0708 36.575 13.9515C36.5183 13.8322 36.4909 13.701 36.4951 13.569C36.4992 13.4369 36.5349 13.3078 36.599 13.1922C37.189 12.0722 37.189 12.0722 36.309 11.1922L36.069 10.9522C35.279 10.1622 35.279 10.1622 34.279 10.7422C34.1664 10.8265 34.0341 10.8804 33.8947 10.8988C33.7553 10.9172 33.6136 10.8994 33.483 10.8472C33.3525 10.795 33.2376 10.7101 33.1493 10.6006C33.061 10.4912 33.0024 10.3609 32.979 10.2222C32.649 9.09224 32.649 9.09225 31.439 9.09225H31.239C29.969 9.09225 29.969 9.09225 29.599 10.2923C29.5674 10.4098 29.5101 10.5188 29.4311 10.6115C29.3521 10.7041 29.2536 10.778 29.1425 10.8278C29.0314 10.8775 28.9107 10.902 28.789 10.8993C28.6673 10.8966 28.5477 10.8669 28.439 10.8122C27.279 10.2122 27.279 10.2123 26.339 11.1523C26.1582 11.3515 25.9644 11.5386 25.759 11.7122C25.6817 11.7559 25.6154 11.8168 25.5653 11.8901C25.5152 11.9635 25.4826 12.0473 25.47 12.1353C25.4575 12.2232 25.4653 12.3128 25.4928 12.3972C25.5204 12.4817 25.567 12.5587 25.629 12.6223C25.919 13.0223 26.369 13.4423 25.929 14.0923ZM15.299 35.8522C15.999 35.8522 16.699 35.8522 17.399 35.8522C17.749 35.8522 17.869 35.7822 17.859 35.4122C17.859 34.4456 17.859 33.4756 17.859 32.5022C17.859 32.1622 17.799 32.0322 17.419 32.0322C16.019 32.0322 14.619 32.0322 13.219 32.0322C12.899 32.0322 12.789 32.1122 12.799 32.4422C12.799 33.4422 12.799 34.4422 12.799 35.4422C12.799 35.8322 12.959 35.8722 13.279 35.8622C13.949 35.8422 14.619 35.8522 15.299 35.8522ZM15.299 37.1722C12.949 37.1722 10.599 37.1722 8.29899 37.1722C7.84899 37.1722 7.65899 37.2522 7.67899 37.7522C7.69899 38.2522 7.67899 38.4423 8.27899 38.4323C12.999 38.4323 17.719 38.4323 22.439 38.4323C22.999 38.4323 23.029 38.2222 23.039 37.7722C23.049 37.3222 22.959 37.1622 22.459 37.1722C20.019 37.1922 17.689 37.1722 15.319 37.1722H15.299ZM10.209 16.7022H8.93899C7.50899 16.7022 7.49899 16.7023 7.67899 18.1523C7.72638 18.6978 7.94549 19.2143 8.30484 19.6276C8.66419 20.0408 9.14527 20.3295 9.67899 20.4522C10.1785 20.5611 10.6993 20.5173 11.1736 20.3265C11.6479 20.1357 12.054 19.8067 12.339 19.3822C12.7024 18.7022 12.8556 17.9295 12.779 17.1622C12.779 16.8122 12.689 16.6822 12.329 16.6922C11.629 16.7222 10.929 16.7022 10.229 16.7022H10.209ZM10.819 12.8423C10.819 12.1423 10.819 11.4422 10.819 10.7522C10.819 10.2822 10.589 10.2723 10.279 10.3223C9.96899 10.3723 9.54899 10.0722 9.55899 10.7022C9.55899 12.1522 9.55899 13.5922 9.55899 15.0322C9.55899 15.6022 9.96899 15.3723 10.229 15.4023C10.489 15.4323 10.839 15.5023 10.819 15.0123C10.819 14.2923 10.839 13.5223 10.839 12.8423H10.819ZM7.38899 9.01225C7.66899 8.89225 8.17899 9.22224 8.25899 8.81224C8.34816 8.50791 8.37109 8.18801 8.32624 7.87407C8.28139 7.56013 8.1698 7.25944 7.99899 6.99225C7.88022 6.83958 7.72764 6.71657 7.55327 6.63287C7.37889 6.54918 7.18747 6.50708 6.99407 6.50992C6.80067 6.51275 6.61056 6.56043 6.43871 6.6492C6.26686 6.73797 6.11796 6.86541 6.00372 7.02148C5.88947 7.17756 5.81301 7.35802 5.78034 7.54866C5.74767 7.7393 5.75969 7.93494 5.81545 8.12015C5.87121 8.30536 5.96919 8.47509 6.10169 8.61601C6.23418 8.75693 6.39756 8.86519 6.57899 8.93225C6.84973 9.00239 7.12983 9.02939 7.40899 9.01225H7.38899ZM12.949 9.01225C13.219 9.01225 13.449 9.01225 13.669 9.01225C13.9678 8.94801 14.2335 8.77814 14.4171 8.53383C14.6008 8.28952 14.6903 7.98717 14.669 7.68225C14.636 7.35068 14.476 7.04474 14.2225 6.82851C13.969 6.61227 13.6416 6.50253 13.309 6.52225C12.439 6.60225 12.079 7.27225 12.129 8.60225C12.149 9.38225 12.749 8.79224 13.019 9.00224L12.949 9.01225ZM22.529 35.8622C22.219 35.3222 22.239 34.6423 21.469 34.6223C20.699 34.6023 20.159 34.6223 19.469 34.6223C18.989 34.6223 19.099 34.9422 19.139 35.1622C19.179 35.3822 18.849 35.8623 19.439 35.8723L22.529 35.8622ZM8.13899 35.8622C9.13899 35.8622 10.039 35.8622 10.959 35.8622C11.409 35.8622 11.439 35.7023 11.469 35.3223C11.519 34.7323 11.339 34.5022 10.739 34.6022C10.426 34.6223 10.112 34.6223 9.79899 34.6022C8.61899 34.6022 8.61899 34.6022 8.15899 35.8522L8.13899 35.8622ZM15.299 28.1823C15.609 28.1823 15.929 28.1823 16.239 28.1823C16.819 28.1823 16.559 27.7623 16.579 27.5123C16.599 27.2623 16.719 26.9022 16.209 26.9222C15.6495 26.9572 15.0884 26.9572 14.529 26.9222C14.089 26.9222 14.029 27.0922 14.009 27.4722C14.009 28.0022 14.089 28.2822 14.689 28.1922C14.8978 28.1642 15.1089 28.1575 15.319 28.1722L15.299 28.1823ZM11.669 28.1823H12.409C12.539 28.1823 12.669 28.1822 12.739 28.0222C12.8079 27.9084 12.8439 27.7777 12.843 27.6446C12.8421 27.5115 12.8044 27.3812 12.7339 27.2683C12.6635 27.1554 12.5631 27.0642 12.444 27.0049C12.3248 26.9455 12.1916 26.9204 12.059 26.9323C11.649 26.9323 11.249 26.9323 10.839 26.9323C10.609 26.9323 10.209 26.7122 10.209 27.2522C10.209 27.7922 10.209 28.0923 10.789 28.1523C11.0886 28.1713 11.389 28.1746 11.689 28.1622L11.669 28.1823ZM18.959 28.1823C19.272 28.2022 19.586 28.2022 19.899 28.1823C20.409 28.1023 20.399 27.6922 20.409 27.3022C20.419 26.9122 20.059 26.9923 19.829 26.9823C19.309 26.9823 18.829 26.9823 18.279 26.9823C18.119 26.9823 17.979 26.9822 17.899 27.1722C17.659 27.8122 17.899 28.2323 18.619 28.2323L18.959 28.1823Z" fill="#EF4C23"/>
<path d="M3.14902 19.2722C2.62902 19.4122 2.49902 19.1422 2.49902 18.6022C2.49902 18.0622 2.63902 17.9222 3.16902 17.9122C3.69902 17.9022 3.90902 18.0622 3.85902 18.6222C3.80902 19.1822 3.84902 19.2722 3.14902 19.2722Z" fill="#EF4C23"/>
<path d="M3.82896 21.1922C3.97896 21.7722 3.69896 21.8523 3.19896 21.8723C2.69896 21.8923 2.51896 21.6822 2.49896 21.1422C2.47896 20.6022 2.78896 20.5222 3.25896 20.4922C3.87896 20.4422 3.92896 20.7422 3.82896 21.1922Z" fill="#EF4C23"/>
<path d="M3.83903 23.6822C3.92903 24.1522 3.83903 24.4422 3.24903 24.4122C2.65903 24.3822 2.47903 24.3422 2.49903 23.7322C2.51903 23.1222 2.63903 23.0322 3.16903 23.0622C3.69903 23.0922 4.01903 23.0522 3.83903 23.6822Z" fill="#EF4C23"/>
<path d="M18.509 14.7222C18.659 15.3122 18.459 15.5022 17.879 15.4822C17.299 15.4622 17.189 15.3722 17.189 14.8222C17.189 14.2722 17.309 14.0722 17.889 14.1022C18.469 14.1322 18.729 14.1322 18.509 14.7222Z" fill="#EF4C23"/>
<path d="M28.6989 6.52228C26.6989 6.52228 24.8089 6.52228 22.8589 6.52228C22.2189 6.52228 22.3389 6.17228 22.3189 5.80228C22.2989 5.43228 22.3189 5.15228 22.8689 5.15228C26.7789 5.15228 30.6989 5.15228 34.6089 5.15228C35.2389 5.15228 35.1489 5.48228 35.1689 5.87228C35.1889 6.26228 35.1689 6.52228 34.5989 6.51228C32.6289 6.52228 30.6689 6.52228 28.6989 6.52228Z" fill="#EF4C23"/>
<path d="M30.019 3.94221C28.529 3.94221 27.019 3.94221 25.539 3.94221C24.979 3.94221 24.929 3.75222 24.929 3.29222C24.929 2.83222 24.989 2.58221 25.579 2.58221C28.579 2.58221 31.579 2.58221 34.579 2.58221C35.099 2.58221 35.299 2.68222 35.279 3.24222C35.259 3.80222 35.189 3.95222 34.619 3.93222C33.019 3.91222 31.489 3.94221 30.019 3.94221Z" fill="#EF4C23"/>
<path d="M23.649 3.26224C23.769 3.76224 23.649 3.99223 23.049 3.95223C22.449 3.91223 22.269 3.95224 22.299 3.30224C22.329 2.65224 22.439 2.57224 23.009 2.59224C23.579 2.61224 23.789 2.69224 23.649 3.26224Z" fill="#EF4C23"/>
<path d="M23.0189 7.75222C23.5889 7.60222 23.6589 7.89222 23.6789 8.39222C23.6989 8.89222 23.4889 9.07223 22.9589 9.09223C22.4289 9.11223 22.3289 8.81222 22.2889 8.33222C22.2589 7.70222 22.5689 7.67222 23.0189 7.75222Z" fill="#EF4C23"/>
<path d="M26.2589 9.10224C25.9589 9.10224 25.6489 9.05224 25.3389 9.10224C25.0289 9.15224 24.8889 8.99224 24.8889 8.65224C24.8889 7.76224 25.0889 7.58224 25.9789 7.76224C26.2289 7.82224 26.2189 7.96224 26.2289 8.15224C26.2389 8.34224 26.2289 8.81224 26.2289 9.15224L26.2589 9.10224Z" fill="#EF4C23"/>
</svg>
