<svg width="39" height="39" viewBox="0 0 39 39" fill="none" xmlns="http://www.w3.org/2000/svg">
<path d="M12.256 24.96C12.2436 25.3983 12.0824 25.8193 11.7989 26.1537C11.5153 26.4882 11.1264 26.7161 10.696 26.8C10.046 26.8908 9.38395 26.7756 8.8028 26.4707C8.22166 26.1657 7.75066 25.6864 7.456 25.1C6.76745 25.7529 6.21636 26.5369 5.83512 27.4058C5.45388 28.2748 5.25019 29.2112 5.236 30.16C5.236 32.28 5.236 34.41 5.236 36.54C5.236 37 5.406 37.03 5.786 37.03H16.786C16.946 37.0326 17.0986 37.098 17.2109 37.2122C17.3231 37.3263 17.386 37.4799 17.386 37.64C17.4063 37.8012 17.3636 37.9641 17.2667 38.0945C17.1698 38.2249 17.0262 38.3129 16.866 38.34C16.6866 38.3601 16.5054 38.3601 16.326 38.34H4.976C4.046 38.34 3.876 38.17 3.866 37.24C3.866 34.93 3.866 32.62 3.866 30.31C3.85685 29.1939 4.07261 28.0874 4.50042 27.0566C4.92823 26.0257 5.55931 25.0916 6.356 24.31C6.66129 23.9551 6.88417 23.537 7.00866 23.0857C7.13315 22.6344 7.15615 22.1612 7.076 21.7C7.076 21.48 6.926 21.38 6.806 21.25C5.866 20.25 4.916 19.31 3.976 18.33C3.89617 18.2249 3.78748 18.1453 3.66318 18.1009C3.53888 18.0565 3.40435 18.0492 3.276 18.08C2.96227 18.1631 2.63219 18.1622 2.3189 18.0774C2.00561 17.9927 1.72014 17.8269 1.49115 17.5969C1.26216 17.3669 1.09772 17.0807 1.01431 16.7671C0.930911 16.4534 0.93149 16.1233 1.016 15.81C1.10496 15.4852 1.11415 15.1438 1.04276 14.8147C0.971377 14.4856 0.82154 14.1787 0.606003 13.92C0.225324 13.3646 0.014981 12.7101 0.000770813 12.0369C-0.0134394 11.3637 0.169099 10.701 0.526001 10.13C1.21255 9.00712 2.12937 8.04257 3.216 7.29998C4.5086 6.55687 5.8894 5.97902 7.326 5.57998C8.656 5.08998 10.006 4.57999 11.326 4.19999C12.125 3.83819 12.8147 3.2726 13.326 2.55999C14.466 1.37999 14.726 1.42998 15.326 2.96998C15.586 3.66998 15.826 4.37999 16.086 5.06999C16.2904 5.57605 16.3637 6.12555 16.299 6.66749C16.2343 7.20943 16.0338 7.72625 15.716 8.16999C15.486 8.51999 15.346 8.73999 15.826 8.98999C16.171 9.22525 16.4141 9.58261 16.506 9.98999C16.766 10.69 17.006 11.39 17.266 12.09C17.4527 12.4832 17.4979 12.9288 17.394 13.3515C17.2902 13.7742 17.0436 14.148 16.696 14.41C16.446 14.61 16.456 14.73 16.616 14.95C16.776 15.17 17.096 15.66 17.346 16.01C17.4182 16.0845 17.4718 16.1751 17.5024 16.2742C17.5331 16.3734 17.5399 16.4784 17.5224 16.5807C17.5049 16.6829 17.4635 16.7797 17.4015 16.8629C17.3396 16.9462 17.2589 17.0137 17.166 17.06C16.7449 17.2985 16.3899 17.6384 16.1332 18.0487C15.8765 18.459 15.7263 18.9269 15.696 19.41C15.5719 20.2003 15.2231 20.9382 14.6911 21.5358C14.1592 22.1333 13.4666 22.5652 12.696 22.78C12.496 22.85 12.216 22.78 12.176 23.12C12.136 23.46 12.396 23.5 12.576 23.61C14.5326 24.755 15.9671 26.6162 16.576 28.8C16.6319 28.996 16.6688 29.1969 16.686 29.4C16.7028 29.5604 16.6555 29.7209 16.5543 29.8464C16.4531 29.972 16.3063 30.0524 16.146 30.07C15.998 30.098 15.8449 30.0693 15.7171 29.9897C15.5892 29.91 15.496 29.7852 15.456 29.64C15.366 29.39 15.316 29.12 15.236 28.86C14.7363 27.2479 13.6802 25.8657 12.256 24.96ZM14.256 3.72998C13.936 3.80998 13.796 4.06998 13.626 4.25998C13.0972 4.80911 12.4306 5.20625 11.696 5.40998C10.176 5.90998 8.696 6.48999 7.156 6.95999C5.02254 7.45045 3.1332 8.68401 1.826 10.44C1.55109 10.7984 1.38434 11.2279 1.34536 11.6779C1.30638 12.1279 1.39682 12.5797 1.606 12.98C1.756 13.28 1.976 13.56 2.116 13.86C2.256 14.16 2.446 14.19 2.766 14.07C4.766 13.33 6.696 12.62 8.666 11.9C8.7847 11.8776 8.89322 11.8181 8.9759 11.73C9.05858 11.6419 9.11114 11.5299 9.126 11.41C9.1929 11.0404 9.36251 10.6972 9.61541 10.4195C9.86831 10.1419 10.1943 9.94101 10.556 9.83998C11.1581 9.5866 11.7761 9.37281 12.406 9.19999C12.9071 9.08857 13.3752 8.86142 13.7729 8.53671C14.1705 8.212 14.4867 7.79874 14.696 7.32998C14.8474 7.07679 14.9435 6.7944 14.978 6.5014C15.0125 6.20839 14.9845 5.91141 14.896 5.62999C14.696 4.98999 14.436 4.40998 14.206 3.72998H14.256ZM10.576 22.08C11.3429 21.9085 12.0877 21.6502 12.796 21.31C13.3202 21.0841 13.7632 20.7039 14.066 20.22C14.226 19.98 14.296 19.8 13.886 19.82C13.476 19.84 12.886 19.82 12.886 19.13C12.886 18.44 13.476 18.51 13.966 18.52C14.076 18.52 14.186 18.52 14.296 18.52C14.406 18.52 14.636 18.52 14.606 18.26C14.486 17.46 15.016 17.08 15.606 16.68C15.786 16.54 16.186 16.39 15.846 16.08C15.506 15.77 15.586 14.94 14.786 15.25C14.156 15.49 13.516 15.7 12.876 15.94C12.5349 16.0946 12.1572 16.1504 11.7859 16.1009C11.4146 16.0514 11.0647 15.8986 10.776 15.66C10.256 15.23 9.876 15.79 9.426 15.85C8.976 15.91 9.106 16.23 9.116 16.49C9.22786 17.9144 9.06491 19.3471 8.636 20.71C8.636 20.84 8.516 20.96 8.636 21.08C8.86033 21.3731 9.14537 21.6142 9.4716 21.7868C9.79782 21.9594 10.1575 22.0594 10.526 22.08H10.576ZM2.966 16.8C3.04582 16.8074 3.12618 16.8074 3.206 16.8L9.526 14.44C9.876 14.31 9.856 14.16 9.776 13.84C9.636 13.24 9.396 13.03 8.776 13.35C8.46756 13.4907 8.15021 13.6109 7.826 13.71C6.136 14.33 4.456 14.97 2.766 15.58C2.68323 15.5938 2.60428 15.6248 2.53424 15.6711C2.46421 15.7173 2.40464 15.7777 2.35941 15.8484C2.31417 15.919 2.28427 15.9984 2.27162 16.0814C2.25898 16.1643 2.26387 16.249 2.286 16.33C2.31875 16.47 2.39994 16.594 2.51521 16.68C2.63049 16.766 2.77243 16.8085 2.916 16.8H2.966ZM12.886 11.07C13.1492 11.9523 13.4836 12.8118 13.886 13.64C14.306 14.35 14.886 13.64 15.466 13.55C15.846 13.47 16.196 13.29 16.176 12.8C16.1817 12.7568 16.1817 12.7131 16.176 12.67C15.876 11.86 15.596 11.05 15.286 10.25C15.2486 10.1149 15.1592 10.0001 15.0374 9.93077C14.9156 9.86143 14.7713 9.84317 14.636 9.87998C14.146 10.02 13.636 10.22 13.186 10.41C12.896 10.5 12.856 10.71 12.836 11.07H12.886ZM7.466 19.84C7.72356 18.8823 7.8315 17.8906 7.786 16.9C7.786 16.72 7.856 16.42 7.496 16.55C6.696 16.84 5.906 17.15 5.026 17.49L7.466 19.84ZM8.466 22.77C8.44559 23.1564 8.44559 23.5436 8.466 23.93C8.52607 24.3657 8.74107 24.7652 9.07162 25.0553C9.40218 25.3455 9.82617 25.5069 10.266 25.51C10.576 25.51 10.846 25.41 10.876 25.11C10.9061 24.5938 10.9061 24.0762 10.876 23.56C10.876 23.36 10.706 23.4 10.576 23.41C9.80561 23.4368 9.04742 23.2122 8.416 22.77H8.466ZM11.526 10.97C11.106 11.17 10.436 11.14 10.526 11.78C10.7016 12.7529 11.0396 13.6893 11.526 14.55C11.756 15 12.256 14.77 12.626 14.61C12.996 14.45 12.626 14.2 12.626 14.02C12.196 13.02 11.746 12.06 11.476 10.97H11.526Z" fill="#EF4C23"/>
<path d="M28.146 21.72C26.9703 21.7279 25.8046 21.5038 24.7156 21.0606C23.6266 20.6173 22.6358 19.9637 21.7998 19.137C20.9638 18.3102 20.2991 17.3268 19.8437 16.2428C19.3883 15.1588 19.1512 13.9957 19.146 12.82C19.146 10.4331 20.0942 8.14387 21.782 6.45604C23.4699 4.76821 25.7591 3.82001 28.146 3.82001C30.514 3.81983 32.7867 4.75292 34.4714 6.41703C36.1561 8.08114 37.1171 10.3422 37.146 12.71C37.158 13.8957 36.9335 15.0719 36.4856 16.1698C36.0377 17.2677 35.3753 18.2653 34.5373 19.1043C33.6994 19.9432 32.7025 20.6066 31.6051 21.0557C30.5077 21.5049 29.3317 21.7307 28.146 21.72ZM30.726 19.94C31.1666 19.8451 31.5844 19.6651 31.956 19.41C32.366 19.15 33.056 18.94 33.036 18.51C33.016 18.08 32.336 17.9 31.916 17.63C31.496 17.36 31.456 17.44 31.366 17.83C31.1799 18.5217 30.9218 19.192 30.596 19.83V19.99L30.726 19.94ZM33.876 12.14C34.346 12.14 34.876 12.14 35.296 12.14C35.716 12.14 35.786 12.05 35.726 11.68C35.5323 10.4716 35.0673 9.32289 34.366 8.32001C34.186 8.05001 34.026 8.02001 33.776 8.24001C33.2672 8.68653 32.6941 9.05397 32.076 9.33C31.9695 9.36453 31.8807 9.43921 31.8284 9.53818C31.7761 9.63714 31.7645 9.75259 31.796 9.86C31.866 10.46 31.926 11.07 31.966 11.68C31.966 12.02 32.086 12.16 32.446 12.14C32.806 12.12 33.396 12.14 33.876 12.14ZM22.456 12.14C22.936 12.14 23.456 12.14 23.876 12.14C24.296 12.14 24.336 12.03 24.346 11.69C24.3609 11.0797 24.421 10.4714 24.526 9.87C24.586 9.54 24.466 9.44001 24.216 9.32001C23.6231 9.04401 23.0712 8.68729 22.576 8.26C22.266 7.98 22.096 8.11001 21.906 8.39001C21.3233 9.24613 20.9124 10.2072 20.696 11.22C20.496 12.13 20.506 12.14 21.456 12.14H22.456ZM33.916 13.41C33.416 13.41 32.916 13.41 32.426 13.41C32.116 13.41 31.986 13.5 31.966 13.82C31.926 14.4867 31.866 15.1533 31.786 15.82C31.786 16.13 31.926 16.2 32.136 16.3C32.7074 16.5568 33.2394 16.8935 33.716 17.3C33.996 17.54 34.166 17.56 34.396 17.22C35.0552 16.2413 35.4983 15.1333 35.696 13.97C35.786 13.52 35.646 13.36 35.186 13.41C34.726 13.46 34.346 13.41 33.916 13.41ZM22.486 13.41C22.036 13.41 21.576 13.41 21.126 13.41C20.676 13.41 20.536 13.41 20.616 13.95C20.7944 14.9906 21.1604 15.9902 21.696 16.9C22.016 17.46 22.306 17.64 22.816 17.09C23.0311 16.8573 23.2985 16.6791 23.596 16.57C24.396 16.31 24.596 15.84 24.436 15.02C24.236 13.42 24.296 13.41 22.726 13.41H22.486ZM30.196 17.21C30.196 16.94 30.196 16.91 29.916 16.85C28.7551 16.5498 27.5369 16.5498 26.376 16.85C26.236 16.85 26.026 16.85 26.106 17.13C26.3294 18.238 26.8319 19.2706 27.566 20.13C27.6286 20.2121 27.708 20.28 27.7989 20.3292C27.8897 20.3784 27.99 20.4078 28.093 20.4153C28.196 20.4229 28.2995 20.4085 28.3965 20.3731C28.4936 20.3377 28.582 20.2821 28.656 20.21C29.4456 19.3778 29.98 18.3367 30.196 17.21ZM28.256 8.93C28.7778 8.92795 29.2977 8.86758 29.806 8.75C29.976 8.75 30.266 8.75 30.186 8.41C29.9952 7.28523 29.4769 6.2417 28.696 5.41C28.6293 5.33192 28.5466 5.26923 28.4533 5.22623C28.3601 5.18324 28.2587 5.16098 28.156 5.16098C28.0533 5.16098 27.9519 5.18324 27.8587 5.22623C27.7654 5.26923 27.6827 5.33192 27.616 5.41C27.223 5.78273 26.9159 6.23658 26.716 6.74001C25.816 8.63001 26.006 8.92 28.256 8.93ZM28.146 12.14H29.026C30.776 12.14 30.756 12.14 30.576 10.39C30.576 10 30.416 9.94 30.076 10.02C29.1547 10.2513 28.1984 10.3089 27.256 10.19C25.676 9.98 25.646 10.02 25.656 11.69C25.656 12.06 25.766 12.15 26.116 12.14C26.796 12.12 27.466 12.14 28.146 12.14ZM28.146 13.41H27.146C25.366 13.41 25.376 13.41 25.676 15.21C25.726 15.55 25.826 15.63 26.136 15.55C27.4097 15.2316 28.7423 15.2316 30.016 15.55C30.336 15.64 30.466 15.55 30.476 15.19C30.4845 14.785 30.5179 14.3809 30.576 13.98C30.636 13.56 30.576 13.37 30.056 13.4C29.506 13.41 28.846 13.41 28.196 13.41H28.146ZM30.466 5.5C30.686 6.03 30.846 6.5 31.066 6.88C31.286 7.26 31.136 7.98 31.626 8.01C32.116 8.04 32.416 7.56001 32.816 7.31001C33.216 7.06001 33.106 6.98 32.816 6.77C32.1193 6.23084 31.3435 5.80245 30.516 5.5H30.466ZM25.756 20.05C25.536 19.53 25.336 19.05 25.176 18.66C24.666 17.26 24.686 17.27 23.476 18.2C23.086 18.5 23.176 18.63 23.476 18.87C24.1817 19.39 24.9692 19.7888 25.806 20.05H25.756ZM25.756 5.53001C25.2548 5.65195 24.778 5.85822 24.346 6.14001C23.906 6.39001 23.196 6.62001 23.226 7.06001C23.256 7.50001 23.966 7.69 24.396 7.97C24.826 8.25 24.826 8.06 24.886 7.75C25.1148 6.97698 25.4301 6.23227 25.826 5.53001H25.756Z" fill="#EF4C23"/>
<path d="M15.9361 35.8C14.6649 35.8032 13.4206 35.4347 12.3561 34.74C10.9761 33.84 9.61607 32.91 8.23607 32.01C7.81607 31.74 7.54607 31.41 7.82607 31.01C8.10607 30.61 8.58607 30.69 8.99607 31.01C10.2561 31.86 11.5161 32.69 12.7661 33.54C13.7082 34.2211 14.8453 34.5794 16.0077 34.5614C17.1701 34.5434 18.2955 34.15 19.2161 33.44C20.8961 32.21 22.5361 30.94 24.2161 29.71C24.5761 29.44 24.6761 29.28 24.3561 28.88C23.5361 27.88 23.5561 27.82 22.4761 28.57C21.2361 29.44 20.0161 30.34 18.7561 31.17C17.9621 31.7268 17.0158 32.0255 16.0461 32.0255C15.0763 32.0255 14.1301 31.7268 13.3361 31.17C12.4861 30.65 11.6761 30.08 10.8461 29.53C10.4461 29.27 10.0461 28.97 10.3761 28.45C10.7061 27.93 11.1361 28.13 11.5461 28.45L13.9161 30.03C14.5188 30.4827 15.2522 30.7275 16.0061 30.7275C16.7599 30.7275 17.4933 30.4827 18.0961 30.03C19.6561 28.96 21.2061 27.85 22.7661 26.77C22.8685 26.7038 22.9548 26.6156 23.0188 26.5118C23.0828 26.408 23.1229 26.2912 23.1361 26.17C23.2361 25.46 23.3761 24.75 23.5061 24.04C23.6661 23.12 24.0761 22.59 24.7661 22.46C25.1241 22.3761 25.5002 22.419 25.8302 22.5813C26.1603 22.7435 26.4238 23.0152 26.5761 23.35C26.7238 23.7074 26.9909 24.0025 27.332 24.1849C27.673 24.3673 28.0668 24.4256 28.4461 24.35C29.4461 24.27 30.4461 24.35 31.3661 24.35C31.8 24.3233 32.2291 24.4529 32.5757 24.7152C32.9224 24.9775 33.1637 25.3552 33.2561 25.78C33.3505 26.2034 33.288 26.6466 33.0802 27.0274C32.8723 27.4081 32.5333 27.7005 32.1261 27.85C30.2689 28.7792 28.3134 29.497 26.2961 29.99C26.0087 30.0504 25.7407 30.1809 25.5161 30.37C23.6961 31.75 21.8661 33.12 20.0461 34.48C18.8541 35.3514 17.4125 35.8144 15.9361 35.8ZM24.4061 26.54C24.43 26.7065 24.5072 26.8609 24.6261 26.98C24.9561 27.41 25.2861 27.84 25.6261 28.28C25.6943 28.4057 25.8065 28.5018 25.9413 28.5498C26.076 28.5978 26.2237 28.5943 26.3561 28.54C28.1576 28.0368 29.9085 27.3673 31.5861 26.54C31.6524 26.5236 31.7149 26.4943 31.7699 26.4538C31.8249 26.4132 31.8713 26.3622 31.9066 26.3037C31.9419 26.2452 31.9653 26.1803 31.9755 26.1128C31.9857 26.0452 31.9825 25.9763 31.9661 25.91C31.9061 25.6 31.6661 25.55 31.3961 25.55C30.397 25.4887 29.3951 25.4887 28.3961 25.55C27.8159 25.6938 27.2029 25.6169 26.6762 25.3342C26.1496 25.0514 25.7468 24.583 25.5461 24.02C25.5094 23.961 25.4694 23.9043 25.4261 23.85C25.3361 23.71 25.2261 23.6 25.0461 23.65C24.8661 23.7 24.8661 23.83 24.8361 23.97C24.6961 24.81 24.5661 25.58 24.4061 26.54Z" fill="#EF4C23"/>
<path d="M35.846 19.14C36.0519 19.1777 36.2407 19.2791 36.386 19.43C36.956 20 37.526 20.58 38.106 21.15C38.1928 21.2141 38.2634 21.2977 38.312 21.3941C38.3606 21.4905 38.386 21.597 38.386 21.705C38.386 21.8129 38.3606 21.9194 38.312 22.0158C38.2634 22.1122 38.1928 22.1958 38.106 22.26L36.336 24.03C36.2712 24.1094 36.1897 24.1734 36.0971 24.2174C36.0046 24.2614 35.9034 24.2842 35.801 24.2842C35.6985 24.2842 35.5973 24.2614 35.5048 24.2174C35.4122 24.1734 35.3307 24.1094 35.266 24.03C34.656 23.43 34.046 22.82 33.456 22.21C33.3792 22.1511 33.317 22.0754 33.2743 21.9887C33.2315 21.902 33.2092 21.8066 33.2092 21.71C33.2092 21.6133 33.2315 21.5179 33.2743 21.4312C33.317 21.3445 33.3792 21.2688 33.456 21.21C34.086 20.56 34.726 19.92 35.366 19.29C35.5027 19.1839 35.6731 19.1306 35.846 19.14ZM36.756 21.8C36.5137 21.3865 36.1694 21.0422 35.756 20.8C35.3981 21.0293 35.0972 21.3371 34.876 21.7C34.816 21.8 35.726 22.7 35.806 22.6C36.176 22.35 36.476 22.05 36.756 21.8Z" fill="#EF4C23"/>
<path d="M35.8059 5.11C35.6991 5.11368 35.593 5.09096 35.4971 5.04387C35.4011 4.99677 35.3183 4.92675 35.2559 4.84L33.5359 3.12C33.449 3.05585 33.3785 2.97222 33.3298 2.87582C33.2812 2.77943 33.2559 2.67297 33.2559 2.565C33.2559 2.45703 33.2812 2.35057 33.3298 2.25418C33.3785 2.15779 33.449 2.07415 33.5359 2.01L35.2459 0.280006C35.3111 0.193069 35.3956 0.122505 35.4928 0.0739059C35.59 0.0253065 35.6972 0 35.8059 0C35.9146 0 36.0217 0.0253065 36.1189 0.0739059C36.2161 0.122505 36.3007 0.193069 36.3659 0.280006L38.1359 2.05C38.2093 2.111 38.2684 2.18743 38.309 2.27384C38.3495 2.36026 38.3706 2.45454 38.3706 2.55C38.3706 2.64546 38.3495 2.73976 38.309 2.82617C38.2684 2.91259 38.2093 2.98901 38.1359 3.05C37.5059 3.7 36.8559 4.33 36.2259 4.97C36.1709 5.0234 36.1046 5.06371 36.0319 5.08795C35.9592 5.11219 35.8819 5.11973 35.8059 5.11ZM35.8059 3.53001C36.1459 3.19001 36.4559 2.90001 36.7459 2.60001C36.5158 2.20674 36.2058 1.86608 35.8359 1.60001C35.7159 1.60001 34.8359 2.45001 34.9359 2.53001C35.1959 2.91001 35.4959 3.21001 35.7959 3.53001H35.8059Z" fill="#EF4C23"/>
<path d="M20.536 6.40998C20.4192 6.40974 20.304 6.3836 20.1985 6.33346C20.093 6.28331 20 6.2104 19.926 6.11998C19.356 5.53998 18.786 4.96998 18.206 4.39998C18.1173 4.33716 18.0449 4.25398 17.995 4.15741C17.945 4.06084 17.9189 3.9537 17.9189 3.84498C17.9189 3.73626 17.945 3.62912 17.995 3.53255C18.0449 3.43599 18.1173 3.3528 18.206 3.28998L19.926 1.56998C19.9912 1.48305 20.0758 1.41248 20.173 1.36388C20.2702 1.31528 20.3774 1.28998 20.486 1.28998C20.5947 1.28998 20.7019 1.31528 20.7991 1.36388C20.8963 1.41248 20.9808 1.48305 21.046 1.56998L22.806 3.33998C23.096 3.63998 23.196 3.97998 22.886 4.33998C22.246 5.00998 21.586 5.64998 20.886 6.33998C20.7777 6.39406 20.6569 6.41823 20.536 6.40998ZM21.536 3.86998C21.206 3.56998 20.956 3.34998 20.716 3.11998C20.476 2.88998 20.526 2.88998 20.316 3.00998C19.586 3.40998 19.516 3.86998 20.056 4.45998C20.366 4.77998 20.576 4.78998 20.866 4.45998C21.0839 4.23875 21.3216 4.0379 21.576 3.85998L21.536 3.86998Z" fill="#EF4C23"/>
<path d="M23.076 23.01C23.0536 23.2368 22.9421 23.4454 22.766 23.59C22.206 24.15 21.636 24.69 21.086 25.26C21.0205 25.3529 20.9336 25.4286 20.8326 25.4809C20.7317 25.5332 20.6197 25.5605 20.506 25.5605C20.3924 25.5605 20.2804 25.5332 20.1794 25.4809C20.0785 25.4286 19.9916 25.3529 19.926 25.26C19.356 24.68 18.786 24.11 18.206 23.54C18.1173 23.4772 18.0449 23.394 17.995 23.2974C17.945 23.2009 17.9189 23.0937 17.9189 22.985C17.9189 22.8763 17.945 22.7692 17.995 22.6726C18.0449 22.576 18.1173 22.4928 18.206 22.43L19.926 20.7C19.9812 20.6222 20.0527 20.5572 20.1354 20.5096C20.2182 20.462 20.3102 20.433 20.4053 20.4244C20.5003 20.4159 20.5961 20.428 20.686 20.4601C20.7759 20.4921 20.8578 20.5433 20.926 20.61C21.586 21.23 22.216 21.88 22.846 22.52C22.9173 22.5804 22.9748 22.6554 23.0145 22.7399C23.0542 22.8245 23.0752 22.9166 23.076 23.01ZM21.436 23.01C21.1788 22.653 20.8565 22.3476 20.486 22.11C20.126 22.34 19.646 22.65 19.636 23C19.626 23.35 20.116 23.66 20.466 23.9C20.556 23.95 21.436 23.12 21.436 23V23.01Z" fill="#EF4C23"/>
<path d="M30.6959 19.94L30.5559 20.01V19.85L30.6959 19.94Z" fill="#EF4C23"/>
</svg>
