<svg width="41" height="41" viewBox="0 0 41 41" fill="none" xmlns="http://www.w3.org/2000/svg">
<path d="M40.8116 28.0267C40.3086 28.6812 39.664 29.2135 38.9261 29.5835C38.1882 29.9536 37.3761 30.1518 36.5506 30.1633C35.7252 30.1749 34.9079 29.9995 34.1599 29.6502C33.4119 29.3009 32.7527 28.7869 32.2316 28.1467C32.1392 28.0236 32.0178 27.9254 31.8782 27.8609C31.7386 27.7963 31.5851 27.7674 31.4316 27.7767C24.4849 27.7767 17.5382 27.7767 10.5916 27.7767C10.4164 27.7777 10.244 27.821 10.0891 27.9028C9.93416 27.9846 9.80123 28.1026 9.70158 28.2467C8.98277 29.0919 8.02393 29.6985 6.95231 29.9861C5.88069 30.2736 4.74695 30.2285 3.70158 29.8567C2.69415 29.5032 1.81059 28.8656 1.15758 28.0209C0.504562 27.1763 0.110017 26.1606 0.021578 25.0967C-0.0758349 24.0011 0.158071 22.9015 0.69298 21.9405C1.22789 20.9794 2.03914 20.2012 3.02158 19.7067C4.09756 19.1564 5.32658 18.9815 6.51335 19.2098C7.70012 19.4381 8.77655 20.0565 9.57158 20.9667C9.71579 21.1458 9.90107 21.2875 10.1117 21.3797C10.3224 21.472 10.5521 21.5121 10.7816 21.4967C17.5749 21.4967 24.3616 21.4967 31.1416 21.4967C31.3595 21.5134 31.5782 21.4766 31.7787 21.3895C31.9791 21.3023 32.1552 21.1675 32.2916 20.9967C33.1921 19.9626 34.4476 19.3037 35.8101 19.15C37.1727 18.9963 38.5434 19.3591 39.6516 20.1667C40.1127 20.477 40.4905 20.896 40.7516 21.3867V21.6567C40.6194 21.9185 40.4051 22.1297 40.1413 22.2579C39.8776 22.3862 39.5791 22.4244 39.2916 22.3667C38.8123 22.2799 38.318 22.3416 37.8747 22.5435C37.4315 22.7455 37.0606 23.078 36.8116 23.4967C35.9616 24.6767 35.9616 24.5767 36.8116 25.7667C37.0582 26.2059 37.4383 26.5552 37.8968 26.7638C38.3554 26.9723 38.8684 27.0294 39.3616 26.9267C39.6584 26.8502 39.9731 26.8892 40.2423 27.0359C40.5114 27.1825 40.7149 27.4258 40.8116 27.7167V28.0267ZM39.8116 21.4767C39.6316 21.2867 39.5616 21.1867 39.4616 21.0967C38.9877 20.6935 38.4369 20.3906 37.8426 20.2064C37.2483 20.0222 36.6228 19.9605 36.0039 20.025C35.3851 20.0895 34.7857 20.2789 34.2422 20.5817C33.6986 20.8845 33.2221 21.2944 32.8416 21.7867C32.7352 21.9579 32.5883 22.1003 32.414 22.2015C32.2396 22.3026 32.043 22.3593 31.8416 22.3667C24.6549 22.3667 17.4616 22.3667 10.2616 22.3667C10.0661 22.3943 9.86688 22.3634 9.68893 22.278C9.51098 22.1926 9.36228 22.0564 9.26158 21.8867C8.90059 21.3765 8.4362 20.9481 7.89863 20.6293C7.36106 20.3106 6.76238 20.1086 6.14158 20.0367C5.0745 19.8976 3.99228 20.1339 3.08017 20.7048C2.16805 21.2758 1.48276 22.1461 1.14158 23.1667C0.794553 24.2115 0.833781 25.3462 1.25215 26.3646C1.67051 27.3829 2.44026 28.2175 3.42158 28.7167C4.3727 29.2124 5.46791 29.3579 6.51547 29.1275C7.56302 28.8972 8.49618 28.3057 9.15158 27.4567C9.2809 27.2664 9.45804 27.1136 9.66519 27.0135C9.87233 26.9134 10.1022 26.8697 10.3316 26.8867C17.4449 26.8867 24.5482 26.8867 31.6416 26.8867C31.8718 26.8658 32.1034 26.9066 32.3126 27.0051C32.5218 27.1035 32.7009 27.2559 32.8316 27.4467C33.5688 28.4085 34.6564 29.0397 35.8573 29.2027C37.0581 29.3657 38.2747 29.0472 39.2416 28.3167C39.4653 28.1936 39.6334 27.9897 39.7116 27.7467C39.0716 27.7467 38.4816 27.7467 37.9016 27.7467C37.7238 27.7637 37.5447 27.7327 37.3829 27.6571C37.2212 27.5815 37.0826 27.464 36.9816 27.3167C36.3816 26.5567 35.7516 25.8067 35.1216 25.0767C35.0524 25.0194 34.9967 24.9476 34.9585 24.8664C34.9202 24.7851 34.9004 24.6964 34.9004 24.6067C34.9004 24.5169 34.9202 24.4282 34.9585 24.3469C34.9967 24.2657 35.0524 24.1939 35.1216 24.1367C35.7816 23.3667 36.4316 22.5767 37.0716 21.7867C37.1564 21.6692 37.2698 21.5755 37.4011 21.5142C37.5324 21.453 37.6771 21.4263 37.8216 21.4367L39.8116 21.4767Z" fill="#EF4C23"/>
<path d="M40.6615 34.4066V36.8666C40.5915 37.1666 40.3415 37.2066 40.1015 37.2866C38.8815 37.6766 37.6515 38.0566 36.4315 38.4766C36.2657 38.5414 36.0856 38.5607 35.9098 38.5326C35.734 38.5045 35.5689 38.4299 35.4315 38.3166C34.685 37.811 33.7913 37.5682 32.8915 37.6266C28.6649 37.6666 24.4349 37.6666 20.2015 37.6266C19.5515 37.6266 19.3615 37.8266 19.4615 38.4066C19.4665 38.4766 19.4665 38.5467 19.4615 38.6166C19.4615 38.9366 19.4615 39.3066 19.0915 39.3666C18.7215 39.4266 18.5915 39.0966 18.5715 38.7566C18.5515 38.4166 18.3715 38.5166 18.1915 38.5966C18.0691 38.6574 17.9665 38.7517 17.8956 38.8685C17.8248 38.9854 17.7887 39.12 17.7915 39.2566C17.785 39.592 17.6692 39.9161 17.4616 40.1797C17.254 40.4432 16.9661 40.6318 16.6415 40.7166H2.50152C1.80683 40.6461 1.16469 40.3149 0.704492 39.7898C0.244292 39.2646 0.000241294 38.5846 0.0215202 37.8866C0.0215202 36.4466 0.0215202 34.9966 0.0215202 33.5466C0.0033142 33.1736 0.0627066 32.8008 0.195943 32.4519C0.32918 32.103 0.533364 31.7855 0.795583 31.5195C1.0578 31.2535 1.37235 31.0448 1.71935 30.9066C2.06635 30.7684 2.43824 30.7037 2.81152 30.7166C7.28152 30.7166 11.8115 30.7166 16.2315 30.7166C16.6246 30.6946 17.0106 30.828 17.3062 31.0881C17.6018 31.3481 17.7833 31.714 17.8115 32.1066C17.8115 32.3266 17.8115 32.5666 18.0715 32.7066C18.3315 32.8466 18.5715 33.0066 18.6015 32.5166C18.6015 32.2066 18.7515 31.9666 19.0915 32.0166C19.4315 32.0666 19.4815 32.3166 19.4915 32.6266C19.4915 33.7466 19.4915 33.7466 20.6615 33.7466C24.7815 33.7466 28.8915 33.7466 33.0115 33.7466C33.8222 33.8116 34.6306 33.5963 35.3015 33.1366C35.5041 32.9802 35.7466 32.884 36.0014 32.8593C36.2561 32.8345 36.5126 32.8821 36.7415 32.9966C37.8215 33.3966 38.9315 33.6966 40.0215 33.9966C40.2515 34.1366 40.5215 34.1666 40.6615 34.4066ZM9.39152 39.8366C11.5815 39.8366 13.7715 39.8366 15.9615 39.8366C16.5615 39.8366 16.8715 39.6366 16.9615 38.9966C16.9828 38.6742 17.1166 38.3695 17.3396 38.1356C17.5625 37.9017 17.8605 37.7534 18.1815 37.7166C18.5615 37.6666 18.6015 37.4966 18.6015 37.1866C18.6015 36.22 18.6015 35.25 18.6015 34.2766C18.6015 33.9666 18.6015 33.7966 18.1815 33.7366C17.852 33.6992 17.5464 33.5459 17.3193 33.3042C17.0922 33.0624 16.9583 32.7479 16.9415 32.4166C16.8815 31.7566 16.5515 31.5866 15.9415 31.5866H2.94152C2.6634 31.5791 2.38675 31.6297 2.12928 31.7351C1.8718 31.8405 1.63916 31.9985 1.44623 32.199C1.25329 32.3995 1.1043 32.638 1.00879 32.8993C0.913272 33.1606 0.873336 33.439 0.891523 33.7166C0.891523 35.0366 0.891523 36.3466 0.891523 37.6566C0.86504 37.95 0.903669 38.2455 1.00466 38.5222C1.10564 38.7989 1.26649 39.0499 1.47571 39.2572C1.68493 39.4645 1.93735 39.623 2.21494 39.7215C2.49253 39.8199 2.78844 39.8558 3.08152 39.8266L9.39152 39.8366ZM27.0115 36.7166C29.0115 36.7166 31.0115 36.7166 33.0115 36.7166C33.9585 36.6204 34.9087 36.8651 35.6915 37.4066C35.8158 37.5003 35.9624 37.5598 36.1168 37.5791C36.2712 37.5984 36.428 37.5768 36.5715 37.5166C37.5715 37.1866 38.4915 36.8466 39.4715 36.5966C40.0115 36.4566 39.9015 36.0966 39.8815 35.7666C39.8615 35.4366 40.0915 34.9566 39.4615 34.7666C38.5448 34.5394 37.6431 34.2555 36.7615 33.9166C36.5586 33.8234 36.3341 33.7871 36.1121 33.8118C35.8901 33.8365 35.679 33.9211 35.5015 34.0566C34.8449 34.4968 34.0599 34.7045 33.2715 34.6466C29.1815 34.6466 25.0915 34.6466 21.0015 34.6466C19.5015 34.6466 19.5215 34.6466 19.5115 36.1566C19.5115 36.5866 19.6115 36.7266 20.0615 36.7166C22.3515 36.7166 24.6815 36.7166 27.0115 36.7166Z" fill="#EF4C23"/>
<path d="M10.6914 10.2767C10.7414 9.27667 10.6014 8.01667 10.7614 6.77667C10.8329 6.13968 11.0565 5.52921 11.4133 4.99667C11.77 4.46414 12.2495 4.02515 12.8114 3.71667C14.5781 2.67667 16.3548 1.64667 18.1414 0.626667C18.7985 0.217107 19.5572 0 20.3314 0C21.1057 0 21.8644 0.217107 22.5214 0.626667C24.2614 1.62667 25.9914 2.62667 27.7414 3.62667C28.3723 3.94087 28.9089 4.41617 29.297 5.00444C29.685 5.59272 29.9108 6.27308 29.9514 6.97667C30.0914 9.41132 30.0914 11.852 29.9514 14.2867C29.9036 14.8895 29.7068 15.471 29.3787 15.9789C29.0505 16.4869 28.6013 16.9053 28.0714 17.1967C26.1848 18.3367 24.2748 19.4433 22.3414 20.5167C21.7361 20.8758 21.0452 21.0653 20.3414 21.0653C19.6376 21.0653 18.9467 20.8758 18.3414 20.5167C16.4314 19.4467 14.5414 18.3567 12.6614 17.2267C12.0299 16.8628 11.5098 16.3332 11.1573 15.6952C10.8048 15.0572 10.6333 14.335 10.6614 13.6067C10.6714 12.5767 10.6914 11.5367 10.6914 10.2767ZM11.6014 10.5167V13.6367C11.5799 14.2281 11.7239 14.8139 12.0171 15.328C12.3104 15.8421 12.7413 16.2642 13.2614 16.5467C15.0814 17.6067 16.9014 18.6467 18.7214 19.6867C19.2154 19.9879 19.7828 20.1473 20.3614 20.1473C20.94 20.1473 21.5074 19.9879 22.0014 19.6867C23.8348 18.6467 25.6548 17.5967 27.4614 16.5367C27.9833 16.2581 28.4166 15.8386 28.7118 15.3259C29.0071 14.8132 29.1524 14.2279 29.1314 13.6367V7.38667C29.1524 6.79542 29.0071 6.21015 28.7118 5.69746C28.4166 5.18477 27.9833 4.76525 27.4614 4.48667C25.6714 3.42667 23.8714 2.39667 22.0714 1.36667C21.5617 1.04289 20.9703 0.870949 20.3664 0.870949C19.7625 0.870949 19.1712 1.04289 18.6614 1.36667C16.8514 2.41667 15.0214 3.44667 13.2114 4.51667C12.7124 4.79121 12.2983 5.19752 12.0144 5.69128C11.7305 6.18503 11.5877 6.74727 11.6014 7.31667V10.5167Z" fill="#EF4C23"/>
<path d="M15.2513 10.3366H15.3913C15.8413 11.0366 16.3013 11.7366 16.7613 12.4366C16.9113 12.6666 17.0613 12.9266 17.3913 12.8366C17.7213 12.7466 17.7313 12.4766 17.7313 12.1866C17.7313 11.0866 17.7313 9.97665 17.7313 8.86665C17.7313 8.52665 17.7313 8.18665 17.2513 8.20665C16.7713 8.22665 16.8413 8.55664 16.8413 8.85664C16.8413 9.45664 16.8413 10.0566 16.8413 10.6466C16.2677 9.9976 15.7493 9.30186 15.2913 8.56664C15.1513 8.35664 15.0113 8.13664 14.7113 8.21664C14.4113 8.29664 14.3413 8.56664 14.3413 8.85664V12.1766C14.3413 12.5166 14.3413 12.8566 14.8113 12.8466C15.2813 12.8366 15.2513 12.4766 15.2513 12.1466V10.3366ZM19.0713 10.5066C19.0713 11.1466 19.0713 11.7766 19.0713 12.4066C19.0636 12.4632 19.0687 12.5208 19.0863 12.5751C19.1038 12.6294 19.1334 12.679 19.1728 12.7204C19.2122 12.7617 19.2604 12.7936 19.3138 12.8137C19.3672 12.8338 19.4244 12.8417 19.4813 12.8366C19.7513 12.8366 19.8813 12.6866 19.9113 12.4266C19.9713 11.9566 19.7213 11.3666 20.0213 11.0566C20.3213 10.7466 20.9113 10.9866 21.3813 10.9466C21.6413 10.9466 21.8113 10.8066 21.8113 10.5266C21.817 10.47 21.8106 10.4128 21.7924 10.3588C21.7743 10.3049 21.7448 10.2554 21.706 10.2138C21.6672 10.1721 21.6199 10.1392 21.5674 10.1173C21.5148 10.0954 21.4582 10.0849 21.4013 10.0866C21.1082 10.0716 20.8145 10.0716 20.5213 10.0866C20.1413 10.0866 19.9013 10.0866 19.9013 9.57665C19.9013 9.06665 20.1213 9.01665 20.5113 9.04665C20.7811 9.06164 21.0515 9.06164 21.3213 9.04665C21.6113 9.04665 21.8213 8.94664 21.8113 8.62664C21.8013 8.30664 21.6013 8.19664 21.3213 8.19664H19.6413C19.2413 8.19664 19.0613 8.36664 19.0713 8.76664C19.0813 9.33664 19.0713 9.92665 19.0713 10.5066ZM24.5713 8.17664H23.3513C23.0413 8.17664 22.7913 8.28664 22.8013 8.62664C22.8113 8.96664 23.0613 9.05665 23.3713 9.04665C23.4379 9.05167 23.5047 9.05167 23.5713 9.04665C24.0213 8.96665 24.1513 9.15665 24.1313 9.59665C24.1313 10.4066 24.1313 11.2266 24.1313 12.0366C24.1313 12.3966 24.1313 12.8466 24.6113 12.8266C25.0913 12.8066 25.0513 12.3566 25.0513 12.0066C25.0513 11.3066 25.0513 10.6066 25.0513 9.90664C25.0513 9.20664 25.0513 8.90664 25.8413 9.03664C25.9077 9.05864 25.9786 9.0637 26.0475 9.05134C26.1164 9.03899 26.1811 9.00962 26.2357 8.9659C26.2904 8.92219 26.3332 8.86551 26.3604 8.80103C26.3876 8.73654 26.3982 8.66629 26.3913 8.59665C26.3913 8.27665 26.1213 8.16664 25.8013 8.17664H24.5713Z" fill="#EF4C23"/>
<path d="M5.38145 27.3866C5.07698 27.4259 4.76754 27.3919 4.47884 27.2875C4.19013 27.1832 3.93048 27.0115 3.72145 26.7866C3.38642 26.48 3.12312 26.1032 2.95027 25.6832C2.77743 25.2632 2.6993 24.8103 2.72145 24.3566C2.72145 23.4166 3.33145 23.0366 3.72145 22.4466C4.28145 21.6966 5.03145 21.8666 5.72145 21.8666C7.22145 21.8666 8.21145 23.1166 8.21145 25.0066C8.13107 25.6889 7.79361 26.3149 7.26781 26.7571C6.74201 27.1993 6.06743 27.4244 5.38145 27.3866ZM7.38145 24.6166C7.39936 24.3735 7.36684 24.1293 7.28594 23.8993C7.20505 23.6693 7.07751 23.4585 6.91133 23.2801C6.74515 23.1018 6.54391 22.9596 6.32023 22.8627C6.09655 22.7657 5.85525 22.716 5.61145 22.7166C5.35628 22.688 5.09795 22.7144 4.85379 22.7939C4.60964 22.8733 4.38531 23.0041 4.19588 23.1775C4.00645 23.3508 3.85628 23.5626 3.75548 23.7988C3.65468 24.035 3.60557 24.2899 3.61145 24.5466C3.58641 24.8056 3.61779 25.0668 3.70342 25.3125C3.78905 25.5581 3.9269 25.7822 4.10749 25.9695C4.28807 26.1567 4.50709 26.3026 4.74946 26.397C4.99183 26.4915 5.25179 26.5323 5.51145 26.5166C5.76513 26.5346 6.01971 26.4977 6.25785 26.4084C6.49598 26.3192 6.71208 26.1796 6.89144 25.9993C7.07079 25.819 7.20919 25.6022 7.2972 25.3636C7.38521 25.125 7.42076 24.8702 7.40145 24.6166H7.38145Z" fill="#EF4C23"/>
<path d="M8.98137 33.3366H12.3614C12.6794 33.3286 12.9958 33.3842 13.2921 33.5001C13.5884 33.616 13.8585 33.7899 14.0867 34.0116C14.3149 34.2332 14.4965 34.4982 14.621 34.791C14.7454 35.0838 14.8101 35.3985 14.8114 35.7166C14.8142 36.0342 14.7529 36.3491 14.6311 36.6424C14.5094 36.9357 14.3297 37.2015 14.1028 37.4237C13.8759 37.6459 13.6065 37.8201 13.3107 37.9357C13.0149 38.0513 12.6988 38.1061 12.3814 38.0966C10.0714 38.0966 7.77137 38.0966 5.46137 38.0966C5.14304 38.1048 4.82636 38.0484 4.53039 37.9309C4.23441 37.8135 3.96528 37.6373 3.73918 37.4131C3.51309 37.1889 3.3347 36.9212 3.21478 36.6262C3.09486 36.3312 3.03587 36.015 3.04137 35.6966C3.06228 35.068 3.33016 34.4729 3.78693 34.0405C4.2437 33.6081 4.85252 33.3731 5.48137 33.3866L8.98137 33.3366ZM8.98137 37.1366H12.4314C12.6245 37.1475 12.8178 37.1189 12.9994 37.0524C13.181 36.9859 13.3471 36.8831 13.4876 36.7501C13.628 36.6171 13.7398 36.4569 13.8162 36.2792C13.8925 36.1015 13.9317 35.91 13.9314 35.7166C13.9435 35.5178 13.9127 35.3188 13.8412 35.1329C13.7697 34.947 13.6591 34.7787 13.5168 34.6393C13.3746 34.4999 13.2041 34.3927 13.0168 34.325C12.8295 34.2572 12.6299 34.2305 12.4314 34.2466H5.53137C5.33121 34.2293 5.12966 34.255 4.94023 34.3219C4.75079 34.3888 4.57785 34.4954 4.43297 34.6346C4.2881 34.7738 4.17465 34.9424 4.10021 35.129C4.02577 35.3156 3.99207 35.5159 4.00137 35.7166C3.99951 35.914 4.03851 36.1096 4.11593 36.2911C4.19336 36.4727 4.30751 36.6362 4.45123 36.7715C4.59495 36.9067 4.76511 37.0108 4.951 37.0771C5.13689 37.1433 5.3345 37.1704 5.53137 37.1566L8.98137 37.1366Z" fill="#EF4C23"/>
<path d="M15.2513 10.3366V12.1366C15.2513 12.4666 15.2513 12.8266 14.8113 12.8366C14.3713 12.8466 14.3413 12.5066 14.3413 12.1666V8.84664C14.3413 8.55664 14.3413 8.28664 14.7113 8.20664C15.0813 8.12664 15.1513 8.34664 15.2913 8.55664C15.7397 9.29075 16.2481 9.98646 16.8113 10.6366C16.8113 10.0466 16.8113 9.44664 16.8113 8.84664C16.8113 8.54664 16.8113 8.21664 17.2213 8.19664C17.6313 8.17664 17.7013 8.51664 17.7013 8.85664C17.7013 9.96664 17.7013 11.0766 17.7013 12.1766C17.7013 12.4666 17.7013 12.7466 17.3613 12.8266C17.0213 12.9066 16.8813 12.6566 16.7313 12.4266C16.2713 11.7266 15.8113 11.0266 15.3613 10.3266L15.2513 10.3366Z" fill="#EF4C23"/>
<path d="M19.0715 10.5066C19.0715 9.92661 19.0715 9.33661 19.0715 8.75661C19.0715 8.35661 19.2415 8.17661 19.6415 8.18661H21.3315C21.6115 8.18661 21.8115 8.29661 21.8215 8.61661C21.8315 8.93661 21.6215 9.03661 21.3315 9.03661C21.0617 9.0516 20.7913 9.0516 20.5215 9.03661C20.1315 9.03661 19.9115 9.03661 19.9115 9.56661C19.9115 10.0966 20.1515 10.1066 20.5315 10.0766C20.8247 10.0616 21.1184 10.0616 21.4115 10.0766C21.4684 10.0749 21.5251 10.0854 21.5776 10.1073C21.6301 10.1292 21.6774 10.1621 21.7162 10.2037C21.755 10.2454 21.7845 10.2948 21.8027 10.3488C21.8208 10.4028 21.8273 10.46 21.8215 10.5166C21.8215 10.7966 21.6515 10.9066 21.3915 10.9366C20.9215 10.9366 20.3315 10.7266 20.0315 11.0466C19.7315 11.3666 20.0315 11.9466 19.9215 12.4166C19.9215 12.6766 19.7615 12.8366 19.4915 12.8266C19.4347 12.8316 19.3774 12.8238 19.324 12.8037C19.2706 12.7835 19.2224 12.7516 19.183 12.7103C19.1436 12.669 19.114 12.6194 19.0965 12.565C19.0789 12.5107 19.0738 12.4532 19.0815 12.3966C19.0815 11.7666 19.0815 11.1366 19.0815 10.4966L19.0715 10.5066Z" fill="#EF4C23"/>
<path d="M24.5713 8.17664H25.8113C26.1313 8.17664 26.3813 8.27664 26.4013 8.59664C26.4082 8.66628 26.3976 8.73653 26.3704 8.80102C26.3432 8.8655 26.3004 8.92218 26.2457 8.9659C26.1911 9.00961 26.1264 9.03898 26.0575 9.05133C25.9886 9.06369 25.9178 9.05864 25.8513 9.03664C25.0713 8.88664 25.0313 9.31664 25.0613 9.90664C25.0913 10.4966 25.0613 11.3066 25.0613 12.0066C25.0613 12.3566 25.1313 12.8166 24.6213 12.8266C24.1113 12.8366 24.1413 12.3966 24.1413 12.0366C24.1413 11.2266 24.1413 10.4066 24.1413 9.59664C24.1413 9.15664 24.0313 8.96664 23.5813 9.04664C23.5147 9.05166 23.4479 9.05166 23.3813 9.04664C23.0713 9.04664 22.8213 8.96664 22.8113 8.62664C22.8013 8.28664 23.0513 8.17664 23.3613 8.17664H24.5713Z" fill="#EF4C23"/>
</svg>
