<svg width="44" height="41" viewBox="0 0 44 41" fill="none" xmlns="http://www.w3.org/2000/svg">
<mask id="path-1-inside-1_3_554" fill="white">
<path d="M19.1676 40.8173H18.3576C17.8676 40.4173 17.2476 40.5173 16.6976 40.3673C15.2642 39.9203 13.99 39.0697 13.0276 37.9173C12.8276 37.6973 12.6476 37.4973 12.2876 37.5673C9.68646 38.0984 6.98065 37.6116 4.72764 36.2073C3.62506 35.6013 2.65977 34.7738 1.89247 33.7768C1.12518 32.7798 0.572474 31.6348 0.269107 30.4138C-0.0342602 29.1928 -0.0817241 27.9222 0.129703 26.682C0.341129 25.4418 0.806866 24.2588 1.49764 23.2073C1.5872 23.1009 1.63631 22.9663 1.63631 22.8273C1.63631 22.6882 1.5872 22.5536 1.49764 22.4473C0.85534 21.5422 0.422505 20.5055 0.230517 19.4123C0.0385295 18.3192 0.0922072 17.1971 0.387645 16.1273C0.582508 15.096 1.08368 14.1475 1.82577 13.4054C2.56786 12.6633 3.51641 12.1621 4.54764 11.9673C5.29764 11.8173 5.54764 11.5073 5.42764 10.7573C5.34825 10.0142 5.39901 9.26293 5.57764 8.53727C5.94178 7.03458 6.75501 5.67847 7.90905 4.64947C9.0631 3.62048 10.5032 2.96743 12.0376 2.77726C13.2258 2.64966 14.427 2.82062 15.5323 3.27463C16.6377 3.72865 17.6122 4.45137 18.3676 5.37726C18.8076 5.88726 18.9976 5.84726 19.4576 5.37726C21.3276 3.45726 23.5476 2.37727 26.2976 3.00727C26.5633 3.08683 26.8461 3.08961 27.1133 3.01529C27.3805 2.94098 27.6212 2.79258 27.8076 2.58726C28.864 1.5655 30.1497 0.811677 31.5573 0.388898C32.9648 -0.0338806 34.4531 -0.113309 35.8976 0.157262C37.485 0.47042 38.9665 1.18256 40.2025 2.22657C41.4385 3.27058 42.3884 4.61209 42.9627 6.12471C43.5369 7.63732 43.7166 9.27123 43.4848 10.8725C43.2529 12.4737 42.6173 13.9896 41.6376 15.2773C40.8431 16.2428 39.8769 17.0531 38.7876 17.6673L39.5776 18.1473C40.5365 18.661 41.3755 19.3723 42.0392 20.2342C42.7028 21.0961 43.1761 22.089 43.4276 23.1473C43.6127 24.242 43.5701 25.3632 43.3025 26.4408C43.035 27.5183 42.5482 28.5292 41.8726 29.4103C41.197 30.2914 40.3471 31.0238 39.3759 31.5618C38.4046 32.0998 37.3329 32.4319 36.2276 32.5373C34.8776 32.6473 34.8776 32.6473 34.8476 33.9773C34.8204 35.4459 34.3273 36.8678 33.4393 38.0379C32.5514 39.208 31.3147 40.0657 29.9076 40.4873C29.3615 40.5389 28.822 40.6461 28.2976 40.8073H27.6176C27.6176 40.8073 27.6176 40.7073 27.5476 40.6973C26.1783 40.5882 24.8629 40.1152 23.7376 39.3273C23.6438 39.2526 23.5275 39.212 23.4076 39.212C23.2878 39.212 23.1714 39.2526 23.0776 39.3273C22.2597 39.8397 21.3699 40.2273 20.4376 40.4773C19.9992 40.524 19.5708 40.6387 19.1676 40.8173ZM34.8076 29.8173C35.3732 29.8673 35.9421 29.8673 36.5076 29.8173C37.7612 29.562 38.8841 28.8714 39.6776 27.8679C40.4711 26.8644 40.884 25.6125 40.8433 24.3338C40.8026 23.0551 40.3109 21.8321 39.4552 20.881C38.5995 19.93 37.4349 19.3123 36.1676 19.1373C35.6712 19.0883 35.1907 18.9349 34.7576 18.6873C34.575 18.5724 34.4231 18.4149 34.3149 18.2283C34.2067 18.0416 34.1455 17.8315 34.1367 17.6159C34.1278 17.4004 34.1715 17.1859 34.264 16.991C34.3565 16.7962 34.4951 16.6267 34.6676 16.4973C34.9556 16.3194 35.2745 16.1973 35.6076 16.1373C37.336 15.7424 38.8405 14.6853 39.7978 13.1932C40.7552 11.7011 41.089 9.8929 40.7276 8.15726C40.4828 6.94926 39.9142 5.83053 39.0826 4.9207C38.2511 4.01088 37.1879 3.34418 36.0068 2.99189C34.8256 2.6396 33.5709 2.61497 32.3768 2.92064C31.1828 3.2263 30.0942 3.85077 29.2276 4.72726C28.8576 5.09726 28.5376 5.50726 28.1776 5.87726C28.0667 6.01451 27.9291 6.12775 27.773 6.21007C27.6169 6.2924 27.4458 6.34209 27.2699 6.35612C27.094 6.37016 26.9171 6.34824 26.7499 6.2917C26.5828 6.23516 26.4289 6.14519 26.2976 6.02726C26.087 5.85364 25.8414 5.72744 25.5776 5.65726C24.7205 5.41919 23.8129 5.4331 22.9634 5.69735C22.1139 5.96159 21.3585 6.46497 20.7876 7.14727C20.4129 7.62896 20.0784 8.14069 19.7876 8.67727C19.6804 8.88735 19.5171 9.06369 19.316 9.18686C19.1148 9.31002 18.8835 9.3752 18.6476 9.3752C18.4118 9.3752 18.1805 9.31002 17.9793 9.18686C17.7781 9.06369 17.6149 8.88735 17.5076 8.67727C17.3476 8.42727 17.2276 8.15726 17.0776 7.90726C16.7048 7.24204 16.1785 6.67546 15.5426 6.25462C14.9067 5.83378 14.1794 5.57086 13.4214 5.48772C12.6634 5.40458 11.8964 5.50363 11.1844 5.77662C10.4724 6.04962 9.8358 6.48867 9.32764 7.05726C8.46764 7.97726 7.70764 10.2073 8.43764 11.3773C9.16764 12.5473 8.55764 13.5273 7.19764 13.6473C6.28418 13.6935 5.40274 13.9987 4.65627 14.5273C3.90979 15.0558 3.3291 15.7858 2.98201 16.632C2.63493 17.4782 2.53578 18.4057 2.69614 19.3062C2.8565 20.2066 3.26976 21.0429 3.88764 21.7173C4.62764 22.5873 4.67764 23.1073 3.98764 23.9273C2.48764 25.7173 2.43764 27.7673 2.90764 29.9273C3.56764 32.9273 8.21764 36.2573 12.3976 34.9873C13.5976 34.6273 13.8376 34.7073 14.6176 35.6573C14.7176 35.7773 14.8076 35.9073 14.9176 36.0273C15.3209 36.5877 15.8392 37.0557 16.4379 37.3997C17.0365 37.7437 17.7017 37.956 18.389 38.0223C19.0763 38.0885 19.7698 38.0073 20.4232 37.784C21.0766 37.5606 21.6747 37.2004 22.1776 36.7273C22.949 36.0769 23.5551 35.2529 23.9462 34.3229C24.3373 33.3929 24.5023 32.3834 24.4276 31.3773C24.4276 27.4873 24.4276 23.5973 24.4276 19.6973C24.4276 19.2673 24.3176 19.1273 23.8676 19.1373C23.1476 19.1373 22.1376 19.4573 21.7976 19.0073C21.4576 18.5573 21.7176 17.5773 21.6776 16.8373C21.6776 16.4173 21.8376 16.3473 22.1976 16.3573C22.7776 16.3573 23.3776 16.3573 23.9676 16.3573C24.3176 16.3573 24.4376 16.2573 24.4276 15.8973C24.4025 15.2881 24.4427 14.6779 24.5476 14.0773C24.9108 12.1239 25.9102 10.3457 27.3898 9.01974C28.8695 7.69383 30.7463 6.89481 32.7276 6.74727C33.1576 6.74727 33.4076 6.74727 33.3576 7.28727C33.3126 7.85304 33.3126 8.42149 33.3576 8.98726C33.3576 9.40726 33.2176 9.51726 32.8276 9.55726C31.2519 9.66784 29.7817 10.3893 28.7301 11.5679C27.6785 12.7465 27.1286 14.2892 27.1976 15.8673C27.1976 16.1773 27.2576 16.3073 27.5976 16.2973C28.1676 16.2973 28.7376 16.2973 29.2976 16.2973C29.8576 16.2973 30.0076 16.4673 29.9376 16.9873C29.8676 17.5073 30.2076 18.5673 29.7876 18.9273C29.3676 19.2873 28.4876 19.1073 27.7876 19.0773C27.2576 19.0773 27.1676 19.2473 27.1776 19.7273C27.1776 23.5773 27.1776 27.4273 27.1776 31.2673C27.2743 33.2886 26.7091 35.2863 25.5676 36.9573C25.3376 37.2873 25.3976 37.4373 25.7576 37.6073C26.765 38.0712 27.9012 38.1743 28.9756 37.8993C30.05 37.6244 30.997 36.988 31.6576 36.0973C32.1303 35.433 32.4393 34.6664 32.5592 33.86C32.6791 33.0536 32.6066 32.2303 32.3476 31.4573C32.2765 31.2637 32.256 31.0551 32.2881 30.8514C32.3202 30.6477 32.4038 30.4556 32.5311 30.2933C32.6583 30.131 32.8249 30.0039 33.0151 29.9241C33.2053 29.8443 33.4127 29.8144 33.6176 29.8373C34.0376 29.8073 34.4176 29.8173 34.8076 29.8173Z"/>
</mask>
<path d="M19.1676 40.8173H18.3576C17.8676 40.4173 17.2476 40.5173 16.6976 40.3673C15.2642 39.9203 13.99 39.0697 13.0276 37.9173C12.8276 37.6973 12.6476 37.4973 12.2876 37.5673C9.68646 38.0984 6.98065 37.6116 4.72764 36.2073C3.62506 35.6013 2.65977 34.7738 1.89247 33.7768C1.12518 32.7798 0.572474 31.6348 0.269107 30.4138C-0.0342602 29.1928 -0.0817241 27.9222 0.129703 26.682C0.341129 25.4418 0.806866 24.2588 1.49764 23.2073C1.5872 23.1009 1.63631 22.9663 1.63631 22.8273C1.63631 22.6882 1.5872 22.5536 1.49764 22.4473C0.85534 21.5422 0.422505 20.5055 0.230517 19.4123C0.0385295 18.3192 0.0922072 17.1971 0.387645 16.1273C0.582508 15.096 1.08368 14.1475 1.82577 13.4054C2.56786 12.6633 3.51641 12.1621 4.54764 11.9673C5.29764 11.8173 5.54764 11.5073 5.42764 10.7573C5.34825 10.0142 5.39901 9.26293 5.57764 8.53727C5.94178 7.03458 6.75501 5.67847 7.90905 4.64947C9.0631 3.62048 10.5032 2.96743 12.0376 2.77726C13.2258 2.64966 14.427 2.82062 15.5323 3.27463C16.6377 3.72865 17.6122 4.45137 18.3676 5.37726C18.8076 5.88726 18.9976 5.84726 19.4576 5.37726C21.3276 3.45726 23.5476 2.37727 26.2976 3.00727C26.5633 3.08683 26.8461 3.08961 27.1133 3.01529C27.3805 2.94098 27.6212 2.79258 27.8076 2.58726C28.864 1.5655 30.1497 0.811677 31.5573 0.388898C32.9648 -0.0338806 34.4531 -0.113309 35.8976 0.157262C37.485 0.47042 38.9665 1.18256 40.2025 2.22657C41.4385 3.27058 42.3884 4.61209 42.9627 6.12471C43.5369 7.63732 43.7166 9.27123 43.4848 10.8725C43.2529 12.4737 42.6173 13.9896 41.6376 15.2773C40.8431 16.2428 39.8769 17.0531 38.7876 17.6673L39.5776 18.1473C40.5365 18.661 41.3755 19.3723 42.0392 20.2342C42.7028 21.0961 43.1761 22.089 43.4276 23.1473C43.6127 24.242 43.5701 25.3632 43.3025 26.4408C43.035 27.5183 42.5482 28.5292 41.8726 29.4103C41.197 30.2914 40.3471 31.0238 39.3759 31.5618C38.4046 32.0998 37.3329 32.4319 36.2276 32.5373C34.8776 32.6473 34.8776 32.6473 34.8476 33.9773C34.8204 35.4459 34.3273 36.8678 33.4393 38.0379C32.5514 39.208 31.3147 40.0657 29.9076 40.4873C29.3615 40.5389 28.822 40.6461 28.2976 40.8073H27.6176C27.6176 40.8073 27.6176 40.7073 27.5476 40.6973C26.1783 40.5882 24.8629 40.1152 23.7376 39.3273C23.6438 39.2526 23.5275 39.212 23.4076 39.212C23.2878 39.212 23.1714 39.2526 23.0776 39.3273C22.2597 39.8397 21.3699 40.2273 20.4376 40.4773C19.9992 40.524 19.5708 40.6387 19.1676 40.8173ZM34.8076 29.8173C35.3732 29.8673 35.9421 29.8673 36.5076 29.8173C37.7612 29.562 38.8841 28.8714 39.6776 27.8679C40.4711 26.8644 40.884 25.6125 40.8433 24.3338C40.8026 23.0551 40.3109 21.8321 39.4552 20.881C38.5995 19.93 37.4349 19.3123 36.1676 19.1373C35.6712 19.0883 35.1907 18.9349 34.7576 18.6873C34.575 18.5724 34.4231 18.4149 34.3149 18.2283C34.2067 18.0416 34.1455 17.8315 34.1367 17.6159C34.1278 17.4004 34.1715 17.1859 34.264 16.991C34.3565 16.7962 34.4951 16.6267 34.6676 16.4973C34.9556 16.3194 35.2745 16.1973 35.6076 16.1373C37.336 15.7424 38.8405 14.6853 39.7978 13.1932C40.7552 11.7011 41.089 9.8929 40.7276 8.15726C40.4828 6.94926 39.9142 5.83053 39.0826 4.9207C38.2511 4.01088 37.1879 3.34418 36.0068 2.99189C34.8256 2.6396 33.5709 2.61497 32.3768 2.92064C31.1828 3.2263 30.0942 3.85077 29.2276 4.72726C28.8576 5.09726 28.5376 5.50726 28.1776 5.87726C28.0667 6.01451 27.9291 6.12775 27.773 6.21007C27.6169 6.2924 27.4458 6.34209 27.2699 6.35612C27.094 6.37016 26.9171 6.34824 26.7499 6.2917C26.5828 6.23516 26.4289 6.14519 26.2976 6.02726C26.087 5.85364 25.8414 5.72744 25.5776 5.65726C24.7205 5.41919 23.8129 5.4331 22.9634 5.69735C22.1139 5.96159 21.3585 6.46497 20.7876 7.14727C20.4129 7.62896 20.0784 8.14069 19.7876 8.67727C19.6804 8.88735 19.5171 9.06369 19.316 9.18686C19.1148 9.31002 18.8835 9.3752 18.6476 9.3752C18.4118 9.3752 18.1805 9.31002 17.9793 9.18686C17.7781 9.06369 17.6149 8.88735 17.5076 8.67727C17.3476 8.42727 17.2276 8.15726 17.0776 7.90726C16.7048 7.24204 16.1785 6.67546 15.5426 6.25462C14.9067 5.83378 14.1794 5.57086 13.4214 5.48772C12.6634 5.40458 11.8964 5.50363 11.1844 5.77662C10.4724 6.04962 9.8358 6.48867 9.32764 7.05726C8.46764 7.97726 7.70764 10.2073 8.43764 11.3773C9.16764 12.5473 8.55764 13.5273 7.19764 13.6473C6.28418 13.6935 5.40274 13.9987 4.65627 14.5273C3.90979 15.0558 3.3291 15.7858 2.98201 16.632C2.63493 17.4782 2.53578 18.4057 2.69614 19.3062C2.8565 20.2066 3.26976 21.0429 3.88764 21.7173C4.62764 22.5873 4.67764 23.1073 3.98764 23.9273C2.48764 25.7173 2.43764 27.7673 2.90764 29.9273C3.56764 32.9273 8.21764 36.2573 12.3976 34.9873C13.5976 34.6273 13.8376 34.7073 14.6176 35.6573C14.7176 35.7773 14.8076 35.9073 14.9176 36.0273C15.3209 36.5877 15.8392 37.0557 16.4379 37.3997C17.0365 37.7437 17.7017 37.956 18.389 38.0223C19.0763 38.0885 19.7698 38.0073 20.4232 37.784C21.0766 37.5606 21.6747 37.2004 22.1776 36.7273C22.949 36.0769 23.5551 35.2529 23.9462 34.3229C24.3373 33.3929 24.5023 32.3834 24.4276 31.3773C24.4276 27.4873 24.4276 23.5973 24.4276 19.6973C24.4276 19.2673 24.3176 19.1273 23.8676 19.1373C23.1476 19.1373 22.1376 19.4573 21.7976 19.0073C21.4576 18.5573 21.7176 17.5773 21.6776 16.8373C21.6776 16.4173 21.8376 16.3473 22.1976 16.3573C22.7776 16.3573 23.3776 16.3573 23.9676 16.3573C24.3176 16.3573 24.4376 16.2573 24.4276 15.8973C24.4025 15.2881 24.4427 14.6779 24.5476 14.0773C24.9108 12.1239 25.9102 10.3457 27.3898 9.01974C28.8695 7.69383 30.7463 6.89481 32.7276 6.74727C33.1576 6.74727 33.4076 6.74727 33.3576 7.28727C33.3126 7.85304 33.3126 8.42149 33.3576 8.98726C33.3576 9.40726 33.2176 9.51726 32.8276 9.55726C31.2519 9.66784 29.7817 10.3893 28.7301 11.5679C27.6785 12.7465 27.1286 14.2892 27.1976 15.8673C27.1976 16.1773 27.2576 16.3073 27.5976 16.2973C28.1676 16.2973 28.7376 16.2973 29.2976 16.2973C29.8576 16.2973 30.0076 16.4673 29.9376 16.9873C29.8676 17.5073 30.2076 18.5673 29.7876 18.9273C29.3676 19.2873 28.4876 19.1073 27.7876 19.0773C27.2576 19.0773 27.1676 19.2473 27.1776 19.7273C27.1776 23.5773 27.1776 27.4273 27.1776 31.2673C27.2743 33.2886 26.7091 35.2863 25.5676 36.9573C25.3376 37.2873 25.3976 37.4373 25.7576 37.6073C26.765 38.0712 27.9012 38.1743 28.9756 37.8993C30.05 37.6244 30.997 36.988 31.6576 36.0973C32.1303 35.433 32.4393 34.6664 32.5592 33.86C32.6791 33.0536 32.6066 32.2303 32.3476 31.4573C32.2765 31.2637 32.256 31.0551 32.2881 30.8514C32.3202 30.6477 32.4038 30.4556 32.5311 30.2933C32.6583 30.131 32.8249 30.0039 33.0151 29.9241C33.2053 29.8443 33.4127 29.8144 33.6176 29.8373C34.0376 29.8073 34.4176 29.8173 34.8076 29.8173Z" stroke="#EF4C23" stroke-width="1.6" mask="url(#path-1-inside-1_3_554)"/>
<path d="M18.6476 14.6473L18.3086 14.4349C18.0676 14.8195 17.9038 15.0261 17.7158 15.1229C17.5598 15.2032 17.3079 15.2433 16.7925 15.0445C15.81 14.6602 14.807 14.903 14.0377 15.4938C13.2729 16.0812 12.7194 17.0225 12.5909 18.0957C12.4588 19.034 12.6282 19.99 13.0748 20.8258L13.0792 20.834L13.0839 20.8419C13.3684 21.3198 13.7686 21.7182 14.2477 22.0005C14.7214 22.2796 15.257 22.4363 15.8062 22.4565C16.9713 22.602 18.0612 23.1101 18.9219 23.9091C19.7868 24.7119 20.3759 25.7675 20.6052 26.925L20.6051 26.9251L20.6073 26.935C20.8734 28.1191 20.762 29.3567 20.2889 30.4742C19.8165 31.5899 19.0071 32.5299 17.9741 33.1629C16.9139 33.7662 15.6769 33.9822 14.4749 33.774C13.2729 33.5658 12.1807 32.9463 11.3853 32.0216C11.3347 31.9586 11.302 31.9118 11.2814 31.8769C11.3051 31.8591 11.3404 31.8356 11.3919 31.807L11.3984 31.8033L11.4049 31.7994C11.91 31.4934 12.3925 31.1516 12.8488 30.7768C12.8823 30.7538 12.9081 30.7372 12.9289 30.7252C13.3658 31.2898 13.9872 31.6837 14.6851 31.8374C15.394 31.9935 16.1352 31.8917 16.7757 31.5503L16.7764 31.55C17.447 31.1909 17.9948 30.6394 18.3492 29.9663C18.7032 29.2943 18.8481 28.5319 18.7656 27.7769C18.6732 26.7902 18.2667 25.8591 17.6056 25.1205L17.5953 25.109L17.5841 25.0983C17.308 24.8341 16.9822 24.6272 16.6256 24.4898C16.275 24.3546 15.9014 24.2892 15.5259 24.297C14.3689 24.219 13.2718 23.7536 12.4115 22.9755C11.547 22.1936 10.9727 21.142 10.7822 19.9919L10.7824 19.9919L10.7804 19.9817C10.0548 16.2126 12.2538 13.5493 14.8913 12.9573C15.2453 12.9565 15.6289 12.9458 16.0094 12.8978C16.9881 12.9192 17.9425 13.2078 18.7692 13.7325C18.7934 13.7487 18.8143 13.7634 18.8323 13.7768C18.8299 13.7793 18.8274 13.7819 18.8248 13.7845L18.8244 13.7848C18.6281 13.9815 18.4549 14.2 18.308 14.4359L18.6476 14.6473ZM18.6476 14.6473C18.1776 15.3973 17.7876 15.8573 16.6476 15.4173M18.6476 14.6473C18.7784 14.4371 18.9327 14.2426 19.1076 14.0673L16.6476 15.4173M16.6476 15.4173C14.9876 14.7673 13.2176 16.2073 12.9876 18.1473L16.6476 15.4173ZM18.9031 13.839C18.9031 13.839 18.9029 13.8388 18.9026 13.8383L18.9031 13.839Z" stroke="#EF4C23" stroke-width="0.8"/>
</svg>
