<svg width="41" height="41" viewBox="0 0 41 41" fill="none" xmlns="http://www.w3.org/2000/svg">
<path d="M0.0160246 40.8701C0.0160246 38.1301 0.0160246 35.4001 0.0160246 32.6601C-0.0843554 30.9357 0.288288 29.2167 1.09371 27.6887C1.89913 26.1607 3.10672 24.8818 4.58603 23.9901C4.81603 23.8401 4.96603 23.7101 4.81603 23.4001C4.655 22.9762 4.5868 22.5226 4.61603 22.0701C4.61603 19.9201 4.61603 17.7701 4.61603 15.6201C4.60933 15.0483 4.717 14.4809 4.93273 13.9514C5.14846 13.4218 5.46789 12.9407 5.87224 12.5363C6.27659 12.132 6.7577 11.8125 7.28728 11.5968C7.81686 11.3811 8.38423 11.2734 8.95603 11.2801C10.2899 11.1792 11.6306 11.2194 12.956 11.4001C13.8826 11.5918 14.717 12.0914 15.3235 12.8177C15.93 13.544 16.2727 14.4542 16.296 15.4001C16.336 17.6401 16.336 19.8801 16.296 22.1201C16.3014 22.6924 16.1925 23.26 15.9756 23.7896C15.7588 24.3192 15.4384 24.8002 15.0333 25.2044C14.6281 25.6087 14.1464 25.9279 13.6162 26.1435C13.0861 26.3592 12.5183 26.4668 11.946 26.4601H10.216L14.476 29.7601C14.6909 29.8835 14.9439 29.9227 15.186 29.8701C18.536 29.8701 21.876 29.8701 25.186 29.8701C25.756 29.8701 25.896 30.0101 25.886 30.5701C25.886 32.5001 25.886 34.4201 25.886 36.3401C25.886 36.9001 25.706 37.0001 25.196 37.0001C21.0694 37.0001 16.9327 37.0001 12.786 37.0001C12.4739 37.0061 12.1661 36.9266 11.896 36.7701C10.066 35.6901 8.24602 34.6101 6.40602 33.5601C6.03602 33.3501 6.01603 33.1901 6.22603 32.8401C6.87603 31.7601 6.86603 31.7501 7.95603 32.3901L12.276 34.9301C12.5756 35.1185 12.9221 35.219 13.276 35.2201C16.666 35.2201 20.056 35.2201 23.456 35.2201C23.946 35.2201 24.126 35.1101 24.096 34.5901C24.051 33.7974 24.051 33.0028 24.096 32.2101C24.096 31.7101 23.936 31.6301 23.486 31.6301C20.546 31.6301 17.606 31.6301 14.676 31.6301C14.2252 31.6333 13.7884 31.4735 13.446 31.1801C11.086 29.3201 8.69603 27.5001 6.33603 25.6401C6.18649 25.4935 5.98542 25.4114 5.77602 25.4114C5.56662 25.4114 5.36556 25.4935 5.21602 25.6401C4.13839 26.3532 3.25755 27.326 2.65464 28.4689C2.05172 29.6118 1.74613 30.8881 1.76602 32.1801C1.76602 35.0701 1.76602 37.9701 1.76602 40.8601L0.0160246 40.8701ZM14.546 18.8701C14.546 17.7801 14.546 16.7001 14.546 15.6101C14.5487 15.2757 14.4852 14.9441 14.3594 14.6343C14.2336 14.3244 14.0478 14.0425 13.8127 13.8046C13.5777 13.5668 13.2979 13.3777 12.9896 13.2482C12.6813 13.1187 12.3504 13.0514 12.016 13.0501C11.016 13.0501 9.93602 13.0501 8.90602 13.0501C8.23055 13.058 7.58557 13.3326 7.11167 13.814C6.63776 14.2954 6.37334 14.9446 6.37603 15.6201C6.37603 17.7601 6.37603 19.9068 6.37603 22.0601C6.35426 22.7113 6.58963 23.3449 7.03124 23.8239C7.47285 24.3029 8.08524 24.5889 8.73603 24.6201C9.88496 24.6901 11.0371 24.6901 12.186 24.6201C12.8262 24.5915 13.4299 24.3143 13.8688 23.8474C14.3077 23.3805 14.5471 22.7608 14.536 22.1201C14.526 21.0401 14.506 19.9501 14.506 18.8701H14.546Z" fill="#EF4C23"/>
<path d="M40.8161 24.7101C40.3886 25.7191 40.0733 26.7721 39.8761 27.8501C39.1961 30.2801 38.5761 32.7201 37.8761 35.1601C37.7839 35.6455 37.5153 36.0797 37.122 36.3788C36.7287 36.6779 36.2386 36.8209 35.7461 36.7801C33.3061 36.7801 30.8661 36.7801 28.4261 36.7801C27.9661 36.7801 27.8561 36.6401 27.8661 36.2001C27.8661 35.0201 27.8661 35.0201 29.0061 35.0201C31.1761 35.0201 33.3461 35.0201 35.5161 35.0201C35.7961 35.0201 36.0461 35.0201 36.1461 34.6701C37.0361 31.2801 37.9461 27.8801 38.8561 24.4301H38.1461C32.9761 24.4301 27.7961 24.4301 22.6261 24.4301C22.0361 24.4301 21.7861 24.6001 21.6261 25.1701C21.4361 26.0801 21.1561 26.9601 20.9461 27.8601C20.8461 28.2801 20.7161 28.4501 20.2161 28.2901C19.1161 27.9301 19.1061 27.9701 19.4061 26.8201C19.6261 25.9401 19.8461 25.0701 20.0961 24.2001C20.1915 23.7496 20.4463 23.3487 20.8138 23.0712C21.1813 22.7938 21.6367 22.6584 22.0961 22.6901C27.7761 22.6901 33.4461 22.6901 39.0961 22.6901C39.4676 22.6759 39.8328 22.7892 40.1311 23.0111C40.4294 23.233 40.6429 23.5502 40.7361 23.9101L40.8161 24.7101Z" fill="#EF4C23"/>
<path d="M28.6661 18.1801C27.4061 18.1801 26.1361 18.1801 24.8761 18.1801C24.4961 18.1801 24.3061 18.0901 24.3761 17.6901C24.4675 17.2168 24.4053 16.7267 24.1984 16.2913C23.9915 15.8559 23.6508 15.4981 23.2261 15.2701C21.8361 14.1656 20.8279 12.6527 20.3435 10.9448C19.8591 9.23677 19.923 7.41984 20.5261 5.75009C21.1242 4.06919 22.2275 2.61438 23.6848 1.585C25.142 0.555613 26.8819 0.00202531 28.6661 8.88779e-05C30.5198 -0.00832146 32.3269 0.580364 33.82 1.679C35.313 2.77763 36.4127 4.32782 36.9561 6.10009C37.5081 7.88403 37.4631 9.79938 36.8278 11.5554C36.1926 13.3114 35.0017 14.8123 33.4361 15.8301C32.9161 16.1601 33.0261 16.5601 33.0161 16.9901C33.0161 18.1701 33.0161 18.1701 31.8561 18.1701L28.6661 18.1801ZM29.6061 16.4201C29.939 16.3962 30.2732 16.3962 30.6061 16.4201C31.1461 16.4801 31.3561 16.2701 31.2661 15.7401C31.1761 15.2101 31.4061 14.9601 31.8661 14.7401C32.9846 14.191 33.9243 13.3357 34.5758 12.2735C35.2273 11.2113 35.5637 9.98601 35.5461 8.74009C35.5615 7.0416 34.9462 5.39779 33.8194 4.12684C32.6925 2.8559 31.1342 2.0482 29.4461 1.86009C27.8052 1.68349 26.1553 2.1009 24.7958 3.0366C23.4362 3.9723 22.4572 5.3643 22.0361 6.96009C21.625 8.47916 21.7519 10.0937 22.3952 11.5299C23.0386 12.9661 24.1589 14.1356 25.5661 14.8401C25.7961 14.9701 26.1061 14.9901 26.1361 15.4001C26.2261 16.4601 26.2461 16.4601 27.3261 16.4701H27.7261L29.6061 16.4201Z" fill="#EF4C23"/>
<path d="M23.0161 38.6401C28.2561 38.6401 33.5061 38.6401 38.7461 38.6401C39.3361 38.6401 39.5961 38.7701 39.4861 39.3801C39.4617 39.5592 39.4617 39.7409 39.4861 39.9201C39.5461 40.3501 39.3461 40.4401 38.9461 40.4401H7.01607C6.59607 40.4401 6.47607 40.3201 6.47607 39.9101C6.47607 38.6501 6.47606 38.6501 7.69606 38.6501L23.0161 38.6401Z" fill="#EF4C23"/>
<path d="M28.6959 20.7501C27.4559 20.7501 26.2159 20.7501 24.9759 20.7501C24.5059 20.7501 24.3559 20.6401 24.3659 20.1601C24.3659 18.9801 24.3659 18.9801 25.5159 18.9801C27.7959 18.9801 30.0759 18.9801 32.3559 18.9801C32.8459 18.9801 33.0759 19.0401 33.0559 19.6201C33.0059 20.7501 33.0559 20.7501 31.8859 20.7501H28.6959Z" fill="#EF4C23"/>
<path d="M27.746 16.4201C27.866 14.5201 27.746 12.6301 27.806 10.7301C27.806 10.4001 27.636 10.3501 27.386 10.3801C27.136 10.4101 26.956 10.2301 26.946 9.90005C26.946 8.62005 26.946 8.62006 28.206 8.62006C28.796 8.62006 29.386 8.62006 29.966 8.62006C30.366 8.62006 30.496 8.75006 30.466 9.13006C30.4361 9.37916 30.4361 9.63095 30.466 9.88006C30.466 10.2401 30.406 10.4501 29.986 10.3901C29.746 10.3901 29.556 10.3901 29.556 10.7401C29.556 12.6301 29.556 14.5301 29.556 16.4201H27.746Z" fill="#EF4C23"/>
<path d="M28.7261 4.43005C28.9261 5.04005 28.5861 5.22005 27.9161 5.33005C27.2583 5.45826 26.6573 5.78976 26.198 6.27778C25.7387 6.7658 25.4442 7.3857 25.3561 8.05005C25.2961 8.57005 25.1061 8.70005 24.6061 8.69005C23.3461 8.69005 23.3461 8.69005 23.6061 7.46005C23.8349 6.4655 24.3547 5.56159 25.0991 4.86348C25.8435 4.16537 26.7789 3.70467 27.7861 3.54005C28.7561 3.42005 28.7361 3.18005 28.7261 4.43005Z" fill="#EF4C23"/>
</svg>
