<svg width="41" height="21" viewBox="0 0 41 21" fill="none" xmlns="http://www.w3.org/2000/svg">
<path d="M40.8564 14.3804C40.6634 14.663 40.4012 14.8913 40.0949 15.0437C39.7885 15.196 39.4481 15.2671 39.1064 15.2504C38.7364 15.2504 38.8364 15.5104 38.8064 15.7204C38.6944 16.7727 38.2711 17.7677 37.5906 18.5782C36.9102 19.3888 36.0034 19.9779 34.9863 20.2704C34.4458 20.4368 33.8818 20.5145 33.3163 20.5004H24.9663C24.6503 20.5398 24.3294 20.5121 24.0248 20.4188C23.7202 20.3256 23.4388 20.1691 23.199 19.9594C22.9591 19.7498 22.7663 19.4919 22.6332 19.2025C22.5 18.9131 22.4295 18.5989 22.4263 18.2804C22.3263 17.5504 22.0063 17.2304 21.2863 17.2004C20.5663 17.1704 20.0663 17.2004 19.4563 17.2004C19.1911 17.2004 18.9368 17.3057 18.7492 17.4932C18.5617 17.6808 18.4563 17.9351 18.4563 18.2004C18.1963 19.8904 17.4563 20.5204 15.7963 20.5204H7.64635C6.27601 20.5883 4.93226 20.1251 3.89476 19.2273C2.85727 18.3295 2.20594 17.0662 2.07634 15.7004C2.07634 15.3404 1.92635 15.2704 1.59635 15.2604C0.476347 15.2004 0.0163449 14.6904 0.0163449 13.5804C0.0163449 12.0404 0.0163449 10.5004 0.0163449 8.96035C-0.0163241 8.74614 0.000117898 8.5273 0.0644253 8.32038C0.128733 8.11345 0.23923 7.92384 0.387561 7.76588C0.535892 7.60792 0.718179 7.48573 0.920657 7.40855C1.12314 7.33137 1.34051 7.30121 1.55635 7.32035C1.92635 7.32035 2.02635 7.22035 2.08635 6.84035C2.22249 5.49869 2.86306 4.2588 3.87853 3.37143C4.89399 2.48406 6.20855 2.01544 7.55635 2.06035H15.8463C16.2463 2.06035 16.4764 2.06035 16.4764 1.52035C16.4677 1.30929 16.5049 1.09884 16.5854 0.903555C16.666 0.708269 16.7879 0.532789 16.9429 0.389227C17.0979 0.245666 17.2822 0.137448 17.483 0.0720354C17.6839 0.00662316 17.8966 -0.0144245 18.1064 0.0103517C19.6664 0.0103517 21.2263 0.0103517 22.7863 0.0103517C23.0019 -0.0153623 23.2204 0.00697356 23.4263 0.0757509C23.6322 0.144528 23.8202 0.258043 23.977 0.408141C24.1338 0.558239 24.2554 0.741193 24.3331 0.943869C24.4108 1.14654 24.4426 1.36391 24.4263 1.58036C24.4263 2.06036 24.6363 2.06035 24.9863 2.06035H33.2864C34.6471 1.99701 35.9804 2.45704 37.0125 3.34598C38.0446 4.23492 38.6973 5.4853 38.8364 6.84035C38.8864 7.21035 38.9764 7.36035 39.3564 7.32035C40.0664 7.23035 40.4563 7.76035 40.9063 8.16035L40.8564 14.3804ZM20.4263 3.26035H7.42635C6.87132 3.25314 6.32062 3.35898 5.8078 3.57143C5.29499 3.78388 4.83079 4.09849 4.44347 4.4961C4.05615 4.89372 3.75382 5.36601 3.55489 5.88421C3.35596 6.40242 3.26459 6.9557 3.28635 7.51035C3.28635 10.0237 3.28635 12.5337 3.28635 15.0404C3.26389 15.601 3.35761 16.1602 3.5616 16.6829C3.7656 17.2057 4.07547 17.6805 4.47176 18.0778C4.86805 18.475 5.34219 18.786 5.86441 18.9912C6.38663 19.1964 6.94565 19.2915 7.50635 19.2704H15.9164C16.8564 19.2704 17.1463 19.0004 17.2563 18.0404C17.3048 17.4772 17.5692 16.9546 17.9941 16.5818C18.419 16.2091 18.9717 16.015 19.5363 16.0404H21.2863C21.5807 16.0187 21.8764 16.0561 22.156 16.1506C22.4357 16.245 22.6935 16.3946 22.9144 16.5903C23.1354 16.786 23.3148 17.024 23.4422 17.2903C23.5697 17.5565 23.6425 17.8455 23.6563 18.1404C23.7563 19.0304 24.0664 19.3104 24.9764 19.3104H33.2864C33.8581 19.3405 34.4298 19.2502 34.9645 19.0454C35.4992 18.8406 35.9849 18.5258 36.3902 18.1214C36.7955 17.7171 37.1115 17.2321 37.3175 16.6979C37.5236 16.1637 37.6151 15.5922 37.5864 15.0204C37.5864 12.6004 37.5864 10.1804 37.5864 7.76035C37.6386 7.15978 37.5584 6.55505 37.3515 5.98884C37.1445 5.42263 36.8158 4.90874 36.3886 4.48342C35.9614 4.05809 35.446 3.73171 34.8789 3.52729C34.3118 3.32288 33.7067 3.24541 33.1064 3.30035L20.4263 3.26035ZM2.02635 11.2604C2.02635 10.4904 2.02635 9.72035 2.02635 8.95035C2.02635 8.67035 2.02635 8.47036 1.64635 8.49036C1.26635 8.51036 1.17634 8.58035 1.18634 8.92035C1.18634 10.4804 1.18634 12.0404 1.18634 13.6004C1.18634 13.9704 1.36634 14.0504 1.68634 14.0704C2.00634 14.0904 2.01634 13.7904 2.01634 13.5604C2.02634 12.8004 2.02635 12.0304 2.02635 11.2704V11.2604ZM38.8163 11.2604C38.8163 12.0504 38.8163 12.8404 38.8163 13.6304C38.8163 13.8904 38.8163 14.0704 39.1763 14.0504C39.5363 14.0304 39.6563 13.9604 39.6563 13.6204C39.6563 12.0404 39.6563 10.4604 39.6563 8.88035C39.6563 8.52035 39.4563 8.49036 39.1763 8.47036C38.8963 8.45036 38.8063 8.62035 38.8163 8.88035C38.8263 9.75035 38.8163 10.5004 38.8163 11.2904V11.2604ZM20.4764 2.01035H22.7764C22.9964 2.01035 23.2363 2.07035 23.2163 1.70035C23.1963 1.33035 23.1464 1.17035 22.7764 1.17035H18.0264C17.6864 1.17035 17.6463 1.38035 17.6263 1.66035C17.6063 1.94035 17.7763 2.01035 18.0363 2.01035H20.4764Z" fill="#EF4C23"/>
<path d="M31.5264 8.14032V6.14032C31.5264 5.68032 31.7464 5.39032 32.2064 5.38032C32.749 5.34027 33.2938 5.34027 33.8364 5.38032C34.1743 5.40508 34.4959 5.53513 34.756 5.75218C35.0161 5.96922 35.2016 6.26235 35.2864 6.59032C35.4232 6.91624 35.4504 7.2778 35.3638 7.62051C35.2772 7.96322 35.0816 8.26849 34.8064 8.49032C34.4864 8.76032 34.5264 8.91032 34.7364 9.18032C34.9382 9.45128 35.1219 9.73523 35.2864 10.0303C35.3358 10.0934 35.3712 10.1663 35.39 10.2442C35.4088 10.3221 35.4107 10.4031 35.3955 10.4818C35.3804 10.5605 35.3485 10.635 35.3021 10.7003C35.2556 10.7656 35.1957 10.8202 35.1264 10.8603C35.0642 10.9109 34.9915 10.947 34.9136 10.966C34.8357 10.9851 34.7545 10.9865 34.676 10.9702C34.5975 10.9539 34.5236 10.9203 34.4596 10.8719C34.3957 10.8235 34.3434 10.7615 34.3064 10.6903C33.9764 10.2303 33.6664 9.76032 33.3664 9.29032C33.2364 9.09032 33.1064 8.89032 32.8264 8.99032C32.5464 9.09032 32.7264 9.30032 32.7064 9.46032C32.6914 9.73011 32.6914 10.0005 32.7064 10.2703C32.7064 10.6703 32.5464 10.9503 32.1464 10.9603C32.0603 10.9666 31.9739 10.954 31.8932 10.9233C31.8126 10.8926 31.7396 10.8445 31.6795 10.7825C31.6194 10.7205 31.5737 10.6461 31.5455 10.5645C31.5173 10.483 31.5074 10.3962 31.5164 10.3103C31.5164 9.59032 31.5164 8.86032 31.5164 8.14032H31.5264ZM32.7464 7.14032C32.6164 7.58032 32.7464 7.78032 33.2764 7.74032C33.8064 7.70032 34.1964 7.74032 34.1964 7.13032C34.1964 6.52032 33.7464 6.56032 33.3264 6.53032C32.9064 6.50032 32.5964 6.60032 32.7464 7.16032V7.14032Z" fill="#EF4C23"/>
<path d="M28.4062 8.81032C28.8362 7.81032 29.2262 6.81032 29.5962 5.94032C29.7562 5.55032 29.9862 5.22032 30.4562 5.41032C30.9262 5.60032 30.8762 6.00032 30.7162 6.41032C30.1662 7.75032 29.6062 9.07032 29.0662 10.4103C28.9262 10.7503 28.7462 10.9603 28.3762 10.9503C28.0062 10.9403 27.8762 10.7203 27.7562 10.4303C27.1962 9.07032 26.6362 7.71032 26.0662 6.36032C25.9062 5.98032 25.9262 5.63032 26.3362 5.45032C26.7462 5.27032 27.0262 5.51032 27.1762 5.88032L28.4062 8.81032Z" fill="#EF4C23"/>
<path d="M7.47629 4.20032C7.86629 4.20032 8.18628 4.32031 8.21628 4.76031C8.24628 5.20031 7.92628 5.36032 7.51628 5.41032C7.20888 5.40232 6.90349 5.46192 6.62166 5.58492C6.33983 5.70792 6.08845 5.89131 5.88528 6.12214C5.68212 6.35297 5.53212 6.62559 5.44589 6.92076C5.35967 7.21592 5.33933 7.52642 5.38629 7.83032C5.38629 8.21032 5.38629 8.60032 5.38629 8.98032C5.38629 9.36032 5.19629 9.64032 4.77629 9.64032C4.35629 9.64032 4.18628 9.37032 4.18628 8.97032C4.18628 8.36032 4.18628 7.75032 4.18628 7.15032C4.27497 6.33968 4.65979 5.59032 5.26694 5.04592C5.87408 4.50152 6.66082 4.20041 7.47629 4.20032Z" fill="#EF4C23"/>
<path d="M5.38629 11.5403C5.38629 11.8503 5.38629 12.1903 5.14629 12.4003C5.03732 12.5008 4.89453 12.5566 4.74629 12.5566C4.59806 12.5566 4.45525 12.5008 4.34628 12.4003C4.22488 12.1299 4.16211 11.8368 4.16211 11.5403C4.16211 11.2439 4.22488 10.9508 4.34628 10.6803C4.39043 10.6219 4.44581 10.5728 4.50917 10.5361C4.57253 10.4993 4.6426 10.4756 4.71526 10.4663C4.78791 10.4569 4.8617 10.4622 4.93228 10.4818C5.00287 10.5014 5.06882 10.5349 5.12628 10.5803C5.33628 10.7503 5.38629 10.9003 5.38629 11.5403Z" fill="#EF4C23"/>
</svg>
